<svg preserveAspectRatio="xMidYMid" width="auto" height="140" viewBox="0 0 600 160" fill="none" xmlns="http://www.w3.org/2000/svg">
<g clip-path="url(#clip0_2262_1270)">
<path fill-rule="evenodd" clip-rule="evenodd" d="M108.781 70.323C108.781 73.1207 106.513 75.3836 103.721 75.3836H27.8224C26.4802 75.3836 25.1931 74.8504 24.244 73.9014C23.295 72.9523 22.7618 71.6652 22.7618 70.323C22.7618 68.9809 23.295 67.6937 24.244 66.7446C25.1931 65.7956 26.4802 65.2624 27.8224 65.2624H103.716C106.508 65.2624 108.776 67.5253 108.776 70.323M88.539 98.1459H43.0041C42.3263 98.1675 41.6511 98.0527 41.0185 97.8082C40.386 97.5637 39.809 97.1946 39.3219 96.7228C38.8348 96.251 38.4475 95.6861 38.183 95.0617C37.9185 94.4372 37.7822 93.766 37.7822 93.0879C37.7822 92.4097 37.9185 91.7385 38.183 91.1141C38.4475 90.4896 38.8348 89.9247 39.3219 89.4529C39.809 88.9811 40.386 88.612 41.0185 88.3675C41.6511 88.1231 42.3263 88.0083 43.0041 88.0299H88.5441C89.8862 88.0299 91.1734 88.563 92.1225 89.5121C93.0715 90.4611 93.6047 91.7483 93.6047 93.0904C93.6047 94.4326 93.0715 95.7198 92.1225 96.6688C91.1734 97.6178 89.8862 98.151 88.5441 98.151M43.0041 42.495H88.5441C89.8862 42.495 91.1734 43.0282 92.1225 43.9772C93.0715 44.9263 93.6047 46.2134 93.6047 47.5556C93.6047 48.8977 93.0715 50.1849 92.1225 51.134C91.1734 52.083 89.8862 52.6162 88.5441 52.6162H43.0041C41.662 52.6162 40.3748 52.083 39.4257 51.134C38.4767 50.1849 37.9435 48.8977 37.9435 47.5556C37.9435 46.2134 38.4767 44.9263 39.4257 43.9772C40.3748 43.0282 41.662 42.495 43.0041 42.495ZM103.885 29.7613C93.6026 20.0297 79.9702 14.6268 65.8127 14.6722C64.6195 14.6722 63.4212 14.7082 62.2178 14.7802C34.3127 16.5133 11.9721 38.859 10.239 66.7642C9.27211 82.3264 14.5898 97.1224 25.215 108.432C30.4002 113.996 36.6805 118.427 43.661 121.447C50.6414 124.466 58.1711 126.01 65.7767 125.979H121.433V70.323C121.464 62.7173 119.921 55.1875 116.901 48.2069C113.881 41.2264 109.45 34.9462 103.885 29.7613Z" fill="#F27557"/>
<path fill-rule="evenodd" clip-rule="evenodd" d="M121.428 125.98H65.7716C50.2504 125.98 35.8453 119.747 25.2099 108.433C14.5847 97.1237 9.267 82.3277 10.2339 66.7654C11.9619 38.8603 34.3024 16.5146 62.2127 14.7814C63.4161 14.7094 64.6196 14.6734 65.8127 14.6734C79.9685 14.6294 93.5988 20.0322 103.88 29.7626C109.445 34.9475 113.876 41.2277 116.896 48.2082C119.916 55.1887 121.459 62.7186 121.428 70.3243V125.98ZM110.808 22.3877C97.4464 9.82887 79.971 3.52887 61.5853 4.68601C28.599 6.73287 2.18014 33.1517 0.12814 66.138C-1.00843 84.5134 5.27614 101.999 17.8401 115.36C23.9999 121.894 31.4275 127.103 39.6688 130.668C47.9102 134.233 56.7921 136.08 65.7716 136.096H126.488C129.281 136.096 131.549 133.833 131.549 131.041V70.3243C131.532 61.3444 129.684 52.4623 126.118 44.2209C122.552 35.9796 117.342 28.547 110.808 22.3877Z" fill="#C34027"/>
<path fill-rule="evenodd" clip-rule="evenodd" d="M88.5445 88.031H43.0046C41.6624 88.031 40.3752 88.5641 39.4262 89.5132C38.4771 90.4622 37.944 91.7494 37.944 93.0915C37.944 94.4337 38.4771 95.7208 39.4262 96.6699C40.3752 97.6189 41.6624 98.1521 43.0046 98.1521H88.5445C89.8867 98.1521 91.1739 97.6189 92.1229 96.6699C93.072 95.7208 93.6051 94.4337 93.6051 93.0915C93.6051 91.7494 93.072 90.4622 92.1229 89.5132C91.1739 88.5641 89.8867 88.031 88.5445 88.031ZM43.0046 52.6172H88.5445C89.8867 52.6172 91.1739 52.0841 92.1229 51.135C93.072 50.186 93.6051 48.8988 93.6051 47.5567C93.6051 46.2145 93.072 44.9273 92.1229 43.9783C91.1739 43.0293 89.8867 42.4961 88.5445 42.4961H43.0046C41.6624 42.4961 40.3752 43.0293 39.4262 43.9783C38.4771 44.9273 37.944 46.2145 37.944 47.5567C37.944 48.8988 38.4771 50.186 39.4262 51.135C40.3752 52.0841 41.6624 52.6172 43.0046 52.6172ZM27.828 65.2687C26.5144 65.3106 25.2687 65.8618 24.3543 66.8058C23.44 67.7498 22.9287 69.0124 22.9287 70.3267C22.9287 71.6409 23.44 72.9036 24.3543 73.8475C25.2687 74.7915 26.5144 75.3428 27.828 75.3847H103.721C105.063 75.3847 106.35 74.8515 107.299 73.9025C108.249 72.9534 108.782 71.6662 108.782 70.3241C108.782 68.9819 108.249 67.6948 107.299 66.7457C106.35 65.7967 105.063 65.2635 103.721 65.2635H27.828V65.2687Z" fill="#FEFEFE"/>
<path fill-rule="evenodd" clip-rule="evenodd" d="M277.621 71.7592C277.621 50.6992 263.339 31.0998 240.078 31.0998C216.637 31.0998 202.535 50.694 202.535 71.7592C202.535 92.8192 216.637 112.413 240.078 112.413C263.339 112.413 277.621 92.8192 277.621 71.7592ZM270.298 132.008L281.283 146.845L255.281 160.031L239.898 139.151C197.223 138.966 172.131 106.926 172.131 71.7592C172.131 36.5975 197.403 4.36719 240.068 4.36719C282.558 4.36719 307.835 36.5975 307.835 71.7592C307.835 97.3963 294.104 121.573 270.298 132.008ZM409.304 47.5826V135.855H381.286V123.219C376.338 132.558 366.083 138.056 352.347 138.056C340.997 138.056 332.387 134.204 327.625 127.976C322.127 121.203 320.847 112.599 320.847 99.9626V47.5775H348.685V92.814C348.685 105.45 352.532 114.244 364.253 114.244C375.793 114.244 381.286 105.45 381.286 91.8986V47.5826H409.304Z" fill="#EDF0F6"/>
<path fill-rule="evenodd" clip-rule="evenodd" d="M429.459 135.854H457.477V47.5818H429.459V135.854ZM443.375 0.519531C453.63 0.519531 461.504 8.3881 461.504 18.2881C461.504 27.9875 453.63 36.0464 443.375 36.0464C441.03 36.0633 438.704 35.6169 436.531 34.7329C434.358 33.8488 432.381 32.5444 430.713 30.8945C429.046 29.2446 427.72 27.2817 426.813 25.1184C425.906 22.9551 425.435 20.6339 425.427 18.2881C425.427 8.3881 433.306 0.519531 443.375 0.519531ZM505.645 91.723C505.645 103.989 514.064 114.249 526.885 114.249C539.336 114.249 547.765 103.989 547.765 91.723C547.765 79.4521 539.336 69.1972 526.885 69.1972C514.064 69.1972 505.645 79.4521 505.645 91.723ZM505.645 60.223C509.852 52.1641 521.207 45.3858 532.748 45.3858C558.2 45.3858 575.783 65.3504 575.783 91.723C575.783 118.09 558.195 138.055 532.743 138.055C521.207 138.055 509.857 131.277 505.64 123.218V175.778H477.622V47.587H505.64L505.645 60.223Z" fill="#EDF0F6"/>
</g>
<defs>
<clipPath id="clip0_2262_1270">
<rect width="auto" height="140" fill="white" transform="translate(0 0.519531)"/>
</clipPath>
</defs>
</svg>
