<svg preserveAspectRatio="xMidYMid" width="auto" height="160" viewBox="0 0 960 140" fill="none" xmlns="http://www.w3.org/2000/svg">
<g clip-path="url(#clip0_2083_787)">
<path d="M0 0.628906H108.333V56.2766H53.5073L0 0.628906ZM0 56.2766H53.5073L108.333 113.213H53.5073V170.155L0 113.213L0 56.2766Z" fill="white"/>
<path d="M140.796 140.095V30.5112H208.375V52.4071H166.163V81.1446H208.375V103.036H166.163V140.095H140.796Z" fill="white"/>
<path d="M223.535 140.095V64.1987H248.798V81.1446C248.798 76.0904 252.169 70.9321 255.535 67.5654C260.589 64.1987 264.064 62.5112 269.114 62.5112C272.481 62.5112 274.164 64.1987 275.852 64.1987V86.1987H269.114C262.377 86.1987 257.219 87.8821 253.852 92.9363C250.481 96.3029 248.798 103.036 248.798 111.461V140.095H223.535Z" fill="white"/>
<path d="M316.378 143.464C304.486 143.464 296.061 138.41 289.328 131.672C284.274 124.935 280.903 114.83 280.903 103.039C280.903 94.6179 282.59 87.8845 284.274 82.8304C287.645 76.0929 292.69 70.9345 297.745 67.5678C302.799 64.197 309.536 62.5137 316.378 62.5137C321.432 62.5137 326.486 64.197 331.536 65.8803C334.903 67.5678 338.274 70.9345 339.957 76.0929V64.197H365.224V140.093H339.957V129.989C338.274 133.355 334.903 136.726 331.536 140.093C326.486 141.78 321.432 143.464 316.378 143.464ZM323.115 123.247C329.853 123.247 333.22 121.568 336.59 116.514C339.957 113.147 341.64 108.093 341.64 103.039C341.64 96.3054 339.957 92.9345 336.59 87.8845C333.22 84.5137 329.853 82.8304 323.115 82.8304C318.061 82.8304 312.903 84.5137 309.536 87.8845C306.17 92.9345 304.486 96.3054 304.486 103.039C304.486 108.093 306.17 113.147 309.536 116.514C312.903 121.568 318.061 123.247 323.115 123.247Z" fill="white"/>
<path d="M383.854 140.095V64.1987H407.433V76.0904C409.117 70.9321 412.483 69.2487 415.854 65.8821C421.012 64.1987 424.383 62.5112 429.433 62.5112C441.225 62.5112 449.646 67.5654 453.012 76.0904C456.379 72.6196 459.75 69.2487 463.117 65.8821C468.171 64.1987 473.329 62.5112 478.383 62.5112C496.908 62.5112 505.329 72.6196 505.329 92.9363V140.095H481.75V97.9904C481.75 92.9363 480.067 89.5654 478.383 86.1987C476.696 84.5154 473.329 82.8279 469.858 82.8279C464.804 82.8279 461.433 84.5154 459.75 87.8821C458.067 89.5654 456.379 94.6196 456.379 101.357V140.095H432.8V97.9904C432.8 92.9363 431.121 89.5654 429.433 86.1987C427.75 84.5154 424.383 82.8279 421.012 82.8279C417.537 82.8279 414.167 84.5154 410.804 87.8821C409.117 89.5654 407.433 94.6196 407.433 101.357V140.095H383.854Z" fill="white"/>
<path d="M598.175 97.9887V109.776H542.492C542.492 114.83 544.175 118.201 547.546 121.568C549.229 123.247 554.279 124.935 559.334 124.935C567.754 124.935 571.125 123.247 574.488 118.201H598.175C596.492 124.935 593.121 131.672 584.704 136.726C577.963 140.093 569.442 143.464 559.334 143.464C545.859 143.464 535.754 140.093 529.017 131.672C522.175 124.935 517.121 114.83 517.121 103.039C517.121 89.5679 522.175 81.147 529.017 72.6178C535.754 65.8803 545.859 62.5137 559.334 62.5137C571.125 62.5137 579.65 65.8803 588.071 72.6178C594.804 79.4595 598.175 87.8845 598.175 97.9887ZM542.492 94.6179H574.488C574.488 89.5679 572.809 86.197 571.125 82.8304C567.754 79.4595 564.388 79.4595 559.334 79.4595C554.279 79.4595 549.229 81.147 545.859 82.8304C544.175 86.197 542.492 89.5679 542.492 94.6179Z" fill="white"/>
<path d="M611.65 140.095V64.1987H635.334V81.1446C637.017 76.0904 640.384 70.9321 643.755 67.5654C647.125 64.1987 652.18 62.5112 657.225 62.5112C658.913 62.5112 662.28 64.1987 663.967 64.1987V86.1987H655.542C650.492 86.1987 645.438 87.8821 642.071 92.9363C637.017 96.3029 635.334 103.036 635.334 111.461V140.095H611.65Z" fill="white"/>
</g>
<defs>
<clipPath id="clip0_2083_787">
<rect width="auto" height="160" fill="white" transform="translate(0 0.629395)"/>
</clipPath>
</defs>
</svg>
