<svg preserveAspectRatio="xMidYMid" width="auto" height="160" viewBox="0 0 964 120" fill="none" xmlns="http://www.w3.org/2000/svg">
<g clip-path="url(#clip0_2109_4974)">
<path d="M579.38 198.96C551.8 198.96 528.61 180.77 528.61 152.6C528.61 126.79 545.63 114.76 577.31 106.54L617.81 95.9797C616.64 86.2897 609 81.5997 596.69 81.5997C585.81 81.5997 577.92 85.7797 574.29 94.1297C573.34 96.4797 570.82 97.7997 568.35 97.2297L536.25 89.6197C533.51 88.9597 531.82 86.2097 532.47 83.4597C532.52 83.2797 532.57 83.0997 532.64 82.9097C541.85 57.9897 567.43 44.9297 598.41 44.9297C640.07 44.9297 664.13 64.5897 664.13 99.1997V190.91C664.13 193.72 661.85 195.99 659.05 195.99H623.67C620.91 195.99 618.66 193.78 618.59 191.02L618.41 183.41L618.11 183.71C607.61 193.53 593.77 198.98 579.4 198.94L579.38 198.96ZM591.41 162.29C597.82 162.12 604.03 160.08 609.3 156.43L617.52 151.45L617.82 127.68L596.7 133.54C582.32 137.65 575.87 141.15 575.87 149.38C575.87 158.47 583.79 162.29 591.42 162.29H591.41Z" fill="#EDD6FB"/>
<path d="M740.05 126.781L725.67 139.981V190.911C725.67 193.711 723.41 195.991 720.61 195.991H684.11C681.3 195.991 679.03 193.711 679.03 190.911V6.29094C679.03 3.48094 681.31 1.21094 684.11 1.21094H720.6C723.41 1.21094 725.68 3.49094 725.68 6.29094V89.8209L768.23 50.6709C769.18 49.8109 770.42 49.3309 771.7 49.3309H816.73C819.54 49.3309 821.81 51.6109 821.81 54.4109C821.81 55.8409 821.2 57.2109 820.14 58.1709L776.42 98.0109L826.25 188.451C827.61 190.901 826.72 193.991 824.27 195.351C823.51 195.771 822.66 195.991 821.79 195.991H779.22C777.32 195.991 775.59 194.931 774.71 193.251L740.03 126.771L740.05 126.781Z" fill="#EDD6FB"/>
<path d="M894.83 199.261C854.05 199.261 816.78 173.741 816.78 122.051C816.78 73.3514 852.58 45.1914 891.89 45.1914C931.2 45.1914 962.31 73.6414 963.49 118.531C963.62 123.271 963.69 126.571 963.74 128.931C963.77 131.731 961.53 134.031 958.73 134.061H863.75C865.22 151.671 879.3 162.811 897.21 162.811C909.17 163.091 920.53 157.551 927.66 147.941C929.28 145.831 932.27 145.351 934.48 146.851L958.2 162.731C960.54 164.331 961.16 167.521 959.57 169.881C959.57 169.901 959.55 169.901 959.55 169.911C946.87 188.611 925.92 199.251 894.85 199.251L894.83 199.261ZM864.61 105.361H915.96C915.66 88.6614 903.35 81.3114 890.44 81.3114C876.81 80.6914 865.26 91.2314 864.64 104.861C864.64 104.861 864.64 104.871 864.64 104.881C864.61 105.041 864.6 105.201 864.61 105.361Z" fill="#EDD6FB"/>
<path d="M331.66 104.502V190.932C331.66 193.732 329.4 196.012 326.6 196.012H289.21C286.4 196.012 284.13 193.732 284.13 190.932V55.0719C284.13 52.2619 286.41 49.9919 289.21 49.9919H326.56C329.36 49.9919 331.64 52.2519 331.64 55.0519V65.1919C341.46 52.6019 356.73 45.5019 372.69 46.1119C389 45.4719 404.53 53.0819 414.02 66.3619C425.58 52.9019 442.65 45.4419 460.38 46.1119C493.24 46.1119 515.84 65.4719 515.84 102.442V190.942C515.84 193.742 513.58 196.022 510.78 196.022H473.47C470.66 196.022 468.39 193.742 468.39 190.942V112.412C468.39 96.2719 459.3 88.3519 446.97 88.3519C436.73 88.6819 427.65 95.0119 423.78 104.492V190.942C423.78 193.742 421.52 196.022 418.72 196.022H381.33C378.52 196.022 376.25 193.742 376.25 190.942V112.412C376.25 96.2719 367.16 88.3519 354.83 88.3519C344.57 88.6119 335.46 94.9619 331.67 104.502H331.66Z" fill="#EDD6FB"/>
<path d="M83.4596 181.912L115.25 49.3625C115.88 46.7425 118.51 45.1325 121.13 45.7625L158.99 54.8425C161.61 55.4725 163.22 58.1025 162.59 60.7225L130.8 193.272C130.17 195.892 127.54 197.502 124.92 196.872L87.0596 187.792C84.4496 187.152 82.8396 184.532 83.4596 181.912ZM172.18 196.022H211.13C213.82 196.022 216 193.842 216 191.162V54.8524C216 52.1624 213.82 49.9825 211.14 49.9825H172.19C169.5 49.9825 167.32 52.1625 167.32 54.8425V191.152C167.32 193.842 169.5 196.022 172.18 196.022ZM3.3896 176.612L38.3996 193.692C40.8096 194.872 43.7196 193.862 44.8996 191.452L104.68 68.9525C105.86 66.5425 104.85 63.6325 102.44 62.4525L67.4296 45.3725C65.0196 44.1925 62.1096 45.2025 60.9296 47.6125L1.1696 170.092C-0.020397 172.512 0.979599 175.422 3.3996 176.612H3.3896Z" fill="url(#paint0_radial_2109_4974)"/>
</g>
<defs>
<radialGradient id="paint0_radial_2109_4974" cx="0" cy="0" r="1" gradientUnits="userSpaceOnUse" gradientTransform="translate(170.529 14.4344) scale(246.289 246.451)">
<stop offset="0.11" stop-color="#DD6CA6"/>
<stop offset="0.54" stop-color="#745BA3"/>
</radialGradient>
<clipPath id="clip0_2109_4974">
<rect width="auto" height="120" fill="white" transform="translate(0 0.894531)"/>
</clipPath>
</defs>
</svg>
