<svg preserveAspectRatio="xMidYMid" width="auto" height="160" viewBox="0 0 680 160" fill="none" xmlns="http://www.w3.org/2000/svg">
<g clip-path="url(#clip0_2216_52473)">
<path d="M11.8347 56.2833C17.6487 56.2833 22.3618 51.4948 22.3618 45.5879C22.3618 39.6811 17.6487 34.8926 11.8347 34.8926C6.02076 34.8926 1.30762 39.6811 1.30762 45.5879C1.30762 51.4948 6.02076 56.2833 11.8347 56.2833Z" fill="#509EE3"/>
<path d="M11.8347 86.2306C17.6487 86.2306 22.3618 81.4421 22.3618 75.5352C22.3618 69.6283 17.6487 64.8398 11.8347 64.8398C6.02076 64.8398 1.30762 69.6283 1.30762 75.5352C1.30762 81.4421 6.02076 86.2306 11.8347 86.2306Z" fill="#509EE3"/>
<path opacity="0.2" d="M41.3103 56.2833C47.1242 56.2833 51.8374 51.4948 51.8374 45.5879C51.8374 39.6811 47.1242 34.8926 41.3103 34.8926C35.4963 34.8926 30.7832 39.6811 30.7832 45.5879C30.7832 51.4948 35.4963 56.2833 41.3103 56.2833Z" fill="#509EE3"/>
<path d="M41.3103 86.5216C47.1242 86.5216 51.8374 81.7331 51.8374 75.8262C51.8374 69.9193 47.1242 65.1309 41.3103 65.1309C35.4963 65.1309 30.7832 69.9193 30.7832 75.8262C30.7832 81.7331 35.4963 86.5216 41.3103 86.5216Z" fill="#509EE3"/>
<path opacity="0.2" d="M70.7859 56.2833C76.5998 56.2833 81.313 51.4948 81.313 45.5879C81.313 39.6811 76.5998 34.8926 70.7859 34.8926C64.9719 34.8926 60.2588 39.6811 60.2588 45.5879C60.2588 51.4948 64.9719 56.2833 70.7859 56.2833Z" fill="#509EE3"/>
<path opacity="0.2" d="M70.7859 22.0587C76.5998 22.0587 81.313 17.2702 81.313 11.3633C81.313 5.45645 76.5998 0.667969 70.7859 0.667969C64.9719 0.667969 60.2588 5.45645 60.2588 11.3633C60.2588 17.2702 64.9719 22.0587 70.7859 22.0587Z" fill="#509EE3"/>
<path opacity="0.2" d="M70.7859 86.5216C76.5998 86.5216 81.313 81.7331 81.313 75.8262C81.313 69.9193 76.5998 65.1309 70.7859 65.1309C64.9719 65.1309 60.2588 69.9193 60.2588 75.8262C60.2588 81.7331 64.9719 86.5216 70.7859 86.5216Z" fill="#509EE3"/>
<path opacity="0.2" d="M100.262 56.2833C106.076 56.2833 110.79 51.4948 110.79 45.5879C110.79 39.6811 106.076 34.8926 100.262 34.8926C94.4485 34.8926 89.7354 39.6811 89.7354 45.5879C89.7354 51.4948 94.4485 56.2833 100.262 56.2833Z" fill="#509EE3"/>
<path d="M129.738 56.2833C135.552 56.2833 140.265 51.4948 140.265 45.5879C140.265 39.6811 135.552 34.8926 129.738 34.8926C123.924 34.8926 119.211 39.6811 119.211 45.5879C119.211 51.4948 123.924 56.2833 129.738 56.2833Z" fill="#509EE3"/>
<path d="M100.262 86.5216C106.076 86.5216 110.79 81.7331 110.79 75.8262C110.79 69.9193 106.076 65.1309 100.262 65.1309C94.4485 65.1309 89.7354 69.9193 89.7354 75.8262C89.7354 81.7331 94.4485 86.5216 100.262 86.5216Z" fill="#509EE3"/>
<path d="M129.738 86.5216C135.552 86.5216 140.265 81.7331 140.265 75.8262C140.265 69.9193 135.552 65.1309 129.738 65.1309C123.924 65.1309 119.211 69.9193 119.211 75.8262C119.211 81.7331 123.924 86.5216 129.738 86.5216Z" fill="#509EE3"/>
<path d="M11.8347 116.178C17.6487 116.178 22.3618 111.389 22.3618 105.482C22.3618 99.5756 17.6487 94.7871 11.8347 94.7871C6.02076 94.7871 1.30762 99.5756 1.30762 105.482C1.30762 111.389 6.02076 116.178 11.8347 116.178Z" fill="#509EE3"/>
<path opacity="0.2" d="M41.3103 116.469C47.1242 116.469 51.8374 111.68 51.8374 105.773C51.8374 99.8666 47.1242 95.0781 41.3103 95.0781C35.4963 95.0781 30.7832 99.8666 30.7832 105.773C30.7832 111.68 35.4963 116.469 41.3103 116.469Z" fill="#509EE3"/>
<path d="M70.7859 116.469C76.5998 116.469 81.313 111.68 81.313 105.773C81.313 99.8666 76.5998 95.0781 70.7859 95.0781C64.9719 95.0781 60.2588 99.8666 60.2588 105.773C60.2588 111.68 64.9719 116.469 70.7859 116.469Z" fill="#509EE3"/>
<path opacity="0.2" d="M100.262 116.469C106.076 116.469 110.79 111.68 110.79 105.773C110.79 99.8666 106.076 95.0781 100.262 95.0781C94.4485 95.0781 89.7354 99.8666 89.7354 105.773C89.7354 111.68 94.4485 116.469 100.262 116.469Z" fill="#509EE3"/>
<path d="M129.738 116.469C135.552 116.469 140.265 111.68 140.265 105.773C140.265 99.8666 135.552 95.0781 129.738 95.0781C123.924 95.0781 119.211 99.8666 119.211 105.773C119.211 111.68 123.924 116.469 129.738 116.469Z" fill="#509EE3"/>
<path d="M11.8347 146.125C17.6487 146.125 22.3618 141.337 22.3618 135.43C22.3618 129.523 17.6487 124.734 11.8347 124.734C6.02076 124.734 1.30762 129.523 1.30762 135.43C1.30762 141.337 6.02076 146.125 11.8347 146.125Z" fill="#509EE3"/>
<path opacity="0.2" d="M41.3103 146.416C47.1242 146.416 51.8374 141.628 51.8374 135.721C51.8374 129.814 47.1242 125.025 41.3103 125.025C35.4963 125.025 30.7832 129.814 30.7832 135.721C30.7832 141.628 35.4963 146.416 41.3103 146.416Z" fill="#509EE3"/>
<path opacity="0.2" d="M70.7859 146.416C76.5998 146.416 81.313 141.628 81.313 135.721C81.313 129.814 76.5998 125.025 70.7859 125.025C64.9719 125.025 60.2588 129.814 60.2588 135.721C60.2588 141.628 64.9719 146.416 70.7859 146.416Z" fill="#509EE3"/>
<path opacity="0.2" d="M70.7859 176.363C76.5998 176.363 81.313 171.575 81.313 165.668C81.313 159.761 76.5998 154.973 70.7859 154.973C64.9719 154.973 60.2588 159.761 60.2588 165.668C60.2588 171.575 64.9719 176.363 70.7859 176.363Z" fill="#509EE3"/>
<path opacity="0.2" d="M100.262 146.416C106.076 146.416 110.79 141.628 110.79 135.721C110.79 129.814 106.076 125.025 100.262 125.025C94.4485 125.025 89.7354 129.814 89.7354 135.721C89.7354 141.628 94.4485 146.416 100.262 146.416Z" fill="#509EE3"/>
<path d="M129.738 146.416C135.552 146.416 140.265 141.628 140.265 135.721C140.265 129.814 135.552 125.025 129.738 125.025C123.924 125.025 119.211 129.814 119.211 135.721C119.211 141.628 123.924 146.416 129.738 146.416Z" fill="#509EE3"/>
<path d="M197.363 95.9171L198.416 98.4695L199.486 95.8617L200.659 93.4018L216.388 63.9648C216.551 63.6451 216.756 63.3486 216.997 63.0833C217.205 62.8664 217.44 62.7141 217.689 62.6033C217.939 62.4925 218.234 62.4418 218.553 62.4187C218.93 62.3902 219.309 62.3779 219.688 62.3817H227.146V115.514H218.437V81.1987L218.493 79.1079L218.663 76.791L202.602 106.929C202.233 107.613 201.757 108.148 201.217 108.526C200.677 108.905 199.939 109.099 199.163 109.099H197.802C197.075 109.12 196.359 108.92 195.748 108.526C195.144 108.124 194.651 107.574 194.317 106.929L178.034 76.6848L178.242 79.0571L178.297 81.2079V115.523H169.588V62.3817H177.046L178.182 62.4187C178.477 62.4388 178.768 62.5026 179.045 62.6079C179.317 62.7108 179.562 62.875 179.76 63.0879C180.008 63.3507 180.219 63.6456 180.388 63.9648L196.265 93.4664L197.409 95.9125L197.363 95.9171ZM252.942 77.2248C255.178 77.1961 257.4 77.581 259.496 78.3602C261.489 79.1264 263.211 80.2294 264.656 81.6833C266.148 83.2139 267.3 85.0433 268.034 87.051C268.842 89.1741 269.243 91.5925 269.243 94.3064C269.252 94.877 269.221 95.4477 269.151 96.0141C269.111 96.3881 269.002 96.7513 268.828 97.0848C268.676 97.3479 268.459 97.5279 268.182 97.6387C267.905 97.7494 267.573 97.8094 267.148 97.8094H243.849C244.126 101.686 245.165 104.52 246.974 106.329C248.783 108.139 251.188 109.099 254.174 109.099C255.651 109.099 256.916 108.928 257.973 108.582C259.029 108.236 259.971 107.857 260.769 107.446L262.86 106.311C263.46 105.965 264.042 105.794 264.605 105.794C264.974 105.794 265.288 105.868 265.56 106.011C265.833 106.154 266.022 106.366 266.253 106.639L268.897 109.943C267.923 111.089 266.784 112.085 265.519 112.897C264.292 113.685 262.979 114.327 261.605 114.813C260.259 115.288 258.869 115.629 257.456 115.828C256.096 116.02 254.725 116.117 253.353 116.119C250.736 116.119 248.294 115.685 246.042 114.813C243.826 113.964 241.819 112.648 240.157 110.954C238.486 109.256 237.18 107.146 236.225 104.64C235.269 102.134 234.84 99.2171 234.84 95.871C234.84 93.3002 235.302 90.8771 236.086 88.6156C236.874 86.4248 238.094 84.4143 239.673 82.7033C241.275 80.9945 243.214 79.6367 245.368 78.7156C247.62 77.7325 250.154 77.2387 252.969 77.2387L252.942 77.2248ZM253.126 83.6864C250.482 83.6864 248.405 84.4387 246.914 85.9294C245.423 87.4202 244.468 89.5433 244.053 92.2802H261.102C261.102 91.1079 260.94 90.0002 260.622 88.9571C260.324 87.9522 259.823 87.0191 259.149 86.2156C258.494 85.431 257.659 84.8171 256.657 84.3556C255.656 83.8941 254.469 83.6817 253.131 83.6817L253.126 83.6864ZM289.025 116.105C285.766 116.105 283.256 115.182 281.488 113.326C279.72 111.471 278.843 108.923 278.843 105.665V84.6094H275.022C274.533 84.6094 274.113 84.4479 273.757 84.1294C273.402 83.811 273.222 83.331 273.222 82.7448V79.1448L279.282 78.1479L281.197 67.8648C281.289 67.3756 281.52 66.9418 281.871 66.7294C282.222 66.5171 282.669 66.3279 283.256 66.3279H287.963V78.1987H297.886V84.6602H287.963V105.088C287.963 106.26 288.254 107.179 288.886 107.848C289.176 108.171 289.532 108.428 289.931 108.6C290.329 108.772 290.76 108.855 291.194 108.845C291.757 108.845 292.228 108.78 292.611 108.637C292.953 108.522 293.287 108.382 293.608 108.217L294.36 107.756C294.577 107.626 294.803 107.548 295.025 107.548C295.302 107.548 295.514 107.613 295.68 107.756C295.889 107.935 296.075 108.14 296.234 108.365L299.003 112.777C297.655 113.891 296.108 114.738 294.443 115.274C292.723 115.838 290.923 116.123 289.113 116.119L289.025 116.105ZM334.625 115.523H330.545C329.691 115.523 329.022 115.394 328.528 115.14C328.034 114.886 327.674 114.356 327.429 113.58L326.622 110.903C325.727 111.71 324.787 112.465 323.806 113.165C322.883 113.811 321.937 114.356 320.963 114.799C319.963 115.248 318.914 115.582 317.839 115.796C316.627 116.028 315.394 116.137 314.16 116.119C312.665 116.134 311.176 115.916 309.748 115.473C308.467 115.078 307.285 114.418 306.277 113.534C305.308 112.624 304.524 111.535 303.969 110.326C303.379 109.057 303.162 107.557 303.162 105.868C303.162 104.483 303.531 103.034 304.279 101.645C305.026 100.256 306.263 99.0141 308.003 97.8833C309.743 96.7525 312.056 95.8387 314.949 95.0956C317.843 94.3525 321.425 93.9879 325.713 93.9879V91.7633C325.713 89.2248 325.177 87.3325 324.116 86.1141C323.054 84.8956 321.499 84.2864 319.473 84.2864C317.996 84.2864 316.777 84.4571 315.794 84.8033C314.91 85.1097 314.056 85.4959 313.242 85.9571L311.243 87.111C310.628 87.4576 309.932 87.6359 309.226 87.6279C308.662 87.6413 308.109 87.473 307.648 87.1479C307.214 86.8352 306.849 86.4361 306.577 85.9756L304.925 83.0771C309.263 79.1079 314.488 77.0771 320.617 77.0771C322.823 77.0771 324.785 77.4464 326.511 78.1664C328.174 78.845 329.673 79.8728 330.905 81.1802C332.129 82.5079 333.063 84.0768 333.646 85.7864C334.29 87.6805 334.607 89.6705 334.583 91.671L334.625 115.523ZM316.985 109.865C317.848 109.872 318.71 109.786 319.556 109.611C320.325 109.447 321.072 109.191 321.78 108.849C322.493 108.503 323.169 108.086 323.797 107.603C324.492 107.067 325.148 106.481 325.759 105.849V99.591C323.114 99.591 320.899 99.7617 319.126 100.089C317.354 100.417 315.928 100.851 314.848 101.368C313.768 101.885 313.002 102.494 312.549 103.177C312.106 103.848 311.871 104.635 311.876 105.439C311.876 107.045 312.346 108.189 313.293 108.882C314.239 109.574 315.471 109.916 316.985 109.916V109.865ZM343.662 115.523V60.9141H352.736V82.4494C354.226 80.8525 355.966 79.5879 357.803 78.651C359.64 77.7141 361.893 77.2341 364.417 77.2341C366.37 77.2095 368.302 77.6426 370.057 78.4987C371.756 79.3433 373.228 80.5756 374.469 82.191C375.711 83.8064 376.666 85.8048 377.331 88.1771C377.996 90.5494 378.346 93.2818 378.346 96.3694C378.346 99.1387 377.977 101.793 377.211 104.197C376.524 106.465 375.419 108.585 373.953 110.446C372.545 112.209 370.837 113.585 368.848 114.586C366.859 115.588 364.616 116.077 362.137 116.077C360.983 116.077 359.931 115.966 358.976 115.731C358.02 115.496 357.157 115.177 356.368 114.808C355.58 114.39 354.845 113.879 354.18 113.285C353.489 112.665 352.843 111.998 352.246 111.286L351.845 113.825C351.693 114.462 351.453 114.914 351.093 115.186C350.733 115.459 350.262 115.588 349.639 115.588H343.662V115.523ZM361.302 84.2864C359.456 84.2864 357.803 84.6787 356.469 85.4771C355.034 86.361 353.771 87.4997 352.745 88.8371V105.739C353.779 107.017 354.896 107.899 356.105 108.402C357.314 108.905 358.643 109.154 360.056 109.154C361.336 109.174 362.605 108.911 363.771 108.383C364.877 107.865 365.831 107.07 366.54 106.076C367.373 104.867 367.977 103.515 368.322 102.088C368.783 100.482 368.949 98.5894 368.949 96.411C368.949 94.2048 368.765 92.3402 368.414 90.8079C368.063 89.2756 367.551 88.0294 366.891 87.0833C366.294 86.183 365.465 85.4607 364.491 84.9925C363.536 84.5587 362.46 84.3371 361.26 84.3371L361.302 84.2864ZM414.993 115.523H410.913C410.059 115.523 409.389 115.394 408.896 115.14C408.402 114.886 408.042 114.356 407.797 113.58L406.989 110.903C406.095 111.71 405.155 112.465 404.174 113.165C403.278 113.8 402.323 114.347 401.322 114.799C400.32 115.246 399.272 115.58 398.197 115.796C397.099 116.026 395.871 116.119 394.519 116.119C393.023 116.134 391.535 115.916 390.106 115.473C388.826 115.078 387.643 114.418 386.636 113.534C385.666 112.624 384.883 111.535 384.328 110.326C383.737 109.057 383.52 107.557 383.52 105.868C383.52 104.483 383.889 103.034 384.637 101.645C385.385 100.256 386.622 99.0141 388.362 97.8833C390.102 96.7525 392.414 95.8387 395.308 95.0956C398.202 94.3525 401.793 93.9879 406.071 93.9879V91.7633C406.071 89.2248 405.536 87.3325 404.474 86.1141C403.413 84.8956 401.857 84.2864 399.831 84.2864C398.354 84.2864 397.136 84.4571 396.153 84.8033C395.269 85.1097 394.414 85.4959 393.6 85.9571L391.602 87.111C390.985 87.4536 390.29 87.6317 389.585 87.6279C389.021 87.6413 388.467 87.473 388.006 87.1479C387.572 86.8352 387.208 86.4361 386.936 85.9756L385.283 83.0771C389.622 79.1079 394.846 77.0771 400.976 77.0771C403.182 77.0771 405.153 77.4464 406.883 78.1664C408.547 78.845 410.045 79.8728 411.277 81.1802C412.502 82.5079 413.436 84.0768 414.019 85.7864C414.663 87.6805 414.979 89.6705 414.956 91.671L414.993 115.523ZM397.353 109.865C398.216 109.872 399.078 109.786 399.923 109.611C400.693 109.447 401.439 109.191 402.148 108.849C402.861 108.503 403.536 108.086 404.165 107.603C404.86 107.067 405.516 106.481 406.126 105.849V99.591C403.482 99.591 401.266 99.7617 399.494 100.089C397.722 100.417 396.296 100.851 395.216 101.368C394.136 101.885 393.369 102.494 392.917 103.177C392.474 103.848 392.239 104.635 392.243 105.439C392.243 107.045 392.714 108.189 393.66 108.882C394.606 109.574 395.839 109.916 397.353 109.916V109.865ZM446.299 85.1633C446.11 85.4951 445.846 85.778 445.528 85.9894C445.251 86.151 444.919 86.2202 444.494 86.2202C444 86.207 443.516 86.0824 443.077 85.8556L441.333 85.0248C440.677 84.7156 439.916 84.4433 439.025 84.1941C438.134 83.9448 437.179 83.8248 436.025 83.8248C434.234 83.8248 432.826 84.2079 431.802 84.9602C430.777 85.7125 430.265 86.7141 430.265 87.9371C430.254 88.3108 430.318 88.6828 430.453 89.0314C430.588 89.3801 430.79 89.6984 431.049 89.9679C431.571 90.5079 432.268 91.0017 433.14 91.4217C434.095 91.8686 435.082 92.242 436.094 92.5387L439.473 93.6187L442.851 95.0033C443.949 95.4648 444.928 96.1387 445.805 96.9187C446.68 97.696 447.391 98.6407 447.896 99.6971C448.417 100.777 448.68 102.069 448.68 103.593C448.68 105.402 448.357 107.073 447.683 108.614C447.009 110.156 446.049 111.466 444.785 112.583C443.399 113.757 441.794 114.643 440.063 115.191C438.194 115.819 436.039 116.128 433.616 116.128C432.341 116.132 431.07 116.016 429.817 115.782C428.58 115.551 427.394 115.228 426.249 114.859C425.105 114.489 424.053 113.949 423.088 113.382C422.123 112.814 421.269 112.209 420.536 111.536L422.626 108.083C422.871 107.698 423.197 107.372 423.582 107.128C424.008 106.89 424.493 106.778 424.98 106.805C425.548 106.805 426.103 106.972 426.577 107.285L428.322 108.319C429.065 108.739 429.847 109.085 430.657 109.353C431.755 109.7 432.903 109.862 434.054 109.833C435.134 109.833 436.053 109.703 436.833 109.449C437.613 109.196 438.24 108.859 438.748 108.434C439.256 108.009 439.671 107.534 439.846 106.98C440.049 106.432 440.166 105.856 440.193 105.273C440.224 104.474 439.941 103.695 439.403 103.103C438.877 102.54 438.176 102.051 437.313 101.626C436.351 101.177 435.355 100.804 434.336 100.509L430.92 99.4202C429.755 99.0266 428.615 98.5642 427.505 98.0356C426.414 97.5293 425.41 96.8549 424.528 96.0371C423.636 95.1975 422.924 94.1845 422.437 93.0602C421.911 91.8879 421.653 90.4618 421.653 88.8002C421.649 87.2816 421.962 85.779 422.571 84.3879C423.187 82.9806 424.111 81.7297 425.276 80.7279C426.476 79.6848 427.939 78.8494 429.725 78.2356C431.511 77.6218 433.556 77.2987 435.882 77.2987C438.48 77.2987 440.848 77.7325 442.976 78.591C445.103 79.4494 446.88 80.5756 448.306 81.9694L446.299 85.1633ZM471.619 77.2248C473.855 77.1961 476.077 77.581 478.173 78.3602C480.166 79.1264 481.888 80.2294 483.333 81.6833C484.825 83.2139 485.977 85.0433 486.711 87.051C487.519 89.1741 487.92 91.5925 487.92 94.3064C487.929 94.877 487.898 95.4477 487.828 96.0141C487.788 96.3881 487.679 96.7513 487.505 97.0848C487.353 97.3479 487.136 97.5279 486.859 97.6387C486.582 97.7494 486.249 97.8094 485.825 97.8094H462.526C462.803 101.686 463.842 104.52 465.651 106.329C467.46 108.139 469.865 109.099 472.851 109.099C474.328 109.099 475.593 108.928 476.649 108.582C477.706 108.236 478.648 107.857 479.446 107.446L481.537 106.311C482.137 105.965 482.719 105.794 483.282 105.794C483.651 105.794 483.965 105.868 484.237 106.011C484.509 106.154 484.699 106.366 484.929 106.639L487.574 109.943C486.6 111.089 485.461 112.085 484.196 112.897C482.969 113.685 481.656 114.327 480.282 114.813C478.936 115.288 477.546 115.629 476.133 115.828C474.773 116.02 473.402 116.117 472.029 116.119C469.413 116.119 466.971 115.685 464.719 114.813C462.503 113.964 460.496 112.648 458.834 110.954C457.163 109.256 455.857 107.146 454.902 104.64C453.946 102.134 453.517 99.2171 453.517 95.871C453.517 93.3002 453.979 90.8771 454.763 88.6156C455.551 86.4248 456.771 84.4143 458.349 82.7033C459.952 80.9945 461.891 79.6367 464.045 78.7156C466.353 77.7325 468.845 77.2387 471.66 77.2387L471.619 77.2248ZM471.803 83.6864C469.159 83.6864 467.082 84.4387 465.591 85.9294C464.1 87.4202 463.145 89.5433 462.729 92.2802H479.779C479.779 91.1079 479.617 90.0002 479.299 88.9571C479.001 87.9522 478.5 87.0191 477.826 86.2156C477.162 85.431 476.336 84.8171 475.334 84.3556C474.333 83.8941 473.156 83.6817 471.808 83.6817L471.803 83.6864Z" fill="#F0F0F6"/>
</g>
<defs>
<clipPath id="clip0_2216_52473">
<rect width="auto" height="140" fill="white" transform="translate(0 0.146484)"/>
</clipPath>
</defs>
</svg>
