<svg preserveAspectRatio="xMidYMid" width="auto" height="160" viewBox="0 0 667 160" fill="none" xmlns="http://www.w3.org/2000/svg">
<mask id="mask0_2582_1883" style="mask-type:luminance" maskUnits="userSpaceOnUse" x="0" y="2" width="637" height="176">
<path d="M636.855 2.43262H0V177.568H636.855V2.43262Z" fill="white"/>
</mask>
<g mask="url(#mask0_2582_1883)">
<path d="M449.253 79.3482H392.518L403.694 59.9879L449.261 59.9563V79.3482H449.253ZM428.977 79.3482C424.734 101.137 406.481 117.56 384.684 117.56C357.403 117.56 335.368 94.6331 336.841 67.0332C338.162 42.3391 358.78 22.3419 383.506 21.7449C390.758 21.5697 397.668 23.0186 403.885 25.7491L413.311 9.42171C401.028 3.05315 386.523 0.64106 371.303 3.84126C341.864 10.0267 319.534 35.1984 317.608 65.2182C315.1 104.345 346.091 136.864 384.684 136.864C409.354 136.864 430.801 122.511 441.715 101.407L428.977 79.3482Z" fill="white"/>
<path d="M617.624 134.127V86.6727C617.624 72.4469 609.008 63.8414 597.785 63.8414C592.735 63.8414 587.213 65.1311 582.626 68.1322L595.046 46.6225C597.449 46.1289 599.775 45.8662 601.862 45.8662C623.943 45.8662 637.044 60.6491 636.864 85.5421V134.118H617.629L617.624 134.127ZM555.066 56.9795V134.127H574.302V45.8742L555.066 56.9795Z" fill="white"/>
<path d="M19.233 5.1709H0V134.126H19.233V5.1709ZM110.996 5.1709H91.763V134.126H110.996V5.1709Z" fill="white"/>
<path d="M82.027 65.5443L37.0411 39.5765C33.8887 37.7535 29.9402 40.0302 29.9402 43.6762V95.6199C29.9402 99.2656 33.8807 101.542 37.0411 99.7195L82.027 73.7518C85.1794 71.9289 85.1794 67.3754 82.027 65.5521V65.5443Z" fill="#A34CDB"/>
<path d="M261.58 99.1308L272.757 118.491L238.646 177.567H216.292L250.403 118.491L210.059 48.6123H232.412L261.58 99.1308ZM313.102 48.6123H290.748L261.58 99.1308H283.934L313.102 48.6123Z" fill="white"/>
<path d="M156.412 135.193C171.036 139.118 184.871 135.854 195.387 128.275L186.304 112.545C181.559 116.462 175.493 118.826 168.862 118.826C156.698 118.826 146.397 110.905 142.783 99.9513H213.521C214.055 97.1647 214.358 94.2989 214.358 91.3615C214.358 66.2378 193.986 45.8662 168.862 45.8662C155.95 45.8662 144.319 51.2716 136.032 59.9169L145.696 76.6501C150.569 68.9918 159.11 63.8973 168.862 63.8973C181.01 63.8973 191.304 71.794 194.925 82.7322H124.211C122.181 93.304 123.47 105.078 131.988 117.496C137.839 126.03 146.421 132.51 156.412 135.193Z" fill="white"/>
<path d="M487.537 135.193C502.161 139.118 515.997 135.854 526.51 128.275L517.427 112.545C512.684 116.462 506.617 118.826 499.987 118.826C487.824 118.826 477.522 110.905 473.908 99.9513H544.646C545.181 97.1647 545.483 94.2989 545.483 91.3615C545.483 66.2378 525.109 45.8662 499.987 45.8662C487.075 45.8662 475.444 51.2716 467.157 59.9169L476.821 76.6501C481.693 68.9918 490.237 63.8973 499.987 63.8973C512.134 63.8973 522.428 71.794 526.052 82.7322H455.335C453.305 93.304 454.595 105.078 463.113 117.496C468.964 126.03 477.546 132.51 487.537 135.193Z" fill="white"/>
</g>
</svg>
