<svg preserveAspectRatio="xMidYMid" width="706" height="160" viewBox="0 0 706 160" fill="none" xmlns="http://www.w3.org/2000/svg">
<g clip-path="url(#clip0_1837_980)">
<path d="M83.5256 74.2618C87.3053 73.0336 91.5942 74.152 94.8197 76.4687L102.369 81.896C106.05 84.5395 110.243 86.3827 114.68 87.3072C119.116 88.2316 123.697 88.2167 128.127 87.2634L143.106 84.0379C143.708 80.2582 144.007 76.4365 144 72.6092L125.801 76.5286C122.87 77.1595 119.839 77.1695 116.904 76.5581C113.969 75.9467 111.195 74.7273 108.76 72.9786L105.714 70.7917C104.496 69.9169 103.129 69.2707 101.68 68.8844L141.968 55.793C141.538 54.0255 141.039 52.263 140.47 50.5055C139.901 48.748 139.268 47.0288 138.573 45.3479L114.502 53.1668C115.559 51.8478 116.402 50.37 116.998 48.788L118.955 43.6003C119.531 42.0626 120.405 40.6536 121.527 39.4541C122.648 38.2546 123.996 37.2882 125.491 36.6102L132.381 33.4947C130.33 30.3367 128.031 27.3465 125.506 24.5524L120.963 26.6044C115.293 29.1703 110.875 33.8829 108.68 39.7059L104.187 51.574C103.529 53.3298 102.484 54.9149 101.129 56.2115C99.7746 57.5081 98.1453 58.4828 96.3624 59.0634L80.2554 64.296L77.0848 65.3295V62.3337C77.0848 58.3394 79.4714 54.6297 82.6719 52.278L90.1612 46.7858C93.813 44.1024 96.8622 40.6839 99.1127 36.7506C101.363 32.8172 102.765 28.4562 103.228 23.9482L104.791 8.68991C101.394 6.95778 97.8645 5.50019 94.2355 4.3311L92.3383 22.8548C92.0324 25.837 91.1052 28.722 89.6166 31.3242C88.1281 33.9264 86.1112 36.1879 83.6956 37.9633L80.6747 40.1802C79.465 41.0682 78.4278 42.1697 77.6141 43.4306V1.04076C75.8033 0.907619 73.9726 0.839382 72.1219 0.836054C70.2712 0.832725 68.4405 0.900962 66.6297 1.04076V26.3498C65.6978 24.9427 64.5525 23.6894 63.2346 22.6351L58.9007 19.17C56.3224 17.105 54.6657 14.1039 54.2922 10.8219L53.4584 3.33251C49.8215 4.3075 46.2671 5.56796 42.8285 7.10216L43.3778 12.0601C44.0649 18.2455 47.1808 23.9047 52.0403 27.7928L61.9464 35.7165C63.4012 36.8807 64.5769 38.3558 65.3873 40.0337C66.1977 41.7115 66.6223 43.5495 66.6297 45.4128V65.684L63.8236 64.7753C60.044 63.547 57.2331 60.1219 55.9849 56.3472L53.064 47.5198C51.6386 43.2195 49.3287 39.2652 46.2828 35.9115C43.237 32.5578 39.5227 29.879 35.3791 28.0474L21.3539 21.8462C18.6427 24.5464 16.1548 27.4619 13.9145 30.5638L30.9403 38.0931C33.6819 39.3055 36.1392 41.0784 38.154 43.2979C40.1688 45.5174 41.6966 48.1342 42.6388 50.9799L43.812 54.5348C44.2835 55.9609 45.0112 57.2891 45.9591 58.4543L5.67127 45.3628C4.98225 47.0438 4.35146 48.763 3.77894 50.5205C3.20642 52.278 2.70713 54.0405 2.28106 55.808L26.3519 63.6269C24.725 64.0805 23.1786 64.7846 21.7683 65.714L17.1299 68.7596C14.366 70.5777 10.9935 71.2242 7.75328 70.5571L0.348747 69.0292C0.150575 72.7893 0.250796 76.5591 0.648371 80.3032L5.53133 81.3018C11.6263 82.5604 17.9715 81.3463 23.1713 77.9266L33.7664 70.9365C35.33 69.9082 37.1048 69.2446 38.9595 68.9948C40.8142 68.745 42.7013 68.9155 44.4812 69.4936L60.5634 74.7312L63.7339 75.7647L62.0013 78.1513C59.6646 81.3617 55.5355 82.9794 51.5661 82.9994L42.2692 83.0493C37.7371 83.0742 33.2606 84.048 29.1277 85.9081C24.9948 87.7681 21.2972 90.4732 18.2733 93.849L8.03779 105.273C9.76914 108.686 11.7728 111.953 14.0293 115.044L26.4416 101.194C28.4423 98.9614 30.8884 97.1729 33.6221 95.9432C36.3558 94.7135 39.3166 94.0698 42.3141 94.0537H46.0588C47.5598 94.0448 49.0467 93.764 50.4476 93.2249L25.5481 127.496C26.9361 128.671 28.3772 129.803 29.8718 130.892C31.3663 131.98 32.8876 133 34.4354 133.952L49.3093 113.481C49.24 115.165 49.4303 116.849 49.8734 118.474L51.3413 123.822C51.7764 125.403 51.8953 127.055 51.6914 128.683C51.4875 130.311 50.9648 131.883 50.1531 133.308L46.4084 139.874C49.9247 141.225 53.5426 142.295 57.228 143.074L59.6945 138.74C62.7735 133.332 63.5781 126.922 61.9313 120.921L58.5762 108.688C58.0813 106.884 57.9985 104.991 58.3339 103.15C58.6692 101.309 59.414 99.5672 60.5134 98.0531L70.4692 84.3525L72.4315 81.6513L74.1639 84.0379C76.5006 87.2484 76.7604 91.6771 75.5521 95.4567L72.726 104.319C71.3493 108.637 70.892 113.195 71.3839 117.701C71.8758 122.206 73.306 126.558 75.5821 130.477L83.286 143.738C87.0643 143.144 90.7892 142.249 94.4252 141.062L85.1035 124.965C83.5999 122.376 82.6544 119.501 82.3276 116.525C82.0009 113.549 82.3002 110.538 83.2063 107.684L84.3445 104.12C84.8005 102.69 84.9916 101.189 84.9087 99.6907L109.808 133.957C111.356 133.005 112.877 131.987 114.372 130.902C115.867 129.816 117.308 128.685 118.696 127.506L103.817 107.035C105.402 107.621 107.067 107.958 108.755 108.034L114.292 108.294C117.599 108.446 120.709 109.907 122.94 112.353L128.043 117.92C130.411 114.994 132.544 111.885 134.423 108.623L131.038 104.938C128.963 102.66 126.459 100.812 123.67 99.5017C120.88 98.1909 117.86 97.4425 114.781 97.2991L102.129 96.7C100.258 96.6173 98.4285 96.1144 96.7776 95.2284C95.1267 94.3425 93.6964 93.0963 92.5928 91.5822L82.6419 77.8817L80.6798 75.1805L83.5256 74.2618Z" fill="white"/>
<path d="M182.627 114.306L188.455 98.7412H224.797L230.625 114.306H245.709L214.161 33.6592H199.423L168 114.306H182.627ZM206.741 50.6954L220.205 86.249H193.009L206.472 50.6954H206.741Z" fill="white"/>
<path d="M263.26 114.306V29.1152H249.661V114.306H263.26Z" fill="white"/>
<path d="M324.144 80.4549C324.144 70.915 329.4 65.5777 337.517 65.5777C345.744 65.5777 348.715 71.3478 348.715 78.9787V114.307H362.314V77.2814C362.314 63.8755 355 53.9941 340.714 53.9941C331.578 53.9941 325.173 57.6293 320.6 63.3081C317.287 57.6293 311.344 53.9941 302.776 53.9941C293.289 53.9941 287.576 58.5381 285.061 63.1975V55.3597H272.492V114.311H286.09V80.0029C286.09 71.0304 291.235 65.5777 299.347 65.5777C307.459 65.5777 310.546 71.2564 310.546 78.9787V114.307H324.144V80.4549Z" fill="white"/>
<path d="M409.027 86.5904V90.3362C409.027 98.2893 403.656 105.103 392.679 105.103C386.163 105.103 382.163 102.944 382.163 97.3805C382.163 93.2885 384.908 90.2256 393.251 88.9754L409.027 86.5904ZM389.948 115.667C399.43 115.667 406.296 112.599 410.287 106.579C410.287 111.349 410.97 114.306 411.085 114.306H424.001C422.972 111.902 422.284 107.036 422.284 103.175V76.0263C422.284 62.5098 414.057 53.9893 396.689 53.9893C378.744 53.9893 371.661 63.5292 370.517 73.8673H383.774C384.687 68.4145 388.919 65.1208 396.343 65.1208C404.459 65.1208 409.027 68.7559 409.027 75.9109V76.8197L391.885 79.2239C376.234 81.3829 369.146 87.8791 369.146 97.8517C369.146 107.945 375.205 115.667 389.948 115.667Z" fill="white"/>
<path d="M445.273 55.3549H432.699V114.307H446.297V80.1135C446.297 70.915 451.673 65.5776 460.242 65.5776C468.354 65.5776 472.013 70.915 472.013 78.9787V114.307H485.611V77.2814C485.611 63.5341 477.956 53.9941 463.555 53.9941C453.842 53.9941 447.783 58.5381 445.283 63.1975L445.273 55.3549Z" fill="white"/>
<path d="M532.411 86.5904V90.3362C532.411 98.2893 527.04 105.103 516.063 105.103C509.552 105.103 505.551 102.944 505.551 97.3805C505.551 93.2885 508.292 90.2256 516.635 88.9754L532.411 86.5904ZM513.327 115.667C522.814 115.667 529.675 112.599 533.666 106.579C533.666 111.349 534.354 114.306 534.469 114.306H547.385C546.356 111.902 545.673 107.036 545.673 103.175V76.0263C545.673 62.5098 537.446 53.9893 520.073 53.9893C502.133 53.9893 495.069 63.5292 493.905 73.8673H507.162C508.076 68.4145 512.303 65.1208 519.732 65.1208C527.843 65.1208 532.416 68.7559 532.416 75.9109V76.8197L515.274 79.2239C499.618 81.3829 492.535 87.8791 492.535 97.8517C492.53 107.945 498.584 115.667 513.327 115.667Z" fill="white"/>
<path d="M552.193 84.893C552.193 101.934 564.306 115.667 581.789 115.667C599.388 115.667 608.303 103.512 609.899 92.9519H595.955C594.354 99.3087 588.983 103.742 581.669 103.742C571.956 103.742 565.801 95.9043 565.801 84.8834C565.801 73.7519 571.97 65.919 581.669 65.919C588.983 65.919 594.354 70.3475 595.955 76.7091H609.899C608.303 66.1305 599.388 53.9893 581.789 53.9893C564.311 53.9893 552.193 67.7366 552.193 84.893Z" fill="white"/>
</g>
<defs>
<clipPath id="clip0_1837_980">
<rect width="640" height="144" fill="white" transform="translate(0 0.835938)"/>
</clipPath>
</defs>
</svg>
