<svg preserveAspectRatio="xMidYMid meet" width="auto" height="160" viewBox="0 0 641 160" fill="none" xmlns="http://www.w3.org/2000/svg">
<g clip-path="url(#clip0_1193_3237)">
<path d="M492.226 51.9229C501.491 44.8833 496.535 29.3566 486.48 25.8258C484.265 24.9157 481.918 24.521 479.44 24.521H455.174V83.349C456.611 83.349 482.697 83.349 482.697 83.349C487.39 83.349 491.831 81.6494 495.087 78.5244C502.412 71.4847 501.623 57.1314 492.226 51.9229ZM466.918 36.2537H466.929H479.056C482.192 36.2537 484.791 38.4687 484.671 41.7363C484.802 44.8723 482.192 47.482 479.056 47.3504H466.929H466.918V36.2537ZM482.05 71.6163H466.918V58.831H482.05C485.186 58.6994 487.796 62.2192 487.664 65.3552C487.796 68.3487 485.186 71.7479 482.05 71.6163ZM420.524 24.521H398.145V83.36H420.524C436.775 83.36 449.944 70.1909 449.944 53.9405C449.944 37.6901 436.764 24.521 420.524 24.521ZM420.524 71.6054C420.524 71.6054 420.524 71.6054 420.513 71.6054H409.877V36.2537H420.502C420.502 36.2537 420.502 36.2537 420.513 36.2537C430.283 36.2537 438.2 44.1705 438.2 53.9295C438.2 63.6885 430.283 71.6054 420.524 71.6054Z" fill="url(#paint0_linear_1193_3237)"/>
<path d="M381.16 24.521V83.36H392.903V24.521H381.16Z" fill="white"/>
<path d="M375.918 60.7827C375.918 48.0741 365.611 37.7668 352.903 37.7668C340.194 37.7668 329.887 48.0741 329.887 60.7827C329.887 73.4913 340.194 83.7986 352.903 83.7986C356.993 83.7986 360.841 82.724 364.175 80.8489V83.349H375.918V60.7827C375.918 60.7937 375.918 60.7937 375.918 60.7827ZM352.903 72.0549C346.674 72.0549 341.63 67.0109 341.63 60.7827C341.63 54.5545 346.674 49.5105 352.903 49.5105C359.131 49.5105 364.175 54.5545 364.175 60.7827C364.175 67.0109 359.131 72.0549 352.903 72.0549Z" fill="white"/>
<path d="M301.641 72.0439C296.893 72.0439 292.825 69.1053 291.169 64.9495H324.273C324.525 63.6007 324.645 62.1972 324.645 60.7827C324.645 48.0741 314.338 37.7668 301.63 37.7668C288.921 37.7668 278.614 48.0741 278.614 60.7827C278.614 73.4913 288.921 83.7986 301.63 83.7986C311.75 83.7986 320.347 77.2633 323.428 68.1952H310.128C308.066 70.5527 305.029 72.0439 301.641 72.0439ZM301.641 49.5105C306.389 49.5105 310.457 52.4492 312.112 56.605H291.169C292.825 52.4492 296.893 49.5105 301.641 49.5105Z" fill="white"/>
<path d="M275.949 37.7778C265.905 37.7778 257.034 44.2911 254.029 53.8089C253.383 56.0238 252.988 58.3704 252.988 60.7279V73.1953V83.338H264.731V60.7279C265.049 52.9646 270.532 49.0829 275.993 49.0829V37.7778C275.982 37.7778 275.96 37.7778 275.949 37.7778Z" fill="white"/>
<path d="M250.323 37.7778C240.279 37.7778 231.408 44.2911 228.404 53.8089C227.757 56.0238 227.362 58.3704 227.362 60.7279V73.1953V83.338H239.106V60.7279C239.424 52.9646 244.907 49.0829 250.367 49.0829V37.7778C250.356 37.7778 250.334 37.7778 250.323 37.7778Z" fill="white"/>
<path d="M210.378 60.8484C209.731 76.3751 188.458 76.3751 187.943 60.8484V48.381V38.2383H176.199V48.381V60.8375C176.199 63.184 176.594 65.5305 177.241 67.7565C180.245 77.2852 189.116 83.7985 199.16 83.7985C209.204 83.7985 218.075 77.2852 221.08 67.7674C221.727 65.5525 222.121 63.2059 222.121 60.8484V48.381V38.2383H210.378V60.8484Z" fill="white"/>
<path d="M154.828 48.9514C149.882 48.1619 144.027 47.2408 140.123 44.0719C137.645 42.0762 138.687 38.9182 141.297 37.1857C146.374 33.8633 154.817 35.7274 156.516 41.8021H169.784C169.784 30.9685 158.337 23.9508 147.656 24.0824C141.659 24.0824 136.077 25.5407 131.779 29.1044C126.581 33.337 123.983 41.3964 127.228 47.3614C132.568 56.2212 145.453 56.0897 154.17 59.6424C156.516 60.8376 157.953 62.1644 157.953 64.6644C157.953 70.0922 153.139 72.34 147.667 72.34C142.47 72.4716 138.566 68.5022 138.04 63.6118H125.024C125.419 82.7898 150.529 89.6759 164.707 78.2831C168.742 74.8401 170.957 69.9496 170.957 64.6754C171.078 56.0787 163.019 50.2672 154.828 48.9514Z" fill="white"/>
<path d="M46.0536 28.4903L71.6353 42.6573V36.9774L46.0536 22.8433C42.2487 24.9486 23.8602 35.1133 20.4719 36.9774C23.6189 38.7208 56.6679 56.9778 76.7561 68.0745V73.7326C74.0257 75.2458 46.0536 90.6956 46.0536 90.6956C38.4 86.4741 22.9939 77.9651 15.3512 73.7326V56.7695L46.0536 73.7326L51.1744 70.9035L10.2305 48.2934V76.5725L46.0536 96.3537C49.5844 94.4019 79.2561 78.009 81.8658 76.5616V65.2565L30.7024 36.9774L46.0536 28.4903ZM10.2305 31.3193V42.6354L61.3939 70.9145L46.0427 79.4015L20.461 65.2346V70.9145L46.0427 85.0486C49.8476 82.9433 68.2361 72.7786 71.6244 70.9145C68.4774 69.1711 35.4394 50.9141 15.3512 39.8064V34.1484C18.0815 32.6352 46.0536 17.1853 46.0536 17.1853C53.6964 21.4178 69.1024 29.9268 76.7561 34.1484V51.1114L46.0536 34.1484L40.9329 36.9774L81.8658 59.5985V31.3193L46.0536 11.5272C42.5119 13.49 12.8512 29.8829 10.2305 31.3193ZM46.0536 0.222168L0 25.6723V82.2196L46.0536 107.67L92.1073 82.2306V25.6723L46.0536 0.222168ZM86.9756 79.3906L46.0536 102.012L5.12073 79.3906V28.5013L46.0536 5.88019L86.9866 28.5013L86.9756 79.3906Z" fill="url(#paint1_linear_1193_3237)"/>
</g>
<defs>
<linearGradient id="paint0_linear_1193_3237" x1="419.792" y1="12.023" x2="467.653" y2="94.9216" gradientUnits="userSpaceOnUse">
<stop stop-color="#FF00A0"/>
<stop offset="1" stop-color="#9600FF"/>
</linearGradient>
<linearGradient id="paint1_linear_1193_3237" x1="22.2974" y1="12.7989" x2="69.8147" y2="95.1012" gradientUnits="userSpaceOnUse">
<stop stop-color="#FF00A0"/>
<stop offset="1" stop-color="#9600FF"/>
</linearGradient>
<clipPath id="clip0_1193_3237">
<rect width="auto" height="107.448" fill="white" transform="translate(0 0.222168)"/>
</clipPath>
</defs>
</svg>
