<?xml version="1.0" encoding="utf-8"?>
<!-- Generator: Adobe Illustrator 24.3.0, SVG Export Plug-In . SVG Version: 6.00 Build 0)  -->
<svg version="1.0" id="katman_1" xmlns="http://www.w3.org/2000/svg" xmlns:xlink="http://www.w3.org/1999/xlink" x="0px" y="0px"
	 viewBox="0 0 841.89 595.28" style="enable-background:new 0 0 841.89 595.28;" xml:space="preserve">
<style type="text/css">
	.st0{fill:#68F169;}
</style>
<path class="st0" d="M253.71,260.79l0.06,77.8c-0.06,3.83-3.27,6.05-7.21,6.05h-16.65c-3.98,0-7.21,3.14-7.21,7.01v39.71
	c0,3.86,3.22,7.01,7.2,7.01l79.07,0.13c3.99,0,7.23-3.14,7.23-7.01v-38.88c0-3.87-3.23-7.01-7.21-7.01h-10.82
	c-3.98,0-7.21-3.14-7.21-7.01v-50.56c0-3.87,3.23-7.01,7.22-7.01h10.81c3.99,0,7.22-3.13,7.22-7.01V202.1
	c0-3.87-3.23-7.01-7.21-7.01h-44.84c-2.71,0-5.19,1.48-6.42,3.82l-39.78,75.7l-39.3-75.67c-1.23-2.36-3.72-3.85-6.44-3.85h-59.23
	c-3.98,0-7.21,3.14-7.21,7.01v30.26c0,3.87,3.23,7.01,7.21,7.01h10.59c3.98,0,7.21,3.14,7.21,7.01v52.74c0,3.87-3.23,7.01-7.21,7.01
	h-10.59c-3.98,0-7.21,3.14-7.21,7.01v78.36c0,3.87,3.23,7.01,7.21,7.01h61.31c3.98,0,7.21-3.14,7.21-7.01v-38.9
	c0-3.87-3.23-7.01-7.21-7.01h-10.52c-3.98,0-7.21-3.14-7.21-7.01v-70.53l41.98,80.82c1.77,3.41,6.77,3.43,8.57,0.03L253.71,260.79z"
	/>
<path class="st0" d="M448.31,270.83c-3.71-11.4-12.66-20.35-24.08-24.05c-5.65-1.84-12.63-1.84-26.59-1.84h-20.86
	c-13.96,0-20.94,0-26.59,1.84c-11.41,3.7-20.37,12.65-24.08,24.05c-1.84,5.64-1.84,12.62-1.84,26.56v49.55
	c0,13.95,0,20.92,1.84,26.56c3.71,11.4,12.66,20.35,24.08,24.05c5.65,1.83,12.63,1.83,26.59,1.83h20.86c13.96,0,20.94,0,26.59-1.83
	c11.41-3.7,20.37-12.65,24.08-24.05c1.83-5.64,1.83-12.62,1.83-26.56v-49.55C450.14,283.44,450.14,276.47,448.31,270.83z
	 M422.36,324.59c0,5.93,0,8.89-0.78,11.29c-1.58,4.85-5.38,8.65-10.23,10.22c-2.4,0.78-5.37,0.78-11.3,0.78h-25.69
	c-5.93,0-8.9,0-11.3-0.78c-4.85-1.57-8.66-5.38-10.23-10.22c-0.78-2.4-0.78-5.36-0.78-11.29V320c0-5.93,0-8.89,0.78-11.29
	c1.57-4.85,5.38-8.65,10.23-10.22c2.4-0.78,5.37-0.78,11.3-0.78h25.69c5.93,0,8.9,0,11.3,0.78c4.85,1.57,8.66,5.38,10.23,10.22
	c0.78,2.4,0.78,5.36,0.78,11.29V324.59z"/>
<path class="st0" d="M593.46,198.98c-0.56-1.71-1.9-3.05-3.61-3.61c-0.85-0.28-1.89-0.28-3.99-0.28h-21.98c-2.1,0-3.14,0-3.99,0.28
	c-1.71,0.56-3.06,1.9-3.61,3.61c-0.28,0.85-0.28,1.89-0.28,3.99v32c0,2.61,0,3.92-0.34,4.98c-0.69,2.14-2.37,3.82-4.51,4.51
	c-1.06,0.34-2.37,0.34-4.99,0.34h-25.79c-13.96,0-20.94,0-26.59,1.83c-11.41,3.7-20.37,12.65-24.08,24.05
	c-1.84,5.64-1.84,12.62-1.84,26.56v49.55c0,13.95,0,20.92,1.84,26.56c3.71,11.41,12.66,20.35,24.08,24.05
	c5.65,1.84,12.63,1.84,26.59,1.84h20.86c13.96,0,20.94,0,26.59-1.84c11.41-3.7,20.37-12.65,24.08-24.05
	c1.84-5.64,1.84-12.62,1.84-26.56V202.96C593.74,200.87,593.74,199.82,593.46,198.98L593.46,198.98z M562.43,324.45
	c0,5.93,0,8.89-0.78,11.29c-1.57,4.85-5.38,8.65-10.23,10.22c-2.4,0.78-5.37,0.78-11.3,0.78h-22.15c-5.93,0-8.9,0-11.3-0.78
	c-4.85-1.57-8.66-5.38-10.23-10.22c-0.78-2.4-0.78-5.36-0.78-11.29v-4.59c0-5.93,0-8.89,0.78-11.29c1.58-4.85,5.38-8.65,10.23-10.22
	c2.4-0.78,5.37-0.78,11.3-0.78h22.15c5.93,0,8.9,0,11.3,0.78c4.85,1.57,8.66,5.38,10.23,10.22c0.78,2.4,0.78,5.36,0.78,11.29V324.45
	z"/>
<path class="st0" d="M663.16,363.68c-5.93,0-8.9,0-11.3-0.78c-4.85-1.57-8.66-5.38-10.23-10.22c-0.5-1.53-0.68-3.29-0.74-5.9h89.62
	c3.62,0,6.56-2.94,6.56-6.56v-42.7c0-13.95,0-20.92-1.83-26.56c-3.71-11.4-12.66-20.35-24.08-24.05
	c-5.65-1.84-12.63-1.84-26.59-1.84H663.7c-13.96,0-20.94,0-26.59,1.84c-11.42,3.7-20.37,12.65-24.08,24.05
	c-1.84,5.64-1.84,12.62-1.84,26.56v49.55c0,13.95,0,20.92,1.84,26.56c3.71,11.4,12.66,20.35,24.08,24.05
	c5.65,1.83,12.63,1.83,26.59,1.83h37.48c17.54,0,32.13-12.57,35.26-29.18c0.65-3.46-2-6.67-5.53-6.67L663.16,363.68L663.16,363.68z
	 M641.62,308.56c1.57-4.85,5.38-8.65,10.23-10.22c2.4-0.78,5.37-0.78,11.3-0.78h21.94c5.93,0,8.9,0,11.3,0.78
	c4.85,1.57,8.66,5.38,10.23,10.22c0.78,2.4,0.78,5.36,0.78,11.29v2.58h-66.56v-2.58C640.85,313.92,640.85,310.96,641.62,308.56
	L641.62,308.56z"/>
</svg>
