<svg width="1163" height="842" viewBox="0 0 1163 842" fill="none" xmlns="http://www.w3.org/2000/svg">
<g clip-path="url(#clip0_2_6563)">
<path d="M161.906 174.821H176.865L176.868 181.983H177.126C180.322 177.375 185.567 173.668 191.962 173.668C198.997 173.668 203.473 176.867 205.645 182.238H205.9C207.432 179.811 209.865 177.504 212.295 175.969C214.854 174.434 217.792 173.668 220.994 173.668C232.249 173.668 237.236 182.619 237.236 197.584V237.358H220.48V200.396C220.48 193.364 219.711 187.606 214.725 187.606C211.784 187.606 209.48 189.654 208.456 193.235C208.075 194.259 207.942 195.92 207.942 197.71V237.358H191.19V198.095C191.19 193.493 190.806 187.609 185.561 187.609C183.005 187.609 180.445 189.402 179.295 193.238C178.914 194.388 178.655 196.182 178.655 197.972V237.361H161.903L161.906 174.821Z" fill="#091C22"/>
<path d="M287.846 222.854L287.849 237.333H272.887L272.881 231.125H272.496C269.174 235.909 264.182 238.366 258.685 238.366C249.217 238.366 242.185 230.35 242.185 219.233C242.185 202.558 256.639 195.831 270.832 195.705V194.284C270.832 189.242 269.802 188.322 263.791 188.322C258.805 188.322 245.707 188.344 245.707 188.344L250.715 174.883C250.715 174.883 260.454 174.883 269.282 174.883C288.338 174.883 287.843 186.529 287.843 199.454V222.854H287.846ZM271.349 206.563C265.849 206.695 258.048 208.63 258.048 217.422C258.048 223.629 261.503 225.961 264.062 225.961C266.87 225.961 269.817 224.275 270.965 220.528C271.223 219.621 271.349 218.714 271.349 217.551V206.563Z" fill="#091C22"/>
<path d="M340.453 181.069L340.443 174.821L325.518 174.858L325.546 181.213H325.288C322.858 176.353 318.766 173.671 313.78 173.671C302.27 173.671 292.805 185.818 292.805 206.665C292.805 221.63 298.301 236.976 312.242 236.976C316.973 236.976 321.323 234.675 323.497 230.71H323.756V234.543C323.756 244.137 320.431 249.766 311.987 249.766C307.13 249.766 301.221 249.702 301.221 249.702L296.376 262.935C296.376 262.935 306.745 262.935 312.63 262.935C321.71 262.935 328.358 260.379 332.962 256.029C337.826 251.289 340.376 244.106 340.496 231.304C335.497 225.49 333.353 216.004 333.353 206.662C333.35 195.419 336.109 186.71 340.453 181.069ZM323.753 213.337C323.753 214.998 323.624 216.917 322.984 218.32C321.704 221.645 319.659 222.796 317.484 222.796C312.624 222.796 309.295 216.914 309.295 205.274C309.295 195.043 311.728 186.861 317.739 186.861C320.557 186.861 322.347 189.291 323.11 191.977C323.494 193.253 323.75 194.917 323.75 196.578V213.337H323.753Z" fill="#3DBCB2"/>
<path d="M384.333 174.821L369.405 174.858L369.432 181.213H369.174C366.744 176.353 362.653 173.671 357.663 173.671C352.36 173.671 347.494 176.255 343.79 181.072C339.447 186.713 336.688 195.419 336.688 206.665C336.688 216.007 338.832 225.493 343.83 231.307C346.839 234.804 350.887 236.976 356.125 236.976C360.859 236.976 365.209 234.675 367.38 230.71H367.639V234.543C367.639 244.137 364.314 249.766 355.87 249.766C351.016 249.766 346.408 249.702 346.408 249.702L341.563 262.935C341.563 262.935 350.628 262.935 356.513 262.935C365.593 262.935 372.244 260.379 376.849 256.029C381.838 251.169 384.394 243.753 384.394 230.323L384.333 174.821ZM367.642 213.337C367.642 214.998 367.513 216.917 366.87 218.32C365.596 221.645 363.548 222.796 361.373 222.796C356.513 222.796 353.191 216.914 353.191 205.274C353.191 195.043 355.621 186.861 361.631 186.861C364.446 186.861 366.236 189.291 367.002 191.977C367.387 193.253 367.645 194.917 367.645 196.578L367.642 213.337Z" fill="#3DBCB2"/>
<path d="M147.621 174.88V186.477H136.636V237.422H153.388V174.88H147.621Z" fill="#091C22"/>
<path d="M145.012 174.88H136.636V183.871H145.012V174.88Z" fill="#3DBCB2"/>
<path d="M435.118 222.854L435.124 237.333H420.163L420.156 231.125H419.775C416.45 235.909 411.46 238.366 405.963 238.366C396.498 238.366 389.463 230.35 389.463 219.233C389.463 202.558 403.915 195.831 418.111 195.705V194.284C418.111 189.242 417.08 188.322 411.07 188.322C406.083 188.322 392.986 188.344 392.986 188.344L397.993 174.883C397.993 174.883 407.732 174.883 416.564 174.883C435.617 174.883 435.121 186.529 435.121 199.454L435.118 222.854ZM418.621 206.563C413.121 206.695 405.321 208.63 405.321 217.422C405.321 223.629 408.775 225.961 411.334 225.961C414.143 225.961 417.09 224.275 418.237 220.528C418.495 219.621 418.621 218.714 418.621 217.551V206.563Z" fill="#091C22"/>
</g>
<path fill-rule="evenodd" clip-rule="evenodd" d="M39.9289 379.105C40.0428 379.085 40.1581 379.075 40.2737 379.075C42.1358 379.075 43.666 380.054 44.885 381.037C45.6316 381.639 46.4712 382.429 47.3081 383.216C47.7872 383.667 48.2655 384.117 48.7248 384.531C51.3994 386.938 54.6699 389.326 59.6655 389.958C62.7168 389.913 64.9767 388.107 67.8717 385.676C67.9327 385.624 67.9941 385.573 68.0558 385.521C70.7601 383.247 74.1039 380.436 78.8211 380.436C83.5383 380.436 86.8821 383.247 89.5864 385.521C89.6481 385.573 89.7095 385.624 89.7705 385.676C92.7027 388.139 94.9834 389.959 98.0948 389.959C101.206 389.959 103.487 388.139 106.419 385.676C106.48 385.624 106.541 385.573 106.603 385.521C109.307 383.247 112.651 380.436 117.368 380.436C122.086 380.436 125.429 383.247 128.134 385.521C128.195 385.573 128.257 385.624 128.318 385.676C131.25 388.139 133.531 389.959 136.642 389.959C139.754 389.959 142.034 388.139 144.966 385.676C145.027 385.624 145.089 385.573 145.151 385.521C147.855 383.247 151.199 380.436 155.916 380.436C160.633 380.436 163.977 383.247 166.681 385.521C166.743 385.573 166.804 385.624 166.865 385.676C169.797 388.139 172.078 389.959 175.19 389.959C176.317 389.959 177.23 390.873 177.23 392C177.23 393.127 176.317 394.041 175.19 394.041C170.472 394.041 167.129 391.229 164.424 388.956C164.363 388.904 164.301 388.852 164.24 388.801C161.308 386.338 159.027 384.517 155.916 384.517C152.804 384.517 150.524 386.338 147.592 388.801C147.531 388.852 147.469 388.904 147.407 388.956C144.703 391.229 141.359 394.041 136.642 394.041C131.925 394.041 128.581 391.229 125.877 388.956C125.815 388.904 125.754 388.852 125.693 388.801C122.761 386.338 120.48 384.517 117.368 384.517C114.257 384.517 111.976 386.338 109.044 388.801C108.983 388.852 108.922 388.904 108.86 388.956C106.156 391.229 102.812 394.041 98.0948 394.041C93.3776 394.041 90.0338 391.229 87.3295 388.956C87.2678 388.904 87.2064 388.852 87.1453 388.801C84.2132 386.338 81.9325 384.517 78.8211 384.517C75.7097 384.517 73.429 386.338 70.4968 388.801C70.4358 388.852 70.3744 388.904 70.3127 388.956C67.6084 391.229 64.2646 394.041 59.5474 394.041C59.4661 394.041 59.3849 394.036 59.3042 394.026C53.033 393.274 48.9663 390.239 45.9944 387.565C45.3558 386.99 44.8108 386.475 44.3155 386.007C43.5909 385.322 42.9726 384.738 42.3232 384.214C41.3887 383.461 40.8141 383.21 40.4131 383.165C37.1011 383.803 33.8703 386.131 30.6191 388.675C30.3746 388.867 30.1291 389.06 29.8833 389.253C28.5408 390.309 27.1874 391.374 25.9247 392.199C24.4806 393.142 22.7718 394.041 21 394.041C19.8729 394.041 18.9593 393.127 18.9593 392C18.9593 390.873 19.8729 389.959 21 389.959C21.4957 389.959 22.3378 389.667 23.6927 388.782C24.791 388.065 25.9752 387.134 27.3244 386.073C27.5781 385.873 27.8377 385.669 28.1037 385.461C31.3043 382.956 35.3765 379.885 39.9289 379.105Z" fill="#091C22"/>
<path fill-rule="evenodd" clip-rule="evenodd" d="M166.978 363.176C167.317 363.975 167.114 364.9 166.472 365.483C155.733 375.25 142.01 383.108 128.25 389.497C127.228 389.972 126.015 389.528 125.54 388.505C125.065 387.483 125.509 386.27 126.531 385.795C138.162 380.395 149.586 374.01 159.098 366.405L34.5793 374.425L38.3181 381.576C38.8403 382.575 38.454 383.808 37.4552 384.33C36.4564 384.852 35.2234 384.466 34.7012 383.467L29.5086 373.535C29.1887 372.923 29.1999 372.191 29.5384 371.589C29.8769 370.988 30.4968 370.598 31.1859 370.553L164.968 361.937C165.833 361.881 166.639 362.378 166.978 363.176Z" fill="#091C22"/>
<path fill-rule="evenodd" clip-rule="evenodd" d="M82.7438 279.187C83.1822 278.281 84.2152 277.83 85.1773 278.125C97.0742 281.762 111.028 292.222 123.304 306.149C135.618 320.119 146.455 337.815 151.975 356.222C152.2 356.97 151.977 357.781 151.402 358.31C150.827 358.839 150.001 358.993 149.274 358.707C148.657 358.465 148.07 358.228 147.504 358C145.222 357.08 143.279 356.297 141.129 355.836C138.552 355.284 135.675 355.21 131.796 356.201C130.718 356.476 129.618 355.837 129.323 354.764C121.312 325.622 107.054 298.102 83.4196 281.755C82.5922 281.182 82.3053 280.092 82.7438 279.187ZM99.3425 289.895C115.619 306.481 126.176 328.772 132.735 351.811C136.301 351.135 139.251 351.259 141.985 351.845C143.636 352.199 145.21 352.726 146.747 353.31C141.122 337.033 131.323 321.42 120.242 308.848C113.464 301.158 106.273 294.681 99.3425 289.895Z" fill="#091C22"/>
<path fill-rule="evenodd" clip-rule="evenodd" d="M40.7105 262.656C41.2924 261.991 42.2363 261.776 43.0489 262.123C57.9111 268.48 75.4388 280.453 90.1889 296.676C104.945 312.905 117.016 333.494 120.767 357.1C120.883 357.827 120.598 358.559 120.023 359.017C119.448 359.475 118.67 359.588 117.988 359.313C85.0472 346.03 60.1263 353.121 42.7739 363.828C41.9318 364.348 40.8383 364.189 40.1795 363.45C39.5207 362.712 39.4865 361.607 40.0983 360.83C66.4928 327.281 54.7835 289.026 40.4933 265.044C40.0409 264.285 40.1286 263.321 40.7105 262.656ZM47.1316 268.529C59.2658 291.468 67.9121 325.005 48.4548 356.05C65.464 347.797 88.0057 343.863 116.107 354.213C111.92 333.044 100.788 314.4 87.1691 299.422C74.657 285.661 60.1179 275.074 47.1316 268.529Z" fill="#091C22"/>
<path d="M187.008 376.354V331.662H196.069L200.415 345.865C200.864 347.294 201.232 348.6 201.517 349.784C201.803 350.967 201.987 351.824 202.068 352.355C202.15 351.824 202.334 350.967 202.619 349.784C202.905 348.6 203.252 347.294 203.66 345.865L207.823 331.662H216.884V376.354H209.721V362.457C209.721 360.416 209.782 358.192 209.905 355.783C210.027 353.375 210.17 350.967 210.333 348.559C210.497 346.151 210.68 343.865 210.884 341.702C211.129 339.539 211.333 337.641 211.497 336.009L205.497 357.13H198.518L192.334 336.009C192.538 337.56 192.742 339.396 192.946 341.519C193.15 343.6 193.334 345.845 193.497 348.253C193.701 350.62 193.865 353.028 193.987 355.477C194.11 357.926 194.171 360.253 194.171 362.457V376.354H187.008Z" fill="#091C22"/>
<path d="M224.942 376.354V369.375H236.696V349.6H226.472V342.682H244.043V369.375H254.451V376.354H224.942ZM239.757 337.049C238.206 337.049 236.982 336.662 236.084 335.886C235.186 335.07 234.737 333.988 234.737 332.641C234.737 331.295 235.186 330.233 236.084 329.458C236.982 328.642 238.206 328.233 239.757 328.233C241.308 328.233 242.533 328.642 243.431 329.458C244.329 330.233 244.778 331.295 244.778 332.641C244.778 333.988 244.329 335.07 243.431 335.886C242.533 336.662 241.308 337.049 239.757 337.049Z" fill="#091C22"/>
<path d="M272.487 376.966C269.141 376.966 266.426 375.803 264.345 373.477C262.304 371.15 261.284 368.028 261.284 364.11V354.988C261.284 351.029 262.304 347.886 264.345 345.559C266.386 343.233 269.1 342.07 272.487 342.07C275.263 342.07 277.467 342.866 279.099 344.457C280.732 346.008 281.548 348.151 281.548 350.886L279.834 349.11H281.61L281.365 341.09V331.662H289.018V376.354H281.548V369.926H279.834L281.548 368.15C281.548 370.885 280.732 373.048 279.099 374.64C277.467 376.191 275.263 376.966 272.487 376.966ZM275.181 370.354C277.14 370.354 278.651 369.783 279.712 368.64C280.814 367.456 281.365 365.824 281.365 363.742V355.294C281.365 353.212 280.814 351.6 279.712 350.457C278.651 349.273 277.14 348.682 275.181 348.682C273.222 348.682 271.692 349.253 270.59 350.396C269.488 351.539 268.937 353.171 268.937 355.294V363.742C268.937 365.865 269.488 367.497 270.59 368.64C271.692 369.783 273.222 370.354 275.181 370.354Z" fill="#091C22"/>
<path d="M298.728 387.374V380.272H307.728C309.768 380.272 311.34 379.721 312.442 378.619C313.544 377.517 314.095 375.966 314.095 373.966V349.784H300.565V342.682H321.748V374.15C321.748 378.232 320.523 381.456 318.074 383.823C315.625 386.191 312.319 387.374 308.156 387.374H298.728ZM317.646 337.049C316.095 337.049 314.87 336.662 313.972 335.886C313.074 335.07 312.625 333.988 312.625 332.641C312.625 331.295 313.074 330.233 313.972 329.458C314.87 328.642 316.095 328.233 317.646 328.233C319.197 328.233 320.421 328.642 321.319 329.458C322.217 330.233 322.666 331.295 322.666 332.641C322.666 333.988 322.217 335.07 321.319 335.886C320.421 336.662 319.197 337.049 317.646 337.049Z" fill="#091C22"/>
<path d="M348.784 376.905C345.927 376.905 343.437 376.375 341.315 375.313C339.233 374.211 337.601 372.681 336.417 370.722C335.274 368.722 334.703 366.375 334.703 363.681V355.355C334.703 352.661 335.274 350.335 336.417 348.376C337.601 346.376 339.233 344.845 341.315 343.784C343.437 342.682 345.927 342.131 348.784 342.131C351.682 342.131 354.171 342.682 356.253 343.784C358.335 344.845 359.947 346.376 361.09 348.376C362.273 350.335 362.865 352.641 362.865 355.294V363.681C362.865 366.375 362.273 368.722 361.09 370.722C359.947 372.681 358.335 374.211 356.253 375.313C354.171 376.375 351.682 376.905 348.784 376.905ZM348.784 370.232C350.825 370.232 352.396 369.681 353.498 368.579C354.641 367.436 355.212 365.803 355.212 363.681V355.355C355.212 353.192 354.641 351.559 353.498 350.457C352.396 349.355 350.825 348.804 348.784 348.804C346.784 348.804 345.213 349.355 344.07 350.457C342.927 351.559 342.356 353.192 342.356 355.355V363.681C342.356 365.803 342.927 367.436 344.07 368.579C345.213 369.681 346.784 370.232 348.784 370.232Z" fill="#091C22"/>
<path d="M385.493 376.966C381.208 376.966 377.841 375.783 375.392 373.415C372.943 371.007 371.718 367.742 371.718 363.62V342.682H379.371V363.559C379.371 365.722 379.902 367.395 380.963 368.579C382.024 369.722 383.534 370.293 385.493 370.293C387.412 370.293 388.901 369.722 389.963 368.579C391.065 367.395 391.616 365.722 391.616 363.559V342.682H399.268V363.62C399.268 367.742 398.024 371.007 395.534 373.415C393.044 375.783 389.697 376.966 385.493 376.966Z" fill="#091C22"/>
<path d="M409.591 376.354V342.682H416.815V349.11H418.713L416.448 353.028C416.448 349.396 417.264 346.661 418.897 344.825C420.529 342.988 422.938 342.07 426.121 342.07C429.754 342.07 432.611 343.192 434.692 345.437C436.774 347.682 437.815 350.784 437.815 354.743V357.192H429.794V355.294C429.794 353.13 429.223 351.457 428.08 350.273C426.978 349.09 425.448 348.498 423.489 348.498C421.489 348.498 419.938 349.09 418.836 350.273C417.774 351.457 417.244 353.13 417.244 355.294V376.354H409.591Z" fill="#091C22"/>
<path d="M445.26 376.354V342.682H452.729V349.11H454.81L452.729 350.886C452.729 348.11 453.525 345.947 455.117 344.396C456.749 342.845 458.974 342.07 461.79 342.07C465.096 342.07 467.728 343.172 469.687 345.376C471.687 347.58 472.687 350.539 472.687 354.253V376.354H465.035V355.049C465.035 353.008 464.504 351.437 463.443 350.335C462.382 349.233 460.892 348.682 458.974 348.682C457.096 348.682 455.606 349.253 454.504 350.396C453.443 351.539 452.913 353.171 452.913 355.294V376.354H445.26Z" fill="#091C22"/>
<path d="M495.683 376.966C492.826 376.966 490.336 376.415 488.214 375.313C486.092 374.211 484.439 372.681 483.255 370.722C482.112 368.722 481.541 366.395 481.541 363.742V355.294C481.541 352.641 482.112 350.335 483.255 348.376C484.439 346.376 486.092 344.825 488.214 343.723C490.336 342.621 492.826 342.07 495.683 342.07C498.499 342.07 500.948 342.621 503.03 343.723C505.152 344.825 506.785 346.376 507.927 348.376C509.111 350.335 509.703 352.641 509.703 355.294V361.355H488.949V363.742C488.949 366.11 489.52 367.905 490.663 369.13C491.806 370.314 493.499 370.905 495.744 370.905C497.458 370.905 498.846 370.62 499.907 370.048C500.969 369.436 501.642 368.559 501.928 367.416H509.458C508.887 370.314 507.336 372.64 504.805 374.395C502.315 376.109 499.275 376.966 495.683 376.966ZM502.295 357.069V355.232C502.295 352.906 501.744 351.131 500.642 349.906C499.54 348.641 497.887 348.008 495.683 348.008C493.479 348.008 491.806 348.641 490.663 349.906C489.52 351.171 488.949 352.967 488.949 355.294V356.579L502.846 356.457L502.295 357.069Z" fill="#091C22"/>
<path d="M524.127 387.374L528.842 374.517L516.291 342.682H524.678L530.923 359.885C531.25 360.824 531.576 361.967 531.903 363.314C532.229 364.62 532.474 365.701 532.637 366.559C532.841 365.701 533.107 364.62 533.433 363.314C533.76 361.967 534.086 360.824 534.413 359.885L540.29 342.682H548.372L532.148 387.374H524.127Z" fill="#091C22"/>
<path d="M1058.25 234.514C1059.4 234.514 1060.31 234.823 1060.99 235.44C1061.66 236.028 1062 236.852 1062 237.911C1062 238.97 1061.66 239.808 1060.99 240.426C1060.31 241.014 1059.4 241.308 1058.25 241.308C1057.1 241.308 1056.19 241.014 1055.51 240.426C1054.84 239.808 1054.5 238.97 1054.5 237.911C1054.5 236.852 1054.84 236.028 1055.51 235.44C1056.19 234.823 1057.1 234.514 1058.25 234.514Z" fill="black"/>
<path d="M1041.71 217.263C1042.94 217.263 1044.02 217.424 1044.93 217.748C1045.87 218.042 1046.55 218.336 1046.96 218.63C1047.96 219.307 1048.58 218.866 1048.81 217.307H1049.74C1049.68 218.13 1049.63 219.145 1049.6 220.351C1049.58 221.528 1049.56 223.101 1049.56 225.072H1048.63C1048.49 223.984 1048.21 222.91 1047.8 221.851C1047.38 220.792 1046.78 219.925 1045.99 219.248C1045.22 218.572 1044.22 218.233 1042.99 218.233C1042.13 218.233 1041.41 218.483 1040.82 218.983C1040.24 219.454 1039.94 220.145 1039.94 221.057C1039.94 221.939 1040.21 222.719 1040.74 223.395C1041.27 224.043 1041.94 224.675 1042.77 225.293C1043.62 225.881 1044.5 226.513 1045.41 227.19C1046.38 227.925 1047.27 228.661 1048.06 229.396C1048.85 230.102 1049.49 230.881 1049.96 231.734C1050.43 232.587 1050.66 233.602 1050.66 234.779C1050.66 236.102 1050.28 237.264 1049.52 238.264C1048.75 239.235 1047.74 239.985 1046.47 240.514C1045.24 241.044 1043.85 241.308 1042.32 241.308C1041.44 241.308 1040.65 241.22 1039.94 241.044C1039.27 240.867 1038.68 240.647 1038.18 240.382C1037.8 240.205 1037.43 240.044 1037.07 239.897C1036.75 239.72 1036.44 239.573 1036.15 239.455C1035.85 239.367 1035.59 239.47 1035.35 239.764C1035.15 240.058 1034.99 240.47 1034.87 241H1033.94C1034 240.058 1034.04 238.911 1034.07 237.558C1034.1 236.205 1034.12 234.411 1034.12 232.175H1035.04C1035.22 233.764 1035.55 235.176 1036.02 236.411C1036.49 237.617 1037.12 238.573 1037.91 239.279C1038.74 239.955 1039.77 240.294 1041 240.294C1041.5 240.294 1041.99 240.191 1042.46 239.985C1042.93 239.779 1043.31 239.441 1043.6 238.97C1043.93 238.499 1044.09 237.896 1044.09 237.161C1044.09 235.867 1043.66 234.793 1042.81 233.94C1041.99 233.087 1040.93 232.161 1039.63 231.161C1038.69 230.396 1037.8 229.646 1036.94 228.911C1036.12 228.146 1035.44 227.322 1034.91 226.44C1034.38 225.528 1034.12 224.498 1034.12 223.351C1034.12 222.028 1034.47 220.91 1035.18 219.998C1035.88 219.086 1036.81 218.41 1037.96 217.969C1039.13 217.498 1040.38 217.263 1041.71 217.263Z" fill="black"/>
<path d="M1022.25 217.262C1024.55 217.262 1026.45 218.203 1027.95 220.085C1029.48 221.939 1030.24 224.806 1030.24 228.689C1030.24 231.748 1029.77 234.204 1028.83 236.057C1027.92 237.91 1026.7 239.248 1025.17 240.072C1023.64 240.896 1021.96 241.307 1020.14 241.307C1018.93 241.307 1017.81 241.102 1016.78 240.69C1015.75 240.278 1014.87 239.601 1014.14 238.66L1014.75 238.44C1015.28 239.087 1015.9 239.572 1016.61 239.896C1017.34 240.219 1018.06 240.381 1018.77 240.381C1020.39 240.381 1021.59 239.469 1022.39 237.645C1023.18 235.822 1023.58 233.042 1023.58 229.307C1023.58 226.777 1023.42 224.777 1023.09 223.306C1022.8 221.806 1022.36 220.747 1021.77 220.13C1021.18 219.482 1020.47 219.159 1019.65 219.159C1018.62 219.159 1017.68 219.585 1016.83 220.438C1015.97 221.262 1015.49 222.424 1015.37 223.924L1015.15 222.38C1015.68 220.703 1016.58 219.438 1017.84 218.585C1019.11 217.703 1020.58 217.262 1022.25 217.262ZM1015.5 206.188V239.807C1014.77 239.69 1014.02 239.69 1013.25 239.807C1012.49 239.925 1011.78 240.131 1011.14 240.425C1010.49 240.69 1009.94 241.013 1009.5 241.396L1008.84 240.999C1008.96 240.587 1009.03 240.175 1009.06 239.763C1009.12 239.351 1009.15 238.94 1009.15 238.528V211.482C1009.15 210.158 1008.94 209.188 1008.53 208.57C1008.15 207.923 1007.42 207.599 1006.33 207.599V206.673C1007.27 206.761 1008.18 206.805 1009.06 206.805C1010.27 206.805 1011.42 206.761 1012.5 206.673C1013.59 206.555 1014.59 206.393 1015.5 206.188Z" fill="black"/>
<path d="M990.373 241C989.049 241 987.946 240.75 987.064 240.25C986.181 239.749 985.534 239.088 985.123 238.264C984.711 237.411 984.505 236.485 984.505 235.484C984.505 234.22 984.784 233.19 985.343 232.396C985.931 231.602 986.681 230.955 987.593 230.455C988.505 229.955 989.461 229.543 990.461 229.219C991.491 228.896 992.461 228.587 993.373 228.293C994.314 227.969 995.064 227.602 995.623 227.19C996.211 226.749 996.506 226.19 996.506 225.513V222.072C996.506 221.307 996.373 220.631 996.109 220.042C995.873 219.425 995.491 218.954 994.961 218.63C994.461 218.307 993.8 218.145 992.976 218.145C992.388 218.145 991.799 218.233 991.211 218.41C990.623 218.557 990.138 218.822 989.755 219.204C990.579 219.498 991.211 219.954 991.652 220.572C992.123 221.16 992.358 221.837 992.358 222.601C992.358 223.601 992.005 224.396 991.299 224.984C990.623 225.572 989.814 225.866 988.873 225.866C987.814 225.866 987.005 225.543 986.446 224.896C985.917 224.219 985.652 223.41 985.652 222.469C985.652 221.616 985.858 220.91 986.27 220.351C986.711 219.792 987.314 219.263 988.079 218.763C988.902 218.292 989.888 217.925 991.035 217.66C992.211 217.395 993.476 217.263 994.829 217.263C996.182 217.263 997.403 217.41 998.491 217.704C999.579 217.969 1000.49 218.469 1001.23 219.204C1001.9 219.881 1002.34 220.719 1002.55 221.719C1002.76 222.69 1002.86 223.925 1002.86 225.425V237.426C1002.86 238.161 1002.93 238.676 1003.08 238.97C1003.23 239.235 1003.48 239.367 1003.83 239.367C1004.09 239.367 1004.34 239.294 1004.58 239.146C1004.84 238.999 1005.12 238.823 1005.42 238.617L1005.86 239.367C1005.24 239.897 1004.52 240.308 1003.7 240.602C1002.9 240.867 1002.01 241 1001.01 241C999.918 241 999.05 240.852 998.403 240.558C997.756 240.235 997.285 239.808 996.991 239.279C996.726 238.749 996.594 238.132 996.594 237.426C995.888 238.544 995.035 239.426 994.035 240.073C993.035 240.691 991.814 241 990.373 241ZM993.505 238.176C994.094 238.176 994.623 238.043 995.094 237.779C995.594 237.485 996.064 237.014 996.506 236.367V227.322C996.241 227.763 995.873 228.16 995.403 228.513C994.932 228.866 994.432 229.234 993.902 229.616C993.373 229.969 992.858 230.367 992.358 230.808C991.888 231.249 991.505 231.793 991.211 232.44C990.917 233.087 990.77 233.867 990.77 234.779C990.77 235.926 991.02 236.779 991.52 237.338C992.02 237.896 992.682 238.176 993.505 238.176Z" fill="black"/>
<path d="M979.583 206.145V236.588C979.583 237.823 979.789 238.661 980.201 239.103C980.642 239.544 981.377 239.764 982.407 239.764V240.691C981.848 240.662 981.009 240.632 979.892 240.603C978.774 240.544 977.642 240.514 976.494 240.514C975.347 240.514 974.185 240.544 973.009 240.603C971.862 240.632 970.994 240.662 970.406 240.691V239.764C971.435 239.764 972.156 239.544 972.568 239.103C973.009 238.661 973.23 237.823 973.23 236.588V211.439C973.23 210.115 973.024 209.145 972.612 208.527C972.229 207.88 971.494 207.556 970.406 207.556V206.63C971.347 206.718 972.259 206.762 973.141 206.762C974.347 206.762 975.494 206.718 976.583 206.63C977.671 206.512 978.671 206.35 979.583 206.145Z" fill="black"/>
<path d="M954.549 210.643V217.878H959.755V218.761H954.549V236.585C954.549 237.468 954.711 238.1 955.035 238.483C955.358 238.836 955.843 239.012 956.491 239.012C957.02 239.012 957.549 238.821 958.079 238.439C958.608 238.027 959.079 237.336 959.491 236.365L960.241 236.762C959.77 238.086 959.05 239.174 958.079 240.027C957.138 240.88 955.843 241.306 954.196 241.306C953.226 241.306 952.373 241.174 951.637 240.909C950.902 240.674 950.284 240.306 949.784 239.806C949.137 239.159 948.711 238.365 948.505 237.424C948.299 236.453 948.196 235.203 948.196 233.673V218.761H944.49V217.878H948.196V212.054C949.431 212.054 950.564 211.951 951.593 211.746C952.652 211.51 953.637 211.143 954.549 210.643Z" fill="black"/>
<path d="M933.949 217.263C935.185 217.263 936.258 217.424 937.17 217.748C938.111 218.042 938.788 218.336 939.2 218.63C940.2 219.307 940.817 218.866 941.053 217.307H941.979C941.92 218.13 941.876 219.145 941.847 220.351C941.817 221.528 941.803 223.101 941.803 225.072H940.876C940.729 223.984 940.45 222.91 940.038 221.851C939.626 220.792 939.023 219.925 938.229 219.248C937.464 218.572 936.464 218.233 935.229 218.233C934.376 218.233 933.655 218.483 933.067 218.983C932.479 219.454 932.184 220.145 932.184 221.057C932.184 221.939 932.449 222.719 932.979 223.395C933.508 224.043 934.185 224.675 935.008 225.293C935.861 225.881 936.744 226.513 937.655 227.19C938.626 227.925 939.508 228.661 940.303 229.396C941.097 230.102 941.729 230.881 942.2 231.734C942.67 232.587 942.906 233.602 942.906 234.779C942.906 236.102 942.523 237.264 941.759 238.264C940.994 239.235 939.979 239.985 938.714 240.514C937.479 241.044 936.096 241.308 934.567 241.308C933.685 241.308 932.89 241.22 932.184 241.044C931.508 240.867 930.92 240.647 930.42 240.382C930.037 240.205 929.67 240.044 929.317 239.897C928.993 239.72 928.684 239.573 928.39 239.455C928.096 239.367 927.831 239.47 927.596 239.764C927.39 240.058 927.228 240.47 927.111 241H926.184C926.243 240.058 926.287 238.911 926.316 237.558C926.346 236.205 926.361 234.411 926.361 232.175H927.287C927.464 233.764 927.787 235.176 928.258 236.411C928.728 237.617 929.361 238.573 930.155 239.279C930.978 239.955 932.008 240.294 933.243 240.294C933.743 240.294 934.229 240.191 934.699 239.985C935.17 239.779 935.552 239.441 935.846 238.97C936.17 238.499 936.332 237.896 936.332 237.161C936.332 235.867 935.905 234.793 935.052 233.94C934.229 233.087 933.17 232.161 931.876 231.161C930.934 230.396 930.037 229.646 929.184 228.911C928.361 228.146 927.684 227.322 927.155 226.44C926.625 225.528 926.361 224.498 926.361 223.351C926.361 222.028 926.713 220.91 927.419 219.998C928.125 219.086 929.052 218.41 930.199 217.969C931.376 217.498 932.626 217.263 933.949 217.263Z" fill="black"/>
<path d="M914.364 217.263C916.953 217.263 918.982 218.027 920.453 219.557C921.924 221.086 922.659 223.587 922.659 227.057H908.143L908.055 226.219H917.1C917.129 224.778 917.041 223.454 916.835 222.248C916.629 221.013 916.306 220.028 915.865 219.292C915.423 218.557 914.835 218.189 914.1 218.189C913.07 218.189 912.188 218.836 911.453 220.131C910.747 221.425 910.32 223.572 910.173 226.572L910.305 226.837C910.276 227.19 910.247 227.557 910.217 227.94C910.217 228.322 910.217 228.719 910.217 229.131C910.217 231.161 910.497 232.808 911.055 234.073C911.644 235.337 912.379 236.264 913.261 236.852C914.144 237.411 915.041 237.691 915.953 237.691C916.57 237.691 917.203 237.602 917.85 237.426C918.526 237.22 919.203 236.867 919.88 236.367C920.556 235.837 921.188 235.102 921.777 234.161L922.571 234.426C922.218 235.543 921.659 236.632 920.894 237.691C920.13 238.749 919.159 239.617 917.982 240.294C916.806 240.97 915.394 241.308 913.747 241.308C911.747 241.308 909.982 240.882 908.452 240.029C906.923 239.176 905.717 237.882 904.834 236.146C903.981 234.411 903.555 232.205 903.555 229.528C903.555 226.793 904.011 224.513 904.923 222.69C905.864 220.866 907.143 219.513 908.761 218.63C910.408 217.719 912.276 217.263 914.364 217.263Z" fill="black"/>
<path d="M898.166 217.263C899.108 217.263 899.872 217.469 900.461 217.88C901.049 218.263 901.475 218.763 901.74 219.38C902.034 219.998 902.181 220.645 902.181 221.322C902.181 222.41 901.858 223.307 901.211 224.013C900.593 224.69 899.769 225.028 898.74 225.028C897.71 225.028 896.902 224.778 896.313 224.278C895.754 223.748 895.475 223.057 895.475 222.204C895.475 221.381 895.651 220.704 896.004 220.175C896.387 219.616 896.857 219.145 897.416 218.763C897.005 218.645 896.593 218.66 896.181 218.807C895.622 218.895 895.093 219.13 894.593 219.513C894.093 219.866 893.666 220.322 893.313 220.881C892.96 221.41 892.681 221.998 892.475 222.645C892.269 223.263 892.166 223.866 892.166 224.454V236.146C892.166 237.558 892.504 238.514 893.181 239.014C893.887 239.514 894.931 239.764 896.313 239.764V240.691C895.637 240.661 894.651 240.632 893.357 240.602C892.063 240.544 890.71 240.514 889.298 240.514C888.122 240.514 886.93 240.544 885.724 240.602C884.518 240.632 883.607 240.661 882.989 240.691V239.764C884.018 239.764 884.739 239.544 885.151 239.102C885.592 238.661 885.813 237.823 885.813 236.587V222.69C885.813 221.366 885.607 220.395 885.195 219.778C884.813 219.13 884.077 218.807 882.989 218.807V217.88C883.93 217.969 884.842 218.013 885.724 218.013C886.96 218.013 888.107 217.969 889.166 217.88C890.254 217.763 891.254 217.601 892.166 217.395V221.498C892.519 220.704 892.99 219.983 893.578 219.336C894.166 218.689 894.843 218.189 895.607 217.836C896.372 217.454 897.225 217.263 898.166 217.263Z" fill="black"/>
<path d="M869.425 217.263C871.572 217.263 873.455 217.66 875.072 218.454C876.69 219.248 877.955 220.528 878.867 222.292C879.779 224.057 880.235 226.396 880.235 229.308C880.235 232.22 879.779 234.558 878.867 236.323C877.955 238.058 876.69 239.323 875.072 240.117C873.455 240.911 871.572 241.308 869.425 241.308C867.337 241.308 865.469 240.911 863.822 240.117C862.204 239.323 860.925 238.058 859.983 236.323C859.071 234.558 858.616 232.22 858.616 229.308C858.616 226.396 859.071 224.057 859.983 222.292C860.925 220.528 862.204 219.248 863.822 218.454C865.469 217.66 867.337 217.263 869.425 217.263ZM869.425 218.145C868.249 218.145 867.263 219.028 866.469 220.792C865.675 222.528 865.278 225.366 865.278 229.308C865.278 233.249 865.675 236.087 866.469 237.823C867.263 239.558 868.249 240.426 869.425 240.426C870.631 240.426 871.616 239.558 872.381 237.823C873.175 236.087 873.572 233.249 873.572 229.308C873.572 225.366 873.175 222.528 872.381 220.792C871.616 219.028 870.631 218.145 869.425 218.145Z" fill="black"/>
<path d="M854.953 206.188C855.982 206.188 856.88 206.32 857.644 206.585C858.409 206.849 859.086 207.202 859.674 207.643C860.086 207.967 860.439 208.423 860.733 209.011C861.027 209.57 861.174 210.217 861.174 210.953C861.174 211.747 860.88 212.453 860.292 213.07C859.733 213.688 858.983 213.997 858.041 213.997C857.071 213.997 856.262 213.717 855.615 213.159C854.997 212.6 854.688 211.835 854.688 210.864C854.688 210.1 854.909 209.423 855.35 208.835C855.791 208.246 856.438 207.835 857.291 207.599C857.203 207.423 857.027 207.276 856.762 207.158C856.497 207.04 856.144 206.982 855.703 206.982C855.115 206.982 854.629 207.085 854.247 207.291C853.865 207.496 853.556 207.776 853.321 208.129C852.997 208.57 852.776 209.217 852.659 210.07C852.541 210.894 852.482 212.173 852.482 213.909V217.924H857.203V218.806H852.482V236.145C852.482 237.587 852.85 238.557 853.585 239.057C854.321 239.528 855.335 239.763 856.63 239.763V240.69C855.865 240.66 854.791 240.631 853.409 240.602C852.026 240.543 850.57 240.513 849.041 240.513C847.923 240.513 846.82 240.543 845.732 240.602C844.673 240.631 843.864 240.66 843.305 240.69V239.763C844.335 239.763 845.055 239.543 845.467 239.101C845.908 238.66 846.129 237.822 846.129 236.587V218.806H843.129V217.924H846.129C846.129 216.188 846.217 214.747 846.394 213.6C846.57 212.423 846.864 211.423 847.276 210.6C847.688 209.776 848.232 209.041 848.908 208.394C849.556 207.776 850.409 207.261 851.467 206.849C852.556 206.408 853.718 206.188 854.953 206.188Z" fill="black"/>
<path d="M816.372 206.145V236.588C816.372 237.823 816.563 238.661 816.945 239.103C817.357 239.544 818.048 239.764 819.019 239.764V240.691C818.46 240.662 817.636 240.632 816.548 240.603C815.489 240.544 814.401 240.514 813.283 240.514C812.136 240.514 810.974 240.544 809.798 240.603C808.65 240.632 807.783 240.662 807.195 240.691V239.764C808.224 239.764 808.945 239.544 809.356 239.103C809.798 238.661 810.018 237.823 810.018 236.588V211.439C810.018 210.115 809.812 209.145 809.401 208.527C809.018 207.88 808.283 207.556 807.195 207.556V206.63C808.136 206.718 809.048 206.762 809.93 206.762C811.136 206.762 812.283 206.718 813.371 206.63C814.46 206.512 815.46 206.35 816.372 206.145ZM830.755 217.881V218.763C829.843 218.939 828.931 219.322 828.019 219.91C827.108 220.498 826.181 221.248 825.24 222.16L821.843 225.69L822.284 224.852L829.828 237.47C830.152 238 830.49 238.47 830.843 238.882C831.196 239.294 831.623 239.588 832.123 239.764V240.691C831.681 240.662 831.02 240.632 830.137 240.603C829.255 240.544 828.372 240.514 827.49 240.514C826.402 240.514 825.313 240.544 824.225 240.603C823.137 240.632 822.328 240.662 821.798 240.691V239.764C822.387 239.764 822.784 239.632 822.99 239.367C823.196 239.073 823.166 238.705 822.901 238.264L818.533 230.367C818.181 229.808 817.828 229.455 817.475 229.308C817.151 229.131 816.71 229.028 816.151 228.999V228.161C816.769 228.102 817.298 227.999 817.739 227.852C818.21 227.705 818.636 227.425 819.019 227.014L822.372 223.749C823.372 222.807 823.872 221.969 823.872 221.234C823.872 220.498 823.549 219.91 822.901 219.469C822.284 219.028 821.46 218.792 820.431 218.763V217.881C821.254 217.91 822.151 217.939 823.122 217.969C824.093 217.998 824.916 218.013 825.593 218.013C826.181 218.013 826.799 218.013 827.446 218.013C828.122 217.984 828.755 217.969 829.343 217.969C829.931 217.939 830.402 217.91 830.755 217.881Z" fill="black"/>
<path d="M796.999 217.263C798.146 217.263 799.19 217.395 800.131 217.66C801.102 217.895 801.896 218.204 802.514 218.586C803.278 219.057 803.867 219.645 804.279 220.351C804.72 221.028 804.94 221.822 804.94 222.734C804.94 223.763 804.617 224.616 803.97 225.293C803.323 225.94 802.484 226.263 801.455 226.263C800.425 226.263 799.602 225.969 798.984 225.381C798.366 224.793 798.058 223.998 798.058 222.998C798.058 222.057 798.352 221.278 798.94 220.66C799.528 220.013 800.205 219.586 800.97 219.38C800.734 219.086 800.381 218.836 799.911 218.63C799.44 218.425 798.911 218.322 798.322 218.322C797.41 218.322 796.602 218.586 795.896 219.116C795.219 219.645 794.646 220.381 794.175 221.322C793.704 222.263 793.337 223.366 793.072 224.631C792.837 225.896 792.719 227.278 792.719 228.778C792.719 231.043 792.998 232.823 793.557 234.117C794.146 235.411 794.881 236.323 795.763 236.852C796.675 237.382 797.616 237.646 798.587 237.646C799.146 237.646 799.749 237.558 800.396 237.382C801.072 237.205 801.749 236.852 802.425 236.323C803.131 235.793 803.779 235.043 804.367 234.073L805.117 234.337C804.793 235.426 804.264 236.514 803.528 237.602C802.793 238.691 801.837 239.588 800.661 240.294C799.484 240.97 798.043 241.308 796.337 241.308C794.425 241.308 792.69 240.897 791.131 240.073C789.601 239.22 788.366 237.926 787.424 236.19C786.513 234.426 786.057 232.161 786.057 229.396C786.057 226.749 786.527 224.528 787.469 222.734C788.439 220.91 789.748 219.542 791.395 218.63C793.043 217.719 794.91 217.263 796.999 217.263Z" fill="black"/>
<path d="M768.779 241C767.455 241 766.352 240.75 765.47 240.25C764.587 239.749 763.94 239.088 763.529 238.264C763.117 237.411 762.911 236.485 762.911 235.484C762.911 234.22 763.19 233.19 763.749 232.396C764.337 231.602 765.087 230.955 765.999 230.455C766.911 229.955 767.867 229.543 768.867 229.219C769.897 228.896 770.867 228.587 771.779 228.293C772.72 227.969 773.47 227.602 774.029 227.19C774.617 226.749 774.912 226.19 774.912 225.513V222.072C774.912 221.307 774.779 220.631 774.515 220.042C774.279 219.425 773.897 218.954 773.367 218.63C772.867 218.307 772.206 218.145 771.382 218.145C770.794 218.145 770.205 218.233 769.617 218.41C769.029 218.557 768.544 218.822 768.161 219.204C768.985 219.498 769.617 219.954 770.058 220.572C770.529 221.16 770.764 221.837 770.764 222.601C770.764 223.601 770.411 224.396 769.705 224.984C769.029 225.572 768.22 225.866 767.279 225.866C766.22 225.866 765.411 225.543 764.852 224.896C764.323 224.219 764.058 223.41 764.058 222.469C764.058 221.616 764.264 220.91 764.676 220.351C765.117 219.792 765.72 219.263 766.485 218.763C767.308 218.292 768.294 217.925 769.441 217.66C770.617 217.395 771.882 217.263 773.235 217.263C774.588 217.263 775.809 217.41 776.897 217.704C777.985 217.969 778.897 218.469 779.633 219.204C780.309 219.881 780.75 220.719 780.956 221.719C781.162 222.69 781.265 223.925 781.265 225.425V237.426C781.265 238.161 781.339 238.676 781.486 238.97C781.633 239.235 781.883 239.367 782.236 239.367C782.5 239.367 782.75 239.294 782.986 239.146C783.25 238.999 783.53 238.823 783.824 238.617L784.265 239.367C783.647 239.897 782.927 240.308 782.103 240.602C781.309 240.867 780.412 241 779.412 241C778.324 241 777.456 240.852 776.809 240.558C776.162 240.235 775.691 239.808 775.397 239.279C775.132 238.749 775 238.132 775 237.426C774.294 238.544 773.441 239.426 772.441 240.073C771.441 240.691 770.22 241 768.779 241ZM771.911 238.176C772.5 238.176 773.029 238.043 773.5 237.779C774 237.485 774.47 237.014 774.912 236.367V227.322C774.647 227.763 774.279 228.16 773.809 228.513C773.338 228.866 772.838 229.234 772.309 229.616C771.779 229.969 771.264 230.367 770.764 230.808C770.294 231.249 769.911 231.793 769.617 232.44C769.323 233.087 769.176 233.867 769.176 234.779C769.176 235.926 769.426 236.779 769.926 237.338C770.426 237.896 771.088 238.176 771.911 238.176Z" fill="black"/>
<path d="M757.989 206.145V236.588C757.989 237.823 758.195 238.661 758.607 239.103C759.048 239.544 759.783 239.764 760.813 239.764V240.691C760.254 240.662 759.415 240.632 758.298 240.603C757.18 240.544 756.048 240.514 754.9 240.514C753.753 240.514 752.591 240.544 751.415 240.603C750.268 240.632 749.4 240.662 748.812 240.691V239.764C749.841 239.764 750.562 239.544 750.974 239.103C751.415 238.661 751.636 237.823 751.636 236.588V211.439C751.636 210.115 751.43 209.145 751.018 208.527C750.635 207.88 749.9 207.556 748.812 207.556V206.63C749.753 206.718 750.665 206.762 751.547 206.762C752.753 206.762 753.9 206.718 754.989 206.63C756.077 206.512 757.077 206.35 757.989 206.145Z" fill="black"/>
<path d="M738.702 217.262C740.996 217.262 742.893 218.203 744.393 220.085C745.923 221.939 746.688 224.806 746.688 228.689C746.688 231.748 746.217 234.204 745.276 236.057C744.364 237.91 743.143 239.248 741.614 240.072C740.084 240.896 738.408 241.307 736.584 241.307C735.378 241.307 734.26 241.102 733.231 240.69C732.201 240.278 731.319 239.601 730.584 238.66L731.201 238.44C731.731 239.087 732.348 239.572 733.054 239.896C733.79 240.219 734.51 240.381 735.216 240.381C736.834 240.381 738.04 239.469 738.834 237.645C739.628 235.822 740.025 233.042 740.025 229.307C740.025 226.777 739.864 224.777 739.54 223.306C739.246 221.806 738.805 220.747 738.216 220.13C737.628 219.482 736.922 219.159 736.099 219.159C735.069 219.159 734.128 219.585 733.275 220.438C732.422 221.262 731.937 222.424 731.819 223.924L731.598 222.38C732.128 220.703 733.025 219.438 734.29 218.585C735.554 217.703 737.025 217.262 738.702 217.262ZM731.951 206.188V239.807C731.216 239.69 730.466 239.69 729.701 239.807C728.936 239.925 728.23 240.131 727.583 240.425C726.936 240.69 726.392 241.013 725.951 241.396L725.289 240.999C725.407 240.587 725.48 240.175 725.51 239.763C725.568 239.351 725.598 238.94 725.598 238.528V211.482C725.598 210.158 725.392 209.188 724.98 208.57C724.598 207.923 723.862 207.599 722.774 207.599V206.673C723.715 206.761 724.627 206.805 725.51 206.805C726.716 206.805 727.863 206.761 728.951 206.673C730.039 206.555 731.039 206.393 731.951 206.188Z" fill="black"/>
<path fill-rule="evenodd" clip-rule="evenodd" d="M868.87 131.925L887.938 159.661H848.188L868.87 131.925Z" fill="black"/>
<path fill-rule="evenodd" clip-rule="evenodd" d="M975.091 83.9111L994.39 111.301H954.64L975.091 83.9111Z" fill="black"/>
<path fill-rule="evenodd" clip-rule="evenodd" d="M962.471 196.141H775.29L885.646 28.1152L996.003 196.141H976.154L885.646 58.2107L805.895 179.538H952.004L962.471 196.141Z" fill="black"/>
<path fill-rule="evenodd" clip-rule="evenodd" d="M910.502 115.234L962.852 196.11L942.906 196.227L890.1 115.234H910.502Z" fill="black"/>
<g clip-path="url(#clip1_2_6563)">
<path d="M740.533 290.8C756 290.8 769 301.066 769 320.133C769 321.4 769 322.466 768.867 324.4H722.4C723 334.066 730.8 340.466 740.6 340.466C748.867 340.466 754.4 336.666 757.467 331.466L767.4 338.533C762.067 346.933 752.867 352.266 740.467 352.266C722.533 352.266 709.6 339.533 709.6 321.533C709.667 304.133 722.6 290.8 740.533 290.8ZM723.067 314.866H755.933C754.533 306.333 747.667 301.733 740.067 301.733C732.467 301.733 724.8 306.133 723.067 314.866Z" fill="#091C22"/>
<path d="M782.2 291.933H795.2V299.866C798.533 295.133 805.733 290.8 814.2 290.8C830.4 290.8 842.667 304.6 842.667 321.533C842.667 338.4 830.4 352.266 814.2 352.266C805.667 352.266 798.467 347.866 795.2 343.133V375.733H782.2V291.933ZM811.867 302.6C801.333 302.6 794.133 310.866 794.133 321.533C794.133 332.2 801.333 340.466 811.867 340.466C822.267 340.466 829.467 332.2 829.467 321.533C829.467 310.866 822.267 302.6 811.867 302.6Z" fill="#091C22"/>
<path d="M868.933 262.4H855.933V351H868.933V262.4Z" fill="#091C22"/>
<path d="M892.933 279.067C888.2 279.067 884.2 275.2 884.2 270.333C884.2 265.6 888.2 261.733 892.933 261.733C897.8 261.733 901.533 265.667 901.533 270.333C901.533 275.2 897.8 279.067 892.933 279.067ZM886.467 291.933H899.467V351H886.467V291.933Z" fill="#091C22"/>
<path d="M943.867 352.2C926.133 352.2 912.667 338.933 912.667 321.467C912.667 304 926.133 290.733 943.867 290.733C956.067 290.733 966.333 297.267 971.4 307.067L960.067 313.2C957.2 307.2 951.467 302.8 943.867 302.8C933.333 302.8 925.933 310.933 925.933 321.467C925.933 332 933.4 340.133 943.867 340.133C951.4 340.133 957.2 335.733 960.067 329.733L971.4 335.867C966.333 345.733 956 352.2 943.867 352.2Z" fill="#091C22"/>
<path d="M1007.53 290.8C1016.07 290.8 1023.13 295.2 1026.47 299.866V291.933H1039.47V351H1026.47V343.066C1023.13 347.8 1016.07 352.2 1007.53 352.2C991.333 352.2 979.067 338.4 979.067 321.466C979.067 304.6 991.333 290.8 1007.53 290.8ZM1009.93 302.6C999.4 302.6 992.333 310.866 992.333 321.533C992.333 332.2 999.4 340.466 1009.93 340.466C1020.47 340.466 1027.53 332.2 1027.53 321.533C1027.53 310.866 1020.4 302.6 1009.93 302.6Z" fill="#091C22"/>
<path d="M1061.73 351.067V303.533H1049.4V291.933H1061.73V275.533H1074.73V291.933H1097.13V303.533H1074.73V339.4H1097.13V351.067H1061.73Z" fill="#091C22"/>
<path d="M1134.2 290.8C1149.67 290.8 1162.67 301.066 1162.67 320.133C1162.67 321.4 1162.67 322.466 1162.53 324.4H1116.07C1116.67 334.066 1124.47 340.466 1134.27 340.466C1142.53 340.466 1148.07 336.666 1151.13 331.466L1161.07 338.533C1155.73 346.933 1146.53 352.266 1134.13 352.266C1116.2 352.266 1103.27 339.533 1103.27 321.533C1103.4 304.133 1116.27 290.8 1134.2 290.8ZM1116.73 314.866H1149.6C1148.2 306.333 1141.33 301.733 1133.73 301.733C1126.2 301.733 1118.53 306.133 1116.73 314.866Z" fill="#091C22"/>
<path d="M703.533 291.934V303.6H671.667V351.067H658.667V291.934H703.533Z" fill="#091C22"/>
<path d="M703.533 270V281.6H647.133V351.067H634.133V270H703.533Z" fill="#091C22"/>
<path d="M703.533 248V259.6H622.6V351.067H609.6V248H703.533Z" fill="#091C22"/>
</g>
<g clip-path="url(#clip2_2_6563)">
<path d="M365.132 616.074C357.594 616.074 352.214 618.648 349.574 623.524L348.155 626.164V617.345H335.889V670.954H348.79V639.06C348.79 631.44 352.932 627.068 360.147 627.068C367.027 627.068 370.971 631.325 370.971 638.742V670.954H383.878V636.441C383.878 623.677 376.871 616.074 365.132 616.074ZM302.566 616.074C287.342 616.074 277.914 625.573 277.914 640.862V648.389C277.914 663.092 287.452 672.224 302.807 672.224C313.079 672.224 320.277 668.461 324.807 660.72L316.809 656.119C313.462 660.583 308.115 663.35 302.813 663.35C295.039 663.35 290.399 658.551 290.399 650.509V648.378H326.407V639.487C326.407 625.244 317.056 616.074 302.577 616.074H302.566ZM314.667 639.712H290.355V638.424C290.355 629.599 294.688 624.729 302.555 624.729C310.131 624.729 314.656 629.528 314.656 637.57L314.667 639.712ZM512 608.519V598.264H467.375V608.519H483.021V660.677H467.375V670.932H512V660.677H496.349V608.519H512ZM173.638 596.785C153.709 596.785 141.317 609.204 141.317 629.205V640.019C141.317 660.014 153.703 672.438 173.638 672.438C193.573 672.438 205.959 660.014 205.959 640.019V629.205C205.954 609.182 193.551 596.785 173.638 596.785ZM192.626 640.758C192.626 654.037 185.707 661.652 173.638 661.652C161.57 661.652 154.657 654.037 154.657 640.758V628.46C154.657 615.181 161.581 607.566 173.644 607.566C185.707 607.566 192.631 615.181 192.631 628.46L192.626 640.758ZM246.481 616.074C239.71 616.074 233.848 618.878 230.792 623.573L229.406 625.71V617.345H217.135V689.398H230.041V663.301L231.422 665.349C234.325 669.655 239.995 672.224 246.591 672.224C257.717 672.224 268.941 664.955 268.941 648.707V639.591C268.941 627.884 262.022 616.074 246.481 616.074ZM256.035 648.077C256.035 656.716 250.995 662.084 242.887 662.084C235.328 662.084 230.052 656.409 230.052 648.291V640.227C230.052 632.01 235.371 626.225 242.997 626.225C251.044 626.225 256.046 631.588 256.046 640.227L256.035 648.077ZM419.54 598.27L393.503 670.954H406.612L411.597 655.374H441.53L441.579 655.527L446.509 670.954H459.613L433.532 598.264L419.54 598.27ZM414.796 645.124L426.542 608.377L438.166 645.124H414.796Z" fill="#091C22"/>
<path d="M116.085 618.561C118.943 609.983 117.96 600.588 113.39 592.787C106.509 580.829 92.6973 574.678 79.2061 577.563C73.2061 570.796 64.5786 566.947 55.5351 567.001C41.7356 566.97 29.4969 575.858 25.2575 588.99C16.3995 590.807 8.75503 596.356 4.28176 604.214C-2.63539 616.152 -1.05721 631.19 8.18766 641.432C5.34112 650.003 6.32316 659.384 10.8829 667.18C17.7576 679.161 31.5861 685.328 45.0938 682.436C51.0884 689.195 59.7037 693.043 68.7374 692.998C82.5369 693.029 94.7756 684.141 99.015 671.009C107.871 669.191 115.514 663.643 119.985 655.785C126.921 643.85 125.344 628.8 116.085 618.561ZM68.7374 684.781C63.2141 684.786 57.8654 682.846 53.6287 679.303C53.815 679.199 54.1765 679.018 54.3847 678.881L79.4745 664.397C80.7562 663.669 81.5441 662.305 81.5343 660.83V625.453L92.1345 631.572C92.251 631.627 92.33 631.739 92.3426 631.868V661.148C92.3426 674.189 81.7786 684.766 68.7374 684.781ZM18.0154 663.12C15.2496 658.34 14.251 652.741 15.1942 647.299C15.3804 647.415 15.7091 647.612 15.9392 647.743L41.0345 662.233C42.3066 662.978 43.8819 662.978 45.1541 662.233L75.7713 644.528V656.766C75.7829 656.894 75.7268 657.018 75.6234 657.094L50.2597 671.732C38.9679 678.234 24.5441 674.369 18.0154 663.093V663.12ZM11.4417 608.339C14.1945 603.552 18.5445 599.887 23.7291 597.985V627.808C23.7216 629.282 24.5089 630.645 25.7889 631.375L56.4116 649.058L45.7731 655.199C45.6678 655.27 45.5335 655.282 45.417 655.232L20.0588 640.589C8.77671 634.062 4.91116 619.632 11.4198 608.339H11.4417ZM98.5439 628.608L67.9212 610.925L78.5104 604.8C78.616 604.73 78.7497 604.718 78.8664 604.767L104.225 619.41C112.154 623.992 116.718 632.745 115.937 641.869C115.156 650.993 109.169 658.842 100.576 662.008V632.191C100.593 630.714 99.8092 629.343 98.5274 628.608H98.5439ZM109.1 612.722C108.914 612.607 108.585 612.409 108.355 612.278L83.2599 597.788C81.9878 597.043 80.4125 597.043 79.1404 597.788L48.5174 615.466V603.233C48.5133 603.106 48.5703 602.984 48.671 602.905L74.0293 588.267C81.9612 583.695 91.8213 584.12 99.33 589.359C106.839 594.597 110.642 603.704 109.089 612.727L109.1 612.722ZM42.7382 634.546L32.1326 628.427C32.0221 628.366 31.9469 628.257 31.9299 628.132V598.851C31.9229 589.689 37.2179 581.351 45.5129 577.461C53.8079 573.571 63.6045 574.832 70.6438 580.696C70.4575 580.801 70.1234 580.981 69.8878 581.118L44.798 595.602C43.518 596.332 42.7307 597.695 42.7382 599.169V634.546ZM48.4957 622.128L62.1362 614.25L75.7713 622.128V637.872L62.1308 645.749L48.4902 637.872L48.4957 622.128Z" fill="#091C22"/>
</g>
<g clip-path="url(#clip3_2_6563)">
<path d="M677.286 573.08C669.286 569.304 659.771 567 650.726 567C623.44 567 607.12 589.592 608.87 611.651C609.659 621.635 614.566 631.299 622.672 638.851C625.574 641.581 628.816 643.907 632.315 645.784C629.67 642.627 627.92 638.808 627.238 634.733C625.424 623.64 632.742 607.32 651.451 607.32C671.568 607.32 693.734 626.456 695.59 649.965C696.742 664.365 691.28 677.315 682.064 686.36C701.179 675.288 714 654.659 714 631C714 605.421 698.982 583.341 677.286 573.08Z" fill="#091C22"/>
<path d="M691.13 650.349C690.34 640.365 685.434 630.701 677.327 623.149C674.426 620.418 671.183 618.093 667.684 616.216C670.33 619.373 672.079 623.192 672.762 627.266C674.575 638.36 667.258 654.68 648.548 654.68C628.431 654.68 606.266 635.544 604.41 612.034C603.258 597.656 608.719 584.685 617.935 575.64C598.863 586.712 586.042 607.362 586.042 631.021C586.042 656.6 601.06 678.68 622.756 688.941C630.756 692.717 640.271 695.021 649.316 695.021C676.559 695 692.879 672.408 691.13 650.349Z" fill="#091C22"/>
<path d="M766.437 599H746.042V663H766.437C788.922 663 799.269 650.755 799.269 631.085C799.269 611.352 788.922 599 766.437 599ZM766.159 655.32H755.087V606.595H766.138C783.866 606.595 790.01 615.917 790.01 631.107C790.031 646.168 783.909 655.32 766.159 655.32Z" fill="#091C22"/>
<path d="M826.276 616.557C812.751 616.557 803.514 626.157 803.514 640.514C803.514 654.679 812.836 664.109 826.191 664.109C836.9 664.109 844.303 657.709 846.756 649.197H837.711C835.876 653.677 831.866 656.599 826.191 656.599C819.151 656.599 812.943 651.671 812.388 642.434H847.951C848.036 640.791 848.036 639.426 848.036 638.146C848.036 626.434 839.61 616.557 826.276 616.557ZM812.559 636.034C813.562 628.162 819.407 624.066 826.17 624.066C833.295 624.066 838.692 628.631 839.055 636.034H812.559Z" fill="#091C22"/>
<path d="M875.556 616.557C862.031 616.557 852.794 626.157 852.794 640.514C852.794 654.679 862.116 664.109 875.471 664.109C886.159 664.109 893.562 657.709 896.036 649.197H886.991C885.156 653.677 881.146 656.599 875.471 656.599C868.431 656.599 862.223 651.671 861.668 642.434H897.231C897.316 640.791 897.316 639.426 897.316 638.146C897.316 626.434 888.89 616.557 875.556 616.557ZM861.839 636.034C862.842 628.162 868.687 624.066 875.471 624.066C882.596 624.066 887.994 628.631 888.356 636.034H861.839Z" fill="#091C22"/>
<path d="M927.846 616.557C919.718 616.557 914.598 620.482 911.76 624.877L910.843 617.645H902.694V683.095H911.76V655.874C914.875 661.079 920.528 664.109 927.76 664.109C941.115 664.109 950.246 654.146 950.246 640.429C950.246 626.711 941.094 616.557 927.846 616.557ZM926.374 656.237C917.862 656.237 911.739 649.837 911.739 640.322C911.739 630.914 917.862 624.407 926.374 624.407C934.971 624.407 941.008 630.893 941.008 640.322C941.008 649.837 934.971 656.237 926.374 656.237Z" fill="#091C22"/>
<path d="M988.154 642.243L966.031 599H955.429V663H964.474V614.808L984.677 653.848H991.631L1011.75 614.808V663H1020.79V599H1010.19L988.154 642.243Z" fill="#091C22"/>
<path d="M1036.88 617.646H1027.84V663H1036.88V617.646Z" fill="#091C22"/>
<path d="M1032.31 597.166C1028.92 597.166 1026.36 599.534 1026.36 602.841C1026.36 606.147 1028.92 608.601 1032.31 608.601C1035.79 608.601 1038.35 606.126 1038.35 602.841C1038.35 599.555 1035.79 597.166 1032.31 597.166Z" fill="#091C22"/>
<path d="M1068.24 616.557C1061.2 616.557 1055.52 620.034 1052.6 625.602L1051.96 617.645H1043.92V662.999H1052.99V639.597C1052.99 629.719 1058.38 624.322 1065.79 624.322C1073.1 624.322 1076.86 628.802 1076.86 637.762V662.999H1085.82V636.845C1085.8 623.234 1079.12 616.557 1068.24 616.557Z" fill="#091C22"/>
<path d="M1129.27 596.975V624.58C1126.16 619.375 1120.51 616.345 1113.19 616.345C1099.83 616.345 1090.79 626.308 1090.79 640.025C1090.79 653.743 1099.83 663.897 1113.1 663.897C1121.23 663.897 1126.35 659.972 1129.3 655.577L1130.21 662.809H1138.34V596.975H1129.27ZM1114.55 656.025C1106.04 656.025 1099.92 649.54 1099.92 640.111C1099.92 630.596 1106.04 624.196 1114.55 624.196C1123.15 624.196 1129.19 630.596 1129.19 640.111C1129.17 649.54 1123.15 656.025 1114.55 656.025Z" fill="#091C22"/>
</g>
<g clip-path="url(#clip4_2_6563)">
<path d="M380.461 775.852H407.402V840.625H424.597V775.852H451.538V760.376H380.461V775.852Z" fill="#091C22"/>
<path d="M350.081 816.55L313.969 760.376H294.479V840.625H311.103V784.451L347.215 840.625H366.703V760.376H350.081V816.55Z" fill="#091C22"/>
<path d="M520.323 792.361H482.492V760.376H465.296V840.625H482.492V807.837H520.323V840.625H537.519V760.376H520.323V792.361Z" fill="#091C22"/>
<path d="M231.542 760.376L199.557 840.625H217.441L223.983 823.772H257.445L263.986 840.625H281.87L249.885 760.376H231.542ZM229.768 808.869L240.713 780.667L251.66 808.869H229.768Z" fill="#091C22"/>
<path d="M680.018 759C656.86 759 640.467 776.196 640.467 800.615C640.467 824.804 656.86 842 680.018 842C703.06 842 719.34 824.804 719.34 800.615C719.34 776.196 703.06 759 680.018 759ZM680.018 825.95C666.49 825.95 658.236 816.32 658.236 800.615C658.236 784.68 666.49 775.05 680.018 775.05C693.431 775.05 701.57 784.68 701.57 800.615C701.57 816.321 693.431 825.95 680.018 825.95Z" fill="#091C22"/>
<path d="M920.42 813.684C917.439 821.479 911.478 825.95 903.338 825.95C889.81 825.95 881.557 816.32 881.557 800.615C881.557 784.68 889.81 775.05 903.338 775.05C911.478 775.05 917.439 779.521 920.42 787.316H938.648C934.18 770.12 920.764 759 903.338 759C880.181 759 863.787 776.196 863.787 800.615C863.787 824.804 880.181 842 903.338 842C920.878 842 934.288 830.765 938.763 813.684H920.42Z" fill="#091C22"/>
<path d="M810.823 760.376L842.807 840.625H860.347L828.362 760.376H810.823Z" fill="#091C22"/>
<path d="M774.596 760.376H735.389V840.625H752.585V811.506H774.596C792.824 811.506 803.944 801.876 803.944 785.941C803.944 770.006 792.824 760.376 774.596 760.376ZM773.793 796.029H752.585V775.852H773.793C782.277 775.852 786.748 779.292 786.748 785.941C786.748 792.59 782.277 796.029 773.793 796.029Z" fill="#091C22"/>
<path d="M627.282 784.794C627.282 769.662 616.162 760.376 597.934 760.376H558.727V840.625H575.923V809.213H595.067L612.264 840.625H631.295L612.253 806.82C621.811 803.146 627.282 795.409 627.282 784.794ZM575.923 775.852H597.131C605.615 775.852 610.086 778.947 610.086 784.794C610.086 790.641 605.615 793.737 597.131 793.737H575.923V775.852Z" fill="#091C22"/>
</g>
<defs>
<clipPath id="clip0_2_6563">
<rect width="298.634" height="91" fill="white" transform="translate(136.526 173)"/>
</clipPath>
<clipPath id="clip1_2_6563">
<rect width="554" height="128" fill="white" transform="translate(609 248)"/>
</clipPath>
<clipPath id="clip2_2_6563">
<rect width="512" height="126" fill="white" transform="translate(0 567)"/>
</clipPath>
<clipPath id="clip3_2_6563">
<rect width="552.32" height="128" fill="white" transform="translate(586 567)"/>
</clipPath>
<clipPath id="clip4_2_6563">
<rect width="739.205" height="83" fill="white" transform="translate(199.557 759)"/>
</clipPath>
</defs>
</svg>
