<?xml version="1.0" encoding="UTF-8" standalone="no"?>
<!DOCTYPE svg PUBLIC "-//W3C//DTD SVG 1.1//EN" "http://www.w3.org/Graphics/SVG/1.1/DTD/svg11.dtd">
<svg width="100%" height="100%" viewBox="0 0 59 52" version="1.1" xmlns="http://www.w3.org/2000/svg" xmlns:xlink="http://www.w3.org/1999/xlink" xml:space="preserve" xmlns:serif="http://www.serif.com/" style="fill-rule:evenodd;clip-rule:evenodd;stroke-linejoin:round;stroke-miterlimit:2;">
    <g transform="matrix(1,0,0,1,-522.059,-271.774)">
        <g id="appIcon__AppSheet">
            <g transform="matrix(1,0,0,1,513,223.642)">
                <path d="M64.402,48.132L48.135,48.132L41.561,57.451L37.651,66.686L48.135,67.851L59.035,66.728L67.106,52.749C68.271,50.711 66.773,48.132 64.402,48.132Z" style="fill:rgb(0,96,217);fill-rule:nonzero;"/>
            </g>
            <g transform="matrix(1,0,0,1,513,222.519)">
                <path d="M9.486,53.914L16.267,65.522C17.099,66.936 18.597,67.81 20.261,67.81L37.651,67.851L48.135,49.255L12.148,49.255C9.777,49.255 8.279,51.876 9.486,53.914Z" style="fill:rgb(66,133,244);fill-rule:nonzero;"/>
            </g>
            <g transform="matrix(1,0,0,1,513,274.439)">
                <path d="M41.104,47.216C39.939,49.255 36.985,49.296 35.779,47.258L29.039,35.942C28.207,34.527 28.165,32.738 28.997,31.282L37.692,15.889L59.035,15.931L41.104,47.216Z" style="fill:rgb(66,133,244);fill-rule:nonzero;"/>
            </g>
        </g>
    </g>
</svg>
