<?xml version="1.0" encoding="UTF-8" standalone="no"?>
<!DOCTYPE svg PUBLIC "-//W3C//DTD SVG 1.1//EN" "http://www.w3.org/Graphics/SVG/1.1/DTD/svg11.dtd">
<svg width="100%" height="100%" viewBox="0 0 78 51" version="1.1" xmlns="http://www.w3.org/2000/svg" xmlns:xlink="http://www.w3.org/1999/xlink" xml:space="preserve" xmlns:serif="http://www.serif.com/" style="fill-rule:evenodd;clip-rule:evenodd;stroke-linejoin:round;stroke-miterlimit:2;">
    <g transform="matrix(1,0,0,1,0,-62.4793)">
        <g transform="matrix(1,0,0,1,-25,23.0793)">
            <g id="Darkest" transform="matrix(1,0,0,1,0,0.7)">
                <path d="M103,38.8L84,89.2L75.4,89.2L56.4,38.7L64.4,38.7L76.6,70.8L79.4,81.7L79.9,81.7L82.7,70.8L94.9,38.7L103,38.8ZM44,68.4L28,68.4L28,89.2L44.4,89.2L44.4,85L32.9,85L32.9,80.5L43.2,80.5L43.2,76.3L32.9,76.3L32.9,72.8L44,72.8L44,68.4ZM36.1,55.7L34.9,51.2L30.5,38.7L25,38.7L32.5,59.5L39.8,59.5L47.3,38.7L41.8,38.7L37.4,51.2L36.2,55.7L36.1,55.7Z" style="fill:white;fill-rule:nonzero;"/>
            </g>
        </g>
    </g>
</svg>
