<svg width="158" height="25" viewBox="0 0 158 25" fill="none" xmlns="http://www.w3.org/2000/svg">
<path fill-rule="evenodd" clip-rule="evenodd" d="M-6.10352e-05 9.83463L14.8963 9.83494C18.6127 9.83494 21.6978 12.2725 22.2927 15.8199L7.39629 15.8194C3.67994 15.8194 0.594908 13.3819 -6.10352e-05 9.83463Z" fill="#FF5757"/>
<path fill-rule="evenodd" clip-rule="evenodd" d="M-6.10352e-05 24.8196L14.8963 24.8193C18.6127 24.8193 21.6978 22.3885 22.2927 18.8411L7.39629 18.8416C3.67994 18.8416 0.594908 21.2723 -6.10352e-05 24.8196Z" fill="#3A86FF"/>
<path fill-rule="evenodd" clip-rule="evenodd" d="M-6.10352e-05 6.81603L14.8963 6.81572C18.6127 6.81572 21.6978 4.36635 22.2927 0.818939L7.39629 0.819495C3.67994 0.819495 0.594908 3.26874 -6.10352e-05 6.81603Z" fill="#FFB938"/>
<path fill-rule="evenodd" clip-rule="evenodd" d="M151.982 11.397C151.251 11.397 150.638 11.6034 150.142 12.0164C149.646 12.4295 149.342 12.994 149.232 13.7099H154.711C154.601 13.0078 154.297 12.4466 153.801 12.0269C153.305 11.6069 152.699 11.397 151.982 11.397ZM151.961 8.96014C153.05 8.96014 154.036 9.19424 154.918 9.66222C155.8 10.1304 156.492 10.8015 156.995 11.6756C157.499 12.5499 157.75 13.5653 157.75 14.7217C157.75 14.763 157.729 15.0521 157.688 15.589H149.274L149.292 15.6678C149.453 16.3189 149.805 16.8366 150.349 17.2205C150.914 17.6198 151.617 17.8194 152.457 17.8194C153.036 17.8194 153.55 17.7332 153.998 17.5612C154.446 17.3892 154.863 17.1171 155.248 16.7455L156.965 18.604L156.905 18.6712C155.859 19.8242 154.349 20.4006 152.375 20.4006C151.12 20.4006 150.011 20.1562 149.046 19.6676C148.081 19.1788 147.337 18.5009 146.813 17.6336C146.29 16.7661 146.028 15.7819 146.028 14.6805C146.028 13.5927 146.286 12.6118 146.803 11.7377C147.32 10.8634 148.03 10.182 148.932 9.69315C149.835 9.20455 150.845 8.96014 151.961 8.96014ZM141.51 6.75389V9.45927H144.26C144.26 11.1113 143.343 11.9374 141.51 11.9374V16.4598C141.51 16.928 141.628 17.2893 141.862 17.5441C142.096 17.7988 142.434 17.926 142.875 17.926C143.371 17.926 143.812 17.7883 144.198 17.5129L145.046 19.7846C144.729 20.0186 144.339 20.1942 143.878 20.3111C143.416 20.4283 142.937 20.4868 142.441 20.4868C141.104 20.4868 140.077 20.1494 139.36 19.4748C138.644 18.8003 138.285 17.8091 138.285 16.5011V6.75389H141.51ZM132.124 20.3216H135.349V9.21135H132.124V20.3216ZM133.737 7.66262C134.329 7.66262 134.812 7.4871 135.184 7.13607C135.556 6.78482 135.742 6.34097 135.742 5.8041C135.742 5.30849 135.556 4.89537 135.184 4.56495C134.812 4.23454 134.329 4.06934 133.737 4.06934C133.144 4.06934 132.662 4.24135 132.29 4.58558C131.917 4.92981 131.732 5.35654 131.732 5.86598C131.732 6.37542 131.917 6.80215 132.29 7.14638C132.662 7.4904 133.144 7.66262 133.737 7.66262ZM122.614 20.4868C123.303 20.4868 123.944 20.3594 124.537 20.1047C125.129 19.8499 125.639 19.4818 126.067 18.9998V20.3216H129.127V9.21135H125.901V14.7044C125.901 15.6956 125.667 16.4427 125.198 16.9451C124.73 17.4475 124.109 17.699 123.338 17.699C121.835 17.699 121.084 16.804 121.084 15.0142V9.21135H117.859V15.4892C117.859 17.1413 118.286 18.3872 119.141 19.2271C119.995 20.0669 121.153 20.4868 122.614 20.4868ZM109.713 20.5693C111.036 20.5693 112.16 20.3697 113.083 19.9704C114.007 19.5713 114.699 19.0309 115.161 18.3495C115.623 17.6678 115.854 16.9142 115.854 16.0881C115.854 15.1243 115.602 14.3604 115.099 13.7959C114.596 13.2314 113.993 12.8185 113.29 12.5567C112.587 12.2952 111.684 12.0337 110.582 11.7722C109.52 11.5381 108.731 11.3005 108.214 11.0596C107.698 10.8187 107.439 10.4505 107.439 9.95489C107.439 9.45927 107.663 9.05997 108.111 8.75699C108.559 8.45421 109.252 8.30282 110.189 8.30282C111.526 8.30282 112.863 8.68129 114.2 9.43864L115.233 6.89847C114.572 6.48555 113.8 6.16875 112.918 5.94848C112.036 5.7282 111.133 5.61807 110.209 5.61807C108.886 5.61807 107.766 5.81772 106.85 6.21702C105.933 6.61632 105.248 7.15669 104.793 7.83814C104.338 8.51959 104.111 9.28024 104.111 10.1201C104.111 11.0837 104.362 11.8547 104.865 12.433C105.368 13.0111 105.971 13.431 106.674 13.6925C107.377 13.9543 108.28 14.2158 109.382 14.4773C110.099 14.6425 110.668 14.7939 111.088 14.9317C111.509 15.0693 111.853 15.2518 112.122 15.4789C112.391 15.7062 112.525 15.9918 112.525 16.3358C112.525 16.804 112.298 17.1792 111.843 17.4614C111.388 17.7437 110.685 17.8848 109.734 17.8848C108.879 17.8848 108.025 17.747 107.17 17.4717C106.316 17.1963 105.578 16.8315 104.958 16.3773L103.821 18.8966C104.469 19.3923 105.327 19.7949 106.395 20.1047C107.463 20.4144 108.569 20.5693 109.713 20.5693ZM100.307 20.4868C100.803 20.4868 101.282 20.4283 101.743 20.3111C102.205 20.1942 102.594 20.0186 102.912 19.7846L102.064 17.5129C101.678 17.7883 101.237 17.926 100.741 17.926C100.3 17.926 99.962 17.7988 99.7276 17.5441C99.4934 17.2893 99.3762 16.928 99.3762 16.4598V11.9374C101.209 11.9374 102.126 11.1113 102.126 9.45927H99.3762V6.75389H96.151V16.5011C96.151 17.8091 96.5094 18.8003 97.226 19.4748C97.9428 20.1494 98.9696 20.4868 100.307 20.4868ZM90.5275 20.3216V15.0763C90.5275 14.0436 90.7896 13.2693 91.3133 12.7531C91.8369 12.2366 92.5606 11.9786 93.4841 11.9786C93.6081 11.9786 93.8493 11.9924 94.2077 12.0199V9.04615C93.3531 9.04615 92.5985 9.18392 91.9438 9.45927C91.2891 9.73461 90.7687 10.1407 90.3829 10.6776V9.21135H87.3025V20.3216H90.5275ZM78.3298 17.8433C77.5028 17.8433 76.8207 17.5647 76.2832 17.007C75.7454 16.4495 75.4768 15.7027 75.4768 14.7665C75.4768 13.8303 75.7454 13.0835 76.2832 12.5258C76.8207 11.9683 77.5028 11.6894 78.3298 11.6894C79.143 11.6894 79.8183 11.9683 80.3558 12.5258C80.8935 13.0835 81.1622 13.8303 81.1622 14.7665C81.1622 15.7027 80.8935 16.4495 80.3558 17.007C79.8183 17.5647 79.143 17.8433 78.3298 17.8433ZM77.7717 20.4868C79.2878 20.4868 80.4456 20.0048 81.2449 19.0412V20.3216H84.3253V9.21135H81.1001V10.3884C80.3007 9.49371 79.1913 9.04615 77.7717 9.04615C76.7241 9.04615 75.7766 9.28024 74.929 9.74822C74.0811 10.2164 73.4161 10.884 72.9339 11.7515C72.4515 12.6188 72.2103 13.6239 72.2103 14.7665C72.2103 15.9091 72.4515 16.9142 72.9339 17.7815C73.4161 18.6487 74.0811 19.3166 74.929 19.7846C75.7766 20.2527 76.7241 20.4868 77.7717 20.4868ZM54.575 20.3216V14.7459C54.575 13.7821 54.7956 13.0559 55.2367 12.5672C55.6777 12.0784 56.2705 11.834 57.0147 11.834C58.4205 11.834 59.1235 12.7083 59.1235 14.4567V20.3216H62.3487V14.7459C62.3487 13.7821 62.5691 13.0559 63.0102 12.5672C63.4511 12.0784 64.0508 11.834 64.8088 11.834C65.4842 11.834 66.0046 12.0508 66.3698 12.4845C66.735 12.9183 66.9176 13.5756 66.9176 14.4567V20.3216H70.1428V13.9611C70.1428 12.3228 69.7328 11.094 68.9126 10.275C68.0927 9.45576 66.9865 9.04615 65.5946 9.04615C64.7676 9.04615 64.006 9.20455 63.31 9.52114C62.6138 9.83774 62.0386 10.2853 61.5836 10.8634C61.1978 10.2715 60.6877 9.82062 60.0538 9.51083C59.4198 9.20104 58.71 9.04615 57.9242 9.04615C55.819 9.04615 54.4037 9.40296 53.3448 10.1203C52.2857 10.8376 51.35 12.2333 51.35 13.9543V20.3216H54.575ZM43.1422 20.5693C44.4654 20.5693 45.5887 20.3697 46.512 19.9704C47.4356 19.5713 48.128 19.0309 48.5898 18.3495C49.0516 17.6678 49.2825 16.9142 49.2825 16.0881C49.2825 15.1243 49.031 14.3604 48.5279 13.7959C48.0249 13.2314 47.4218 12.8185 46.7188 12.5567C46.016 12.2952 45.1131 12.0337 44.0106 11.7722C42.9492 11.5381 42.1602 11.3005 41.6433 11.0596C41.1265 10.8187 40.8681 10.4505 40.8681 9.95489C40.8681 9.45927 41.092 9.05997 41.54 8.75699C41.9879 8.45421 42.6804 8.30282 43.6178 8.30282C44.9546 8.30282 46.2917 8.68129 47.6285 9.43864L48.6622 6.89847C48.0007 6.48555 47.2288 6.16875 46.3467 5.94848C45.4647 5.7282 44.5617 5.61807 43.6384 5.61807C42.3152 5.61807 41.1954 5.81772 40.2788 6.21702C39.3623 6.61632 38.6766 7.15669 38.2217 7.83814C37.7669 8.51959 37.5395 9.28024 37.5395 10.1201C37.5395 11.0837 37.791 11.8547 38.2941 12.433C38.7971 13.0111 39.4003 13.431 40.103 13.6925C40.806 13.9543 41.7087 14.2158 42.8114 14.4773C43.5282 14.6425 44.0967 14.7939 44.517 14.9317C44.9375 15.0693 45.2821 15.2518 45.5507 15.4789C45.8196 15.7062 45.9539 15.9918 45.9539 16.3358C45.9539 16.804 45.7265 17.1792 45.2717 17.4614C44.8168 17.7437 44.114 17.8848 43.1628 17.8848C42.3083 17.8848 41.4537 17.747 40.5993 17.4717C39.7446 17.1963 39.0074 16.8315 38.3871 16.3773L37.25 18.8966C37.8979 19.3923 38.7559 19.7949 39.8241 20.1047C40.8921 20.4144 41.9982 20.5693 43.1422 20.5693Z" fill="#383C57"/>
</svg>
