<svg width="213" height="43" viewBox="0 0 213 43" fill="none" xmlns="http://www.w3.org/2000/svg">
<path fill-rule="evenodd" clip-rule="evenodd" d="M21.9456 0.201517C22.2108 0.77728 22.5895 1.73689 22.8547 3.04195C23.3471 5.42177 22.4001 8.72281 20.8851 10.4117C19.6775 11.761 17.7611 12.8281 16.0878 13.7599C15.7143 13.9679 15.3528 14.1691 15.0141 14.3653C13.84 15.0562 12.7038 15.7086 11.5676 16.3611L11.5673 16.3613C10.8098 16.8027 10.0617 17.2441 9.31362 17.6855C8.56554 18.1269 7.81747 18.5684 7.05993 19.0098C6.94184 19.0773 6.82327 19.1448 6.70439 19.2125C5.33613 19.9915 3.92682 20.7938 2.74195 21.8886C1.9844 22.6179 1.45413 23.424 1.15111 24.4603C1.07536 24.729 0.658708 24.8058 0.507199 24.5371C0.315511 24.2457 0.15077 22.2066 0.0811629 21.3451C0.0682451 21.1852 0.0586038 21.0658 0.0526748 21.0058C-0.0988335 18.5876 0.0147977 16.0926 1.22686 13.9815C1.9844 12.638 3.12072 11.6016 4.37066 10.7572C5.30812 10.1238 6.30949 9.62005 7.31086 9.11625C7.64466 8.94832 7.97845 8.78039 8.30987 8.60766C18.1958 3.54094 20.5063 1.66012 21.3017 0.201517C21.4532 -0.0671724 21.832 -0.0671724 21.9456 0.201517ZM19.7758 15.8596C20.1575 15.5161 20.4247 15.707 20.6919 16.1268C21.4934 17.501 21.7606 19.6766 21.6843 21.2798C21.5063 25.1589 18.3421 26.649 15.1925 28.1322C14.9641 28.2398 14.7357 28.3473 14.5086 28.4557L14.4792 28.4699C12.4143 29.4641 8.93359 31.1399 8.43975 33.7232C8.09624 35.4026 8.66876 36.8149 9.4703 38.0745C9.66115 38.3799 9.39397 38.7616 9.05045 38.6471C5.88246 37.6928 3.70685 35.3645 2.82897 32.6162C0.833635 26.4875 5.55723 24.051 11.0691 21.2079C11.4616 21.0054 11.8582 20.8008 12.2566 20.5927C15.959 18.646 18.4018 17.1193 19.7758 15.8596Z" fill="black"/>
<path d="M46.187 34.371V22.033H57.8059V18.3619H46.187V10.0735H59.509V6.40243H42.4023V34.371H46.187Z" fill="black"/>
<path d="M82.4655 23.8497C82.4655 20.7084 81.5572 18.2105 79.7027 16.3561C77.8861 14.5016 75.5396 13.5933 72.6633 13.5933C69.6356 13.5933 67.1755 14.5773 65.2454 16.5831C63.3531 18.589 62.4069 21.0869 62.4069 24.1524C62.4069 29.4131 65.586 34.8252 73.231 34.8252C76.5993 34.8252 79.9298 33.5384 81.9357 31.9867L80.384 29.2239C78.5295 30.5864 75.7289 31.4947 73.3067 31.4947C69.0679 31.4947 66.7971 29.1482 66.1915 25.7042H82.352C82.4277 24.7201 82.4655 24.1146 82.4655 23.8497ZM66.1915 22.5629C66.7971 19.1946 69.3328 16.8102 72.6633 16.8102C75.9938 16.8102 78.5295 19.0432 78.7187 22.5629H66.1915Z" fill="black"/>
<path d="M103.558 17.0373C101.666 14.7287 99.2818 13.5933 96.4055 13.5933C93.4913 13.5933 91.0691 14.5773 89.1389 16.5831C87.2088 18.5512 86.2626 21.049 86.2626 24.0768C86.2626 27.1423 87.2088 29.678 89.1389 31.7596C91.0691 33.8412 93.4913 34.863 96.4055 34.863C99.3575 34.863 101.742 33.7276 103.558 31.4947V34.371H107.04V14.0853H103.558V17.0373ZM103.786 24.1903C103.786 26.2718 103.142 28.0128 101.855 29.4131C100.569 30.8134 98.9034 31.5325 96.8218 31.5325C94.7402 31.5325 93.075 30.8134 91.826 29.4131C90.5771 28.0128 89.9337 26.2718 89.9337 24.2281C89.9337 22.1844 90.5771 20.4435 91.826 19.0432C93.075 17.6428 94.7402 16.9238 96.8218 16.9238C98.9034 16.9238 100.569 17.6428 101.855 19.0432C103.142 20.4435 103.786 22.1844 103.786 24.1903Z" fill="black"/>
<path d="M125.322 30.3593C124.073 31.1541 122.862 31.5325 121.688 31.5325C119.493 31.5325 118.396 30.2079 118.396 27.5208V17.1887H125.587V14.0853H118.396V6.89443H114.838V14.0853H111.205V17.1887H114.8V27.2559C114.8 32.1002 116.995 34.863 121.272 34.863C123.429 34.863 125.208 34.2953 126.684 33.1599L125.322 30.3593Z" fill="black"/>
<path d="M133.979 34.371V23.0927C133.979 19.4595 136.25 16.9238 139.543 16.9238C142.608 16.9238 144.69 19.1189 144.69 23.0927V34.371H148.285V22.0709C148.285 19.3081 147.528 17.2265 145.977 15.7505C144.425 14.2745 142.533 13.5554 140.3 13.5554C137.537 13.5554 135.115 14.7665 133.866 16.5831V5.72119H130.346V34.371H133.979Z" fill="black"/>
<path d="M173.272 23.8497C173.272 20.7084 172.364 18.2105 170.509 16.3561C168.693 14.5016 166.346 13.5933 163.47 13.5933C160.442 13.5933 157.982 14.5773 156.052 16.5831C154.16 18.589 153.213 21.0869 153.213 24.1524C153.213 29.4131 156.393 34.8252 164.037 34.8252C167.406 34.8252 170.736 33.5384 172.742 31.9867L171.19 29.2239C169.336 30.5864 166.535 31.4947 164.113 31.4947C159.874 31.4947 157.604 29.1482 156.998 25.7042H173.159C173.234 24.7201 173.272 24.1146 173.272 23.8497ZM156.998 22.5629C157.604 19.1946 160.139 16.8102 163.47 16.8102C166.8 16.8102 169.336 19.0432 169.525 22.5629H156.998Z" fill="black"/>
<path d="M181.951 34.371V23.6226C181.951 19.2702 184.298 17.0373 187.515 17.0373C188.196 17.0373 188.915 17.1508 189.634 17.3779L189.975 13.8582C189.18 13.669 188.385 13.5554 187.59 13.5554C184.903 13.5554 182.935 14.7287 181.762 17.0751V14.0853H178.318V34.371H181.951Z" fill="black"/>
<path d="M202.699 29.2996L196.416 14.0853H192.215L201.034 34.2953L200.277 36.0741C199.255 38.4584 197.93 39.6317 196.265 39.6317C195.584 39.6317 194.751 39.4424 193.805 39.0261L193.351 42.2052C194.221 42.7351 195.281 43 196.606 43C199.785 43 201.942 41.1834 203.645 36.6418L212.161 14.0853H208.149L202.699 29.2996Z" fill="black"/>
</svg>
