<svg width="696" height="200" viewBox="0 0 696 200" fill="none" xmlns="http://www.w3.org/2000/svg">
<path d="M0.078125 160.809L24.5209 4.40305C24.8196 2.48487 26.3115 0.972749 28.2254 0.647598C30.1393 0.322446 32.0466 1.2579 32.9618 2.96987L58.2398 50.1173L68.3156 30.9332C69.0959 29.4499 70.6342 28.5211 72.3104 28.5211C73.9866 28.5211 75.5248 29.4499 76.3053 30.9332L144.521 160.809L0.078125 160.809Z" fill="#FFA000"/>
<path d="M84.5234 99.883L58.2301 50.0948L0.0800781 160.809L84.5234 99.883Z" fill="#F57C00"/>
<path d="M144.524 160.809L125.803 44.9603C125.52 43.2967 124.333 41.93 122.725 41.4149C121.117 40.8997 119.358 41.3285 118.163 42.5212L0.0800781 160.808L65.4186 197.449C69.5216 199.74 74.5186 199.74 78.6216 197.449L144.524 160.808V160.809Z" fill="#FFCA28"/>
<path d="M125.802 44.9603C125.519 43.2967 124.332 41.93 122.724 41.4149C121.116 40.8997 119.356 41.3285 118.162 42.5212L94.7253 66.0176L76.2958 30.9324C75.5155 29.4491 73.9771 28.5203 72.3009 28.5203C70.6247 28.5203 69.0865 29.4491 68.3061 30.9324L58.2303 50.1165L32.9511 2.96986C32.0344 1.25744 30.1248 0.3235 28.2086 0.651076C26.2924 0.978652 24.8056 2.49456 24.5102 4.41426L0.0787879 160.809H0L0.0787879 160.9L0.721969 161.215L118.128 43.6738C119.322 42.4746 121.086 42.0435 122.698 42.5571C124.31 43.0708 125.499 44.4427 125.779 46.1112L144.343 160.922L144.523 160.809L125.802 44.9603ZM0.293183 160.595L24.5215 5.52032C24.8167 3.60062 26.307 2.08471 28.2215 1.75714C30.1361 1.42956 32.0458 2.3632 32.9639 4.07593L58.2405 51.2233L68.3162 32.0393C69.0965 30.5559 70.6348 29.6271 72.3111 29.6271C73.9873 29.6271 75.5255 30.5559 76.3059 32.0393L94.3615 66.3787L0.293183 160.595Z" fill="white" fill-opacity="0.2"/>
<path opacity="0.2" d="M78.6198 196.345C74.5168 198.636 69.5198 198.636 65.4168 196.345L0.236155 159.805L0.078125 160.81L65.4166 197.44C69.5196 199.731 74.5166 199.731 78.6196 197.44L144.522 160.81L144.353 159.771L78.6198 196.345Z" fill="#A52714"/>
<path d="M125.615 44.9842C125.334 43.321 124.15 41.9539 122.548 41.4418C120.946 40.9297 119.192 41.3554 118.002 42.5478L94.6461 66.0324L76.2825 30.9634C75.5048 29.4807 73.9719 28.5522 72.3017 28.5522C70.6316 28.5522 69.0987 29.4807 68.321 30.9634L58.279 50.1392L33.0896 3.01208C32.176 1.30041 30.2732 0.366624 28.3654 0.694351C26.4575 1.02208 24.9723 2.53678 24.6782 4.45602L0.332031 160.782L65.4422 197.397C69.5308 199.686 74.5104 199.686 78.5992 197.397L144.271 160.782L125.615 44.9839V44.9842Z" fill="url(#paint0_linear_685_727)"/>
<path opacity="0.54" d="M197.817 150.66H184.524V48.0048H244.894V60.6169H197.819V94.3199H240.281V106.641H197.819V150.66L197.817 150.66ZM269.889 62.7786C266.72 65.9377 261.744 66.4339 258.005 63.9639C254.267 61.4939 252.807 56.7457 254.521 52.6249C256.234 48.5042 260.641 46.1586 265.047 47.0237C269.452 47.8889 272.628 51.7237 272.631 56.1813C272.674 58.664 271.677 61.0531 269.878 62.7786H269.889ZM269.889 150.66H256.596V80.4087H269.889V150.66ZM299.058 150.66H285.765V80.4087H298.472V91.8784H299.047C300.582 87.8366 303.529 84.4774 307.352 82.4137C311.003 80.0877 315.225 78.7977 319.562 78.6839C322.966 78.5878 326.355 79.1745 329.525 80.4087L324.47 92.7295C322.19 91.9764 319.795 91.635 317.395 91.7215C312.521 91.746 307.882 93.8027 304.61 97.389C300.902 101.167 299.047 106.114 299.047 112.23L299.058 150.66ZM365.951 152.9C355.261 152.9 346.572 149.364 339.884 142.294C333.197 135.223 329.849 126.303 329.841 115.535C329.645 105.84 333.125 96.426 339.591 89.1574C345.784 81.9225 354.945 77.8619 364.506 78.1119C375 78.1119 383.403 81.5059 389.715 88.2934C396.026 95.081 399.178 104.161 399.169 115.534L399.023 117.976H343.11C343.494 125.047 345.878 130.647 350.264 134.777C354.365 138.773 359.897 140.989 365.643 140.937C375.174 140.937 381.625 136.922 384.995 128.896L396.844 133.769C394.443 139.323 390.482 144.075 385.435 147.456C380.132 151.085 373.636 152.9 365.947 152.9L365.951 152.9ZM385.021 106.977C384.735 102.959 382.881 99.1363 379.458 95.5071C376.035 91.8778 370.946 90.101 364.19 90.1756C359.505 90.094 354.953 91.729 351.406 94.768C347.689 98.001 345.088 102.31 343.969 107.089L385.021 106.977ZM447.196 152.9C442.167 152.999 437.193 151.843 432.73 149.54C428.811 147.578 425.494 144.607 423.127 140.938H422.552V150.66H409.835V48.0048H423.127V80.4087L422.552 90.1534H423.127C425.495 86.4842 428.811 83.5133 432.73 81.5513C437.186 79.2207 442.16 78.0383 447.196 78.1127C456.344 78.1127 464.243 81.6969 470.893 88.8654C477.543 96.0339 480.864 104.924 480.857 115.534C480.85 126.145 477.536 135.035 470.893 142.203C464.25 149.372 456.351 152.937 447.196 152.9ZM445.03 140.859C451.085 140.907 456.87 138.374 460.917 133.903C465.348 129.266 467.564 123.124 467.564 115.478C467.564 107.831 465.348 101.69 460.917 97.0527C456.824 92.6354 451.057 90.1163 445.01 90.1034C438.963 90.0906 433.186 92.5855 429.074 96.9852C424.695 101.57 422.506 107.734 422.506 115.478C422.506 123.221 424.718 129.404 429.141 134.026C433.214 138.48 439.015 140.988 445.074 140.915L445.03 140.859ZM514.698 152.9C507.175 152.9 500.894 150.749 495.853 146.448C490.813 142.147 488.286 136.461 488.271 129.389C488.271 121.743 491.257 115.747 497.23 111.401C503.203 107.055 510.568 104.882 519.324 104.882C527.125 104.882 533.521 106.316 538.507 109.183V107.178C538.698 102.456 536.733 97.9012 533.159 94.7792C529.519 91.668 524.836 90.0252 520.035 90.1757C516.361 90.1302 512.743 91.0693 509.564 92.8975C506.585 94.5351 504.302 97.1836 503.132 100.357L491.002 95.1936C492.642 90.9747 495.869 87.0618 500.699 83.4553C505.528 79.8487 511.87 78.0565 519.769 78.0789C528.796 78.0789 536.319 80.6925 542.337 85.9193C548.355 91.1462 551.341 98.5537 551.296 108.142V150.66H538.545V140.915H537.97C532.667 148.905 524.914 152.885 514.713 152.885L514.698 152.9ZM516.864 140.859C522.45 140.839 527.812 138.676 531.827 134.822C536.106 131.241 538.582 125.973 538.598 120.417C534.836 117.356 529.194 115.825 521.671 115.825C515.217 115.825 510.353 117.21 507.081 119.98C504.027 122.311 502.218 125.902 502.172 129.725C502.11 133.052 503.828 136.164 506.688 137.902C509.694 139.908 513.244 140.959 516.866 140.915V140.859L516.864 140.859ZM590.38 152.9C582.482 152.9 575.959 150.988 570.814 147.165C565.808 143.495 561.906 138.538 559.53 132.828L571.378 127.956C575.14 136.752 581.534 141.15 590.561 141.15C594.147 141.296 597.692 140.346 600.717 138.428C603.211 136.891 604.717 134.174 604.689 131.26C604.689 126.675 601.462 123.569 594.992 121.941L580.695 118.502C575.99 117.267 571.608 115.044 567.842 111.983C563.835 108.881 561.575 104.054 561.772 99.013C561.772 92.8009 564.54 87.76 570.077 83.8918C575.868 79.9456 582.767 77.9149 589.79 78.0898C595.654 77.9968 601.435 79.4625 606.536 82.3349C611.351 85.0486 615.074 89.3295 617.075 94.4542L605.531 99.136C602.936 92.9239 597.542 89.8169 589.35 89.8169C585.865 89.7018 582.417 90.5472 579.386 92.2587C576.903 93.5356 575.345 96.0803 575.346 98.856C575.346 102.873 578.476 105.599 584.735 107.033L598.738 110.337C605.381 111.83 610.293 114.444 613.475 118.177C616.558 121.665 618.251 126.15 618.237 130.789C618.299 136.975 615.407 142.824 610.44 146.56C605.242 150.786 598.55 152.9 590.366 152.9L590.38 152.9ZM661.877 152.9C651.187 152.9 642.498 149.364 635.81 142.294C629.123 135.223 625.774 126.283 625.767 115.478C625.571 105.783 629.05 96.369 635.516 89.1004C641.733 81.8837 650.904 77.8448 660.466 78.1125C670.996 78.1125 679.401 81.5065 685.674 88.294C691.948 95.0816 695.1 104.162 695.131 115.534L694.984 117.976H639.024C639.408 125.047 641.793 130.648 646.179 134.777C650.292 138.773 655.838 140.982 661.593 140.915C671.124 140.915 677.575 136.9 680.945 128.874L692.793 133.746C690.393 139.301 686.433 144.053 681.385 147.434C676.082 151.078 669.578 152.9 661.875 152.9L661.877 152.9ZM680.947 106.977C680.661 102.959 678.807 99.1363 675.384 95.5071C671.961 91.8778 666.879 90.101 660.139 90.1756C655.454 90.0952 650.902 91.7301 647.354 94.768C643.637 98.001 641.036 102.31 639.918 107.089L680.947 106.977Z" fill="white"/>
<defs>
<linearGradient id="paint0_linear_685_727" x1="-502.016" y1="3378.84" x2="17460.3" y2="12853.8" gradientUnits="userSpaceOnUse">
<stop stop-color="white" stop-opacity="0.1"/>
<stop offset="0.14" stop-color="white" stop-opacity="0.08"/>
<stop offset="0.61" stop-color="white" stop-opacity="0.02"/>
<stop offset="1" stop-color="white" stop-opacity="0"/>
</linearGradient>
</defs>
</svg>
