<svg width="230" height="160" viewBox="0 0 230 160" fill="none" xmlns="http://www.w3.org/2000/svg">
<g clip-path="url(#clip0_30_5662)">
<mask id="mask0_30_5662" style="mask-type:luminance" maskUnits="userSpaceOnUse" x="0" y="0" width="230" height="160">
<path d="M0.0507812 0.418823H229.208V159.581H0.0507812V0.418823Z" fill="white"/>
</mask>
<g mask="url(#mask0_30_5662)">
<path fill-rule="evenodd" clip-rule="evenodd" d="M95.2015 17.8429C102.599 10.1864 112.894 5.44502 124.267 5.44502C139.432 5.44502 152.575 13.822 159.652 26.3037C165.934 23.5114 172.738 22.0698 179.619 22.0733C206.916 22.0733 229.073 44.2722 229.073 71.6649C229.073 99.0576 206.916 121.257 179.619 121.257C176.283 121.257 173.031 120.923 169.846 120.293C163.654 131.267 151.817 138.723 138.337 138.723C132.849 138.733 127.431 137.495 122.498 135.104C116.222 149.763 101.604 160.067 84.5861 160.067C66.8096 160.067 51.729 148.926 45.9158 133.261C43.3285 133.804 40.6912 134.077 38.0469 134.075C16.9004 134.075 -0.202148 116.818 -0.202148 95.6247C-0.202148 81.3839 7.49822 68.986 18.9224 62.2844C16.4988 56.733 15.2512 50.7447 15.2576 44.6928C15.2576 20.232 35.2246 0.462402 59.8253 0.462402C74.2319 0.462402 87.122 7.28963 95.2099 17.8865" fill="#00A1E0"/>
</g>
<path fill-rule="evenodd" clip-rule="evenodd" d="M33.1947 83.1832C33.0506 83.5568 33.2461 83.6347 33.2924 83.7009C33.7229 84.0108 34.1602 84.2353 34.5983 84.4875C36.9404 85.7189 39.1477 86.0791 41.4561 86.0791C46.1572 86.0791 49.0807 83.5912 49.0807 79.587V79.5082C49.0807 75.8056 45.7781 74.4569 42.6946 73.4936L42.2911 73.3637C39.9574 72.6115 37.9438 71.9564 37.9438 70.4318V70.3539C37.9438 69.0471 39.1233 68.0837 40.9431 68.0837C42.965 68.0837 45.3746 68.753 46.9163 69.6C46.9163 69.6 47.373 69.8931 47.5389 69.455C47.6291 69.218 48.4151 67.1262 48.4994 66.8917C48.5887 66.6462 48.432 66.4611 48.2711 66.3656C46.5018 65.2934 44.0586 64.5646 41.5311 64.5646L41.0619 64.5662C36.7567 64.5662 33.749 67.1547 33.749 70.8573V70.9369C33.749 74.8406 37.0685 76.1139 40.1688 76.9935L40.6676 77.1476C42.9255 77.8379 44.88 78.4376 44.88 80.0125V80.0913C44.88 81.5405 43.6079 82.6211 41.569 82.6211C40.7763 82.6211 38.2496 82.6077 35.5115 80.8871C35.1804 80.6952 34.9917 80.557 34.7364 80.4021C34.6016 80.3208 34.2646 80.1742 34.1181 80.6131L33.1913 83.1765M102.023 83.1765C101.879 83.5501 102.074 83.628 102.122 83.6942C102.551 84.0041 102.99 84.2286 103.428 84.4808C105.77 85.7122 107.978 86.0724 110.286 86.0724C114.987 86.0724 117.91 83.5845 117.91 79.5803V79.5015C117.91 75.7989 114.616 74.4502 111.524 73.4869L111.121 73.357C108.787 72.6048 106.774 71.9497 106.774 70.4251V70.3472C106.774 69.0404 107.953 68.077 109.773 68.077C111.795 68.077 114.196 68.7463 115.746 69.5933C115.746 69.5933 116.203 69.8864 116.37 69.4483C116.459 69.2113 117.246 67.1195 117.322 66.885C117.412 66.6395 117.254 66.4544 117.094 66.3589C115.325 65.2867 112.882 64.5579 110.354 64.5579L109.884 64.5595C105.579 64.5595 102.571 67.148 102.571 70.8506V70.9302C102.571 74.8339 105.891 76.1072 108.991 76.9868L109.489 77.1409C111.755 77.8312 113.701 78.431 113.701 80.0058V80.0846C113.701 81.5338 112.429 82.6144 110.39 82.6144C109.596 82.6144 107.063 82.601 104.333 80.8804C104.002 80.6885 103.808 80.5562 103.557 80.3953C103.472 80.3417 103.075 80.1876 102.939 80.6064L102.013 83.1698M149.024 75.329C149.024 77.5907 148.599 79.375 147.768 80.64C146.939 81.8881 145.687 82.4996 143.943 82.4996C142.2 82.4996 140.953 81.8931 140.135 80.6483C139.312 79.3918 138.897 77.5991 138.897 75.3373C138.897 73.0756 139.315 71.2996 140.135 70.0515C140.951 68.8117 142.191 68.2169 143.943 68.2169C145.696 68.2169 146.943 68.8175 147.768 70.0515C148.604 71.2996 149.024 73.0756 149.024 75.3373M152.95 71.1405C152.563 69.8421 151.964 68.7028 151.164 67.7478C150.362 66.7928 149.352 66.0222 148.148 65.4693C146.951 64.9122 145.536 64.6316 143.935 64.6316C142.334 64.6316 140.927 64.9139 139.723 65.4693C138.526 66.0255 137.507 66.7928 136.706 67.7478C135.908 68.7028 135.308 69.8421 134.92 71.1405C134.537 72.4305 134.342 73.8379 134.342 75.3373C134.342 76.8368 134.537 78.2441 134.92 79.5342C135.305 80.8326 135.906 81.9719 136.706 82.9269C137.508 83.8818 138.526 84.6441 139.723 85.1886C140.927 85.7315 142.343 86.0079 143.935 86.0079C145.527 86.0079 146.943 85.7315 148.139 85.1886C149.335 84.6458 150.355 83.8818 151.155 82.9269C151.955 81.9719 152.554 80.8326 152.941 79.5342C153.324 78.2441 153.518 76.8368 153.518 75.3373C153.518 73.8462 153.324 72.4305 152.941 71.1405M185.209 81.863C185.08 81.4835 184.707 81.6268 184.707 81.6268C184.137 81.8437 183.528 82.0448 182.879 82.1453C182.225 82.2475 181.498 82.2986 180.731 82.2986C178.835 82.2986 177.319 81.7365 176.24 80.6232C175.154 79.5091 174.547 77.7164 174.555 75.2871C174.561 73.0756 175.099 71.4169 176.063 70.1436C177.015 68.8871 178.481 68.2337 180.419 68.2337C182.037 68.2337 183.275 68.4205 184.573 68.8242C184.573 68.8242 184.88 68.9574 185.028 68.5545C185.372 67.6079 185.627 66.9294 185.996 65.8906C186.101 65.5933 185.845 65.4676 185.751 65.4316C185.242 65.2339 184.041 64.9097 183.131 64.7731C182.28 64.6441 181.294 64.5771 180.182 64.5771C178.531 64.5771 177.065 64.8578 175.81 65.414C174.555 65.9694 173.493 66.7375 172.651 67.6925C171.808 68.6475 171.168 69.7868 170.738 71.0852C170.313 72.3752 170.098 73.7909 170.098 75.2904C170.098 78.5239 170.974 81.1459 172.709 83.0642C174.445 84.9909 177.057 85.9627 180.46 85.9627C182.474 85.9627 184.538 85.5581 186.021 84.9742C186.021 84.9742 186.304 84.8385 186.181 84.5101L185.212 81.863M192.078 73.1509C192.266 71.8944 192.612 70.8473 193.157 70.0347C193.971 68.7949 195.212 68.1164 196.956 68.1164C198.7 68.1164 199.855 68.7983 200.68 70.0347C201.228 70.8515 201.467 71.9363 201.556 73.1509L192.036 73.1493L192.078 73.1509ZM205.305 70.3866C204.971 69.1384 204.143 67.8735 203.604 67.2955C202.744 66.3824 201.91 65.7373 201.076 65.3855C199.872 64.8764 198.577 64.6151 197.268 64.6173C195.608 64.6173 194.1 64.8963 192.879 65.4634C191.657 66.0347 190.629 66.8121 189.82 67.7838C189.013 68.7556 188.405 69.9032 188.018 71.2184C187.63 72.5168 187.435 73.9409 187.435 75.432C187.435 76.9566 187.638 78.3723 188.037 79.654C188.44 80.944 189.09 82.0749 189.966 83.0131C190.842 83.9597 191.963 84.6969 193.311 85.2163C194.65 85.7315 196.276 85.9987 198.138 85.9928C201.98 85.9803 204.002 85.13 204.828 84.6693C204.975 84.5872 205.114 84.4456 204.941 84.0376L204.073 81.6167C203.94 81.2557 203.572 81.3863 203.572 81.3863C202.62 81.7398 201.272 82.3748 198.113 82.3664C196.049 82.3631 194.524 81.7574 193.564 80.8083C192.586 79.8366 192.098 78.4209 192.022 76.4104L205.333 76.4205C205.333 76.4205 205.684 76.4171 205.72 76.077C205.734 75.9363 206.176 73.3629 205.323 70.3891L205.305 70.3866ZM85.6718 73.1509C85.8596 71.8944 86.2067 70.8473 86.7501 70.0347C87.5657 68.7949 88.8058 68.1164 90.5498 68.1164C92.2937 68.1164 93.4479 68.7983 94.2736 70.0347C94.8204 70.8515 95.0596 71.9363 95.1498 73.1509L85.6296 73.1493L85.6718 73.1509ZM98.8989 70.3866C98.5652 69.1384 97.7362 67.8735 97.197 67.2955C96.3377 66.3824 95.5036 65.7373 94.6695 65.3855C93.4654 64.8764 92.17 64.6151 90.8615 64.6173C89.2018 64.6173 87.6937 64.8963 86.4721 65.4634C85.2505 66.0347 84.2227 66.8121 83.4139 67.7838C82.6076 68.7556 81.9985 69.9032 81.6109 71.2184C81.2242 72.5168 81.0296 73.9409 81.0296 75.432C81.0296 76.9566 81.231 78.3723 81.6329 79.654C82.0356 80.944 82.686 82.0749 83.5537 83.0131C84.4299 83.9597 85.5504 84.6969 86.8984 85.2163C88.238 85.7315 89.8556 85.9987 91.7259 85.9928C95.5676 85.9803 97.5896 85.13 98.4153 84.6693C98.5619 84.5872 98.7017 84.4456 98.5273 84.0376L97.6596 81.6167C97.5256 81.2557 97.1583 81.3863 97.1583 81.3863C96.2063 81.7398 94.8583 82.3748 91.6989 82.3664C89.6433 82.3631 88.1099 81.7574 87.1495 80.8083C86.1722 79.8366 85.6835 78.4209 85.6077 76.4104L98.9191 76.4205C98.9191 76.4205 99.2696 76.4171 99.3058 76.077C99.3201 75.9363 99.7616 73.3629 98.9081 70.3891L98.8989 70.3866ZM56.9428 81.7792C56.4213 81.3654 56.3489 81.264 56.1761 80.9951C55.9125 80.5905 55.7777 80.015 55.7777 79.2779C55.7777 78.1218 56.1652 77.2841 56.9656 76.7229C56.9571 76.7246 58.1113 75.7344 60.8242 75.7679C62.0317 75.7894 63.2363 75.8916 64.43 76.0737V82.08H64.4317C64.4317 82.08 62.7467 82.441 60.8427 82.5549C58.1383 82.7166 56.942 81.7809 56.9504 81.7834L56.9428 81.7792ZM62.2337 72.4808C61.6945 72.4414 60.9952 72.4222 60.1611 72.4222C59.0238 72.4222 57.9201 72.5629 56.8923 72.8393C55.856 73.1174 54.9208 73.548 54.1205 74.121C53.3179 74.6903 52.6578 75.4355 52.1912 76.299C51.7202 77.1702 51.4801 78.1922 51.4801 79.3482C51.4801 80.521 51.6848 81.5346 52.0892 82.3639C52.4855 83.1865 53.082 83.8977 53.8248 84.433C54.5636 84.9675 55.476 85.3629 56.5292 85.5974C57.5738 85.8345 58.7533 85.9543 60.0508 85.9543C61.4156 85.9543 62.772 85.8404 64.0863 85.6201C65.2057 85.4281 66.3208 85.2125 67.431 84.9734C67.8741 84.872 68.3661 84.7388 68.3661 84.7388C68.6947 84.6559 68.6694 84.3065 68.6694 84.3065L68.6619 72.2437C68.6619 69.5966 67.9508 67.628 66.5472 66.4134C65.1487 65.1987 63.1014 64.5872 60.4476 64.5872C59.4534 64.5872 57.8443 64.7212 56.8838 64.913C56.8838 64.913 53.9857 65.4726 52.7893 66.4041C52.7893 66.4041 52.5265 66.565 52.6697 66.9294L53.6133 69.4425C53.7304 69.7683 54.0497 69.6569 54.0497 69.6569C54.0497 69.6569 54.15 69.6175 54.2679 69.548C56.8207 68.1658 60.0558 68.2077 60.0558 68.2077C61.4881 68.2077 62.6001 68.4967 63.3415 69.0622C64.0669 69.6159 64.4368 70.4527 64.4368 72.2119V72.7706C63.2994 72.6064 62.2463 72.5118 62.2463 72.5118L62.2337 72.4808ZM169.23 65.6703C169.249 65.6261 169.259 65.5786 169.259 65.5305C169.26 65.4824 169.25 65.4347 169.232 65.3903C169.213 65.3459 169.186 65.3057 169.151 65.2721C169.116 65.2384 169.075 65.212 169.03 65.1945C168.804 65.1091 167.674 64.872 166.806 64.8184C165.138 64.7145 164.211 64.9943 163.377 65.3662C162.553 65.7357 161.642 66.3296 161.136 67.0165L161.135 65.4081C161.135 65.187 160.977 65.0085 160.753 65.0085H157.349C157.128 65.0085 156.968 65.187 156.968 65.4081V85.094C156.969 85.2003 157.011 85.3023 157.087 85.3775C157.162 85.4527 157.265 85.495 157.372 85.4952H160.86C160.967 85.495 161.069 85.4526 161.145 85.3774C161.22 85.3022 161.263 85.2003 161.263 85.094V75.2092C161.263 73.8856 161.409 72.5704 161.702 71.7411C161.99 70.921 162.381 70.2668 162.864 69.7976C163.325 69.3446 163.888 69.0084 164.507 68.8175C165.088 68.6518 165.689 68.5678 166.293 68.5679C166.988 68.5679 167.751 68.7455 167.751 68.7455C168.007 68.774 168.149 68.6182 168.236 68.3886C168.464 67.7847 169.112 65.9761 169.238 65.6159" fill="#FFFFFE"/>
<path fill-rule="evenodd" clip-rule="evenodd" d="M136.653 56.5847C136.222 56.4552 135.784 56.3517 135.34 56.2748C134.743 56.1757 134.139 56.1292 133.534 56.1357C131.13 56.1357 129.235 56.8109 127.905 58.1445C126.584 59.4681 125.685 61.4844 125.234 64.1374L125.072 65.0329H122.055C122.055 65.0329 121.687 65.0178 121.609 65.4174L121.114 68.1651C121.079 68.4281 121.193 68.5923 121.547 68.5906H124.484L121.504 85.1292C121.27 86.4612 121.003 87.5569 120.708 88.387C120.416 89.2063 120.131 89.8203 119.781 90.266C119.441 90.6974 119.12 91.0149 118.564 91.2C118.106 91.3533 117.579 91.4237 117.001 91.4237C116.679 91.4237 116.251 91.3701 115.935 91.3073C115.619 91.2453 115.455 91.1749 115.218 91.076C115.218 91.076 114.873 90.9454 114.738 91.2888C114.627 91.5695 113.845 93.7098 113.752 93.9745C113.658 94.2358 113.79 94.4419 113.957 94.5014C114.348 94.6404 114.638 94.7292 115.171 94.8541C115.91 95.0275 116.534 95.0384 117.118 95.0384C118.341 95.0384 119.456 94.8675 120.38 94.5357C121.31 94.2015 122.12 93.6193 122.836 92.831C123.61 91.9808 124.097 91.0903 124.563 89.8756C125.024 88.6719 125.416 87.1774 125.731 85.4358L128.725 68.5906H133.102C133.102 68.5906 133.471 68.604 133.548 68.2061L134.043 65.4585C134.078 65.1954 133.965 65.0312 133.61 65.0329H129.361C129.382 64.9374 129.575 63.4513 130.063 62.0524C130.271 61.4551 130.662 60.9734 130.994 60.6425C131.304 60.3274 131.686 60.0912 132.107 59.954C132.569 59.812 133.05 59.743 133.534 59.7496C133.934 59.7496 134.326 59.7973 134.626 59.8593C135.038 59.9464 135.198 59.9925 135.305 60.0243C135.739 60.1558 135.797 60.0285 135.882 59.8199L136.898 57.0455C137.002 56.7473 136.748 56.6216 136.653 56.5847ZM77.2798 85.1644C77.2798 85.3856 77.1214 85.5657 76.899 85.5657H73.3748C73.1516 85.5657 72.9932 85.3856 72.9932 85.1644V56.9609C72.9932 56.7406 73.1516 56.5621 73.3748 56.5621H76.899C77.1214 56.5621 77.2798 56.7406 77.2798 56.9609V85.1644Z" fill="#FFFFFE"/>
</g>
<defs>
<clipPath id="clip0_30_5662">
<rect width="230" height="160" fill="white"/>
</clipPath>
</defs>
</svg>
