<svg width="209" height="56" viewBox="0 0 209 56" fill="none" xmlns="http://www.w3.org/2000/svg">
<path d="M7.80596 38.791C3.49485 38.791 -1.92859e-07 36.3179 0 33.2671C1.5636e-07 30.7937 2.29722 28.7 5.46418 27.9961L27.3209 27.9961C23.4546 34.4443 16.1635 38.791 7.80596 38.791Z" fill="url(#paint0_linear_60_12745)"/>
<path d="M7.74219 14.8144C7.74219 7.18494 13.7873 1 21.2444 1C35.7006 1 48.3123 11.8704 54.9998 27.9965L55.0014 27.9965C48.3136 44.1277 35.7016 55.0017 21.2448 55.0017C13.7875 55.0017 7.74219 48.8148 7.74219 41.1828C7.74219 34.9951 11.7159 29.7574 17.194 27.9965C11.7161 26.2361 7.74219 21.0001 7.74219 14.8144Z" fill="url(#paint1_linear_60_12745)"/>
<path d="M21.2428 0.99C13.7854 0.99 7.73999 7.17804 7.73999 14.8114C7.73999 21.0001 11.7137 26.2388 17.192 28L55 28C48.3121 11.8659 35.6998 0.99 21.2428 0.99Z" fill="url(#paint2_linear_60_12745)"/>
<path d="M27.1544 41.2268C23.2614 41.2268 20.1055 38.1956 20.1055 34.4565C20.1055 31.425 22.1799 28.8588 25.0398 27.9961L44.7769 27.9961C41.2856 35.8993 34.7015 41.2268 27.1544 41.2268Z" fill="url(#paint3_linear_60_12745)" fill-opacity="0.7"/>
<path fill-rule="evenodd" clip-rule="evenodd" d="M40.4398 22.6638C41.9685 22.6638 43.2077 21.4245 43.2077 19.8959C43.2077 18.3672 41.9685 17.1279 40.4398 17.1279C38.9111 17.1279 37.6719 18.3672 37.6719 19.8959C37.6719 21.4245 38.9111 22.6638 40.4398 22.6638Z" fill="white"/>
<path d="M7.80596 17.2012C3.49485 17.2012 -1.92859e-07 19.6743 0 22.7251C1.5636e-07 25.1985 2.29722 27.2922 5.46418 27.9961L27.3209 27.9961C23.4546 21.5479 16.1635 17.2012 7.80596 17.2012Z" fill="url(#paint4_linear_60_12745)"/>
<path d="M67.0641 37.3232H72.291V20.905H67.0641V37.3232ZM69.6829 18.9917C71.1687 18.9917 72.3658 17.8694 72.3658 16.4905C72.3658 15.1116 71.1687 14 69.6829 14C68.2078 14 67 15.1116 67 16.4905C67 17.8694 68.2078 18.9917 69.6829 18.9917Z" fill="#0D0D0D"/>
<path d="M80.8448 27.9597C80.8555 26.0892 81.9458 24.9775 83.6026 24.9775C85.2593 24.9775 86.2427 26.0678 86.232 27.8849V37.3232H91.4589V26.8588C91.4696 23.1604 89.2143 20.6913 85.7617 20.6913C83.3353 20.6913 81.4968 21.9205 80.77 23.9193H80.5883V20.905H75.6179V37.3232H80.8448V27.9597Z" fill="#0D0D0D"/>
<path d="M110.034 20.905H104.529L101.493 32.2139H101.322L98.2972 20.905H92.7924L98.4147 37.3232H104.401L110.034 20.905Z" fill="#0D0D0D"/>
<path d="M112.038 37.3232H117.265V20.905H112.038V37.3232ZM114.657 18.9917C116.142 18.9917 117.339 17.8694 117.339 16.4905C117.339 15.1116 116.142 14 114.657 14C113.181 14 111.974 15.1116 111.974 16.4905C111.974 17.8694 113.181 18.9917 114.657 18.9917Z" fill="#0D0D0D"/>
<path d="M126.588 37.5584C129.068 37.5584 130.543 36.1795 131.206 34.6617H131.366V37.3232H136.539V15.4323H131.313V23.7162H131.206C130.586 22.2091 129.153 20.6913 126.567 20.6913C123.136 20.6913 120.025 23.3314 120.025 29.1248C120.025 34.7151 122.965 37.5584 126.588 37.5584ZM128.405 33.4859C126.47 33.4859 125.391 31.765 125.391 29.1141C125.391 26.474 126.46 24.7744 128.405 24.7744C130.318 24.7744 131.43 26.4312 131.43 29.1141C131.43 31.7757 130.308 33.4859 128.405 33.4859Z" fill="#0D0D0D"/>
<path d="M147.473 37.6332C151.78 37.6332 154.613 35.5489 155.211 32.3208L150.412 32.1819C150.006 33.2721 148.937 33.86 147.569 33.86C145.559 33.86 144.319 32.5239 144.319 30.5144V30.3754H155.265V29.0714C155.265 23.6628 151.973 20.6913 147.312 20.6913C142.353 20.6913 139.167 24.0904 139.167 29.1783C139.167 34.4372 142.31 37.6332 147.473 37.6332ZM144.319 27.3398C144.394 25.7044 145.688 24.4645 147.419 24.4645C149.14 24.4645 150.38 25.6616 150.401 27.3398H144.319Z" fill="#0D0D0D"/>
<path d="M165.598 37.6332C170.761 37.6332 173.893 34.2235 173.893 29.1676C173.893 24.101 170.761 20.6913 165.598 20.6913C160.436 20.6913 157.304 24.101 157.304 29.1676C157.304 34.2235 160.436 37.6332 165.598 37.6332ZM165.63 33.689C163.696 33.689 162.627 31.8505 162.627 29.1355C162.627 26.4099 163.696 24.5607 165.63 24.5607C167.501 24.5607 168.57 26.4099 168.57 29.1355C168.57 31.8505 167.501 33.689 165.63 33.689Z" fill="#0D0D0D"/>
<path d="M184.568 37.5H178.882L186.268 15.6091H193.312L200.698 37.5H195.011L189.87 21.1246H189.699L184.568 37.5ZM183.809 28.8847H195.696V32.9038H183.809V28.8847ZM207.796 15.6091V37.5H202.505V15.6091H207.796Z" fill="#0D0D0D"/>
<defs>
<linearGradient id="paint0_linear_60_12745" x1="2.29355e-08" y1="33.2944" x2="27" y2="33.2944" gradientUnits="userSpaceOnUse">
<stop stop-color="#00A0F5"/>
<stop offset="1" stop-color="#4F3CE4" stop-opacity="0"/>
</linearGradient>
<linearGradient id="paint1_linear_60_12745" x1="31.001" y1="-15.5" x2="31.3718" y2="55.0017" gradientUnits="userSpaceOnUse">
<stop stop-color="#44DEF8"/>
<stop offset="0.505208" stop-color="#5836C7"/>
<stop offset="1" stop-color="#432CB6"/>
</linearGradient>
<linearGradient id="paint2_linear_60_12745" x1="31.37" y1="28" x2="30.9998" y2="-6.5" gradientUnits="userSpaceOnUse">
<stop stop-color="#41D4EE" stop-opacity="0"/>
<stop offset="1" stop-color="#40DBF0"/>
</linearGradient>
<linearGradient id="paint3_linear_60_12745" x1="20.1055" y1="27.9961" x2="20.1055" y2="41.2268" gradientUnits="userSpaceOnUse">
<stop stop-color="#276EEC" stop-opacity="0"/>
<stop offset="1" stop-color="white"/>
</linearGradient>
<linearGradient id="paint4_linear_60_12745" x1="2.29355e-08" y1="22.4995" x2="27" y2="22.4995" gradientUnits="userSpaceOnUse">
<stop stop-color="#00A0F5"/>
<stop offset="1" stop-opacity="0"/>
</linearGradient>
</defs>
</svg>
