<svg width="927" height="367" viewBox="0 0 927 367" fill="none" xmlns="http://www.w3.org/2000/svg">
<g clip-path="url(#clip0_2115_5949)">
<path d="M134.247 208.442H91.9287V366.423H134.247V208.442ZM226.033 80.1992H183.715V287.504H226.033V80.1992Z" fill="#07EC8A"/>
<path d="M42.4617 80.1961H0V287.501H42.4617V80.1961ZM134.248 1.27734H91.9289V159.258H134.248V1.27734Z" fill="#F1FAF1"/>
<path d="M628.348 247.33C626.346 253.477 623.487 259.339 619.627 264.629C615.766 270.062 611.191 274.78 605.902 278.64C600.326 282.786 594.178 285.931 587.602 288.076C580.31 290.506 572.733 291.65 565.013 291.65C555.863 291.65 546.712 289.934 538.134 286.646C529.699 283.358 521.836 278.497 515.402 272.063C508.683 265.344 503.393 257.337 499.962 248.473C495.959 238.323 493.957 227.457 494.243 216.591C494.1 206.298 495.959 196.004 499.819 186.282C503.25 177.704 508.254 169.698 514.545 162.835C520.692 156.402 527.984 151.112 536.133 147.68C544.139 144.106 552.86 142.248 561.581 142.248C571.446 142.105 581.311 143.963 590.461 147.68C598.61 150.969 605.902 156.116 611.763 162.692C617.625 169.555 622.057 177.418 624.773 185.996C627.919 195.718 629.491 205.726 629.348 216.02C629.348 217.735 629.348 219.451 629.205 221.023C629.205 222.31 629.062 223.597 628.777 224.884H522.694C522.837 230.888 523.98 236.75 526.268 242.183C528.27 247.33 531.272 251.905 535.132 255.765C538.992 259.625 543.567 262.627 548.571 264.486C553.861 266.487 559.437 267.631 565.155 267.488C576.736 267.488 585.457 264.772 591.462 259.339C597.466 253.906 602.041 246.901 604.615 239.18L628.348 247.33ZM600.612 202.58C600.469 193.145 596.752 183.995 590.318 176.989C583.884 170.127 574.448 166.695 561.867 166.552C556.434 166.409 551.145 167.553 546.141 169.555C541.709 171.413 537.705 174.273 534.417 177.704C531.272 181.135 528.555 184.995 526.697 189.284C524.838 193.43 523.695 197.862 523.409 202.438H600.612V202.58ZM444.776 287.504V195.432H349.702V287.504H320.965V80.1992H349.702V168.84H444.776V80.1992H473.513V287.504H444.776Z" fill="#F1FAF1"/>
<path d="M628.205 247.328C620.342 272.205 597.753 291.791 565.013 291.791C527.269 291.791 494.243 264.341 494.243 216.59C494.243 172.413 526.125 142.246 561.438 142.246C604.758 142.246 628.92 172.127 628.92 215.875C628.92 218.877 628.777 221.737 628.348 224.596H522.408C522.98 249.759 541.137 267.344 564.87 267.344C587.745 267.344 599.039 254.763 604.329 239.036L628.205 247.328ZM600.326 202.579C599.754 182.42 586.601 166.551 561.724 166.551C538.563 166.551 524.553 184.422 523.409 202.579H600.326ZM685.249 207.011L723.279 201.435C731.714 200.291 734.145 195.859 734.145 190.855C734.145 177.13 725.138 165.693 703.692 165.693C684.392 165.693 673.526 177.702 671.81 194.001L645.504 187.853C648.363 160.975 672.668 142.246 703.12 142.246C745.153 142.246 761.595 166.265 761.595 193.715V264.198C761.452 271.919 762.024 279.639 763.31 287.359H736.432C735.288 281.069 734.86 274.778 735.002 268.345C728.855 278.352 714.844 291.791 689.681 291.791C661.088 291.791 642.645 271.919 642.645 249.759C642.645 224.596 661.088 210.585 685.249 207.011ZM734.145 227.17V220.736L691.111 227.17C679.388 228.885 670.667 235.605 670.667 248.186C670.667 258.766 679.388 268.63 693.542 268.63C715.988 268.773 734.145 257.908 734.145 227.17ZM787.615 342.974V146.821H814.207V168.695C821.785 154.684 838.512 143.533 861.244 143.533C903.277 143.533 925.866 175.987 925.866 216.876C925.866 258.623 901.561 291.077 860.386 291.077C838.798 291.077 822.356 280.783 814.779 268.202V342.831H787.615V342.974ZM856.24 167.837C831.078 167.837 814.493 188.854 814.493 216.876C814.493 245.755 831.221 266.629 856.24 266.629C881.688 266.629 897.701 245.898 897.701 216.876C897.844 188.854 881.974 167.837 856.24 167.837Z" fill="#F1FAF1"/>
</g>
<defs>
<clipPath id="clip0_2115_5949">
<rect width="926.438" height="366" fill="white" transform="translate(0 0.722656)"/>
</clipPath>
</defs>
</svg>
