<svg width="732" height="158" viewBox="0 0 732 158" fill="none" xmlns="http://www.w3.org/2000/svg">
<g clip-path="url(#clip0_2184_1331)">
<path d="M137.305 44.2381C137.312 50.8251 135.845 57.3277 133.009 63.2702C130.174 69.2128 126.043 74.4454 120.92 78.5813L3.11188 11.6828C2.66197 11.4251 2.24487 11.1158 1.8676 10.7573C1.27709 10.1785 0.808433 9.48719 0.487403 8.72563C0.166373 7.96171 0 7.14157 0 6.31439C0 4.66237 0.656119 3.07831 1.82307 1.91136C2.99003 0.742057 4.57409 0.0859375 6.2261 0.0859375H93.1736C104.878 0.0859375 116.103 4.73736 124.379 13.0185C132.656 21.2973 137.305 32.5287 137.305 44.2381Z" fill="#18B4F4"/>
<path d="M137.304 112.921C137.306 118.721 136.165 124.464 133.949 129.821C131.732 135.18 128.482 140.049 124.383 144.15C120.285 148.251 115.418 151.503 110.063 153.723C104.709 155.944 98.968 157.085 93.1731 157.085H6.22554C4.99298 157.071 3.79322 156.694 2.77623 155.998C1.76159 155.302 0.971903 154.32 0.514963 153.177C0.0556792 152.033 -0.0544551 150.779 0.200963 149.573C0.454037 148.368 1.0586 147.264 1.93968 146.402C2.29117 146.051 2.68484 145.744 3.11132 145.488L49.4755 119.161L120.911 78.5898C126.031 82.7257 130.162 87.956 133 93.8962C135.837 99.8364 137.306 106.339 137.304 112.921Z" fill="#FD6B3C"/>
<path d="M120.919 78.5838L49.4751 119.165L3.11323 145.492C2.66801 145.74 2.25559 146.042 1.8877 146.396C19.5654 128.257 29.4494 103.917 29.4283 78.5838C29.4611 53.2458 19.5795 28.9015 1.89707 10.7598C2.27434 11.1183 2.69144 11.4276 3.14369 11.6854L120.919 78.5838Z" fill="#A97FF2"/>
<path d="M233.863 57.6647C254.231 57.6647 265.739 73.9411 265.739 93.6575C265.739 113.372 254.231 129.524 233.863 129.524C223.278 129.524 215.185 125.289 210.711 118.105L208.865 127.905H196.122V33.3086H211.895V68.2423C215.733 62.377 223.278 57.6647 233.863 57.6647ZM230.686 115.623C242.589 115.623 249.996 105.969 249.996 93.6575C249.996 81.0858 242.589 71.5533 230.686 71.5533C218.784 71.5533 211.365 81.0647 211.365 93.6575C211.365 105.978 218.65 115.623 230.686 115.623Z" fill="#F3FCFF"/>
<path d="M321.161 99.6174V59.2637H336.901V98.8183C336.901 116.466 328.84 129.525 306.612 129.525C284.386 129.525 276.322 116.423 276.322 98.8183V59.2637H292.064V99.6174C292.064 110.331 297.086 115.624 306.59 115.624C316.097 115.624 321.161 110.331 321.161 99.6174Z" fill="#F3FCFF"/>
<path d="M349.499 38.0838C349.448 36.7012 349.682 35.3234 350.188 34.0369C350.694 32.7505 351.461 31.5812 352.44 30.6064C353.419 29.6316 354.591 28.87 355.88 28.3685C357.169 27.8694 358.549 27.6421 359.929 27.703C365.907 27.703 370.211 32.01 370.211 38.1353C370.211 44.2607 365.907 48.2794 359.929 48.2794C353.951 48.2794 349.499 44.0545 349.499 38.0838Z" fill="#F3FCFF"/>
<path d="M630.337 38.0817C630.283 36.7038 630.518 35.3307 631.019 34.0465C631.523 32.7648 632.284 31.5978 633.259 30.6254C634.234 29.6505 635.399 28.8866 636.68 28.3828C637.965 27.8814 639.338 27.647 640.713 27.7009C646.691 27.7009 650.998 32.0079 650.998 38.1332C650.998 44.2586 646.691 48.2773 640.713 48.2773C634.735 48.2773 630.337 44.0524 630.337 38.0817Z" fill="#F3FCFF"/>
<path d="M600.046 118.344C599.992 116.966 600.222 115.593 600.726 114.308C601.227 113.024 601.991 111.857 602.964 110.883C603.938 109.908 605.105 109.144 606.387 108.642C607.671 108.139 609.044 107.909 610.422 107.963C616.4 107.963 620.705 112.27 620.705 118.344C620.705 124.417 616.4 128.497 610.422 128.497C604.445 128.497 600.046 124.324 600.046 118.344Z" fill="#F3FCFF"/>
<path d="M367.731 59.25H351.989V127.934H367.731V59.25Z" fill="#F3FCFF"/>
<path d="M383.475 127.937V33.3086H399.214V127.958L383.475 127.937Z" fill="#F3FCFF"/>
<path d="M464.163 33.3086H479.905V127.958H467.192L465.346 118.157C460.987 125.311 452.894 129.578 442.206 129.578C421.96 129.578 410.452 113.299 410.452 93.7091C410.452 74.1192 421.96 57.7162 442.206 57.7162C452.915 57.7162 460.324 62.4708 464.163 68.2938V33.3086ZM445.484 71.5744C433.583 71.5744 426.173 81.1045 426.173 93.6786C426.173 105.99 433.583 115.645 445.484 115.645C457.386 115.645 464.795 105.99 464.795 93.6786C464.816 81.0647 457.543 71.5533 445.505 71.5533L445.484 71.5744Z" fill="#F3FCFF"/>
<path d="M556.755 109.144C551.867 121.446 540.483 129.521 525.54 129.521C504.788 129.521 491.298 114.032 491.298 93.519C491.298 73.5355 505.058 57.6621 525.428 57.6621C545.798 57.6621 559.162 73.1395 559.162 93.2589C559.227 94.9016 559.084 96.5442 558.738 98.1494H506.759C507.942 109.008 514.958 116.017 525.936 116.017C533.479 116.017 539.696 112.31 542.602 105.437L556.755 109.144ZM507.019 86.5126H543.534C542.206 76.9825 535.598 70.4939 525.407 70.4939C515.216 70.4939 508.608 77.1161 507.019 86.5126Z" fill="#F3FCFF"/>
<path d="M607.291 73.4123C606.108 73.2459 604.915 73.1569 603.72 73.1405C592.608 73.1405 585.998 78.9659 585.998 92.2007V127.936H570.255V59.2612H582.968L584.802 68.782C587.314 64.4211 593.105 58.5957 605.048 58.5957C605.702 58.5957 607.291 58.7316 607.291 58.7316V73.4123Z" fill="#F3FCFF"/>
<path d="M648.566 59.25H632.826V127.934H648.566V59.25Z" fill="#F3FCFF"/>
<path d="M659.806 93.6549C659.806 74.3346 673.565 57.6621 695.388 57.6621C717.211 57.6621 731.105 74.3346 731.105 93.6549C731.105 112.975 717.357 129.521 695.388 129.521C673.42 129.521 659.806 112.975 659.806 93.6549ZM695.388 115.621C706.906 115.621 715.363 106.89 715.363 93.6549C715.363 80.4177 706.906 71.5531 695.388 71.5531C683.869 71.5531 675.527 80.2818 675.527 93.6549C675.527 107.026 684.014 115.621 695.388 115.621Z" fill="#F3FCFF"/>
</g>
<defs>
<clipPath id="clip0_2184_1331">
<rect width="731.104" height="157" fill="white" transform="translate(0 0.0859375)"/>
</clipPath>
</defs>
</svg>
