<svg width="508" height="115" viewBox="0 0 508 115" fill="none" xmlns="http://www.w3.org/2000/svg">
<g clip-path="url(#clip0_2189_1194)">
<path fill-rule="evenodd" clip-rule="evenodd" d="M290.799 30.8938C293.352 28.4463 299.104 24.1747 308.147 24.1747V24.167C325.387 24.167 338.897 38.475 338.897 56.7389C338.897 75.0028 325.387 89.3107 308.147 89.3107C299.096 89.3107 293.344 85.0315 290.799 82.5916V87.8792H270.352V0.246094H290.799V30.8938ZM304.448 71.3624C312.499 71.3624 318.574 65.0743 318.574 56.7466C318.574 48.4112 312.568 42.1308 304.448 42.1308C296.328 42.1308 290.207 48.4112 290.207 56.7466C290.207 65.082 296.397 71.3624 304.448 71.3624ZM20.4467 30.8939C22.992 28.4464 28.7438 24.1748 37.7868 24.1748V24.1671C55.0269 24.1671 68.5376 38.475 68.5376 56.739C68.5376 75.0029 55.0269 89.3108 37.7868 89.3108C28.7438 89.3108 22.992 85.0315 20.4467 82.5917V113.24H0V25.6064H20.4467V30.8939ZM34.0881 71.3624C42.1391 71.3624 48.2139 65.0744 48.2139 56.7467C48.2139 48.4113 42.2083 42.1309 34.0881 42.1309C25.9679 42.1309 19.8469 48.4113 19.8469 56.7467C19.8469 65.082 26.0371 71.3624 34.0881 71.3624ZM102.487 24.1749C111.515 24.1749 117.359 28.4927 119.95 30.9479V30.9402V25.6064H140.397V87.887H119.95V82.5533C117.359 85.0008 111.515 89.3186 102.487 89.3186C85.2472 89.3186 71.7365 75.0107 71.7365 56.7467C71.7365 38.4827 85.2472 24.1749 102.487 24.1749ZM106.301 71.3624C114.352 71.3624 120.427 65.0744 120.427 56.7467C120.427 48.4114 114.422 42.131 106.301 42.131C98.1811 42.131 92.0602 48.4114 92.0602 56.7467C92.0602 65.0821 98.2503 71.3624 106.301 71.3624ZM243.022 30.9479C240.431 28.4927 234.587 24.1749 225.559 24.1749C208.319 24.1749 194.808 38.4827 194.808 56.7467C194.808 75.0107 208.319 89.3186 225.559 89.3186C234.587 89.3186 240.431 85.0008 243.022 82.5533V87.887H263.469V25.6064H243.022V30.9402V30.9479ZM243.507 56.7467C243.507 65.0744 237.432 71.3624 229.381 71.3624C221.33 71.3624 215.14 65.0821 215.14 56.7467C215.14 48.4114 221.261 42.131 229.381 42.131C237.501 42.131 243.507 48.4114 243.507 56.7467ZM374.738 24.1749C355.953 24.1749 341.242 38.4827 341.242 56.7467C341.242 75.0107 355.953 89.3186 374.738 89.3186C393.524 89.3186 408.111 75.0107 408.111 56.7467C408.111 38.4827 393.447 24.1749 374.738 24.1749ZM388.864 56.7467C388.864 65.0744 382.79 71.3624 374.738 71.3624C366.687 71.3624 360.497 65.0821 360.497 56.7467C360.497 48.4114 366.618 42.131 374.738 42.131C382.859 42.131 388.864 48.4114 388.864 56.7467ZM413.564 0.246094H434.01V87.8792H413.564V0.246094ZM487.553 25.6064V30.9401C484.962 28.4849 479.118 24.1671 470.09 24.1671C452.85 24.1671 439.339 38.475 439.339 56.739C439.339 75.0029 452.85 89.3108 470.09 89.3108C479.118 89.3108 484.962 84.9929 487.553 82.5454V87.8792H508V25.6064H487.553ZM488.03 56.7467C488.03 65.0744 481.955 71.3624 473.904 71.3624C465.853 71.3624 459.663 65.082 459.663 56.7467C459.663 48.4113 465.784 42.1309 473.904 42.1309C482.024 42.1309 488.03 48.4113 488.03 56.7467ZM168.89 25.3944H148.525V87.9903H168.89V45.0688C171.298 48.768 175.461 51.2126 180.192 51.2126C187.642 51.2126 193.682 45.1511 193.682 37.674C193.682 30.1969 187.642 24.1354 180.192 24.1354C175.461 24.1354 171.298 26.58 168.89 30.2792V25.3944Z" fill="#FAF5F5"/>
</g>
<defs>
<clipPath id="clip0_2189_1194">
<rect width="508" height="114" fill="white" transform="translate(0 0.146484)"/>
</clipPath>
</defs>
</svg>
