<svg width="130" height="23" viewBox="0 0 130 23" fill="none" xmlns="http://www.w3.org/2000/svg">
<g clip-path="url(#clip0_2624_52261)">
<path fill-rule="evenodd" clip-rule="evenodd" d="M39.6675 2.63331C39.6675 1.36343 40.697 0.333984 41.9669 0.333984H46.6747C46.7923 0.333984 46.9078 0.342806 47.0206 0.359824C48.2201 0.43755 49.169 1.4351 49.169 2.65428V18.3339H50.7929C52.0628 18.3339 53.0922 19.3633 53.0922 20.6332C53.0922 21.9031 52.0628 22.9325 50.7929 22.9325H42.2316C40.9617 22.9325 39.9322 21.9031 39.9322 20.6332C39.9322 19.3633 40.9617 18.3339 42.2316 18.3339H44.5703V4.93264H41.9669C40.697 4.93264 39.6675 3.9032 39.6675 2.63331ZM12.2839 0.353524C13.5538 0.353524 14.5832 1.38297 14.5832 2.65285V19.1424C14.5783 20.1327 14.1899 21.0886 13.491 21.8009C12.7901 22.5148 11.832 22.9263 10.8228 22.9324L10.809 22.9325L4.48376 22.9324C3.47087 22.9324 2.50716 22.524 1.80129 21.8093M12.2839 0.353524C11.014 0.353524 9.89062 0.353524 9.5 2ZM61.7241 0.35495C62.994 0.35495 64.0234 1.38439 64.0234 2.65428V6.5H66.262C67.5319 6.5 68.5614 7.52945 68.5614 8.79933C68.5614 10.0692 67.5319 11.0987 66.262 11.0987H64.0234V18.3339H66.3781C67.648 18.3339 68.6774 19.3633 68.6774 20.6332C68.6774 21.9031 67.648 22.9325 66.3781 22.9325H61.7013C60.4314 22.9325 59.402 21.9031 59.402 20.6332C59.402 20.5229 59.4097 20.4144 59.4248 20.3082V11.0987H56.9856C55.7157 11.0987 54.6863 10.0692 54.6863 8.79933C54.6863 7.52945 55.7157 6.5 56.9856 6.5H59.4248V2.65428C59.4248 1.38439 60.4542 0.35495 61.7241 0.35495ZM77.5555 0.35495C78.8254 0.35495 79.8548 1.38439 79.8548 2.65428V6.43794C80.0253 6.39765 80.2031 6.37632 80.3858 6.37632H85.3734C86.3824 6.38252 87.34 6.79373 88.0408 7.50746C88.7403 8.21984 89.1288 9.1762 89.1335 10.1671L89.1335 10.1779L89.1335 20.6333C89.1335 21.9032 88.104 22.9326 86.8342 22.9326C85.5643 22.9326 84.5348 21.9032 84.5348 20.6333V10.975H80.3858C80.2031 10.975 80.0253 10.9537 79.8548 10.9134V20.6331C79.8548 21.903 78.8254 22.9324 77.5555 22.9324C76.2856 22.9324 75.2562 21.903 75.2562 20.6331V2.65428C75.2562 1.38439 76.2856 0.35495 77.5555 0.35495ZM118.02 0.35495C119.29 0.35495 120.319 1.38439 120.319 2.65428V6.45106C120.505 6.40229 120.701 6.37632 120.903 6.37632H125.891C126.899 6.38253 127.857 6.79379 128.558 7.5085C129.26 8.22305 129.645 9.1791 129.651 10.1644L129.651 10.1779L129.651 18.9348C129.651 19.9842 129.24 20.9945 128.505 21.7445L128.502 21.7472C127.763 22.4999 126.751 22.9315 125.686 22.9326L118.02 22.9326C116.75 22.9326 115.72 21.9032 115.72 20.6333V2.65428C115.72 1.38439 116.75 0.35495 118.02 0.35495ZM120.319 10.9002V18.334H125.052V10.975H120.903C120.701 10.975 120.505 10.949 120.319 10.9002ZM20.9646 4.78628C20.9646 2.52523 22.7764 0.623854 25.095 0.623854H30.7095C33.0281 0.623854 34.8398 2.52523 34.8398 4.78628V18.6825C34.8398 20.9435 33.0281 22.845 30.7095 22.845H25.095C22.7763 22.845 20.9646 20.9435 20.9646 18.6825V4.78628ZM25.5633 5.22251V18.2463H30.2412V5.22251H25.5633ZM97.8149 0.623854C99.0848 0.623854 100.114 1.6533 100.114 2.92318V18.2523H104.797V2.92318C104.797 1.6533 105.826 0.623854 107.096 0.623854C108.366 0.623854 109.395 1.6533 109.395 2.92318V18.6886C109.395 19.7799 108.969 20.8341 108.2 21.6175C107.428 22.4024 106.373 22.851 105.265 22.851H99.6542M99.6542 22.851C95.5 22 95.5 19.5 95.5156 18.6756L95.5156 18.6701L97.8147 18.681H95.5156V18.6756V2.92318C95.5156 1.6533 96.545 0.623854 97.8149 0.623854M9.5 2L1.80129 21.8093ZM9.98458 18.3337V10.9141C9.81527 10.9538 9.63875 10.9748 9.45732 10.9748L5.5 12L5.29934 18.3337H9.98458ZM1.80129 21.8093C2 21.5 12.4653 0.353524 12.2839 0.353524L9.5 2L8 8.5H5C3 8.5 1.80129 8.5 1 10M1.80129 21.8093C1.09692 21.0961 0.705575 20.2911 0.700684 19.2969L1 10" fill="#29E3C1"/>
</g>
<defs>
<clipPath id="clip0_2624_52261">
<rect width="130" height="23" fill="white"/>
</clipPath>
</defs>
</svg>
