<svg preserveAspectRatio="xMidYMid" width="488" height="160" viewBox="0 0 488 160" fill="none" xmlns="http://www.w3.org/2000/svg">
<g clip-path="url(#clip0_2166_6006)">
<path fill-rule="evenodd" clip-rule="evenodd" d="M247.624 0.109375H308.412L154.919 264.616L0.416016 0.109375H62.5868L154.919 159.347L247.624 0.109375Z" fill="#41B883"/>
<path fill-rule="evenodd" clip-rule="evenodd" d="M190.181 0.0546875H247.995L154.843 159.624L62.4385 0.0546875H119.349L154.843 61.4865L190.181 0.0546875Z" fill="#35495E"/>
<path fill-rule="evenodd" clip-rule="evenodd" d="M318.396 45.6146C318.396 43.2688 319.693 41.3141 322.288 39.7501C324.883 38.1862 327.596 37.4043 330.426 37.4043C334.358 37.4043 336.795 38.8899 337.739 41.8614L379.256 181.199L420.538 41.8614C421.639 38.8901 423.998 37.4043 427.615 37.4043C430.603 37.4043 433.394 38.2644 435.989 39.9846C438.584 41.7048 439.881 43.6596 439.881 45.8491C439.881 46.0055 439.843 46.2401 439.763 46.5528C439.684 46.8656 439.645 47.1784 439.645 47.4911L391.759 203.484C390.029 208.019 385.862 210.287 379.257 210.287C372.651 210.287 368.641 208.019 367.226 203.484L318.87 47.4912C318.555 46.5529 318.396 45.9273 318.396 45.6146ZM441.74 165.716V104.728C441.74 102.851 442.723 101.209 444.689 99.8015C446.654 98.394 448.974 97.6903 451.648 97.6903C454.164 97.6903 456.405 98.4332 458.371 99.9188C460.336 101.404 461.319 103.007 461.319 104.727V165.716C461.319 172.753 463.993 179.086 469.34 184.716C474.687 190.346 481.056 193.161 488.447 193.161C495.682 193.161 501.972 190.385 507.319 184.834C512.666 179.282 515.339 172.909 515.339 165.716V104.489C515.339 102.769 516.322 101.205 518.288 99.7979C520.254 98.3905 522.573 97.6868 525.247 97.6868C528.078 97.6868 530.397 98.3514 532.206 99.6807C534.014 101.01 534.919 102.613 534.919 104.489V165.716C534.919 177.757 530.319 188.274 521.119 197.266C511.919 206.258 501.029 210.754 488.448 210.754C475.709 210.754 464.741 206.258 455.54 197.266C446.341 188.274 441.74 177.757 441.74 165.716ZM550.927 165.247V140.616C550.927 128.574 555.528 118.175 564.727 109.417C573.927 100.66 584.975 96.2814 597.87 96.2814C610.137 96.2814 620.752 100.386 629.716 108.597C638.68 116.807 643.162 127.089 643.162 139.443C643.162 143.978 642.612 147.614 641.511 150.351C640.41 153.088 638.72 155.043 636.439 156.216C634.159 157.389 632.036 158.132 630.07 158.444C628.104 158.757 625.47 158.914 622.167 158.914H570.506V165.951C570.506 174.552 573.612 181.433 579.824 186.594C586.036 191.754 594.095 194.335 604.003 194.335C609.193 194.335 613.714 193.553 617.567 191.989C621.419 190.425 624.526 188.9 626.884 187.415C629.243 185.929 631.131 185.186 632.546 185.186C634.748 185.186 636.635 186.164 638.207 188.119C639.78 190.073 640.566 192.067 640.566 194.1C640.566 197.697 636.989 201.372 629.833 205.125C622.678 208.878 613.832 210.755 603.295 210.755C587.883 210.755 575.302 206.571 565.552 198.205C555.802 189.838 550.927 178.852 550.927 165.247ZM570.506 145.777H614.147C618.236 145.777 620.988 145.269 622.403 144.252C623.819 143.236 624.526 141.242 624.526 138.271C624.526 131.233 621.932 125.056 616.742 119.739C611.552 114.422 605.183 111.763 597.635 111.763C590.243 111.763 583.874 114.226 578.527 119.152C573.18 124.078 570.507 130.138 570.507 137.332L570.506 145.777ZM653.041 198.087C653.041 194.646 654.221 191.714 656.579 189.29C658.938 186.866 661.848 185.654 665.307 185.654C668.61 185.654 671.441 186.866 673.8 189.29C676.159 191.714 677.338 194.646 677.338 198.087C677.338 201.371 676.159 204.225 673.8 206.649C671.441 209.073 668.61 210.284 665.307 210.284C661.848 210.284 658.938 209.073 656.579 206.649C654.221 204.225 653.041 201.371 653.041 198.087ZM670.468 254.151C670.468 251.649 671.254 249.577 672.827 247.935C674.399 246.293 676.287 245.471 678.488 245.471C684.621 245.471 688.632 243.204 690.519 238.669C692.406 234.134 693.35 227.331 693.35 218.261V104.491C693.35 102.458 694.254 100.816 696.063 99.5651C697.871 98.3141 700.191 97.6885 703.022 97.6885C705.852 97.6885 708.211 98.3141 710.098 99.5651C711.985 100.816 712.929 102.458 712.929 104.491V218.261C712.929 231.866 710.256 242.657 704.909 250.632C699.562 258.608 691.463 262.596 680.612 262.596C673.849 262.596 670.468 259.781 670.468 254.151ZM690.755 55.9339C690.755 52.9626 691.934 50.3824 694.293 48.1929C696.652 46.0035 699.561 44.9088 703.021 44.9088C706.324 44.9088 709.154 46.0035 711.513 48.1929C713.872 50.3823 715.052 52.9626 715.052 55.9339C715.052 58.9051 713.872 61.5247 711.513 63.7922C709.154 66.0598 706.324 67.1936 703.021 67.1936C699.719 67.1936 696.849 66.0598 694.411 63.7922C691.973 61.5246 690.755 58.9051 690.755 55.9339ZM727.525 192.924C727.525 190.891 728.192 188.898 729.53 186.943C730.866 184.988 732.478 184.011 734.365 184.011C735.623 184.011 737.432 184.949 739.791 186.826C742.15 188.702 745.531 190.54 749.934 192.338C754.337 194.137 759.527 195.036 765.503 195.036C773.366 195.036 779.067 193.628 782.605 190.813C786.144 187.998 787.913 184.48 787.913 180.257C787.913 175.097 785.947 170.992 782.016 167.942C778.084 164.893 773.287 162.586 767.626 161.022C761.964 159.458 756.303 157.738 750.641 155.861C744.98 153.985 740.183 150.857 736.252 146.478C732.32 142.1 730.354 136.313 730.354 129.12C730.354 120.206 733.539 112.504 739.908 106.014C746.277 99.5243 755.988 96.2794 769.041 96.2794C777.376 96.2794 785.003 97.5695 791.922 100.15C798.842 102.73 802.302 105.662 802.302 108.946C802.302 110.823 801.555 112.934 800.061 115.28C798.567 117.626 796.719 118.798 794.517 118.798C793.888 118.798 790.861 117.665 785.435 115.397C780.01 113.129 774.623 111.996 769.276 111.996C762.042 111.996 756.656 113.677 753.118 117.039C749.579 120.401 747.81 124.194 747.81 128.416C747.81 132.795 749.776 136.235 753.708 138.737C757.639 141.239 762.475 143.194 768.215 144.602C773.955 146.009 779.656 147.729 785.317 149.763C790.979 151.796 795.775 155.275 799.707 160.201C803.639 165.127 805.604 171.5 805.604 179.319C805.604 189.015 802.145 196.678 795.225 202.307C788.306 207.937 778.634 210.752 766.21 210.752C755.516 210.752 746.395 208.836 738.847 205.005C731.298 201.173 727.525 197.147 727.525 192.924Z" fill="#35495E"/>
<path fill-rule="evenodd" clip-rule="evenodd" d="M321.055 37.6888C323.995 35.9167 327.131 35 330.426 35C332.671 35 334.737 35.4214 336.446 36.4635C338.205 37.5355 339.391 39.146 340.021 41.1313L340.028 41.1518L379.25 172.786L418.265 41.0989L418.293 41.0234C419.001 39.1116 420.174 37.5434 421.859 36.4821C423.519 35.437 425.488 35 427.615 35C431.092 35 434.339 36.0097 437.309 37.9784C440.266 39.9387 442.277 42.54 442.277 45.8491C442.277 46.317 442.175 46.7901 442.085 47.1465C442.054 47.2689 442.041 47.3824 442.041 47.4911V47.8531L394.025 204.269L393.996 204.344C392.931 207.135 391.075 209.287 388.478 210.7C385.933 212.085 382.809 212.691 379.257 212.691C375.711 212.691 372.606 212.087 370.119 210.681C367.566 209.238 365.824 207.036 364.94 204.203L364.939 204.199L316.59 48.2312C316.427 47.743 316.291 47.2979 316.193 46.9104C316.106 46.5659 316 46.0877 316 45.6146C316 42.1745 317.982 39.541 321.055 37.6888ZM318.87 47.4912L367.226 203.484C368.641 208.019 372.651 210.287 379.257 210.287C385.862 210.287 390.029 208.019 391.759 203.484L439.645 47.4911C439.645 47.1784 439.684 46.8656 439.763 46.5528C439.843 46.2401 439.881 46.0055 439.881 45.8491C439.881 43.6596 438.584 41.7048 435.989 39.9846C433.394 38.2644 430.603 37.4043 427.615 37.4043C423.998 37.4043 421.639 38.8901 420.538 41.8614L379.256 181.199L337.739 41.8614C336.795 38.8899 334.358 37.4043 330.426 37.4043C327.596 37.4043 324.883 38.1862 322.288 39.7501C319.693 41.3141 318.396 43.2688 318.396 45.6146C318.396 45.9273 318.555 46.5529 318.87 47.4912ZM455.54 197.266L453.869 198.988C444.243 189.579 439.344 178.455 439.344 165.716V104.728C439.344 101.853 440.905 99.5573 443.297 97.8442C445.713 96.115 448.531 95.286 451.648 95.286C454.671 95.286 457.421 96.1911 459.812 97.9981C462.102 99.7293 463.715 101.962 463.715 104.727V165.716C463.715 172.068 466.103 177.823 471.074 183.057C475.993 188.237 481.746 190.757 488.447 190.757C494.988 190.757 500.669 188.279 505.596 183.163C510.546 178.023 512.944 172.237 512.944 165.716V104.489C512.944 101.705 514.577 99.5014 516.897 97.8406C519.312 96.1115 522.13 95.2825 525.247 95.2825C528.452 95.2825 531.305 96.0386 533.621 97.7408L532.206 99.6807C530.397 98.3514 528.078 97.6868 525.247 97.6868C522.573 97.6868 520.254 98.3905 518.288 99.7979C516.322 101.205 515.339 102.769 515.339 104.489V165.716C515.339 172.909 512.666 179.282 507.319 184.834C501.972 190.385 495.682 193.161 488.447 193.161C481.056 193.161 474.687 190.346 469.34 184.716C463.993 179.086 461.319 172.753 461.319 165.716V104.727C461.319 103.007 460.336 101.404 458.371 99.9188C456.405 98.4332 454.164 97.6903 451.648 97.6903C448.974 97.6903 446.654 98.394 444.689 99.8015C442.723 101.209 441.74 102.851 441.74 104.728V165.716C441.74 177.757 446.341 188.274 455.54 197.266ZM455.54 197.266L453.869 198.988C463.512 208.414 475.079 213.158 488.448 213.158C501.667 213.158 513.154 208.408 522.79 198.988C532.417 189.579 537.314 178.455 537.314 165.716V104.489C537.314 101.689 535.907 99.4212 533.621 97.7408L532.206 99.6807C534.014 101.01 534.919 102.613 534.919 104.489V165.716C534.919 177.757 530.319 188.274 521.119 197.266C511.919 206.258 501.029 210.754 488.448 210.754C475.709 210.754 464.741 206.258 455.54 197.266ZM637.532 158.356C635.088 159.613 632.721 160.457 630.445 160.819C628.301 161.16 625.525 161.318 622.167 161.318H572.901V165.951C572.901 173.887 575.727 180.069 581.351 184.741C587.042 189.469 594.521 191.93 604.003 191.93C608.959 191.93 613.162 191.183 616.668 189.76C620.448 188.226 623.414 186.762 625.611 185.378C628.046 183.845 630.42 182.782 632.546 182.782C635.577 182.782 638.114 184.175 640.071 186.608C641.905 188.887 642.962 191.398 642.962 194.1C642.962 196.753 641.635 199.141 639.597 201.234C637.56 203.326 634.631 205.321 630.943 207.256C623.357 211.235 614.104 213.159 603.295 213.159C587.433 213.159 574.263 208.843 563.995 200.032C553.679 191.18 548.532 179.509 548.532 165.247V140.616C548.532 127.874 553.432 116.856 563.079 107.673L564.727 109.417C555.528 118.175 550.927 128.574 550.927 140.616V165.247C550.927 178.852 555.802 189.838 565.552 198.205C575.302 206.571 587.883 210.755 603.295 210.755C613.832 210.755 622.678 208.878 629.833 205.125C636.989 201.372 640.566 197.697 640.566 194.1C640.566 192.067 639.78 190.073 638.207 188.119C636.635 186.164 634.748 185.186 632.546 185.186C631.131 185.186 629.243 185.929 626.884 187.415C624.526 188.9 621.419 190.425 617.567 191.989C613.714 193.553 609.193 194.335 604.003 194.335C594.095 194.335 586.036 191.754 579.824 186.594C573.612 181.433 570.506 174.552 570.506 165.951V158.914H622.167C625.47 158.914 628.104 158.757 630.07 158.444C632.036 158.132 634.159 157.389 636.439 156.216C638.72 155.043 640.41 153.088 641.511 150.351C642.612 147.614 643.162 143.978 643.162 139.443C643.162 127.089 638.68 116.807 629.716 108.597C620.752 100.386 610.137 96.2814 597.87 96.2814C584.975 96.2814 573.927 100.66 564.727 109.417L563.079 107.673C572.732 98.484 584.373 93.8771 597.87 93.8771C610.727 93.8771 621.92 98.2014 631.331 106.821C640.801 115.494 645.558 126.424 645.558 139.443C645.558 144.139 644.993 148.117 643.732 151.251C642.45 154.44 640.399 156.88 637.532 158.356ZM675.513 187.61C678.317 190.491 679.734 194.029 679.734 198.087C679.734 202.02 678.294 205.471 675.513 208.329C672.715 211.204 669.271 212.689 665.307 212.689C661.221 212.689 657.688 211.228 654.866 208.329C652.085 205.471 650.645 202.021 650.645 198.087C650.645 194.029 652.062 190.491 654.866 187.61C657.688 184.71 661.221 183.25 665.307 183.25C669.271 183.25 672.715 184.735 675.513 187.61ZM656.579 189.29C658.938 186.866 661.848 185.654 665.307 185.654C668.61 185.654 671.441 186.866 673.8 189.29C676.159 191.714 677.338 194.646 677.338 198.087C677.338 201.371 676.159 204.225 673.8 206.649C671.441 209.073 668.61 210.284 665.307 210.284C661.848 210.284 658.938 209.073 656.579 206.649C654.221 204.225 653.041 201.371 653.041 198.087C653.041 194.646 654.221 191.714 656.579 189.29ZM694.703 97.5855C697.013 95.9878 699.845 95.2842 703.022 95.2842C706.204 95.2842 709.051 95.9898 711.419 97.5589L710.098 99.5651C708.211 98.3141 705.852 97.6885 703.022 97.6885C700.191 97.6885 697.871 98.3141 696.063 99.5651C694.254 100.816 693.35 102.458 693.35 104.491V218.261C693.35 227.331 692.406 234.134 690.519 238.669C688.632 243.204 684.621 245.471 678.488 245.471C676.287 245.471 674.399 246.293 672.827 247.935C671.254 249.577 670.468 251.649 670.468 254.151C670.468 259.781 673.849 262.596 680.612 262.596C691.463 262.596 699.562 258.608 704.909 250.632C710.256 242.657 712.929 231.866 712.929 218.261V104.491C712.929 102.458 711.985 100.816 710.098 99.5651L711.419 97.5589C713.885 99.194 715.325 101.546 715.325 104.491V218.261C715.325 232.154 712.598 243.469 706.896 251.975C701.039 260.711 692.136 265 680.612 265C676.959 265 673.774 264.249 671.475 262.335C669.09 260.35 668.072 257.467 668.072 254.151C668.072 251.094 669.054 248.404 671.1 246.268C673.108 244.171 675.613 243.067 678.488 243.067C681.275 243.067 683.374 242.55 684.92 241.676C686.429 240.823 687.557 239.549 688.309 237.742C690.01 233.654 690.954 227.237 690.954 218.261V104.491C690.954 101.592 692.311 99.2406 694.703 97.5855ZM692.782 65.5556C689.922 62.8946 688.359 59.66 688.359 55.9339C688.359 52.2309 689.864 49.0289 692.667 46.4277C695.504 43.7942 699.009 42.5045 703.021 42.5045C706.908 42.5045 710.325 43.8149 713.14 46.4277C715.942 49.0288 717.447 52.2311 717.447 55.9339C717.447 59.632 715.947 62.8593 713.17 65.5286C710.36 68.23 706.933 69.5979 703.021 69.5979C699.11 69.5979 695.66 68.2321 692.782 65.5556ZM711.513 63.7922C709.154 66.0598 706.324 67.1936 703.021 67.1936C699.719 67.1936 696.849 66.0598 694.411 63.7922C691.973 61.5246 690.755 58.9051 690.755 55.9339C690.755 52.9626 691.934 50.3824 694.293 48.1929C696.652 46.0035 699.561 44.9088 703.021 44.9088C706.324 44.9088 709.154 46.0035 711.513 48.1929C713.872 50.3823 715.052 52.9626 715.052 55.9339C715.052 58.9051 713.872 61.5247 711.513 63.7922ZM800.061 115.28C801.555 112.934 802.302 110.823 802.302 108.946C802.302 105.662 798.842 102.73 791.922 100.15C785.003 97.5695 777.376 96.2794 769.041 96.2794C755.988 96.2794 746.277 99.5243 739.908 106.014C733.539 112.504 730.354 120.206 730.354 129.12C730.354 136.313 732.32 142.1 736.252 146.478C740.183 150.857 744.98 153.985 750.641 155.861C756.303 157.738 761.964 159.458 767.626 161.022C773.287 162.586 778.084 164.893 782.016 167.942C785.947 170.992 787.913 175.097 787.913 180.257C787.913 184.48 786.144 187.998 782.605 190.813C779.067 193.628 773.366 195.036 765.503 195.036C759.527 195.036 754.337 194.137 749.934 192.338C745.531 190.54 742.15 188.702 739.791 186.826C737.432 184.949 735.623 184.011 734.365 184.011C732.478 184.011 730.866 184.988 729.53 186.943C728.192 188.898 727.525 190.891 727.525 192.924C727.525 197.147 731.298 201.173 738.847 205.005C746.395 208.836 755.516 210.752 766.21 210.752C778.634 210.752 788.306 207.937 795.225 202.307C802.145 196.678 805.604 189.015 805.604 179.319C805.604 171.5 803.639 165.127 799.707 160.201C795.775 155.275 790.979 151.796 785.317 149.763C779.656 147.729 773.955 146.009 768.215 144.602C762.475 143.194 757.639 141.239 753.708 138.737C749.776 136.235 747.81 132.795 747.81 128.416C747.81 124.194 749.579 120.401 753.118 117.039L754.765 118.785C751.622 121.772 750.206 124.96 750.206 128.416C750.206 131.907 751.696 134.61 754.99 136.707C758.652 139.037 763.232 140.905 768.784 142.266C774.606 143.694 780.386 145.438 786.124 147.499C792.223 149.689 797.381 153.441 801.577 158.698C805.924 164.145 808 171.087 808 179.319C808 189.67 804.267 198.046 796.734 204.175C789.247 210.267 778.97 213.156 766.21 213.156C755.238 213.156 745.726 211.191 737.766 207.15C733.862 205.169 730.761 203.054 728.61 200.759C726.438 198.441 725.129 195.818 725.129 192.924C725.129 190.329 725.99 187.869 727.555 185.582C727.555 185.582 727.555 185.582 727.555 185.582M800.061 115.28C798.567 117.626 796.719 118.798 794.517 118.798C793.888 118.798 790.861 117.665 785.435 115.397C780.01 113.129 774.623 111.996 769.276 111.996C762.042 111.996 756.656 113.677 753.118 117.039L754.765 118.785C757.683 116.011 762.363 114.4 769.276 114.4C774.277 114.4 779.351 115.459 784.514 117.617C787.236 118.754 789.382 119.618 790.937 120.201C791.712 120.491 792.368 120.722 792.888 120.883C793.148 120.963 793.4 121.035 793.632 121.088C793.823 121.133 794.156 121.203 794.517 121.203C797.752 121.203 800.275 119.407 802.079 116.575C803.708 114.018 804.697 111.453 804.697 108.946C804.697 106.354 803.305 104.186 801.253 102.447C799.22 100.725 796.334 99.23 792.757 97.8961C785.538 95.2042 777.624 93.8751 769.041 93.8751C755.629 93.8751 745.186 97.2093 738.201 104.327C731.401 111.256 727.959 119.559 727.959 129.12C727.959 136.771 730.061 143.175 734.472 148.088C738.687 152.782 743.84 156.139 749.89 158.144C755.589 160.034 761.289 161.766 766.99 163.34C772.405 164.836 776.906 167.018 780.551 169.844C783.872 172.421 785.518 175.811 785.518 180.257C785.518 183.686 784.131 186.532 781.117 188.929C778.217 191.236 773.186 192.631 765.503 192.631C759.76 192.631 754.89 191.767 750.837 190.111C746.537 188.355 743.388 186.619 741.279 184.942C740.03 183.948 738.855 183.144 737.765 182.579C736.708 182.03 735.543 181.606 734.365 181.606C731.489 181.606 729.212 183.159 727.555 185.582M572.902 143.373H614.147C616.106 143.373 617.66 143.25 618.844 143.031C620.061 142.807 620.71 142.512 621.01 142.297C621.46 141.973 622.131 141.005 622.131 138.271C622.131 131.902 619.81 126.318 615.031 121.422C610.301 116.575 604.552 114.168 597.635 114.168C590.831 114.168 585.043 116.413 580.147 120.924C575.287 125.401 572.902 130.821 572.902 137.332L572.902 143.373ZM570.506 145.777L570.507 137.332C570.507 130.138 573.18 124.078 578.527 119.152C583.874 114.226 590.243 111.763 597.635 111.763C605.183 111.763 611.552 114.422 616.742 119.739C621.932 125.056 624.526 131.233 624.526 138.271C624.526 141.242 623.819 143.236 622.403 144.252C620.988 145.269 618.236 145.777 614.147 145.777H570.506Z" fill="#35495E"/>
</g>
<defs>
<clipPath id="clip0_2166_6006">
<rect width="808" height="265" fill="white"/>
</clipPath>
</defs>
</svg>
