<svg width="35" height="28" fill="none" xmlns="http://www.w3.org/2000/svg"><path fill-rule="evenodd" clip-rule="evenodd" d="M30.93 21.619c-.756-.05-.557-1.779-2.158-1.587-1.142.134-1.268 1.45-1.366 2.477-.113 1.15-.25 2.122-.6 1.96-.294-.131-.217-.654-.34-2.254-.143-1.833-.61-2.841-1.73-3.016-1.378-.211-1.91 1.806-2.149 2.59-.235.774-.649 1.127-.912 1.127-.23 0-.613-.105-.721-1.023-.108-.924.675-2.511 1.759-3.62 3.255-3.333 7.934-5.684 7.934-10.838C30.647 2.572 27.044 0 23.73 0c-2.538 0-3.95 1.444-4.441 1.917-.789.76-1.132 1.609-1.434 1.609-.297 0-.637-.849-1.423-1.609C15.942 1.444 14.527 0 11.993 0 8.678 0 5.076 2.572 5.076 7.435c0 5.153 4.674 7.505 7.933 10.838 1.083 1.11 1.847 2.69 1.757 3.62-.099 1-.495.955-.678.95-.104-.009-.613-.184-.924-1.32-.284-1.041-.642-1.995-1.83-2.058-1.32-.078-1.668 1.69-1.78 3.093-.099 1.206-.133 3.47-.6 3.284-.272-.111-.405-2.706-.627-4.696-.172-1.54-.382-4.83-1.306-5.418-1.119-.71-2.1.088-2.408 1.348-.228.944-.264 1.724-.554 2.993-.218.936-.463 1.54-1.409 1.54L0 21.624v1.393h.607c3.428.137 4.395-.202 4.804-1.705.365-1.344.509-2.884.59-3.314.126-.652.542-.977.721.839.092.902.179 2.053.32 3.222.42 3.438.529 5.813 2.078 5.936 1.717.143 1.726-2.915 1.84-4.126.069-.77.172-2.975.575-2.736.556.325.342 3.09 2.985 3.205 1.513.067 2.067-1.046 2.166-2.279.09-1.165-1.052-2.893-2.611-4.382-3.753-3.588-6.37-5.437-6.37-9.393-.001-4.039 2.9-6.042 5.438-6.042.556 0 2.263-.091 4.324 3.15.087.136.253.193.393.215.143-.022.308-.079.392-.215 2.061-3.241 3.767-3.15 4.329-3.15 2.533 0 5.438 2.003 5.438 6.041 0 3.957-2.639 5.708-6.392 9.297-1.556 1.485-2.622 3.31-2.59 4.48.028 1.121.652 2.346 2.166 2.278 2.554-.115 2.41-2.146 2.933-3.241.284-.588.649-.588.74.296.097.928.097 1.193.195 2.133.126 1.21.569 2.571 1.697 2.465.967-.091 1.524-.673 1.707-2.415.052-.509.091-.737.156-1.476.04-.417.173-.738.36-.678.195.069.366.498.5.788.399.867 1.32.82 1.535.825.935.019 1.261.005 1.261.005L35 23.03v-1.36c-1.56-.005-3.614-.019-4.07-.051z" fill="#ED002D"/></svg>