<svg preserveAspectRatio="xMidYMid" width="479" height="160" viewBox="0 0 479 160" fill="none" xmlns="http://www.w3.org/2000/svg">
<g clip-path="url(#clip0_2184_1289)">
<path fill-rule="evenodd" clip-rule="evenodd" d="M57.6721 104.66C57.6721 106.42 59.0921 107.84 60.8521 107.84H104.752C106.512 107.84 107.942 106.41 107.832 104.66C106.252 79.43 86.0721 59.25 60.8421 57.67C59.0921 57.56 57.6621 59 57.6621 60.75V104.65L57.6721 104.66Z" fill="#A8B4CD"/>
<path fill-rule="evenodd" clip-rule="evenodd" d="M50.6821 60.8499C50.6821 59.0899 49.2621 57.6699 47.5021 57.6699H3.60206C1.84206 57.6699 0.412062 59.0999 0.522062 60.8499C2.10206 86.0799 22.2821 106.26 47.5121 107.84C49.2621 107.95 50.6921 106.51 50.6921 104.76V60.8599L50.6821 60.8499Z" fill="#A8B4CD"/>
<path fill-rule="evenodd" clip-rule="evenodd" d="M50.6821 47.4998C50.6821 49.2598 49.2621 50.6798 47.5021 50.6798H3.60206C1.84206 50.6798 0.412062 49.2498 0.522062 47.4998C2.09206 22.2798 22.2721 2.08982 47.5021 0.509818C49.2521 0.399818 50.6821 1.83982 50.6821 3.58982V47.4898V47.4998Z" fill="#FF62FD"/>
<path fill-rule="evenodd" clip-rule="evenodd" d="M57.6721 3.68977C57.6721 1.92977 59.0921 0.509766 60.8521 0.509766H104.752C106.512 0.509766 107.942 1.93977 107.832 3.68977C106.252 28.9198 86.0721 49.0998 60.8421 50.6798C59.0921 50.7898 57.6621 49.3498 57.6621 47.5998V3.68977H57.6721Z" fill="#0078FF"/>
<path d="M161.792 49.96C159.812 45.67 156.222 43.52 151.372 43.52C144.902 43.52 140.592 48.71 140.592 55.33C140.592 61.95 145.262 67.14 151.722 67.14C156.392 67.14 159.622 64.99 161.782 60.88H175.972C173.282 72.51 163.222 80.02 151.372 80.02C137.542 80.02 126.772 68.93 126.772 55.15C126.772 41.37 137.722 30.46 151.192 30.46C163.402 30.46 173.462 38.15 175.972 49.96H161.782H161.792Z" fill="#EDECEC"/>
<path d="M182.082 78.3997V32.0696H195.192V37.0796H195.372C197.882 32.0696 201.662 30.6396 207.042 30.6396V44.5897C198.782 44.5897 196.092 47.8097 196.092 52.9997V78.5797H182.082V78.3997Z" fill="#EDECEC"/>
<path d="M246.562 55.1397C246.562 48.6997 241.352 43.3297 234.712 43.3297C228.072 43.3297 223.222 48.5197 223.222 55.3197C223.222 61.7597 228.432 66.9497 234.892 66.9497C241.532 67.1297 246.562 61.9397 246.562 55.1397ZM246.562 78.3997V73.3897H246.382C244.402 77.4997 238.842 80.0097 232.732 80.0097C218.902 80.0097 209.382 69.2797 209.382 55.1397C209.382 40.9997 219.442 30.4497 232.732 30.4497C238.482 30.4497 243.682 32.7797 246.382 36.8897H246.562V31.8797H260.572V78.2097H246.562V78.3897V78.3997Z" fill="#EDECEC"/>
<path d="M301.332 78.3999V44.4099H286.242V78.3999H272.232V44.4099H266.122V32.0699H272.232V30.9999C272.232 21.5199 277.262 16.6899 290.372 16.6899H291.272V27.0699C287.142 27.0699 286.062 29.0399 286.062 32.0799H301.152V16.6999H315.162V32.0799H322.702V44.4199H315.162V78.4099H301.332V78.3999Z" fill="#EDECEC"/>
</g>
<defs>
<clipPath id="clip0_2184_1289">
<rect width="322.19" height="107.33" fill="white" transform="translate(0.512207 0.509766)"/>
</clipPath>
</defs>
</svg>
