<svg preserveAspectRatio="xMidYMid" width="890" height="160" viewBox="0 0 890 160" fill="none" xmlns="http://www.w3.org/2000/svg">
<g clip-path="url(#clip0_2109_4982)">
<path d="M602.39 9.16516C604.056 9.11796 605.713 9.40521 607.266 10.0099C608.818 10.6146 610.233 11.5245 611.428 12.6857C612.623 13.8469 613.572 15.2359 614.221 16.7705C614.869 18.3051 615.203 19.9542 615.203 21.6202C615.203 23.2861 614.869 24.9352 614.221 26.4698C613.572 28.0044 612.623 29.3934 611.428 30.5546C610.233 31.7158 608.818 32.6257 607.266 33.2304C605.713 33.8351 604.056 34.1223 602.39 34.0752C599.148 33.9833 596.069 32.6308 593.809 30.305C591.548 27.9793 590.283 24.8636 590.283 21.6202C590.283 18.3767 591.548 15.261 593.809 12.9353C596.069 10.6095 599.148 9.25703 602.39 9.16516Z" fill="#E5E9F9"/>
<path d="M287.88 45.875H307.32V87.345C307.32 95.555 312.94 101.025 320.86 101.025C328.34 101.025 334.1 95.555 334.1 87.345V45.875H353.54V85.775C353.54 105.645 339.43 118.895 320.86 118.895C301.86 118.895 287.86 105.645 287.86 85.775L287.88 45.875Z" fill="#E5E9F9"/>
<path d="M579.93 117.165C575.555 118.286 571.057 118.86 566.54 118.875C548.54 118.875 538.03 109.945 538.03 92.095V62.305H526.4V45.875H538V27.875H557.44V45.875H577.6V62.285H557.47V90.365C557.47 98.435 561.47 101.455 570.72 101.455C571.87 101.455 574.89 101.315 579.93 100.875V117.165Z" fill="#E5E9F9"/>
<path d="M612.18 45.8945H592.74V117.175H612.18V45.8945Z" fill="#E5E9F9"/>
<path d="M628.31 19.875H647.75V117.135H628.31V19.875Z" fill="#E5E9F9"/>
<path d="M696 44.3047C716.87 44.0247 734.73 61.1547 734.3 81.4547C734.73 101.765 716.73 119.185 695.85 118.755C674.97 119.185 657.4 101.755 657.85 81.4547C657.38 61.1547 675.09 43.8747 696 44.3047ZM696 62.0147C685.2 62.0147 677.56 70.2247 677.56 81.6047C677.56 92.6847 685.2 100.895 696 100.895C706.51 100.895 714.43 92.6847 714.43 81.6047C714.43 70.5247 706.49 62.0147 696 62.0147Z" fill="#E5E9F9"/>
<path d="M491.09 44.3029C484.034 44.1607 477.16 46.5479 471.71 51.0329V45.8729H452.36V117.143H471.8V75.5529C471.8 67.3429 477.41 61.7329 485.33 61.7329C493.25 61.7329 498.58 67.3429 498.58 75.5529V117.163H517.88V72.9629C517.88 55.6829 507.65 44.3029 491.09 44.3029Z" fill="#E5E9F9"/>
<path d="M785.1 44.3047C776.34 44.3047 768.76 47.3047 763.85 52.7947V45.8747H744.35V143.065H763.79V110.255C769 115.875 776.46 118.875 785.1 118.875C804.97 118.875 819.66 102.755 819.66 81.4347C819.66 60.1147 805 44.3047 785.1 44.3047ZM781.5 101.185C771.56 101.185 763.5 94.1347 763.5 81.4547C763.5 68.7747 771.71 61.8747 781.5 61.8747C792.01 61.8747 799.93 69.6547 799.93 81.6047C799.93 93.2647 791.87 101.185 781.5 101.185Z" fill="#E5E9F9"/>
<path d="M438.84 45.8769H419.5V53.0269C414.42 47.4069 406.99 44.2969 398.11 44.2969C378.24 44.2969 363.55 60.1369 363.55 81.5969C363.55 103.057 378.24 118.877 398.11 118.877C407.76 118.877 415.68 115.277 420.72 108.797V117.147H438.86V45.8769H438.84ZM401.71 101.167C391.34 101.167 383.28 93.2469 383.28 81.5869C383.28 69.9269 391.34 61.8769 401.71 61.8769C411.5 61.8769 419.71 68.9369 419.71 81.6069C419.71 94.2769 411.5 101.187 401.71 101.187V101.167Z" fill="#E5E9F9"/>
<path d="M275.53 45.8734H256.18V52.8734C251.28 47.3334 243.65 44.2734 234.84 44.2734C214.97 44.2734 200.28 60.1134 200.28 81.4234C200.28 102.733 215 118.873 234.84 118.873C243.48 118.873 250.97 115.873 256.15 110.233V143.063H275.59V45.8734H275.53ZM238.44 101.163C228.07 101.163 220.01 93.2434 220.01 81.5834C220.01 69.6334 227.93 61.8534 238.44 61.8534C248.23 61.8534 256.44 68.6234 256.44 81.4334C256.44 94.2434 248.23 101.183 238.44 101.183V101.163Z" fill="#E5E9F9"/>
<path d="M869 102.195C858.63 102.195 851.29 97.1947 849 88.0847H899C899.847 84.5941 900.284 81.0165 900.3 77.4247C900.3 58.8547 886.47 44.3047 866.75 44.3047C861.832 44.2332 856.95 45.1493 852.392 46.9985C847.834 48.8477 843.694 51.5925 840.216 55.0705C836.738 58.5484 833.993 62.6888 832.144 67.2465C830.295 71.8042 829.379 76.6866 829.45 81.6047C829.02 102.195 846.45 119.325 868.45 118.895C878.97 118.895 889.77 113.225 896.45 105.895L885.45 94.8147C879.75 100.115 875.36 102.195 869 102.195ZM866 60.0047C874.49 60.0047 881.26 65.6147 881.4 74.4047H849C851.19 65.6147 857.81 60.0047 866 60.0047Z" fill="#E5E9F9"/>
<path d="M0.290039 20.8741V1.16409H80.64C95.9168 1.15243 110.88 5.49879 123.773 13.693C136.666 21.8873 146.954 33.5893 153.43 47.4257C159.906 61.2621 162.3 76.6586 160.332 91.8081C158.364 106.958 152.116 121.231 142.32 132.954H112.76C123.925 125.975 132.516 115.552 137.235 103.26C141.954 90.9673 142.544 77.4731 138.917 64.8155C135.29 52.158 127.641 41.0247 117.128 33.0975C106.615 25.1703 93.8071 20.8798 80.64 20.8741H0.290039ZM80.64 142.224C67.4559 142.235 54.627 137.951 44.0956 130.019C33.5641 122.087 25.9035 110.94 22.2735 98.2658C18.6435 85.5912 19.2416 72.079 23.9775 59.7747C28.7133 47.4705 37.3289 37.0441 48.52 30.0741H19C9.25256 41.7332 3.0137 55.9191 1.0084 70.9832C-0.9969 86.0473 1.31369 101.371 7.6717 115.174C14.0297 128.977 24.1741 140.693 36.926 148.96C49.678 157.226 64.514 161.704 79.71 161.874H161V142.194L80.64 142.224ZM132.08 81.5441C132.074 91.7167 129.052 101.659 123.396 110.114C117.74 118.57 109.704 125.158 100.304 129.047C90.9045 132.936 80.5626 133.95 70.5862 131.962C60.6098 129.974 51.4469 125.072 44.2559 117.877C37.0649 110.682 32.1686 101.516 30.1863 91.5385C28.2039 81.5609 29.2243 71.2196 33.1186 61.8219C37.0128 52.4242 43.606 44.3922 52.0646 38.7412C60.5232 33.0902 70.4674 30.0741 80.64 30.0741C94.2787 30.0873 107.355 35.5111 116.999 45.1551C126.643 54.7991 132.067 67.8754 132.08 81.5141V81.5441ZM113.29 81.5441C113.29 75.0865 111.375 68.774 107.788 63.4047C104.2 58.0355 99.1007 53.8506 93.1347 51.3794C87.1686 48.9082 80.6038 48.2616 74.2703 49.5214C67.9369 50.7813 62.1192 53.8909 57.553 58.457C52.9868 63.0232 49.8772 68.8409 48.6174 75.1744C47.3576 81.5079 48.0042 88.0727 50.4754 94.0387C52.9466 100.005 57.1314 105.104 62.5007 108.692C67.8699 112.279 74.1825 114.194 80.64 114.194C84.9306 114.195 89.1793 113.351 93.1432 111.709C97.107 110.066 100.708 107.659 103.741 104.623C106.773 101.588 109.177 97.9848 110.816 94.0195C112.455 90.0541 113.295 85.8046 113.29 81.5141V81.5441Z" fill="#E5E9F9"/>
</g>
<defs>
<clipPath id="clip0_2109_4982">
<rect width="901" height="161" fill="white" transform="translate(0 0.894531)"/>
</clipPath>
</defs>
</svg>
