<?xml version="1.0" encoding="UTF-8" standalone="no"?>
<!DOCTYPE svg PUBLIC "-//W3C//DTD SVG 1.1//EN" "http://www.w3.org/Graphics/SVG/1.1/DTD/svg11.dtd">
<svg width="100%" height="100%" viewBox="0 0 167 48" version="1.1" xmlns="http://www.w3.org/2000/svg" xmlns:xlink="http://www.w3.org/1999/xlink" xml:space="preserve" xmlns:serif="http://www.serif.com/" style="fill-rule:evenodd;clip-rule:evenodd;stroke-linejoin:round;stroke-miterlimit:2;">
    <g transform="matrix(1,0,0,1,-233.578,-21.5084)">
        <g>
            <circle cx="396.408" cy="29.409" r="3.762" style="fill:rgb(244,123,103);"/>
            <path d="M285.59,38.28C285.735,38.276 285.88,38.274 286.024,38.274C294.168,38.274 300.928,44.843 301.162,52.984C301.167,53.175 301.169,53.367 301.167,53.559C301.167,62.143 294.51,68.833 285.59,68.833C276.671,68.833 270.008,62.143 270.008,53.559C270.008,44.975 276.665,38.28 285.59,38.28ZM285.59,63.177C285.614,63.177 285.637,63.177 285.66,63.177C290.931,63.177 295.268,58.84 295.268,53.57C295.268,48.3 290.931,43.963 285.66,43.963C280.39,43.963 276.053,48.3 276.053,53.57C276.053,53.593 276.053,53.616 276.053,53.64C276.091,58.857 280.373,63.139 285.59,63.177Z" style="fill:rgb(35,179,245);fill-rule:nonzero;"/>
            <path d="M320.332,38.28C329.257,38.28 335.914,44.975 335.914,53.559C335.914,62.143 329.257,68.833 320.332,68.833C311.407,68.833 304.75,62.143 304.75,53.559C304.675,45.249 311.451,38.35 319.761,38.274C319.951,38.273 320.142,38.275 320.332,38.28ZM320.332,63.177C320.353,63.177 320.374,63.177 320.395,63.177C325.658,63.177 329.988,58.846 329.988,53.583C329.988,48.321 325.658,43.99 320.395,43.99C315.155,43.99 310.835,48.282 310.801,53.521L310.801,53.586C310.659,58.704 314.753,63.033 319.872,63.175C320.025,63.18 320.179,63.18 320.332,63.177L320.332,63.177Z" style="fill:rgb(35,179,245);fill-rule:nonzero;"/>
            <path d="M393.383,67.561C393.383,67.561 393.383,38.946 393.383,38.946C393.383,38.944 393.383,38.942 393.383,38.94C393.383,38.58 393.677,38.283 394.037,38.28L398.768,38.28C399.13,38.277 399.431,38.573 399.434,38.935C399.434,38.935 399.434,67.561 399.434,67.561C399.434,67.923 399.136,68.221 398.773,68.221C398.773,68.221 394.043,68.221 394.043,68.221C393.681,68.221 393.383,67.923 393.383,67.561Z" style="fill:rgb(35,179,245);fill-rule:nonzero;"/>
            <path d="M375.711,38.28C371.511,38.164 367.538,40.239 365.233,43.752C363.371,40.358 359.821,38.28 354.782,38.28C349.618,38.28 346.842,41.094 345.895,42.61L345.895,37.95C345.892,37.586 345.593,37.289 345.229,37.289C345.113,37.289 344.999,37.319 344.899,37.376L339.99,40.212C339.881,40.275 339.813,40.39 339.811,40.515C339.811,40.515 339.811,67.577 339.811,67.577C339.811,67.939 340.109,68.237 340.471,68.237L345.229,68.237C345.591,68.24 345.892,67.945 345.895,67.582L345.895,51.697C345.895,46.826 349.467,44.028 353.834,44.028C358.202,44.028 360.768,46.837 360.768,51.697C360.768,51.697 360.768,67.561 360.768,67.561C360.768,67.923 361.066,68.221 361.428,68.221L366.18,68.221C366.182,68.221 366.184,68.221 366.186,68.221C366.543,68.221 366.837,67.929 366.84,67.572L366.84,51.324C366.997,46.707 370.51,44.022 374.786,44.022C379.061,44.022 381.692,46.831 381.692,51.692L381.692,67.561C381.692,67.923 381.99,68.221 382.352,68.221L387.11,68.221C387.472,68.221 387.77,67.923 387.77,67.561L387.77,50.409C387.748,43.292 383.532,38.28 375.711,38.28Z" style="fill:rgb(35,179,245);fill-rule:nonzero;"/>
            <path d="M250.443,38.28C246.442,38.224 242.567,39.7 239.618,42.404L239.618,22.167C239.617,21.806 239.319,21.508 238.958,21.508C238.844,21.508 238.732,21.538 238.633,21.594L233.762,24.408C233.651,24.469 233.58,24.585 233.578,24.711L233.578,67.561C233.578,67.923 233.876,68.221 234.238,68.221L238.99,68.221C239.352,68.221 239.65,67.923 239.65,67.561L239.65,64.714C242.601,67.416 246.475,68.89 250.475,68.833C258.786,69.064 265.815,62.416 266.046,54.105C266.052,53.923 266.053,53.741 266.052,53.559C266.052,44.975 259.368,38.28 250.443,38.28ZM250.443,63.177C250.419,63.177 250.396,63.177 250.372,63.177C245.102,63.177 240.765,58.84 240.765,53.57C240.765,48.3 245.102,43.963 250.372,43.963C255.616,43.963 259.94,48.256 259.979,53.499L259.979,53.559C259.981,53.642 259.983,53.725 259.983,53.808C259.983,58.854 255.905,63.041 250.86,63.175C250.721,63.179 250.582,63.179 250.443,63.177L250.443,63.177Z" style="fill:rgb(35,179,245);fill-rule:nonzero;"/>
        </g>
    </g>
</svg>
