<svg width="1053" height="160" viewBox="0 0 1053 160" fill="none" xmlns="http://www.w3.org/2000/svg">
<g clip-path="url(#clip0_1672_120944)">
<path d="M152.762 118.476V90.2857L149.714 88.381L76.5714 128.381L7.2381 90.2857V73.9048L76.5714 111.619L153.143 70.0952V42.2857L150.095 40.381L76.5714 80.7619L9.90476 44.1905L76.5714 7.61905L130.286 36.9524L134.476 34.6667V31.619L76.5714 0L0 41.5238V45.7143L76.5714 87.619L145.905 49.5238V66.2857L76.5714 104.381L3.04762 64L0 65.9048V94.0952L76.5714 135.619L145.905 97.9048V114.286L76.5714 152.381L3.04762 112.381L0 114.286V118.476L76.5714 160L152.762 118.476Z" fill="#FF3621"/>
<path fill-rule="evenodd" clip-rule="evenodd" d="M298.286 8.38098V136.762H277.714V127.238C277.714 126.476 277.333 125.714 276.571 125.714C275.81 125.333 275.048 125.714 274.667 126.095C267.429 134.095 256.762 139.048 244.952 139.048C232.762 139.048 221.333 134.095 212.952 125.714C204.571 116.952 200 105.143 200 92.1905C200 65.9048 219.81 45.3334 244.952 45.3334C256.762 45.3334 267.81 49.9048 274.667 57.5238C275.048 57.9048 275.81 58.2857 276.571 57.9048C277.333 57.5238 277.714 57.1429 277.714 56.381V8.38098H298.286ZM220.571 92.1905C220.571 108.571 233.143 121.143 249.524 121.143C265.905 121.143 278.476 108.571 278.476 92.1905C278.476 75.8095 265.905 63.2381 249.524 63.2381C233.524 63.2381 220.571 75.8095 220.571 92.1905Z" fill="#FBF1F1"/>
<path fill-rule="evenodd" clip-rule="evenodd" d="M407.238 47.2381V136.762H387.047V127.238C387.047 126.476 386.666 125.714 385.904 125.714C385.143 125.333 384.381 125.714 384 126.095C376.762 134.476 366.095 139.048 354.285 139.048C329.143 139.048 309.333 118.476 309.333 92.1905C309.333 65.9048 329.143 45.3334 354.285 45.3334C366.476 45.3334 377.143 49.5239 384 57.5239C384.381 57.9048 385.143 58.2858 385.904 57.9048C386.666 57.5239 387.047 57.1429 387.047 56.381V47.2381H407.238ZM329.904 92.1905C329.904 108.571 342.476 121.143 358.857 121.143C375.238 121.143 387.809 108.571 387.809 92.1905C387.809 75.8096 375.238 63.2381 358.857 63.2381C342.857 63.2381 329.904 75.8096 329.904 92.1905Z" fill="#FBF1F1"/>
<path fill-rule="evenodd" clip-rule="evenodd" d="M580.572 47.2381V136.762H560.381V127.238C560.381 126.476 560 125.714 559.238 125.714C558.477 125.333 557.715 125.714 557.334 126.095C550.096 134.476 539.429 139.048 527.619 139.048C502.477 139.048 482.667 118.476 482.667 92.1905C482.667 65.9048 502.477 45.3334 527.619 45.3334C539.81 45.3334 550.477 49.5239 557.334 57.5239C557.715 57.9048 558.477 58.2858 559.238 57.9048C560 57.5239 560.381 57.1429 560.381 56.381V47.2381H580.572ZM503.238 92.1905C503.238 108.571 515.81 121.143 532.191 121.143C548.572 121.143 561.143 108.571 561.143 92.1905C561.143 75.8096 548.572 63.2381 532.191 63.2381C515.81 63.2381 503.238 75.8096 503.238 92.1905Z" fill="#FBF1F1"/>
<path fill-rule="evenodd" clip-rule="evenodd" d="M618.667 126.095C618.286 126.095 618.286 126.095 617.905 126.095C617.143 126.476 616.762 126.857 616.762 127.619V136.762H596.19V8.38098H616.762V56.7619C616.762 57.5238 617.143 58.2857 617.905 58.2857C618.667 58.6667 619.429 58.2857 619.809 57.9048C627.048 49.9048 637.714 44.9524 649.524 44.9524C661.714 44.9524 673.143 49.9048 681.524 58.2857C689.905 67.0476 694.476 78.8572 694.476 91.8096C694.476 118.095 674.667 138.667 649.524 138.667C637.714 138.667 626.667 134.095 619.809 126.476C619.429 126.476 619.048 126.095 618.667 126.095ZM644.952 63.2381C628.571 63.2381 616 75.8096 616 92.1905C616 108.571 628.571 121.143 644.952 121.143C661.333 121.143 673.905 108.571 673.905 92.1905C673.905 75.8096 660.952 63.2381 644.952 63.2381Z" fill="#FBF1F1"/>
<path d="M753.524 65.5239C755.429 65.5239 757.334 65.5238 758.477 65.9048V45.7143C757.715 45.7143 756.572 45.3334 755.048 45.3334C744.381 45.3334 734.477 50.6667 729.524 59.0477C729.143 59.8096 728.381 60.1905 727.619 59.8096C726.858 59.4286 726.477 59.0477 726.477 58.2858V47.2381H706.286V136.762H726.858V97.5239C726.096 77.7143 736.762 65.5239 753.524 65.5239Z" fill="#FBF1F1"/>
<path d="M791.619 47.238H771.048V136.762H791.619V47.238Z" fill="#FBF1F1"/>
<path d="M781.333 8.38098C774.476 8.38098 768.762 13.7143 768.762 20.5715C768.762 27.4286 774.476 32.7619 781.333 32.7619C788.19 32.7619 793.905 27.4286 793.905 20.5715C793.905 14.0953 788.19 8.38098 781.333 8.38098Z" fill="#FBF1F1"/>
<path d="M852.571 45.3334C824.381 45.3334 803.81 65.1429 803.81 92.1905C803.81 105.524 808.762 117.333 817.524 125.714C826.286 134.095 838.857 139.048 852.571 139.048C864 139.048 873.143 136.762 889.905 124.952L878.476 113.143C870.095 118.476 862.476 121.143 854.857 121.143C837.714 121.143 824.762 108.571 824.762 92.1905C824.762 75.8096 837.714 63.2381 854.857 63.2381C862.857 63.2381 870.476 65.9048 878.095 71.2381L891.048 59.4286C875.429 46.4762 861.714 45.3334 852.571 45.3334Z" fill="#FBF1F1"/>
<path d="M925.333 97.5238C925.714 97.1429 926.095 97.1429 926.476 97.1429C926.857 97.1429 927.238 97.5238 927.619 97.9048L960.381 137.143H985.524L943.238 87.6191C942.476 86.8572 942.857 86.0953 943.238 85.3334L982.095 47.6191H957.333L923.809 80C923.429 80.381 922.667 80.7619 921.905 80.381C921.143 80 920.762 79.6191 920.762 78.8572V8.38098H900.19V136.762H920.762V102.095C920.762 101.714 921.143 101.333 921.143 100.952L925.333 97.5238Z" fill="#FBF1F1"/>
<path d="M1019.43 139.048C1036.19 139.048 1053.33 129.143 1053.33 110.476C1053.33 98.2858 1045.33 89.9048 1028.95 84.5715L1017.9 81.1429C1010.29 78.8572 1006.86 75.4286 1006.86 70.4762C1006.86 65.1429 1011.81 61.3334 1019.05 61.3334C1025.9 61.3334 1032 65.5239 1035.81 73.1429L1052.19 64.7619C1046.1 52.5715 1033.52 45.3334 1019.05 45.3334C1000.76 45.3334 987.429 56.7619 987.429 72.381C987.429 84.9524 995.048 93.3334 1010.67 97.9048L1022.1 101.333C1030.1 103.619 1033.52 106.667 1033.52 112C1033.52 119.619 1026.29 122.286 1020.19 122.286C1011.81 122.286 1004.57 116.952 1000.76 108.571L984 116.952C989.333 130.667 1003.05 139.048 1019.43 139.048Z" fill="#FBF1F1"/>
<path d="M464 138.286C470.477 138.286 476.191 137.905 479.619 137.143V120C476.953 120.381 472.381 120.762 469.334 120.762C460.953 120.762 454.857 119.238 454.857 102.095V65.5239C454.857 64.762 455.619 64 456.762 64H476.572V48H456.762C455.619 48 454.857 47.2381 454.857 46.4762V19.8096H434.667V45.7143C434.667 46.4762 433.905 47.2381 432.762 47.2381H418.667V63.2381H432.762C433.905 63.2381 434.667 64 434.667 64.7619V106.286C434.286 138.286 456 138.286 464 138.286Z" fill="#FBF1F1"/>
</g>
<defs>
<clipPath id="clip0_1672_120944">
<rect width="1052.95" height="160" fill="white"/>
</clipPath>
</defs>
</svg>
