<svg preserveAspectRatio="xMidYMid" width="573" height="160" viewBox="0 0 573 160" fill="none" xmlns="http://www.w3.org/2000/svg">
<g clip-path="url(#clip0_2168_6058)">
<path d="M154.945 169.687C171.245 169.687 184.458 156.473 184.458 140.173C184.458 123.874 171.245 110.66 154.945 110.66C138.645 110.66 125.432 123.874 125.432 140.173C125.432 156.473 138.645 169.687 154.945 169.687Z" fill="#A2F2F7"/>
<path fill-rule="evenodd" clip-rule="evenodd" d="M52.8561 98.2314C26.4961 110.093 12.8779 125.346 12.8779 140.171C12.8779 154.996 26.4961 170.249 52.8561 182.111C78.6997 193.74 114.788 201.076 154.944 201.076C195.1 201.076 231.188 193.74 257.032 182.111C283.392 170.249 297.01 154.996 297.01 140.171C297.01 125.346 283.392 110.093 257.032 98.2314C231.188 86.6017 195.1 79.2663 154.944 79.2663C114.788 79.2663 78.6997 86.6017 52.8561 98.2314ZM48.342 88.2002C75.9068 75.7961 113.601 68.2663 154.944 68.2663C196.287 68.2663 233.981 75.7961 261.546 88.2002C288.595 100.372 308.01 118.321 308.01 140.171C308.01 162.021 288.595 179.97 261.546 192.142C233.981 204.546 196.287 212.076 154.944 212.076C113.601 212.076 75.9068 204.546 48.342 192.142C21.2935 179.97 1.87793 162.021 1.87793 140.171C1.87793 118.321 21.2935 100.372 48.342 88.2002Z" fill="#A2F2F7"/>
<path fill-rule="evenodd" clip-rule="evenodd" d="M24.4414 119.458C17.9813 126.351 14.8779 133.405 14.8779 140.171C14.8779 146.937 17.9813 153.991 24.4414 160.884C30.9066 167.783 40.654 174.427 53.6768 180.287C79.2075 191.776 115.004 199.076 154.944 199.076C194.884 199.076 230.681 191.776 256.211 180.287C269.234 174.427 278.982 167.783 285.447 160.884C291.907 153.991 295.01 146.937 295.01 140.171C295.01 133.405 291.907 126.351 285.447 119.458C278.982 112.559 269.234 105.915 256.211 100.055C230.681 88.5664 194.884 81.2663 154.944 81.2663C115.004 81.2663 79.2075 88.5664 53.6768 100.055C40.654 105.915 30.9066 112.559 24.4414 119.458ZM47.5213 86.3764C75.399 73.8314 113.385 66.2663 154.944 66.2663C196.503 66.2663 234.489 73.8314 262.367 86.3764C289.536 98.6025 310.01 117.042 310.01 140.171C310.01 163.301 289.536 181.74 262.367 193.966C234.489 206.511 196.503 214.076 154.944 214.076C113.385 214.076 75.399 206.511 47.5213 193.966C20.3521 181.74 -0.12207 163.301 -0.12207 140.171C-0.12207 117.042 20.3521 98.6025 47.5213 86.3764ZM12.8779 140.171C12.8779 125.346 26.4961 110.093 52.8561 98.2314C78.6997 86.6017 114.788 79.2663 154.944 79.2663C195.1 79.2663 231.188 86.6017 257.032 98.2314C283.392 110.093 297.01 125.346 297.01 140.171C297.01 154.996 283.392 170.249 257.032 182.111C231.188 193.74 195.1 201.076 154.944 201.076C114.788 201.076 78.6997 193.74 52.8561 182.111C26.4961 170.249 12.8779 154.996 12.8779 140.171ZM154.944 68.2663C113.601 68.2663 75.9068 75.7961 48.342 88.2002C21.2935 100.372 1.87793 118.321 1.87793 140.171C1.87793 162.021 21.2935 179.97 48.342 192.142C75.9068 204.546 113.601 212.076 154.944 212.076C196.287 212.076 233.981 204.546 261.546 192.142C288.595 179.97 308.01 162.021 308.01 140.171C308.01 118.321 288.595 100.372 261.546 88.2002C233.981 75.7961 196.287 68.2663 154.944 68.2663Z" fill="#A2F2F7"/>
<path fill-rule="evenodd" clip-rule="evenodd" d="M140.221 30.7904C116.768 13.893 96.7496 9.72575 83.911 17.1381C71.0724 24.5505 64.672 43.9707 67.5792 72.73C70.4295 100.926 82.1211 135.848 102.199 170.623C122.277 205.399 146.674 232.985 169.667 249.552C193.12 266.449 213.138 270.616 225.977 263.204C238.816 255.792 245.216 236.371 242.309 207.612C239.459 179.416 227.767 144.495 207.689 109.719C187.611 74.9428 163.214 47.3568 140.221 30.7904ZM146.651 21.8656C171.176 39.5353 196.544 68.4147 217.215 104.219C237.887 140.023 250.213 176.432 253.253 206.506C256.236 236.016 250.399 261.805 231.477 272.73C212.555 283.655 187.302 275.815 163.237 258.476C138.712 240.807 113.344 211.927 92.6727 176.123C72.0013 140.319 59.6751 103.91 56.635 73.8364C53.6519 44.3258 59.4887 18.5366 78.411 7.61185C97.3333 -3.31293 122.586 4.52677 146.651 21.8656Z" fill="#A2F2F7"/>
<path fill-rule="evenodd" clip-rule="evenodd" d="M107.631 16.7957C98.4309 14.6479 90.7705 15.4872 84.911 18.8702C79.0515 22.2532 74.4944 28.4677 71.7545 37.509C69.0123 46.5575 68.1328 58.3207 69.5691 72.5289C72.3848 100.384 83.9611 135.034 103.931 169.623C123.901 204.212 148.121 231.563 170.836 247.929C182.423 256.277 193.05 261.397 202.257 263.546C211.457 265.694 219.118 264.855 224.977 261.472C230.837 258.089 235.394 251.874 238.134 242.833C240.876 233.785 241.755 222.021 240.319 207.813C237.503 179.958 225.927 145.308 205.957 110.719C185.987 76.1297 161.767 48.7789 139.052 32.4131C127.465 24.0651 116.838 18.9452 107.631 16.7957ZM147.82 20.2429C172.623 38.1132 198.168 67.2278 218.947 103.219C239.727 139.209 252.168 175.889 255.243 206.305C258.239 235.947 252.508 262.897 232.477 274.462C212.446 286.027 186.241 277.515 162.068 260.099C137.265 242.229 111.72 213.114 90.9407 177.123C70.1614 141.133 57.7197 104.453 54.6451 74.0375C51.6487 44.3952 57.3802 17.4446 77.411 5.8798C97.4417 -5.68496 123.647 2.82667 147.82 20.2429ZM83.911 17.1381C96.7496 9.72575 116.768 13.893 140.221 30.7904C163.214 47.3568 187.611 74.9428 207.689 109.719C227.767 144.495 239.459 179.416 242.309 207.612C245.216 236.371 238.816 255.792 225.977 263.204C213.138 270.616 193.12 266.449 169.667 249.552C146.674 232.985 122.277 205.399 102.199 170.623C82.1211 135.848 70.4295 100.926 67.5792 72.73C64.672 43.9707 71.0724 24.5505 83.911 17.1381ZM217.215 104.219C196.544 68.4147 171.176 39.5353 146.651 21.8656C122.586 4.52677 97.3333 -3.31293 78.411 7.61185C59.4887 18.5366 53.6519 44.3258 56.635 73.8364C59.6751 103.91 72.0013 140.319 92.6727 176.123C113.344 211.927 138.712 240.807 163.237 258.476C187.302 275.815 212.555 283.655 231.477 272.73C250.399 261.805 256.236 236.016 253.253 206.506C250.213 176.432 237.887 140.023 217.215 104.219Z" fill="#A2F2F7"/>
<path fill-rule="evenodd" clip-rule="evenodd" d="M242.309 72.7301C245.216 43.9707 238.816 24.5505 225.977 17.1382C213.138 9.72577 193.12 13.893 169.667 30.7904C146.674 47.3568 122.277 74.9428 102.199 109.719C82.1212 144.495 70.4295 179.416 67.5792 207.612C64.672 236.371 71.0724 255.792 83.911 263.204C96.7496 270.616 116.768 266.449 140.221 249.552C163.214 232.985 187.611 205.399 207.689 170.623C227.767 135.848 239.459 100.926 242.309 72.7301ZM253.253 73.8364C250.213 103.91 237.887 140.319 217.215 176.123C196.544 211.927 171.176 240.807 146.651 258.477C122.586 275.815 97.3333 283.655 78.411 272.73C59.4887 261.805 53.6519 236.016 56.635 206.506C59.6751 176.432 72.0013 140.023 92.6727 104.219C113.344 68.4147 138.712 39.5353 163.237 21.8656C187.302 4.52679 212.555 -3.31291 231.477 7.61187C250.399 18.5367 256.236 44.3258 253.253 73.8364Z" fill="#A2F2F7"/>
<path fill-rule="evenodd" clip-rule="evenodd" d="M238.134 37.509C235.394 28.4677 230.837 22.2532 224.977 18.8702C219.118 15.4872 211.457 14.6479 202.257 16.7957C193.05 18.9453 182.423 24.0651 170.836 32.4131C148.121 48.7789 123.901 76.1297 103.931 110.719C83.9611 145.308 72.3848 179.958 69.5691 207.813C68.1328 222.021 69.0124 233.785 71.7545 242.833C74.4944 251.874 79.0515 258.089 84.911 261.472C90.7705 264.855 98.431 265.694 107.631 263.546C116.838 261.397 127.465 256.277 139.052 247.929C161.767 231.563 185.987 204.212 205.957 169.623C225.927 135.034 237.503 100.384 240.319 72.5289C241.755 58.3207 240.876 46.5576 238.134 37.509ZM255.243 74.0375C252.168 104.453 239.727 141.133 218.947 177.123C198.168 213.114 172.623 242.229 147.82 260.099C123.647 277.515 97.4418 286.027 77.411 274.462C57.3802 262.897 51.6487 235.947 54.6451 206.305C57.7198 175.889 70.1614 139.21 90.9407 103.219C111.72 67.2278 137.265 38.1132 162.068 20.2429C186.241 2.8267 212.446 -5.68494 232.477 5.87982C252.508 17.4446 258.239 44.3952 255.243 74.0375ZM225.977 17.1382C238.816 24.5505 245.216 43.9707 242.309 72.7301C239.459 100.926 227.767 135.848 207.689 170.623C187.611 205.399 163.214 232.985 140.221 249.552C116.768 266.449 96.7496 270.616 83.911 263.204C71.0724 255.792 64.672 236.371 67.5792 207.612C70.4295 179.416 82.1212 144.495 102.199 109.719C122.277 74.9428 146.674 47.3568 169.667 30.7904C193.12 13.893 213.138 9.72577 225.977 17.1382ZM217.215 176.123C237.887 140.319 250.213 103.91 253.253 73.8364C256.236 44.3258 250.399 18.5367 231.477 7.61187C212.555 -3.31291 187.302 4.52679 163.237 21.8656C138.712 39.5353 113.344 68.4147 92.6727 104.219C72.0013 140.023 59.6751 176.432 56.635 206.506C53.6519 236.016 59.4887 261.805 78.411 272.73C97.3333 283.655 122.586 275.815 146.651 258.477C171.176 240.807 196.544 211.927 217.215 176.123Z" fill="#A2F2F7"/>
</g>
<path d="M341.889 46.9336H405.603C414.409 46.9336 422.869 47.7969 430.985 49.5236C439.273 51.0776 446.611 53.8403 453 57.8116C459.388 61.7829 464.482 67.1356 468.281 73.8696C472.079 80.6036 473.979 89.1506 473.979 99.5106C473.979 112.806 470.266 123.943 462.842 132.922C455.59 141.9 445.143 147.339 431.503 149.239L480.195 230.306H440.827L398.351 152.606H374.523V230.306H341.889V46.9336ZM399.905 124.634C404.567 124.634 409.229 124.461 413.891 124.116C418.553 123.598 422.783 122.562 426.582 121.008C430.553 119.281 433.747 116.777 436.165 113.497C438.582 110.043 439.791 105.295 439.791 99.2516C439.791 93.8989 438.668 89.5823 436.424 86.3016C434.179 83.0209 431.244 80.6036 427.618 79.0496C423.992 77.3229 419.934 76.2006 415.445 75.6826C411.128 75.1646 406.898 74.9056 402.754 74.9056H374.523V124.634H399.905Z" fill="#A2F2F7"/>
<path d="M529.633 179.024C530.669 188.348 534.295 195.6 540.511 200.78C546.727 205.96 554.238 208.55 563.044 208.55C570.814 208.55 577.289 206.996 582.469 203.888C587.822 200.607 592.484 196.549 596.455 191.715L618.729 208.55C611.477 217.528 603.362 223.917 594.383 227.716C585.405 231.514 575.994 233.414 566.152 233.414C556.828 233.414 548.022 231.86 539.734 228.752C531.446 225.644 524.281 221.241 518.237 215.543C512.194 209.845 507.359 203.024 503.733 195.082C500.28 186.966 498.553 177.988 498.553 168.146C498.553 158.304 500.28 149.411 503.733 141.469C507.359 133.353 512.194 126.447 518.237 120.749C524.281 115.051 531.446 110.648 539.734 107.54C548.022 104.432 556.828 102.878 566.152 102.878C574.786 102.878 582.642 104.432 589.721 107.54C596.973 110.475 603.103 114.792 608.11 120.49C613.29 126.188 617.262 133.267 620.024 141.728C622.96 150.016 624.427 159.599 624.427 170.477V179.024H529.633ZM593.347 155.714C593.175 146.562 590.326 139.397 584.8 134.217C579.275 128.864 571.591 126.188 561.749 126.188C552.425 126.188 545.001 128.864 539.475 134.217C534.123 139.569 530.842 146.735 529.633 155.714H593.347Z" fill="#A2F2F7"/>
<path d="M733.782 213.212H733.005C728.516 220.291 722.818 225.471 715.911 228.752C709.004 231.86 701.407 233.414 693.119 233.414C687.421 233.414 681.809 232.637 676.284 231.083C670.931 229.529 666.097 227.198 661.78 224.09C657.636 220.982 654.269 217.097 651.679 212.435C649.089 207.773 647.794 202.334 647.794 196.118C647.794 189.384 649.003 183.686 651.42 179.024C653.837 174.189 657.032 170.218 661.003 167.11C665.147 163.829 669.895 161.239 675.248 159.34C680.601 157.44 686.126 156.059 691.824 155.196C697.695 154.16 703.565 153.555 709.436 153.383C715.307 153.037 720.832 152.865 726.012 152.865H733.782V149.498C733.782 141.728 731.106 135.943 725.753 132.145C720.4 128.173 713.58 126.188 705.292 126.188C698.731 126.188 692.601 127.396 686.903 129.814C681.205 132.058 676.284 135.166 672.14 139.138L655.823 122.821C662.73 115.741 670.759 110.648 679.91 107.54C689.234 104.432 698.817 102.878 708.659 102.878C717.465 102.878 724.89 103.914 730.933 105.986C736.976 107.885 741.984 110.389 745.955 113.497C749.926 116.605 752.948 120.231 755.02 124.375C757.265 128.346 758.819 132.404 759.682 136.548C760.718 140.692 761.322 144.749 761.495 148.721C761.668 152.519 761.754 155.886 761.754 158.822V230.306H733.782V213.212ZM731.969 174.621H725.494C721.177 174.621 716.343 174.793 710.99 175.139C705.637 175.484 700.544 176.347 695.709 177.729C691.047 178.937 687.076 180.837 683.795 183.427C680.514 185.844 678.874 189.297 678.874 193.787C678.874 196.722 679.478 199.226 680.687 201.298C682.068 203.197 683.795 204.837 685.867 206.219C687.939 207.6 690.27 208.636 692.86 209.327C695.45 209.845 698.04 210.104 700.63 210.104C711.335 210.104 719.192 207.6 724.199 202.593C729.379 197.413 731.969 190.42 731.969 181.614V174.621Z" fill="#A2F2F7"/>
<path d="M882.735 143.282C879.109 139.483 875.311 136.461 871.339 134.217C867.368 131.972 863.31 130.85 859.166 130.85C853.468 130.85 848.375 131.886 843.885 133.958C839.396 136.03 835.511 138.792 832.23 142.246C829.122 145.699 826.705 149.67 824.978 154.16C823.424 158.649 822.647 163.311 822.647 168.146C822.647 172.98 823.424 177.642 824.978 182.132C826.705 186.621 829.122 190.592 832.23 194.046C835.511 197.499 839.396 200.262 843.885 202.334C848.375 204.406 853.468 205.442 859.166 205.442C864.001 205.442 868.49 204.492 872.634 202.593C876.778 200.521 880.318 197.585 883.253 193.787L903.973 216.061C900.865 219.169 897.239 221.845 893.095 224.09C889.124 226.334 885.066 228.147 880.922 229.529C876.778 230.91 872.807 231.86 869.008 232.378C865.21 233.068 861.929 233.414 859.166 233.414C849.842 233.414 841.036 231.86 832.748 228.752C824.46 225.644 817.295 221.241 811.251 215.543C805.208 209.845 800.373 203.024 796.747 195.082C793.294 186.966 791.567 177.988 791.567 168.146C791.567 158.304 793.294 149.411 796.747 141.469C800.373 133.353 805.208 126.447 811.251 120.749C817.295 115.051 824.46 110.648 832.748 107.54C841.036 104.432 849.842 102.878 859.166 102.878C867.109 102.878 875.052 104.432 882.994 107.54C891.11 110.475 898.189 115.223 904.232 121.785L882.735 143.282Z" fill="#A2F2F7"/>
<path d="M910.817 132.404V105.986H936.458V69.9846H967.538V105.986H1001.73V132.404H967.538V186.794C967.538 193.01 968.66 197.931 970.905 201.557C973.322 205.183 977.984 206.996 984.891 206.996C987.653 206.996 990.675 206.737 993.956 206.219C997.236 205.528 999.826 204.492 1001.73 203.111V229.27C998.445 230.824 994.387 231.86 989.553 232.378C984.891 233.068 980.747 233.414 977.121 233.414C968.833 233.414 962.012 232.464 956.66 230.565C951.48 228.838 947.336 226.162 944.228 222.536C941.292 218.737 939.22 214.075 938.012 208.55C936.976 203.024 936.458 196.636 936.458 189.384V132.404H910.817Z" fill="#A2F2F7"/>
<defs>
<clipPath id="clip0_2168_6058">
<rect width="309.889" height="278.9" fill="white" transform="translate(0 0.722656)"/>
</clipPath>
</defs>
</svg>
