<svg preserveAspectRatio="xMidYMid" width="528" height="160" viewBox="0 0 528 160" fill="none" xmlns="http://www.w3.org/2000/svg">
<g clip-path="url(#clip0_2274_1467)">
<mask id="mask0_2274_1467" style="mask-type:luminance" maskUnits="userSpaceOnUse" x="0" y="0" width="156" height="181">
<path d="M155.841 0.519531H0V180.52H155.841V0.519531Z" fill="white"/>
</mask>
<g mask="url(#mask0_2274_1467)">
<path fill-rule="evenodd" clip-rule="evenodd" d="M22.2369 58.3538L100.203 13.3309L77.9664 0.519531L0 45.5424V135.497L77.9664 180.52V154.805L22.2369 122.594V58.3538Z" fill="url(#paint0_linear_2274_1467)"/>
<path d="M77.9668 90.4743V116.189L133.605 84.0686V122.594L77.9668 154.714V180.429L155.933 135.406V45.543L77.9668 90.4743Z" fill="#666666"/>
<path fill-rule="evenodd" clip-rule="evenodd" d="M22.2373 58.3549V122.595L44.5657 109.783V71.2578L100.204 39.0463V13.332L22.2373 58.3549Z" fill="url(#paint1_linear_2274_1467)"/>
<path fill-rule="evenodd" clip-rule="evenodd" d="M111.276 96.9693V109.781L133.605 122.592V84.0664L111.276 96.9693Z" fill="url(#paint2_linear_2274_1467)"/>
<path d="M55.6377 77.6641V103.378L77.8746 116.19V90.4755L55.6377 77.6641Z" fill="#F99B52"/>
<path fill-rule="evenodd" clip-rule="evenodd" d="M22.2373 122.593L77.9668 154.804L133.605 122.593L111.276 109.781L77.9668 129.09L44.5657 109.781L22.2373 122.593Z" fill="url(#paint3_linear_2274_1467)"/>
<path d="M77.9668 90.4743V116.189L133.605 84.0686V122.594L77.9668 154.806V180.52L155.842 135.497V45.543L77.9668 90.4743Z" fill="url(#paint4_linear_2274_1467)"/>
<path d="M55.6377 77.6635L77.8746 90.4749L155.841 45.452L133.604 32.6406L55.6377 77.6635Z" fill="url(#paint5_linear_2274_1467)"/>
</g>
<path d="M234.513 135.532C226.592 135.621 218.791 133.6 211.91 129.675C205.182 125.845 199.623 120.255 195.832 113.505C191.886 106.464 189.866 98.5067 189.975 90.4358C189.865 82.3617 191.851 74.397 195.74 67.3204C199.403 60.6405 204.837 55.0995 211.443 51.3061C218.316 47.3632 226.123 45.3404 234.046 45.4495C239.786 45.3849 245.481 46.4612 250.802 48.6158C255.662 50.4602 260.086 53.2926 263.796 56.934C267.19 60.2563 269.793 64.3005 271.41 68.7662L255.368 76.4714C253.882 72.2088 251.094 68.521 247.398 65.9294C243.508 63.1537 238.823 61.7151 234.046 61.8298C229.264 61.7605 224.557 63.0283 220.457 65.4902C216.496 67.8884 213.317 71.3854 211.306 75.5563C209.115 80.2049 208.032 85.298 208.14 90.4358C208.045 95.6207 209.17 100.755 211.425 105.425C213.564 109.578 216.806 113.061 220.796 115.491C224.948 117.949 229.697 119.215 234.522 119.152C238.396 119.189 242.232 118.39 245.769 116.809C249.124 115.37 252.036 113.065 254.206 110.129C256.323 107.115 257.428 103.507 257.363 99.8247V99.5868H234.046L225.572 86.0982H275.509V93.5929C275.509 102.652 273.557 110.345 269.653 116.672C266.015 122.747 260.724 127.664 254.398 130.847C248.23 133.949 241.417 135.555 234.513 135.532Z" fill="#F8EEF8"/>
<path d="M298.917 135.535C291.963 135.535 286.497 133.894 282.519 130.612C278.538 127.336 277.028 122.806 277.028 117.023C277.028 111.532 278.447 107.103 282.189 103.671C285.932 100.24 291.716 97.7782 299.293 96.5245L316.982 93.7152V91.9582C316.992 90.7861 316.733 89.6272 316.225 88.5707C315.718 87.5142 314.975 86.5881 314.053 85.8636C311.854 84.1439 309.109 83.2733 306.321 83.4111C303.345 83.3631 300.432 84.2638 298.002 85.9826C295.628 87.667 293.83 90.0407 292.85 92.7818L278.794 86.1015C280.661 80.7982 284.335 76.321 289.172 73.4549C294.595 70.2566 300.803 68.6341 307.098 68.7696C311.983 68.6779 316.825 69.6783 321.273 71.6979C325.24 73.448 328.615 76.3083 330.992 79.9338C333.353 83.5076 334.578 87.712 334.506 91.9948V134.126H318.125V128.15C315.727 130.583 312.856 132.498 309.688 133.778C306.232 135.005 302.584 135.601 298.917 135.535ZM294.662 116.437C294.623 117.312 294.793 118.184 295.159 118.98C295.525 119.776 296.077 120.473 296.767 121.013C298.413 122.161 300.389 122.739 302.395 122.66C304.312 122.741 306.226 122.428 308.019 121.742C309.811 121.056 311.444 120.01 312.818 118.67C314.154 117.362 315.207 115.794 315.912 114.062C316.617 112.331 316.959 110.473 316.917 108.604V106.609L302.395 109.189C300.257 109.461 298.232 110.309 296.538 111.642C295.903 112.262 295.407 113.011 295.084 113.837C294.76 114.664 294.616 115.55 294.662 116.437Z" fill="#F8EEF8"/>
<path d="M337.892 70.1678H354.29V78.0193C355.769 74.977 358.251 72.537 361.318 71.1103C364.714 69.4863 368.444 68.6839 372.208 68.7677C376.198 68.7142 380.141 69.6379 383.692 71.4581C386.979 72.9715 389.75 75.4148 391.663 78.486C396.19 72.0071 402.787 68.7677 411.456 68.7677C415.717 68.6804 419.924 69.729 423.646 71.8058C427.203 73.8088 430.125 76.7743 432.074 80.362C434.158 84.2462 435.207 88.6015 435.121 93.0086V134.124H417.551V96.7605C417.551 93.0086 416.535 90.0407 414.504 87.8566C412.472 85.6726 409.779 84.5806 406.423 84.5806C404.896 84.5033 403.37 84.756 401.948 85.3213C400.527 85.8866 399.245 86.7513 398.187 87.8566C396.278 90.0285 395.323 92.9964 395.323 96.7605V134.124H377.753V96.7605C377.753 93.0086 376.738 90.0407 374.706 87.8566C372.675 85.6726 369.981 84.5806 366.626 84.5806C365.098 84.5033 363.572 84.756 362.151 85.3213C360.73 85.8866 359.447 86.7513 358.39 87.8566C356.444 90.0468 355.468 93.0147 355.462 96.7605V134.124H337.892V70.1678Z" fill="#F8EEF8"/>
<path d="M438.534 70.1678H454.933V78.0193C456.407 74.9734 458.89 72.532 461.961 71.1103C465.357 69.4863 469.087 68.6839 472.85 68.7677C476.838 68.7131 480.778 69.6369 484.326 71.4581C487.621 72.9684 490.402 75.4118 492.324 78.486C496.85 72.0071 503.448 68.7677 512.117 68.7677C516.375 68.6816 520.579 69.7302 524.297 71.8058C527.86 73.8059 530.784 76.7719 532.734 80.362C534.818 84.2462 535.868 88.6015 535.782 93.0086V134.124H518.212V96.7605C518.212 93.0086 517.196 90.0407 515.164 87.8566C514.14 86.7521 512.885 85.8861 511.489 85.32C510.092 84.7539 508.589 84.5015 507.084 84.5806C505.556 84.5015 504.03 84.7533 502.608 85.3187C501.187 85.8841 499.904 86.7498 498.848 87.8566C496.89 90.0468 495.914 93.0147 495.92 96.7605V134.124H478.35V96.7605C478.35 93.0086 477.334 90.0407 475.303 87.8566C474.278 86.7521 473.023 85.8861 471.627 85.32C470.231 84.7539 468.727 84.5015 467.222 84.5806C465.695 84.5015 464.168 84.7533 462.746 85.3187C461.325 85.8841 460.042 86.7498 458.986 87.8566C457.028 90.0468 456.052 93.0147 456.058 96.7605V134.124H438.488L438.534 70.1678Z" fill="#F8EEF8"/>
<path d="M561.249 135.535C554.3 135.535 548.834 133.894 544.85 130.612C540.866 127.33 538.877 122.8 538.884 117.023C538.794 114.524 539.249 112.036 540.216 109.731C541.183 107.426 542.639 105.358 544.484 103.671C548.309 100.157 554.01 97.775 561.587 96.5243L579.258 93.715V91.958C579.27 90.7865 579.013 89.6279 578.507 88.5714C578.001 87.5148 577.259 86.5884 576.339 85.8634C574.138 84.1452 571.394 83.2748 568.606 83.411C565.63 83.3604 562.716 84.2612 560.288 85.9824C557.911 87.6643 556.112 90.0388 555.136 92.7816L541.08 86.1013C542.959 80.7829 546.661 76.3022 551.53 73.4547C556.951 70.2581 563.156 68.6356 569.448 68.7694C574.332 68.6755 579.175 69.6761 583.623 71.6977C587.593 73.445 590.972 76.3057 593.35 79.9336C595.708 83.5084 596.93 87.7128 596.855 91.9946V134.126H580.466V128.15C578.064 130.579 575.193 132.494 572.028 133.778C568.569 135.005 564.918 135.6 561.249 135.535ZM557.039 116.437C556.999 117.312 557.17 118.184 557.536 118.98C557.902 119.776 558.453 120.473 559.144 121.012C560.786 122.162 562.76 122.741 564.763 122.66C566.68 122.741 568.594 122.43 570.387 121.743C572.18 121.057 573.813 120.011 575.186 118.67C576.521 117.362 577.574 115.793 578.279 114.062C578.985 112.33 579.327 110.473 579.285 108.604V106.609L564.763 109.189C562.625 109.465 560.602 110.312 558.906 111.642C558.274 112.264 557.78 113.013 557.459 113.839C557.137 114.666 556.994 115.551 557.039 116.437Z" fill="#F8EEF8"/>
</g>
<defs>
<linearGradient id="paint0_linear_2274_1467" x1="108.824" y1="-35.9197" x2="-41.2801" y2="284.219" gradientUnits="userSpaceOnUse">
<stop offset="0.15" stop-color="#2B0AFF"/>
<stop offset="0.59" stop-color="#E40DF2"/>
<stop offset="0.78" stop-color="#F99B52"/>
</linearGradient>
<linearGradient id="paint1_linear_2274_1467" x1="117.765" y1="-17.3146" x2="-27.0316" y2="156.701" gradientUnits="userSpaceOnUse">
<stop stop-color="#F99B52"/>
<stop offset="0.52" stop-color="#FF5B8A"/>
<stop offset="1" stop-color="#2B0AFF"/>
</linearGradient>
<linearGradient id="paint2_linear_2274_1467" x1="136.908" y1="139.366" x2="116.977" y2="80.9185" gradientUnits="userSpaceOnUse">
<stop stop-color="#F99B52"/>
<stop offset="0.52" stop-color="#FF5B8A"/>
<stop offset="1" stop-color="#2B0AFF"/>
</linearGradient>
<linearGradient id="paint3_linear_2274_1467" x1="22.2373" y1="132.293" x2="133.605" y2="132.293" gradientUnits="userSpaceOnUse">
<stop stop-color="#F99B52"/>
<stop offset="0.52" stop-color="#FF5B8A"/>
<stop offset="1" stop-color="#2B0AFF"/>
</linearGradient>
<linearGradient id="paint4_linear_2274_1467" x1="147.505" y1="-11.8978" x2="98.3552" y2="188.683" gradientUnits="userSpaceOnUse">
<stop offset="0.15" stop-color="#2B0AFF"/>
<stop offset="0.59" stop-color="#E40DF2"/>
<stop offset="0.78" stop-color="#F6846D"/>
</linearGradient>
<linearGradient id="paint5_linear_2274_1467" x1="76.1817" y1="82.4678" x2="239.573" y2="-33.1001" gradientUnits="userSpaceOnUse">
<stop stop-color="#2B0AFF"/>
<stop offset="0.45" stop-color="#E93ABF"/>
<stop offset="1" stop-color="#FF6C98"/>
</linearGradient>
<clipPath id="clip0_2274_1467">
<rect width="596.855" height="180" fill="white" transform="translate(0 0.519531)"/>
</clipPath>
</defs>
</svg>
