<svg width="434" height="181" viewBox="0 0 434 181" fill="none" xmlns="http://www.w3.org/2000/svg">
<path fill-rule="evenodd" clip-rule="evenodd" d="M65.7174 92.6094L111.132 171.28L90.2612 171.476L78.1367 150.34L65.9251 171.363L55.5551 171.359L50.2441 162.183L67.6414 132.268L55.2913 110.776L65.7174 92.6094Z" fill="#5277C3"/>
<path fill-rule="evenodd" clip-rule="evenodd" d="M82.1095 60.207L36.6859 138.873L26.0807 120.896L38.3223 99.8276L14.0104 99.7636L8.8291 90.7807L14.12 81.5933L48.7258 81.7022L61.1629 60.2613L82.1095 60.207Z" fill="#7EBAE4"/>
<path fill-rule="evenodd" clip-rule="evenodd" d="M85.5938 123.09L176.432 123.094L166.166 141.267L141.799 141.2L153.901 162.286L148.712 171.265L138.109 171.277L120.901 141.253L96.1142 141.203L85.5938 123.09Z" fill="#7EBAE4"/>
<path fill-rule="evenodd" clip-rule="evenodd" d="M138.465 88.6203L93.0498 9.94976L113.921 9.75391L126.046 30.8901L138.257 9.86687L148.627 9.87098L153.938 19.0472L136.541 48.9619L148.891 70.4534L138.465 88.6203Z" fill="#7EBAE4"/>
<path fill-rule="evenodd" clip-rule="evenodd" d="M65.7174 92.6094L111.132 171.28L90.2612 171.476L78.1367 150.34L65.9251 171.363L55.5551 171.359L50.2441 162.183L67.6414 132.268L55.2913 110.776L65.7174 92.6094Z" fill="#5277C3"/>
<path fill-rule="evenodd" clip-rule="evenodd" d="M118.467 57.9408L27.6289 57.9363L37.8948 39.7638L62.2614 39.831L50.161 18.7443L55.3493 9.76579L65.952 9.75391L83.1601 39.7779L107.947 39.8281L118.467 57.9408Z" fill="#5277C3"/>
<path fill-rule="evenodd" clip-rule="evenodd" d="M122.012 121.01L167.435 42.3438L178.04 60.3208L165.798 81.3893L190.11 81.4533L195.291 90.4362L190.001 99.6236L155.395 99.5147L142.958 120.956L122.012 121.01Z" fill="#5277C3"/>
<path fill-rule="evenodd" clip-rule="evenodd" d="M65.7711 92.5625L111.186 171.233L90.3153 171.429L78.1904 150.293L65.9792 171.316L55.6088 171.312L50.2979 162.136L67.6951 132.221L55.345 110.729L65.7711 92.5625Z" fill="url(#paint0_linear_2589_1335)"/>
<path fill-rule="evenodd" clip-rule="evenodd" d="M82.1634 60.158L36.7404 138.824L26.1351 120.847L38.3771 99.7786L14.0649 99.715L8.88329 90.732L14.1746 81.5444L48.7802 81.6535L61.2172 60.2122L82.1634 60.158Z" fill="url(#paint1_linear_2589_1335)"/>
<path fill-rule="evenodd" clip-rule="evenodd" d="M85.6477 123.041L176.486 123.046L166.22 141.218L141.853 141.151L153.954 162.238L148.766 171.217L138.163 171.228L120.955 141.204L96.1678 141.154L85.6477 123.041Z" fill="url(#paint2_linear_2589_1335)"/>
<path fill-rule="evenodd" clip-rule="evenodd" d="M138.519 88.5742L93.1035 9.90364L113.975 9.70777L126.1 30.8439L138.311 9.82075L148.681 9.82484L153.992 19.0011L136.595 48.9158L148.945 70.4072L138.519 88.5742Z" fill="url(#paint3_linear_2589_1335)"/>
<path fill-rule="evenodd" clip-rule="evenodd" d="M65.7711 92.5625L111.186 171.233L90.3153 171.429L78.1904 150.293L65.9792 171.316L55.6088 171.312L50.2979 162.136L67.6951 132.221L55.345 110.729L65.7711 92.5625Z" fill="url(#paint4_linear_2589_1335)"/>
<path fill-rule="evenodd" clip-rule="evenodd" d="M118.455 57.9119L27.6164 57.9075L37.8823 39.7346L62.2493 39.8022L50.1482 18.7154L55.337 9.73648L65.9393 9.72514L83.1475 39.749L107.935 39.7992L118.455 57.9119Z" fill="url(#paint5_linear_2589_1335)"/>
<path fill-rule="evenodd" clip-rule="evenodd" d="M122.023 120.967L167.446 42.3008L178.051 60.2778L165.809 81.3464L190.122 81.41L195.303 90.393L190.012 99.5806L155.406 99.4715L142.969 120.913L122.023 120.967Z" fill="url(#paint6_linear_2589_1335)"/>
<path d="M298.115 41.7461H286.661V93.7276C286.661 101.07 286.955 112.67 287.395 125.592H286.955C281.228 114.873 274.767 104.594 270.215 97.5452L234.239 41.7461H218.527V141.304H229.981V89.3223C229.981 81.9802 229.687 68.1772 229.247 55.4023H229.687C238.204 70.2329 243.196 78.4562 247.895 85.5047L283.871 141.304H298.115V41.7461Z" fill="#D8E4FF"/>
<path d="M319.921 141.303H332.255V70.2319H319.921V141.303ZM326.088 59.8066C330.346 59.8066 333.724 56.429 333.724 52.1709C333.724 47.9128 330.346 44.5352 326.088 44.5352C321.829 44.5352 318.452 47.9124 318.452 52.1709C318.452 56.429 321.829 59.8066 326.088 59.8066Z" fill="#D8E4FF"/>
<path d="M409.102 70.2344H395.005L377.678 96.3723H377.237L360.497 70.2344H345.226L370.629 104.889V105.33L344.345 141.305H358.442L376.943 113.112H377.384L395.886 141.305H411.157L384.285 104.742V104.302L409.102 70.2344Z" fill="#D8E4FF"/>
<defs>
<linearGradient id="paint0_linear_2589_1335" x1="51.5358" y1="95.0333" x2="84.7955" y2="152.557" gradientUnits="userSpaceOnUse">
<stop stop-color="#699AD7"/>
<stop offset="0.243" stop-color="#7EB1DD"/>
<stop offset="1" stop-color="#7EBAE4"/>
</linearGradient>
<linearGradient id="paint1_linear_2589_1335" x1="72.906" y1="49.0653" x2="39.7185" y2="106.631" gradientUnits="userSpaceOnUse">
<stop stop-color="#699AD7"/>
<stop offset="0.243" stop-color="#7EB1DD"/>
<stop offset="1" stop-color="#7EBAE4"/>
</linearGradient>
<linearGradient id="paint2_linear_2589_1335" x1="80.6699" y1="136.605" x2="147.117" y2="136.563" gradientUnits="userSpaceOnUse">
<stop stop-color="#699AD7"/>
<stop offset="0.243" stop-color="#7EB1DD"/>
<stop offset="1" stop-color="#7EBAE4"/>
</linearGradient>
<linearGradient id="paint3_linear_2589_1335" x1="152.754" y1="86.1034" x2="119.495" y2="28.5794" gradientUnits="userSpaceOnUse">
<stop stop-color="#699AD7"/>
<stop offset="0.243" stop-color="#7EB1DD"/>
<stop offset="1" stop-color="#7EBAE4"/>
</linearGradient>
<linearGradient id="paint4_linear_2589_1335" x1="54.9737" y1="93.0769" x2="87.6431" y2="150.824" gradientUnits="userSpaceOnUse">
<stop stop-color="#415E9A"/>
<stop offset="0.232" stop-color="#4A6BAF"/>
<stop offset="1" stop-color="#5277C3"/>
</linearGradient>
<linearGradient id="paint5_linear_2589_1335" x1="123.408" y1="48.3039" x2="57.0626" y2="47.7228" gradientUnits="userSpaceOnUse">
<stop stop-color="#415E9A"/>
<stop offset="0.232" stop-color="#4A6BAF"/>
<stop offset="1" stop-color="#5277C3"/>
</linearGradient>
<linearGradient id="paint6_linear_2589_1335" x1="127.867" y1="130.061" x2="161.543" y2="72.8944" gradientUnits="userSpaceOnUse">
<stop stop-color="#415E9A"/>
<stop offset="0.232" stop-color="#4A6BAF"/>
<stop offset="1" stop-color="#5277C3"/>
</linearGradient>
</defs>
</svg>
