<?xml version="1.0" encoding="UTF-8" standalone="no"?>
<!DOCTYPE svg PUBLIC "-//W3C//DTD SVG 1.1//EN" "http://www.w3.org/Graphics/SVG/1.1/DTD/svg11.dtd">
<svg preserveAspectRatio="xMidYMid" width="496" height="160" viewBox="0 0 496 160" version="1.1" xmlns="http://www.w3.org/2000/svg" xmlns:xlink="http://www.w3.org/1999/xlink" xml:space="preserve" xmlns:serif="http://www.serif.com/" style="fill-rule:evenodd;clip-rule:evenodd;stroke-linejoin:round;stroke-miterlimit:2;">
    <g transform="matrix(1,0,0,1,-10.0063,-111.624)">
        <g>
            <g transform="matrix(0.739779,0,0,0.739779,166.067,46.5732)">
                <path d="M275.7,299.4C269.3,299.4 267.7,297.8 267.7,289.9L267.7,222.6C270.2,220.8 273.2,219.7 276.3,219.6C281.2,219.6 285.5,221.7 292.4,229.8C294.5,232.3 296.4,233.5 298.4,233.5C301.6,233.5 303.5,231.4 303.5,227.8L303.5,203.3L298.7,203.3C292.8,203.2 287,204.4 281.7,206.8C276.3,209.2 271.6,212.7 267.7,217.2L267.7,203.4L229.5,203.4L229.5,209L235.9,209C242.3,209 243.9,210.6 243.9,218.5L243.9,290.1C243.9,298.1 242.3,299.6 235.9,299.6L229.5,299.6L229.5,305.2L288.3,305.2L288.3,299.6L275.7,299.6L275.7,299.4ZM309.9,208.8L314.2,208.8C320.6,208.8 322.2,210.4 322.2,218.3L322.2,289.9C322.2,297.9 320.6,299.4 314.2,299.4L307.2,299.4L307.2,305L359.8,305L359.8,299.4L354,299.4C347.6,299.4 346,297.8 346,289.9L346,203.2L309.9,203.2L309.9,208.8ZM368.6,305L374.5,305L374.5,303.4C374.5,299.7 377.2,299.9 380.4,301C392.6,305.3 398.8,306.6 408.5,306.6C434.4,306.6 446.7,294.5 446.7,274.3C446.7,260.8 438.9,248.9 419.3,243.1L393.7,235.6C381.5,231.9 377.8,227 377.8,221.8C377.8,216.6 382.6,211.8 390.4,211.8C402.3,211.8 413.8,219.1 430.5,232.3C431.9,233.6 433.6,234.3 435.4,234.5C438.6,234.5 440.5,232.4 440.5,228.8L440.5,203.2L434.6,203.2L434.6,204.8C434.6,207.5 432.9,208.8 429.5,207.5C417.7,203 410.6,201.6 403.9,201.6C380.8,201.6 369.6,214.6 369.6,233.2C369.6,246.6 378.8,257.8 400.1,264.4L423,271.4C434.4,274.9 438.4,279.5 438.4,285.7C438.4,291.9 433.2,296.4 425.4,296.4C414.6,296.4 400.3,291 379.3,274.8C377.8,273.4 375.8,272.4 373.7,272.1C370.5,272.1 368.6,274.2 368.6,277.8L368.6,305ZM467.8,276.2C467.8,295.9 479.4,306.6 501,306.6C511.2,306.6 526.6,303.7 538.5,299.8L538.5,281.2C538.5,277.5 536.6,275.5 533.4,275.5C531.5,275.5 529.7,276.6 527.8,279.5C516.4,296.7 507.4,301.3 500.1,301.3C493.7,301.3 491.5,298.4 491.5,290.3L491.5,221.6L542.2,221.6L542.2,203.3L491.5,203.3L491.5,165L485.6,165L485.6,166.1C485.6,188.8 471.6,207 451.7,210.8L451.7,221.5L467.6,221.5L467.6,276.2L467.8,276.2ZM322.1,190.5L346,190.5L346,162.7L322.1,162.7L322.1,190.5ZM192.9,244.6L192.9,283.2C183.7,288.9 173.3,292.3 164.6,292.3C121,292.3 81.9,244.8 81.9,195.3C81.9,172.1 97.2,153.8 123.7,153.8C140.4,153.8 172.8,164.5 196.8,190.2C197.5,191.1 198.4,191.9 199.5,192.4C200.5,192.9 201.7,193.3 202.9,193.4C206.1,193.4 208,191.3 208,187.7L208,146L202.1,146L202.1,147.6C202.1,153.3 198.8,154.9 190.5,152.4C173.9,146.8 156.5,144.2 139,144.4C86.7,144.4 57.9,185.4 57.9,225.5C57.9,271.3 92.7,306.6 139,306.6C158.3,306.5 177.1,300.4 192.9,289.3L192.9,305L216,305L216,222.3L131.7,222.3L131.7,244.6L192.9,244.6Z" style="fill:rgb(1,2,2);fill-rule:nonzero;"/>
            </g>
            <g id="appIcon__Grist.svg" transform="matrix(5.625,0,0,5.625,100.006,201.624)">
                <g transform="matrix(1,0,0,1,-16,-16)">
                    <g id="Group" transform="matrix(1,0,0,1,2,2)">
                        <g id="grist-logo-icon-transparent">
                            <g id="Group1" serif:id="Group">
                                <path id="Path" d="M28,0L23.643,0C21.632,0 20,1.795 20,4.007L20,8L24.391,8C26.383,8 28,6.221 28,4.031L28,0Z" style="fill:rgb(22,179,120);fill-rule:nonzero;"/>
                                <g id="Path1" serif:id="Path" transform="matrix(-1,0,0,1,28,0)">
                                    <path d="M18,0L13.643,0C11.632,0 10,1.795 10,4.007L10,8L14.391,8C16.383,8 18,6.221 18,4.031L18,0Z" style="fill:rgb(22,179,120);fill-rule:nonzero;"/>
                                </g>
                                <g id="Path2" serif:id="Path" transform="matrix(-1,0,0,1,8,0)">
                                    <path d="M8,10L3.643,10C1.632,10 0,11.795 0,14.007L0,18L4.391,18C6.383,18 8,16.221 8,14.031L8,10Z" style="fill:rgb(249,174,65);fill-rule:nonzero;"/>
                                </g>
                                <g id="Path3" serif:id="Path" transform="matrix(-1,0,0,1,8,0)">
                                    <path d="M8,20L3.643,20C1.632,20 0,21.795 0,24.007L0,28L4.391,28C6.383,28 8,26.221 8,24.031L8,20Z" style="fill:rgb(249,174,65);fill-rule:nonzero;"/>
                                </g>
                                <g id="Path4" serif:id="Path" transform="matrix(-1,0,0,1,28,0)">
                                    <path d="M18,10L13.643,10C11.632,10 10,11.795 10,14.007L10,18L14.391,18C16.383,18 18,16.221 18,14.031L18,10Z" style="fill:rgb(210,210,210);fill-rule:nonzero;"/>
                                </g>
                                <path id="Path5" serif:id="Path" d="M28,10L23.643,10C21.632,10 20,11.795 20,14.007L20,18L24.391,18C26.383,18 28,16.221 28,14.031L28,10Z" style="fill:rgb(210,210,210);fill-rule:nonzero;"/>
                                <g id="Path6" serif:id="Path" transform="matrix(-1,0,0,1,28,0)">
                                    <path d="M18,20L13.643,20C11.632,20 10,21.795 10,24.007L10,28L14.391,28C16.383,28 18,26.221 18,24.031L18,20Z" style="fill:rgb(210,210,210);fill-rule:nonzero;"/>
                                </g>
                                <path id="Path7" serif:id="Path" d="M28,20L23.643,20C21.632,20 20,21.795 20,24.007L20,28L24.391,28C26.383,28 28,26.221 28,24.031L28,20Z" style="fill:rgb(210,210,210);fill-rule:nonzero;"/>
                            </g>
                        </g>
                    </g>
                </g>
            </g>
        </g>
    </g>
</svg>
