<svg preserveAspectRatio="xMidYMid" width="800" height="160" viewBox="0 0 800 160" fill="none" xmlns="http://www.w3.org/2000/svg">
<path d="M44.623 33.696V14.434H52.9327C54.0883 14.434 55.1016 14.6313 55.9733 15.0259C56.8442 15.4205 57.5235 15.9801 58.0095 16.7047C58.4955 17.4292 58.7389 18.2872 58.7389 19.2778V19.5527C58.7389 20.4333 58.569 21.1579 58.2294 21.7264C57.8898 22.2949 57.4863 22.7356 57.0189 23.0469C56.5515 23.359 56.1059 23.579 55.6846 23.7076V24.1475C56.1067 24.2575 56.5604 24.4734 57.0464 24.7944C57.5324 25.1154 57.9448 25.5602 58.2844 26.1287C58.6232 26.6972 58.7939 27.4403 58.7939 28.3573V28.6323C58.7939 29.6964 58.5464 30.6046 58.0507 31.3566C57.5558 32.1086 56.8717 32.6868 56.0008 33.0904C55.129 33.4939 54.1247 33.696 52.9877 33.696H44.623ZM47.5948 22.6345H52.6578C53.5748 22.6345 54.318 22.4008 54.8865 21.9326C55.4549 21.4652 55.7396 20.828 55.7396 20.0201V19.7452C55.7396 18.9381 55.4598 18.3001 54.9002 17.8327C54.3406 17.3653 53.5934 17.1308 52.6578 17.1308H47.5948V22.6345ZM47.5948 30.9992H52.6578C53.6484 30.9992 54.4231 30.7606 54.9827 30.2835C55.5423 29.8064 55.8221 29.1466 55.8221 28.3023V28.0549C55.8221 27.2115 55.5423 26.5508 54.9827 26.0737C54.4231 25.5966 53.6484 25.358 52.6578 25.358H47.5948V30.9992Z" fill="white"/>
<path d="M61.6992 33.696V14.434H64.5335V33.696H61.6992Z" fill="white"/>
<path d="M74.453 34.0817C73.0953 34.0817 71.8896 33.8019 70.8343 33.2424C69.779 32.6828 68.9493 31.8806 68.3437 30.835C67.738 29.7894 67.4355 28.5514 67.4355 27.1201V26.7076C67.4355 25.2771 67.738 24.0431 68.3437 23.0065C68.9493 21.9706 69.779 21.1676 70.8343 20.5991C71.8888 20.0306 73.0953 19.746 74.453 19.746C75.8107 19.746 77.0213 20.0306 78.0855 20.5991C79.1489 21.1676 79.9842 21.9706 80.5899 23.0065C81.1956 24.0431 81.498 25.2763 81.498 26.7076V27.1201C81.498 28.5506 81.1956 29.7894 80.5899 30.835C79.9842 31.8806 79.1497 32.6836 78.0855 33.2424C77.0213 33.8019 75.8107 34.0817 74.453 34.0817ZM74.453 31.5499C75.7 31.5499 76.714 31.1512 77.4936 30.3531C78.2731 29.5549 78.6629 28.4503 78.6629 27.0376V26.7901C78.6629 25.3774 78.2779 24.2728 77.5073 23.4747C76.7366 22.6765 75.7186 22.2779 74.453 22.2779C73.1875 22.2779 72.2195 22.6765 71.44 23.4747C70.6604 24.2728 70.2707 25.3782 70.2707 26.7901V27.0376C70.2707 28.4503 70.6604 29.5557 71.44 30.3531C72.2195 31.1512 73.2239 31.5499 74.453 31.5499Z" fill="white"/>
<path d="M90.6969 34.0817C89.3941 34.0817 88.2159 33.8068 87.1606 33.2561C86.1053 32.7054 85.2708 31.9081 84.6562 30.8625C84.0417 29.8169 83.7344 28.5603 83.7344 27.0926V26.7351C83.7344 25.2674 84.0417 24.0156 84.6562 22.979C85.2708 21.9431 86.1053 21.1449 87.1606 20.5853C88.2151 20.0258 89.3941 19.746 90.6969 19.746C91.9996 19.746 93.1091 19.9845 94.0261 20.4616C94.9431 20.9387 95.6814 21.5719 96.241 22.3603C96.8006 23.1496 97.1628 24.0205 97.3278 24.9747L94.576 25.5529C94.4838 24.9472 94.2913 24.3973 93.9986 23.9016C93.7051 23.4067 93.2918 23.0121 92.7605 22.7186C92.2284 22.425 91.5589 22.2779 90.7519 22.2779C89.9448 22.2779 89.2526 22.4566 88.6194 22.8148C87.9863 23.1722 87.4865 23.6865 87.1202 24.3561C86.7531 25.0257 86.5695 25.8375 86.5695 26.7909V27.0384C86.5695 27.9926 86.7531 28.8093 87.1202 29.487C87.4865 30.1663 87.9871 30.6797 88.6194 31.0283C89.2526 31.3768 89.9634 31.5515 90.7519 31.5515C91.9438 31.5515 92.8519 31.2442 93.4762 30.6296C94.0997 30.015 94.4943 29.2306 94.6593 28.2772L97.4111 28.9104C97.1911 29.846 96.8014 30.7081 96.2418 31.4973C95.6822 32.2865 94.9439 32.9141 94.0269 33.3823C93.1091 33.8497 91.9996 34.0842 90.6977 34.0842L90.6969 34.0817Z" fill="white"/>
<path d="M99.991 33.696V14.434H102.825V25.413H103.265L108.603 20.1301H112.373L105.521 26.7069L112.593 33.696H108.851L103.264 28.0549H102.825V33.696H99.9902H99.991Z" fill="white"/>
<path d="M121.375 34.0821C119.926 34.0821 118.642 33.825 117.523 33.3115C116.404 32.798 115.528 32.0411 114.895 31.0416C114.261 30.0421 113.945 28.8267 113.945 27.3954V26.7072H116.89V27.3954C116.89 28.7531 117.298 29.7712 118.114 30.4497C118.93 31.1289 120.017 31.4677 121.374 31.4677C122.732 31.4677 123.787 31.1791 124.484 30.6009C125.181 30.0227 125.529 29.2755 125.529 28.3585C125.529 27.7528 125.364 27.2579 125.034 26.8722C124.703 26.4865 124.235 26.18 123.631 25.9503C123.025 25.7215 122.3 25.5056 121.457 25.3034L120.439 25.0559C119.21 24.7624 118.141 24.4001 117.233 23.9691C116.325 23.5381 115.623 22.9648 115.128 22.2491C114.633 21.5335 114.385 20.6165 114.385 19.4973C114.385 18.3781 114.665 17.3883 115.225 16.5805C115.784 15.7734 116.559 15.15 117.549 14.7093C118.54 14.2693 119.705 14.0486 121.044 14.0486C122.384 14.0486 123.58 14.2782 124.636 14.7367C125.69 15.1953 126.521 15.8745 127.126 16.7729C127.731 17.6722 128.034 18.8002 128.034 20.1571V21.1477H125.089V20.1571C125.089 19.3315 124.92 18.6619 124.58 18.1484C124.24 17.635 123.768 17.2589 123.163 17.0204C122.557 16.7818 121.852 16.663 121.044 16.663C119.87 16.663 118.957 16.9064 118.306 17.3924C117.655 17.8784 117.33 18.5528 117.33 19.4148C117.33 20.0019 117.471 20.4838 117.756 20.859C118.04 21.2351 118.458 21.5424 119.007 21.7809C119.558 22.0195 120.246 22.2305 121.071 22.4141L122.089 22.6615C123.336 22.9365 124.438 23.2898 125.391 23.7209C126.344 24.1519 127.097 24.7349 127.647 25.4684C128.198 26.2026 128.473 27.1471 128.473 28.3027C128.473 29.4582 128.184 30.4674 127.606 31.3295C127.028 32.1923 126.207 32.8659 125.144 33.3519C124.079 33.8379 122.823 34.0813 121.374 34.0813L121.375 34.0821Z" fill="white"/>
<path d="M136.153 33.9441C135.125 33.9441 134.208 33.7145 133.401 33.256C132.593 32.7975 131.961 32.1465 131.503 31.3023C131.044 30.4588 130.814 29.4496 130.814 28.2755V20.1307H133.649V28.083C133.649 29.2572 133.942 30.1241 134.529 30.6836C135.116 31.2432 135.932 31.523 136.978 31.523C138.134 31.523 139.064 31.1332 139.771 30.3537C140.477 29.5742 140.83 28.451 140.83 26.9832V20.1315H143.665V33.6975H140.885V31.6613H140.445C140.188 32.2112 139.73 32.7303 139.07 33.2163C138.409 33.7023 137.437 33.9457 136.153 33.9457V33.9441Z" fill="white"/>
<path d="M147.152 33.6964V20.1305H149.932V21.7268H150.372C150.592 21.1583 150.945 20.741 151.431 20.475C151.917 20.2089 152.518 20.0763 153.233 20.0763H154.857V22.6357H153.123C152.206 22.6357 151.454 22.888 150.867 23.3926C150.28 23.8972 149.987 24.6719 149.987 25.7174V33.6972H147.152V33.6964Z" fill="white"/>
<path d="M161.119 33.6967L156.551 20.1307H159.55L163.154 31.6055H163.595L167.2 20.1307H170.199L165.631 33.6967H161.119Z" fill="white"/>
<path d="M178.022 34.0817C176.646 34.0817 175.444 33.7931 174.417 33.2149C173.389 32.6367 172.587 31.8208 172.009 30.7663C171.431 29.7118 171.143 28.4875 171.143 27.0926V26.7626C171.143 25.3499 171.426 24.1167 171.996 23.0614C172.564 22.007 173.357 21.1902 174.376 20.6128C175.394 20.0347 176.572 19.746 177.912 19.746C179.252 19.746 180.356 20.0347 181.337 20.6128C182.318 21.191 183.085 21.9932 183.635 23.0202C184.185 24.048 184.46 25.2488 184.46 26.6252V27.6982H174.031C174.067 28.891 174.467 29.8404 175.228 30.5463C175.989 31.2523 176.938 31.6057 178.076 31.6057C179.139 31.6057 179.942 31.3671 180.483 30.89C181.024 30.4129 181.442 29.863 181.735 29.2387L184.074 30.4493C183.817 30.9628 183.445 31.5046 182.959 32.0731C182.473 32.6415 181.835 33.1186 181.047 33.5044C180.258 33.8893 179.249 34.0826 178.02 34.0826L178.022 34.0817ZM174.059 25.5238H181.572C181.498 24.4968 181.132 23.6938 180.471 23.1164C179.811 22.5382 178.948 22.2496 177.884 22.2496C176.82 22.2496 175.953 22.5382 175.284 23.1164C174.614 23.6946 174.206 24.4968 174.059 25.5238Z" fill="white"/>
<path d="M188.853 39.2004V36.7235H196.42C196.934 36.7235 197.191 36.4485 197.191 35.8978V31.7155H196.75C196.585 32.0826 196.333 32.436 195.993 32.7748C195.654 33.1144 195.199 33.3942 194.631 33.6142C194.063 33.8341 193.347 33.9441 192.485 33.9441C191.457 33.9441 190.54 33.7145 189.733 33.256C188.926 32.7975 188.293 32.1465 187.835 31.3023C187.376 30.4588 187.146 29.4585 187.146 28.303V20.1307H189.981V28.083C189.981 29.2572 190.274 30.1241 190.861 30.6836C191.449 31.2432 192.264 31.523 193.31 31.523C194.466 31.523 195.396 31.1381 196.103 30.3675C196.809 29.5968 197.162 28.4784 197.162 27.0107V20.1315H199.997V36.4768C199.997 37.3025 199.753 37.9623 199.267 38.458C198.781 38.9529 198.116 39.2012 197.272 39.2012H188.853V39.2004Z" fill="white"/>
<path d="M22.7522 16.4318V13.329H0V0H36.1047V16.4318H22.7522Z" fill="white"/>
<path d="M22.7522 36.6236V33.5111H0V20.1821H36.1047V36.6236H22.7522Z" fill="white"/>
</svg>
