<svg preserveAspectRatio="xMidYMid" width="661" height="160" viewBox="0 0 661 160" fill="none" xmlns="http://www.w3.org/2000/svg">
<path d="M57 31V28.5504L65.3259 18.6915H57V16H69V18.4798L60.7037 28.3085H69V31H57Z" fill="black"/>
<path d="M73.8571 24.5417C73.8571 25.0179 74.0258 25.5139 74.3631 26.0298C74.7202 26.5456 75.127 26.9821 75.5833 27.3393C76.4167 27.994 77.3889 28.3214 78.5 28.3214C80.2659 28.3214 81.7044 27.4683 82.8155 25.7619L85.0774 27.1012C84.3036 28.3512 83.3512 29.3135 82.2202 29.9881C81.0893 30.6627 79.8492 31 78.5 31C77.4881 31 76.5258 30.8115 75.6131 30.4345C74.7004 30.0377 73.8968 29.4921 73.2024 28.7976C72.5079 28.1032 71.9623 27.2996 71.5655 26.3869C71.1885 25.4742 71 24.5119 71 23.5C71 22.4881 71.1885 21.5258 71.5655 20.6131C71.9623 19.6806 72.5079 18.8671 73.2024 18.1726C73.877 17.4782 74.6706 16.9425 75.5833 16.5655C76.5159 16.1885 77.4881 16 78.5 16C79.5119 16 80.4742 16.1885 81.3869 16.5655C82.3194 16.9425 83.123 17.4782 83.7976 18.1726C85.2659 19.6806 86 21.4266 86 23.4107C86 23.7679 85.9702 24.1448 85.9107 24.5417H73.8571ZM78.5 18.4405C77.6865 18.4405 76.9226 18.619 76.2083 18.9762C75.494 19.3333 74.9187 19.8095 74.4821 20.4048C74.0655 20.9802 73.8571 21.5952 73.8571 22.25H83.1429C83.1429 21.5952 82.9246 20.9802 82.4881 20.4048C82.0714 19.8095 81.506 19.3333 80.7917 18.9762C80.0774 18.619 79.3135 18.4405 78.5 18.4405Z" fill="black"/>
<path d="M95.2876 18.9762C94.7647 18.7579 94.2963 18.6488 93.8824 18.6488C93.0109 18.6488 92.2919 18.9266 91.7255 19.4821C91.1155 20.0774 90.8105 20.7619 90.8105 21.5357V31H88V21.5357C88 20.4643 88.2941 19.4821 88.8824 18.5893C89.4924 17.6964 90.3203 17.002 91.366 16.506C92.1503 16.1687 92.9891 16 93.8824 16C94.6013 16 95.2876 16.119 95.9412 16.3571C96.5948 16.5952 97.281 16.9821 98 17.5179L95.2876 18.9762Z" fill="black"/>
<path d="M105.47 31C104.467 31 103.512 30.8031 102.606 30.4094C101.701 30.0157 100.904 29.4744 100.215 28.7854C99.5256 28.0965 98.9843 27.2992 98.5906 26.3937C98.1969 25.4882 98 24.5335 98 23.5295C98 22.5059 98.1969 21.5315 98.5906 20.6063C98.9843 19.6811 99.5256 18.874 100.215 18.185C100.904 17.4961 101.701 16.9646 102.606 16.5906C103.512 16.1969 104.467 16 105.47 16C106.494 16 107.469 16.1969 108.394 16.5906C109.319 16.9646 110.126 17.4961 110.815 18.185C111.504 18.874 112.035 19.6811 112.409 20.6063C112.803 21.5315 113 22.5059 113 23.5295C113 24.5335 112.803 25.4882 112.409 26.3937C112.035 27.2992 111.504 28.0965 110.815 28.7854C110.126 29.4744 109.319 30.0157 108.394 30.4094C107.469 30.8031 106.494 31 105.47 31ZM105.47 18.628C104.152 18.628 103.02 19.1004 102.075 20.0453C101.622 20.498 101.268 21.0295 101.012 21.6398C100.756 22.25 100.628 22.8799 100.628 23.5295C100.628 24.1791 100.756 24.7992 101.012 25.3898C101.268 25.9803 101.622 26.502 102.075 26.9547C102.528 27.4075 103.039 27.7618 103.61 28.0177C104.201 28.2736 104.821 28.4016 105.47 28.4016C106.12 28.4016 106.75 28.2736 107.36 28.0177C107.97 27.7618 108.492 27.4075 108.925 26.9547C109.358 26.502 109.703 25.9803 109.959 25.3898C110.215 24.7992 110.343 24.1791 110.343 23.5295C110.343 22.8799 110.215 22.25 109.959 21.6398C109.703 21.0295 109.358 20.498 108.925 20.0453C108.492 19.5925 107.97 19.248 107.36 19.0118C106.77 18.7559 106.14 18.628 105.47 18.628Z" fill="black"/>
<path d="M139.47 31C138.467 31 137.512 30.8031 136.606 30.4094C135.701 30.0157 134.904 29.4744 134.215 28.7854C133.526 28.0965 132.984 27.2992 132.591 26.3937C132.197 25.4882 132 24.5335 132 23.5295C132 22.5059 132.197 21.5315 132.591 20.6063C132.984 19.6811 133.526 18.874 134.215 18.185C134.904 17.4961 135.701 16.9646 136.606 16.5906C137.512 16.1969 138.467 16 139.47 16C140.494 16 141.469 16.1969 142.394 16.5906C143.319 16.9646 144.126 17.4961 144.815 18.185C145.504 18.874 146.035 19.6811 146.409 20.6063C146.803 21.5315 147 22.5059 147 23.5295C147 24.5335 146.803 25.4882 146.409 26.3937C146.035 27.2992 145.504 28.0965 144.815 28.7854C144.126 29.4744 143.319 30.0157 142.394 30.4094C141.469 30.8031 140.494 31 139.47 31ZM139.47 18.628C138.152 18.628 137.02 19.1004 136.075 20.0453C135.622 20.498 135.268 21.0295 135.012 21.6398C134.756 22.25 134.628 22.8799 134.628 23.5295C134.628 24.1791 134.756 24.7992 135.012 25.3898C135.268 25.9803 135.622 26.502 136.075 26.9547C136.528 27.4075 137.039 27.7618 137.61 28.0177C138.201 28.2736 138.821 28.4016 139.47 28.4016C140.12 28.4016 140.75 28.2736 141.36 28.0177C141.97 27.7618 142.492 27.4075 142.925 26.9547C143.358 26.502 143.703 25.9803 143.959 25.3898C144.215 24.7992 144.343 24.1791 144.343 23.5295C144.343 22.8799 144.215 22.25 143.959 21.6398C143.703 21.0295 143.358 20.498 142.925 20.0453C142.492 19.5925 141.97 19.248 141.36 19.0118C140.77 18.7559 140.14 18.628 139.47 18.628Z" fill="black"/>
<path d="M161.396 30.8505V28.5486C160.765 29.3059 160.016 29.9038 159.148 30.3423C158.3 30.7808 157.412 31 156.485 31C155.44 31 154.464 30.8107 153.556 30.432C152.649 30.0334 151.86 29.4753 151.189 28.7578C150.499 28.0404 149.957 27.2232 149.562 26.3064C149.187 25.3697 149 24.3832 149 23.3468C149 22.3104 149.187 21.3338 149.562 20.417C149.957 19.4803 150.499 18.6532 151.189 17.9357C151.86 17.2182 152.649 16.6702 153.556 16.2915C154.464 15.8929 155.44 15.6936 156.485 15.6936C157.511 15.6936 158.438 15.9028 159.266 16.3214C160.114 16.7399 160.824 17.3179 161.396 18.0553V11H164V30.8505H161.396ZM156.485 18.4141C155.834 18.4141 155.213 18.5436 154.621 18.8027C154.03 19.0419 153.517 19.3906 153.083 19.849C152.649 20.3074 152.304 20.8455 152.047 21.4634C151.791 22.0613 151.663 22.6891 151.663 23.3468C151.663 24.6821 152.136 25.848 153.083 26.8445C153.517 27.3029 154.03 27.6617 154.621 27.9208C155.213 28.1799 155.834 28.3094 156.485 28.3094C157.136 28.3094 157.757 28.1799 158.349 27.9208C158.961 27.6617 159.483 27.3029 159.917 26.8445C160.864 25.848 161.337 24.6821 161.337 23.3468C161.337 22.6891 161.209 22.0613 160.953 21.4634C160.696 20.8455 160.351 20.3074 159.917 19.849C159.483 19.3906 158.961 19.0419 158.349 18.8027C157.757 18.5436 157.136 18.4141 156.485 18.4141Z" fill="black"/>
<path d="M168.857 24.5417C168.857 25.0179 169.026 25.5139 169.363 26.0298C169.72 26.5456 170.127 26.9821 170.583 27.3393C171.417 27.994 172.389 28.3214 173.5 28.3214C175.266 28.3214 176.704 27.4683 177.815 25.7619L180.077 27.1012C179.304 28.3512 178.351 29.3135 177.22 29.9881C176.089 30.6627 174.849 31 173.5 31C172.488 31 171.526 30.8115 170.613 30.4345C169.7 30.0377 168.897 29.4921 168.202 28.7976C167.508 28.1032 166.962 27.2996 166.565 26.3869C166.188 25.4742 166 24.5119 166 23.5C166 22.4881 166.188 21.5258 166.565 20.6131C166.962 19.6806 167.508 18.8671 168.202 18.1726C168.877 17.4782 169.671 16.9425 170.583 16.5655C171.516 16.1885 172.488 16 173.5 16C174.512 16 175.474 16.1885 176.387 16.5655C177.319 16.9425 178.123 17.4782 178.798 18.1726C180.266 19.6806 181 21.4266 181 23.4107C181 23.7679 180.97 24.1448 180.911 24.5417H168.857ZM173.5 18.4405C172.687 18.4405 171.923 18.619 171.208 18.9762C170.494 19.3333 169.919 19.8095 169.482 20.4048C169.065 20.9802 168.857 21.5952 168.857 22.25H178.143C178.143 21.5952 177.925 20.9802 177.488 20.4048C177.071 19.8095 176.506 19.3333 175.792 18.9762C175.077 18.619 174.313 18.4405 173.5 18.4405Z" fill="black"/>
<path d="M22.62 45C10.15 45 0 34.9731 0 22.8253V22.2228C0 9.95445 10.15 0 22.4992 0C34.8726 0 44.9985 9.95445 44.9985 22.1746V22.7772C45.1435 34.9972 34.9934 45 22.62 45Z" fill="#1AAFD0"/>
<path d="M21.9219 26.4646C21.4627 27.284 21.7527 28.3446 22.526 28.7785C22.816 28.8506 23.0577 29.0677 23.3477 29.0677C23.8794 29.0677 24.5078 28.7785 24.7736 28.2483L33.9327 12.9911C34.2227 12.6296 34.2953 12.2921 34.2953 11.8342C34.2953 10.6049 33.3285 9.61673 32.0719 9.61673H14.261C13.3668 9.61673 12.7627 10.3157 12.7627 11.1111C12.7627 12.0029 13.4635 12.6055 14.261 12.6055H24.0244C25.9094 12.6055 27.5044 14.0998 27.5044 15.9799C27.5044 16.5824 27.3352 17.2091 26.9728 17.8599L21.9219 26.4646Z" fill="white"/>
<path opacity="0.7" d="M32.3154 34.3447C32.7746 33.5253 32.6054 32.4647 31.7838 32.0309C31.4938 31.8621 31.1796 31.7417 30.8896 31.7417L21.1263 31.8139C19.2413 31.8139 17.6463 30.3197 17.6463 28.4397C17.6463 27.8371 17.8155 27.2103 18.178 26.5595L23.0838 18.2441C23.5429 17.5451 23.3738 16.5569 22.5522 16.0266C21.8513 15.5687 20.8605 15.7374 20.3288 16.5569C20.3288 16.6292 20.2563 16.6292 20.2563 16.6292L11.2663 31.9585C10.6621 33.0191 10.9763 34.3447 11.9671 34.9715H12.0396C12.4021 35.1402 12.7405 35.2607 13.1996 35.2607L30.9138 35.1883C31.4454 35.2366 32.0496 34.8749 32.3154 34.3447Z" fill="white"/>
<path d="M22.62 45C10.15 45 0 34.9731 0 22.8253V22.2228C0 9.95445 10.15 0 22.4992 0C34.8726 0 44.9985 9.95445 44.9985 22.1746V22.7772C45.1435 34.9972 34.9934 45 22.62 45Z" fill="#1AAFD0"/>
<path d="M21.9219 26.4646C21.4627 27.284 21.7527 28.3446 22.526 28.7785C22.816 28.8506 23.0577 29.0677 23.3477 29.0677C23.8794 29.0677 24.5078 28.7785 24.7736 28.2483L33.9327 12.9911C34.2227 12.6296 34.2953 12.2921 34.2953 11.8342C34.2953 10.6049 33.3285 9.61673 32.0719 9.61673H14.261C13.3668 9.61673 12.7627 10.3157 12.7627 11.1111C12.7627 12.0029 13.4635 12.6055 14.261 12.6055H24.0244C25.9094 12.6055 27.5044 14.0998 27.5044 15.9799C27.5044 16.5824 27.3352 17.2091 26.9728 17.8599L21.9219 26.4646Z" fill="white"/>
<path opacity="0.7" d="M32.3154 34.3447C32.7746 33.5253 32.6054 32.4647 31.7838 32.0309C31.4938 31.8621 31.1796 31.7417 30.8896 31.7417L21.1263 31.8139C19.2413 31.8139 17.6463 30.3197 17.6463 28.4397C17.6463 27.8371 17.8155 27.2103 18.178 26.5595L23.0838 18.2441C23.5429 17.5451 23.3738 16.5569 22.5522 16.0266C21.8513 15.5687 20.8605 15.7374 20.3288 16.5569C20.3288 16.6292 20.2563 16.6292 20.2563 16.6292L11.2663 31.9585C10.6621 33.0191 10.9763 34.3447 11.9671 34.9715H12.0396C12.4021 35.1402 12.7405 35.2607 13.1996 35.2607L30.9138 35.1883C31.4454 35.2366 32.0496 34.8749 32.3154 34.3447Z" fill="white"/>
<path d="M122.47 31C121.467 31 120.512 30.8031 119.606 30.4094C118.701 30.0157 117.904 29.4744 117.215 28.7854C116.526 28.0965 115.984 27.2992 115.591 26.3937C115.197 25.4882 115 24.5335 115 23.5295C115 22.5059 115.197 21.5315 115.591 20.6063C115.984 19.6811 116.526 18.874 117.215 18.185C117.904 17.4961 118.701 16.9646 119.606 16.5906C120.512 16.1969 121.467 16 122.47 16C123.494 16 124.469 16.1969 125.394 16.5906C126.319 16.9646 127.126 17.4961 127.815 18.185C128.504 18.874 129.035 19.6811 129.409 20.6063C129.803 21.5315 130 22.5059 130 23.5295C130 24.5335 129.803 25.4882 129.409 26.3937C129.035 27.2992 128.504 28.0965 127.815 28.7854C127.126 29.4744 126.319 30.0157 125.394 30.4094C124.469 30.8031 123.494 31 122.47 31ZM122.47 18.628C121.152 18.628 120.02 19.1004 119.075 20.0453C118.622 20.498 118.268 21.0295 118.012 21.6398C117.756 22.25 117.628 22.8799 117.628 23.5295C117.628 24.1791 117.756 24.7992 118.012 25.3898C118.268 25.9803 118.622 26.502 119.075 26.9547C119.528 27.4075 120.039 27.7618 120.61 28.0177C121.201 28.2736 121.821 28.4016 122.47 28.4016C123.12 28.4016 123.75 28.2736 124.36 28.0177C124.97 27.7618 125.492 27.4075 125.925 26.9547C126.358 26.502 126.703 25.9803 126.959 25.3898C127.215 24.7992 127.343 24.1791 127.343 23.5295C127.343 22.8799 127.215 22.25 126.959 21.6398C126.703 21.0295 126.358 20.498 125.925 20.0453C125.492 19.5925 124.97 19.248 124.36 19.0118C123.77 18.7559 123.14 18.628 122.47 18.628Z" fill="black"/>
<path d="M125.8 28.09L129.8 32.09" stroke="black" stroke-width="3"/>
</svg>
