<svg preserveAspectRatio="xMidYMid" width="567" height="160" viewBox="0 0 567 160" fill="none" xmlns="http://www.w3.org/2000/svg">
<g clip-path="url(#clip0_950_10966)">
<path d="M93.226 0H9.16565C4.1172 0.00916001 0.023023 4.09211 0 9.14051V100.568C0.0230305 105.619 4.12015 109.704 9.17123 109.711H93.2316C98.2822 109.704 102.379 105.619 102.4 100.568V96.3035C102.246 90.8159 102.093 79.3881 102.093 74.2077C102.093 71.3116 99.9536 68.8736 97.2028 68.8736C94.1448 68.8736 92.1592 70.7028 90.6316 72.2248C86.0459 76.3413 79.1675 77.1037 73.2051 76.0369C70.4571 75.4253 67.8571 74.6657 65.7207 73.2945C59.1466 69.4824 54.8682 62.3219 54.8682 54.7034C54.8682 47.0849 59.1466 40.0753 65.7179 36.1124C68.0107 34.7412 70.6107 33.9788 73.2079 33.37C79.0167 32.3032 86.0459 33.0628 90.6316 37.1792C92.3128 38.7041 94.2984 40.5305 97.2028 40.5305C99.9536 40.5305 102.093 38.0925 102.093 35.1964C102.093 30.1696 102.246 18.5882 102.4 13.1034V9.14051C102.4 4.11365 98.2724 0 93.2288 0H93.226Z" fill="#F46A54"/>
</g>
<g clip-path="url(#clip1_950_10966)">
<path d="M115.2 73.0106C115.2 95.7527 130.942 109.888 150.86 109.888C157.861 109.888 164.861 108.197 169.967 104.376V86.6051C165.34 90.7365 159.346 93.0075 153.143 92.9797C142.795 92.9797 134.544 85.5737 134.544 73.0614C134.544 60.7445 142.506 53.5068 152.658 53.2836L153.143 53.2783C159.378 53.159 165.425 55.4204 170.052 59.6021V41.7974C164.979 37.8915 157.945 36.4036 150.945 36.4036C130.942 36.4036 115.2 50.5391 115.2 73.0106ZM210.548 36.4036C190.257 36.4036 176.088 51.486 176.088 73.0106C176.088 94.5353 190.224 109.888 210.548 109.888C230.872 109.888 245.126 94.6705 245.126 73.0106C245.126 51.3507 231.007 36.4036 210.548 36.4036ZM210.548 93.3348C200.859 93.3348 195.465 84.8805 195.465 73.0445C195.465 61.2084 200.859 52.8556 210.548 52.8556C220.236 52.8556 225.613 61.3099 225.613 73.0445C225.613 84.779 220.372 93.3348 210.548 93.3348ZM300.637 43.8095C295.972 39.0194 289.552 36.3439 282.866 36.4036C262.406 36.4036 250.841 52.9571 250.841 73.0106C250.841 93.3009 262.406 109.888 282.866 109.888C289.54 109.886 295.937 107.22 300.637 102.482V108.282H320.149V15.2002H300.637V43.8095ZM300.637 84.7283C298.058 89.7011 292.914 92.8144 287.313 92.7939C276.677 92.7939 270.404 84.3394 270.404 73.0106C270.404 61.6819 276.728 53.3629 287.313 53.3629C292.947 53.3753 298.097 56.5513 300.637 61.5804V84.7283ZM359.191 36.4036C349.773 36.4036 340.761 38.9737 335.637 42.2032V59.1118C341.35 55.3472 348.038 53.3317 354.879 53.3121C364.839 53.3121 370.638 57.6238 370.638 64.4887V68.3946C367.798 66.3656 360.933 64.2182 354.879 64.2182C339.408 64.2182 327.707 73.3657 327.707 86.825C327.707 101.366 339.408 109.567 353.679 109.567C361.338 109.567 368.339 106.879 370.587 104.596V108.366H389.424V63.322C389.474 46.2274 378.433 36.4036 359.191 36.4036ZM370.638 89.1583C368.947 92.9289 363.773 95.2285 358.244 95.2285C352.056 95.2285 345.732 92.6584 345.732 86.6051C345.732 80.5519 352.056 77.9987 358.244 77.9987C363.773 77.9987 368.88 80.2813 370.638 84.0519V89.1583Z" fill="#101010"/>
</g>
<defs>
<clipPath id="clip0_950_10966">
<rect width="102.4" height="110" fill="white"/>
</clipPath>
<clipPath id="clip1_950_10966">
<rect width="274.224" height="94.8" fill="white" transform="translate(115.2 15.2002)"/>
</clipPath>
</defs>
</svg>
