<svg preserveAspectRatio="xMidYMid" width="651" height="160" viewBox="0 0 651 160" fill="none" xmlns="http://www.w3.org/2000/svg">
<g clip-path="url(#clip0_2114_5893)">
<path d="M250.644 147.998L168.345 162.989C166.247 165.687 161.3 170.184 158.901 171.383C148.558 176.63 141.512 175.131 135.366 173.482C131.468 172.433 129.22 171.983 125.922 170.484L105.834 173.182L117.977 274.969L259.039 249.484L250.644 147.998ZM125.022 265.375L123.823 254.281L146.909 219.203L172.992 226.849L195.478 189.222L222.461 207.061L242.999 164.038L250.344 242.289L125.022 265.375ZM119.176 165.387C108.982 158.791 98.4889 149.497 93.8418 144.25C93.0923 143.651 93.2422 141.102 93.2422 141.102C97.4396 144.4 114.679 156.692 132.817 162.239C139.263 164.188 149.157 164.937 157.702 160.14C164.298 156.393 172.093 149.947 176.74 143.351L177.639 144.85C177.639 145.899 175.391 150.696 174.342 152.645C176.29 153.844 177.789 154.144 180.038 154.744L195.178 152.345C200.575 143.651 204.473 129.559 200.275 116.068C197.877 108.423 185.584 92.9823 184.685 92.2327C181.537 89.2346 185.135 77.8417 179.139 65.2496C172.693 52.0578 155.753 38.2665 148.408 32.1203C150.506 33.6194 163.848 39.016 169.994 46.5113C170.594 45.7618 170.894 41.7143 171.343 40.665C165.947 33.7693 165.647 21.327 165.647 18.0291C165.647 11.883 162.499 4.98726 162.499 4.98726C162.499 4.98726 167.896 9.18464 169.245 16.53C170.894 25.0747 174.342 31.9704 178.989 37.6668C187.683 48.4601 195.478 54.0066 199.526 49.9592C204.323 45.1622 194.729 23.7256 182.586 11.733C168.345 -2.20824 164.598 -0.409366 156.353 2.58876C149.757 4.83735 146.159 23.8755 128.77 23.4257C125.772 23.1259 118.277 22.8261 114.529 22.976C116.478 20.2777 118.127 18.179 118.127 18.179C118.127 18.179 112.28 20.5775 107.333 23.5756L106.884 22.976C108.533 19.3783 110.332 17.2796 110.332 17.2796C110.332 17.2796 105.684 20.1278 101.487 23.4257C102.237 19.2284 105.235 16.53 105.235 16.53C105.235 16.53 99.3884 17.5794 91.893 25.8242C83.3484 28.0728 81.3996 29.7218 74.5039 32.7199C63.4108 30.3214 58.314 26.4239 53.3671 19.2284C49.6195 13.8317 42.8737 12.9323 35.978 15.7805C25.9343 19.9779 13.3421 25.5244 13.3421 25.5244C13.3421 25.5244 17.5395 25.3745 21.7369 25.5244C15.8905 27.773 10.1941 30.7711 10.1941 30.7711C10.1941 30.7711 12.8924 30.6212 16.3403 30.7711C13.9418 32.7199 12.7425 33.6194 10.4939 35.1184C5.09728 39.016 0.75 43.5132 0.75 43.5132C0.75 43.5132 4.34775 41.8642 7.64569 40.9648C5.3971 46.2115 0.75 50.1091 1.64944 56.555C2.39897 62.4014 9.59447 74.5438 19.0386 82.0391C19.7881 82.6387 32.5301 94.4813 42.1241 89.6843C51.7181 84.8873 55.4658 80.54 57.1148 73.9442C58.9136 66.2989 57.8643 60.6025 53.9667 44.1128C52.6176 38.7162 49.3196 27.4732 47.6707 22.2265L47.9705 21.9267C51.1185 28.5226 59.0636 46.0616 62.3615 57.7543C67.4583 76.0429 65.8093 85.337 63.5607 88.7849C56.5152 98.9785 38.6763 100.478 30.5814 94.7811C29.3821 114.419 33.7294 123.113 35.2285 127.461C34.4789 132.408 37.7769 141.852 37.7769 141.852C37.7769 141.852 38.0767 137.654 39.5757 135.406C40.0255 140.353 42.424 146.349 42.424 146.349C42.424 146.349 42.274 142.751 43.4733 139.603C45.1223 142.301 46.3215 142.901 47.8206 145C49.3196 150.396 52.3178 154.294 52.3178 154.294C52.3178 154.294 51.8681 151.446 52.018 148.448C59.5133 155.643 60.7125 166.137 61.4621 174.082C63.5607 196.118 26.6838 213.657 19.4883 227.448C14.0917 235.543 10.7937 248.585 19.938 256.23C42.1241 274.669 33.5795 279.766 44.6725 287.86C59.963 298.954 79.0011 294.007 85.4471 285.012C94.4414 272.42 92.1929 260.578 88.745 249.484C86.0467 240.79 79.0011 226.399 70.1566 220.852C61.1622 215.156 52.3178 214.107 44.9724 214.856L45.7219 214.107C56.3652 212.008 67.6082 213.207 75.7032 218.304C84.8474 224.15 93.2422 234.344 97.5895 249.784C102.536 249.035 103.286 248.735 107.783 248.135L97.4396 167.786L119.176 165.387ZM170.594 65.3995C180.038 69.7468 178.839 78.1415 178.989 83.0884C179.139 84.4376 178.989 85.4869 178.839 86.0866C177.49 85.337 175.541 84.8873 172.243 85.0372C171.343 85.0372 170.294 85.1871 169.395 85.337C165.947 83.5382 163.848 79.7905 161.899 75.8929C161.749 75.5931 161.599 75.1434 161.45 74.8436C161.45 74.6937 161.3 74.5438 161.3 74.3939V74.244C160.25 70.946 161 70.1965 161.45 69.2971C161.899 68.3976 163.548 67.3483 161.15 66.5988C161 66.5988 160.7 66.4488 160.4 66.4488C162.049 64.3502 166.996 63.7505 170.594 65.3995ZM158.901 120.265C160.7 118.916 169.095 116.218 176.89 115.168C180.937 114.719 186.784 114.419 187.983 115.168C190.381 116.518 190.381 120.715 188.733 124.613C186.334 130.309 182.886 136.455 178.839 136.905C172.393 137.804 166.396 134.356 159.501 129.11C157.102 127.311 155.603 122.814 158.901 120.265ZM98.339 77.5419C108.533 70.6462 121.574 73.3445 119.326 75.4432C115.129 79.4907 120.675 78.2914 121.275 85.6369C121.724 91.0335 119.926 94.0316 118.426 95.6806C115.278 96.1303 111.381 96.8798 106.734 98.3789C104.035 99.2783 101.637 100.178 99.5383 101.227C98.9386 100.927 98.339 100.478 97.7394 99.878C90.6938 93.5819 90.9936 82.6387 98.339 77.5419Z" fill="white"/>
<path fill-rule="evenodd" clip-rule="evenodd" d="M373.567 213.054H316.303V81.1367H373.567C414.791 81.1367 435.478 101.974 435.478 143.498C435.478 189.819 414.941 213.054 373.567 213.054ZM340.887 191.768H369.969C397.402 191.768 411.044 175.728 411.044 143.498C411.044 116.065 397.402 102.423 369.969 102.423H340.887V191.768Z" fill="white"/>
<path fill-rule="evenodd" clip-rule="evenodd" d="M461.112 213.054H436.078L492.143 81.1367H518.527L575.791 213.054H549.407L532.768 177.077H490.494L498.889 155.94H526.322L504.735 106.321L461.112 213.054Z" fill="white"/>
<path fill-rule="evenodd" clip-rule="evenodd" d="M561.849 81.1367H662.136V102.423H624.36V213.054H599.775V102.423H561.849V81.1367Z" fill="white"/>
<path fill-rule="evenodd" clip-rule="evenodd" d="M674.729 213.054H649.544L705.759 81.1367H731.993L789.257 213.054H763.024L746.384 177.077H703.96L712.355 155.94H739.788L718.202 106.321L674.729 213.054Z" fill="white"/>
<path fill-rule="evenodd" clip-rule="evenodd" d="M862.861 213.054H805.597V81.1367H862.861C904.086 81.1367 924.773 101.974 924.773 143.498C924.773 189.819 904.086 213.054 862.861 213.054ZM830.032 191.768H859.114C886.546 191.768 900.188 175.728 900.188 143.498C900.188 116.065 886.397 102.423 859.114 102.423H830.032V191.768Z" fill="white"/>
<path fill-rule="evenodd" clip-rule="evenodd" d="M941.412 147.246C941.412 102.574 963.598 80.2383 1007.82 80.2383C1051.29 80.2383 1073.18 102.574 1073.18 147.246C1073.18 191.769 1051.44 213.955 1007.82 213.955C965.397 213.955 943.361 191.769 941.412 147.246ZM1007.67 192.668C1034.2 192.668 1047.55 177.378 1047.55 146.647C1047.55 116.366 1034.2 101.375 1007.67 101.375C980.388 101.375 966.746 116.516 966.746 146.647C966.746 177.378 980.388 192.668 1007.67 192.668Z" fill="white"/>
<path fill-rule="evenodd" clip-rule="evenodd" d="M1175.12 159.689V190.569C1169.42 192.068 1164.47 192.818 1159.98 192.818C1129.99 192.818 1115 176.928 1115 145.298C1115 116.066 1130.89 101.525 1162.52 101.525C1175.72 101.525 1188.01 103.923 1199.55 108.87V86.6843C1188.16 82.337 1175.27 80.2383 1160.73 80.2383C1113.35 80.2383 1089.52 101.825 1089.52 145.298C1089.52 191.169 1112.76 213.955 1159.53 213.955C1175.57 213.955 1188.91 211.556 1199.55 206.909V137.952H1159.98L1151.73 159.689H1175.12Z" fill="white"/>
</g>
<defs>
<clipPath id="clip0_2114_5893">
<rect width="1200" height="294.116" fill="white" transform="translate(0 0.488281)"/>
</clipPath>
</defs>
</svg>
