<svg preserveAspectRatio="xMidYMid" width="768" height="160" viewBox="0 0 768 160" fill="none" xmlns="http://www.w3.org/2000/svg">
<g clip-path="url(#clip0_3209_2100)">
<path fill-rule="evenodd" clip-rule="evenodd" d="M15.75 0H0V15.75H15.75V0ZM7.875 12.875C10.6363 12.875 12.875 10.6363 12.875 7.875C12.875 5.11375 10.6363 2.875 7.875 2.875C5.11375 2.875 2.875 5.11375 2.875 7.875C2.875 10.6363 5.11375 12.875 7.875 12.875Z" fill="black"/>
<path fill-rule="evenodd" clip-rule="evenodd" d="M25 0H18.25V2.775C18.735 2.82375 19.2112 2.94375 19.6637 3.13C20.27 3.38125 20.8212 3.75 21.2862 4.21375C21.75 4.6775 22.1188 5.22875 22.37 5.83625C22.6213 6.4425 22.75 7.0925 22.75 7.75C22.75 8.4075 22.62 9.05625 22.37 9.66375C22.1188 10.27 21.75 10.8213 21.2862 11.2863C20.8225 11.75 20.2712 12.1187 19.6637 12.37C19.2112 12.5575 18.735 12.6763 18.25 12.725V15.75H25V0Z" fill="black"/>
<path fill-rule="evenodd" clip-rule="evenodd" d="M3 18.25H0V25H15.75V18.25H13V22H3V18.25Z" fill="black"/>
<path d="M25 18.25H18.25V25H25V18.25Z" fill="black"/>
</g>
<path d="M105.533 22.9614V6.63373H108.699L109.01 8.80661H109.227C109.599 8.30995 110.034 7.87537 110.531 7.50288C111.048 7.10969 111.628 6.80963 112.269 6.60268C112.931 6.37505 113.656 6.26123 114.442 6.26123C115.477 6.26123 116.387 6.44748 117.174 6.81997C117.981 7.19247 118.612 7.7926 119.067 8.62036C119.522 9.44813 119.75 10.5553 119.75 11.9418V22.9614H115.932V12.6247C115.932 12.0452 115.859 11.5693 115.715 11.1968C115.59 10.8036 115.394 10.4932 115.125 10.2655C114.876 10.0172 114.566 9.84132 114.194 9.73785C113.821 9.63438 113.407 9.58264 112.952 9.58264C112.269 9.58264 111.648 9.74819 111.089 10.0793C110.551 10.4104 110.117 10.8657 109.786 11.4451C109.475 12.0245 109.32 12.6971 109.32 13.4628V22.9614H105.533Z" fill="black"/>
<path d="M92.7857 23.3339C92.3304 23.3339 91.8027 23.2718 91.2026 23.1476C90.6231 23.0442 90.0541 22.8372 89.4953 22.5268C88.9573 22.2164 88.5123 21.7611 88.1605 21.161C87.8087 20.5402 87.6328 19.7331 87.6328 18.7398C87.6328 17.6223 87.8812 16.7014 88.3778 15.9771C88.8745 15.2321 89.5677 14.6527 90.4576 14.2388C91.3681 13.8042 92.4442 13.5042 93.6859 13.3386C94.9482 13.1524 96.3244 13.0593 97.8144 13.0593V11.7245C97.8144 11.2485 97.7419 10.8243 97.5971 10.4518C97.4522 10.0793 97.1832 9.78958 96.79 9.58264C96.4175 9.355 95.8484 9.24119 95.0827 9.24119C94.317 9.24119 93.7169 9.33431 93.2823 9.52056C92.8478 9.70681 92.5477 9.93444 92.3821 10.2035C92.2166 10.4725 92.1338 10.7519 92.1338 11.0416V11.4762H88.471C88.4503 11.3727 88.4399 11.2692 88.4399 11.1657C88.4399 11.0623 88.4399 10.9381 88.4399 10.7932C88.4399 9.86201 88.7193 9.05494 89.278 8.37203C89.8368 7.68913 90.6128 7.17177 91.6061 6.81997C92.5994 6.44748 93.748 6.26123 95.0517 6.26123C96.5417 6.26123 97.7626 6.46817 98.7146 6.88206C99.6872 7.29594 100.411 7.88572 100.887 8.6514C101.363 9.41709 101.601 10.3483 101.601 11.4451V19.1433C101.601 19.5365 101.715 19.8159 101.943 19.9814C102.17 20.147 102.419 20.2298 102.688 20.2298H103.681V22.8372C103.474 22.92 103.174 23.0131 102.781 23.1166C102.388 23.2408 101.901 23.3029 101.322 23.3029C100.784 23.3029 100.298 23.2097 99.8631 23.0235C99.4492 22.8579 99.0974 22.6096 98.8077 22.2785C98.518 21.9474 98.311 21.5542 98.1869 21.0989H98.0006C97.6488 21.5335 97.2246 21.9267 96.7279 22.2785C96.2519 22.6096 95.6829 22.8683 95.0207 23.0545C94.3791 23.2408 93.6341 23.3339 92.7857 23.3339ZM93.9342 20.2298C94.555 20.2298 95.1034 20.1367 95.5794 19.9504C96.076 19.7642 96.4796 19.5055 96.79 19.1744C97.1211 18.8433 97.3694 18.4397 97.535 17.9638C97.7212 17.4878 97.8144 16.9704 97.8144 16.4117V15.6667C96.6762 15.6667 95.6208 15.7391 94.6482 15.884C93.6962 16.0289 92.9305 16.2979 92.3511 16.6911C91.7924 17.0843 91.513 17.643 91.513 18.3673C91.513 18.7398 91.5958 19.0709 91.7613 19.3606C91.9476 19.6296 92.2166 19.8469 92.5684 20.0125C92.9409 20.1573 93.3962 20.2298 93.9342 20.2298Z" fill="black"/>
<path d="M78.7279 23.3339C77.0309 23.3339 75.6134 23.0338 74.4752 22.4337C73.3577 21.8129 72.5196 20.8713 71.9609 19.609C71.4021 18.3466 71.1228 16.7428 71.1228 14.7976C71.1228 12.8316 71.4021 11.2278 71.9609 9.98618C72.5403 8.72383 73.3888 7.7926 74.5063 7.19247C75.6444 6.57164 77.0516 6.26123 78.7279 6.26123C79.8247 6.26123 80.7973 6.39574 81.6457 6.66477C82.4942 6.93379 83.2185 7.34767 83.8186 7.90642C84.4394 8.44446 84.9051 9.11702 85.2155 9.92409C85.5259 10.7312 85.6811 11.6727 85.6811 12.7488H81.832C81.832 11.9832 81.7182 11.352 81.4905 10.8553C81.2629 10.3587 80.9111 9.98618 80.4351 9.73785C79.9799 9.46882 79.3901 9.33431 78.6658 9.33431C77.8173 9.33431 77.1241 9.53091 76.586 9.92409C76.048 10.3173 75.6444 10.9071 75.3754 11.6934C75.1271 12.4591 75.0029 13.4318 75.0029 14.6113V15.0149C75.0029 16.1737 75.1271 17.1463 75.3754 17.9327C75.6444 18.7191 76.0583 19.3089 76.6171 19.7021C77.1758 20.0746 77.9104 20.2608 78.821 20.2608C79.5246 20.2608 80.104 20.1367 80.5593 19.8883C81.0353 19.6193 81.3974 19.2261 81.6457 18.7088C81.8941 18.1914 82.0182 17.5706 82.0182 16.8463H85.6811C85.6811 17.8603 85.5259 18.7708 85.2155 19.5779C84.9051 20.385 84.4498 21.0679 83.8497 21.6266C83.2495 22.1854 82.5149 22.6096 81.6457 22.8993C80.7973 23.189 79.8247 23.3339 78.7279 23.3339Z" fill="black"/>
<path d="M61.8555 23.3339C60.1172 23.3339 58.6686 23.0338 57.5097 22.4337C56.3508 21.8129 55.4817 20.8713 54.9022 19.609C54.3228 18.3466 54.0331 16.7428 54.0331 14.7976C54.0331 12.8316 54.3228 11.2278 54.9022 9.98618C55.4817 8.72383 56.3508 7.7926 57.5097 7.19247C58.6686 6.57164 60.1172 6.26123 61.8555 6.26123C63.4282 6.26123 64.7423 6.5613 65.7977 7.16143C66.8738 7.74086 67.6809 8.64106 68.2189 9.86201C68.757 11.083 69.026 12.6661 69.026 14.6113V15.7288H57.9132C57.9546 16.7428 58.1098 17.6016 58.3789 18.3052C58.6479 18.9881 59.0618 19.5055 59.6205 19.8573C60.1999 20.1884 60.9553 20.3539 61.8865 20.3539C62.3625 20.3539 62.8074 20.2919 63.2213 20.1677C63.6352 20.0435 63.9973 19.8573 64.3077 19.609C64.6181 19.3399 64.8561 19.0088 65.0217 18.6156C65.2079 18.2224 65.301 17.7672 65.301 17.2498H69.026C69.026 18.2845 68.8397 19.1847 68.4672 19.9504C68.1154 20.7161 67.6084 21.3473 66.9462 21.8439C66.3047 22.3406 65.5494 22.7131 64.6802 22.9614C63.8111 23.2097 62.8695 23.3339 61.8555 23.3339ZM57.9753 13.0593H65.0838C65.0838 12.3763 65.001 11.7969 64.8354 11.3209C64.6906 10.845 64.4733 10.4518 64.1836 10.1414C63.9145 9.83097 63.5834 9.61368 63.1902 9.48952C62.7971 9.34466 62.3521 9.27223 61.8555 9.27223C61.0484 9.27223 60.3655 9.40674 59.8067 9.67576C59.2687 9.94479 58.8548 10.3587 58.5651 10.9174C58.2754 11.4762 58.0788 12.1901 57.9753 13.0593Z" fill="black"/>
<path d="M35 22.9608V1.6665H45.6782C47.2509 1.6665 48.5443 1.94587 49.5583 2.50462C50.593 3.06336 51.3691 3.84974 51.8864 4.86375C52.4038 5.87776 52.6624 7.08837 52.6624 8.49557C52.6624 9.88208 52.3934 11.0927 51.8554 12.1274C51.3173 13.1621 50.5103 13.9692 49.4342 14.5486C48.3788 15.1073 47.0543 15.3867 45.4609 15.3867H39.0354V22.9608H35ZM39.0354 11.9411H45.3367C46.3714 11.9411 47.1682 11.6411 47.7269 11.041C48.3063 10.4201 48.596 9.57167 48.596 8.49557C48.596 7.77128 48.4719 7.1608 48.2236 6.66414C47.9752 6.16748 47.6131 5.78464 47.1371 5.51561C46.6611 5.24659 46.061 5.11208 45.3367 5.11208H39.0354V11.9411Z" fill="black"/>
<defs>
<clipPath id="clip0_3209_2100">
<rect width="25" height="25" fill="white"/>
</clipPath>
</defs>
</svg>
