<svg width="601" height="165" viewBox="0 0 601 165" fill="none" xmlns="http://www.w3.org/2000/svg">
<path d="M141.3 112.884L141.2 112.584L194.5 63.7841V40.2841H109V63.7841H160.1L160.2 63.9841L107.4 112.884V136.384H195.5V112.884H141.3ZM248 37.9841C238.1 37.9841 230.1 39.4841 223.9 42.4841C218.1 45.0841 213.2 49.3841 209.9 54.7841C206.7 60.1841 204.7 66.2841 204 72.5841L230 76.1841C230.9 70.6841 232.8 66.6841 235.6 64.3841C238.8 61.9841 242.8 60.7841 246.8 60.8841C252.1 60.8841 255.9 62.2841 258.3 65.0841C260.7 67.8841 261.9 71.7841 261.9 76.9841V79.5841H236.9C224.2 79.5841 215.1 82.3841 209.5 88.0841C203.9 93.6841 201.2 101.184 201.2 110.384C201.2 119.884 204 126.884 209.5 131.484C215 136.084 222 138.384 230.4 138.384C240.8 138.384 248.8 134.784 254.4 127.584C257.7 123.184 260.1 118.184 261.3 112.784H262.2L265.8 136.284H289.3V76.7841C289.3 64.4841 286.1 54.8841 279.6 48.1841C273.1 41.4841 262.5 37.9841 248 37.9841ZM256.2 111.484C252.5 114.584 247.6 116.184 241.5 116.184C236.5 116.184 233 115.284 231 113.584C230 112.784 229.3 111.684 228.8 110.584C228.3 109.384 228 108.184 228.1 106.884C228 105.684 228.2 104.484 228.7 103.384C229.2 102.284 229.8 101.284 230.6 100.384C231.5 99.5841 232.5 98.8841 233.7 98.4841C234.9 98.0841 236.1 97.8841 237.3 97.9841H261.9V99.5841C261.9 101.884 261.5 104.184 260.5 106.184C259.4 108.184 258 110.084 256.2 111.484ZM431.6 40.2841H403.8V136.484H431.6V40.2841ZM595.7 40.2841C587.8 40.2841 581.7 43.0841 577.1 48.5841C573.9 52.5841 571.4 58.4841 569.7 66.2841H568.9L565.3 40.2841H541.6V136.484H569.4V87.1841C569.4 80.9841 570.9 76.1841 573.8 72.8841C576.7 69.5841 582.1 67.8841 589.9 67.8841H600.5V40.2841H595.7ZM514 43.3841C507.5 39.4841 499.3 37.5841 489.4 37.5841C473.8 37.5841 461.7 41.9841 452.9 50.8841C444.1 59.7841 439.7 71.9841 439.7 87.4841C439.5 96.8841 441.5 106.184 445.7 114.684C449.5 122.184 455.4 128.484 462.7 132.684C470.1 136.984 478.8 139.084 489 139.084C497.8 139.084 505.1 137.684 511 134.984C516.5 132.584 521.4 128.784 525 123.884C528.5 119.184 531.1 113.784 532.6 108.184L508.6 101.484C507.6 105.184 505.6 108.484 503 111.284C500.3 113.984 495.8 115.384 489.4 115.384C481.8 115.384 476.2 113.184 472.5 108.884C469.8 105.784 468.1 101.284 467.4 95.4841H533C533.3 92.7841 533.4 90.4841 533.4 88.6841V82.6841C533.6 74.6841 531.9 66.6841 528.5 59.3841C525.4 52.6841 520.3 47.0841 514 43.3841ZM488.6 60.5841C499.9 60.5841 506.3 66.0841 507.8 77.1841H467.9C468.5 73.4841 470.1 69.9841 472.4 66.9841C476 62.6841 481.4 60.5841 488.6 60.5841ZM418 1.48406C415.9 1.38406 413.8 1.78406 411.9 2.48406C409.9 3.28406 408.2 4.38407 406.7 5.78407C405.2 7.28407 404.1 8.98406 403.3 10.9841C402.5 12.8841 402.2 14.9841 402.3 17.0841C402.2 19.1841 402.6 21.2841 403.4 23.1841C404.2 25.1841 405.3 26.8841 406.8 28.3841C408.3 29.8841 410.1 30.9841 412 31.7841C413.9 32.5841 416 32.8841 418.1 32.7841C420.2 32.8841 422.3 32.4841 424.2 31.7841C426.1 30.9841 427.9 29.8841 429.4 28.3841C430.9 26.8841 432 25.0841 432.7 23.1841C433.4 21.1841 433.8 19.1841 433.7 17.0841C433.8 14.9841 433.5 12.8841 432.7 10.9841C431.9 9.08406 430.8 7.28407 429.3 5.78407C427.8 4.28407 426.1 3.18407 424.1 2.38407C422.2 1.78407 420.1 1.38406 418 1.48406ZM360.6 37.5841C351.1 37.5841 343.5 40.5841 337.8 46.4841C333.5 50.8841 330.4 57.4841 328.4 66.1841H327.5L323.9 40.1841H300.2V163.984H328V112.984H329C329.8 116.384 331 119.684 332.5 122.884C334.9 127.984 338.7 132.384 343.6 135.284C348.6 137.984 354.3 139.384 360 139.284C371.6 139.284 380.5 134.784 386.6 125.684C392.7 116.584 395.7 103.984 395.7 87.7841C395.7 72.0841 392.8 59.7841 386.9 50.9841C381 42.0841 372.2 37.5841 360.6 37.5841ZM363.4 107.284C360.2 111.984 355.1 114.284 348.2 114.284C345.4 114.384 342.5 113.884 339.9 112.684C337.3 111.484 335 109.684 333.3 107.484C329.7 102.984 327.9 96.7841 327.9 88.8841V87.0841C327.9 79.0841 329.7 72.9841 333.3 68.7841C336.9 64.5841 341.9 62.4841 348.2 62.4841C355.2 62.4841 360.3 64.6841 363.5 69.1841C366.7 73.6841 368.3 79.8841 368.3 87.8841C368.3 96.1841 366.7 102.684 363.4 107.284Z" fill="#FFF1EA"/>
<path d="M96.6004 112.887H0.400391V136.487H96.6004V112.887Z" fill="#FF4F00"/>
</svg>
