<svg preserveAspectRatio="xMidYMid" width="563" height="160" viewBox="0 0 563 160" fill="none" xmlns="http://www.w3.org/2000/svg">
<path d="M323.768 102.01C323.768 85.1135 309.943 71.2891 292.892 71.2891C283.675 71.2891 275.38 75.2828 269.696 81.8878C264.012 75.2828 255.717 71.2891 246.5 71.2891C229.449 71.2891 215.624 85.1135 215.624 102.01V140.719C215.624 145.02 219.003 148.4 223.304 148.4C227.452 148.4 230.832 145.02 230.832 140.719V102.01C230.832 93.4083 237.898 86.4958 246.5 86.4958C255.103 86.4958 262.016 93.4083 262.016 102.01V140.719C262.016 145.02 265.549 148.4 269.696 148.4C273.844 148.4 277.223 145.02 277.223 140.719V102.01C277.223 93.4083 284.289 86.4958 292.892 86.4958C301.494 86.4958 308.56 93.4083 308.56 102.01C308.56 102.317 308.56 102.471 308.56 102.625C308.56 102.932 308.56 103.085 308.56 103.393V140.719C308.56 145.02 311.94 148.4 316.088 148.4C320.235 148.4 323.768 145.02 323.768 140.719V103.393C323.768 103.085 323.768 102.932 323.615 102.625C323.768 102.471 323.768 102.317 323.768 102.01Z" fill="url(#paint0_linear_2050_1402)"/>
<path d="M370.243 71.2891C348.583 71.2891 331.378 88.4929 331.378 110.152C331.378 131.81 348.583 147.939 370.243 147.939C378.999 147.939 386.372 145.788 392.978 140.259C392.978 144.713 397.279 147.939 400.351 147.939C404.806 147.939 408.032 144.713 408.032 140.259V110.152C408.032 88.4929 391.902 71.2891 370.243 71.2891ZM370.243 132.886C357.339 132.886 346.432 123.054 346.432 110.152C346.432 97.2483 357.339 86.3426 370.243 86.3426C383.146 86.3426 392.978 97.2483 392.978 110.152C392.978 123.054 383.146 132.886 370.243 132.886Z" fill="url(#paint1_linear_2050_1402)"/>
<path d="M454.212 71.1367C433.013 71.1367 415.654 88.3406 415.654 109.692V140.567C415.654 144.714 419.034 148.247 423.335 148.247C427.483 148.247 430.862 144.714 430.862 140.567V109.692C430.862 96.789 441.308 86.3439 454.212 86.3439C458.513 86.3439 461.892 82.8109 461.892 78.6635C461.892 74.5161 458.513 71.1367 454.212 71.1367Z" fill="url(#paint2_linear_2050_1402)"/>
<path d="M526.367 71.7542C522.374 70.2182 518.073 72.2153 516.536 76.2089L500.562 119.065L484.431 76.2089C482.894 72.2153 478.593 70.2182 474.601 71.7542C470.604 73.1365 468.61 77.5913 470.147 81.5849L493.187 143.028C494.262 145.946 497.179 148.097 500.405 148.097C500.405 148.097 500.405 148.097 500.562 148.097C503.631 148.097 506.553 146.1 507.781 143.028L530.821 81.5849C532.357 77.5913 530.364 73.1365 526.367 71.7542Z" fill="url(#paint3_linear_2050_1402)"/>
<path d="M547.039 148.247C551.188 148.247 554.567 144.868 554.567 140.567V78.6635C554.567 74.5161 551.188 71.1367 547.039 71.1367C542.737 71.1367 539.359 74.5161 539.359 78.6635V140.567C539.359 144.868 542.737 148.247 547.039 148.247Z" fill="url(#paint4_linear_2050_1402)"/>
<path d="M600.366 70.9824C579.168 70.9824 561.809 88.1863 561.809 109.538V140.413C561.809 144.714 565.188 148.093 569.337 148.093C573.638 148.093 577.017 144.714 577.017 140.413V109.538C577.017 96.6347 587.461 86.1896 600.366 86.1896C613.271 86.1896 623.715 96.6347 623.715 109.538V140.413C623.715 144.714 627.094 148.093 631.243 148.093C635.544 148.093 638.923 144.714 638.923 140.413V109.538C638.923 88.1863 621.564 70.9824 600.366 70.9824Z" fill="url(#paint5_linear_2050_1402)"/>
<path d="M163.475 103.185C157.156 54.0359 130.347 37.5039 93.262 39.116C-7.66808 43.5035 23.9271 176.909 34.459 176.909C47.6239 176.909 48.5016 142.679 59.9113 142.679C71.3205 142.679 77.4645 176.909 88.8737 176.909C100.283 176.909 111.694 142.679 122.225 142.679C132.757 142.679 134.512 176.909 147.677 176.909C153.016 176.909 168.552 142.679 163.475 103.185Z" fill="url(#paint6_linear_2050_1402)"/>
<g style="mix-blend-mode:multiply" opacity="0.5">
<path d="M103.917 39.4785C168.221 52.9259 159.49 126.981 158.407 139.09" stroke="url(#paint7_linear_2050_1402)" stroke-width="0.137545" stroke-linecap="round" stroke-linejoin="round"/>
</g>
<g style="mix-blend-mode:multiply" opacity="0.5">
<path d="M22.332 136.789C29.4699 138.382 42.0248 139.976 55.4722 139.083" stroke="#26287B" stroke-width="0.137545" stroke-linecap="round" stroke-linejoin="round"/>
</g>
<path d="M126.67 141.203C133.935 142.02 152.226 141.203 162.805 138.068" stroke="#5054AF" stroke-width="0.137545" stroke-linecap="round" stroke-linejoin="round"/>
<path d="M55.6252 138.51C40.5682 138.51 38.64 168.866 34.3848 176.94C44.2045 178.904 47.838 155.503 53.9886 147.675C57.5891 143.092 63.6168 144.194 68.0346 148.58C66.7598 145.839 62.1717 138.51 55.6252 138.51Z" fill="url(#paint8_linear_2050_1402)"/>
<path d="M136.793 146.041C143.165 154.509 140.679 175.348 148.646 176.623C140.366 180.398 133.286 158.396 130.546 151.705C127.806 145.013 124.938 142.101 120.285 142.973C119.266 143.165 123.578 141.503 123.982 141.507C131.12 140.042 135.02 143.684 136.793 146.041Z" fill="url(#paint9_linear_2050_1402)"/>
<g style="mix-blend-mode:multiply" opacity="0.5">
<path d="M37.0626 138.7C33.9972 110.441 31.5817 59.6105 78.9335 40.9375" stroke="url(#paint10_linear_2050_1402)" stroke-width="0.137545" stroke-linejoin="round"/>
</g>
<path d="M39.3557 122.909C26.8447 122.909 16.7026 109.199 16.7026 92.2857C16.7026 75.3728 26.8447 61.6621 39.3557 61.6621C51.8667 61.6621 62.0088 75.3728 62.0088 92.2857C62.0088 109.199 51.8667 122.909 39.3557 122.909Z" fill="url(#paint11_linear_2050_1402)"/>
<path d="M36.2151 117.989C23.6124 117.989 13.396 104.629 13.396 88.149C13.396 71.6686 23.6124 58.3086 36.2151 58.3086C48.8177 58.3086 59.0342 71.6686 59.0342 88.149C59.0342 104.629 48.8177 117.989 36.2151 117.989Z" fill="url(#paint12_linear_2050_1402)"/>
<g style="mix-blend-mode:multiply">
<path d="M33.2308 58.6602C27.4814 65.4628 25.7106 92.6285 36.7997 117.866" stroke="#2B2C8C" stroke-opacity="0.12" stroke-width="0.1398" stroke-linecap="round"/>
</g>
<path d="M29.3924 84.2086C31.5469 84.2086 33.2935 81.8071 33.2935 78.8446C33.2935 75.8821 31.5469 73.4805 29.3924 73.4805C27.2378 73.4805 25.4912 75.8821 25.4912 78.8446C25.4912 81.8071 27.2378 84.2086 29.3924 84.2086Z" fill="#17024F"/>
<path d="M29.143 79.3715L11.0547 7.87305" stroke="#4D51AC" stroke-width="0.978601" stroke-linecap="round"/>
<path d="M16.1067 18.4499C16.2978 19.597 16.9351 19.9157 13.9398 20.6167C11.4376 21.3178 12.0158 20.1406 11.5651 19.2784C11.4812 18.2044 12.3641 16.7742 13.6216 16.676C14.879 16.5777 15.788 16.9841 16.1067 18.4499Z" fill="#17024F"/>
<path d="M13.7731 19.0121C17.9397 17.913 20.3707 13.4332 19.2029 9.00628C18.0352 4.57931 13.7108 1.88154 9.54424 2.98063C5.37767 4.07971 2.94667 8.55947 4.11445 12.9864C5.28223 17.4134 9.60657 20.1112 13.7731 19.0121Z" fill="url(#paint13_linear_2050_1402)"/>
<path d="M109.97 134.978C101.829 136.522 94.8609 136.426 87.719 132.922C80.5772 129.419 78.7694 125.578 78.7578 124.096" stroke="url(#paint14_linear_2050_1402)" stroke-width="0.652401" stroke-linecap="round"/>
<g style="mix-blend-mode:multiply" opacity="0.4">
<path d="M144.504 122.584C160.554 122.584 173.565 108.46 173.565 91.0369C173.565 73.6142 160.554 59.4902 144.504 59.4902C128.454 59.4902 115.442 73.6142 115.442 91.0369C115.442 108.46 128.454 122.584 144.504 122.584Z" fill="#5B62BD"/>
</g>
<g style="mix-blend-mode:multiply" opacity="0.4">
<path d="M91.9846 123.86C108.527 123.86 121.938 108.366 121.938 89.2542C121.938 70.142 108.527 54.6484 91.9846 54.6484C75.4418 54.6484 62.0312 70.142 62.0312 89.2542C62.0312 108.366 75.4418 123.86 91.9846 123.86Z" fill="#5B62BD"/>
</g>
<path d="M122.734 86.2313C122.734 102.646 134.496 115.029 147.928 115.029C161.36 115.029 173.121 102.646 173.121 86.2313C173.121 69.8162 161.36 57.4336 147.928 57.4336C134.496 57.4336 122.734 69.8162 122.734 86.2313Z" fill="url(#paint15_linear_2050_1402)" stroke="#140344" stroke-width="2.0038"/>
<path d="M125.2 86.4168C125.2 103.996 136.85 117.465 150.346 117.465C163.841 117.465 175.491 103.996 175.491 86.4168C175.491 68.8378 163.841 55.3691 150.346 55.3691C136.85 55.3691 125.2 68.8378 125.2 86.4168Z" stroke="#D2D4F1" stroke-width="0.978601"/>
<path d="M69.0039 86.2313C69.0039 102.748 80.5618 115.029 93.5421 115.029C106.522 115.029 118.08 102.748 118.08 86.2313C118.08 69.7147 106.522 57.4336 93.5421 57.4336C80.5618 57.4336 69.0039 69.7147 69.0039 86.2313Z" fill="url(#paint16_linear_2050_1402)" stroke="#140344" stroke-width="2.0038"/>
<g filter="url(#filter0_f_2050_1402)">
<path d="M143.152 103.068L153.627 85.7845C154.186 84.8624 153.522 83.6836 152.444 83.6836H134.113C133.106 83.6836 132.437 84.7234 132.853 85.6396L140.709 102.923C141.17 103.936 142.576 104.019 143.152 103.068Z" fill="#E53360"/>
</g>
<g filter="url(#filter1_f_2050_1402)">
<path d="M89.6574 103.074L100.471 85.727C101.046 84.8053 100.383 83.6113 99.2971 83.6113H80.3726C79.36 83.6113 78.6903 84.6636 79.1191 85.5807L87.2297 102.929C87.6945 103.923 89.0768 104.006 89.6574 103.074Z" fill="#E53360"/>
</g>
<path d="M146.112 100.88L153.901 88.0284C155.03 86.1652 153.688 83.7832 151.509 83.7832H137.879C135.846 83.7832 134.493 85.8851 135.334 87.7363L141.175 100.588C142.106 102.634 144.947 102.802 146.112 100.88Z" fill="#150248"/>
<path d="M91.6843 100.867L99.776 87.8861C100.937 86.0238 99.5979 83.6113 97.4032 83.6113H83.2428C81.1963 83.6113 79.8431 85.7376 80.7099 87.5912L86.7786 100.572C87.7179 102.581 90.5111 102.749 91.6843 100.867Z" fill="#150248"/>
<path d="M90.462 94.7343L91.6976 92.789C92.2426 91.9296 91.6255 90.8066 90.6079 90.8066H88.4465C87.498 90.8066 86.8736 91.7957 87.2811 92.6519L88.2074 94.5973C88.644 95.5134 89.9183 95.591 90.462 94.7343Z" fill="white"/>
<path d="M144.22 95.3823L145.455 93.4369C146.001 92.578 145.384 91.4551 144.366 91.4551H142.204C141.256 91.4551 140.631 92.4437 141.039 93.3003L141.965 95.2457C142.402 96.1618 143.676 96.2389 144.22 95.3823Z" fill="white"/>
<path d="M134.629 113.602L163.626 57.2637C166.749 59.3669 169.272 62.0623 170.255 63.7007L142.468 118.254C139.855 117.426 135.776 115.068 134.629 113.602Z" fill="white" fill-opacity="0.2"/>
<path d="M149.282 119.655L174.966 71.8574C176.559 75.5539 176.814 77.9119 177.26 80.2699L156.165 118.954C154.445 119.337 152.278 119.846 149.282 119.655Z" fill="white" fill-opacity="0.2"/>
<path d="M82.5615 114.996L112.388 58.8496C115.319 61.2076 117.04 63.4382 118.123 65.0952L90.7188 118.947C87.9786 118.183 84.0911 116.207 82.5615 114.996Z" fill="white" fill-opacity="0.2"/>
<path d="M98.0439 119.65L122.389 73.3184C123.982 77.1422 123.281 77.907 124.556 82.0493L104.863 118.312C103.27 118.758 100.976 119.65 98.0439 119.65Z" fill="white" fill-opacity="0.2"/>
<path d="M71.2354 86.4095C71.2354 103.954 83.0452 117.457 96.8023 117.457C110.559 117.457 122.369 103.954 122.369 86.4095C122.369 68.865 110.559 55.3613 96.8023 55.3613C83.0452 55.3613 71.2354 68.865 71.2354 86.4095Z" stroke="#D2D4F1" stroke-width="0.978601"/>
<path d="M110.723 136.858C111.619 135.694 111.5 134.7 111.424 135.329C111.233 136.922 105.404 137.21 105.179 137.241C90.6483 139.216 78.2846 130.613 77.3924 124.495C77.0739 123.029 77.265 125.387 77.5198 126.088C77.8387 127.107 79.8741 130.655 83.5106 133.098C87.1023 135.512 90.412 136.431 92.4229 137.047C97.4684 138.593 102.544 138.465 105.689 138.133L105.706 138.131C106.09 138.091 110.097 137.672 110.723 136.858Z" fill="#757DD2"/>
<g style="mix-blend-mode:multiply" opacity="0.5">
<path d="M21.5029 127.432C27.2387 128.579 30.8076 129.28 35.9698 129.28" stroke="#26287B" stroke-width="0.137545"/>
</g>
<g style="mix-blend-mode:multiply" opacity="0.5">
<path d="M33.4089 136.396C33.8303 136.367 34.1029 135.347 34.0178 134.118C33.9328 132.889 33.5222 131.916 33.1008 131.945C32.6795 131.974 32.4069 132.994 32.4919 134.223C32.577 135.452 32.9876 136.425 33.4089 136.396Z" fill="#26287B"/>
</g>
<g style="mix-blend-mode:multiply" opacity="0.5">
<path d="M159.793 128.323C161.004 128.216 162.661 127.94 163.872 127.494" stroke="#5C61BA" stroke-width="0.137545" stroke-linecap="round" stroke-linejoin="round"/>
</g>
<defs>
<filter id="filter0_f_2050_1402" x="132.262" y="83.2176" width="22.0345" height="20.9828" filterUnits="userSpaceOnUse" color-interpolation-filters="sRGB">
<feFlood flood-opacity="0" result="BackgroundImageFix"/>
<feBlend mode="normal" in="SourceGraphic" in2="BackgroundImageFix" result="shape"/>
<feGaussianBlur stdDeviation="0.233" result="effect1_foregroundBlur_2050_1402"/>
</filter>
<filter id="filter1_f_2050_1402" x="78.5213" y="83.1453" width="22.6273" height="21.0472" filterUnits="userSpaceOnUse" color-interpolation-filters="sRGB">
<feFlood flood-opacity="0" result="BackgroundImageFix"/>
<feBlend mode="normal" in="SourceGraphic" in2="BackgroundImageFix" result="shape"/>
<feGaussianBlur stdDeviation="0.233" result="effect1_foregroundBlur_2050_1402"/>
</filter>
<linearGradient id="paint0_linear_2050_1402" x1="215.624" y1="85.4975" x2="643.363" y2="145.649" gradientUnits="userSpaceOnUse">
<stop offset="0.00937679" stop-color="#878EF0"/>
<stop offset="0.809864" stop-color="#FB3569"/>
<stop offset="1" stop-color="#FB3569"/>
</linearGradient>
<linearGradient id="paint1_linear_2050_1402" x1="215.625" y1="85.4975" x2="643.364" y2="145.649" gradientUnits="userSpaceOnUse">
<stop offset="0.00937679" stop-color="#878EF0"/>
<stop offset="0.809864" stop-color="#FB3569"/>
<stop offset="1" stop-color="#FB3569"/>
</linearGradient>
<linearGradient id="paint2_linear_2050_1402" x1="215.626" y1="85.4989" x2="643.365" y2="145.651" gradientUnits="userSpaceOnUse">
<stop offset="0.00937679" stop-color="#878EF0"/>
<stop offset="0.809864" stop-color="#FB3569"/>
<stop offset="1" stop-color="#FB3569"/>
</linearGradient>
<linearGradient id="paint3_linear_2050_1402" x1="215.623" y1="85.502" x2="643.362" y2="145.654" gradientUnits="userSpaceOnUse">
<stop offset="0.00937679" stop-color="#878EF0"/>
<stop offset="0.809864" stop-color="#FB3569"/>
<stop offset="1" stop-color="#FB3569"/>
</linearGradient>
<linearGradient id="paint4_linear_2050_1402" x1="215.623" y1="85.4989" x2="643.362" y2="145.651" gradientUnits="userSpaceOnUse">
<stop offset="0.00937679" stop-color="#878EF0"/>
<stop offset="0.809864" stop-color="#FB3569"/>
<stop offset="1" stop-color="#FB3569"/>
</linearGradient>
<linearGradient id="paint5_linear_2050_1402" x1="215.624" y1="85.4983" x2="643.363" y2="145.65" gradientUnits="userSpaceOnUse">
<stop offset="0.00937679" stop-color="#878EF0"/>
<stop offset="0.809864" stop-color="#FB3569"/>
<stop offset="1" stop-color="#FB3569"/>
</linearGradient>
<linearGradient id="paint6_linear_2050_1402" x1="149.314" y1="53.2388" x2="0.457939" y2="148.171" gradientUnits="userSpaceOnUse">
<stop stop-color="#7D87DA"/>
<stop offset="1" stop-color="#212183"/>
</linearGradient>
<linearGradient id="paint7_linear_2050_1402" x1="169.05" y1="141.511" x2="93.3381" y2="29.7915" gradientUnits="userSpaceOnUse">
<stop stop-color="#5C61BA"/>
<stop offset="1" stop-color="#5C61BA" stop-opacity="0"/>
</linearGradient>
<linearGradient id="paint8_linear_2050_1402" x1="58.6548" y1="138.844" x2="35.5824" y2="177.439" gradientUnits="userSpaceOnUse">
<stop stop-color="#0C0427"/>
<stop offset="1" stop-color="#180057"/>
</linearGradient>
<linearGradient id="paint9_linear_2050_1402" x1="134.051" y1="142.767" x2="134.051" y2="178.155" gradientUnits="userSpaceOnUse">
<stop stop-color="#0E042A"/>
<stop offset="1" stop-color="#170151"/>
</linearGradient>
<linearGradient id="paint10_linear_2050_1402" x1="38.7196" y1="140.612" x2="76.8944" y2="25.8972" gradientUnits="userSpaceOnUse">
<stop stop-color="#26287B"/>
<stop offset="1" stop-color="#26287B" stop-opacity="0"/>
</linearGradient>
<linearGradient id="paint11_linear_2050_1402" x1="16.7026" y1="92.2857" x2="16.7026" y2="153.533" gradientUnits="userSpaceOnUse">
<stop stop-color="#0E042E"/>
<stop offset="1" stop-color="#170152"/>
</linearGradient>
<linearGradient id="paint12_linear_2050_1402" x1="29.1194" y1="95.689" x2="6.88582" y2="147.707" gradientUnits="userSpaceOnUse">
<stop stop-color="#EFF0FF"/>
<stop offset="0.944281" stop-color="#B0B4E0"/>
</linearGradient>
<linearGradient id="paint13_linear_2050_1402" x1="16.4813" y1="2.50532" x2="11.5289" y2="20.501" gradientUnits="userSpaceOnUse">
<stop stop-color="#F6688C"/>
<stop offset="1" stop-color="#FF2159"/>
</linearGradient>
<linearGradient id="paint14_linear_2050_1402" x1="84.467" y1="123.861" x2="99.3161" y2="140.43" gradientUnits="userSpaceOnUse">
<stop stop-color="#16024C"/>
<stop offset="1" stop-color="#16024C"/>
</linearGradient>
<linearGradient id="paint15_linear_2050_1402" x1="136.787" y1="114.738" x2="166.277" y2="66.5711" gradientUnits="userSpaceOnUse">
<stop stop-color="#FF2159"/>
<stop offset="1" stop-color="#FF658C"/>
</linearGradient>
<linearGradient id="paint16_linear_2050_1402" x1="71.5885" y1="111.461" x2="109.925" y2="68.865" gradientUnits="userSpaceOnUse">
<stop stop-color="#FF2159"/>
<stop offset="0.832873" stop-color="#FF658C"/>
</linearGradient>
</defs>
</svg>
