<?xml version="1.0" encoding="utf-8"?>
<!-- Generator: Adobe Illustrator 19.2.1, SVG Export Plug-In . SVG Version: 6.00 Build 0)  -->
<svg version="1.1" id="layer" xmlns="http://www.w3.org/2000/svg" xmlns:xlink="http://www.w3.org/1999/xlink" x="0px" y="0px"
	 viewBox="0 0 652 652" style="enable-background:new 0 0 652 652;" xml:space="preserve">
<style type="text/css">
	.st0{fill:#0A0F1E;}
	.st1{fill:#B2C8FF;}
</style>
<rect x="22" y="177" class="st0" width="600" height="288"/>
<path class="st1" d="M166.9,269.6l49.1,24.5c2.3,1.1,2.3,4.4,0.1,5.5l-63.7,33.6c-3.6,1.9-7.8,1.9-11.4,0.1l-40-20
	c-4.9-2-10.3,1.6-10.3,7c0,4.3,2.4,8.3,6.3,10.2l40.1,20.1c2.4-2.5,5.9-4,9.6-4c3.7,0,7,1.5,9.4,3.8l50-26.4
	c-0.1-0.8-0.2-1.6-0.2-2.4c0-7.5,6-13.5,13.5-13.5s13.5,6,13.5,13.5c0,7.5-6,13.5-13.5,13.5c-3.6,0-7-1.4-9.4-3.8l-50,26.4
	c0.1,0.8,0.2,1.5,0.2,2.3c0,7.5-6,13.5-13.5,13.5c-7.5,0-13.5-6-13.5-13.5c0-0.7,0.1-1.4,0.2-2l-40.7-20.3
	c-6.3-3.2-10.3-9.6-10.3-16.7v-3.9c0-5.4,3-10.3,7.7-12.9l65.5-34.6C159,267.9,163.3,267.8,166.9,269.6z M146.6,365.4
	c2.9,0,5.2-2.3,5.2-5.2s-2.3-5.2-5.2-5.2c-2.9,0-5.2,2.3-5.2,5.2S143.7,365.4,146.6,365.4z M224.5,321.8c0,2.9-2.3,5.2-5.2,5.2
	c-2.9,0-5.2-2.3-5.2-5.2c0-2.9,2.3-5.2,5.2-5.2C222.1,316.6,224.5,318.9,224.5,321.8z"/>
<path class="st1" d="M338.2,300.9c0,3-2.5,5.5-5.5,5.5c-3,0-5.5-2.5-5.5-5.5c0-3,2.5-5.5,5.5-5.5
	C335.7,295.4,338.2,297.8,338.2,300.9z M328.1,310v40.2h9.1V310H328.1z M350.1,338.8c0,7.6,3.5,11.4,11.5,11.4h6.8v-7.8h-4.8
	c-3.2,0-4.4-1.2-4.4-4.5v-20.6h9.1V310h-9.1v-12.8h-9.1V310h-7.3v7.3h7.3V338.8z M375.7,291.7v58.5h21.9c13.9,0,21.2-7.1,21.2-16.9
	c0-8.4-4.8-11.5-12.4-12.8c6.8-1.5,10.4-6.4,10.4-13.4c0-9.5-7.2-15.5-19.9-15.5H375.7z M385.1,299.6H397c6.6,0,10.2,3.6,10.2,8.7
	c0,5.2-3.7,9-10.2,9h-11.9V299.6z M385.1,324.7h12.5c7.3,0,11.4,2.6,11.4,8.2c0,5.8-3.9,9.4-11.4,9.4h-12.5V324.7z M446.1,350.3
	c13.1,0,22-8.8,22-22c0-13.1-8.8-22-22-22c-13.1,0-22,8.9-22,22C424.1,341.5,433,350.3,446.1,350.3z M446.1,342.6
	c-7.7,0-12.6-5.9-12.6-14.2c0-8.3,5-14.2,12.6-14.2c7.7,0,12.7,5.9,12.7,14.2C458.8,336.6,453.7,342.6,446.1,342.6z M495.5,350.3
	c13.1,0,22-8.8,22-22c0-13.1-8.8-22-22-22c-13.1,0-22,8.9-22,22C473.5,341.5,482.4,350.3,495.5,350.3z M495.5,342.6
	c-7.7,0-12.6-5.9-12.6-14.2c0-8.3,5-14.2,12.6-14.2c7.7,0,12.7,5.9,12.7,14.2C508.2,336.6,503.1,342.6,495.5,342.6z M538.8,331.1
	l-7,7.9v11.3h-8.9v-58.5h8.9v36.5l20.2-21.9h10.3l-17.1,18.3l17.1,25.7h-10.5L538.8,331.1z M295,350.3c-16.1,0-27.2-11.8-27.2-29.3
	c0-17.5,10.9-29.3,28-29.3c12.7,0,21.7,7.1,24.2,18.3h-9.6c-2.3-6.3-7.6-10-14.9-10c-10.9,0-18,8.6-18,21c0,12.3,6.9,21,17.9,21
	c8.9,0,16-5,16.5-14.3v-3h-16.7v-7.3h25.6v32.9h-7l-1-8.7C310,345.7,304.1,350.3,295,350.3z"/>
</svg>
