<svg preserveAspectRatio="xMidYMid" width="652" height="160" viewBox="0 0 652 160" fill="none" xmlns="http://www.w3.org/2000/svg">
<g clip-path="url(#clip0_1809_8049)">
<path fill-rule="evenodd" clip-rule="evenodd" d="M249.999 10.3175V239.683C249.999 245.377 245.367 250 239.661 250H145.075C139.369 250 134.736 245.377 134.736 239.683V10.3175C134.736 4.62302 139.369 0 145.075 0H239.661C245.367 0 249.999 4.62302 249.999 10.3175Z" fill="url(#paint0_linear_1809_8049)"/>
<path fill-rule="evenodd" clip-rule="evenodd" d="M182.105 72.6192V250H80.526C72.9686 250 66.8418 245.381 66.8418 239.683V72.6192C66.8418 66.9212 72.9686 62.3018 80.526 62.3018H168.421C175.978 62.3018 182.105 66.9212 182.105 72.6192Z" fill="url(#paint1_linear_1809_8049)"/>
<path fill-rule="evenodd" clip-rule="evenodd" d="M115.263 135.317V250H13.6842C6.12684 250 0 245.381 0 239.683V135.317C0 129.619 6.12684 125 13.6842 125H101.579C109.136 125 115.263 129.619 115.263 135.317Z" fill="url(#paint2_linear_1809_8049)"/>
</g>
<path d="M314.389 143.501V186.919H286V60.8838H330.473C362.23 60.8838 378.109 74.2725 378.109 101.05C378.109 113.706 373.539 123.96 364.398 131.812C355.316 139.604 343.158 143.501 327.924 143.501H314.389ZM314.389 82.6807V121.968H325.551C340.668 121.968 348.227 115.347 348.227 102.104C348.227 89.1553 340.668 82.6807 325.551 82.6807H314.389Z" fill="#FAF2D2"/>
<path d="M431.283 189.116C416.283 189.116 404.477 184.927 395.863 176.548C387.309 168.11 383.031 156.685 383.031 142.271C383.031 127.388 387.484 115.757 396.391 107.378C405.297 98.9404 417.338 94.7217 432.514 94.7217C447.455 94.7217 459.174 98.9404 467.67 107.378C476.166 115.757 480.414 126.86 480.414 140.688C480.414 155.63 476.02 167.437 467.23 176.108C458.5 184.78 446.518 189.116 431.283 189.116ZM431.986 115.991C425.424 115.991 420.326 118.247 416.693 122.759C413.061 127.271 411.244 133.657 411.244 141.919C411.244 159.204 418.217 167.847 432.162 167.847C445.463 167.847 452.113 158.97 452.113 141.216C452.113 124.399 445.404 115.991 431.986 115.991Z" fill="#FAF2D2"/>
<path d="M628.773 96.9189L602.846 186.919H573.666L560.395 134.185C559.516 130.669 559.018 126.831 558.9 122.671H558.373C557.963 127.241 557.377 130.962 556.615 133.833L542.377 186.919H513.549L488.148 96.9189H516.449L528.842 155.63C529.428 158.384 529.867 161.724 530.16 165.649H530.688C530.98 161.548 531.508 158.091 532.27 155.278L547.738 96.9189H574.193L588.08 155.63C588.432 157.095 588.842 160.493 589.311 165.825H589.926C590.219 162.427 590.688 159.028 591.332 155.63L603.021 96.9189H628.773Z" fill="#FAF2D2"/>
<path d="M722.025 149.829H663.314C664.252 162.896 672.484 169.429 688.012 169.429C697.914 169.429 706.615 167.085 714.115 162.397V182.437C705.795 186.89 694.984 189.116 681.684 189.116C667.152 189.116 655.873 185.103 647.846 177.075C639.818 168.989 635.805 157.739 635.805 143.325C635.805 128.384 640.141 116.548 648.812 107.817C657.484 99.0869 668.148 94.7217 680.805 94.7217C693.93 94.7217 704.066 98.6182 711.215 106.411C718.422 114.204 722.025 124.78 722.025 138.14V149.829ZM696.273 132.778C696.273 119.888 691.059 113.442 680.629 113.442C676.176 113.442 672.309 115.288 669.027 118.979C665.805 122.671 663.842 127.271 663.139 132.778H696.273Z" fill="#FAF2D2"/>
<path d="M797.26 121.968C793.92 120.151 790.023 119.243 785.57 119.243C779.535 119.243 774.818 121.47 771.42 125.923C768.021 130.317 766.322 136.323 766.322 143.94V186.919H738.549V96.9189H766.322V113.618H766.674C771.068 101.431 778.979 95.3369 790.404 95.3369C793.334 95.3369 795.619 95.6885 797.26 96.3916V121.968Z" fill="#FAF2D2"/>
<path d="M862.738 186.919V60.8838H908.617C922.68 60.8838 933.49 63.4619 941.049 68.6182C948.607 73.7744 952.387 81.04 952.387 90.415C952.387 97.2119 950.072 103.159 945.443 108.257C940.873 113.354 935.014 116.899 927.865 118.892V119.243C936.83 120.356 943.979 123.667 949.311 129.175C954.701 134.683 957.396 141.392 957.396 149.302C957.396 160.845 953.266 170.015 945.004 176.812C936.742 183.55 925.463 186.919 911.166 186.919H862.738ZM891.127 81.8018V111.685H903.607C909.467 111.685 914.066 110.278 917.406 107.466C920.805 104.595 922.504 100.669 922.504 95.6885C922.504 86.4307 915.59 81.8018 901.762 81.8018H891.127ZM891.127 132.778V166.001H906.508C913.07 166.001 918.197 164.478 921.889 161.431C925.639 158.384 927.514 154.224 927.514 148.95C927.514 143.911 925.668 139.956 921.977 137.085C918.344 134.214 913.246 132.778 906.684 132.778H891.127Z" fill="#FAF2D2"/>
<path d="M1017.16 60.8838V82.8564H1006.62V164.946H1017.16V186.919H967.68V164.946H978.227V82.8564H967.68V60.8838H1017.16Z" fill="#FAF2D2"/>
<defs>
<linearGradient id="paint0_linear_1809_8049" x1="192.368" y1="0" x2="192.368" y2="250" gradientUnits="userSpaceOnUse">
<stop stop-color="#EBBB14"/>
<stop offset="1" stop-color="#B25400"/>
</linearGradient>
<linearGradient id="paint1_linear_1809_8049" x1="124.473" y1="62.3018" x2="124.473" y2="250" gradientUnits="userSpaceOnUse">
<stop stop-color="#F9E583"/>
<stop offset="1" stop-color="#DE9800"/>
</linearGradient>
<linearGradient id="paint2_linear_1809_8049" x1="57.6316" y1="125" x2="57.6316" y2="250" gradientUnits="userSpaceOnUse">
<stop stop-color="#F9E68B"/>
<stop offset="1" stop-color="#F3CD32"/>
</linearGradient>
<clipPath id="clip0_1809_8049">
<rect width="250" height="250" fill="white"/>
</clipPath>
</defs>
</svg>
