<svg preserveAspectRatio="xMidYMid" width="580" height="160" viewBox="0 0 580 160" fill="none" xmlns="http://www.w3.org/2000/svg">
<path d="M212.068 26.3135V100.697H201.39L163.956 53.9896V100.697H150.123V26.3135H160.4L198.243 74.3341V26.3135H212.068V26.3135Z" fill="white"/>
<path d="M278.919 74.6625C278.919 90.7393 267.539 102.01 251.243 102.01C234.838 102.01 223.458 90.7393 223.458 74.6625C223.458 58.4763 234.838 47.2052 251.243 47.2052C267.539 47.2052 278.919 58.4672 278.919 74.6625ZM264.584 74.6625C264.584 66.1271 259.113 60.218 251.234 60.218C243.246 60.218 237.784 66.1271 237.784 74.6625C237.784 83.0885 243.255 88.9976 251.234 88.9976C259.113 88.9885 264.584 83.0793 264.584 74.6625Z" fill="white"/>
<path d="M343.017 74.6625C343.017 90.7393 331.637 102.01 315.341 102.01C298.936 102.01 287.556 90.7393 287.556 74.6625C287.556 58.4763 298.936 47.2052 315.341 47.2052C331.637 47.2052 343.017 58.4672 343.017 74.6625ZM328.682 74.6625C328.682 66.1271 323.211 60.218 315.332 60.218C307.344 60.218 301.882 66.1271 301.882 74.6625C301.882 83.0885 307.353 88.9976 315.332 88.9976C323.211 88.9885 328.682 83.0793 328.682 74.6625Z" fill="white"/>
<path d="M407.005 23.0307V100.697H392.679V97.7426C388.63 100.369 383.487 102.01 377.696 102.01C363.252 102.01 351.662 89.7544 351.662 74.553C351.662 59.4611 363.261 47.2051 377.696 47.2051C383.496 47.2051 388.639 48.8466 392.679 51.4729V23.0307H407.005ZM392.67 82.8695V66.355C389.277 61.5402 384.572 60.2271 379.867 60.2271C371.66 60.2271 365.978 66.7927 365.978 74.5621C365.978 82.4409 371.669 89.0066 379.867 89.0066C384.581 88.9884 389.277 87.6753 392.67 82.8695Z" fill="white"/>
<path d="M435 23.0307V100.697H420.674V23.0307H435Z" fill="white"/>
<path d="M119.628 36.3392C119.628 25.6088 113.047 16.4163 103.702 12.5753L102.815 12.2232L105.629 7.34969C106.441 5.94348 105.426 4.18719 103.802 4.18719H78.97C77.3475 4.18719 76.3326 5.94545 77.1429 7.34969L89.5589 28.8539C90.3711 30.2601 92.4008 30.2601 93.2111 28.8539L96.3382 23.4375L99.2883 24.7257C103.737 26.7298 106.833 31.1805 106.833 36.351C106.833 38.3197 106.384 40.1822 105.584 41.848L76.431 104.297H76.4329C76.1714 104.842 75.7859 105.344 75.2785 105.759C73.7248 107.031 71.4394 107.029 69.8857 105.755C69.6615 105.572 69.4629 105.371 69.2858 105.157L45.1385 75.5518L38.3946 87.4387L59.7866 113.72C62.9156 117.276 67.5001 119.518 72.6096 119.518C79.6387 119.518 85.6765 115.272 88.2962 109.202L117.205 47.2506C118.759 43.9387 119.628 40.2412 119.628 36.3392Z" fill="#F5BC41"/>
<path d="M16.9099 89.6218C16.8784 89.6218 16.847 89.6198 16.8155 89.6198C9.73136 89.6198 3.98851 95.3626 3.98851 102.447C3.98851 109.531 9.73136 115.274 16.8155 115.274C23.8997 115.274 29.6425 109.531 29.6425 102.447C29.6425 100.124 29.0249 97.9449 27.9452 96.0667L55.9947 44.3733L55.9986 44.3752C56.0399 44.3025 56.0792 44.2277 56.1186 44.155L56.1402 44.1196C58.4413 39.8852 59.7491 35.0333 59.7491 29.8746C59.7491 13.3757 46.3734 0 29.8746 0C13.3757 0 0 13.3757 0 29.8746C0 37.2891 2.70031 44.0724 7.17265 49.296L22.4161 67.9681L29.2013 56.1677L16.8175 41.018C14.3532 38.0581 12.7601 34.0303 12.7601 29.8765C12.7601 20.4461 20.4048 12.8014 29.8352 12.8014C39.2657 12.8014 46.9103 20.4461 46.9103 29.8765C46.9103 32.9289 46.1099 35.7944 44.7057 38.2745L44.6978 38.2882L16.9099 89.6218Z" fill="#F5BC41"/>
</svg>
