<?xml version="1.0" encoding="UTF-8" standalone="no"?>
<!DOCTYPE svg PUBLIC "-//W3C//DTD SVG 1.1//EN" "http://www.w3.org/Graphics/SVG/1.1/DTD/svg11.dtd">
<svg preserveAspectRatio="xMidYMid" width="571" height="160" viewBox="0 0 571 160" version="1.1" xmlns="http://www.w3.org/2000/svg" xmlns:xlink="http://www.w3.org/1999/xlink" xml:space="preserve" xmlns:serif="http://www.serif.com/" style="fill-rule:evenodd;clip-rule:evenodd;stroke-linejoin:round;stroke-miterlimit:2;">
    <g transform="matrix(1,0,0,1,0,-120.383)">
        <g id="trademark__Softr--Lightest" transform="matrix(1,0,0,1,0,119.386)">
            <rect x="0" y="0.997" width="381.09" height="106.013" style="fill:none;"/>
            <clipPath id="_clip1">
                <rect x="0" y="0.997" width="381.09" height="106.013"/>
            </clipPath>
            <g clip-path="url(#_clip1)">
                <g id="wordmark__Softr" transform="matrix(1,0,0,1,0,0.99707)">
                    <path d="M173.55,84.6C160.67,84.6 150.82,78.34 150.13,67.28C150.121,67.121 150.145,66.961 150.2,66.812C150.255,66.662 150.34,66.525 150.45,66.41C150.558,66.293 150.69,66.199 150.836,66.135C150.982,66.072 151.14,66.039 151.3,66.04L160.3,66.04C160.591,66.039 160.872,66.147 161.087,66.344C161.302,66.54 161.435,66.81 161.46,67.1C162,73 167,76 173.55,76C180.1,76 184.08,73.51 184.08,68.62C184.08,55.48 151.18,65.91 151.18,44.08C151.18,34.2 160.18,28.08 171.92,28.08C184.08,28.08 193.36,35.15 194.13,44.52C194.14,44.68 194.118,44.84 194.065,44.992C194.012,45.143 193.928,45.282 193.82,45.4C193.711,45.519 193.578,45.615 193.43,45.68C193.282,45.745 193.122,45.779 192.96,45.78L183.96,45.78C183.679,45.78 183.407,45.68 183.194,45.496C182.981,45.312 182.841,45.058 182.8,44.78C182.23,40.1 177.8,36.78 171.9,36.78C166,36.78 162.13,39.28 162.13,43.62C162.13,55.62 195.24,46.01 195.24,68.16C195.26,78.41 186.14,84.6 173.55,84.6Z" style="fill:rgb(237,228,232);fill-rule:nonzero;"/>
                    <path d="M201.89,55.23C201.889,51.67 202.589,48.145 203.951,44.857C205.314,41.568 207.311,38.58 209.829,36.064C212.347,33.548 215.336,31.553 218.625,30.194C221.915,28.834 225.44,28.136 229,28.14C236.384,28.148 243.462,31.087 248.681,36.31C253.899,41.534 256.83,48.616 256.83,56L256.83,57.52C256.83,61.077 256.129,64.599 254.768,67.885C253.406,71.171 251.411,74.157 248.895,76.672C246.379,79.187 243.393,81.181 240.106,82.541C236.82,83.902 233.297,84.601 229.74,84.6C222.354,84.6 215.27,81.666 210.047,76.443C204.824,71.22 201.89,64.136 201.89,56.75L201.89,55.23ZM246,56.37C246,45.37 238.83,38.13 229.39,38.13C219.95,38.13 212.77,45.41 212.77,56.37C212.77,67.33 219.94,74.61 229.39,74.61C238.84,74.61 246,67.34 246,56.37Z" style="fill:rgb(237,228,232);fill-rule:nonzero;"/>
                    <path d="M358.9,83.52L349.21,83.52C349.053,83.524 348.898,83.497 348.752,83.44C348.606,83.383 348.472,83.297 348.36,83.189C348.247,83.08 348.157,82.949 348.095,82.805C348.034,82.661 348.001,82.507 348,82.35L348,30.4C348,30.09 348.123,29.792 348.343,29.573C348.562,29.353 348.86,29.23 349.17,29.23L357.69,29.23C358,29.23 358.298,29.353 358.517,29.573C358.737,29.792 358.86,30.09 358.86,30.4L358.86,39C360.69,35.696 363.375,32.946 366.633,31.037C369.892,29.128 373.604,28.131 377.38,28.15C378.286,28.143 379.191,28.193 380.09,28.3C380.369,28.339 380.625,28.478 380.809,28.691C380.993,28.905 381.093,29.178 381.09,29.46L381.09,38.76C381.091,38.936 381.052,39.111 380.976,39.27C380.899,39.43 380.788,39.57 380.65,39.68C380.511,39.789 380.348,39.866 380.175,39.904C380.002,39.942 379.822,39.941 379.65,39.9C378.228,39.589 376.776,39.435 375.32,39.44C370.944,39.44 366.747,41.178 363.653,44.273C360.558,47.367 358.82,51.564 358.82,55.94L358.82,83.52L358.9,83.52Z" style="fill:rgb(237,228,232);fill-rule:nonzero;"/>
                    <path d="M290.86,30.63C290.86,30.259 290.713,29.902 290.45,29.64C290.187,29.377 289.831,29.23 289.46,29.23L282.12,29.23L282.12,21.09C282.123,18.413 283.188,15.846 285.082,13.955C286.976,12.063 289.543,11 292.22,11C293.963,10.989 295.701,11.181 297.4,11.57C297.573,11.61 297.752,11.611 297.925,11.573C298.098,11.535 298.26,11.459 298.4,11.35C298.538,11.24 298.649,11.1 298.726,10.94C298.802,10.781 298.841,10.606 298.84,10.43L298.84,2.88C298.84,2.616 298.752,2.36 298.588,2.153C298.425,1.946 298.197,1.801 297.94,1.74C295.817,1.277 293.653,1.03 291.48,1C288.841,0.956 286.22,1.438 283.769,2.417C281.319,3.396 279.087,4.854 277.205,6.704C275.323,8.554 273.829,10.761 272.808,13.194C271.787,15.628 271.261,18.241 271.26,20.88L271.26,29.23L263.1,29.23C262.79,29.23 262.492,29.353 262.273,29.573C262.053,29.792 261.93,30.09 261.93,30.4L261.93,37.62C261.93,37.773 261.96,37.925 262.019,38.066C262.078,38.207 262.165,38.336 262.273,38.444C262.382,38.552 262.511,38.637 262.653,38.694C262.795,38.752 262.947,38.781 263.1,38.78L271.26,38.78L271.26,82.35C271.263,82.659 271.387,82.955 271.606,83.174C271.824,83.393 272.12,83.517 272.43,83.52L281,83.52C281.31,83.52 281.608,83.397 281.827,83.177C282.047,82.958 282.17,82.66 282.17,82.35L282.17,38.78L289.51,38.78C289.881,38.78 290.237,38.632 290.5,38.37C290.762,38.107 290.91,37.751 290.91,37.38L290.86,30.63Z" style="fill:rgb(237,228,232);fill-rule:nonzero;"/>
                    <path d="M339.91,29.23L325.44,29.23L325.44,15.23C325.448,15.071 325.424,14.913 325.369,14.764C325.314,14.615 325.229,14.479 325.119,14.363C325.01,14.248 324.878,14.157 324.732,14.094C324.586,14.032 324.429,14 324.27,14L315.75,14C315.44,14 315.142,14.123 314.923,14.342C314.703,14.562 314.58,14.86 314.58,15.17L314.58,29.17L300.66,29.17C300.289,29.17 299.933,29.317 299.67,29.58C299.408,29.842 299.26,30.199 299.26,30.57L299.26,37.32C299.259,37.504 299.294,37.687 299.364,37.857C299.434,38.028 299.537,38.183 299.667,38.313C299.797,38.443 299.952,38.546 300.123,38.616C300.293,38.686 300.476,38.721 300.66,38.72L314.58,38.72L314.58,82.35C314.58,82.66 314.703,82.958 314.923,83.177C315.142,83.397 315.44,83.52 315.75,83.52L324.27,83.52C324.58,83.52 324.878,83.397 325.097,83.177C325.317,82.958 325.44,82.66 325.44,82.35L325.44,38.78L339.91,38.78C340.218,38.78 340.513,38.658 340.73,38.44C340.948,38.222 341.07,37.928 341.07,37.62L341.07,30.4C341.071,30.247 341.042,30.095 340.985,29.953C340.927,29.811 340.842,29.682 340.734,29.573C340.626,29.464 340.498,29.378 340.356,29.319C340.215,29.26 340.063,29.23 339.91,29.23Z" style="fill:rgb(237,228,232);fill-rule:nonzero;"/>
                </g>
                <g id="appIcon__Softr" transform="matrix(1,0,0,1,0,0.99707)">
                    <path d="M94.5,2.01L10.5,2.01C4.701,2.01 0,6.711 0,12.51L0,38.76C0,44.559 4.701,49.26 10.5,49.26L94.5,49.26C100.299,49.26 105,44.559 105,38.76L105,12.51C105,6.711 100.299,2.01 94.5,2.01Z" style="fill:rgb(249,166,25);fill-rule:nonzero;"/>
                    <path d="M94.5,59.76L68.25,59.76C62.451,59.76 57.75,64.461 57.75,70.26L57.75,96.51C57.75,102.309 62.451,107.01 68.25,107.01L94.5,107.01C100.299,107.01 105,102.309 105,96.51L105,70.26C105,64.461 100.299,59.76 94.5,59.76Z" style="fill:rgb(59,133,219);fill-rule:nonzero;"/>
                    <path d="M23.62,107.01C36.665,107.01 47.24,96.435 47.24,83.39C47.24,70.345 36.665,59.77 23.62,59.77C10.575,59.77 0,70.345 0,83.39C0,96.435 10.575,107.01 23.62,107.01Z" style="fill:rgb(235,54,105);fill-rule:nonzero;"/>
                </g>
            </g>
        </g>
    </g>
</svg>
