<svg preserveAspectRatio="xMidYMid" width="625" height="160" viewBox="0 0 625 160" fill="none" xmlns="http://www.w3.org/2000/svg">
<path d="M1184.87 56.0225H1196.93V82.9466H1228.61V56.0225H1240.67V123.739H1228.61V93.9439H1196.93V123.739H1184.87V56.0225Z" fill="white"/>
<path d="M1326.68 123.628H1287.27C1282.28 123.676 1277.3 122.851 1272.59 121.19C1268.26 119.676 1264.29 117.309 1260.91 114.229C1257.56 111.128 1254.91 107.351 1253.14 103.151C1251.24 98.4674 1250.31 93.4422 1250.42 88.3888C1250.39 83.8186 1251.31 79.2906 1253.12 75.0936C1254.94 70.8968 1257.61 67.1222 1260.96 64.0103C1264.26 60.9572 1268.11 58.558 1272.31 56.9407C1281.16 53.5666 1290.95 53.5666 1299.8 56.9407C1303.93 58.5128 1307.72 60.8367 1310.99 63.7936C1314.34 66.9076 1317.01 70.6825 1318.82 74.879C1320.63 79.0754 1321.56 83.6023 1321.52 88.1717C1321.57 91.353 1321.13 94.5226 1320.22 97.5708C1319.44 100.105 1318.3 102.513 1316.83 104.722C1315.54 106.666 1313.97 108.417 1312.18 109.923C1310.63 111.228 1308.97 112.414 1307.24 113.471V113.66H1326.68V123.628ZM1285.59 65.175C1282.49 65.1446 1279.42 65.7436 1276.55 66.9357C1273.84 68.0867 1271.41 69.7836 1269.38 71.9197C1267.33 74.0723 1265.72 76.6021 1264.63 79.3685C1263.46 82.3539 1262.88 85.536 1262.92 88.7406C1262.89 92.015 1263.46 95.267 1264.63 98.3294C1265.69 101.168 1267.32 103.765 1269.41 105.968C1271.46 108.104 1273.91 109.809 1276.63 110.979C1279.52 112.213 1282.64 112.831 1285.79 112.794C1288.95 112.823 1292.1 112.206 1295.02 110.979C1297.78 109.826 1300.27 108.121 1302.35 105.968C1304.44 103.764 1306.06 101.167 1307.13 98.3294C1308.29 95.267 1308.87 92.015 1308.84 88.7406C1308.88 85.536 1308.3 82.3539 1307.13 79.3685C1306.05 76.596 1304.42 74.0647 1302.35 71.9197C1300.27 69.7924 1297.78 68.1144 1295.02 66.9899C1292.03 65.7697 1288.82 65.1529 1285.59 65.175Z" fill="white"/>
<path d="M312.312 149.119V125.473H335.316V93.2666H363.206V125.473H393.787V149.119H363.206V197.875C362.97 202.491 364.064 207.077 366.357 211.094C368.439 214.344 372.585 215.969 378.795 215.969C381.53 215.946 384.257 215.674 386.942 215.157C389.442 214.782 391.826 213.857 393.922 212.448V235.796C390.476 237.323 386.809 238.301 383.059 238.695C379.322 239.199 375.559 239.471 371.789 239.507C365.612 239.686 359.45 238.863 353.539 237.07C349.187 235.702 345.315 233.128 342.376 229.648C339.513 226.034 337.582 221.774 336.755 217.243C335.678 211.591 335.169 205.848 335.234 200.096V149.119H312.312Z" fill="white"/>
<path d="M427.595 190.833C427.835 194.553 428.809 198.189 430.464 201.532C432.119 204.874 434.421 207.857 437.236 210.308C442.911 214.98 450.086 217.451 457.442 217.269C463.574 217.484 469.645 216.003 474.986 212.99C479.72 210.111 483.927 206.446 487.424 202.155L507.412 217.215C501.706 224.637 494.241 230.529 485.686 234.361C477.672 237.749 469.052 239.482 460.348 239.453C452.257 239.505 444.224 238.091 436.639 235.282C429.482 232.676 422.925 228.659 417.357 223.472C411.854 218.265 407.465 211.999 404.457 205.053C401.203 197.475 399.584 189.298 399.705 181.054C399.584 172.811 401.203 164.635 404.457 157.055C407.466 150.111 411.854 143.845 417.357 138.636C422.926 133.451 429.483 129.435 436.639 126.827C444.224 124.019 452.257 122.606 460.348 122.656C467.638 122.573 474.869 123.955 481.612 126.719C487.925 129.337 493.569 133.336 498.125 138.42C502.94 143.953 506.58 150.404 508.825 157.38C511.509 165.727 512.803 174.457 512.654 183.222V190.833H427.595ZM484.627 169.976C484.74 166.402 484.119 162.842 482.802 159.516C481.485 156.19 479.499 153.169 476.968 150.636C472.007 145.923 465.118 143.567 456.301 143.567C452.675 143.376 449.047 143.914 445.632 145.147C442.218 146.379 439.086 148.283 436.422 150.744C431.344 155.96 428.194 162.741 427.487 169.976H484.627Z" fill="white"/>
<path d="M531.155 61.521H559.046V236.718H531.155V61.521Z" fill="white"/>
<path d="M605.4 190.83C605.653 194.559 606.645 198.199 608.319 201.543C609.992 204.885 612.314 207.864 615.15 210.306C620.864 214.999 628.093 217.462 635.492 217.24C641.623 217.454 647.695 215.973 653.036 212.96C657.77 210.081 661.976 206.417 665.474 202.126L685.461 217.186C679.755 224.608 672.29 230.499 663.735 234.332C655.668 237.773 646.981 239.533 638.207 239.505C630.116 239.557 622.083 238.143 614.498 235.334C607.342 232.728 600.784 228.711 595.216 223.524C589.713 218.317 585.325 212.05 582.316 205.105C579.063 197.526 577.443 189.35 577.564 181.107C577.443 172.863 579.063 164.686 582.316 157.108C585.325 150.162 589.713 143.897 595.216 138.689C600.785 133.503 607.342 129.487 614.498 126.879C622.082 124.062 630.115 122.639 638.207 122.68C645.497 122.598 652.729 123.979 659.471 126.743C665.785 129.361 671.428 133.36 675.983 138.445C680.8 143.979 684.439 150.428 686.684 157.406C689.369 165.752 690.662 174.481 690.513 183.246V190.83H605.4ZM662.431 169.974C662.545 166.4 661.924 162.84 660.607 159.514C659.29 156.188 657.305 153.166 654.773 150.634C649.813 145.921 642.924 143.564 634.106 143.564C630.48 143.374 626.852 143.912 623.438 145.145C620.023 146.377 616.89 148.281 614.226 150.742C609.149 155.958 605.998 162.739 605.291 169.974H662.431Z" fill="white"/>
<path d="M708.494 125.47H734.973V142.155H735.435C739.166 135.621 744.868 130.427 751.73 127.311C758.668 124.197 766.2 122.616 773.808 122.68C781.709 122.557 789.548 124.098 796.811 127.203C803.412 130.091 809.333 134.327 814.192 139.636C819.04 145.01 822.736 151.314 825.055 158.164C827.58 165.547 828.838 173.304 828.776 181.105C828.834 188.928 827.491 196.697 824.811 204.048C822.352 210.876 818.61 217.173 813.785 222.603C809.024 227.885 803.205 232.111 796.703 235.008C789.869 238.051 782.46 239.593 774.977 239.532C770.281 239.598 765.597 239.051 761.045 237.907C757.323 236.949 753.73 235.549 750.344 233.735C747.514 232.233 744.862 230.416 742.441 228.318C740.447 226.606 738.627 224.7 737.01 222.63H736.304V289.561H708.494V125.47ZM800.967 181.105C800.978 176.838 800.233 172.601 798.767 168.591C797.33 164.636 795.114 161.007 792.249 157.92C789.166 154.64 785.44 152.026 781.304 150.24C777.167 148.453 772.708 147.531 768.201 147.531C763.693 147.531 759.233 148.453 755.097 150.24C750.961 152.026 747.236 154.64 744.152 157.92C741.285 161.005 739.069 164.635 737.635 168.591C734.692 176.677 734.692 185.535 737.635 193.62C739.068 197.577 741.284 201.206 744.152 204.292C747.233 207.574 750.958 210.192 755.095 211.981C759.231 213.77 763.692 214.693 768.201 214.693C772.709 214.693 777.17 213.77 781.307 211.981C785.443 210.192 789.167 207.574 792.249 204.292C795.115 201.205 797.331 197.576 798.767 193.62C800.233 189.61 800.978 185.374 800.967 181.105Z" fill="white"/>
<path d="M840.721 181.107C840.604 172.864 842.218 164.687 845.478 157.109C848.481 150.163 852.872 143.898 858.378 138.69C863.942 133.504 870.504 129.488 877.657 126.88C892.96 121.319 909.744 121.319 925.048 126.88C932.2 129.488 938.762 133.504 944.327 138.69C949.832 143.898 954.216 150.163 957.226 157.109C960.487 164.686 962.117 172.862 962.009 181.107C962.117 189.352 960.487 197.529 957.226 205.106C954.216 212.051 949.832 218.317 944.327 223.525C938.762 228.712 932.2 232.728 925.048 235.335C909.744 240.896 892.96 240.896 877.657 235.335C870.496 232.728 863.942 228.712 858.378 223.525C852.872 218.317 848.481 212.051 845.478 205.106C842.218 197.527 840.604 189.351 840.721 181.107ZM868.616 181.107C868.6 185.375 869.34 189.613 870.812 193.622C872.242 197.58 874.463 201.209 877.332 204.293C880.41 207.576 884.136 210.193 888.269 211.982C892.411 213.771 896.869 214.695 901.377 214.695C905.885 214.695 910.351 213.771 914.485 211.982C918.618 210.193 922.344 207.576 925.43 204.293C928.291 201.206 930.512 197.577 931.942 193.622C934.887 185.537 934.887 176.678 931.942 168.593C930.512 164.637 928.291 161.009 925.43 157.921C922.344 154.642 918.618 152.028 914.485 150.241C910.343 148.454 905.885 147.533 901.377 147.533C896.869 147.533 892.411 148.454 888.278 150.241C884.136 152.028 880.41 154.642 877.332 157.921C874.463 161.006 872.242 164.636 870.812 168.593C869.34 172.602 868.6 176.839 868.616 181.107Z" fill="white"/>
<path d="M979.636 125.472H1007.56V143.078H1008.01C1010.82 136.892 1015.38 131.659 1021.14 128.018C1027.07 124.375 1033.91 122.496 1040.87 122.6C1042.55 122.598 1044.23 122.752 1045.87 123.061C1047.5 123.386 1049.16 123.765 1050.87 124.225V151.096C1048.55 150.481 1046.27 149.975 1044.03 149.579C1041.85 149.24 1039.64 149.086 1037.43 149.118C1031.97 148.863 1026.54 150.109 1021.73 152.721C1018.16 154.747 1015.07 157.518 1012.66 160.847C1010.7 163.647 1009.28 166.789 1008.48 170.11C1007.91 172.391 1007.56 174.723 1007.45 177.072V236.663H979.636V125.472Z" fill="white"/>
<path d="M1055.92 149.119V125.473H1078.92V93.2666H1106.82V125.473H1137.48V149.119H1106.82V197.875C1106.58 202.487 1107.66 207.072 1109.94 211.094C1112.02 214.344 1116.17 215.969 1122.38 215.969C1125.11 215.946 1127.84 215.674 1130.52 215.157C1133.03 214.782 1135.41 213.857 1137.5 212.448V235.796C1134.06 237.323 1130.39 238.301 1126.64 238.695C1122.9 239.199 1119.14 239.471 1115.37 239.507C1109.21 239.707 1103.07 238.911 1097.17 237.151C1092.82 235.784 1088.95 233.21 1086.01 229.729C1083.17 226.11 1081.25 221.85 1080.45 217.323C1079.36 211.673 1078.86 205.929 1078.92 200.178V149.119H1055.92Z" fill="white"/>
<path d="M0 103.964C0 87.8869 13.0329 74.854 29.1098 74.854H137.232C153.309 74.854 166.341 87.8869 166.341 103.964V212.086C166.341 228.163 153.309 241.195 137.232 241.195H29.1098C13.0329 241.195 0 228.163 0 212.086V103.964Z" fill="#854AF6"/>
<path d="M249.512 103.964C249.512 152.194 210.413 191.293 162.183 191.293C113.952 191.293 74.8535 152.194 74.8535 103.964C74.8535 55.7329 113.952 16.6343 162.183 16.6343C210.413 16.6343 249.512 55.7329 249.512 103.964Z" fill="#FF6447"/>
<path d="M263.062 203.081C279.406 212.739 279.406 236.386 263.062 246.044L154.084 310.439C137.451 320.268 116.439 308.279 116.439 288.959V160.166C116.439 140.846 137.451 128.856 154.084 138.685L263.062 203.081Z" fill="#00BBE6"/>
</svg>
