<svg width="815" height="151" viewBox="0 0 815 151" fill="none" xmlns="http://www.w3.org/2000/svg">
<g clip-path="url(#clip0_1422_28787)">
<path d="M161.593 32.7392C161.593 32.7392 108.411 -7.41901 67.1443 1.95978L63.5207 2.9616C57.878 4.5879 52.941 8.05425 49.4951 12.8093C48.9395 13.6158 48.434 14.4558 47.9817 15.3245L32.7412 41.2228L59.0658 46.3598C64.4527 50.1581 70.58 52.7782 77.0478 54.0489C83.5155 55.3197 90.1786 55.2127 96.6022 53.7349L143.496 62.9006L161.593 32.7392Z" fill="#76B3E1"/>
<path opacity="0.3" d="M161.593 32.7392C161.593 32.7392 108.411 -7.41901 67.1443 1.95978L63.5207 2.9616C57.878 4.5879 52.941 8.05425 49.4951 12.8093C48.9395 13.6158 48.434 14.4558 47.9817 15.3245L32.7412 41.2228L59.0658 46.3598C64.4527 50.1581 70.58 52.7782 77.0478 54.0489C83.5155 55.3197 90.1786 55.2127 96.6022 53.7349L143.496 62.9006L161.593 32.7392Z" fill="url(#paint0_linear_1422_28787)"/>
<path d="M49.0256 32.2277L45.3807 33.2508C28.5415 38.6863 22.7864 54.4383 32.4636 68.2507C38.0507 75.2755 45.6102 80.4697 54.1712 83.1664C62.7323 85.8631 71.904 85.9391 80.5085 83.3847L143.432 62.9006C143.432 62.9006 90.3562 22.8489 49.0256 32.2277Z" fill="#518AC8"/>
<path opacity="0.3" d="M49.0256 32.2277L45.3807 33.2508C28.5415 38.6863 22.7864 54.4383 32.4636 68.2507C38.0507 75.2755 45.6102 80.4697 54.1712 83.1664C62.7323 85.8631 71.904 85.9391 80.5085 83.3847L143.432 62.9006C143.432 62.9006 90.3562 22.8489 49.0256 32.2277Z" fill="url(#paint1_linear_1422_28787)"/>
<path d="M131.921 77.6504C126.343 70.5882 118.775 65.361 110.195 62.6442C101.615 59.9274 92.4179 59.8458 83.7913 62.4099L20.9321 82.7875L1.15137 118.001L113.761 137.184L133.946 101.268C137.975 94.383 137.57 85.7077 131.921 77.6504Z" fill="url(#paint2_linear_1422_28787)"/>
<path d="M112.141 112.864C106.565 105.829 99.0144 100.62 90.4581 97.9049C81.9018 95.1895 72.7294 95.0916 64.1171 97.6238L1.15137 118.001C1.15137 118.001 54.4399 158.16 95.6 148.781L99.2236 147.779C116.084 142.429 121.839 126.677 112.141 112.864Z" fill="url(#paint3_linear_1422_28787)"/>
<path d="M233.851 95.9397C238.484 100.451 244.652 103.04 251.117 103.187C258.364 103.187 264.332 98.9238 264.332 91.6766C264.332 75.0506 231.293 79.1005 231.293 58.6377C231.293 49.0457 239.82 40.9459 251.969 40.9459C258.465 40.7527 264.79 43.039 269.661 47.3405L266.443 52.8825C262.47 49.2685 257.318 47.223 251.948 47.1274C243.422 47.1274 238.093 52.6694 237.88 58.4245C237.88 74.1979 270.919 69.7217 270.919 91.4634C270.919 101.269 263.245 109.368 250.882 109.368C247.003 109.445 243.149 108.728 239.557 107.262C235.965 105.796 232.711 103.611 229.993 100.842L233.851 95.9397ZM338.51 41.3722C342.956 41.3521 347.362 42.2167 351.471 43.9154C355.58 45.6142 359.31 48.1133 362.445 51.2672C365.579 54.4212 368.054 58.167 369.727 62.2867C371.4 66.4064 372.236 70.8176 372.188 75.2637C372.245 79.7425 371.418 84.1885 369.756 88.3479C368.094 92.5072 365.629 96.2984 362.502 99.505C359.374 102.712 355.646 105.271 351.529 107.036C347.413 108.802 342.989 109.739 338.51 109.795H338.297C333.818 109.739 329.394 108.802 325.278 107.036C321.161 105.271 317.433 102.712 314.305 99.505C311.178 96.2984 308.713 92.5072 307.051 88.3479C305.389 84.1885 304.562 79.7425 304.618 75.2637V75.0506C304.598 70.6042 305.463 66.1984 307.162 62.0893C308.86 57.9803 311.36 54.2501 314.513 51.116C317.667 47.9819 321.413 45.5064 325.533 43.8336C329.653 42.1608 334.064 41.3241 338.51 41.3722ZM338.297 103.826C345.643 103.659 352.621 100.58 357.698 95.2678C362.775 89.9554 365.533 82.8442 365.367 75.4982V75.2637C365.367 59.4903 353.431 47.3405 338.51 47.3405C334.902 47.3453 331.332 48.0701 328.008 49.4723C324.684 50.8746 321.673 52.9262 319.152 55.5068C316.631 58.0875 314.65 61.1454 313.325 64.5013C312.001 67.8572 311.36 71.4437 311.439 75.0506C311.439 91.2503 323.376 103.613 338.297 103.826ZM410.556 42.6511H416.951L416.738 102.974H447.432V108.729H410.13L410.556 42.6511ZM482.815 42.8643H489.21L488.997 109.155H482.602L482.815 42.8643ZM532.267 42.8643H553.583C573.406 42.8643 586.835 55.0141 586.835 76.1163C586.835 97.2186 573.406 109.155 553.583 109.155H532.267V42.8643ZM552.73 103.4C568.93 103.4 579.801 93.8081 580.014 76.1163C580.227 58.4245 569.143 48.8326 552.943 48.8326H538.662L538.449 103.4H552.73Z" fill="#94C6E9"/>
<path d="M642.617 109.156C648.131 109.325 653.505 107.407 657.665 103.784C659.731 101.865 661.349 99.5133 662.403 96.8975C663.456 94.2817 663.92 91.4658 663.762 88.6502V43.6533H650.439V87.6697C650.589 89.9975 649.824 92.2918 648.308 94.0643C647.542 94.8414 646.619 95.4466 645.601 95.8399C644.583 96.2331 643.493 96.4053 642.404 96.345C638.226 96.345 635.178 93.8938 633.259 88.9912L621.983 95.2793C625.664 104.53 632.542 109.156 642.617 109.156Z" fill="#94C6E9"/>
<path d="M722.465 109.305C729.861 109.305 735.659 107.472 739.815 103.784C741.862 101.985 743.483 99.7527 744.559 97.2493C745.636 94.7458 746.142 92.034 746.039 89.3108C746.124 87.0243 745.688 84.7485 744.765 82.6549C743.842 80.5613 742.456 78.7047 740.711 77.225C737.13 74.1556 731.396 71.5125 723.509 69.253C720.663 68.6124 717.951 67.4799 715.494 65.9065C714.758 65.3932 714.159 64.7068 713.75 63.9077C713.341 63.1085 713.135 62.2212 713.15 61.3237C713.124 60.3943 713.324 59.4726 713.732 58.6374C714.141 57.8022 714.745 57.0783 715.494 56.5277C717.298 55.2402 719.484 54.6016 721.697 54.7159C724.311 54.5398 726.912 55.2179 729.107 56.648C731.302 58.0782 732.973 60.1829 733.868 62.6452L744.888 56.613C743.182 52.3302 740.14 48.7121 736.213 46.2963C732.01 43.7932 727.184 42.5296 722.294 42.6514C716.501 42.4934 710.851 44.4652 706.414 48.1934C704.309 49.851 702.619 51.9752 701.476 54.3981C700.333 56.8211 699.768 59.4766 699.828 62.155C699.773 64.3828 700.185 66.5974 701.036 68.6567C701.888 70.716 703.161 72.5745 704.773 74.1129C707.728 77.0971 712.965 79.7189 720.482 81.9783C723.868 82.7878 727.115 84.0952 730.117 85.8577C730.905 86.2994 731.557 86.9476 732.004 87.7326C732.451 88.5176 732.676 89.4096 732.653 90.3127C732.648 91.2988 732.393 92.2675 731.912 93.1285C731.431 93.9895 730.74 94.7147 729.904 95.2365C727.816 96.5962 725.359 97.274 722.87 97.1762C719.893 97.2488 716.962 96.4289 714.455 94.822C711.948 93.2152 709.979 90.8949 708.801 88.1598L697.291 94.1068C699.185 98.7643 702.544 102.678 706.862 105.255C711.581 108.038 716.987 109.441 722.465 109.305Z" fill="#94C6E9"/>
</g>
<defs>
<linearGradient id="paint0_linear_1422_28787" x1="24.8758" y1="0.105337" x2="150.509" y2="61.1527" gradientUnits="userSpaceOnUse">
<stop offset="0.1" stop-color="#76B3E1"/>
<stop offset="0.3" stop-color="#DCF2FD"/>
<stop offset="1" stop-color="#76B3E1"/>
</linearGradient>
<linearGradient id="paint1_linear_1422_28787" x1="93.788" y1="30.0109" x2="71.7905" y2="103.272" gradientUnits="userSpaceOnUse">
<stop stop-color="#76B3E1"/>
<stop offset="0.5" stop-color="#4377BB"/>
<stop offset="1" stop-color="#1F3B77"/>
</linearGradient>
<linearGradient id="paint2_linear_1422_28787" x1="15.6459" y1="61.9623" x2="142.686" y2="148.332" gradientUnits="userSpaceOnUse">
<stop stop-color="#315AA9"/>
<stop offset="0.5" stop-color="#518AC8"/>
<stop offset="1" stop-color="#315AA9"/>
</linearGradient>
<linearGradient id="paint3_linear_1422_28787" x1="73.0056" y1="72.3011" x2="21.7421" y2="260.282" gradientUnits="userSpaceOnUse">
<stop stop-color="#4377BB"/>
<stop offset="0.5" stop-color="#1A336B"/>
<stop offset="1" stop-color="#1A336B"/>
</linearGradient>
<clipPath id="clip0_1422_28787">
<rect width="814.739" height="150.7" fill="white" transform="translate(0 0.0205078)"/>
</clipPath>
</defs>
</svg>
