<svg width="725" height="181" viewBox="0 0 725 181" fill="none" xmlns="http://www.w3.org/2000/svg">
<g clip-path="url(#clip0_2222_52610)">
<path d="M0 131.41L25.9378 111.34C39.7183 129.506 54.3595 137.88 70.6563 137.88C86.8662 137.88 101.093 129.605 114.253 111.581L140.561 131.168C121.573 157.158 97.9776 170.89 70.6563 170.89C43.4222 170.89 19.5977 157.246 0 131.41Z" fill="url(#paint0_linear_2222_52610)"/>
<path d="M70.5757 44.1812L24.4081 84.3659L3.06738 59.3661L70.6738 0.519531L137.746 59.4098L116.307 84.3218L70.5757 44.1812Z" fill="url(#paint1_linear_2222_52610)"/>
<path fill-rule="evenodd" clip-rule="evenodd" d="M327.715 40.8403C327.715 49.5331 333.99 55.8709 342.596 55.8709V55.8821C350.919 55.8821 357.346 49.5331 357.346 40.8403C357.346 32.4337 350.919 26.0957 342.596 26.0957C334.284 26.0957 327.715 32.4337 327.715 40.8403ZM318.251 31.9925V144.492H292.564V31.9925H318.251ZM240.025 146.116C224.264 146.115 211.128 140.954 200.475 130.634C189.821 120.17 184.57 106.757 184.57 90.3837C184.57 73.8786 189.963 60.3115 200.617 49.6928C211.423 38.9317 224.561 33.628 240.183 33.628C259.453 33.628 276.524 42.0236 286.459 55.1509L269.073 73.5815C260.75 64.5806 251.697 60.014 241.926 60.014C233.603 60.014 226.74 62.809 221.042 68.564C215.497 74.3186 212.73 81.5479 212.73 90.2405C212.73 98.6474 215.497 105.722 221.042 111.477C226.74 117.078 233.603 119.873 241.773 119.873C252.427 119.873 261.774 115.153 269.509 105.865L287.614 123.416C282.646 130.051 275.936 135.509 267.613 139.778C259.292 144.058 250.099 146.115 240.025 146.116ZM355.59 63.0979V144.49H329.75V63.0979H355.59ZM374.113 134.313C382.131 142.279 392.35 146.263 405.051 146.263C422.133 146.263 436.578 137.856 443.593 124.289L423.004 111.91C420.085 118.248 413.222 122.374 405.781 122.374C395.411 122.374 387.676 114.408 387.676 103.647C387.586 98.7622 389.424 94.0426 392.785 90.5303C396.293 86.987 400.672 85.2158 406.076 85.2158C413.516 85.2158 419.213 88.7587 423.298 95.691L443.877 84.7753C437.024 69.2935 422.275 61.0409 405.487 61.0409C392.644 61.0409 382.284 65.0136 374.255 72.9799C366.227 80.9463 362.283 91.1136 362.283 103.647C362.283 116.179 366.227 126.358 374.113 134.313ZM533.187 144.492H502.524L478.719 112.197L474.93 115.74V144.492H449.254V31.9925H474.939V86.6905L499.167 63.0992H530.555L495.968 95.8345L533.187 144.492ZM534.911 35.5264V102.174C534.911 134.315 557.1 146.408 579.434 146.408C601.907 146.408 623.957 134.315 623.957 102.174V35.5264H596.363V101.734C596.363 113.673 589.356 119.868 579.434 119.868C569.358 119.868 562.352 113.97 562.352 101.734V35.5264H534.911ZM684.941 61.0409C696.479 61.0409 705.825 65.1674 713.264 73.42C720.702 81.5294 724.352 91.7076 724.352 103.647C724.352 115.596 720.563 125.764 713.124 134.17C705.672 142.423 696.335 146.56 685.094 146.56C676.184 146.56 668.448 143.611 662.171 137.713V177.964H636.332V63.0988H661.739V70.6251C668.012 64.276 675.747 61.0409 684.941 61.0409ZM679.982 85.219C690.498 85.219 698.076 93.3285 698.076 103.947H698.09C698.153 108.874 696.317 113.632 692.969 117.217C689.612 120.903 685.233 122.674 679.982 122.674C674.721 122.674 670.343 120.903 666.846 117.217C663.48 113.531 661.739 109.107 661.739 103.947C661.739 93.3285 669.47 85.219 679.982 85.219Z" fill="white"/>
</g>
<defs>
<linearGradient id="paint0_linear_2222_52610" x1="0" y1="181.615" x2="140.561" y2="181.615" gradientUnits="userSpaceOnUse">
<stop stop-color="#7612FA"/>
<stop offset="1" stop-color="#40DDFF"/>
</linearGradient>
<linearGradient id="paint1_linear_2222_52610" x1="3.06738" y1="99.4665" x2="137.746" y2="99.4665" gradientUnits="userSpaceOnUse">
<stop stop-color="#FA12E3"/>
<stop offset="1" stop-color="#FFD700"/>
</linearGradient>
<clipPath id="clip0_2222_52610">
<rect width="724.5" height="180" fill="white" transform="translate(0 0.519531)"/>
</clipPath>
</defs>
</svg>
