<svg preserveAspectRatio="xMidYMid" width="766" height="160" viewBox="0 0 766 160" fill="none" xmlns="http://www.w3.org/2000/svg">
<g clip-path="url(#clip0_2215_52357)">
<path d="M250.716 32.5977L211.6 130.656H228.966L236.691 111.031H278.133L285.725 130.656H303.5L264.458 32.5977H250.716ZM242.716 95.3727L257.416 57.8308L271.983 95.3727H242.716Z" fill="#BED1F8"/>
<path d="M392.401 60.7715C387.7 60.7715 383.375 61.8549 379.409 64.0216C375.442 66.1884 372.5 69.1218 370.584 72.805C366.526 64.7799 359.459 60.7715 349.384 60.7715C345.326 60.7715 341.417 61.6467 337.659 63.4051C333.901 65.1635 330.859 67.9799 328.534 71.8465V62.2053H313.009V130.655H328.534V92.2884C328.534 86.822 330.026 82.6966 333.009 79.9134C335.992 77.1301 339.584 75.7385 343.775 75.7385C348.425 75.7385 352.092 77.2049 354.784 80.1468C357.476 83.0887 358.817 87.1302 358.817 92.2799V130.647H374.475V92.2799C374.475 86.8136 375.959 82.6882 378.917 79.9049C381.884 77.1217 385.484 75.73 389.725 75.73C394.325 75.73 397.95 77.197 400.6 80.1384C403.242 83.0802 404.567 87.1218 404.567 92.2721V130.638H420.434V88.7885C420.434 80.2632 417.85 73.4553 412.675 68.372C407.5 63.3134 400.742 60.7715 392.401 60.7715Z" fill="#BED1F8"/>
<path d="M492.041 65.555C487.049 62.3634 481.566 60.7715 475.591 60.7715C470.124 60.7715 465.307 61.955 461.165 64.3299C457.015 66.7053 453.682 70.0966 451.182 74.5218V62.2132H435.657V154.596H451.182V118.355C453.69 122.73 457.015 126.105 461.165 128.472C465.316 130.847 470.124 132.03 475.591 132.03C484.666 132.03 492.366 128.572 498.707 121.672C505.04 114.764 508.207 106.363 508.207 96.4717C508.207 89.9967 506.757 84.0303 503.865 78.5549C500.974 73.0801 497.032 68.7466 492.041 65.555ZM486.874 111.13C482.866 115.164 477.966 117.18 472.174 117.18C466.157 117.18 461.149 115.197 457.166 111.23C453.174 107.263 451.182 102.339 451.182 96.4554C451.182 90.4799 453.174 85.5136 457.166 81.5469C461.157 77.5801 466.157 75.5967 472.174 75.5967C477.966 75.5967 482.866 77.6133 486.874 81.647C490.891 85.6801 492.89 90.6132 492.89 96.4554C492.899 102.214 490.891 107.097 486.874 111.13Z" fill="#BED1F8"/>
<path d="M536.049 32.5977H520.524V130.656H536.049V32.5977Z" fill="#BED1F8"/>
<path d="M566.651 62.207H551.124V130.657H566.651V62.207Z" fill="#BED1F8"/>
<path d="M558.992 30.4062C556.258 30.4062 553.909 31.3896 551.95 33.348C549.992 35.3062 549.009 37.6313 549.009 40.323C549.009 43.1063 549.984 45.4729 551.95 47.4396C553.909 49.3979 556.258 50.3812 558.992 50.3812C561.725 50.3812 564.092 49.3979 566.077 47.4396C568.057 45.4813 569.053 43.1063 569.053 40.323C569.053 37.6313 568.057 35.3062 566.077 33.348C564.086 31.3896 561.725 30.4062 558.992 30.4062Z" fill="#BED1F8"/>
<path d="M605.216 43.8145H589.562V62.206H576.568V77.0475H589.562V104.881C589.562 113.406 591.835 119.973 596.402 124.573C600.958 129.181 607.095 131.481 614.796 131.481C617.985 131.481 620.792 131.206 623.2 130.656V116.231C621.793 116.598 620.1 116.781 618.143 116.781C614.126 116.781 610.976 115.79 608.676 113.806C606.375 111.823 605.216 108.756 605.216 104.606V77.0475H623.2V62.206H605.216V43.8145Z" fill="#BED1F8"/>
<path d="M683.1 99.2741C683.1 104.649 681.57 108.957 678.482 112.199C675.411 115.432 671.344 117.057 666.276 117.057C661.258 117.057 657.225 115.44 654.165 112.199C651.111 108.965 649.587 104.657 649.587 99.2741V62.207H634.062V101.116C634.062 110.732 636.593 118.291 641.65 123.782C646.712 129.274 653.659 132.024 662.507 132.024C667.024 132.024 671.035 130.974 674.545 128.874C678.049 126.782 680.901 123.774 683.095 119.849V130.657H698.749V62.207H683.095L683.1 99.2741Z" fill="#BED1F8"/>
<path d="M767.734 74.2395C765.225 69.906 761.923 66.5811 757.817 64.2557C753.716 61.9309 748.952 60.7727 743.524 60.7727C737.55 60.7727 732.06 62.3477 727.048 65.4893C722.031 68.6308 718.065 72.939 715.151 78.4144C712.232 83.8892 710.775 89.8562 710.775 96.3312C710.775 102.806 712.232 108.789 715.151 114.281C718.065 119.773 722.031 124.106 727.048 127.273C732.066 130.439 737.556 132.023 743.524 132.023C748.952 132.023 753.716 130.873 757.817 128.564C761.917 126.265 765.225 122.948 767.734 118.614V130.648H783.467V32.5977H767.734V74.2395ZM761.76 111.206C757.766 115.197 752.805 117.189 746.882 117.189C741.094 117.189 736.189 115.173 732.184 111.14C728.167 107.106 726.165 102.173 726.165 96.3312C726.165 90.5892 728.173 85.6977 732.184 81.6645C736.189 77.6308 741.094 75.6143 746.882 75.6143C752.805 75.6143 757.766 77.5977 761.76 81.5644C765.748 85.5312 767.739 90.4558 767.739 96.339C767.734 102.256 765.742 107.214 761.76 111.206Z" fill="#BED1F8"/>
<path d="M863.949 94.9636C863.949 88.4465 862.442 82.5549 859.432 77.2882C856.423 72.0215 852.373 67.9552 847.288 65.0802C842.209 62.2053 836.606 60.7715 830.497 60.7715C824.023 60.7715 818.089 62.3217 812.683 65.4217C807.283 68.5216 803.014 72.7719 799.892 78.1719C796.764 83.5719 795.206 89.5383 795.206 96.0549C795.206 102.755 796.764 108.864 799.892 114.38C803.014 119.897 807.289 124.214 812.717 127.338C818.139 130.464 824.158 132.022 830.773 132.022C839.205 132.022 846.382 129.83 852.317 125.455C858.24 121.08 861.84 115.288 863.122 108.088H847.462C846.782 111.005 844.925 113.38 841.888 115.197C838.856 117.021 835.25 117.93 831.049 117.93C825.626 117.93 821.182 116.472 817.717 113.555C814.247 110.638 812.014 106.63 811.012 101.522H863.533C863.814 100.297 863.949 98.1052 863.949 94.9636ZM811.434 88.1883C812.576 83.9887 814.73 80.7301 817.931 78.4053C821.126 76.0799 825.013 74.9133 829.625 74.9133C834.272 74.9133 838.159 76.1384 841.28 78.5718C844.408 81.0136 846.309 84.2137 846.99 88.1799H811.434V88.1883Z" fill="#BED1F8"/>
<path d="M79.3313 40.6646C78.8228 40.0146 78.2811 39.6562 77.6308 39.6562C77.1645 39.6896 76.7308 39.8396 76.3309 40.0896C71.5227 43.8479 64.9813 59.7894 59.5977 80.8229L64.3727 80.8561C73.7727 80.9647 83.4893 81.0727 93.0726 81.2144C90.5397 71.5979 88.1563 63.3562 85.9558 56.6731C82.731 46.9563 80.5643 42.5812 79.3313 40.6646Z" fill="#BED1F8"/>
<path d="M90 0.148438C40.3 0.148438 0 40.4484 0 90.1484C0 139.849 40.3 180.148 90 180.148C139.7 180.148 180 139.849 180 90.1484C180 40.4484 139.7 0.148438 90 0.148438ZM156.434 89.0651C156.183 90.0736 155.567 91.0569 154.7 91.7735C154.592 91.8483 154.483 91.9153 154.375 91.9901L154.267 92.0649L154.05 92.2066L153.867 92.3152C153.183 92.6735 152.417 92.8569 151.625 92.8569H108.975C109.3 94.2654 109.7 95.8899 110.091 97.6319C112.442 107.715 118.625 134.532 125.233 134.532H125.375H125.45H125.592C130.725 134.532 133.367 127.09 139.15 110.782L139.225 110.599C140.167 107.998 141.217 105.032 142.333 101.89L142.625 101.099C143.058 100.048 144.25 99.5067 145.3 99.9399C146.058 100.232 146.6 100.99 146.6 101.824C146.6 102.04 146.567 102.224 146.525 102.399L146.275 103.19C145.658 105.14 145.05 107.782 144.284 110.857C140.85 125.098 135.642 146.607 122.341 146.607H122.234C113.633 146.532 108.5 132.798 106.292 126.907C102.175 115.915 99.0664 104.24 96.0666 92.8985H56.8918L48.7583 118.957L48.65 118.848C47.425 120.765 44.8583 121.34 42.9416 120.115C41.75 119.357 41.025 118.057 41.025 116.648V116.507L41.5333 113.54C42.65 106.857 44.025 99.8735 45.5416 92.8653H28.9167L28.8417 92.7899C25.4416 92.282 23.0916 89.1067 23.6 85.7069C24 83.0649 26.025 80.9735 28.625 80.4982C29.275 80.4234 29.925 80.3902 30.575 80.4234H31.3666C36.6083 80.4982 42.175 80.6068 48.3167 80.6737C56.9582 45.5401 66.9668 27.6817 78.0998 27.6484C90.0248 27.6484 98.8836 54.7901 105.967 81.3566L106 81.4651C120.533 81.7565 136.075 82.1902 151.142 83.2736L151.792 83.3484C152.042 83.3484 152.258 83.3816 152.517 83.4232H152.592L152.666 83.4569H152.7C155.275 83.9649 156.975 86.4984 156.434 89.0651Z" fill="#BED1F8"/>
</g>
<defs>
<clipPath id="clip0_2215_52357">
<rect width="866.25" height="180" fill="white" transform="translate(0 0.148438)"/>
</clipPath>
</defs>
</svg>
