<svg preserveAspectRatio="xMidYMid" width="514" height="160" viewBox="0 0 514 160" fill="none" xmlns="http://www.w3.org/2000/svg">
<mask id="mask0_167_717" style="mask-type:alpha" maskUnits="userSpaceOnUse" x="0" y="0" width="119" height="52">
<path fill-rule="evenodd" clip-rule="evenodd" d="M0 0H118.626V51.8462H0V0Z" fill="white"/>
</mask>
<g mask="url(#mask0_167_717)">
<path fill-rule="evenodd" clip-rule="evenodd" d="M23.3996 50.9502L15.2863 37.8887L11.7651 42.0893V50.9502H-0.0221405V0H11.7651V28.7979L23.0166 14.0557H37.2537L23.6289 30.8605L37.943 50.9502H23.3996Z" fill="white"/>
<path fill-rule="evenodd" clip-rule="evenodd" d="M66.7964 50.95V29.638C66.7964 25.1315 64.4234 23.5272 60.7484 23.5272C57.2286 23.5272 54.9322 25.4367 53.554 27.1174V50.95H41.7667V14.0555H53.554V18.5617C55.7742 15.9647 60.1371 13.1388 66.3364 13.1388C74.7563 13.1388 78.5836 18.0273 78.5836 24.8259V50.95H66.7964Z" fill="white"/>
<path fill-rule="evenodd" clip-rule="evenodd" d="M106.837 41.478V38.1931C105.613 36.5128 102.858 35.5967 100.255 35.5967C97.1172 35.5967 94.3611 36.9708 94.3611 39.8734C94.3611 42.7763 97.1172 44.1518 100.255 44.1518C102.858 44.1518 105.613 43.235 106.837 41.478ZM106.838 50.95V47.2838C104.542 50.0333 100.104 51.8671 95.3576 51.8671C89.6938 51.8671 82.6517 48.0471 82.6517 39.7212C82.6517 30.7836 89.6938 27.881 95.3576 27.881C100.256 27.881 104.619 29.4092 106.838 32.159V27.7289C106.838 24.5204 104.083 22.3813 99.3373 22.3813C95.6638 22.3813 91.8364 23.7561 88.8521 26.2774L84.6416 18.8676C89.3879 14.8188 95.7407 13.1388 101.404 13.1388C110.283 13.1388 118.626 16.423 118.626 27.881V50.95H106.838Z" fill="white"/>
</g>
<path fill-rule="evenodd" clip-rule="evenodd" d="M152.462 45.1284C152.462 42.9413 153.372 40.9223 154.826 39.4324L148.719 30.8605L162.343 14.0557H148.106L136.855 28.7979V0H125.067V50.9499H136.855V42.0893L140.376 37.8887L148.489 50.9499H154.95C153.424 49.4489 152.462 47.377 152.462 45.1284Z" fill="white"/>
<path fill-rule="evenodd" clip-rule="evenodd" d="M154.54 45.0549C154.54 41.6822 157.39 38.8376 160.77 38.8376C164.15 38.8376 167 41.6822 167 45.0549C167 48.4276 164.15 51.2721 160.77 51.2721C157.39 51.2721 154.54 48.4276 154.54 45.0549Z" fill="#A8D000"/>
</svg>
