<svg preserveAspectRatio="xMidYMid" xmlns="http://www.w3.org/2000/svg" viewBox="0 0 390 160" width="390" height="160" fill="none" style="margin-top:-5px;"><path fill="currentColor" fill-rule="evenodd" d="M46.262 5.5c-.855 0-1.575.298-2.162.895s-.88 1.32-.88 2.17c0 .848.293 1.565.88 2.148.587.584 1.307.875 2.162.875.853 0 1.574-.291 2.161-.875.587-.583.88-1.3.88-2.149a2.98 2.98 0 0 0-.88-2.169c-.587-.597-1.308-.895-2.161-.895Zm52.23 13.995c-.452-1.059-1.032-1.893-1.737-2.502-.706-.609-1.472-1.033-2.297-1.271-.826-.238-1.598-.358-2.317-.358-.533 0-1.086.06-1.658.181a7.378 7.378 0 0 0-1.658.56 6.68 6.68 0 0 0-1.478.962 5.873 5.873 0 0 0-1.159 1.34 6.211 6.211 0 0 0-1.258-1.46 7.678 7.678 0 0 0-.293-.23v.008a5.963 5.963 0 0 0-1.965-1.003c-.826-.238-1.598-.358-2.317-.358-.533 0-1.086.06-1.658.181a7.377 7.377 0 0 0-1.658.56 6.68 6.68 0 0 0-1.478.962 5.878 5.878 0 0 0-1.159 1.34 6.22 6.22 0 0 0-1.258-1.46 7.678 7.678 0 0 0-.293-.23 6.804 6.804 0 0 0-1.165-.712 6.074 6.074 0 0 0-1.558-.5 8.836 8.836 0 0 0-1.519-.14 7.07 7.07 0 0 0-2.616.48 6.497 6.497 0 0 0-2.137 1.361l-.8-1.842h-4.714v19.7h5.514V24.645c0-1.505.305-2.614.918-3.327.613-.713 1.305-1.07 2.078-1.07 1.065 0 1.877.318 2.437.951.559.634.839 1.756.839 3.367v10.496h5.513V24.527c0-.845.086-1.544.26-2.099.172-.555.405-.99.699-1.307a2.48 2.48 0 0 1 .998-.674 3.337 3.337 0 0 1 1.119-.198c.4 0 .792.073 1.178.218.386.145.726.39 1.019.733.293.344.526.793.7 1.347.172.555.259 1.228.259 2.02v10.496H87.427V24.527c0-.845.086-1.544.26-2.099.172-.555.405-.99.698-1.307a2.48 2.48 0 0 1 1-.674 3.335 3.335 0 0 1 1.118-.198c.4 0 .792.073 1.178.218.386.145.726.39 1.019.733.293.344.526.793.7 1.347.172.555.259 1.228.259 2.02v10.496h5.513V23.546c0-1.642-.227-2.992-.68-4.051Zm-47.038 4.584-.812-2.8-1.714-5.915h-5.673l2.991 9.898 2.962 9.801h5.457l-1.575-5.386-.007.024-1.629-5.622ZM31.2 15.364l-3.995 14.258-4.115-14.258h-5.673l5.953 19.699h6.951l2.876-9.492.32-2.82.28 2.82 2.876 9.492h1.535l1.574-5.386-3.988-14.313H31.2Zm-19.834 8.42a7.798 7.798 0 0 1 1.778.953c1.464 1.033 2.197 2.502 2.197 4.408 0 .874-.207 1.695-.62 2.463a6.638 6.638 0 0 1-1.697 2.025 8.206 8.206 0 0 1-2.517 1.37 9.369 9.369 0 0 1-3.076.497 9.25 9.25 0 0 1-2.417-.318 9.545 9.545 0 0 1-2.177-.873 7.254 7.254 0 0 1-1.738-1.331A5.081 5.081 0 0 1 0 31.25c.612-.29 1.292-.615 2.037-.973a66.581 66.581 0 0 0 1.958-.973c.24.398.612.762 1.119 1.093.505.33 1.198.496 2.077.496.905 0 1.571-.212 1.998-.635.425-.424.639-.82.639-1.192 0-.264-.147-.51-.44-.735a3.64 3.64 0 0 0-.998-.536c-.533-.211-.973-.324-1.319-.337a4.998 4.998 0 0 1-1.198-.219c-1.439-.344-2.537-.8-3.296-1.37-.76-.569-1.312-1.145-1.658-1.728-.347-.582-.54-1.138-.58-1.668-.04-.529-.06-.953-.06-1.27 0-.848.187-1.655.56-2.423a6.273 6.273 0 0 1 1.538-2.006 7.833 7.833 0 0 1 2.277-1.37 7.447 7.447 0 0 1 2.777-.516 7.698 7.698 0 0 1 4.394 1.35 6.84 6.84 0 0 1 1.578 1.51c.44.582.766 1.23.979 1.945l-4.274 1.43c-.16-.477-.487-.86-.98-1.152a3.054 3.054 0 0 0-1.577-.436c-.56 0-1.013.185-1.359.556-.346.37-.52.741-.52 1.112 0 .45.167.8.5 1.052.333.252.7.43 1.099.536.293.053.58.1.859.14.28.039.552.085.819.138.932.212 1.738.45 2.417.715Z" clip-rule="evenodd"></path><path fill="currentColor" fill-rule="evenodd" d="M46.262 5.5c-.855 0-1.575.298-2.162.895s-.88 1.32-.88 2.17c0 .848.293 1.565.88 2.148.587.584 1.307.875 2.162.875.853 0 1.574-.291 2.161-.875.587-.583.88-1.3.88-2.149a2.98 2.98 0 0 0-.88-2.169c-.587-.597-1.308-.895-2.161-.895Zm52.23 13.995c-.452-1.059-1.032-1.893-1.737-2.502-.706-.609-1.472-1.033-2.297-1.271-.826-.238-1.598-.358-2.317-.358-.533 0-1.086.06-1.658.181a7.378 7.378 0 0 0-1.658.56 6.68 6.68 0 0 0-1.478.962 5.873 5.873 0 0 0-1.159 1.34 6.211 6.211 0 0 0-1.258-1.46 7.678 7.678 0 0 0-.293-.23v.008a5.963 5.963 0 0 0-1.965-1.003c-.826-.238-1.598-.358-2.317-.358-.533 0-1.086.06-1.658.181a7.377 7.377 0 0 0-1.658.56 6.68 6.68 0 0 0-1.478.962 5.878 5.878 0 0 0-1.159 1.34 6.22 6.22 0 0 0-1.258-1.46 7.678 7.678 0 0 0-.293-.23 6.804 6.804 0 0 0-1.165-.712 6.074 6.074 0 0 0-1.558-.5 8.836 8.836 0 0 0-1.519-.14 7.07 7.07 0 0 0-2.616.48 6.497 6.497 0 0 0-2.137 1.361l-.8-1.842h-4.714v19.7h5.514V24.645c0-1.505.305-2.614.918-3.327.613-.713 1.305-1.07 2.078-1.07 1.065 0 1.877.318 2.437.951.559.634.839 1.756.839 3.367v10.496h5.513V24.527c0-.845.086-1.544.26-2.099.172-.555.405-.99.699-1.307a2.48 2.48 0 0 1 .998-.674 3.337 3.337 0 0 1 1.119-.198c.4 0 .792.073 1.178.218.386.145.726.39 1.019.733.293.344.526.793.7 1.347.172.555.259 1.228.259 2.02v10.496H87.427V24.527c0-.845.086-1.544.26-2.099.172-.555.405-.99.698-1.307a2.48 2.48 0 0 1 1-.674 3.335 3.335 0 0 1 1.118-.198c.4 0 .792.073 1.178.218.386.145.726.39 1.019.733.293.344.526.793.7 1.347.172.555.259 1.228.259 2.02v10.496h5.513V23.546c0-1.642-.227-2.992-.68-4.051Zm-47.038 4.584-.812-2.8-1.714-5.915h-5.673l2.991 9.898 2.962 9.801h5.457l-1.575-5.386-.007.024-1.629-5.622ZM31.2 15.364l-3.995 14.258-4.115-14.258h-5.673l5.953 19.699h6.951l2.876-9.492.32-2.82.28 2.82 2.876 9.492h1.535l1.574-5.386-3.988-14.313H31.2Zm-19.834 8.42a7.798 7.798 0 0 1 1.778.953c1.464 1.033 2.197 2.502 2.197 4.408 0 .874-.207 1.695-.62 2.463a6.638 6.638 0 0 1-1.697 2.025 8.206 8.206 0 0 1-2.517 1.37 9.369 9.369 0 0 1-3.076.497 9.25 9.25 0 0 1-2.417-.318 9.545 9.545 0 0 1-2.177-.873 7.254 7.254 0 0 1-1.738-1.331A5.081 5.081 0 0 1 0 31.25c.612-.29 1.292-.615 2.037-.973a66.581 66.581 0 0 0 1.958-.973c.24.398.612.762 1.119 1.093.505.33 1.198.496 2.077.496.905 0 1.571-.212 1.998-.635.425-.424.639-.82.639-1.192 0-.264-.147-.51-.44-.735a3.64 3.64 0 0 0-.998-.536c-.533-.211-.973-.324-1.319-.337a4.998 4.998 0 0 1-1.198-.219c-1.439-.344-2.537-.8-3.296-1.37-.76-.569-1.312-1.145-1.658-1.728-.347-.582-.54-1.138-.58-1.668-.04-.529-.06-.953-.06-1.27 0-.848.187-1.655.56-2.423a6.273 6.273 0 0 1 1.538-2.006 7.833 7.833 0 0 1 2.277-1.37 7.447 7.447 0 0 1 2.777-.516 7.698 7.698 0 0 1 4.394 1.35 6.84 6.84 0 0 1 1.578 1.51c.44.582.766 1.23.979 1.945l-4.274 1.43c-.16-.477-.487-.86-.98-1.152a3.054 3.054 0 0 0-1.577-.436c-.56 0-1.013.185-1.359.556-.346.37-.52.741-.52 1.112 0 .45.167.8.5 1.052.333.252.7.43 1.099.536.293.053.58.1.859.14.28.039.552.085.819.138.932.212 1.738.45 2.417.715Z" clip-rule="evenodd"></path></svg>