<?xml version="1.0" encoding="UTF-8" standalone="no"?>
<!DOCTYPE svg PUBLIC "-//W3C//DTD SVG 1.1//EN" "http://www.w3.org/Graphics/SVG/1.1/DTD/svg11.dtd">
<svg preserveAspectRatio="xMidYMid" width="766" height="160" viewBox="0 0 766 160" version="1.1" xmlns="http://www.w3.org/2000/svg" xmlns:xlink="http://www.w3.org/1999/xlink" xml:space="preserve" xmlns:serif="http://www.serif.com/" style="fill-rule:evenodd;clip-rule:evenodd;stroke-linejoin:round;stroke-miterlimit:2;">
    <g>
        <path d="M3.53,5C3.022,4.463 2.76,3.738 2.81,3C2.827,2.289 3.113,1.61 3.61,1.1C4.127,0.595 4.827,0.32 5.55,0.34C6.256,0.323 6.936,0.616 7.41,1.14C7.937,1.615 8.242,2.29 8.25,3C8.276,3.757 7.969,4.489 7.41,5C6.887,5.495 6.19,5.765 5.47,5.75C4.749,5.772 4.048,5.502 3.53,5ZM11.26,18.6C8.56,25.94 -1.67,27.92 0.26,18.4L2.46,7.6L7.14,7.6C6.07,13.35 5.27,16.85 4.48,20.85C3.69,24.85 8.76,21.92 9.91,18.59L11.26,18.59L11.26,18.6Z" style="fill:rgb(233,241,253);"/>
        <path d="M36.89,18.79C34.19,26.09 24.75,27.12 26.18,19.54C26.65,16.92 27.18,14.23 27.72,11.25C28.56,7.36 24.87,10.25 23.64,13.39C23.586,13.477 23.545,13.571 23.52,13.67C23.32,14.74 21.73,23.67 21.58,24.58L17.17,24.58C18.12,19.27 18.84,15.06 19.51,11.37C20.18,7.68 16.74,9.9 15.35,12.76C15.35,12.76 15.35,12.84 15.27,12.88L12.93,24.54L8.25,24.54L11.66,7.54L16.34,7.54L15.9,9.84C18.6,6.59 23.52,6.19 23.8,10.84C27.37,6 33.48,5.64 31.85,13.61L31.29,16.61C31,18.11 31,18.19 30.46,21C29.92,23.81 34.46,22 35.54,18.78L36.89,18.78L36.89,18.79Z" style="fill:rgb(233,241,253);"/>
        <path d="M46.49,10.7C44.42,6.93 40.42,10.58 39.23,16.09C37.92,22.24 40.23,25.41 44.86,19.09L46.49,10.68L46.49,10.7ZM55.69,18.75C53.35,25 45.22,27.2 44.74,21.37C41.13,26.72 33.4,25.73 34,18.71C34.48,13.24 37.17,7.71 43.24,7.56L51.85,7.56L51.6,8.87C50.53,14.07 49.82,17.08 49.07,21.01C48.32,24.94 53.27,21.96 54.38,18.79L55.69,18.79L55.69,18.75Z" style="fill:rgb(233,241,253);"/>
        <path d="M65.57,10.42C63.5,6.57 59.38,10.3 58.15,15.89C56.8,22.2 59.15,25.41 63.86,19.03C63.82,19 65.57,10.42 65.57,10.42ZM71,7.4L68.34,20.22C66.92,28.11 64.61,35.22 54.54,32.36L57.67,29.1C59.38,30.41 60.61,30.57 61.56,30.02L61.68,29.46L63.23,21.92C59.46,26.64 52.23,25.45 52.75,18.55C53.43,10.74 57.95,7.64 61.36,7.48C62,7.48 62.63,7.4 63.36,7.4L71,7.4ZM75.64,16.33C81,16.49 81.64,10.06 80.76,9.39C80.09,8.87 78.58,9.51 77.35,11.45C76.487,12.844 75.894,14.387 75.6,16C75.62,16.119 75.62,16.241 75.6,16.36L75.64,16.33ZM85.84,18.71C83.18,23.59 80.4,24.86 76.52,24.71C70.09,24.51 70.01,16.38 73.14,11.38C75.72,7.38 80.14,6.54 82.07,8.17C83.81,9.56 83.85,12.17 82.82,14.17C81.359,16.791 78.466,18.3 75.48,18C75.48,19.62 76.12,21.53 77.59,22.24C80.2,23.47 82.94,21.41 84.59,18.79C84.57,18.71 85.8,18.71 85.8,18.71L85.84,18.71Z" style="fill:rgb(233,241,253);"/>
        <path d="M95,9.74C93.41,10.58 91.31,13.74 90.12,15.22L89.76,16.85C90.12,16.73 90.44,16.57 90.76,16.45C96.23,14.19 97.7,8.28 95,9.74ZM98,24.58L93.21,24.58L89.45,18.75L88.38,24.58L83.62,24.58L88.34,0.82L92.94,0.82C92.14,5.06 91.43,8.32 90.64,12.56C91.821,10.775 93.327,9.228 95.08,8C99.92,5.06 101.35,13.55 93.21,17L98.05,24.54L98,24.58ZM102.93,5C102.429,4.459 102.173,3.735 102.22,3C102.238,2.291 102.52,1.613 103.01,1.1C103.541,0.585 104.261,0.31 105,0.34C105.706,0.323 106.386,0.616 106.86,1.14C107.395,1.625 107.697,2.318 107.69,3.04C107.698,3.788 107.38,4.504 106.82,5C106.297,5.495 105.6,5.765 104.88,5.75C104.155,5.78 103.448,5.508 102.93,5ZM110.63,18.6C107.93,25.94 97.7,27.92 99.63,18.4L101.82,7.6L106.5,7.6C105.43,13.35 104.64,16.85 103.85,20.85C103.06,24.85 108.13,21.92 109.28,18.59L110.63,18.59L110.63,18.6Z" style="fill:rgb(233,241,253);"/>
        <path d="M120,18.63C117.3,25.89 107.27,27.83 109.17,18.51L111,9.67L109,9.67L109.84,7.6L111.46,7.6L112.37,3.2L117.21,2.2L116.1,7.6L118.84,7.6L117.84,9.67L115.7,9.67L113.44,20.93C112.64,24.93 117.44,21.93 118.63,18.63L120,18.63ZM121.27,20.1C121.785,19.587 122.483,19.299 123.21,19.3C123.234,19.299 123.257,19.299 123.281,19.299C124.773,19.299 126.001,20.527 126.001,22.019C126.001,22.039 126,22.06 126,22.08C126.013,22.825 125.729,23.545 125.21,24.08C124.664,24.581 123.951,24.863 123.21,24.87C121.704,24.843 120.481,23.596 120.481,22.09C120.481,21.366 120.764,20.669 121.27,20.15M133.16,5C132.654,4.462 132.397,3.736 132.45,3C132.464,2.29 132.746,1.611 133.24,1.1C133.75,0.58 134.452,0.291 135.18,0.3C135.889,0.283 136.572,0.575 137.05,1.1C137.582,1.588 137.884,2.278 137.88,3C137.905,3.755 137.602,4.484 137.05,5C136.511,5.508 135.79,5.779 135.05,5.75C134.345,5.765 133.663,5.494 133.16,5ZM140.86,18.6C138.16,25.94 127.92,27.92 129.86,18.4L132.05,7.6L136.73,7.6C135.66,13.35 134.87,16.85 134.07,20.85C133.27,24.85 138.36,21.92 139.51,18.59L140.86,18.59L140.86,18.6Z" style="fill:rgb(233,241,253);"/>
        <path d="M149.74,15.85C148.548,15.608 147.432,15.079 146.49,14.31L148.27,11.89C148.704,12.275 149.201,12.583 149.74,12.8C149.19,10.3 147.04,8.04 145.14,10.74C143.43,13.2 141.93,20.61 144.94,22.32C146.57,23.27 148.94,21.61 149.78,16.01L149.78,15.85L149.74,15.85ZM157.83,12.4C156.652,13.532 155.302,14.47 153.83,15.18C152.83,22.91 146.53,25.93 142.52,24.38C139.35,23.23 138.2,20.3 138.52,17.2C138.921,13.662 140.949,10.505 144,8.67C147.17,6.85 151.89,6.67 153.52,10.62C153.841,11.372 154.004,12.182 154,13C155.345,12.637 156.617,12.045 157.76,11.25L157.83,12.4Z" style="fill:rgb(233,241,253);"/>
    </g>
</svg>
