<svg width="284" height="79" viewBox="0 0 284 79" fill="none" xmlns="http://www.w3.org/2000/svg">
<mask id="mask0_265_8456" style="mask-type:alpha" maskUnits="userSpaceOnUse" x="0" y="0" width="284" height="79">
<path d="M2.39859 2.03153H0V0.398711H6.66416V2.03153H4.26557V9.84752H2.39859V2.03153Z" fill="#313131"/>
<path d="M8.71746 0H10.5591V3.82256C10.6899 3.42596 10.9135 3.12218 11.23 2.91122C11.5506 2.69604 11.9388 2.58845 12.3945 2.58845C13.0526 2.58845 13.5526 2.81418 13.8944 3.26563C14.2361 3.71708 14.407 4.37738 14.407 5.24652V9.84752H12.5653V5.53132C12.5653 5.03768 12.4936 4.67694 12.3502 4.4491C12.2067 4.22127 11.9873 4.10735 11.692 4.10735C11.3291 4.10735 11.0485 4.25713 10.8502 4.55669C10.6562 4.85625 10.5591 5.26762 10.5591 5.7908V9.84752H8.71746V0Z" fill="#313131"/>
<path d="M20.0803 10.0311C18.861 10.0311 17.9328 9.71672 17.2957 9.08807C16.6628 8.4552 16.3464 7.54175 16.3464 6.34772C16.3464 5.5925 16.4772 4.93431 16.7388 4.37316C17.0003 3.80779 17.3906 3.369 17.9096 3.05678C18.4327 2.74456 19.0867 2.58845 19.8715 2.58845C20.517 2.58845 21.076 2.73823 21.5486 3.03779C22.0211 3.33735 22.3861 3.75505 22.6435 4.29088C22.9051 4.8225 23.0358 5.44272 23.0358 6.15153V6.90465H18.2323C18.2323 8.01007 18.8779 8.56278 20.1689 8.56278C21.017 8.56278 21.8735 8.30752 22.7384 7.79701V9.49944C21.8777 9.85385 20.9917 10.0311 20.0803 10.0311ZM21.1689 5.51233C21.1689 5.02291 21.0486 4.65373 20.8081 4.4048C20.5676 4.15165 20.2238 4.02508 19.7765 4.02508C19.3209 4.02508 18.9644 4.15376 18.707 4.41113C18.4496 4.6685 18.2977 5.03557 18.2513 5.51233H21.1689Z" fill="#313131"/>
<path d="M18.9111 56.2198C15.483 56.2198 13.0108 55.3215 11.4946 53.5251C9.99479 51.7122 9.2449 48.7621 9.2449 44.6748V23.1175H1.90258V17.5551H16.4883V44.6748C16.4883 46.8173 16.8262 48.35 17.5019 49.273C18.1941 50.1959 19.3396 50.6574 20.9382 50.6574H26.7231V56.2198H18.9111Z" fill="#313131"/>
<path d="M46.6843 56.7389C44.0638 56.7389 41.7894 56.1538 39.8612 54.9837C37.9494 53.797 36.4743 52.116 35.436 49.9405C34.3977 47.765 33.8785 45.1939 33.8785 42.2273C33.8785 39.2607 34.3977 36.6897 35.436 34.5142C36.4908 32.3222 37.9823 30.6329 39.9106 29.4462C41.8554 28.2596 44.1545 27.6663 46.8079 27.6663C49.4284 27.6663 51.6863 28.2514 53.5817 29.4215C55.477 30.5752 56.9356 32.2315 57.9574 34.3906C58.9957 36.5496 59.5149 39.1124 59.5149 42.079C59.5149 45.095 58.9875 47.699 57.9327 49.891C56.8944 52.083 55.4193 53.7723 53.5075 54.959C51.5957 56.1456 49.3213 56.7389 46.6843 56.7389ZM46.7091 50.8552C48.4066 50.8552 49.7581 50.0806 50.7634 48.5313C51.7687 46.9656 52.2714 44.8561 52.2714 42.2026C52.2714 39.5327 51.7687 37.4231 50.7634 35.8739C49.7581 34.3246 48.4066 33.55 46.7091 33.55C44.995 33.55 43.6353 34.3329 42.63 35.8986C41.6246 37.4478 41.122 39.5491 41.122 42.2026C41.122 44.8561 41.6246 46.9656 42.63 48.5313C43.6353 50.0806 44.995 50.8552 46.7091 50.8552Z" fill="#313131"/>
<path d="M78.5367 56.7389C75.4217 56.7389 71.969 56.1621 68.1783 55.0084V48.6797C71.4251 50.542 74.6801 51.4732 77.9434 51.4732C81.3385 51.4732 83.036 50.4679 83.036 48.4572C83.036 47.5672 82.6322 46.8503 81.8246 46.3064C81.0171 45.7625 79.6409 45.2846 77.6961 44.8725L75.6937 44.4275C70.3868 43.2409 67.7333 40.5133 67.7333 36.2447C67.7333 33.5088 68.7139 31.3992 70.6752 29.9159C72.6529 28.4162 75.5124 27.6663 79.2536 27.6663C80.7039 27.6663 82.1378 27.7899 83.5552 28.0371C84.989 28.2843 86.4641 28.6716 87.9803 29.199V35.5278C86.53 34.6213 85.1373 33.9621 83.8024 33.55C82.4839 33.138 81.1242 32.932 79.7233 32.932C78.0752 32.932 76.8062 33.171 75.9162 33.6489C75.0262 34.1269 74.5812 34.7696 74.5812 35.5772C74.5812 36.3189 74.9932 36.9616 75.8173 37.5055C76.6578 38.0329 78.0093 38.5108 79.8716 38.9393L82.2202 39.5079C84.8572 40.1342 86.7855 41.1396 88.0051 42.524C89.2411 43.9084 89.8592 45.7378 89.8592 48.0122C89.8592 53.83 86.085 56.7389 78.5367 56.7389Z" fill="#313131"/>
<path d="M110.562 56.7389C107.447 56.7389 103.994 56.1621 100.204 55.0084V48.6797C103.45 50.542 106.705 51.4732 109.969 51.4732C113.364 51.4732 115.061 50.4679 115.061 48.4572C115.061 47.5672 114.658 46.8503 113.85 46.3064C113.042 45.7625 111.666 45.2846 109.722 44.8725L107.719 44.4275C102.412 43.2409 99.7587 40.5133 99.7587 36.2447C99.7587 33.5088 100.739 31.3992 102.701 29.9159C104.678 28.4162 107.538 27.6663 111.279 27.6663C112.729 27.6663 114.163 27.7899 115.581 28.0371C117.014 28.2843 118.489 28.6716 120.006 29.199V35.5278C118.555 34.6213 117.163 33.9621 115.828 33.55C114.509 33.138 113.15 32.932 111.749 32.932C110.101 32.932 108.832 33.171 107.942 33.6489C107.052 34.1269 106.607 34.7696 106.607 35.5772C106.607 36.3189 107.019 36.9616 107.843 37.5055C108.683 38.0329 110.035 38.5108 111.897 38.9393L114.246 39.5079C116.883 40.1342 118.811 41.1396 120.03 42.524C121.267 43.9084 121.885 45.7378 121.885 48.0122C121.885 53.83 118.11 56.7389 110.562 56.7389Z" fill="#313131"/>
<path d="M147.013 56.2198C143.585 56.2198 141.112 55.3215 139.596 53.5251C138.096 51.7122 137.346 48.7621 137.346 44.6748V23.1175H130.004V17.5551H144.59V44.6748C144.59 46.8173 144.928 48.35 145.603 49.273C146.296 50.1959 147.441 50.6574 149.04 50.6574H154.825V56.2198H147.013Z" fill="#313131"/>
<path d="M176.17 56.7389C171.407 56.7389 167.781 55.5111 165.293 53.0554C162.821 50.5832 161.585 47.0151 161.585 42.3509C161.585 39.4008 162.095 36.8298 163.117 34.6378C164.139 32.4293 165.664 30.7153 167.691 29.4957C169.734 28.2761 172.289 27.6663 175.354 27.6663C177.876 27.6663 180.06 28.2514 181.906 29.4215C183.752 30.5917 185.177 32.2233 186.183 34.3164C187.204 36.393 187.715 38.8157 187.715 41.5846V44.5264H168.952C168.952 48.8445 171.473 51.0035 176.516 51.0035C179.829 51.0035 183.175 50.0064 186.553 48.0122V54.6623C183.191 56.0467 179.73 56.7389 176.17 56.7389ZM180.422 39.0877C180.422 37.1759 179.953 35.7338 179.013 34.7614C178.074 33.7725 176.731 33.2781 174.984 33.2781C173.204 33.2781 171.811 33.7808 170.806 34.7861C169.8 35.7915 169.207 37.2253 169.026 39.0877H180.422Z" fill="#313131"/>
<path d="M206.638 56.7389C203.523 56.7389 200.071 56.1621 196.28 55.0084V48.6797C199.527 50.542 202.782 51.4732 206.045 51.4732C209.44 51.4732 211.138 50.4679 211.138 48.4572C211.138 47.5672 210.734 46.8503 209.926 46.3064C209.119 45.7625 207.742 45.2846 205.798 44.8725L203.795 44.4275C198.488 43.2409 195.835 40.5133 195.835 36.2447C195.835 33.5088 196.816 31.3992 198.777 29.9159C200.754 28.4162 203.614 27.6663 207.355 27.6663C208.805 27.6663 210.239 27.7899 211.657 28.0371C213.091 28.2843 214.566 28.6716 216.082 29.199V35.5278C214.632 34.6213 213.239 33.9621 211.904 33.55C210.585 33.138 209.226 32.932 207.825 32.932C206.177 32.932 204.908 33.171 204.018 33.6489C203.128 34.1269 202.683 34.7696 202.683 35.5772C202.683 36.3189 203.095 36.9616 203.919 37.5055C204.759 38.0329 206.111 38.5108 207.973 38.9393L210.322 39.5079C212.959 40.1342 214.887 41.1396 216.107 42.524C217.343 43.9084 217.961 45.7378 217.961 48.0122C217.961 53.83 214.187 56.7389 206.638 56.7389Z" fill="#313131"/>
<path d="M238.664 56.7389C235.549 56.7389 232.096 56.1621 228.305 55.0084V48.6797C231.552 50.542 234.807 51.4732 238.07 51.4732C241.465 51.4732 243.163 50.4679 243.163 48.4572C243.163 47.5672 242.759 46.8503 241.952 46.3064C241.144 45.7625 239.768 45.2846 237.823 44.8725L235.821 44.4275C230.514 43.2409 227.86 40.5133 227.86 36.2447C227.86 33.5088 228.841 31.3992 230.802 29.9159C232.78 28.4162 235.639 27.6663 239.381 27.6663C240.831 27.6663 242.265 27.7899 243.682 28.0371C245.116 28.2843 246.591 28.6716 248.107 29.199V35.5278C246.657 34.6213 245.264 33.9621 243.929 33.55C242.611 33.138 241.251 32.932 239.85 32.932C238.202 32.932 236.933 33.171 236.043 33.6489C235.153 34.1269 234.708 34.7696 234.708 35.5772C234.708 36.3189 235.12 36.9616 235.944 37.5055C236.785 38.0329 238.136 38.5108 239.999 38.9393L242.347 39.5079C244.984 40.1342 246.912 41.1396 248.132 42.524C249.368 43.9084 249.986 45.7378 249.986 48.0122C249.986 53.83 246.212 56.7389 238.664 56.7389Z" fill="#313131"/>
<path d="M270.763 57.0603C270.12 57.0603 269.552 56.9449 269.057 56.7142C268.563 56.4999 268.11 56.1868 267.698 55.7748C266.841 54.9178 266.412 53.8382 266.412 52.5362C266.412 51.1848 266.841 50.0806 267.698 49.2235C268.538 48.383 269.568 47.9627 270.788 47.9627C272.024 47.9627 273.062 48.383 273.903 49.2235C274.743 50.0641 275.164 51.1683 275.164 52.5362C275.164 53.8547 274.743 54.9342 273.903 55.7748C273.046 56.6318 271.999 57.0603 270.763 57.0603Z" fill="#313131"/>
<path d="M241.953 76.4575C240.738 76.4575 239.799 76.0335 239.136 75.1854C238.82 74.7804 238.573 74.2783 238.396 73.6792C238.223 73.0801 238.136 72.3691 238.136 71.5464C238.136 69.9558 238.474 68.7449 239.149 67.9137C239.824 67.0741 240.784 66.6543 242.029 66.6543C242.429 66.6543 242.813 66.707 243.18 66.8125C243.552 66.9222 243.896 67.0783 244.212 67.2808V69.3503C243.95 69.0128 243.651 68.7575 243.313 68.5845C242.98 68.4158 242.609 68.3314 242.2 68.3314C241.486 68.3314 240.955 68.5972 240.605 69.1288C240.255 69.6689 240.079 70.4747 240.079 71.5464C240.079 72.597 240.248 73.4028 240.586 73.964C240.746 74.2256 240.946 74.4281 241.187 74.5715C241.432 74.7108 241.725 74.7804 242.067 74.7804C242.151 74.7804 242.238 74.7762 242.326 74.7677C242.415 74.7593 242.495 74.7445 242.567 74.7234C242.659 74.7023 242.729 74.6791 242.775 74.6538C242.822 74.6285 242.868 74.599 242.915 74.5652V72.7615H241.636V71.192H244.548V75.5208C244.189 75.8288 243.794 76.0609 243.364 76.217C243.145 76.2972 242.921 76.3562 242.693 76.3942C242.465 76.4364 242.219 76.4575 241.953 76.4575Z" fill="#313131"/>
<path d="M247.12 69.1858H248.791L248.974 70.287C249.156 69.8862 249.432 69.5739 249.803 69.3503C250.179 69.1267 250.617 69.0149 251.12 69.0149C251.638 69.0149 252.119 69.1351 252.562 69.3756V71.1413C252.153 70.7701 251.617 70.5844 250.955 70.5844C250.419 70.5844 249.985 70.7068 249.651 70.9515C249.318 71.1962 249.111 71.5485 249.031 72.0084C249.01 72.1181 248.995 72.251 248.987 72.4071C248.978 72.5632 248.974 72.7636 248.974 73.0083V76.274H247.12V69.1858Z" fill="#313131"/>
<path d="M257.692 76.4575C257.021 76.4575 256.438 76.3077 255.945 76.0082C255.455 75.7044 255.078 75.274 254.812 74.7171C254.546 74.1602 254.413 73.502 254.413 72.7425C254.413 71.9831 254.546 71.3249 254.812 70.768C255.082 70.2068 255.464 69.7743 255.957 69.4706C256.455 69.1668 257.044 69.0149 257.723 69.0149C258.394 69.0149 258.972 69.1647 259.457 69.4642C259.942 69.7596 260.316 70.1836 260.577 70.7363C260.843 71.289 260.976 71.9451 260.976 72.7046C260.976 73.4767 260.841 74.1433 260.571 74.7044C260.305 75.2656 259.928 75.698 259.438 76.0018C258.949 76.3056 258.367 76.4575 257.692 76.4575ZM257.698 74.9513C258.132 74.9513 258.478 74.753 258.736 74.3564C258.993 73.9555 259.122 73.4155 259.122 72.7362C259.122 72.0527 258.993 71.5126 258.736 71.116C258.478 70.7194 258.132 70.5211 257.698 70.5211C257.259 70.5211 256.911 70.7215 256.654 71.1224C256.396 71.519 256.268 72.0569 256.268 72.7362C256.268 73.4155 256.396 73.9555 256.654 74.3564C256.911 74.753 257.259 74.9513 257.698 74.9513Z" fill="#313131"/>
<path d="M265.029 76.4575C264.371 76.4575 263.869 76.2318 263.523 75.7803C263.177 75.3246 263.004 74.6644 263.004 73.7994V69.1858H264.858V73.5146C264.858 74.4639 265.15 74.9386 265.732 74.9386C266.086 74.9386 266.36 74.7909 266.555 74.4956C266.753 74.2002 266.852 73.7868 266.852 73.2551V69.1858H268.706V76.274H267.036L266.852 75.2234C266.569 76.0461 265.962 76.4575 265.029 76.4575Z" fill="#313131"/>
<path d="M271.139 69.1858H272.804L272.987 70.249C273.38 69.4263 274.008 69.0149 274.873 69.0149C275.671 69.0149 276.295 69.3461 276.747 70.0085C277.198 70.6667 277.424 71.578 277.424 72.7425C277.424 73.907 277.198 74.8184 276.747 75.4765C276.295 76.1305 275.675 76.4575 274.886 76.4575C274.055 76.4575 273.422 76.063 272.987 75.274V78.97H271.139V69.1858ZM274.285 74.9133C274.673 74.9133 274.983 74.7129 275.215 74.312C275.451 73.907 275.569 73.3649 275.569 72.6856C275.569 72.0232 275.456 71.5 275.228 71.116C275.004 70.7279 274.696 70.5338 274.304 70.5338C273.903 70.5338 273.582 70.7342 273.342 71.135C273.105 71.5316 272.987 72.0611 272.987 72.7235C272.987 73.3859 273.105 73.9176 273.342 74.3184C273.578 74.715 273.892 74.9133 274.285 74.9133Z" fill="#313131"/>
<path d="M282.262 76.5398C282.097 76.5398 281.952 76.5102 281.825 76.4512C281.698 76.3963 281.582 76.3162 281.477 76.2107C281.258 75.9913 281.148 75.7149 281.148 75.3816C281.148 75.0356 281.258 74.753 281.477 74.5336C281.692 74.3184 281.956 74.2108 282.268 74.2108C282.584 74.2108 282.85 74.3184 283.065 74.5336C283.281 74.7487 283.388 75.0314 283.388 75.3816C283.388 75.7191 283.281 75.9955 283.065 76.2107C282.846 76.4301 282.578 76.5398 282.262 76.5398Z" fill="#313131"/>
</mask>
<g mask="url(#mask0_265_8456)">
<rect width="283.388" height="78.97" fill="url(#paint0_linear_265_8456)"/>
</g>
<defs>
<linearGradient id="paint0_linear_265_8456" x1="12.9505" y1="6.30333" x2="127.046" y2="129.363" gradientUnits="userSpaceOnUse">
<stop stop-color="#22A6B5"/>
<stop offset="0.26559" stop-color="#9138E0"/>
<stop offset="0.630233" stop-color="#D9233B"/>
<stop offset="1" stop-color="#F59C49"/>
</linearGradient>
</defs>
</svg>
