<?xml version="1.0" encoding="UTF-8" standalone="no"?>
<!DOCTYPE svg PUBLIC "-//W3C//DTD SVG 1.1//EN" "http://www.w3.org/Graphics/SVG/1.1/DTD/svg11.dtd">
<svg width="100%" height="100%" viewBox="0 0 472 186" version="1.1" xmlns="http://www.w3.org/2000/svg" xmlns:xlink="http://www.w3.org/1999/xlink" xml:space="preserve" xmlns:serif="http://www.serif.com/" style="fill-rule:evenodd;clip-rule:evenodd;stroke-linejoin:round;stroke-miterlimit:2;">
    <g transform="matrix(1,0,0,1,-250,-407.241)">
        <g>
            <g>
                <g>
                    <g>
                        <g>
                            <path d="M415.503,450.27C440.243,450.27 460.342,470.112 460.804,494.746C461.243,509.099 473.023,520.576 487.459,520.576C501.91,520.576 513.69,509.099 514.137,494.746L532.766,494.746C532.336,519.365 512.191,539.215 487.459,539.215C462.727,539.215 442.604,519.365 442.15,494.746C441.719,480.408 429.931,468.9 415.502,468.9C401.043,468.9 389.278,480.407 388.839,494.746L370.186,494.746C370.642,470.112 390.756,450.27 415.503,450.27Z" style="fill:rgb(133,137,138);"/>
                            <g>
                                <path d="M608.92,450.187L608.92,494.746C608.911,494.897 608.911,495.041 608.896,495.185C608.23,509.311 596.54,520.576 582.255,520.576C567.985,520.576 556.326,509.372 555.609,495.276C555.592,495.109 555.585,450.21 555.585,450.028L536.946,450.028L536.946,495.185C537.642,519.616 557.651,539.216 582.254,539.216C606.806,539.216 626.813,519.662 627.549,495.291C627.549,495.109 627.563,494.92 627.563,494.746L627.563,450.187L608.92,450.187Z" style="fill:rgb(242,0,23);"/>
                                <path d="M345.084,407.241L345.084,538.996L363.753,538.996C363.753,538.996 363.738,407.309 363.738,407.241L345.084,407.241Z" style="fill:rgb(242,0,23);"/>
                                <path d="M721.574,539.185L721.574,522.415L721.574,522.793C721.565,510.054 721.565,494.572 721.565,494.541C720.999,470.005 700.936,450.269 676.257,450.269C671.761,450.269 667.416,450.92 663.312,452.139C645.03,457.219 631.54,473.722 630.995,493.466C630.971,493.891 630.971,494.314 630.959,494.746L630.972,494.746C630.996,519.114 650.762,538.889 675.139,538.889C685.661,538.889 695.335,535.194 702.937,529.04L702.937,539.184L721.574,539.184L721.574,539.185ZM675.774,521.416C661.034,521.416 649.073,509.477 649.051,494.746C649.506,480.408 661.814,468.9 676.258,468.9C686.493,468.9 695.366,474.662 699.848,483.118C701.537,486.622 702.497,490.552 702.497,494.708C702.496,509.462 690.536,521.416 675.774,521.416Z" style="fill:rgb(242,0,23);"/>
                                <path d="M415.503,539.215C440.243,539.215 460.342,519.38 460.804,494.746C461.243,480.408 473.023,468.9 487.459,468.9C501.82,468.9 513.523,480.256 514.121,494.45C514.121,494.541 514.136,592.759 514.136,592.759L532.765,592.759L532.765,494.541C532.214,470.005 512.144,450.269 487.458,450.269C462.726,450.269 442.603,470.111 442.149,494.745C441.718,509.098 429.93,520.575 415.501,520.575C401.042,520.575 389.277,509.098 388.838,494.745L370.185,494.745C370.642,519.381 390.756,539.215 415.503,539.215Z" style="fill:rgb(242,0,23);"/>
                                <g>
                                    <path d="M337.248,500.772L270.182,500.772C271.159,506.7 273.74,511.393 277.949,514.891C282.151,518.388 287.534,520.13 294.044,520.13C301.856,520.13 308.541,517.404 314.166,511.946L331.745,520.213C327.361,526.428 322.1,531.039 315.991,534C309.874,536.989 302.614,538.481 294.204,538.481C281.144,538.481 270.516,534.379 262.31,526.126C254.088,517.897 250,507.586 250,495.2C250,482.512 254.088,471.974 262.272,463.586C270.455,455.183 280.72,451.004 293.045,451.004C306.149,451.004 316.801,455.183 325.007,463.586C333.229,471.974 337.317,483.042 337.317,496.805L337.248,500.772ZM316.377,484.344C314.999,479.711 312.282,475.918 308.216,473.027C304.15,470.127 299.45,468.666 294.09,468.666C288.26,468.666 283.165,470.301 278.768,473.557C276.019,475.593 273.453,479.197 271.114,484.345L316.377,484.345L316.377,484.344Z" style="fill:rgb(242,0,23);fill-rule:nonzero;"/>
                                </g>
                            </g>
                        </g>
                    </g>
                </g>
            </g>
        </g>
    </g>
</svg>
