<?xml version="1.0" encoding="utf-8"?>
<!-- Generator: Adobe Illustrator 25.0.1, SVG Export Plug-In . SVG Version: 6.00 Build 0)  -->
<svg version="1.0" xmlns="http://www.w3.org/2000/svg" xmlns:xlink="http://www.w3.org/1999/xlink" x="0px" y="0px"
	 viewBox="0 0 240 240" style="enable-background:new 0 0 240 240;" xml:space="preserve">
<style type="text/css">
	.st1{fill:#5865F2;}
	.st2{fill:#FFFFFF;}
</style>
<g>
	<circle class="st1" cx="120" cy="120" r="85.8"/>
	<path class="st2" d="M158.6,85.1c-7.3-3.3-14.9-5.7-22.8-7c-1,1.8-2.1,4.1-2.9,6c-8.4-1.3-16.9-1.3-25.3,0c-0.9-2.1-1.9-4.1-3-6
		c-7.9,1.3-15.6,3.7-22.8,7.1c-14.4,21.5-18.3,42.4-16.4,63.1c8.5,6.3,17.9,11.1,28,14.1c2.3-3.1,4.3-6.3,6-9.7
		c-3.3-1.2-6.4-2.7-9.4-4.5c0.8-0.6,1.5-1.2,2.3-1.8c17.7,8.4,38.3,8.4,56,0c0.8,0.6,1.5,1.2,2.3,1.8c-3,1.8-6.2,3.3-9.5,4.5
		c1.7,3.4,3.7,6.6,6,9.7c10.1-3.1,19.6-7.8,28-14.1C177.3,124.3,171.1,103.5,158.6,85.1z M101.8,135.5c-5.5,0-9.9-5-9.9-11.1
		s4.4-11.2,9.9-11.2c5.6,0,10,5,10,11.2C111.7,130.5,107.4,135.5,101.8,135.5z M138.6,135.5c-5.5,0-9.9-5-9.9-11.1
		s4.4-11.2,9.9-11.2c5.6,0,10,5,9.9,11.2S144.1,135.5,138.6,135.5z"/>
</g>
</svg>
