<svg 
  width="860" 
  height="185"
  viewBox="0 0 860 185" 
  fill="none" 
  xmlns="http://www.w3.org/2000/svg">
<g clip-path="url(#clip0_173_7743)">
<path d="M64 128C50.62 128 37.0492 126.758 23.6718 124.312C13.4073 122.435 5.56392 114.591 3.68749 104.325C1.24187 90.9379 0 77.3682 0 63.9918C0 56.2537 0.413958 48.4147 1.23098 40.6956C1.38894 39.2002 2.6989 38.1135 4.22673 38.2714C5.72188 38.4294 6.80579 39.7722 6.64783 41.2676C5.84988 48.796 5.44681 56.4443 5.44681 63.9918C5.44681 77.0413 6.65601 90.2815 9.04443 103.347C10.5096 111.363 16.6373 117.489 24.6495 118.954C50.7616 123.732 77.2358 123.732 103.345 118.954C111.357 117.489 117.485 111.363 118.95 103.347C121.344 90.2978 122.553 77.0549 122.553 63.9918C122.553 50.9423 121.344 37.7022 118.956 24.6363C117.49 16.6203 111.363 10.4946 103.351 9.02924C77.2385 4.25178 50.7643 4.25178 24.655 9.02924C16.6427 10.4946 10.5151 16.6203 9.04988 24.6363C8.68767 26.622 8.34996 28.6076 8.04222 30.5959C7.81073 32.0803 6.44358 33.0936 4.92937 32.8675C3.44239 32.636 2.42655 31.2414 2.65804 29.7543C2.97668 27.7196 3.31983 25.6877 3.69294 23.6558C5.56664 13.39 13.4128 5.54556 23.6773 3.66889C50.432 -1.22296 77.5762 -1.22296 104.331 3.66889C114.595 5.54556 122.439 13.39 124.315 23.6558C126.758 37.0457 128 50.6155 128 63.9918C128 77.3845 126.758 90.9515 124.313 104.325C122.439 114.591 114.593 122.435 104.328 124.312C90.9509 126.758 77.3801 128 64 128Z" fill="url(#paint0_linear_173_7743)"/>
<path d="M64 117.105C51.2736 117.105 38.3646 115.923 25.6327 113.594C19.8645 112.54 15.458 108.133 14.4041 102.364C9.74706 76.8999 9.74706 51.0788 14.4041 25.6171C15.458 19.8482 19.8645 15.4412 25.63 14.3871C38.3646 12.061 51.2736 10.8789 64 10.8789C76.7265 10.8789 89.6355 12.061 102.367 14.3898C108.136 15.4439 112.542 19.8509 113.596 25.6199C118.253 51.0842 118.253 76.9054 113.596 102.367C112.542 108.136 108.136 112.543 102.37 113.597C89.6355 115.923 76.7265 117.105 64 117.105Z" fill="#2C2932"/>
<path fill-rule="evenodd" clip-rule="evenodd" d="M74.2413 99.3824C74.6998 99.9936 75.7695 100.146 76.3808 99.688C76.9921 99.2296 77.1449 98.16 76.6864 97.5488C73.63 93.7288 69.6567 90.52 64.9193 87.9224C64.1552 87.464 63.2383 87.7696 62.7798 88.5336C62.627 88.8392 62.627 88.992 62.627 89.2976C62.627 89.9088 62.9326 90.3672 63.3911 90.6728C67.8229 92.812 71.3377 95.7152 74.2413 99.3824Z" fill="#E4F1F2"/>
<path fill-rule="evenodd" clip-rule="evenodd" d="M86.1254 114.114C86.3725 114.837 87.3427 115.313 88.0657 115.065C88.7887 114.818 89.2646 113.848 89.0174 113.125C87.2911 108.548 84.5038 104.268 80.801 100.334C80.2159 99.6618 79.2494 99.6691 78.5773 100.254C78.3376 100.497 78.2903 100.643 78.1959 100.933C78.007 101.515 78.1561 102.045 78.4976 102.477C82.0515 105.881 84.4972 109.729 86.1254 114.114Z" fill="#E4F1F2"/>
<path fill-rule="evenodd" clip-rule="evenodd" d="M59.8763 87.1581C60.1819 86.3941 59.7235 85.4773 58.9594 85.1717C50.2487 81.9629 30.8191 81.9629 30.5135 81.9629C29.5966 81.9629 28.9853 82.5741 28.9853 83.4909C28.9853 84.4077 29.5966 85.0189 30.5135 85.0189C30.5135 85.0189 49.7902 85.0189 57.8897 88.0749C58.8066 88.3805 59.5707 87.9221 59.8763 87.1581Z" fill="#E4F1F2"/>
<path fill-rule="evenodd" clip-rule="evenodd" d="M53.2087 79.66C53.0559 78.896 52.1389 78.2848 51.3748 78.4376C46.179 79.5072 30.4171 79.66 30.4171 79.66C29.5002 79.66 28.8889 80.2712 28.8889 81.188C28.8889 82.1048 29.5002 82.716 30.4171 82.716C30.5699 82.716 46.6374 82.716 52.1389 81.4936C52.903 81.3408 53.5143 80.5768 53.2087 79.66Z" fill="#E4F1F2"/>
<path fill-rule="evenodd" clip-rule="evenodd" d="M64.0488 75.2272C63.3258 75.4743 62.85 76.4445 63.097 77.1675C63.3441 77.8905 64.3141 78.3664 65.0371 78.1193C69.6146 76.3929 73.8942 73.6056 77.8286 69.9028C78.5007 69.3177 78.4934 68.3513 77.9084 67.6792C77.665 67.4394 77.5197 67.3922 77.2291 67.2977C76.6478 67.1088 76.1174 67.2579 75.685 67.5995C72.281 71.1533 68.4338 73.599 64.0488 75.2272Z" fill="#E4F1F2"/>
<path fill-rule="evenodd" clip-rule="evenodd" d="M79.4525 63.3279C78.8036 63.7314 78.5582 64.7837 78.9616 65.4326C79.3649 66.0815 80.4172 66.327 81.066 65.9236C85.1378 63.2117 88.6807 59.5332 91.6814 55.0402C92.2046 54.319 91.9801 53.3789 91.2589 52.8556C90.9678 52.6767 90.8156 52.6634 90.5112 52.6368C89.9023 52.5835 89.419 52.848 89.0746 53.2781C86.5573 57.5066 83.3588 60.755 79.4525 63.3279Z" fill="#E4F1F2"/>
<path fill-rule="evenodd" clip-rule="evenodd" d="M92.76 47.5485C92.228 48.097 92.2444 49.1774 92.7928 49.7095C93.3412 50.2415 94.4215 50.2251 94.9535 49.6767C98.2483 46.0604 100.796 41.634 102.621 36.5485C102.954 35.7221 102.509 34.8643 101.682 34.531C101.356 34.4279 101.206 34.4518 100.904 34.4996C100.3 34.5952 99.8951 34.9688 99.665 35.4694C98.2454 40.1813 95.9278 44.107 92.76 47.5485Z" fill="#E4F1F2"/>
<path fill-rule="evenodd" clip-rule="evenodd" d="M101.681 30.1641C101.199 30.7568 101.31 31.8317 101.903 32.314C102.495 32.7962 103.57 32.6857 104.052 32.093C107.019 28.2032 109.172 23.5717 110.546 18.3466C110.806 17.4943 110.287 16.6785 109.435 16.4185C109.102 16.3442 108.953 16.3811 108.657 16.4551C108.064 16.6029 107.693 17.0104 107.507 17.5291C106.504 22.3468 104.537 26.4596 101.681 30.1641Z" fill="#E4F1F2"/>
<rect width="9.33334" height="2.66667" transform="translate(11.5555 81.7793)" fill="#E4F1F2"/>
<rect width="88.889" height="2.66667" transform="translate(29.3333 81.7793)" fill="#E4F1F2"/>
</g>
<mask id="mask0_173_7743" style="mask-type:alpha" maskUnits="userSpaceOnUse" x="148" y="0" width="664" height="185">
<path d="M153.618 4.7584H148V0.933892H163.609V4.7584H157.991V23.0657H153.618V4.7584Z" fill="#313131"/>
<path d="M168.419 0H172.733V8.95351C173.039 8.02456 173.563 7.31302 174.304 6.8189C175.055 6.31489 175.964 6.06289 177.031 6.06289C178.573 6.06289 179.744 6.5916 180.545 7.64902C181.345 8.70645 181.745 10.2531 181.745 12.2888V23.0657H177.432V12.9559C177.432 11.7997 177.264 10.9547 176.928 10.4211C176.592 9.8874 176.078 9.62057 175.386 9.62057C174.536 9.62057 173.879 9.9714 173.414 10.6731C172.96 11.3747 172.733 12.3383 172.733 13.5637V23.0657H168.419V0Z" fill="#313131"/>
<path d="M195.034 23.4955C192.178 23.4955 190.004 22.7593 188.511 21.2868C187.029 19.8044 186.288 17.6649 186.288 14.8682C186.288 13.0992 186.594 11.5575 187.207 10.2432C187.82 8.91892 188.734 7.89114 189.949 7.15984C191.175 6.42854 192.707 6.06289 194.545 6.06289C196.057 6.06289 197.366 6.41372 198.473 7.11537C199.58 7.81703 200.435 8.79539 201.038 10.0505C201.65 11.2957 201.957 12.7484 201.957 14.4086V16.1726H190.705C190.705 18.7619 192.217 20.0565 195.241 20.0565C197.228 20.0565 199.234 19.4586 201.26 18.2628V22.2504C199.244 23.0805 197.169 23.4955 195.034 23.4955ZM197.584 12.9114C197.584 11.7651 197.302 10.9004 196.739 10.3173C196.175 9.72434 195.37 9.42787 194.322 9.42787C193.255 9.42787 192.42 9.72928 191.817 10.3321C191.214 10.9349 190.859 11.7947 190.75 12.9114H197.584Z" fill="#313131"/>
<path d="M192.295 131.683C184.266 131.683 178.475 129.579 174.924 125.371C171.411 121.125 169.654 114.215 169.654 104.641V54.1477H152.456V41.1191H186.62V104.641C186.62 109.659 187.412 113.249 188.995 115.411C190.616 117.573 193.299 118.654 197.043 118.654H210.593V131.683H192.295Z" fill="#313131"/>
<path d="M257.348 132.899C251.21 132.899 245.883 131.528 241.366 128.787C236.888 126.008 233.433 122.07 231.001 116.975C228.569 111.879 227.353 105.857 227.353 98.9083C227.353 91.9597 228.569 85.9376 231.001 80.8419C233.472 75.7077 236.965 71.7508 241.482 68.9714C246.037 66.1919 251.422 64.8022 257.638 64.8022C263.775 64.8022 269.064 66.1726 273.504 68.9135C277.943 71.6157 281.359 75.4954 283.753 80.5524C286.185 85.6094 287.401 91.6123 287.401 98.5609C287.401 105.625 286.165 111.725 283.695 116.859C281.263 121.993 277.808 125.95 273.33 128.729C268.852 131.509 263.525 132.899 257.348 132.899ZM257.406 119.117C261.382 119.117 264.548 117.303 266.902 113.674C269.257 110.007 270.435 105.066 270.435 98.8504C270.435 92.5966 269.257 87.6554 266.902 84.0267C264.548 80.398 261.382 78.5836 257.406 78.5836C253.391 78.5836 250.206 80.4173 247.852 84.0846C245.497 87.7133 244.319 92.6352 244.319 98.8504C244.319 105.066 245.497 110.007 247.852 113.674C250.206 117.303 253.391 119.117 257.406 119.117Z" fill="#313131"/>
<path d="M331.955 132.899C324.659 132.899 316.572 131.547 307.693 128.845V114.022C315.298 118.384 322.922 120.565 330.565 120.565C338.518 120.565 342.494 118.21 342.494 113.5C342.494 111.416 341.548 109.737 339.657 108.463C337.765 107.189 334.542 106.069 329.986 105.104L325.296 104.062C312.866 101.282 306.651 94.8935 306.651 84.8953C306.651 78.4871 308.948 73.5459 313.541 70.0716C318.174 66.5587 324.871 64.8022 333.634 64.8022C337.032 64.8022 340.39 65.0918 343.71 65.6708C347.068 66.2498 350.523 67.157 354.075 68.3923V83.216C350.678 81.0928 347.416 79.5487 344.289 78.5836C341.201 77.6185 338.016 77.136 334.735 77.136C330.874 77.136 327.902 77.6957 325.817 78.8152C323.733 79.9347 322.69 81.4403 322.69 83.3318C322.69 85.069 323.655 86.5745 325.586 87.8484C327.554 89.0837 330.72 90.2032 335.082 91.2069L340.583 92.5387C346.76 94.0057 351.276 96.3605 354.133 99.6031C357.028 102.846 358.476 107.131 358.476 112.458C358.476 126.085 349.636 132.899 331.955 132.899Z" fill="#313131"/>
<path d="M406.968 132.899C399.672 132.899 391.584 131.547 382.705 128.845V114.022C390.31 118.384 397.934 120.565 405.578 120.565C413.53 120.565 417.506 118.21 417.506 113.5C417.506 111.416 416.561 109.737 414.669 108.463C412.777 107.189 409.554 106.069 404.999 105.104L400.309 104.062C387.878 101.282 381.663 94.8935 381.663 84.8953C381.663 78.4871 383.96 73.5459 388.554 70.0716C393.186 66.5587 399.884 64.8022 408.647 64.8022C412.044 64.8022 415.402 65.0918 418.722 65.6708C422.081 66.2498 425.536 67.157 429.087 68.3923V83.216C425.69 81.0928 422.428 79.5487 419.301 78.5836C416.213 77.6185 413.028 77.136 409.747 77.136C405.887 77.136 402.914 77.6957 400.83 78.8152C398.745 79.9347 397.703 81.4403 397.703 83.3318C397.703 85.069 398.668 86.5745 400.598 87.8484C402.567 89.0837 405.732 90.2032 410.095 91.2069L415.596 92.5387C421.772 94.0057 426.289 96.3605 429.145 99.6031C432.041 102.846 433.488 107.131 433.488 112.458C433.488 126.085 424.648 132.899 406.968 132.899Z" fill="#313131"/>
<path d="M492.345 131.683C484.316 131.683 478.525 129.579 474.974 125.371C471.461 121.125 469.704 114.215 469.704 104.641V54.1477H452.507V41.1191H486.67V104.641C486.67 109.659 487.462 113.249 489.045 115.411C490.666 117.573 493.349 118.654 497.093 118.654H510.643V131.683H492.345Z" fill="#313131"/>
<path d="M560.641 132.899C549.484 132.899 540.992 130.023 535.162 124.271C529.372 118.48 526.477 110.123 526.477 99.1978C526.477 92.2878 527.673 86.2657 530.067 81.1314C532.46 75.9586 536.031 71.9438 540.779 69.0872C545.566 66.2305 551.55 64.8022 558.73 64.8022C564.636 64.8022 569.751 66.1726 574.075 68.9135C578.398 71.6543 581.737 75.4761 584.092 80.3787C586.486 85.2427 587.682 90.9174 587.682 97.4028V104.293H543.732C543.732 114.408 549.639 119.465 561.451 119.465C569.211 119.465 577.047 117.129 584.961 112.458V128.035C577.086 131.277 568.979 132.899 560.641 132.899ZM570.6 91.5544C570.6 87.0764 569.5 83.6986 567.3 81.421C565.099 79.1048 561.953 77.9467 557.861 77.9467C553.692 77.9467 550.43 79.1241 548.075 81.4789C545.72 83.8337 544.331 87.1922 543.906 91.5544H570.6Z" fill="#313131"/>
<path d="M632.005 132.899C624.709 132.899 616.622 131.547 607.743 128.845V114.022C615.348 118.384 622.972 120.565 630.615 120.565C638.568 120.565 642.544 118.21 642.544 113.5C642.544 111.416 641.598 109.737 639.707 108.463C637.815 107.189 634.592 106.069 630.036 105.104L625.346 104.062C612.916 101.282 606.701 94.8935 606.701 84.8953C606.701 78.4871 608.998 73.5459 613.591 70.0716C618.224 66.5587 624.921 64.8022 633.684 64.8022C637.082 64.8022 640.44 65.0918 643.76 65.6708C647.118 66.2498 650.573 67.157 654.125 68.3923V83.216C650.728 81.0928 647.466 79.5487 644.339 78.5836C641.251 77.6185 638.066 77.136 634.785 77.136C630.924 77.136 627.952 77.6957 625.867 78.8152C623.783 79.9347 622.74 81.4403 622.74 83.3318C622.74 85.069 623.705 86.5745 625.636 87.8484C627.604 89.0837 630.77 90.2032 635.132 91.2069L640.633 92.5387C646.81 94.0057 651.326 96.3605 654.183 99.6031C657.078 102.846 658.526 107.131 658.526 112.458C658.526 126.085 649.686 132.899 632.005 132.899Z" fill="#313131"/>
<path d="M707.018 132.899C699.722 132.899 691.634 131.547 682.755 128.845V114.022C690.36 118.384 697.984 120.565 705.628 120.565C713.58 120.565 717.556 118.21 717.556 113.5C717.556 111.416 716.611 109.737 714.719 108.463C712.828 107.189 709.604 106.069 705.049 105.104L700.359 104.062C687.928 101.282 681.713 94.8935 681.713 84.8953C681.713 78.4871 684.01 73.5459 688.604 70.0716C693.236 66.5587 699.934 64.8022 708.697 64.8022C712.094 64.8022 715.453 65.0918 718.772 65.6708C722.131 66.2498 725.586 67.157 729.137 68.3923V83.216C725.74 81.0928 722.478 79.5487 719.351 78.5836C716.263 77.6185 713.078 77.136 709.797 77.136C705.937 77.136 702.964 77.6957 700.88 78.8152C698.795 79.9347 697.753 81.4403 697.753 83.3318C697.753 85.069 698.718 86.5745 700.648 87.8484C702.617 89.0837 705.782 90.2032 710.145 91.2069L715.646 92.5387C721.822 94.0057 726.339 96.3605 729.195 99.6031C732.091 102.846 733.538 107.131 733.538 112.458C733.538 126.085 724.698 132.899 707.018 132.899Z" fill="#313131"/>
<path d="M782.204 133.651C780.698 133.651 779.367 133.381 778.208 132.841C777.05 132.339 775.989 131.605 775.024 130.64C773.016 128.633 772.013 126.104 772.013 123.055C772.013 119.889 773.016 117.303 775.024 115.295C776.992 113.327 779.405 112.342 782.262 112.342C785.157 112.342 787.589 113.327 789.558 115.295C791.527 117.264 792.511 119.851 792.511 123.055C792.511 126.143 791.527 128.671 789.558 130.64C787.55 132.648 785.099 133.651 782.204 133.651Z" fill="#313131"/>
<path d="M714.722 179.085C711.875 179.085 709.677 178.092 708.125 176.105C707.384 175.157 706.806 173.981 706.391 172.577C705.986 171.174 705.783 169.509 705.783 167.582C705.783 163.856 706.574 161.02 708.155 159.073C709.736 157.106 711.984 156.123 714.9 156.123C715.838 156.123 716.738 156.247 717.597 156.494C718.467 156.751 719.273 157.116 720.014 157.591V162.438C719.401 161.647 718.699 161.05 717.909 160.644C717.128 160.249 716.258 160.051 715.3 160.051C713.63 160.051 712.384 160.674 711.564 161.919C710.744 163.184 710.334 165.072 710.334 167.582C710.334 170.043 710.729 171.93 711.52 173.244C711.895 173.857 712.365 174.332 712.928 174.668C713.501 174.994 714.188 175.157 714.988 175.157C715.186 175.157 715.389 175.147 715.596 175.127C715.804 175.107 715.992 175.073 716.16 175.023C716.377 174.974 716.54 174.92 716.649 174.86C716.757 174.801 716.866 174.732 716.975 174.653V170.428H713.98V166.752H720.799V176.891C719.959 177.613 719.035 178.156 718.027 178.522C717.513 178.709 716.99 178.848 716.456 178.937C715.922 179.036 715.344 179.085 714.722 179.085Z" fill="#313131"/>
<path d="M726.824 162.053H730.738L731.168 164.632C731.593 163.693 732.24 162.962 733.11 162.438C733.989 161.914 735.017 161.652 736.193 161.652C737.408 161.652 738.535 161.934 739.573 162.497V166.633C738.614 165.763 737.359 165.329 735.807 165.329C734.552 165.329 733.535 165.615 732.754 166.188C731.973 166.762 731.489 167.587 731.301 168.664C731.252 168.921 731.217 169.232 731.197 169.598C731.178 169.963 731.168 170.433 731.168 171.006V178.655H726.824V162.053Z" fill="#313131"/>
<path d="M751.586 179.085C750.015 179.085 748.651 178.734 747.495 178.033C746.349 177.321 745.464 176.313 744.842 175.008C744.219 173.704 743.908 172.162 743.908 170.383C743.908 168.605 744.219 167.063 744.842 165.758C745.474 164.444 746.368 163.431 747.525 162.72C748.691 162.008 750.069 161.652 751.661 161.652C753.232 161.652 754.586 162.003 755.722 162.705C756.859 163.397 757.733 164.39 758.346 165.684C758.969 166.979 759.28 168.516 759.28 170.295C759.28 172.103 758.964 173.664 758.331 174.979C757.709 176.293 756.824 177.306 755.678 178.018C754.531 178.729 753.168 179.085 751.586 179.085ZM751.601 175.557C752.619 175.557 753.429 175.092 754.032 174.164C754.635 173.225 754.937 171.96 754.937 170.369C754.937 168.768 754.635 167.503 754.032 166.574C753.429 165.645 752.619 165.18 751.601 165.18C750.573 165.18 749.758 165.65 749.155 166.589C748.552 167.518 748.251 168.778 748.251 170.369C748.251 171.96 748.552 173.225 749.155 174.164C749.758 175.092 750.573 175.557 751.601 175.557Z" fill="#313131"/>
<path d="M768.774 179.085C767.232 179.085 766.056 178.556 765.246 177.499C764.435 176.432 764.03 174.885 764.03 172.859V162.053H768.373V172.192C768.373 174.416 769.055 175.527 770.419 175.527C771.249 175.527 771.891 175.181 772.346 174.49C772.811 173.798 773.043 172.829 773.043 171.584V162.053H777.386V178.655H773.473L773.043 176.194C772.381 178.121 770.958 179.085 768.774 179.085Z" fill="#313131"/>
<path d="M783.085 162.053H786.984L787.414 164.543C788.333 162.616 789.805 161.652 791.831 161.652C793.699 161.652 795.161 162.428 796.219 163.98C797.276 165.521 797.805 167.656 797.805 170.383C797.805 173.111 797.276 175.246 796.219 176.787C795.161 178.319 793.709 179.085 791.861 179.085C789.914 179.085 788.431 178.161 787.414 176.313V184.97H783.085V162.053ZM790.452 175.468C791.362 175.468 792.088 174.999 792.631 174.06C793.185 173.111 793.462 171.841 793.462 170.25C793.462 168.699 793.195 167.473 792.661 166.574C792.137 165.665 791.416 165.21 790.497 165.21C789.558 165.21 788.807 165.679 788.244 166.618C787.69 167.547 787.414 168.787 787.414 170.339C787.414 171.891 787.69 173.136 788.244 174.075C788.797 175.004 789.533 175.468 790.452 175.468Z" fill="#313131"/>
<path d="M809.137 179.278C808.751 179.278 808.41 179.209 808.114 179.07C807.817 178.942 807.546 178.754 807.299 178.507C806.785 177.993 806.528 177.346 806.528 176.565C806.528 175.755 806.785 175.092 807.299 174.579C807.803 174.075 808.42 173.823 809.152 173.823C809.893 173.823 810.515 174.075 811.019 174.579C811.523 175.083 811.775 175.745 811.775 176.565C811.775 177.356 811.523 178.003 811.019 178.507C810.505 179.021 809.878 179.278 809.137 179.278Z" fill="#313131"/>
</mask>
<g mask="url(#mask0_173_7743)">
<rect width="663.775" height="184.97" transform="translate(148)" fill="url(#paint1_linear_173_7743)"/>
</g>
<defs>
<linearGradient id="paint0_linear_173_7743" x1="0" y1="0" x2="15.4338" y2="140.166" gradientUnits="userSpaceOnUse">
<stop offset="0.0258436" stop-color="#684B9E"/>
<stop offset="0.282699" stop-color="#734093"/>
<stop offset="0.557699" stop-color="#9058BA"/>
<stop offset="1" stop-color="#61119E"/>
</linearGradient>
<linearGradient id="paint1_linear_173_7743" x1="30.3338" y1="14.7642" x2="297.578" y2="303.006" gradientUnits="userSpaceOnUse">
<stop stop-color="#22A6B5"/>
<stop offset="0.26559" stop-color="#9138E0"/>
<stop offset="0.630233" stop-color="#D9233B"/>
<stop offset="1" stop-color="#F59C49"/>
</linearGradient>
<clipPath id="clip0_173_7743">
<rect width="128" height="128" fill="white"/>
</clipPath>
</defs>
</svg>
