<svg width="562" height="145" viewBox="0 0 562 145" fill="none" xmlns="http://www.w3.org/2000/svg">
<g clip-path="url(#clip0_1864_914)">
<path d="M49.3797 116.812C49.3797 117.406 48.6969 117.881 47.8361 117.881C46.8566 117.97 46.1738 117.495 46.1738 116.812C46.1738 116.218 46.8566 115.743 47.7174 115.743C48.6079 115.654 49.3797 116.129 49.3797 116.812ZM40.1481 115.476C39.9403 116.07 40.534 116.753 41.4245 116.931C42.1963 117.228 43.0868 116.931 43.2649 116.337C43.443 115.743 42.879 115.061 41.9885 114.794C41.2167 114.586 40.3559 114.883 40.1481 115.476ZM53.2682 114.972C52.4074 115.18 51.8137 115.743 51.9028 116.426C51.9918 117.02 52.7636 117.406 53.6541 117.198C54.5149 116.99 55.1086 116.426 55.0195 115.833C54.9305 115.269 54.129 114.883 53.2682 114.972ZM72.7999 1.22461C31.6289 1.22461 0.134766 32.4813 0.134766 73.6523C0.134766 106.571 20.8538 134.741 50.4483 144.655C54.2478 145.338 55.5835 142.993 55.5835 141.064C55.5835 139.223 55.4945 129.071 55.4945 122.838C55.4945 122.838 34.716 127.29 30.3526 113.992C30.3526 113.992 26.9686 105.354 22.1005 103.128C22.1005 103.128 15.303 98.4677 22.5755 98.5568C22.5755 98.5568 29.9667 99.1504 34.0333 106.215C40.534 117.673 51.4278 114.378 55.6726 112.419C56.3553 107.67 58.2847 104.375 60.4219 102.416C43.8289 100.575 27.0874 98.1709 27.0874 69.6154C27.0874 61.4524 29.3433 57.3561 34.0927 52.1318C33.3209 50.2024 30.7978 42.2472 34.8644 31.9767C41.0683 30.0473 55.346 39.9912 55.346 39.9912C61.2827 38.329 67.6647 37.4681 73.9873 37.4681C80.3099 37.4681 86.6918 38.329 92.6285 39.9912C92.6285 39.9912 106.906 30.0176 113.11 31.9767C117.177 42.2769 114.654 50.2024 113.882 52.1318C118.631 57.3858 121.54 61.4821 121.54 69.6154C121.54 98.2599 104.057 100.546 87.4636 102.416C90.1945 104.761 92.5098 109.213 92.5098 116.189C92.5098 126.192 92.4207 138.57 92.4207 141.004C92.4207 142.934 93.7862 145.279 97.556 144.596C127.239 134.741 147.365 106.571 147.365 73.6523C147.365 32.4813 113.971 1.22461 72.7999 1.22461ZM28.9871 103.603C28.6012 103.9 28.6903 104.583 29.1949 105.146C29.6698 105.621 30.3526 105.829 30.7384 105.443C31.1243 105.146 31.0353 104.464 30.5307 103.9C30.0557 103.425 29.373 103.217 28.9871 103.603ZM25.7813 101.199C25.5735 101.584 25.8703 102.059 26.464 102.356C26.9389 102.653 27.5326 102.564 27.7404 102.148C27.9482 101.763 27.6514 101.288 27.0577 100.991C26.464 100.813 25.9891 100.902 25.7813 101.199ZM35.3987 111.766C34.9238 112.152 35.1019 113.042 35.7846 113.606C36.4673 114.289 37.3282 114.378 37.7141 113.903C38.0999 113.517 37.9218 112.627 37.3282 112.063C36.6751 111.38 35.7846 111.291 35.3987 111.766ZM32.0148 107.402C31.5399 107.699 31.5399 108.471 32.0148 109.154C32.4898 109.836 33.2912 110.133 33.6771 109.836C34.152 109.451 34.152 108.679 33.6771 107.996C33.2615 107.313 32.4898 107.017 32.0148 107.402Z" fill="white"/>
</g>
<path d="M253.068 65.4419H220.901C220.052 65.4419 219.415 66.0789 219.415 66.9282V82.6399C219.415 83.4892 220.052 84.1261 220.901 84.1261H233.428V103.66C233.428 103.66 230.562 104.615 222.812 104.615C213.683 104.615 200.837 101.218 200.837 73.0855C200.837 44.8469 214.213 41.2374 226.74 41.2374C237.569 41.2374 242.24 43.1483 245.212 44.1037C246.168 44.4222 247.017 43.4668 247.017 42.6175L250.626 27.4366C250.626 27.0119 250.52 26.5873 250.096 26.2688C248.928 25.4196 241.497 21.2793 222.919 21.2793C201.474 21.2793 179.499 30.4091 179.499 74.2532C179.499 118.097 204.659 124.679 225.891 124.679C243.407 124.679 254.13 117.142 254.13 117.142C254.554 116.93 254.66 116.293 254.66 115.974V67.0343C254.66 66.0789 253.917 65.4419 253.068 65.4419Z" fill="white"/>
<path d="M418.572 26.4804C418.572 25.6311 417.935 24.9941 417.086 24.9941H399.038C398.189 24.9941 397.552 25.6311 397.552 26.4804V61.4071H369.314V26.4804C369.314 25.6311 368.677 24.9941 367.827 24.9941H349.78C348.931 24.9941 348.294 25.6311 348.294 26.4804V121.069C348.294 121.918 348.931 122.555 349.78 122.555H367.827C368.677 122.555 369.314 121.918 369.314 121.069V80.6221H397.552V121.069C397.552 121.918 398.189 122.555 399.038 122.555H417.192C418.041 122.555 418.678 121.918 418.678 121.069V26.4804" fill="white"/>
<path d="M287.252 38.901C287.252 32.4252 282.05 27.1172 275.574 27.1172C269.098 27.1172 263.896 32.4252 263.896 38.901C263.896 45.3767 269.098 50.6848 275.574 50.6848C282.05 50.6848 287.252 45.3767 287.252 38.901Z" fill="white"/>
<path d="M285.977 101.112C285.977 98.6705 285.977 57.4804 285.977 57.4804C285.977 56.6311 285.34 55.9941 284.491 55.9941H266.444C265.595 55.9941 264.852 56.8434 264.852 57.6927C264.852 57.6927 264.852 110.242 264.852 120.221C264.852 122.026 266.019 122.557 267.506 122.557C267.506 122.557 275.149 122.557 283.748 122.557C285.553 122.557 285.977 121.707 285.977 120.115C285.977 116.824 285.977 103.66 285.977 101.112Z" fill="white"/>
<path d="M487.364 56.0996H469.423C468.573 56.0996 467.936 56.7366 467.936 57.5859V103.978C467.936 103.978 463.371 107.269 456.896 107.269C450.42 107.269 448.721 104.296 448.721 98.0329C448.721 91.6633 448.721 57.5859 448.721 57.5859C448.721 56.7366 448.084 56.0996 447.235 56.0996H428.975C428.126 56.0996 427.489 56.7366 427.489 57.5859C427.489 57.5859 427.489 82.3212 427.489 101.112C427.489 119.902 437.999 124.573 452.437 124.573C464.221 124.573 473.775 117.991 473.775 117.991C473.775 117.991 474.2 121.388 474.412 121.813C474.624 122.237 475.155 122.662 475.686 122.662H487.257C488.107 122.662 488.744 122.025 488.744 121.176V57.692C488.85 56.7366 488.213 56.0996 487.364 56.0996Z" fill="white"/>
<path d="M529.296 107.268C523.033 107.056 518.893 104.296 518.893 104.296V74.3586C518.893 74.3586 523.033 71.8108 528.129 71.3862C534.604 70.8553 540.868 72.7662 540.868 88.1594C540.868 104.296 538.001 107.481 529.296 107.268ZM536.409 53.9759C526.218 53.9759 519.317 58.5408 519.317 58.5408V26.4804C519.317 25.6311 518.68 24.9941 517.831 24.9941H499.678C498.828 24.9941 498.191 25.6311 498.191 26.4804V121.069C498.191 121.918 498.828 122.555 499.678 122.555H512.311C512.841 122.555 513.266 122.237 513.585 121.706C513.903 121.175 514.328 117.353 514.328 117.353C514.328 117.353 521.759 124.36 535.772 124.36C552.227 124.36 561.675 115.973 561.675 86.8855C561.675 57.7977 546.6 53.9759 536.409 53.9759Z" fill="white"/>
<path d="M337.89 55.8874H324.302V37.9464C324.302 37.3094 323.983 36.8848 323.134 36.8848H304.662C303.919 36.8848 303.6 37.2032 303.6 37.8402V56.3121C303.6 56.3121 294.365 58.5414 293.728 58.7537C293.091 58.9661 292.666 59.4969 292.666 60.24V71.9176C292.666 72.7669 293.303 73.4039 294.152 73.4039H303.6C303.6 73.4039 303.6 85.6123 303.6 101.43C303.6 122.238 318.144 124.255 328.017 124.255C332.476 124.255 337.89 122.768 338.74 122.45C339.27 122.238 339.589 121.707 339.589 121.07V108.224C339.589 107.375 338.846 106.738 338.103 106.738C337.359 106.738 335.342 107.057 333.219 107.057C326.531 107.057 324.302 103.978 324.302 99.9439C324.302 95.9098 324.302 73.2977 324.302 73.2977H337.89C338.74 73.2977 339.376 72.6607 339.376 71.8115V57.2675C339.376 56.6306 338.74 55.8874 337.89 55.8874Z" fill="white"/>
<defs>
<clipPath id="clip0_1864_914">
<rect width="147.499" height="144" fill="white" transform="translate(0 0.978516)"/>
</clipPath>
</defs>
</svg>
