<?xml version="1.0" encoding="UTF-8" standalone="no"?>
<!DOCTYPE svg PUBLIC "-//W3C//DTD SVG 1.1//EN" "http://www.w3.org/Graphics/SVG/1.1/DTD/svg11.dtd">
<svg width="100%" height="100%" viewBox="0 0 162 43" version="1.1" xmlns="http://www.w3.org/2000/svg" xmlns:xlink="http://www.w3.org/1999/xlink" xml:space="preserve" xmlns:serif="http://www.serif.com/" style="fill-rule:evenodd;clip-rule:evenodd;stroke-linejoin:round;stroke-miterlimit:2;">
    <g id="trademark__FlutterFlow">
        <path id="wordmark__Flutterflow" d="M39.5,30.139L39.5,12.639L49.838,12.639L49.838,15.689L42.55,15.689L42.55,19.239L48.638,19.239L48.638,22.289L42.55,22.289L42.55,30.139L39.5,30.139ZM51.658,30.139L51.658,11.389L54.708,11.389L54.708,30.139L51.658,30.139ZM57.213,25.514L57.213,17.639L60.263,17.639L60.263,24.714C60.263,25.205 60.384,25.655 60.625,26.064C60.867,26.464 61.188,26.785 61.588,27.026C61.996,27.26 62.442,27.376 62.925,27.376C63.425,27.376 63.875,27.26 64.275,27.026C64.675,26.785 64.996,26.464 65.238,26.064C65.48,25.655 65.6,25.205 65.6,24.714L65.6,17.639L68.65,17.639L68.663,30.139L65.613,30.139L65.6,29.001C65.167,29.451 64.655,29.81 64.063,30.076C63.471,30.334 62.838,30.464 62.163,30.464C61.255,30.464 60.425,30.243 59.675,29.801C58.925,29.351 58.325,28.755 57.875,28.014C57.434,27.264 57.213,26.43 57.213,25.514ZM77.865,20.689L75.44,20.689L75.44,30.139L72.39,30.139L72.39,20.689L70.54,20.689L70.54,17.639L72.39,17.639L72.39,13.714L75.44,13.714L75.44,17.639L77.865,17.639L77.865,20.689ZM86.825,20.689L84.4,20.689L84.4,30.139L81.35,30.139L81.35,20.689L79.5,20.689L79.5,17.639L81.35,17.639L81.35,13.714L84.4,13.714L84.4,17.639L86.825,17.639L86.825,20.689ZM94.292,30.464C93.142,30.464 92.092,30.168 91.142,29.576C90.2,28.985 89.446,28.189 88.879,27.189C88.321,26.189 88.042,25.084 88.042,23.876C88.042,22.968 88.205,22.118 88.53,21.326C88.855,20.526 89.3,19.826 89.867,19.226C90.442,18.618 91.109,18.143 91.867,17.801C92.625,17.459 93.434,17.289 94.292,17.289C95.267,17.289 96.159,17.497 96.967,17.914C97.784,18.322 98.475,18.885 99.042,19.601C99.609,20.318 100.021,21.135 100.279,22.051C100.538,22.968 100.596,23.926 100.454,24.926L91.317,24.926C91.434,25.393 91.625,25.814 91.892,26.189C92.159,26.555 92.496,26.851 92.905,27.076C93.313,27.293 93.775,27.405 94.292,27.414C94.825,27.422 95.309,27.297 95.742,27.039C96.184,26.772 96.55,26.414 96.842,25.964L99.955,26.689C99.446,27.797 98.688,28.705 97.68,29.414C96.671,30.114 95.542,30.464 94.292,30.464ZM91.217,22.639L97.367,22.639C97.275,22.139 97.08,21.689 96.78,21.289C96.488,20.88 96.125,20.555 95.692,20.314C95.259,20.072 94.792,19.951 94.292,19.951C93.792,19.951 93.33,20.072 92.905,20.314C92.48,20.547 92.117,20.868 91.817,21.276C91.525,21.676 91.325,22.13 91.217,22.639ZM102.501,30.139L102.488,17.639L105.538,17.639L105.551,18.751C105.976,18.301 106.484,17.947 107.076,17.689C107.667,17.422 108.305,17.289 108.988,17.289C109.447,17.289 109.905,17.355 110.363,17.489L109.163,20.564C108.847,20.439 108.53,20.376 108.213,20.376C107.722,20.376 107.272,20.497 106.863,20.739C106.463,20.972 106.142,21.293 105.901,21.701C105.667,22.101 105.551,22.547 105.551,23.039L105.551,30.139L102.501,30.139ZM111.766,30.139L111.766,12.639L122.103,12.639L122.103,15.689L114.816,15.689L114.816,19.239L120.903,19.239L120.903,22.289L114.816,22.289L114.816,30.139L111.766,30.139ZM123.924,30.139L123.924,11.389L126.974,11.389L126.974,30.139L123.924,30.139ZM135.283,30.464C134.133,30.464 133.083,30.168 132.133,29.576C131.192,28.985 130.437,28.193 129.871,27.201C129.312,26.201 129.033,25.097 129.033,23.889C129.033,22.972 129.196,22.118 129.521,21.326C129.846,20.526 130.292,19.826 130.858,19.226C131.433,18.618 132.1,18.143 132.858,17.801C133.617,17.459 134.425,17.289 135.283,17.289C136.433,17.289 137.479,17.584 138.421,18.176C139.371,18.768 140.125,19.564 140.683,20.564C141.25,21.564 141.533,22.672 141.533,23.889C141.533,24.797 141.371,25.647 141.046,26.439C140.721,27.23 140.271,27.93 139.696,28.539C139.129,29.139 138.467,29.61 137.708,29.951C136.958,30.293 136.15,30.464 135.283,30.464ZM135.283,27.414C135.892,27.414 136.437,27.251 136.921,26.926C137.404,26.601 137.783,26.172 138.058,25.639C138.342,25.105 138.483,24.522 138.483,23.889C138.483,23.239 138.337,22.647 138.046,22.114C137.762,21.572 137.375,21.143 136.883,20.826C136.4,20.501 135.867,20.339 135.283,20.339C134.683,20.339 134.142,20.501 133.658,20.826C133.175,21.151 132.792,21.584 132.508,22.126C132.225,22.668 132.083,23.255 132.083,23.889C132.083,24.547 132.229,25.143 132.521,25.676C132.812,26.209 133.2,26.635 133.683,26.951C134.175,27.26 134.708,27.414 135.283,27.414ZM149.344,30.139L146.319,30.139L142.144,17.639L145.131,17.639L147.844,25.726L150.544,17.639L153.556,17.639L156.256,25.726L158.969,17.639L161.956,17.639L157.781,30.139L154.756,30.139L152.044,22.014L149.344,30.139Z" style="fill:white;fill-rule:nonzero;"/>
        <path id="lettermark__Flutterflow" d="M29.53,7.139C30.39,7.139 31.186,7.597 31.589,8.342C31.976,9.056 31.959,9.897 31.546,10.595L31.532,10.618L27.915,16.58C27.506,17.254 26.767,17.675 25.978,17.684L25.952,17.684L21.821,17.684L23.538,21.556L23.545,21.568L23.555,21.586C23.959,22.306 23.95,23.162 23.53,23.871L23.516,23.895L19.898,29.856C19.489,30.531 18.751,30.951 17.962,30.96L17.936,30.96L12.865,30.96L9.22,34.748L9.213,34.755C8.87,35.098 8.407,35.29 7.924,35.29C7.803,35.29 7.682,35.278 7.562,35.254C6.973,35.135 6.483,34.737 6.247,34.187L6.241,34.172L4.323,29.834L4.312,29.817L4.302,29.799C4.3,29.796 4.299,29.793 4.297,29.79C3.892,29.07 3.902,28.214 4.321,27.505L4.336,27.481L7.844,21.699L5.259,15.868L5.306,15.844L5.306,15.841C5.196,15.304 5.284,14.745 5.565,14.255L5.581,14.228L5.595,14.204L9.213,8.243C9.622,7.569 10.36,7.148 11.15,7.139L29.53,7.139ZM10.535,30.915L6.691,30.915L7.82,33.488L7.822,33.495C7.841,33.541 7.871,33.566 7.916,33.575C7.957,33.583 7.989,33.575 8.02,33.547L8.025,33.542L10.535,30.915ZM21.523,22.07L9.904,22.07C9.891,22.07 9.878,22.071 9.865,22.072L9.862,22.072L13.048,29.251L17.935,29.251C18.136,29.251 18.33,29.145 18.44,28.975L18.448,28.961L22.071,22.995C22.179,22.817 22.191,22.611 22.106,22.425C22.007,22.211 21.778,22.07 21.523,22.07ZM8.696,23.544L5.821,28.319C5.706,28.509 5.7,28.731 5.802,28.927L5.813,28.947L5.819,28.957L5.83,28.975L5.853,29.009L5.879,29.042L5.904,29.07L5.908,29.074L5.924,29.091L5.939,29.104C6.029,29.185 6.141,29.235 6.264,29.247L6.292,29.25L6.308,29.25L6.328,29.251L11.207,29.251L8.696,23.544ZM7.94,17.695L9.203,20.549L9.227,20.54C9.445,20.468 9.674,20.429 9.904,20.426L9.939,20.426L21.201,20.426L19.993,17.695L7.94,17.695ZM29.498,8.803L17.838,8.803L21.025,15.983L25.91,15.983C26.112,15.983 26.305,15.877 26.415,15.707L26.424,15.693L30.047,9.728C30.155,9.55 30.167,9.344 30.082,9.158C29.985,8.948 29.763,8.809 29.515,8.803L29.498,8.803ZM16.053,8.803L11.194,8.803C10.994,8.803 10.802,8.909 10.692,9.079L10.683,9.093L7.07,15.058C6.962,15.236 6.95,15.443 7.035,15.629C7.132,15.839 7.352,15.977 7.6,15.983L7.616,15.983L19.231,15.983L16.053,8.803Z" style="fill:white;"/>
    </g>
</svg>
