<svg width="490" height="181" viewBox="0 0 490 181" fill="none" xmlns="http://www.w3.org/2000/svg">
<g clip-path="url(#clip0_2601_1450)">
<path opacity="0.993" d="M73.1614 0.53908C73.6393 0.477444 74.0614 0.597989 74.4263 0.900171C87.8571 17.291 100.52 34.296 112.375 51.8604C121.154 65.0773 128.623 79.0518 134.784 93.7851C144.622 120.026 139.502 142.856 119.424 162.275C101.855 177.122 81.616 182.905 58.7047 179.623C31.3185 174.039 12.7054 158.197 2.86488 132.096C0.301791 123.599 -0.541482 114.925 0.335064 106.074C1.7947 90.8396 5.40888 76.1413 11.1776 61.9807C13.5814 56.2033 16.714 50.9025 20.5747 46.0785C23.7214 49.8263 26.7351 53.6838 29.6102 57.6438C30.9411 59.0347 32.3265 60.3602 33.7665 61.6196C44.7602 39.8014 57.892 19.4424 73.162 0.53908H73.1614Z" fill="#FF5B11"/>
<path d="M70.631 29.813C83.8932 45.1949 95.8801 61.5792 106.593 78.9661C109.945 84.7051 112.729 90.7574 114.906 97.037C119.454 114.93 114.574 129.688 100.268 141.311C86.4312 151.047 71.2517 153.938 54.7288 149.985C36.911 144.456 26.6106 132.469 23.8272 114.024C23.1519 108.208 23.7546 102.546 25.6348 97.037C28.3027 90.2552 31.5683 83.7241 35.393 77.5207L46.2355 61.618C54.4382 51.0705 62.5703 40.4684 70.6315 29.8125L70.631 29.813Z" fill="#FF9758"/>
</g>
<path d="M234.303 135.023V95.1836H199.428V135.023H180.961V45.7773H199.428V79.8047H234.303V45.7773H252.83V135.023H234.303ZM324.336 77.3828C329.906 84.3659 332.691 92.6204 332.691 102.146C332.691 111.834 329.906 120.129 324.336 127.031C318.766 133.893 310.309 137.324 298.967 137.324C287.624 137.324 279.168 133.893 273.598 127.031C268.027 120.129 265.242 111.834 265.242 102.146C265.242 92.6204 268.027 84.3659 273.598 77.3828C279.168 70.3997 287.624 66.9082 298.967 66.9082C310.309 66.9082 318.766 70.3997 324.336 77.3828ZM298.906 81.5C293.861 81.5 289.965 83.2962 287.221 86.8887C284.516 90.4408 283.164 95.5267 283.164 102.146C283.164 108.766 284.516 113.872 287.221 117.465C289.965 121.057 293.861 122.854 298.906 122.854C303.952 122.854 307.827 121.057 310.531 117.465C313.236 113.872 314.588 108.766 314.588 102.146C314.588 95.5267 313.236 90.4408 310.531 86.8887C307.827 83.2962 303.952 81.5 298.906 81.5ZM376.164 81.8027C370.311 81.8027 366.295 84.2852 364.115 89.25C362.985 91.8737 362.42 95.224 362.42 99.3008V135.023H345.225V69.1484H361.875V78.7754C364.095 75.3848 366.194 72.9427 368.172 71.4492C371.724 68.7852 376.225 67.4531 381.674 67.4531C388.495 67.4531 394.066 69.2493 398.385 72.8418C402.744 76.3939 404.924 82.3073 404.924 90.582V135.023H387.244V94.8809C387.244 91.4095 386.78 88.7454 385.852 86.8887C384.156 83.498 380.927 81.8027 376.164 81.8027ZM475.945 77.3828C481.516 84.3659 484.301 92.6204 484.301 102.146C484.301 111.834 481.516 120.129 475.945 127.031C470.375 133.893 461.919 137.324 450.576 137.324C439.234 137.324 430.777 133.893 425.207 127.031C419.637 120.129 416.852 111.834 416.852 102.146C416.852 92.6204 419.637 84.3659 425.207 77.3828C430.777 70.3997 439.234 66.9082 450.576 66.9082C461.919 66.9082 470.375 70.3997 475.945 77.3828ZM450.516 81.5C445.47 81.5 441.575 83.2962 438.83 86.8887C436.126 90.4408 434.773 95.5267 434.773 102.146C434.773 108.766 436.126 113.872 438.83 117.465C441.575 121.057 445.47 122.854 450.516 122.854C455.561 122.854 459.436 121.057 462.141 117.465C464.845 113.872 466.197 108.766 466.197 102.146C466.197 95.5267 464.845 90.4408 462.141 86.8887C459.436 83.2962 455.561 81.5 450.516 81.5Z" fill="#FDFDFD"/>
<defs>
<clipPath id="clip0_2601_1450">
<rect width="139.636" height="180" fill="white" transform="translate(0 0.523438)"/>
</clipPath>
</defs>
</svg>
