<svg width="1148" height="181" viewBox="0 0 1148 181" fill="none" xmlns="http://www.w3.org/2000/svg">
<g clip-path="url(#clip0_2586_1274)">
<path d="M0 140.521V117.321H18.4V23.7213H0V0.521344H72C79.6576 0.349402 87.2634 1.81782 94.3067 4.82801C100.296 7.40993 105.429 11.6409 109.107 17.028C112.754 22.6417 114.613 29.2292 114.44 35.9213V37.9213C114.44 44.3213 113.24 49.5569 110.84 53.628C108.749 57.3582 105.846 60.5707 102.347 63.028C99.4704 65.0212 96.3286 66.6011 93.0133 67.7213V71.3213C96.4157 72.342 99.6501 73.8558 102.613 75.8147C106.291 78.2365 109.343 81.4942 111.52 85.3213C113.991 89.4547 115.222 94.8547 115.213 101.521V103.521C115.432 110.533 113.577 117.453 109.88 123.415C106.218 129.005 101.018 133.418 94.9067 136.121C87.9387 139.187 80.3839 140.689 72.7733 140.521H0ZM44.7733 58.1213H69.1733C74.0248 58.3176 78.7954 56.8341 82.68 53.9213C84.4266 52.5506 85.8215 50.7834 86.749 48.7661C87.6764 46.7488 88.1099 44.5395 88.0133 42.3213V40.3213C88.0133 35.2547 86.28 31.3569 82.8133 28.628C79.3467 25.8991 74.8089 24.5302 69.2 24.5213H44.7733V58.1213ZM44.7733 116.521H69.5733C75.3067 116.521 79.9422 115.121 83.48 112.321C87.0178 109.521 88.7956 105.521 88.8133 100.321V98.3213C88.8133 93.1213 87.08 89.1213 83.6133 86.3213C80.1467 83.5213 75.4756 82.1213 69.6 82.1213H44.7733V116.521Z" fill="white"/>
<path d="M244.6 41.9212H268V140.588H245L243.8 126.188C238.2 137.788 222.8 143.388 211.8 143.521C182.6 143.721 161 125.721 161 91.1212C161 57.1212 183.667 39.3212 212.4 39.5212C225.6 39.5212 238.2 45.7212 243.8 55.5212L244.6 41.9212ZM185.4 91.1879C185.4 109.988 198.4 121.188 214.6 121.188C253 121.188 253 61.3879 214.6 61.3879C198.4 61.3212 185.4 72.3212 185.4 91.1879Z" fill="white"/>
<path d="M371.8 143.321C362.743 143.447 353.788 141.389 345.694 137.321C338 133.428 331.583 127.413 327.2 119.987C322.667 112.387 320.4 103.187 320.4 92.3872V89.5872C320.4 78.7872 322.667 69.5872 327.2 61.9872C331.583 54.5616 338 48.5466 345.694 44.6539C353.788 40.5859 362.743 38.5278 371.8 38.6539C381.267 38.6539 389.4 40.3206 396.2 43.6539C402.75 46.7784 408.418 51.4844 412.694 57.3472C416.916 63.204 419.756 69.9417 421 77.0539L396.6 82.2539C396.133 78.4498 394.909 74.7778 393 71.4539C391.117 68.2395 388.38 65.6091 385.094 63.8539C381.167 61.8648 376.8 60.9016 372.4 61.0539C367.627 60.98 362.912 62.1128 358.694 64.3472C354.592 66.5886 351.25 70.0001 349.094 74.1472C346.628 79.0776 345.427 84.544 345.6 90.0539V92.0539C345.424 97.5598 346.625 103.023 349.094 107.947C351.246 112.101 354.589 115.518 358.694 117.761C362.915 119.989 367.628 121.121 372.4 121.054C380 121.054 385.778 119.089 389.734 115.161C393.82 110.921 396.45 105.489 397.24 99.6539L421.64 105.454C419.955 112.407 416.93 118.965 412.734 124.761C408.454 130.62 402.787 135.325 396.24 138.454C389.414 141.698 381.267 143.321 371.8 143.321Z" fill="white"/>
<path d="M472.4 140.52V0.519531H497.6V77.9195H501.2L534 41.3195H566.8L521 89.3195L568.4 140.52H536L501.2 101.12H497.6V140.52H472.4Z" fill="white"/>
<path d="M618.8 140.52V0.519531H630.8V140.52H618.8Z" fill="#EAB308"/>
<path d="M702 26.5207C700.629 26.5423 699.267 26.2881 697.995 25.7731C696.723 25.2581 695.568 24.4928 694.598 23.5227C693.628 22.5527 692.863 21.3976 692.348 20.126C691.833 18.8545 691.579 17.4924 691.6 16.1207C691.55 14.7315 691.791 13.3471 692.307 12.0565C692.824 10.766 693.605 9.59786 694.6 8.62736C696.052 7.1271 697.924 6.10063 699.97 5.68251C702.015 5.26439 704.14 5.47414 706.064 6.28425C707.988 7.09436 709.623 8.46703 710.754 10.2223C711.884 11.9776 712.458 14.0336 712.4 16.1207C712.434 17.4856 712.194 18.8435 711.694 20.1143C711.195 21.3851 710.447 22.5433 709.494 23.5207C708.523 24.5153 707.354 25.296 706.064 25.8126C704.774 26.3292 703.389 26.5704 702 26.5207ZM696 140.521V43.3207H708V140.521H696Z" fill="#EAB308"/>
<path d="M768.387 92.3194V89.9194C768.387 79.6528 770.489 70.8528 774.693 63.5194C778.664 56.4143 784.507 50.5343 791.587 46.5194C798.791 42.4838 806.93 40.4146 815.187 40.5194C825.853 40.5194 834.156 42.6216 840.093 46.8261C845.532 50.4814 850.021 55.3815 853.187 61.1194H855.587V43.3194H866.787V165.319C866.787 170.119 865.52 173.853 862.987 176.519C860.453 179.186 856.587 180.519 851.387 180.519H784.987V169.719H848.987C853.12 169.719 855.187 167.719 855.187 163.719V121.919H852.773C850.821 125.376 848.363 128.522 845.48 131.253C841.993 134.544 837.874 137.093 833.373 138.746C827.539 140.833 821.368 141.818 815.173 141.653C806.88 141.776 798.699 139.731 791.44 135.719C784.311 131.722 778.452 125.798 774.533 118.626C770.436 111.231 768.387 102.462 768.387 92.3194ZM817.987 130.986C829.053 130.986 838.022 127.519 844.893 120.586C851.764 113.653 855.196 104.119 855.187 91.9861V90.3861C855.187 78.1194 851.756 68.555 844.893 61.6928C838.031 54.8305 829.062 51.3728 817.987 51.3194C807.053 51.3194 798.12 54.755 791.187 61.6261C784.253 68.4972 780.782 78.0616 780.773 90.3194V91.9194C780.773 104.053 784.24 113.586 791.173 120.519C798.107 127.453 807.044 130.919 817.987 130.919V130.986Z" fill="#EAB308"/>
<path d="M931.986 140.52V0.519531H943.986V60.3195H946.386C948.108 56.9474 950.359 53.8728 953.053 51.2129C956.265 48.1341 960.078 45.7511 964.253 44.2129C969.817 42.2629 975.694 41.3588 981.586 41.5462C988.309 41.4674 994.955 42.9748 1000.99 45.9462C1006.87 48.9004 1011.77 53.4999 1015.09 59.1862C1018.65 65.0529 1020.43 72.4529 1020.43 81.3862V140.52H1008.43V82.1195C1008.43 71.4529 1005.76 63.8173 1000.43 59.2129C995.093 54.6084 987.96 52.3106 979.026 52.3195C974.414 52.1865 969.823 52.9859 965.527 54.6698C961.231 56.3538 957.319 58.8876 954.026 62.1195C947.36 68.6529 944.026 78.5862 944.026 91.9195V140.52H931.986Z" fill="#EAB308"/>
<path d="M1116.77 140.518C1111.59 140.518 1107.68 139.185 1105.08 136.518C1102.48 133.851 1101.19 130.118 1101.19 125.318V54.118H1069.99V43.318H1101.19V6.91797H1113.19V43.318H1147.19V54.118H1113.19V123.718C1113.19 127.718 1115.19 129.718 1119.19 129.718H1141.99V140.518H1116.77Z" fill="#EAB308"/>
</g>
<defs>
<clipPath id="clip0_2586_1274">
<rect width="1147.19" height="180" fill="white" transform="translate(0 0.519531)"/>
</clipPath>
</defs>
</svg>
