<svg viewBox="0 0 1655 479" preserveAspectRatio="xMidyMid meet" fill="none" xmlns="http://www.w3.org/2000/svg">
<path d="M1655 0H0V479H1655V0Z" fill="url(#paint0_linear_1439_9661)"/>
<path fill-rule="evenodd" clip-rule="evenodd" d="M1642.52 19.7221C1642.49 18.28 1642.01 16.8421 1641.1 15.478C1638.51 11.5899 1632.44 8.4629 1624.88 7.1288C1622.24 6.66133 1619.44 6.41651 1616.65 6.40032C1551.1 6.02488 1485.55 5.90247 1420 5.55542C1404.57 5.47381 1389.14 5.35051 1373.71 5.27001C1319 4.98461 1264.28 4.69965 1209.57 4.40582C1175.87 4.22464 1142.17 4.00488 1108.47 3.88025C1097.98 3.84144 1087.49 3.8736 1077.01 3.87071C1056.01 3.86473 1035.01 3.85475 1014.01 3.8441C948.048 3.81106 882.085 3.79443 816.122 3.83656C795.102 3.84987 774.079 3.8084 753.059 3.80685C707.534 3.80374 662.013 3.83634 616.487 3.85785C593.744 3.8685 571.001 3.84787 548.262 3.87604C540.25 3.88579 532.242 3.95299 524.234 3.99401C508.805 4.07318 493.38 4.15324 477.95 4.23396C432.308 4.47257 386.663 4.71628 341.018 4.95667C309.136 5.12432 277.253 5.26004 245.371 5.45208C224.806 5.57582 204.241 5.71664 183.675 5.80911C135.239 6.02688 86.8021 6.13399 38.3679 6.40165C35.5686 6.41718 32.7767 6.66178 30.1283 7.1288C22.5187 8.47089 16.4206 11.631 13.8554 15.5534C12.9787 16.8946 12.5185 18.3055 12.4861 19.7203C11.5091 62.2912 10.4441 104.862 9.95536 147.435C9.81227 159.916 9.81227 172.396 9.79762 184.877C9.77995 200.286 9.7696 215.696 9.76658 231.104C9.76314 250.65 9.77219 270.194 9.79288 289.737C9.80365 299.861 9.76615 309.988 9.83813 320.112C10.167 366.493 11.4224 412.874 12.4861 459.25C12.5193 460.694 12.9964 462.131 13.9067 463.497C16.4995 467.384 22.5713 470.511 30.1283 471.844C32.7767 472.312 35.5686 472.558 38.3679 472.571C88.5153 472.844 138.665 473.037 188.813 473.283C248.668 473.58 308.523 473.926 368.379 474.232C408.331 474.436 448.281 474.64 488.234 474.846C501.379 474.915 514.52 474.984 527.665 475.053C534.53 475.09 541.396 475.15 548.262 475.157C570.419 475.179 592.58 475.155 614.738 475.166C659.677 475.192 704.616 475.248 749.555 475.252C771.743 475.254 793.934 475.197 816.122 475.214C882.667 475.268 949.216 475.232 1015.76 475.19C1036.18 475.177 1056.59 475.166 1077.01 475.161C1087.49 475.159 1097.98 475.197 1108.47 475.159C1143.31 475.028 1178.15 474.798 1212.99 474.614C1277.42 474.274 1341.86 473.939 1406.29 473.589C1476.41 473.208 1546.53 472.959 1616.65 472.573C1619.44 472.558 1622.24 472.314 1624.88 471.846C1632.44 470.511 1638.51 467.384 1641.1 463.497C1642.01 462.133 1642.49 460.694 1642.52 459.252C1643.6 412.876 1644.81 366.499 1645.16 320.121C1645.24 310.292 1645.19 300.462 1645.21 290.635C1645.22 271.38 1645.24 252.125 1645.23 232.869C1645.23 216.864 1645.22 200.859 1645.2 184.853C1645.19 173.851 1645.21 162.848 1645.09 151.845C1644.6 107.803 1643.55 63.7621 1642.52 19.7221Z" fill="#19141D"/>
<path fill-rule="evenodd" clip-rule="evenodd" d="M1630.29 24.9688C1630.23 23.6511 1629.76 22.3399 1628.91 21.0969C1626.43 17.4787 1620.7 14.5679 1613.62 13.3584C1611.34 12.969 1608.94 12.7581 1606.54 12.7346C1543.24 12.1199 1479.94 11.9365 1416.65 11.304C1403.58 11.1734 1390.51 10.9993 1377.44 10.8479C1358.82 10.6317 1340.19 10.4871 1321.56 10.2988C1284.76 9.92691 1247.96 9.53795 1211.16 9.15652C1189.01 8.927 1166.87 8.70036 1144.73 8.48148C1133.92 8.3746 1123.12 8.23999 1112.32 8.16725C1104.65 8.1158 1096.98 8.15417 1089.32 8.14907C1075.14 8.13931 1060.96 8.12534 1046.78 8.10959C1004.19 8.06236 961.594 7.99716 918.999 7.97055C895.907 7.95592 872.81 7.95281 849.717 7.96966C837.874 7.97831 826.03 8.01712 814.187 8.01069C791.68 7.99871 769.178 7.96257 746.672 7.96811C701.707 7.97898 656.738 8.05438 611.768 8.10782C589.322 8.13443 566.876 8.11292 544.426 8.16038C536.453 8.17745 528.471 8.30585 520.493 8.38435C506.283 8.52428 492.069 8.66555 477.86 8.80814C433.64 9.25143 389.425 9.70515 345.208 10.154C311.344 10.4975 277.477 10.7947 243.615 11.1685C236.801 11.2437 229.987 11.3464 223.172 11.4245C210.693 11.5677 198.214 11.6859 185.734 11.7884C139.987 12.1638 94.2358 12.3261 48.491 12.7444C46.0882 12.7663 43.6945 12.9761 41.4128 13.3648C34.3291 14.5714 28.5978 17.4814 26.1157 21.0994C25.2628 22.3428 24.7977 23.6543 24.7374 24.9722C22.9501 64.0324 21.0904 103.093 20.1387 142.162C20.0017 147.777 19.8612 153.393 19.7883 159.009C19.6681 168.282 19.7263 177.557 19.7056 186.83C19.6694 203.104 19.6496 219.378 19.6466 235.653C19.6435 254.285 19.6625 272.915 19.7034 291.547C19.7172 297.816 19.7336 304.085 19.7521 310.354C19.7629 313.954 19.7414 317.55 19.8039 321.15C20.5723 365.435 22.71 409.711 24.7374 453.988C24.7964 455.278 25.2451 456.567 26.0674 457.789C28.5245 461.439 34.283 464.38 41.4128 465.597C43.694 465.985 46.0878 466.196 48.491 466.22C95.9373 466.681 143.388 467.021 190.835 467.462C211.246 467.65 231.655 467.883 252.065 468.092C291.599 468.493 331.135 468.881 370.67 469.267C409.241 469.644 447.811 470.019 486.38 470.4C498.892 470.524 511.399 470.649 523.907 470.775C530.746 470.844 537.59 470.959 544.426 470.97C565.691 471.006 586.956 470.977 608.221 471.01C653.781 471.077 699.337 471.205 744.896 471.236C767.993 471.252 791.09 471.205 814.187 471.185C831.357 471.172 848.537 471.241 865.707 471.245C898.859 471.256 932.015 471.214 965.167 471.161C997.689 471.108 1030.22 471.046 1062.74 471.012C1073.37 471.001 1084 470.992 1094.63 470.99C1100.53 470.988 1106.42 471.021 1112.32 470.981C1120.28 470.928 1128.24 470.826 1136.2 470.746C1152.11 470.589 1168.02 470.431 1183.92 470.272C1231.5 469.793 1279.07 469.305 1326.65 468.828C1368 468.415 1409.34 467.959 1450.69 467.588C1502.64 467.123 1554.59 466.746 1606.54 466.227C1608.94 466.202 1611.34 465.992 1613.62 465.601C1620.74 464.384 1626.5 461.441 1628.96 457.791C1629.78 456.569 1630.23 455.283 1630.29 453.99C1631.66 424.245 1633.02 394.496 1634.03 364.747C1634.52 349.93 1635 335.107 1635.21 320.287C1635.35 310.416 1635.28 300.542 1635.3 290.671C1635.34 271.138 1635.36 251.606 1635.35 232.076C1635.35 216.073 1635.33 200.072 1635.29 184.07C1635.26 173.622 1635.31 163.172 1635.09 152.724C1634.19 110.133 1632.25 67.5499 1630.29 24.9688Z" fill="url(#paint1_linear_1439_9661)"/>
<path fill-rule="evenodd" clip-rule="evenodd" d="M1618.28 30.1932C1617.94 25.3396 1611.46 20.9445 1602.42 19.5228C1600.55 19.2299 1598.61 19.0674 1596.66 19.0438C1535.57 18.3052 1474.46 18.1089 1413.37 17.2423C1402.07 17.0819 1390.78 16.8673 1379.48 16.687C1361 16.392 1342.52 16.1705 1324.03 15.9002C1287.46 15.3655 1250.88 14.806 1214.3 14.2583C1192.26 13.9283 1170.21 13.6023 1148.17 13.2885C1137.41 13.1353 1126.65 12.9368 1115.89 12.8384C1109.33 12.7785 1102.77 12.8188 1096.21 12.8104C1084.26 12.7949 1072.31 12.7752 1060.35 12.7528C1023.23 12.6831 986.1 12.5889 948.974 12.5235C918.986 12.4707 888.998 12.4365 859.014 12.4492C844.011 12.4556 829.013 12.5141 814.014 12.5044C790.616 12.4893 767.217 12.4487 743.823 12.4671C697.686 12.5033 651.553 12.6368 605.42 12.7332C583.905 12.778 562.39 12.7714 540.875 12.8302C538.017 12.8379 535.16 12.8936 532.307 12.9335C527.773 12.9969 523.239 13.0606 518.705 13.1244C504.547 13.324 490.397 13.526 476.243 13.7298C434.511 14.3306 392.783 14.9464 351.054 15.5571C314.643 16.0902 278.228 16.577 241.818 17.1312C235.613 17.2256 229.409 17.3563 223.204 17.456C211.938 17.6372 200.67 17.7869 189.401 17.9153C145.734 18.4129 102.057 18.5895 58.3896 19.0716C56.4398 19.0931 54.4973 19.2536 52.6316 19.5455C46.1008 20.5667 40.7363 23.173 38.2693 26.4406C37.3612 27.6434 36.85 28.923 36.7625 30.2125C33.9193 72.0421 31.0627 113.876 29.9408 155.729C29.812 160.526 29.815 165.323 29.7939 170.12C29.7641 176.988 29.7383 183.857 29.7167 190.725C29.6521 211.338 29.6275 231.951 29.6448 252.564C29.6568 267.34 29.6904 282.116 29.7439 296.894C29.7784 306.478 29.7219 316.065 29.9891 325.649C31.1351 366.703 33.9646 407.738 36.7625 448.768C37.0918 453.6 43.5351 457.968 52.5062 459.414C54.4098 459.72 56.395 459.891 58.3896 459.918C103.183 460.505 147.984 460.944 192.778 461.532C214.153 461.814 235.525 462.157 256.898 462.468C293.906 463.002 330.914 463.523 367.923 464.038C405.726 464.566 443.531 465.089 481.333 465.624C494.358 465.808 507.378 465.994 520.403 466.18C526.639 466.269 532.876 466.391 539.112 466.448C542.681 466.482 546.258 466.455 549.831 466.457C555.804 466.46 561.778 466.464 567.751 466.473C585.693 466.495 603.635 466.542 621.577 466.597C664.125 466.73 706.672 466.916 749.219 466.97C770.816 466.998 792.417 466.947 814.014 466.925C822.414 466.916 830.814 466.963 839.214 466.974C855.411 466.996 871.607 466.996 887.808 466.981C936.351 466.936 984.889 466.757 1033.43 466.628C1051.37 466.579 1069.31 466.539 1087.25 466.517C1093.22 466.508 1099.2 466.502 1105.17 466.499C1108.74 466.497 1112.32 466.519 1115.89 466.486C1123.82 466.413 1131.75 466.264 1139.68 466.151C1154.95 465.936 1170.23 465.717 1185.5 465.495C1231.12 464.836 1276.73 464.164 1322.35 463.506C1341.39 463.231 1360.44 462.978 1379.48 462.692C1402.05 462.353 1424.62 462.013 1447.19 461.729C1497.01 461.1 1546.84 460.605 1596.66 459.931C1598.65 459.904 1600.64 459.734 1602.54 459.425C1611.5 457.977 1617.94 453.609 1618.28 448.779C1620.23 420.227 1622.12 391.671 1623.51 363.109C1623.97 353.606 1624.38 344.104 1624.71 334.599C1624.87 329.856 1625.06 325.112 1625.15 320.367C1625.22 316.75 1625.19 313.129 1625.21 309.512C1625.24 302.932 1625.26 296.352 1625.28 289.775C1625.34 270.003 1625.37 250.231 1625.36 230.459C1625.35 214.78 1625.31 199.1 1625.26 183.421C1625.23 173.834 1625.31 164.245 1625.02 154.66C1623.81 113.158 1621.1 71.6729 1618.28 30.1932Z" fill="#19141D"/>
<path fill-rule="evenodd" clip-rule="evenodd" d="M1606.48 35.43C1606.08 31.0092 1600.09 26.9887 1591.8 25.7495C1590.24 25.5166 1588.62 25.3858 1587 25.3647C1526.31 24.5742 1465.59 24.4134 1404.91 23.2682C1397.04 23.1197 1389.17 22.9254 1381.3 22.7744C1363.48 22.4329 1345.66 22.1364 1327.84 21.8024C1291.4 21.1201 1254.98 20.4044 1218.55 19.7048C1196.56 19.2826 1174.57 18.8659 1152.59 18.4654C1145.24 18.3314 1137.89 18.1995 1130.54 18.0695C1126.58 17.9995 1122.62 17.8977 1118.65 17.864C1115.63 17.8382 1112.61 17.8542 1109.59 17.8487C1102.95 17.8365 1096.3 17.8223 1089.65 17.8065C1070.28 17.7606 1050.91 17.7014 1031.54 17.6389C983.592 17.4841 935.64 17.3085 887.688 17.2599C863.376 17.2351 839.064 17.2918 814.751 17.3027C806.847 17.3062 798.943 17.273 791.043 17.2661C776.454 17.2535 761.869 17.2592 747.28 17.2783C702.375 17.3371 657.47 17.5207 612.566 17.6708C595.619 17.7276 578.673 17.7795 561.726 17.8178C556.287 17.83 550.848 17.8409 545.409 17.8502C542.392 17.8553 539.366 17.8382 536.349 17.864C534.078 17.8833 531.811 17.9416 529.544 17.9819C524.45 18.0724 519.36 18.1636 514.266 18.2549C500.142 18.5084 486.014 18.7654 471.891 19.0246C428.628 19.8188 385.365 20.6351 342.102 21.4438C308.132 22.0787 274.16 22.6954 240.188 23.3195C234.58 23.4224 228.974 23.5696 223.366 23.682C212.726 23.8956 202.083 24.0701 191.439 24.2178C150.322 24.7884 109.19 24.9521 68.0697 25.4222C66.4453 25.4406 64.8278 25.5692 63.2668 25.8003C54.9608 27.0306 48.9666 31.0553 48.5722 35.4781C44.9769 75.7791 41.4967 116.091 40.1278 156.432C39.9744 160.949 39.9791 165.468 39.9528 169.986C39.9141 176.571 39.8809 183.155 39.8524 189.739C39.7667 209.708 39.7309 229.676 39.7477 249.645C39.7606 264.969 39.8042 280.29 39.8766 295.614C39.9149 303.746 39.8735 311.878 40.0149 320.01C40.0774 323.58 40.2489 327.152 40.392 330.725C41.9005 368.362 45.1941 405.97 48.5722 443.574C48.9674 447.971 54.9409 451.959 63.1539 453.225C64.749 453.471 66.4053 453.613 68.0697 453.637C110.869 454.305 153.677 454.819 196.474 455.529C218.818 455.899 241.157 456.354 263.499 456.764C302.02 457.469 340.542 458.152 379.065 458.831C413.959 459.445 448.854 460.059 483.747 460.683C495.617 460.895 507.486 461.108 519.356 461.326C523.316 461.397 527.281 461.47 531.242 461.541C532.945 461.572 534.647 461.618 536.349 461.632C538.763 461.652 541.181 461.634 543.599 461.636C549.033 461.641 554.473 461.649 559.912 461.661C576.25 461.694 592.589 461.754 608.928 461.827C654.441 462.031 699.949 462.337 745.457 462.448C760.654 462.486 775.846 462.503 791.043 462.486C798.943 462.477 806.847 462.432 814.751 462.435C822.652 462.439 830.556 462.477 838.456 462.488C854.868 462.51 871.28 462.501 887.688 462.472C936.851 462.388 986.014 462.122 1035.18 461.922C1053.94 461.847 1072.7 461.78 1091.46 461.738C1097.51 461.725 1103.55 461.714 1109.59 461.707C1112.61 461.703 1115.63 461.723 1118.65 461.696C1120.92 461.678 1123.18 461.618 1125.45 461.578C1129.98 461.496 1134.5 461.417 1139.02 461.335C1153.14 461.082 1167.25 460.825 1181.37 460.565C1222.37 459.811 1263.37 459.042 1304.37 458.283C1330.02 457.809 1355.66 457.356 1381.3 456.877C1401.51 456.5 1421.72 456.112 1441.93 455.793C1490.28 455.023 1538.65 454.442 1587 453.662C1588.62 453.635 1590.24 453.502 1591.8 453.265C1600.06 452.014 1606.08 448.011 1606.48 443.594C1610.04 403.932 1613.35 364.257 1614.83 324.558C1615 320.036 1615.02 315.515 1615.04 310.991C1615.07 306.181 1615.09 301.371 1615.12 296.561C1615.19 280.603 1615.24 264.645 1615.25 248.687C1615.27 228.953 1615.23 209.218 1615.15 189.484C1615.12 182.887 1615.09 176.29 1615.05 169.693C1615.03 166.06 1615.08 162.424 1614.96 158.791C1613.59 117.65 1610.14 76.531 1606.48 35.43Z" fill="url(#paint2_linear_1439_9661)"/>
<path fill-rule="evenodd" clip-rule="evenodd" d="M1594.88 40.7087C1594.69 38.9051 1593.48 37.1486 1591.45 35.6752C1588.26 33.3638 1583.09 31.7997 1577.54 31.7294C1523.37 31.0431 1469.17 30.8985 1415.02 29.8303C1404.39 29.6207 1393.77 29.3251 1383.14 29.0938C1325.15 27.8318 1267.15 26.4784 1209.16 25.1507C1190.01 24.7123 1170.86 24.2814 1151.71 23.8665C1142.11 23.6583 1132.5 23.4079 1122.89 23.2553C1118.65 23.1879 1114.39 23.2185 1110.14 23.2063C1101.59 23.1822 1093.03 23.1538 1084.48 23.1227C1059.98 23.0336 1035.48 22.9214 1010.98 22.8101C967.36 22.6116 923.74 22.416 880.12 22.357C865.354 22.337 850.588 22.3328 835.822 22.3492C828.44 22.3577 821.057 22.3923 813.674 22.3874C793.37 22.3734 773.066 22.3439 752.766 22.3805C703.647 22.4692 654.531 22.7517 605.411 22.9773C589.508 23.0502 573.6 23.1172 557.692 23.1695C552.193 23.1877 546.693 23.2039 541.198 23.2181C538.168 23.2258 535.134 23.207 532.108 23.2556C523.058 23.401 514.011 23.6385 504.965 23.8326C486.359 24.232 467.757 24.6382 449.152 25.0489C390.538 26.3425 331.929 27.6786 273.316 28.9628C261.168 29.2291 249.015 29.4633 236.869 29.7538C226.831 29.9937 216.796 30.2567 206.753 30.4468C163.698 31.2609 120.611 31.3753 77.5398 31.829C71.9908 31.8873 66.8064 33.4467 63.618 35.7581C61.5828 37.2337 60.3743 38.9934 60.177 40.7998C55.9528 79.5152 51.9946 118.251 50.4275 157.023C50.2448 161.548 50.2513 166.073 50.2181 170.599C50.1724 176.874 50.1319 183.15 50.0978 189.425C49.9909 208.976 49.9435 228.527 49.9603 248.078C49.9737 263.594 50.0276 279.111 50.1177 294.627C50.1668 303.052 50.1319 311.478 50.2957 319.903C50.3943 324.977 50.7029 330.053 50.9702 335.125C52.7863 369.571 56.3791 403.983 60.177 438.382C60.3791 440.214 61.6432 441.993 63.7404 443.476C66.9448 445.74 72.0632 447.266 77.5398 447.361C117.271 448.047 157.011 448.597 196.737 449.368C221.161 449.841 245.577 450.428 269.996 450.958C310.069 451.826 350.145 452.664 390.221 453.5C421.695 454.156 453.168 454.81 484.644 455.478C495.371 455.704 506.103 455.935 516.834 456.165C521.924 456.274 527.014 456.411 532.108 456.496C535.134 456.545 538.168 456.52 541.198 456.527C547.305 456.538 553.417 456.553 559.524 456.576C577.272 456.638 595.02 456.737 612.764 456.853C665.582 457.196 718.395 457.687 771.217 457.764C785.371 457.786 799.52 457.746 813.674 457.731C822.901 457.72 832.133 457.775 841.361 457.782C859.816 457.795 878.271 457.764 896.726 457.704C937.881 457.571 979.032 457.294 1020.18 457.048C1042.84 456.915 1065.49 456.788 1088.15 456.704C1095.48 456.678 1102.81 456.653 1110.14 456.635C1114.39 456.624 1118.65 456.66 1122.89 456.593C1126.28 456.538 1129.68 456.449 1133.07 456.378C1140.41 456.221 1147.75 456.063 1155.1 455.906C1175.93 455.456 1196.75 454.999 1217.58 454.538C1279.48 453.169 1341.38 451.783 1403.28 450.435C1461.35 449.171 1519.45 448.441 1577.54 447.399C1583.01 447.299 1588.12 445.771 1591.33 443.507C1593.42 442.026 1594.68 440.247 1594.88 438.416C1598.89 401.956 1602.52 365.481 1604.31 328.971C1604.46 325.993 1604.64 323.01 1604.7 320.03C1604.76 317.293 1604.75 314.552 1604.77 311.816C1604.81 306.405 1604.85 300.996 1604.88 295.585C1604.97 279.417 1605.03 263.248 1605.04 247.077C1605.06 227.738 1605.01 208.396 1604.9 189.055C1604.87 182.761 1604.83 176.468 1604.78 170.174C1604.76 166.533 1604.81 162.889 1604.67 159.249C1604.13 144.862 1603.18 130.478 1602.07 116.1C1600.15 90.9582 1597.61 65.83 1594.88 40.7087Z" fill="#19141D"/>
<path fill-rule="evenodd" clip-rule="evenodd" d="M1583.48 46.0547C1583.03 42.548 1578.2 39.2957 1571.52 38.3987C1570.46 38.2568 1569.37 38.1774 1568.28 38.1652C1516.14 37.5815 1463.99 37.4979 1411.89 36.3246C1402.99 36.1243 1394.1 35.8483 1385.21 35.632C1327.42 34.2279 1269.64 32.6339 1211.87 31.1141C1192.75 30.6114 1173.63 30.1178 1154.51 29.6434C1148.3 29.4895 1142.1 29.3376 1135.89 29.1879C1132.5 29.1063 1129.12 29.0039 1125.72 28.9453C1121.44 28.8713 1117.14 28.9012 1112.86 28.8844C1104.85 28.8529 1096.83 28.8174 1088.82 28.779C1065.34 28.6664 1041.85 28.528 1018.37 28.3887C976.812 28.1421 935.252 27.8929 893.696 27.7753C876.297 27.7261 858.898 27.6999 841.499 27.7066C832.176 27.7104 822.854 27.7501 813.532 27.7445C798.615 27.7356 783.703 27.7117 768.786 27.7354C715.456 27.8199 662.129 28.2122 608.803 28.5393C591.512 28.6453 574.225 28.7444 556.934 28.8236C550.77 28.8518 544.612 28.8775 538.448 28.9001C535.393 28.9112 532.328 28.8921 529.273 28.9456C526.445 28.9948 523.622 29.0813 520.795 29.1496C514.585 29.2995 508.374 29.4507 502.163 29.6026C484.148 30.0437 466.137 30.4928 448.126 30.9467C393.02 32.336 337.919 33.773 282.815 35.1637C266.882 35.5657 250.946 35.935 235.015 36.3554C225.6 36.604 216.19 36.877 206.77 37.0719C166.803 37.8989 126.8 37.9763 86.8114 38.3193C85.718 38.3289 84.6271 38.4058 83.5682 38.5455C76.8581 39.4312 72.0375 42.6933 71.5901 46.2033C66.8467 83.4329 62.5277 120.694 60.8201 157.998C60.6262 162.236 60.6344 166.475 60.5969 170.713C60.5469 176.396 60.5021 182.079 60.4633 187.762C60.3417 205.495 60.278 223.227 60.2788 240.962C60.2801 258.407 60.3435 275.851 60.4633 293.297C60.5021 298.978 60.5469 304.662 60.5969 310.346C60.637 314.887 60.649 319.429 60.8615 323.968C62.5695 360.412 66.8751 396.81 71.5901 433.178C72.119 437.254 78.717 440.92 86.8114 441.068C124.035 441.749 161.267 442.317 198.481 443.133C223.844 443.687 249.195 444.381 274.551 445.004C316.72 446.038 358.893 447.034 401.066 448.029C429.69 448.706 458.315 449.382 486.937 450.072C496.53 450.302 506.12 450.535 515.709 450.768C520.23 450.879 524.752 451.023 529.273 451.101C532.328 451.156 535.393 451.132 538.448 451.141C544.612 451.161 550.77 451.185 556.934 451.216C575.462 451.309 593.986 451.449 612.51 451.611C668.327 452.094 724.145 452.757 779.971 452.839C791.159 452.857 802.343 452.824 813.532 452.813C822.854 452.804 832.176 452.855 841.499 452.857C858.898 452.859 876.297 452.817 893.696 452.742C937.109 452.555 980.527 452.174 1023.94 451.839C1046.18 451.666 1068.43 451.506 1090.67 451.391C1098.07 451.353 1105.46 451.32 1112.86 451.294C1117.14 451.278 1121.44 451.311 1125.72 451.238C1128.55 451.189 1131.37 451.101 1134.2 451.034C1139.28 450.91 1144.35 450.786 1149.44 450.662C1164.63 450.291 1179.83 449.912 1195.03 449.533C1241.32 448.373 1287.61 447.182 1333.9 446.018C1351.56 445.574 1369.21 445.157 1386.86 444.703C1404.62 444.246 1422.38 443.818 1440.15 443.452C1482.85 442.572 1525.57 441.933 1568.28 441.119C1576.36 440.966 1582.95 437.301 1583.48 433.229C1586.68 408.283 1589.62 383.327 1591.76 358.35C1592.47 349.941 1593.1 341.529 1593.62 333.116C1593.87 328.927 1594.15 324.736 1594.3 320.542C1594.41 317.493 1594.37 314.441 1594.39 311.392C1594.45 305.385 1594.5 299.377 1594.54 293.37C1594.66 275.829 1594.72 258.29 1594.72 240.749C1594.72 222.919 1594.66 205.089 1594.54 187.259C1594.5 181.252 1594.45 175.244 1594.39 169.236C1594.37 166.187 1594.41 163.136 1594.3 160.087C1594.14 155.601 1593.84 151.115 1593.56 146.63C1593.02 137.852 1592.36 129.076 1591.6 120.303C1589.47 95.5379 1586.61 70.7909 1583.48 46.0547Z" fill="url(#paint3_linear_1439_9661)"/>
<path fill-rule="evenodd" clip-rule="evenodd" d="M1572.4 52.6057C1571.9 49.1046 1567.1 45.7513 1560.22 44.8805C1559.23 44.7545 1558.2 44.6848 1557.18 44.676C1517.13 44.3332 1477.07 44.2518 1437.04 43.5682C1426.47 43.3877 1415.91 43.1658 1405.35 42.8882C1399.77 42.7413 1394.19 42.5611 1388.61 42.4016C1369.76 41.8624 1350.9 41.3657 1332.06 40.82C1286.55 39.5025 1241.06 38.1031 1195.56 36.7892C1180.8 36.3631 1166.04 35.9457 1151.29 35.5427C1146.16 35.4029 1141.04 35.2646 1135.91 35.1283C1133.06 35.0522 1130.19 34.9469 1127.32 34.9122C1123.57 34.8668 1119.81 34.8773 1116.05 34.8582C1109.16 34.823 1102.27 34.7847 1095.37 34.7435C1074 34.616 1052.63 34.4627 1031.27 34.3051C985.182 33.9651 939.095 33.6048 893.008 33.432C875.29 33.3656 857.573 33.3268 839.855 33.3274C830.994 33.3278 822.134 33.3615 813.273 33.3563C802.514 33.3501 791.756 33.3347 780.997 33.3493C724.8 33.4247 668.606 33.9283 612.413 34.3664C593.564 34.5133 574.716 34.6528 555.867 34.7658C549.603 34.8033 543.334 34.8378 537.07 34.8689C533.355 34.8871 529.632 34.8612 525.922 34.948C517.374 35.1482 508.831 35.404 500.284 35.6353C482.689 36.1118 465.099 36.5974 447.504 37.0889C395.374 38.5451 343.249 40.0538 291.12 41.5225C272.348 42.0513 253.575 42.5748 234.801 43.0882C230.363 43.2095 225.929 43.3598 221.491 43.4835C214.288 43.6843 207.081 43.8518 199.872 43.9924C165.902 44.6544 131.903 44.7107 97.9148 44.9026C96.8881 44.9084 95.8639 44.9755 94.8668 45.0994C87.9599 45.9573 83.166 49.3256 82.6628 52.831C77.5751 88.2837 73.0731 123.778 71.3009 159.318C71.1056 163.233 71.1221 167.15 71.0815 171.065C71.0234 176.697 70.9714 182.329 70.9256 187.96C70.782 205.728 70.7058 223.495 70.707 241.264C70.7079 258.748 70.7841 276.232 70.9256 293.716C70.9714 299.349 71.0234 304.981 71.0815 310.612C71.1251 314.829 71.1302 319.045 71.3458 323.26C73.1154 357.837 77.595 392.361 82.6628 426.849C83.177 430.347 88.0679 433.638 94.8668 434.549C95.8622 434.682 96.886 434.761 97.9148 434.78C131.35 435.404 164.79 435.957 198.212 436.75C223.65 437.355 249.074 438.124 274.504 438.813C316.364 439.942 358.229 441.029 400.094 442.114C428.373 442.849 456.653 443.584 484.93 444.332C494.036 444.573 503.139 444.817 512.241 445.061C515.663 445.151 519.081 445.244 522.5 445.338C524.223 445.383 525.952 445.445 527.675 445.464C530.805 445.503 533.94 445.488 537.07 445.503C543.334 445.533 549.603 445.569 555.867 445.61C575.347 445.743 594.826 445.936 614.302 446.152C672.393 446.796 730.484 447.638 788.592 447.711C796.822 447.722 805.047 447.702 813.273 447.694C822.769 447.683 832.261 447.728 841.753 447.724C859.47 447.715 877.188 447.649 894.905 447.548C942.882 447.271 990.85 446.725 1038.82 446.275C1058.3 446.092 1077.77 445.925 1097.25 445.801C1104.15 445.756 1111.04 445.717 1117.93 445.685C1121.06 445.67 1124.19 445.681 1127.32 445.644C1129.62 445.617 1131.91 445.533 1134.21 445.473C1138.19 445.366 1142.18 445.259 1146.16 445.151C1158.1 444.83 1170.02 444.504 1181.96 444.176C1218.03 443.181 1254.1 442.161 1290.18 441.145C1319.12 440.328 1348.06 439.516 1377.01 438.725C1394.8 438.238 1412.58 437.732 1430.38 437.316C1472.64 436.33 1514.91 435.668 1557.18 434.849C1558.2 434.83 1559.23 434.75 1560.22 434.617C1567.01 433.702 1571.9 430.414 1572.4 426.919C1575.75 403.817 1578.78 380.702 1581.01 357.565C1582.18 345.31 1583.2 333.046 1583.78 320.78C1583.93 317.749 1583.88 314.715 1583.91 311.684C1583.97 305.725 1584.03 299.763 1584.07 293.804C1584.22 276.2 1584.29 258.598 1584.29 240.994C1584.29 223.107 1584.22 205.218 1584.07 187.33C1584.03 181.37 1583.97 175.409 1583.91 169.449C1583.88 166.42 1583.93 163.386 1583.78 160.358C1583.15 147.104 1582.03 133.852 1580.74 120.611C1578.53 97.9259 1575.63 75.2594 1572.4 52.6057Z" fill="#19141D"/>
<defs>
<linearGradient id="paint0_linear_1439_9661" x1="75.6317" y1="38.2334" x2="769.177" y2="758.454" gradientUnits="userSpaceOnUse">
<stop stop-color="#22A6B5"/>
<stop offset="0.26559" stop-color="#9138E0"/>
<stop offset="0.630233" stop-color="#D9233B"/>
<stop offset="1" stop-color="#F59C49"/>
</linearGradient>
<linearGradient id="paint1_linear_1439_9661" x1="93.4823" y1="44.9376" x2="764.014" y2="747.781" gradientUnits="userSpaceOnUse">
<stop stop-color="#22A6B5"/>
<stop offset="0.26559" stop-color="#9138E0"/>
<stop offset="0.630233" stop-color="#D9233B"/>
<stop offset="1" stop-color="#F59C49"/>
</linearGradient>
<linearGradient id="paint2_linear_1439_9661" x1="111.743" y1="52.7929" x2="755.654" y2="737.611" gradientUnits="userSpaceOnUse">
<stop stop-color="#22A6B5"/>
<stop offset="0.26559" stop-color="#9138E0"/>
<stop offset="0.630233" stop-color="#D9233B"/>
<stop offset="1" stop-color="#F59C49"/>
</linearGradient>
<linearGradient id="paint3_linear_1439_9661" x1="130.401" y1="61.6409" x2="744.384" y2="727.667" gradientUnits="userSpaceOnUse">
<stop stop-color="#22A6B5"/>
<stop offset="0.26559" stop-color="#9138E0"/>
<stop offset="0.630233" stop-color="#D9233B"/>
<stop offset="1" stop-color="#F59C49"/>
</linearGradient>
</defs>
</svg>
