<svg width="100" height="34" viewBox="0 0 100 34" fill="none" xmlns="http://www.w3.org/2000/svg">
<mask id="path-1-outside-1_25857_10908" maskUnits="userSpaceOnUse" x="0" y="0" width="33" height="34" fill="black">
<rect fill="white" width="33" height="34"/>
<path d="M32.4883 13.3756C32.4883 4.75646 26.2163 1 20.3616 1H13.2225C7.35984 1 1 4.31343 1 12.9326C1 21.5518 8.2742 24.9933 14.129 24.9933H19.3764L27.2422 32.992L32.4948 33L32.4883 13.3756C32.4883 13.4237 32.4883 13.3276 32.4883 13.3756ZM27.2317 25.8794L22.0001 19.6555H14.129C10.322 19.6555 6.28937 17.7726 6.28937 12.9326C6.28937 8.09258 9.71985 6.29108 13.5281 6.29108H20.0677C23.8747 6.29108 27.2448 8.39683 27.2448 13.2369L27.2304 25.8794H27.2317Z"/>
</mask>
<path d="M32.4883 13.3756C32.4883 4.75646 26.2163 1 20.3616 1H13.2225C7.35984 1 1 4.31343 1 12.9326C1 21.5518 8.2742 24.9933 14.129 24.9933H19.3764L27.2422 32.992L32.4948 33L32.4883 13.3756C32.4883 13.4237 32.4883 13.3276 32.4883 13.3756ZM27.2317 25.8794L22.0001 19.6555H14.129C10.322 19.6555 6.28937 17.7726 6.28937 12.9326C6.28937 8.09258 9.71985 6.29108 13.5281 6.29108H20.0677C23.8747 6.29108 27.2448 8.39683 27.2448 13.2369L27.2304 25.8794H27.2317Z" fill="black"/>
<path d="M19.3764 24.9933L19.519 24.8531L19.4602 24.7933H19.3764V24.9933ZM27.2422 32.992L27.0996 33.1322L27.1583 33.1919L27.2419 33.192L27.2422 32.992ZM32.4948 33L32.4945 33.2L32.6949 33.2003L32.6948 32.9999L32.4948 33ZM27.2317 25.8794V26.0794H27.6611L27.3848 25.7507L27.2317 25.8794ZM22.0001 19.6555L22.1532 19.5269L22.0932 19.4555H22.0001V19.6555ZM27.2448 13.2369L27.4448 13.2371V13.2369H27.2448ZM27.2304 25.8794L27.0304 25.8792L27.0302 26.0794H27.2304V25.8794ZM32.6883 13.3756C32.6883 9.01312 31.0989 5.86271 28.7523 3.80525C26.4103 1.75173 23.3293 0.8 20.3616 0.8V1.2C23.2486 1.2 26.231 2.1265 28.4886 4.10601C30.7417 6.08157 32.2883 9.11899 32.2883 13.3756H32.6883ZM20.3616 0.8H13.2225V1.2H20.3616V0.8ZM13.2225 0.8C10.2568 0.8 7.15267 1.63765 4.78589 3.57949C2.41287 5.52646 0.8 8.56841 0.8 12.9326H1.2C1.2 8.67763 2.76705 5.75327 5.03961 3.88873C7.31841 2.01907 10.3255 1.2 13.2225 1.2V0.8ZM0.8 12.9326C0.8 17.3066 2.64928 20.3799 5.24795 22.3544C7.83955 24.3235 11.1667 25.1933 14.129 25.1933V24.7933C11.2365 24.7933 7.99914 23.9424 5.48994 22.0359C2.98782 20.1348 1.2 17.1778 1.2 12.9326H0.8ZM14.129 25.1933H19.3764V24.7933H14.129V25.1933ZM19.2338 25.1336L27.0996 33.1322L27.3848 32.8518L19.519 24.8531L19.2338 25.1336ZM27.2419 33.192L32.4945 33.2L32.4951 32.8L27.2425 32.792L27.2419 33.192ZM32.6948 32.9999L32.6883 13.3756L32.2883 13.3757L32.2948 33.0001L32.6948 32.9999ZM32.6883 13.3756C32.6883 13.3756 32.6883 13.3755 32.6883 13.3754C32.6883 13.3753 32.6883 13.3752 32.6883 13.3751C32.6883 13.375 32.6883 13.3749 32.6883 13.3748C32.6883 13.3747 32.6883 13.3746 32.6883 13.3745C32.6883 13.3745 32.6883 13.3744 32.6883 13.3743C32.6883 13.3742 32.6883 13.3741 32.6883 13.374C32.6883 13.3739 32.6883 13.3738 32.6883 13.3738C32.6883 13.3737 32.6883 13.3736 32.6883 13.3735C32.6883 13.3734 32.6883 13.3733 32.6883 13.3732C32.6883 13.3732 32.6883 13.3731 32.6883 13.373C32.6883 13.3729 32.6883 13.3728 32.6883 13.3727C32.6883 13.3727 32.6883 13.3726 32.6883 13.3725C32.6883 13.3724 32.6883 13.3723 32.6883 13.3723C32.6883 13.3722 32.6883 13.3721 32.6883 13.372C32.6883 13.3719 32.6883 13.3719 32.6883 13.3718C32.6883 13.3717 32.6883 13.3716 32.6883 13.3716C32.6883 13.3715 32.6883 13.3714 32.6883 13.3713C32.6883 13.3713 32.6883 13.3712 32.6883 13.3711C32.6883 13.371 32.6883 13.371 32.6883 13.3709C32.6883 13.3708 32.6883 13.3707 32.6883 13.3707C32.6883 13.3706 32.6883 13.3705 32.6883 13.3704C32.6883 13.3704 32.6883 13.3703 32.6883 13.3702C32.6883 13.3702 32.6883 13.3701 32.6883 13.37C32.6883 13.3699 32.6883 13.3699 32.6883 13.3698C32.6883 13.3697 32.6883 13.3697 32.6883 13.3696C32.6883 13.3695 32.6883 13.3695 32.6883 13.3694C32.6883 13.3693 32.6883 13.3693 32.6883 13.3692C32.6883 13.3691 32.6883 13.3691 32.6883 13.369C32.6883 13.3689 32.6883 13.3689 32.6883 13.3688C32.6883 13.3688 32.6883 13.3687 32.6883 13.3686C32.6883 13.3686 32.6883 13.3685 32.6883 13.3684C32.6883 13.3684 32.6883 13.3683 32.6883 13.3683C32.6883 13.3682 32.6883 13.3681 32.6883 13.3681C32.6883 13.368 32.6883 13.368 32.6883 13.3679C32.6883 13.3678 32.6883 13.3678 32.6883 13.3677C32.6883 13.3677 32.6883 13.3676 32.6883 13.3675C32.6883 13.3675 32.6883 13.3674 32.6883 13.3674C32.6883 13.3673 32.6883 13.3673 32.6883 13.3672C32.6883 13.3672 32.6883 13.3671 32.6883 13.367C32.6883 13.367 32.6883 13.3669 32.6883 13.3669C32.6883 13.3668 32.6883 13.3668 32.6883 13.3667C32.6883 13.3667 32.6883 13.3666 32.6883 13.3666C32.6883 13.3665 32.6883 13.3665 32.6883 13.3664C32.6883 13.3664 32.6883 13.3663 32.6883 13.3663C32.6883 13.3662 32.6883 13.3662 32.6883 13.3661C32.6883 13.3661 32.6883 13.366 32.6883 13.366C32.6883 13.3659 32.6883 13.3659 32.6883 13.3658C32.6883 13.3658 32.6883 13.3657 32.6883 13.3657C32.6883 13.3657 32.6883 13.3656 32.6883 13.3656C32.6883 13.3655 32.6883 13.3655 32.6883 13.3654C32.6883 13.3654 32.6883 13.3653 32.6883 13.3653C32.6883 13.3653 32.6883 13.3652 32.6883 13.3652C32.6883 13.3651 32.6883 13.3651 32.6883 13.365C32.6883 13.365 32.6883 13.365 32.6883 13.3649C32.6883 13.3649 32.6883 13.3648 32.6883 13.3648C32.6883 13.3648 32.6883 13.3647 32.6883 13.3647C32.6883 13.3646 32.6883 13.3646 32.6883 13.3646C32.6883 13.3645 32.6883 13.3645 32.6883 13.3644C32.6883 13.3644 32.6883 13.3644 32.6883 13.3643C32.6883 13.3643 32.6883 13.3643 32.6883 13.3642C32.6883 13.3642 32.6883 13.3642 32.6883 13.3641C32.6883 13.3641 32.6883 13.3641 32.6883 13.364C32.6883 13.364 32.6883 13.364 32.6883 13.3639C32.6883 13.3639 32.6883 13.3639 32.6883 13.3638C32.6883 13.3638 32.6883 13.3638 32.6883 13.3637C32.6883 13.3637 32.6883 13.3637 32.6883 13.3636C32.6883 13.3636 32.6883 13.3636 32.6883 13.3635C32.6883 13.3635 32.6883 13.3635 32.6883 13.3635C32.6883 13.3634 32.6883 13.3634 32.6883 13.3634C32.6883 13.3633 32.6883 13.3633 32.6883 13.3633C32.6883 13.3633 32.6883 13.3632 32.6883 13.3632C32.6883 13.3632 32.6883 13.3632 32.6883 13.3631C32.6883 13.3631 32.6883 13.3631 32.6883 13.3631C32.6883 13.363 32.6883 13.363 32.6883 13.363C32.6883 13.363 32.6883 13.3629 32.6883 13.3629C32.6883 13.3629 32.6883 13.3629 32.6883 13.3628C32.6883 13.3628 32.6883 13.3628 32.6883 13.3628C32.6883 13.3627 32.6883 13.3627 32.6883 13.3627C32.6883 13.3627 32.6883 13.3627 32.6883 13.3626C32.6883 13.3626 32.6883 13.3626 32.6883 13.3626C32.6883 13.3626 32.6883 13.3625 32.6883 13.3625C32.6883 13.3625 32.6883 13.3625 32.6883 13.3625C32.6883 13.3625 32.6883 13.3624 32.6883 13.3624C32.6883 13.3624 32.6883 13.3624 32.6883 13.3624C32.6883 13.3623 32.6883 13.3623 32.6883 13.3623C32.6883 13.3623 32.6883 13.3623 32.6883 13.3623C32.6883 13.3623 32.6883 13.3622 32.6883 13.3622C32.6883 13.3622 32.6883 13.3622 32.6883 13.3622C32.6883 13.3622 32.6883 13.3622 32.6883 13.3621C32.6883 13.3621 32.6883 13.3621 32.6883 13.3621C32.6883 13.3621 32.6883 13.3621 32.6883 13.3621C32.6883 13.3621 32.6883 13.362 32.6883 13.362C32.6883 13.362 32.6883 13.362 32.6883 13.362C32.6883 13.362 32.6883 13.362 32.6883 13.362C32.6883 13.362 32.6883 13.362 32.6883 13.3619C32.6883 13.3619 32.6883 13.3619 32.6883 13.3619C32.6883 13.3619 32.6883 13.3619 32.6883 13.3619C32.6883 13.3619 32.6883 13.3619 32.6883 13.3619C32.6883 13.3619 32.6883 13.3619 32.6883 13.3619C32.6883 13.3619 32.6883 13.3618 32.6883 13.3618C32.6883 13.3618 32.6883 13.3618 32.6883 13.3618C32.6883 13.3618 32.6883 13.3618 32.6883 13.3618C32.6883 13.3618 32.6883 13.3618 32.6883 13.3618C32.6883 13.3618 32.6883 13.3618 32.6883 13.3618C32.6883 13.3618 32.6883 13.3618 32.6883 13.3618C32.6883 13.3618 32.6883 13.3618 32.6883 13.3618C32.6883 13.3618 32.6883 13.3618 32.6883 13.3618C32.6883 13.3618 32.6883 13.3618 32.6883 13.3618C32.4883 13.3618 32.2883 13.3618 32.2883 13.3618C32.2883 13.3618 32.2883 13.3618 32.2883 13.3618C32.2883 13.3618 32.2883 13.3618 32.2883 13.3618C32.2883 13.3618 32.2883 13.3618 32.2883 13.3618C32.2883 13.3618 32.2883 13.3618 32.2883 13.3618C32.2883 13.3618 32.2883 13.3618 32.2883 13.3618C32.2883 13.3618 32.2883 13.3618 32.2883 13.3618C32.2883 13.3618 32.2883 13.3618 32.2883 13.3618C32.2883 13.3618 32.2883 13.3618 32.2883 13.3618C32.2883 13.3619 32.2883 13.3619 32.2883 13.3619C32.2883 13.3619 32.2883 13.3619 32.2883 13.3619C32.2883 13.3619 32.2883 13.3619 32.2883 13.3619C32.2883 13.3619 32.2883 13.3619 32.2883 13.3619C32.2883 13.3619 32.2883 13.3619 32.2883 13.362C32.2883 13.362 32.2883 13.362 32.2883 13.362C32.2883 13.362 32.2883 13.362 32.2883 13.362C32.2883 13.362 32.2883 13.362 32.2883 13.362C32.2883 13.362 32.2883 13.3621 32.2883 13.3621C32.2883 13.3621 32.2883 13.3621 32.2883 13.3621C32.2883 13.3621 32.2883 13.3621 32.2883 13.3621C32.2883 13.3621 32.2883 13.3622 32.2883 13.3622C32.2883 13.3622 32.2883 13.3622 32.2883 13.3622C32.2883 13.3622 32.2883 13.3622 32.2883 13.3622C32.2883 13.3623 32.2883 13.3623 32.2883 13.3623C32.2883 13.3623 32.2883 13.3623 32.2883 13.3623C32.2883 13.3623 32.2883 13.3624 32.2883 13.3624C32.2883 13.3624 32.2883 13.3624 32.2883 13.3624C32.2883 13.3624 32.2883 13.3625 32.2883 13.3625C32.2883 13.3625 32.2883 13.3625 32.2883 13.3625C32.2883 13.3625 32.2883 13.3625 32.2883 13.3626C32.2883 13.3626 32.2883 13.3626 32.2883 13.3626C32.2883 13.3626 32.2883 13.3627 32.2883 13.3627C32.2883 13.3627 32.2883 13.3627 32.2883 13.3627C32.2883 13.3627 32.2883 13.3628 32.2883 13.3628C32.2883 13.3628 32.2883 13.3628 32.2883 13.3628C32.2883 13.3629 32.2883 13.3629 32.2883 13.3629C32.2883 13.3629 32.2883 13.3629 32.2883 13.363C32.2883 13.363 32.2883 13.363 32.2883 13.363C32.2883 13.363 32.2883 13.3631 32.2883 13.3631C32.2883 13.3631 32.2883 13.3631 32.2883 13.3632C32.2883 13.3632 32.2883 13.3632 32.2883 13.3632C32.2883 13.3632 32.2883 13.3633 32.2883 13.3633C32.2883 13.3633 32.2883 13.3633 32.2883 13.3634C32.2883 13.3634 32.2883 13.3634 32.2883 13.3634C32.2883 13.3634 32.2883 13.3635 32.2883 13.3635C32.2883 13.3635 32.2883 13.3635 32.2883 13.3636C32.2883 13.3636 32.2883 13.3636 32.2883 13.3636C32.2883 13.3637 32.2883 13.3637 32.2883 13.3637C32.2883 13.3637 32.2883 13.3638 32.2883 13.3638C32.2883 13.3638 32.2883 13.3638 32.2883 13.3639C32.2883 13.3639 32.2883 13.3639 32.2883 13.364C32.2883 13.364 32.2883 13.364 32.2883 13.364C32.2883 13.3641 32.2883 13.3641 32.2883 13.3641C32.2883 13.3641 32.2883 13.3642 32.2883 13.3642C32.2883 13.3642 32.2883 13.3643 32.2883 13.3643C32.2883 13.3643 32.2883 13.3643 32.2883 13.3644C32.2883 13.3644 32.2883 13.3644 32.2883 13.3645C32.2883 13.3645 32.2883 13.3645 32.2883 13.3645C32.2883 13.3646 32.2883 13.3646 32.2883 13.3646C32.2883 13.3647 32.2883 13.3647 32.2883 13.3647C32.2883 13.3648 32.2883 13.3648 32.2883 13.3648C32.2883 13.3648 32.2883 13.3649 32.2883 13.3649C32.2883 13.3649 32.2883 13.365 32.2883 13.365C32.2883 13.365 32.2883 13.3651 32.2883 13.3651C32.2883 13.3651 32.2883 13.3652 32.2883 13.3652C32.2883 13.3652 32.2883 13.3653 32.2883 13.3653C32.2883 13.3653 32.2883 13.3654 32.2883 13.3654C32.2883 13.3654 32.2883 13.3655 32.2883 13.3655C32.2883 13.3655 32.2883 13.3656 32.2883 13.3656C32.2883 13.3656 32.2883 13.3657 32.2883 13.3657C32.2883 13.3657 32.2883 13.3658 32.2883 13.3658C32.2883 13.3658 32.2883 13.3659 32.2883 13.3659C32.2883 13.3659 32.2883 13.366 32.2883 13.366C32.2883 13.366 32.2883 13.3661 32.2883 13.3661C32.2883 13.3661 32.2883 13.3662 32.2883 13.3662C32.2883 13.3662 32.2883 13.3663 32.2883 13.3663C32.2883 13.3663 32.2883 13.3664 32.2883 13.3664C32.2883 13.3665 32.2883 13.3665 32.2883 13.3665C32.2883 13.3666 32.2883 13.3666 32.2883 13.3666C32.2883 13.3667 32.2883 13.3667 32.2883 13.3668C32.2883 13.3668 32.2883 13.3668 32.2883 13.3669C32.2883 13.3669 32.2883 13.3669 32.2883 13.367C32.2883 13.367 32.2883 13.367 32.2883 13.3671C32.2883 13.3671 32.2883 13.3672 32.2883 13.3672C32.2883 13.3672 32.2883 13.3673 32.2883 13.3673C32.2883 13.3674 32.2883 13.3674 32.2883 13.3674C32.2883 13.3675 32.2883 13.3675 32.2883 13.3675C32.2883 13.3676 32.2883 13.3676 32.2883 13.3677C32.2883 13.3677 32.2883 13.3677 32.2883 13.3678C32.2883 13.3678 32.2883 13.3679 32.2883 13.3679C32.2883 13.3679 32.2883 13.368 32.2883 13.368C32.2883 13.3681 32.2883 13.3681 32.2883 13.3681C32.2883 13.3682 32.2883 13.3682 32.2883 13.3683C32.2883 13.3683 32.2883 13.3683 32.2883 13.3684C32.2883 13.3684 32.2883 13.3685 32.2883 13.3685C32.2883 13.3685 32.2883 13.3686 32.2883 13.3686C32.2883 13.3687 32.2883 13.3687 32.2883 13.3688C32.2883 13.3688 32.2883 13.3688 32.2883 13.3689C32.2883 13.3689 32.2883 13.369 32.2883 13.369C32.2883 13.369 32.2883 13.3691 32.2883 13.3691C32.2883 13.3692 32.2883 13.3692 32.2883 13.3693C32.2883 13.3693 32.2883 13.3693 32.2883 13.3694C32.2883 13.3694 32.2883 13.3695 32.2883 13.3695C32.2883 13.3696 32.2883 13.3696 32.2883 13.3696C32.2883 13.3697 32.2883 13.3697 32.2883 13.3698C32.2883 13.3698 32.2883 13.3699 32.2883 13.3699C32.2883 13.3699 32.2883 13.37 32.2883 13.37C32.2883 13.3701 32.2883 13.3701 32.2883 13.3702C32.2883 13.3702 32.2883 13.3702 32.2883 13.3703C32.2883 13.3703 32.2883 13.3704 32.2883 13.3704C32.2883 13.3705 32.2883 13.3705 32.2883 13.3705C32.2883 13.3706 32.2883 13.3706 32.2883 13.3707C32.2883 13.3707 32.2883 13.3708 32.2883 13.3708C32.2883 13.3709 32.2883 13.3709 32.2883 13.3709C32.2883 13.371 32.2883 13.371 32.2883 13.3711C32.2883 13.3711 32.2883 13.3712 32.2883 13.3712C32.2883 13.3713 32.2883 13.3713 32.2883 13.3713C32.2883 13.3714 32.2883 13.3714 32.2883 13.3715C32.2883 13.3715 32.2883 13.3716 32.2883 13.3716C32.2883 13.3717 32.2883 13.3717 32.2883 13.3718C32.2883 13.3718 32.2883 13.3718 32.2883 13.3719C32.2883 13.3719 32.2883 13.372 32.2883 13.372C32.2883 13.3721 32.2883 13.3721 32.2883 13.3722C32.2883 13.3722 32.2883 13.3723 32.2883 13.3723C32.2883 13.3723 32.2883 13.3724 32.2883 13.3724C32.2883 13.3725 32.2883 13.3725 32.2883 13.3726C32.2883 13.3726 32.2883 13.3727 32.2883 13.3727C32.2883 13.3728 32.2883 13.3728 32.2883 13.3728C32.2883 13.3729 32.2883 13.3729 32.2883 13.373C32.2883 13.373 32.2883 13.3731 32.2883 13.3731C32.2883 13.3732 32.2883 13.3732 32.2883 13.3733C32.2883 13.3733 32.2883 13.3734 32.2883 13.3734C32.2883 13.3734 32.2883 13.3735 32.2883 13.3735C32.2883 13.3736 32.2883 13.3736 32.2883 13.3737C32.2883 13.3737 32.2883 13.3738 32.2883 13.3738C32.2883 13.3739 32.2883 13.3739 32.2883 13.374C32.2883 13.374 32.2883 13.3741 32.2883 13.3741C32.2883 13.3741 32.2883 13.3742 32.2883 13.3742C32.2883 13.3743 32.2883 13.3743 32.2883 13.3744C32.2883 13.3744 32.2883 13.3745 32.2883 13.3745C32.2883 13.3746 32.2883 13.3746 32.2883 13.3747C32.2883 13.3747 32.2883 13.3748 32.2883 13.3748C32.2883 13.3748 32.2883 13.3749 32.2883 13.3749C32.2883 13.375 32.2883 13.375 32.2883 13.3751C32.2883 13.3751 32.2883 13.3752 32.2883 13.3752C32.2883 13.3753 32.2883 13.3753 32.2883 13.3754C32.2883 13.3754 32.2883 13.3755 32.2883 13.3755C32.2883 13.3756 32.2883 13.3756 32.2883 13.3756C32.2883 13.3757 32.2883 13.3757 32.2883 13.3758C32.2883 13.3758 32.2883 13.3759 32.2883 13.3759C32.2883 13.376 32.2883 13.376 32.2883 13.3761C32.2883 13.3761 32.2883 13.3762 32.2883 13.3762C32.2883 13.3763 32.2883 13.3763 32.2883 13.3763C32.2883 13.3764 32.2883 13.3764 32.2883 13.3765C32.2883 13.3765 32.2883 13.3766 32.2883 13.3766C32.2883 13.3767 32.2883 13.3767 32.2883 13.3768C32.2883 13.3768 32.2883 13.3769 32.2883 13.3769C32.2883 13.377 32.2883 13.377 32.2883 13.3771C32.2883 13.3771 32.2883 13.3771 32.2883 13.3772C32.2883 13.3772 32.2883 13.3773 32.2883 13.3773C32.2883 13.3774 32.2883 13.3774 32.2883 13.3775C32.2883 13.3775 32.2883 13.3776 32.2883 13.3776C32.2883 13.3777 32.2883 13.3777 32.2883 13.3777C32.2883 13.3778 32.2883 13.3778 32.2883 13.3779C32.2883 13.3779 32.2883 13.378 32.2883 13.378C32.2883 13.3781 32.2883 13.3781 32.2883 13.3782C32.2883 13.3782 32.2883 13.3783 32.2883 13.3783C32.2883 13.3784 32.2883 13.3784 32.2883 13.3784C32.2883 13.3785 32.2883 13.3785 32.2883 13.3786C32.2883 13.3786 32.2883 13.3787 32.2883 13.3787C32.2883 13.3788 32.2883 13.3788 32.2883 13.3789C32.2883 13.3789 32.2883 13.3789 32.2883 13.379C32.2883 13.379 32.2883 13.3791 32.2883 13.3791C32.2883 13.3792 32.2883 13.3792 32.2883 13.3793C32.2883 13.3793 32.2883 13.3794 32.2883 13.3794C32.2883 13.3794 32.2883 13.3795 32.2883 13.3795C32.2883 13.3796 32.2883 13.3796 32.2883 13.3797C32.2883 13.3797 32.2883 13.3798 32.2883 13.3798C32.2883 13.3799 32.2883 13.3799 32.2883 13.3799C32.2883 13.38 32.2883 13.38 32.2883 13.3801C32.2883 13.3801 32.2883 13.3802 32.2883 13.3802C32.2883 13.3803 32.2883 13.3803 32.2883 13.3803C32.2883 13.3804 32.2883 13.3804 32.2883 13.3805C32.2883 13.3805 32.2883 13.3806 32.2883 13.3806C32.2883 13.3807 32.2883 13.3807 32.2883 13.3807C32.2883 13.3808 32.2883 13.3808 32.2883 13.3809C32.2883 13.3809 32.2883 13.381 32.2883 13.381C32.2883 13.3811 32.2883 13.3811 32.2883 13.3811C32.2883 13.3812 32.2883 13.3812 32.2883 13.3813C32.2883 13.3813 32.2883 13.3814 32.2883 13.3814C32.2883 13.3814 32.2883 13.3815 32.2883 13.3815C32.2883 13.3816 32.2883 13.3816 32.2883 13.3817C32.2883 13.3817 32.2883 13.3817 32.2883 13.3818C32.2883 13.3818 32.2883 13.3819 32.2883 13.3819C32.2883 13.382 32.2883 13.382 32.2883 13.382C32.2883 13.3821 32.2883 13.3821 32.2883 13.3822C32.2883 13.3822 32.2883 13.3822 32.2883 13.3823C32.2883 13.3823 32.2883 13.3824 32.2883 13.3824C32.2883 13.3825 32.2883 13.3825 32.2883 13.3825C32.2883 13.3826 32.2883 13.3826 32.2883 13.3827C32.2883 13.3827 32.2883 13.3827 32.2883 13.3828C32.2883 13.3828 32.2883 13.3829 32.2883 13.3829C32.2883 13.3829 32.2883 13.383 32.2883 13.383C32.2883 13.3831 32.2883 13.3831 32.2883 13.3832C32.2883 13.3832 32.2883 13.3832 32.2883 13.3833C32.2883 13.3833 32.2883 13.3834 32.2883 13.3834C32.2883 13.3834 32.2883 13.3835 32.2883 13.3835C32.2883 13.3835 32.2883 13.3836 32.2883 13.3836C32.2883 13.3837 32.2883 13.3837 32.2883 13.3837C32.2883 13.3838 32.2883 13.3838 32.2883 13.3839C32.2883 13.3839 32.2883 13.3839 32.2883 13.384C32.2883 13.384 32.2883 13.3841 32.2883 13.3841C32.2883 13.3841 32.2883 13.3842 32.2883 13.3842C32.2883 13.3842 32.2883 13.3843 32.2883 13.3843C32.2883 13.3844 32.2883 13.3844 32.2883 13.3844C32.2883 13.3845 32.2883 13.3845 32.2883 13.3845C32.2883 13.3846 32.2883 13.3846 32.2883 13.3847C32.2883 13.3847 32.2883 13.3847 32.2883 13.3848C32.2883 13.3848 32.2883 13.3848 32.2883 13.3849C32.2883 13.3849 32.2883 13.3849 32.2883 13.385C32.2883 13.385 32.2883 13.385 32.2883 13.3851C32.2883 13.3851 32.2883 13.3852 32.2883 13.3852C32.2883 13.3852 32.2883 13.3853 32.2883 13.3853C32.2883 13.3853 32.2883 13.3854 32.2883 13.3854C32.2883 13.3854 32.2883 13.3855 32.2883 13.3855C32.2883 13.3855 32.2883 13.3856 32.2883 13.3856C32.2883 13.3856 32.2883 13.3857 32.2883 13.3857C32.2883 13.3857 32.2883 13.3858 32.2883 13.3858C32.2883 13.3858 32.2883 13.3859 32.2883 13.3859C32.2883 13.3859 32.2883 13.386 32.2883 13.386C32.2883 13.386 32.2883 13.3861 32.2883 13.3861C32.2883 13.3861 32.2883 13.3862 32.2883 13.3862C32.2883 13.3862 32.2883 13.3863 32.2883 13.3863C32.2883 13.3863 32.2883 13.3864 32.2883 13.3864C32.2883 13.3864 32.2883 13.3864 32.2883 13.3865C32.2883 13.3865 32.2883 13.3865 32.2883 13.3866C32.2883 13.3866 32.2883 13.3866 32.2883 13.3867C32.2883 13.3867 32.2883 13.3867 32.2883 13.3867C32.2883 13.3868 32.2883 13.3868 32.2883 13.3868C32.2883 13.3869 32.2883 13.3869 32.2883 13.3869C32.2883 13.387 32.2883 13.387 32.2883 13.387C32.2883 13.387 32.2883 13.3871 32.2883 13.3871C32.2883 13.3871 32.2883 13.3871 32.2883 13.3872C32.2883 13.3872 32.2883 13.3872 32.2883 13.3873C32.2883 13.3873 32.2883 13.3873 32.2883 13.3873C32.2883 13.3874 32.2883 13.3874 32.2883 13.3874C32.2883 13.3874 32.2883 13.3875 32.2883 13.3875C32.2883 13.3875 32.2883 13.3875 32.2883 13.3876C32.2883 13.3876 32.2883 13.3876 32.2883 13.3876C32.2883 13.3877 32.2883 13.3877 32.2883 13.3877C32.2883 13.3877 32.2883 13.3878 32.2883 13.3878C32.2883 13.3878 32.2883 13.3878 32.2883 13.3879C32.2883 13.3879 32.2883 13.3879 32.2883 13.3879C32.2883 13.388 32.2883 13.388 32.2883 13.388C32.2883 13.388 32.2883 13.3881 32.2883 13.3881C32.2883 13.3881 32.2883 13.3881 32.2883 13.3881C32.2883 13.3882 32.2883 13.3882 32.2883 13.3882C32.2883 13.3882 32.2883 13.3882 32.2883 13.3883C32.2883 13.3883 32.2883 13.3883 32.2883 13.3883C32.2883 13.3884 32.2883 13.3884 32.2883 13.3884C32.2883 13.3884 32.2883 13.3884 32.2883 13.3885C32.2883 13.3885 32.2883 13.3885 32.2883 13.3885C32.2883 13.3885 32.2883 13.3885 32.2883 13.3886C32.2883 13.3886 32.2883 13.3886 32.2883 13.3886C32.2883 13.3886 32.2883 13.3887 32.2883 13.3887C32.2883 13.3887 32.2883 13.3887 32.2883 13.3887C32.2883 13.3887 32.2883 13.3888 32.2883 13.3888C32.2883 13.3888 32.2883 13.3888 32.2883 13.3888C32.2883 13.3888 32.2883 13.3889 32.2883 13.3889C32.2883 13.3889 32.2883 13.3889 32.2883 13.3889C32.2883 13.3889 32.2883 13.3889 32.2883 13.389C32.2883 13.389 32.2883 13.389 32.2883 13.389C32.2883 13.389 32.2883 13.389 32.2883 13.389C32.2883 13.3891 32.2883 13.3891 32.2883 13.3891C32.2883 13.3891 32.2883 13.3891 32.2883 13.3891C32.2883 13.3891 32.2883 13.3891 32.2883 13.3892C32.2883 13.3892 32.2883 13.3892 32.2883 13.3892C32.2883 13.3892 32.2883 13.3892 32.2883 13.3892C32.2883 13.3892 32.2883 13.3892 32.2883 13.3893C32.2883 13.3893 32.2883 13.3893 32.2883 13.3893C32.2883 13.3893 32.2883 13.3893 32.2883 13.3893C32.2883 13.3893 32.2883 13.3893 32.2883 13.3893C32.2883 13.3893 32.2883 13.3894 32.2883 13.3894C32.2883 13.3894 32.2883 13.3894 32.2883 13.3894C32.2883 13.3894 32.2883 13.3894 32.2883 13.3894C32.2883 13.3894 32.2883 13.3894 32.2883 13.3894C32.2883 13.3894 32.2883 13.3894 32.2883 13.3894C32.2883 13.3894 32.2883 13.3895 32.2883 13.3895C32.2883 13.3895 32.2883 13.3895 32.2883 13.3895C32.2883 13.3895 32.2883 13.3895 32.2883 13.3895C32.2883 13.3895 32.2883 13.3895 32.2883 13.3895C32.2883 13.3895 32.2883 13.3895 32.2883 13.3895C32.2883 13.3895 32.2883 13.3895 32.2883 13.3895C32.2883 13.3895 32.2883 13.3895 32.2883 13.3895C32.2883 13.3895 32.2883 13.3895 32.2883 13.3895C32.2883 13.3895 32.4883 13.3895 32.6883 13.3895C32.6883 13.3895 32.6883 13.3895 32.6883 13.3895C32.6883 13.3895 32.6883 13.3895 32.6883 13.3895C32.6883 13.3895 32.6883 13.3895 32.6883 13.3895C32.6883 13.3895 32.6883 13.3895 32.6883 13.3895C32.6883 13.3895 32.6883 13.3895 32.6883 13.3895C32.6883 13.3895 32.6883 13.3895 32.6883 13.3895C32.6883 13.3895 32.6883 13.3895 32.6883 13.3895C32.6883 13.3895 32.6883 13.3895 32.6883 13.3894C32.6883 13.3894 32.6883 13.3894 32.6883 13.3894C32.6883 13.3894 32.6883 13.3894 32.6883 13.3894C32.6883 13.3894 32.6883 13.3894 32.6883 13.3894C32.6883 13.3894 32.6883 13.3894 32.6883 13.3894C32.6883 13.3894 32.6883 13.3894 32.6883 13.3893C32.6883 13.3893 32.6883 13.3893 32.6883 13.3893C32.6883 13.3893 32.6883 13.3893 32.6883 13.3893C32.6883 13.3893 32.6883 13.3893 32.6883 13.3893C32.6883 13.3892 32.6883 13.3892 32.6883 13.3892C32.6883 13.3892 32.6883 13.3892 32.6883 13.3892C32.6883 13.3892 32.6883 13.3892 32.6883 13.3891C32.6883 13.3891 32.6883 13.3891 32.6883 13.3891C32.6883 13.3891 32.6883 13.3891 32.6883 13.3891C32.6883 13.3891 32.6883 13.389 32.6883 13.389C32.6883 13.389 32.6883 13.389 32.6883 13.389C32.6883 13.389 32.6883 13.3889 32.6883 13.3889C32.6883 13.3889 32.6883 13.3889 32.6883 13.3889C32.6883 13.3889 32.6883 13.3888 32.6883 13.3888C32.6883 13.3888 32.6883 13.3888 32.6883 13.3888C32.6883 13.3887 32.6883 13.3887 32.6883 13.3887C32.6883 13.3887 32.6883 13.3887 32.6883 13.3886C32.6883 13.3886 32.6883 13.3886 32.6883 13.3886C32.6883 13.3886 32.6883 13.3885 32.6883 13.3885C32.6883 13.3885 32.6883 13.3885 32.6883 13.3885C32.6883 13.3884 32.6883 13.3884 32.6883 13.3884C32.6883 13.3884 32.6883 13.3883 32.6883 13.3883C32.6883 13.3883 32.6883 13.3883 32.6883 13.3882C32.6883 13.3882 32.6883 13.3882 32.6883 13.3882C32.6883 13.3881 32.6883 13.3881 32.6883 13.3881C32.6883 13.3881 32.6883 13.388 32.6883 13.388C32.6883 13.388 32.6883 13.3879 32.6883 13.3879C32.6883 13.3879 32.6883 13.3879 32.6883 13.3878C32.6883 13.3878 32.6883 13.3878 32.6883 13.3877C32.6883 13.3877 32.6883 13.3877 32.6883 13.3877C32.6883 13.3876 32.6883 13.3876 32.6883 13.3876C32.6883 13.3875 32.6883 13.3875 32.6883 13.3875C32.6883 13.3874 32.6883 13.3874 32.6883 13.3874C32.6883 13.3873 32.6883 13.3873 32.6883 13.3873C32.6883 13.3872 32.6883 13.3872 32.6883 13.3872C32.6883 13.3871 32.6883 13.3871 32.6883 13.3871C32.6883 13.387 32.6883 13.387 32.6883 13.387C32.6883 13.3869 32.6883 13.3869 32.6883 13.3868C32.6883 13.3868 32.6883 13.3868 32.6883 13.3867C32.6883 13.3867 32.6883 13.3867 32.6883 13.3866C32.6883 13.3866 32.6883 13.3865 32.6883 13.3865C32.6883 13.3865 32.6883 13.3864 32.6883 13.3864C32.6883 13.3863 32.6883 13.3863 32.6883 13.3863C32.6883 13.3862 32.6883 13.3862 32.6883 13.3861C32.6883 13.3861 32.6883 13.386 32.6883 13.386C32.6883 13.386 32.6883 13.3859 32.6883 13.3859C32.6883 13.3858 32.6883 13.3858 32.6883 13.3857C32.6883 13.3857 32.6883 13.3856 32.6883 13.3856C32.6883 13.3855 32.6883 13.3855 32.6883 13.3855C32.6883 13.3854 32.6883 13.3854 32.6883 13.3853C32.6883 13.3853 32.6883 13.3852 32.6883 13.3852C32.6883 13.3851 32.6883 13.3851 32.6883 13.385C32.6883 13.385 32.6883 13.3849 32.6883 13.3849C32.6883 13.3848 32.6883 13.3848 32.6883 13.3847C32.6883 13.3847 32.6883 13.3846 32.6883 13.3846C32.6883 13.3845 32.6883 13.3845 32.6883 13.3844C32.6883 13.3844 32.6883 13.3843 32.6883 13.3842C32.6883 13.3842 32.6883 13.3841 32.6883 13.3841C32.6883 13.384 32.6883 13.384 32.6883 13.3839C32.6883 13.3839 32.6883 13.3838 32.6883 13.3837C32.6883 13.3837 32.6883 13.3836 32.6883 13.3836C32.6883 13.3835 32.6883 13.3835 32.6883 13.3834C32.6883 13.3833 32.6883 13.3833 32.6883 13.3832C32.6883 13.3832 32.6883 13.3831 32.6883 13.383C32.6883 13.383 32.6883 13.3829 32.6883 13.3829C32.6883 13.3828 32.6883 13.3827 32.6883 13.3827C32.6883 13.3826 32.6883 13.3825 32.6883 13.3825C32.6883 13.3824 32.6883 13.3823 32.6883 13.3823C32.6883 13.3822 32.6883 13.3822 32.6883 13.3821C32.6883 13.382 32.6883 13.382 32.6883 13.3819C32.6883 13.3818 32.6883 13.3818 32.6883 13.3817C32.6883 13.3816 32.6883 13.3815 32.6883 13.3815C32.6883 13.3814 32.6883 13.3813 32.6883 13.3813C32.6883 13.3812 32.6883 13.3811 32.6883 13.3811C32.6883 13.381 32.6883 13.3809 32.6883 13.3808C32.6883 13.3808 32.6883 13.3807 32.6883 13.3806C32.6883 13.3806 32.6883 13.3805 32.6883 13.3804C32.6883 13.3803 32.6883 13.3803 32.6883 13.3802C32.6883 13.3801 32.6883 13.38 32.6883 13.38C32.6883 13.3799 32.6883 13.3798 32.6883 13.3797C32.6883 13.3797 32.6883 13.3796 32.6883 13.3795C32.6883 13.3794 32.6883 13.3793 32.6883 13.3793C32.6883 13.3792 32.6883 13.3791 32.6883 13.379C32.6883 13.379 32.6883 13.3789 32.6883 13.3788C32.6883 13.3787 32.6883 13.3786 32.6883 13.3785C32.6883 13.3785 32.6883 13.3784 32.6883 13.3783C32.6883 13.3782 32.6883 13.3781 32.6883 13.378C32.6883 13.378 32.6883 13.3779 32.6883 13.3778C32.6883 13.3777 32.6883 13.3776 32.6883 13.3775C32.6883 13.3774 32.6883 13.3774 32.6883 13.3773C32.6883 13.3772 32.6883 13.3771 32.6883 13.377C32.6883 13.3769 32.6883 13.3768 32.6883 13.3767C32.6883 13.3767 32.6883 13.3766 32.6883 13.3765C32.6883 13.3764 32.6883 13.3763 32.6883 13.3762C32.6883 13.3761 32.6883 13.376 32.6883 13.3759C32.6883 13.3758 32.6883 13.3757 32.6883 13.3756H32.2883C32.2883 13.3757 32.2883 13.3758 32.2883 13.3759C32.2883 13.376 32.2883 13.3761 32.2883 13.3762C32.2883 13.3763 32.2883 13.3764 32.2883 13.3765C32.2883 13.3766 32.2883 13.3767 32.2883 13.3767C32.2883 13.3768 32.2883 13.3769 32.2883 13.377C32.2883 13.3771 32.2883 13.3772 32.2883 13.3773C32.2883 13.3774 32.2883 13.3774 32.2883 13.3775C32.2883 13.3776 32.2883 13.3777 32.2883 13.3778C32.2883 13.3779 32.2883 13.378 32.2883 13.378C32.2883 13.3781 32.2883 13.3782 32.2883 13.3783C32.2883 13.3784 32.2883 13.3785 32.2883 13.3785C32.2883 13.3786 32.2883 13.3787 32.2883 13.3788C32.2883 13.3789 32.2883 13.379 32.2883 13.379C32.2883 13.3791 32.2883 13.3792 32.2883 13.3793C32.2883 13.3793 32.2883 13.3794 32.2883 13.3795C32.2883 13.3796 32.2883 13.3797 32.2883 13.3797C32.2883 13.3798 32.2883 13.3799 32.2883 13.38C32.2883 13.38 32.2883 13.3801 32.2883 13.3802C32.2883 13.3803 32.2883 13.3803 32.2883 13.3804C32.2883 13.3805 32.2883 13.3806 32.2883 13.3806C32.2883 13.3807 32.2883 13.3808 32.2883 13.3808C32.2883 13.3809 32.2883 13.381 32.2883 13.3811C32.2883 13.3811 32.2883 13.3812 32.2883 13.3813C32.2883 13.3813 32.2883 13.3814 32.2883 13.3815C32.2883 13.3815 32.2883 13.3816 32.2883 13.3817C32.2883 13.3818 32.2883 13.3818 32.2883 13.3819C32.2883 13.382 32.2883 13.382 32.2883 13.3821C32.2883 13.3822 32.2883 13.3822 32.2883 13.3823C32.2883 13.3823 32.2883 13.3824 32.2883 13.3825C32.2883 13.3825 32.2883 13.3826 32.2883 13.3827C32.2883 13.3827 32.2883 13.3828 32.2883 13.3829C32.2883 13.3829 32.2883 13.383 32.2883 13.383C32.2883 13.3831 32.2883 13.3832 32.2883 13.3832C32.2883 13.3833 32.2883 13.3833 32.2883 13.3834C32.2883 13.3835 32.2883 13.3835 32.2883 13.3836C32.2883 13.3836 32.2883 13.3837 32.2883 13.3837C32.2883 13.3838 32.2883 13.3839 32.2883 13.3839C32.2883 13.384 32.2883 13.384 32.2883 13.3841C32.2883 13.3841 32.2883 13.3842 32.2883 13.3842C32.2883 13.3843 32.2883 13.3844 32.2883 13.3844C32.2883 13.3845 32.2883 13.3845 32.2883 13.3846C32.2883 13.3846 32.2883 13.3847 32.2883 13.3847C32.2883 13.3848 32.2883 13.3848 32.2883 13.3849C32.2883 13.3849 32.2883 13.385 32.2883 13.385C32.2883 13.3851 32.2883 13.3851 32.2883 13.3852C32.2883 13.3852 32.2883 13.3853 32.2883 13.3853C32.2883 13.3854 32.2883 13.3854 32.2883 13.3855C32.2883 13.3855 32.2883 13.3855 32.2883 13.3856C32.2883 13.3856 32.2883 13.3857 32.2883 13.3857C32.2883 13.3858 32.2883 13.3858 32.2883 13.3859C32.2883 13.3859 32.2883 13.386 32.2883 13.386C32.2883 13.386 32.2883 13.3861 32.2883 13.3861C32.2883 13.3862 32.2883 13.3862 32.2883 13.3863C32.2883 13.3863 32.2883 13.3863 32.2883 13.3864C32.2883 13.3864 32.2883 13.3865 32.2883 13.3865C32.2883 13.3865 32.2883 13.3866 32.2883 13.3866C32.2883 13.3867 32.2883 13.3867 32.2883 13.3867C32.2883 13.3868 32.2883 13.3868 32.2883 13.3868C32.2883 13.3869 32.2883 13.3869 32.2883 13.387C32.2883 13.387 32.2883 13.387 32.2883 13.3871C32.2883 13.3871 32.2883 13.3871 32.2883 13.3872C32.2883 13.3872 32.2883 13.3872 32.2883 13.3873C32.2883 13.3873 32.2883 13.3873 32.2883 13.3874C32.2883 13.3874 32.2883 13.3874 32.2883 13.3875C32.2883 13.3875 32.2883 13.3875 32.2883 13.3876C32.2883 13.3876 32.2883 13.3876 32.2883 13.3877C32.2883 13.3877 32.2883 13.3877 32.2883 13.3877C32.2883 13.3878 32.2883 13.3878 32.2883 13.3878C32.2883 13.3879 32.2883 13.3879 32.2883 13.3879C32.2883 13.3879 32.2883 13.388 32.2883 13.388C32.2883 13.388 32.2883 13.3881 32.2883 13.3881C32.2883 13.3881 32.2883 13.3881 32.2883 13.3882C32.2883 13.3882 32.2883 13.3882 32.2883 13.3882C32.2883 13.3883 32.2883 13.3883 32.2883 13.3883C32.2883 13.3883 32.2883 13.3884 32.2883 13.3884C32.2883 13.3884 32.2883 13.3884 32.2883 13.3885C32.2883 13.3885 32.2883 13.3885 32.2883 13.3885C32.2883 13.3885 32.2883 13.3886 32.2883 13.3886C32.2883 13.3886 32.2883 13.3886 32.2883 13.3886C32.2883 13.3887 32.2883 13.3887 32.2883 13.3887C32.2883 13.3887 32.2883 13.3887 32.2883 13.3888C32.2883 13.3888 32.2883 13.3888 32.2883 13.3888C32.2883 13.3888 32.2883 13.3889 32.2883 13.3889C32.2883 13.3889 32.2883 13.3889 32.2883 13.3889C32.2883 13.3889 32.2883 13.389 32.2883 13.389C32.2883 13.389 32.2883 13.389 32.2883 13.389C32.2883 13.389 32.2883 13.3891 32.2883 13.3891C32.2883 13.3891 32.2883 13.3891 32.2883 13.3891C32.2883 13.3891 32.2883 13.3891 32.2883 13.3891C32.2883 13.3892 32.2883 13.3892 32.2883 13.3892C32.2883 13.3892 32.2883 13.3892 32.2883 13.3892C32.2883 13.3892 32.2883 13.3892 32.2883 13.3893C32.2883 13.3893 32.2883 13.3893 32.2883 13.3893C32.2883 13.3893 32.2883 13.3893 32.2883 13.3893C32.2883 13.3893 32.2883 13.3893 32.2883 13.3893C32.2883 13.3894 32.2883 13.3894 32.2883 13.3894C32.2883 13.3894 32.2883 13.3894 32.2883 13.3894C32.2883 13.3894 32.2883 13.3894 32.2883 13.3894C32.2883 13.3894 32.2883 13.3894 32.2883 13.3894C32.2883 13.3894 32.2883 13.3894 32.2883 13.3894C32.2883 13.3895 32.2883 13.3895 32.2883 13.3895C32.2883 13.3895 32.2883 13.3895 32.2883 13.3895C32.2883 13.3895 32.2883 13.3895 32.2883 13.3895C32.2883 13.3895 32.2883 13.3895 32.2883 13.3895C32.2883 13.3895 32.2883 13.3895 32.2883 13.3895C32.2883 13.3895 32.2883 13.3895 32.2883 13.3895C32.2883 13.3895 32.2883 13.3895 32.2883 13.3895C32.2883 13.3895 32.2883 13.3895 32.2883 13.3895C32.4883 13.3895 32.6883 13.3895 32.6883 13.3895C32.6883 13.3895 32.6883 13.3895 32.6883 13.3895C32.6883 13.3895 32.6883 13.3895 32.6883 13.3895C32.6883 13.3895 32.6883 13.3895 32.6883 13.3895C32.6883 13.3895 32.6883 13.3895 32.6883 13.3895C32.6883 13.3895 32.6883 13.3895 32.6883 13.3895C32.6883 13.3895 32.6883 13.3895 32.6883 13.3895C32.6883 13.3895 32.6883 13.3895 32.6883 13.3895C32.6883 13.3895 32.6883 13.3894 32.6883 13.3894C32.6883 13.3894 32.6883 13.3894 32.6883 13.3894C32.6883 13.3894 32.6883 13.3894 32.6883 13.3894C32.6883 13.3894 32.6883 13.3894 32.6883 13.3894C32.6883 13.3894 32.6883 13.3894 32.6883 13.3894C32.6883 13.3894 32.6883 13.3893 32.6883 13.3893C32.6883 13.3893 32.6883 13.3893 32.6883 13.3893C32.6883 13.3893 32.6883 13.3893 32.6883 13.3893C32.6883 13.3893 32.6883 13.3893 32.6883 13.3893C32.6883 13.3892 32.6883 13.3892 32.6883 13.3892C32.6883 13.3892 32.6883 13.3892 32.6883 13.3892C32.6883 13.3892 32.6883 13.3892 32.6883 13.3892C32.6883 13.3891 32.6883 13.3891 32.6883 13.3891C32.6883 13.3891 32.6883 13.3891 32.6883 13.3891C32.6883 13.3891 32.6883 13.3891 32.6883 13.389C32.6883 13.389 32.6883 13.389 32.6883 13.389C32.6883 13.389 32.6883 13.389 32.6883 13.389C32.6883 13.3889 32.6883 13.3889 32.6883 13.3889C32.6883 13.3889 32.6883 13.3889 32.6883 13.3889C32.6883 13.3889 32.6883 13.3888 32.6883 13.3888C32.6883 13.3888 32.6883 13.3888 32.6883 13.3888C32.6883 13.3888 32.6883 13.3887 32.6883 13.3887C32.6883 13.3887 32.6883 13.3887 32.6883 13.3887C32.6883 13.3887 32.6883 13.3886 32.6883 13.3886C32.6883 13.3886 32.6883 13.3886 32.6883 13.3886C32.6883 13.3885 32.6883 13.3885 32.6883 13.3885C32.6883 13.3885 32.6883 13.3885 32.6883 13.3885C32.6883 13.3884 32.6883 13.3884 32.6883 13.3884C32.6883 13.3884 32.6883 13.3884 32.6883 13.3883C32.6883 13.3883 32.6883 13.3883 32.6883 13.3883C32.6883 13.3882 32.6883 13.3882 32.6883 13.3882C32.6883 13.3882 32.6883 13.3882 32.6883 13.3881C32.6883 13.3881 32.6883 13.3881 32.6883 13.3881C32.6883 13.3881 32.6883 13.388 32.6883 13.388C32.6883 13.388 32.6883 13.388 32.6883 13.3879C32.6883 13.3879 32.6883 13.3879 32.6883 13.3879C32.6883 13.3878 32.6883 13.3878 32.6883 13.3878C32.6883 13.3878 32.6883 13.3877 32.6883 13.3877C32.6883 13.3877 32.6883 13.3877 32.6883 13.3876C32.6883 13.3876 32.6883 13.3876 32.6883 13.3876C32.6883 13.3875 32.6883 13.3875 32.6883 13.3875C32.6883 13.3875 32.6883 13.3874 32.6883 13.3874C32.6883 13.3874 32.6883 13.3874 32.6883 13.3873C32.6883 13.3873 32.6883 13.3873 32.6883 13.3873C32.6883 13.3872 32.6883 13.3872 32.6883 13.3872C32.6883 13.3871 32.6883 13.3871 32.6883 13.3871C32.6883 13.3871 32.6883 13.387 32.6883 13.387C32.6883 13.387 32.6883 13.387 32.6883 13.3869C32.6883 13.3869 32.6883 13.3869 32.6883 13.3868C32.6883 13.3868 32.6883 13.3868 32.6883 13.3867C32.6883 13.3867 32.6883 13.3867 32.6883 13.3867C32.6883 13.3866 32.6883 13.3866 32.6883 13.3866C32.6883 13.3865 32.6883 13.3865 32.6883 13.3865C32.6883 13.3864 32.6883 13.3864 32.6883 13.3864C32.6883 13.3864 32.6883 13.3863 32.6883 13.3863C32.6883 13.3863 32.6883 13.3862 32.6883 13.3862C32.6883 13.3862 32.6883 13.3861 32.6883 13.3861C32.6883 13.3861 32.6883 13.386 32.6883 13.386C32.6883 13.386 32.6883 13.3859 32.6883 13.3859C32.6883 13.3859 32.6883 13.3858 32.6883 13.3858C32.6883 13.3858 32.6883 13.3857 32.6883 13.3857C32.6883 13.3857 32.6883 13.3856 32.6883 13.3856C32.6883 13.3856 32.6883 13.3855 32.6883 13.3855C32.6883 13.3855 32.6883 13.3854 32.6883 13.3854C32.6883 13.3854 32.6883 13.3853 32.6883 13.3853C32.6883 13.3853 32.6883 13.3852 32.6883 13.3852C32.6883 13.3852 32.6883 13.3851 32.6883 13.3851C32.6883 13.385 32.6883 13.385 32.6883 13.385C32.6883 13.3849 32.6883 13.3849 32.6883 13.3849C32.6883 13.3848 32.6883 13.3848 32.6883 13.3848C32.6883 13.3847 32.6883 13.3847 32.6883 13.3847C32.6883 13.3846 32.6883 13.3846 32.6883 13.3845C32.6883 13.3845 32.6883 13.3845 32.6883 13.3844C32.6883 13.3844 32.6883 13.3844 32.6883 13.3843C32.6883 13.3843 32.6883 13.3842 32.6883 13.3842C32.6883 13.3842 32.6883 13.3841 32.6883 13.3841C32.6883 13.3841 32.6883 13.384 32.6883 13.384C32.6883 13.3839 32.6883 13.3839 32.6883 13.3839C32.6883 13.3838 32.6883 13.3838 32.6883 13.3837C32.6883 13.3837 32.6883 13.3837 32.6883 13.3836C32.6883 13.3836 32.6883 13.3835 32.6883 13.3835C32.6883 13.3835 32.6883 13.3834 32.6883 13.3834C32.6883 13.3834 32.6883 13.3833 32.6883 13.3833C32.6883 13.3832 32.6883 13.3832 32.6883 13.3832C32.6883 13.3831 32.6883 13.3831 32.6883 13.383C32.6883 13.383 32.6883 13.3829 32.6883 13.3829C32.6883 13.3829 32.6883 13.3828 32.6883 13.3828C32.6883 13.3827 32.6883 13.3827 32.6883 13.3827C32.6883 13.3826 32.6883 13.3826 32.6883 13.3825C32.6883 13.3825 32.6883 13.3825 32.6883 13.3824C32.6883 13.3824 32.6883 13.3823 32.6883 13.3823C32.6883 13.3822 32.6883 13.3822 32.6883 13.3822C32.6883 13.3821 32.6883 13.3821 32.6883 13.382C32.6883 13.382 32.6883 13.382 32.6883 13.3819C32.6883 13.3819 32.6883 13.3818 32.6883 13.3818C32.6883 13.3817 32.6883 13.3817 32.6883 13.3817C32.6883 13.3816 32.6883 13.3816 32.6883 13.3815C32.6883 13.3815 32.6883 13.3814 32.6883 13.3814C32.6883 13.3814 32.6883 13.3813 32.6883 13.3813C32.6883 13.3812 32.6883 13.3812 32.6883 13.3811C32.6883 13.3811 32.6883 13.3811 32.6883 13.381C32.6883 13.381 32.6883 13.3809 32.6883 13.3809C32.6883 13.3808 32.6883 13.3808 32.6883 13.3807C32.6883 13.3807 32.6883 13.3807 32.6883 13.3806C32.6883 13.3806 32.6883 13.3805 32.6883 13.3805C32.6883 13.3804 32.6883 13.3804 32.6883 13.3803C32.6883 13.3803 32.6883 13.3803 32.6883 13.3802C32.6883 13.3802 32.6883 13.3801 32.6883 13.3801C32.6883 13.38 32.6883 13.38 32.6883 13.3799C32.6883 13.3799 32.6883 13.3799 32.6883 13.3798C32.6883 13.3798 32.6883 13.3797 32.6883 13.3797C32.6883 13.3796 32.6883 13.3796 32.6883 13.3795C32.6883 13.3795 32.6883 13.3794 32.6883 13.3794C32.6883 13.3794 32.6883 13.3793 32.6883 13.3793C32.6883 13.3792 32.6883 13.3792 32.6883 13.3791C32.6883 13.3791 32.6883 13.379 32.6883 13.379C32.6883 13.3789 32.6883 13.3789 32.6883 13.3789C32.6883 13.3788 32.6883 13.3788 32.6883 13.3787C32.6883 13.3787 32.6883 13.3786 32.6883 13.3786C32.6883 13.3785 32.6883 13.3785 32.6883 13.3784C32.6883 13.3784 32.6883 13.3784 32.6883 13.3783C32.6883 13.3783 32.6883 13.3782 32.6883 13.3782C32.6883 13.3781 32.6883 13.3781 32.6883 13.378C32.6883 13.378 32.6883 13.3779 32.6883 13.3779C32.6883 13.3778 32.6883 13.3778 32.6883 13.3777C32.6883 13.3777 32.6883 13.3777 32.6883 13.3776C32.6883 13.3776 32.6883 13.3775 32.6883 13.3775C32.6883 13.3774 32.6883 13.3774 32.6883 13.3773C32.6883 13.3773 32.6883 13.3772 32.6883 13.3772C32.6883 13.3771 32.6883 13.3771 32.6883 13.3771C32.6883 13.377 32.6883 13.377 32.6883 13.3769C32.6883 13.3769 32.6883 13.3768 32.6883 13.3768C32.6883 13.3767 32.6883 13.3767 32.6883 13.3766C32.6883 13.3766 32.6883 13.3765 32.6883 13.3765C32.6883 13.3764 32.6883 13.3764 32.6883 13.3763C32.6883 13.3763 32.6883 13.3763 32.6883 13.3762C32.6883 13.3762 32.6883 13.3761 32.6883 13.3761C32.6883 13.376 32.6883 13.376 32.6883 13.3759C32.6883 13.3759 32.6883 13.3758 32.6883 13.3758C32.6883 13.3757 32.6883 13.3757 32.6883 13.3756C32.6883 13.3756 32.6883 13.3756 32.6883 13.3755C32.6883 13.3755 32.6883 13.3754 32.6883 13.3754C32.6883 13.3753 32.6883 13.3753 32.6883 13.3752C32.6883 13.3752 32.6883 13.3751 32.6883 13.3751C32.6883 13.375 32.6883 13.375 32.6883 13.3749C32.6883 13.3749 32.6883 13.3748 32.6883 13.3748C32.6883 13.3748 32.6883 13.3747 32.6883 13.3747C32.6883 13.3746 32.6883 13.3746 32.6883 13.3745C32.6883 13.3745 32.6883 13.3744 32.6883 13.3744C32.6883 13.3743 32.6883 13.3743 32.6883 13.3742C32.6883 13.3742 32.6883 13.3741 32.6883 13.3741C32.6883 13.3741 32.6883 13.374 32.6883 13.374C32.6883 13.3739 32.6883 13.3739 32.6883 13.3738C32.6883 13.3738 32.6883 13.3737 32.6883 13.3737C32.6883 13.3736 32.6883 13.3736 32.6883 13.3735C32.6883 13.3735 32.6883 13.3734 32.6883 13.3734C32.6883 13.3734 32.6883 13.3733 32.6883 13.3733C32.6883 13.3732 32.6883 13.3732 32.6883 13.3731C32.6883 13.3731 32.6883 13.373 32.6883 13.373C32.6883 13.3729 32.6883 13.3729 32.6883 13.3728C32.6883 13.3728 32.6883 13.3728 32.6883 13.3727C32.6883 13.3727 32.6883 13.3726 32.6883 13.3726C32.6883 13.3725 32.6883 13.3725 32.6883 13.3724C32.6883 13.3724 32.6883 13.3723 32.6883 13.3723C32.6883 13.3723 32.6883 13.3722 32.6883 13.3722C32.6883 13.3721 32.6883 13.3721 32.6883 13.372C32.6883 13.372 32.6883 13.3719 32.6883 13.3719C32.6883 13.3718 32.6883 13.3718 32.6883 13.3718C32.6883 13.3717 32.6883 13.3717 32.6883 13.3716C32.6883 13.3716 32.6883 13.3715 32.6883 13.3715C32.6883 13.3714 32.6883 13.3714 32.6883 13.3713C32.6883 13.3713 32.6883 13.3713 32.6883 13.3712C32.6883 13.3712 32.6883 13.3711 32.6883 13.3711C32.6883 13.371 32.6883 13.371 32.6883 13.3709C32.6883 13.3709 32.6883 13.3709 32.6883 13.3708C32.6883 13.3708 32.6883 13.3707 32.6883 13.3707C32.6883 13.3706 32.6883 13.3706 32.6883 13.3705C32.6883 13.3705 32.6883 13.3705 32.6883 13.3704C32.6883 13.3704 32.6883 13.3703 32.6883 13.3703C32.6883 13.3702 32.6883 13.3702 32.6883 13.3702C32.6883 13.3701 32.6883 13.3701 32.6883 13.37C32.6883 13.37 32.6883 13.3699 32.6883 13.3699C32.6883 13.3699 32.6883 13.3698 32.6883 13.3698C32.6883 13.3697 32.6883 13.3697 32.6883 13.3696C32.6883 13.3696 32.6883 13.3696 32.6883 13.3695C32.6883 13.3695 32.6883 13.3694 32.6883 13.3694C32.6883 13.3693 32.6883 13.3693 32.6883 13.3693C32.6883 13.3692 32.6883 13.3692 32.6883 13.3691C32.6883 13.3691 32.6883 13.369 32.6883 13.369C32.6883 13.369 32.6883 13.3689 32.6883 13.3689C32.6883 13.3688 32.6883 13.3688 32.6883 13.3688C32.6883 13.3687 32.6883 13.3687 32.6883 13.3686C32.6883 13.3686 32.6883 13.3685 32.6883 13.3685C32.6883 13.3685 32.6883 13.3684 32.6883 13.3684C32.6883 13.3683 32.6883 13.3683 32.6883 13.3683C32.6883 13.3682 32.6883 13.3682 32.6883 13.3681C32.6883 13.3681 32.6883 13.3681 32.6883 13.368C32.6883 13.368 32.6883 13.3679 32.6883 13.3679C32.6883 13.3679 32.6883 13.3678 32.6883 13.3678C32.6883 13.3677 32.6883 13.3677 32.6883 13.3677C32.6883 13.3676 32.6883 13.3676 32.6883 13.3675C32.6883 13.3675 32.6883 13.3675 32.6883 13.3674C32.6883 13.3674 32.6883 13.3674 32.6883 13.3673C32.6883 13.3673 32.6883 13.3672 32.6883 13.3672C32.6883 13.3672 32.6883 13.3671 32.6883 13.3671C32.6883 13.367 32.6883 13.367 32.6883 13.367C32.6883 13.3669 32.6883 13.3669 32.6883 13.3669C32.6883 13.3668 32.6883 13.3668 32.6883 13.3668C32.6883 13.3667 32.6883 13.3667 32.6883 13.3666C32.6883 13.3666 32.6883 13.3666 32.6883 13.3665C32.6883 13.3665 32.6883 13.3665 32.6883 13.3664C32.6883 13.3664 32.6883 13.3663 32.6883 13.3663C32.6883 13.3663 32.6883 13.3662 32.6883 13.3662C32.6883 13.3662 32.6883 13.3661 32.6883 13.3661C32.6883 13.3661 32.6883 13.366 32.6883 13.366C32.6883 13.366 32.6883 13.3659 32.6883 13.3659C32.6883 13.3659 32.6883 13.3658 32.6883 13.3658C32.6883 13.3658 32.6883 13.3657 32.6883 13.3657C32.6883 13.3657 32.6883 13.3656 32.6883 13.3656C32.6883 13.3656 32.6883 13.3655 32.6883 13.3655C32.6883 13.3655 32.6883 13.3654 32.6883 13.3654C32.6883 13.3654 32.6883 13.3653 32.6883 13.3653C32.6883 13.3653 32.6883 13.3652 32.6883 13.3652C32.6883 13.3652 32.6883 13.3651 32.6883 13.3651C32.6883 13.3651 32.6883 13.365 32.6883 13.365C32.6883 13.365 32.6883 13.3649 32.6883 13.3649C32.6883 13.3649 32.6883 13.3648 32.6883 13.3648C32.6883 13.3648 32.6883 13.3648 32.6883 13.3647C32.6883 13.3647 32.6883 13.3647 32.6883 13.3646C32.6883 13.3646 32.6883 13.3646 32.6883 13.3645C32.6883 13.3645 32.6883 13.3645 32.6883 13.3645C32.6883 13.3644 32.6883 13.3644 32.6883 13.3644C32.6883 13.3643 32.6883 13.3643 32.6883 13.3643C32.6883 13.3643 32.6883 13.3642 32.6883 13.3642C32.6883 13.3642 32.6883 13.3641 32.6883 13.3641C32.6883 13.3641 32.6883 13.3641 32.6883 13.364C32.6883 13.364 32.6883 13.364 32.6883 13.364C32.6883 13.3639 32.6883 13.3639 32.6883 13.3639C32.6883 13.3638 32.6883 13.3638 32.6883 13.3638C32.6883 13.3638 32.6883 13.3637 32.6883 13.3637C32.6883 13.3637 32.6883 13.3637 32.6883 13.3636C32.6883 13.3636 32.6883 13.3636 32.6883 13.3636C32.6883 13.3635 32.6883 13.3635 32.6883 13.3635C32.6883 13.3635 32.6883 13.3634 32.6883 13.3634C32.6883 13.3634 32.6883 13.3634 32.6883 13.3634C32.6883 13.3633 32.6883 13.3633 32.6883 13.3633C32.6883 13.3633 32.6883 13.3632 32.6883 13.3632C32.6883 13.3632 32.6883 13.3632 32.6883 13.3632C32.6883 13.3631 32.6883 13.3631 32.6883 13.3631C32.6883 13.3631 32.6883 13.363 32.6883 13.363C32.6883 13.363 32.6883 13.363 32.6883 13.363C32.6883 13.3629 32.6883 13.3629 32.6883 13.3629C32.6883 13.3629 32.6883 13.3629 32.6883 13.3628C32.6883 13.3628 32.6883 13.3628 32.6883 13.3628C32.6883 13.3628 32.6883 13.3627 32.6883 13.3627C32.6883 13.3627 32.6883 13.3627 32.6883 13.3627C32.6883 13.3627 32.6883 13.3626 32.6883 13.3626C32.6883 13.3626 32.6883 13.3626 32.6883 13.3626C32.6883 13.3625 32.6883 13.3625 32.6883 13.3625C32.6883 13.3625 32.6883 13.3625 32.6883 13.3625C32.6883 13.3625 32.6883 13.3624 32.6883 13.3624C32.6883 13.3624 32.6883 13.3624 32.6883 13.3624C32.6883 13.3624 32.6883 13.3623 32.6883 13.3623C32.6883 13.3623 32.6883 13.3623 32.6883 13.3623C32.6883 13.3623 32.6883 13.3623 32.6883 13.3622C32.6883 13.3622 32.6883 13.3622 32.6883 13.3622C32.6883 13.3622 32.6883 13.3622 32.6883 13.3622C32.6883 13.3622 32.6883 13.3621 32.6883 13.3621C32.6883 13.3621 32.6883 13.3621 32.6883 13.3621C32.6883 13.3621 32.6883 13.3621 32.6883 13.3621C32.6883 13.3621 32.6883 13.362 32.6883 13.362C32.6883 13.362 32.6883 13.362 32.6883 13.362C32.6883 13.362 32.6883 13.362 32.6883 13.362C32.6883 13.362 32.6883 13.362 32.6883 13.362C32.6883 13.3619 32.6883 13.3619 32.6883 13.3619C32.6883 13.3619 32.6883 13.3619 32.6883 13.3619C32.6883 13.3619 32.6883 13.3619 32.6883 13.3619C32.6883 13.3619 32.6883 13.3619 32.6883 13.3619C32.6883 13.3619 32.6883 13.3619 32.6883 13.3618C32.6883 13.3618 32.6883 13.3618 32.6883 13.3618C32.6883 13.3618 32.6883 13.3618 32.6883 13.3618C32.6883 13.3618 32.6883 13.3618 32.6883 13.3618C32.6883 13.3618 32.6883 13.3618 32.6883 13.3618C32.6883 13.3618 32.6883 13.3618 32.6883 13.3618C32.6883 13.3618 32.6883 13.3618 32.6883 13.3618C32.6883 13.3618 32.6883 13.3618 32.6883 13.3618C32.6883 13.3618 32.6883 13.3618 32.6883 13.3618C32.6883 13.3618 32.4883 13.3618 32.2883 13.3618C32.2883 13.3618 32.2883 13.3618 32.2883 13.3618C32.2883 13.3618 32.2883 13.3618 32.2883 13.3618C32.2883 13.3618 32.2883 13.3618 32.2883 13.3618C32.2883 13.3618 32.2883 13.3618 32.2883 13.3618C32.2883 13.3618 32.2883 13.3618 32.2883 13.3618C32.2883 13.3618 32.2883 13.3618 32.2883 13.3618C32.2883 13.3618 32.2883 13.3618 32.2883 13.3618C32.2883 13.3618 32.2883 13.3618 32.2883 13.3618C32.2883 13.3618 32.2883 13.3619 32.2883 13.3619C32.2883 13.3619 32.2883 13.3619 32.2883 13.3619C32.2883 13.3619 32.2883 13.3619 32.2883 13.3619C32.2883 13.3619 32.2883 13.3619 32.2883 13.3619C32.2883 13.3619 32.2883 13.3619 32.2883 13.3619C32.2883 13.362 32.2883 13.362 32.2883 13.362C32.2883 13.362 32.2883 13.362 32.2883 13.362C32.2883 13.362 32.2883 13.362 32.2883 13.362C32.2883 13.362 32.2883 13.3621 32.2883 13.3621C32.2883 13.3621 32.2883 13.3621 32.2883 13.3621C32.2883 13.3621 32.2883 13.3621 32.2883 13.3621C32.2883 13.3622 32.2883 13.3622 32.2883 13.3622C32.2883 13.3622 32.2883 13.3622 32.2883 13.3622C32.2883 13.3622 32.2883 13.3623 32.2883 13.3623C32.2883 13.3623 32.2883 13.3623 32.2883 13.3623C32.2883 13.3623 32.2883 13.3623 32.2883 13.3624C32.2883 13.3624 32.2883 13.3624 32.2883 13.3624C32.2883 13.3624 32.2883 13.3625 32.2883 13.3625C32.2883 13.3625 32.2883 13.3625 32.2883 13.3625C32.2883 13.3625 32.2883 13.3626 32.2883 13.3626C32.2883 13.3626 32.2883 13.3626 32.2883 13.3626C32.2883 13.3627 32.2883 13.3627 32.2883 13.3627C32.2883 13.3627 32.2883 13.3627 32.2883 13.3628C32.2883 13.3628 32.2883 13.3628 32.2883 13.3628C32.2883 13.3629 32.2883 13.3629 32.2883 13.3629C32.2883 13.3629 32.2883 13.363 32.2883 13.363C32.2883 13.363 32.2883 13.363 32.2883 13.3631C32.2883 13.3631 32.2883 13.3631 32.2883 13.3631C32.2883 13.3632 32.2883 13.3632 32.2883 13.3632C32.2883 13.3632 32.2883 13.3633 32.2883 13.3633C32.2883 13.3633 32.2883 13.3633 32.2883 13.3634C32.2883 13.3634 32.2883 13.3634 32.2883 13.3635C32.2883 13.3635 32.2883 13.3635 32.2883 13.3635C32.2883 13.3636 32.2883 13.3636 32.2883 13.3636C32.2883 13.3637 32.2883 13.3637 32.2883 13.3637C32.2883 13.3638 32.2883 13.3638 32.2883 13.3638C32.2883 13.3639 32.2883 13.3639 32.2883 13.3639C32.2883 13.364 32.2883 13.364 32.2883 13.364C32.2883 13.3641 32.2883 13.3641 32.2883 13.3641C32.2883 13.3642 32.2883 13.3642 32.2883 13.3642C32.2883 13.3643 32.2883 13.3643 32.2883 13.3643C32.2883 13.3644 32.2883 13.3644 32.2883 13.3644C32.2883 13.3645 32.2883 13.3645 32.2883 13.3646C32.2883 13.3646 32.2883 13.3646 32.2883 13.3647C32.2883 13.3647 32.2883 13.3648 32.2883 13.3648C32.2883 13.3648 32.2883 13.3649 32.2883 13.3649C32.2883 13.365 32.2883 13.365 32.2883 13.365C32.2883 13.3651 32.2883 13.3651 32.2883 13.3652C32.2883 13.3652 32.2883 13.3653 32.2883 13.3653C32.2883 13.3653 32.2883 13.3654 32.2883 13.3654C32.2883 13.3655 32.2883 13.3655 32.2883 13.3656C32.2883 13.3656 32.2883 13.3657 32.2883 13.3657C32.2883 13.3657 32.2883 13.3658 32.2883 13.3658C32.2883 13.3659 32.2883 13.3659 32.2883 13.366C32.2883 13.366 32.2883 13.3661 32.2883 13.3661C32.2883 13.3662 32.2883 13.3662 32.2883 13.3663C32.2883 13.3663 32.2883 13.3664 32.2883 13.3664C32.2883 13.3665 32.2883 13.3665 32.2883 13.3666C32.2883 13.3666 32.2883 13.3667 32.2883 13.3667C32.2883 13.3668 32.2883 13.3668 32.2883 13.3669C32.2883 13.3669 32.2883 13.367 32.2883 13.367C32.2883 13.3671 32.2883 13.3672 32.2883 13.3672C32.2883 13.3673 32.2883 13.3673 32.2883 13.3674C32.2883 13.3674 32.2883 13.3675 32.2883 13.3675C32.2883 13.3676 32.2883 13.3677 32.2883 13.3677C32.2883 13.3678 32.2883 13.3678 32.2883 13.3679C32.2883 13.368 32.2883 13.368 32.2883 13.3681C32.2883 13.3681 32.2883 13.3682 32.2883 13.3683C32.2883 13.3683 32.2883 13.3684 32.2883 13.3684C32.2883 13.3685 32.2883 13.3686 32.2883 13.3686C32.2883 13.3687 32.2883 13.3688 32.2883 13.3688C32.2883 13.3689 32.2883 13.3689 32.2883 13.369C32.2883 13.3691 32.2883 13.3691 32.2883 13.3692C32.2883 13.3693 32.2883 13.3693 32.2883 13.3694C32.2883 13.3695 32.2883 13.3695 32.2883 13.3696C32.2883 13.3697 32.2883 13.3697 32.2883 13.3698C32.2883 13.3699 32.2883 13.3699 32.2883 13.37C32.2883 13.3701 32.2883 13.3702 32.2883 13.3702C32.2883 13.3703 32.2883 13.3704 32.2883 13.3704C32.2883 13.3705 32.2883 13.3706 32.2883 13.3707C32.2883 13.3707 32.2883 13.3708 32.2883 13.3709C32.2883 13.371 32.2883 13.371 32.2883 13.3711C32.2883 13.3712 32.2883 13.3713 32.2883 13.3713C32.2883 13.3714 32.2883 13.3715 32.2883 13.3716C32.2883 13.3716 32.2883 13.3717 32.2883 13.3718C32.2883 13.3719 32.2883 13.3719 32.2883 13.372C32.2883 13.3721 32.2883 13.3722 32.2883 13.3723C32.2883 13.3723 32.2883 13.3724 32.2883 13.3725C32.2883 13.3726 32.2883 13.3727 32.2883 13.3727C32.2883 13.3728 32.2883 13.3729 32.2883 13.373C32.2883 13.3731 32.2883 13.3732 32.2883 13.3732C32.2883 13.3733 32.2883 13.3734 32.2883 13.3735C32.2883 13.3736 32.2883 13.3737 32.2883 13.3738C32.2883 13.3738 32.2883 13.3739 32.2883 13.374C32.2883 13.3741 32.2883 13.3742 32.2883 13.3743C32.2883 13.3744 32.2883 13.3745 32.2883 13.3745C32.2883 13.3746 32.2883 13.3747 32.2883 13.3748C32.2883 13.3749 32.2883 13.375 32.2883 13.3751C32.2883 13.3752 32.2883 13.3753 32.2883 13.3754C32.2883 13.3755 32.2883 13.3756 32.2883 13.3756H32.6883ZM27.3848 25.7507L22.1532 19.5269L21.847 19.7842L27.0786 26.0081L27.3848 25.7507ZM22.0001 19.4555H14.129V19.8555H22.0001V19.4555ZM14.129 19.4555C12.2544 19.4555 10.3395 18.9914 8.89893 17.9472C7.46676 16.909 6.48937 15.2885 6.48937 12.9326H6.08937C6.08937 15.4168 7.12829 17.1577 8.66417 18.271C10.1917 19.3783 12.1966 19.8555 14.129 19.8555V19.4555ZM6.48937 12.9326C6.48937 10.5649 7.32556 8.96594 8.60476 7.95366C9.89154 6.93538 11.6517 6.49108 13.5281 6.49108V6.09108C11.5963 6.09108 9.73707 6.54752 8.35654 7.64C6.96842 8.73847 6.08937 10.4603 6.08937 12.9326H6.48937ZM13.5281 6.49108H20.0677V6.09108H13.5281V6.49108ZM20.0677 6.49108C21.9367 6.49108 23.6805 7.00811 24.9536 8.10073C26.222 9.18922 27.0448 10.8671 27.0448 13.2369H27.4448C27.4448 10.7666 26.5826 8.97158 25.2141 7.79718C23.8505 6.62692 22.0057 6.09108 20.0677 6.09108V6.49108ZM27.0448 13.2366L27.0304 25.8792L27.4304 25.8796L27.4448 13.2371L27.0448 13.2366ZM27.2304 26.0794H27.2317V25.6794H27.2304V26.0794Z" fill="black" mask="url(#path-1-outside-1_25857_10908)"/>
<path d="M57.5436 33.018H57.6436V32.918V27.631V27.531H57.5436H44.8475C43.6003 27.531 42.5862 26.5018 42.5862 25.229V1.76953V1.66953H42.4862H37.2388H37.1388V1.76953V25.712C37.1388 29.745 40.354 33.018 44.3227 33.018H57.5436Z" fill="black" stroke="black" stroke-width="0.2"/>
<rect width="42" height="18" transform="translate(58 1)" fill="#B6FC34"/>
<path d="M64.9117 14.12C64.2237 14.12 63.6797 13.944 63.2797 13.592C62.8877 13.232 62.6917 12.744 62.6917 12.128C62.6917 11.504 62.8997 11.016 63.3157 10.664C63.7397 10.304 64.3197 10.124 65.0557 10.124H66.8917V9.512C66.8917 9.152 66.7797 8.872 66.5557 8.672C66.3317 8.472 66.0157 8.372 65.6077 8.372C65.2477 8.372 64.9477 8.452 64.7077 8.612C64.4677 8.764 64.3277 8.968 64.2877 9.224H63.0157C63.0877 8.632 63.3597 8.16 63.8317 7.808C64.3117 7.456 64.9157 7.28 65.6437 7.28C66.4277 7.28 67.0477 7.48 67.5037 7.88C67.9597 8.272 68.1877 8.808 68.1877 9.488V14H66.9277V12.788H66.7117L66.9277 12.548C66.9277 13.028 66.7437 13.412 66.3757 13.7C66.0077 13.98 65.5197 14.12 64.9117 14.12ZM65.2957 13.124C65.7597 13.124 66.1397 13.008 66.4357 12.776C66.7397 12.536 66.8917 12.232 66.8917 11.864V11H65.0797C64.7437 11 64.4757 11.092 64.2757 11.276C64.0837 11.46 63.9877 11.712 63.9877 12.032C63.9877 12.368 64.1037 12.636 64.3357 12.836C64.5677 13.028 64.8877 13.124 65.2957 13.124ZM73.235 14C72.827 14 72.471 13.92 72.167 13.76C71.863 13.592 71.623 13.356 71.447 13.052C71.279 12.748 71.195 12.396 71.195 11.996V6.416H69.035V5.24H72.491V11.996C72.491 12.252 72.563 12.456 72.707 12.608C72.851 12.752 73.047 12.824 73.295 12.824H75.335V14H73.235ZM76.4103 16.16V7.4H77.6943V8.66H77.9703L77.6943 8.96C77.6943 8.44 77.8543 8.032 78.1743 7.736C78.5023 7.432 78.9383 7.28 79.4823 7.28C80.1463 7.28 80.6743 7.504 81.0663 7.952C81.4663 8.392 81.6663 8.996 81.6663 9.764V11.624C81.6663 12.136 81.5743 12.58 81.3903 12.956C81.2143 13.324 80.9623 13.612 80.6343 13.82C80.3143 14.02 79.9303 14.12 79.4823 14.12C78.9463 14.12 78.5143 13.972 78.1863 13.676C77.8583 13.372 77.6943 12.96 77.6943 12.44L77.9703 12.74H77.6703L77.7063 14.276V16.16H76.4103ZM79.0383 12.992C79.4623 12.992 79.7903 12.872 80.0223 12.632C80.2623 12.384 80.3823 12.028 80.3823 11.564V9.836C80.3823 9.372 80.2623 9.02 80.0223 8.78C79.7903 8.532 79.4623 8.408 79.0383 8.408C78.6303 8.408 78.3063 8.536 78.0663 8.792C77.8263 9.04 77.7063 9.388 77.7063 9.836V11.564C77.7063 12.012 77.8263 12.364 78.0663 12.62C78.3063 12.868 78.6303 12.992 79.0383 12.992ZM83.1257 14V5.24H84.4217V7.4L84.4097 8.66H84.7217L84.4097 8.96C84.4097 8.432 84.5657 8.02 84.8777 7.724C85.1897 7.428 85.6217 7.28 86.1737 7.28C86.8297 7.28 87.3537 7.492 87.7457 7.916C88.1377 8.332 88.3337 8.896 88.3337 9.608V14H87.0377V9.752C87.0377 9.32 86.9217 8.984 86.6897 8.744C86.4577 8.504 86.1417 8.384 85.7417 8.384C85.3337 8.384 85.0097 8.512 84.7697 8.768C84.5377 9.016 84.4217 9.372 84.4217 9.836V14H83.1257ZM91.773 14.12C91.085 14.12 90.541 13.944 90.141 13.592C89.749 13.232 89.553 12.744 89.553 12.128C89.553 11.504 89.761 11.016 90.177 10.664C90.601 10.304 91.181 10.124 91.917 10.124H93.753V9.512C93.753 9.152 93.641 8.872 93.417 8.672C93.193 8.472 92.877 8.372 92.469 8.372C92.109 8.372 91.809 8.452 91.569 8.612C91.329 8.764 91.189 8.968 91.149 9.224H89.877C89.949 8.632 90.221 8.16 90.693 7.808C91.173 7.456 91.777 7.28 92.505 7.28C93.289 7.28 93.909 7.48 94.365 7.88C94.821 8.272 95.049 8.808 95.049 9.488V14H93.789V12.788H93.573L93.789 12.548C93.789 13.028 93.605 13.412 93.237 13.7C92.869 13.98 92.381 14.12 91.773 14.12ZM92.157 13.124C92.621 13.124 93.001 13.008 93.297 12.776C93.601 12.536 93.753 12.232 93.753 11.864V11H91.941C91.605 11 91.337 11.092 91.137 11.276C90.945 11.46 90.849 11.712 90.849 12.032C90.849 12.368 90.965 12.636 91.197 12.836C91.429 13.028 91.749 13.124 92.157 13.124Z" fill="black"/>
</svg>
