<svg width="144" height="144" viewBox="0 0 144 144" fill="none" xmlns="http://www.w3.org/2000/svg">
<g clip-path="url(#clip0_2181_1227)">
<mask id="mask0_2181_1227" style="mask-type:luminance" maskUnits="userSpaceOnUse" x="0" y="0" width="144" height="144">
<path d="M144 0H0V144H144V0Z" fill="white"/>
</mask>
<g mask="url(#mask0_2181_1227)">
<path d="M144 0H0L0.000152979 144H144L144 0ZM28.8741 53.6188C28.8741 45.7518 35.2588 39.3671 43.1259 39.3671H70.56C70.9624 39.3671 71.3329 39.6106 71.5024 39.9812C71.6718 40.3518 71.5977 40.7859 71.3224 41.0929L65.3082 47.6259C64.26 48.7588 62.7882 49.4153 61.2424 49.4153H43.2C40.8388 49.4153 38.9224 51.3318 38.9224 53.6929V64.4718C38.9224 65.8588 37.8 66.9812 36.4129 66.9812H31.3941C30.0071 66.9812 28.8847 65.8588 28.8847 64.4718V53.6188H28.8741ZM114.226 90.3812C114.226 98.2482 107.841 104.633 99.9741 104.633H88.3165C80.4494 104.633 74.0647 98.2483 74.0647 90.3812V69.9776C74.0647 68.5906 74.5835 67.2565 75.5259 66.2294L82.3235 58.8494C82.6094 58.5424 83.0541 58.4365 83.4565 58.5847C83.8482 58.7435 84.1129 59.114 84.1129 59.5375V90.3175C84.1129 92.6787 86.0294 94.5952 88.3906 94.5952H99.9106C102.272 94.5952 104.188 92.6787 104.188 90.3175V53.6928C104.188 51.3317 102.272 49.4152 99.9106 49.4152H86.5165C84.9812 49.4152 83.52 50.0611 82.4718 51.1834L42.5224 94.5952H66.5259C67.9129 94.5952 69.0353 95.7175 69.0353 97.1046V102.123C69.0353 103.51 67.9129 104.633 66.5259 104.633H34.1788C31.2459 104.633 28.8635 102.25 28.8635 99.3175V96.6598C28.8635 95.3257 29.3612 94.0446 30.2718 93.0599L75.06 44.407C78.0247 41.1881 82.1859 39.367 86.5588 39.367H99.9635C107.831 39.367 114.215 45.7517 114.215 53.6187V90.3811L114.226 90.3812Z" fill="#FAFAFA"/>
<path d="M28.874 53.619C28.874 45.7519 35.2587 39.3672 43.1258 39.3672H70.5599C70.9623 39.3672 71.3328 39.6107 71.5023 39.9813C71.6717 40.3519 71.5976 40.786 71.3223 41.0931L65.3081 47.626C64.2599 48.759 62.7881 49.4154 61.2423 49.4154H43.1999C40.8387 49.4154 38.9223 51.3319 38.9223 53.6931V64.4719C38.9223 65.8589 37.7999 66.9813 36.4128 66.9813H31.394C30.007 66.9813 28.8846 65.8589 28.8846 64.4719V53.619H28.874Z" fill="black"/>
<path d="M114.226 90.3814C114.226 98.2485 107.841 104.633 99.9744 104.633H88.3167C80.4497 104.633 74.0649 98.2486 74.0649 90.3814V69.9779C74.0649 68.5908 74.5838 67.2567 75.5261 66.2296L82.3238 58.8496C82.6097 58.5426 83.0544 58.4367 83.4567 58.5849C83.8485 58.7438 84.1132 59.1142 84.1132 59.5378V90.3178C84.1132 92.6789 86.0297 94.5954 88.3908 94.5954H99.9108C102.272 94.5954 104.188 92.6789 104.188 90.3178V53.6931C104.188 51.3319 102.272 49.4154 99.9108 49.4154H86.5167C84.9814 49.4154 83.5202 50.0613 82.472 51.1837L42.5226 94.5954H66.5261C67.9132 94.5954 69.0355 95.7178 69.0355 97.1048V102.124C69.0355 103.511 67.9132 104.633 66.5261 104.633H34.1791C31.2461 104.633 28.8638 102.251 28.8638 99.3178V96.66C28.8638 95.3259 29.3614 94.0448 30.272 93.0601L75.0602 44.4072C78.0249 41.1884 82.1861 39.3672 86.5591 39.3672H99.9638C107.831 39.3672 114.216 45.7519 114.216 53.619V90.3813L114.226 90.3814Z" fill="black"/>
</g>
</g>
<defs>
<clipPath id="clip0_2181_1227">
<rect width="144" height="144" rx="20" fill="white"/>
</clipPath>
</defs>
</svg>
