<?xml version="1.0" encoding="UTF-8" standalone="no"?>
<!DOCTYPE svg PUBLIC "-//W3C//DTD SVG 1.1//EN" "http://www.w3.org/Graphics/SVG/1.1/DTD/svg11.dtd">
<svg xmlns="http://www.w3.org/2000/svg" version="1.1" viewBox="0.00 0.00 256.00 256.00">
<g stroke-width="2.00" fill="none" stroke-linecap="butt">
<path stroke="#d043fc" vector-effect="non-scaling-stroke" d="
  M 109.34 41.50
  Q 109.44 43.12 107.71 42.44
  Q 107.39 42.32 107.14 42.55
  L 105.81 43.77
  Q 105.47 44.08 105.02 44.00
  Q 102.51 43.57 101.35 45.63
  Q 101.10 46.09 100.58 46.07
  Q 99.05 46.03 98.00 47.08
  Q 97.93 47.15 97.98 47.23
  Q 98.06 47.34 98.10 47.45
  Q 98.13 47.53 98.09 47.61
  Q 98.00 47.75 97.89 47.87
  Q 97.73 48.03 97.51 48.00
  Q 97.06 47.95 96.93 47.62
  A 0.42 0.42 0.0 0 0 96.18 47.53
  Q 95.94 47.91 95.53 48.10
  Q 95.04 48.32 95.13 48.85
  Q 95.30 49.90 94.13 50.13
  Q 93.27 50.30 92.60 50.33
  Q 92.22 50.35 92.03 50.68
  Q 91.80 51.09 91.32 51.14
  Q 91.02 51.17 90.73 51.29
  Q 89.42 51.83 88.65 52.79
  Q 88.33 53.19 87.82 53.12
  Q 87.31 53.04 87.02 53.48
  Q 86.73 53.91 86.25 54.11
  Q 85.66 54.35 85.25 54.02
  A 0.82 0.32 33.4 0 1 84.88 53.50
  Q 84.88 53.37 84.88 53.25
  A 0.29 0.29 0.0 0 0 84.39 53.02
  Q 83.52 53.80 83.94 54.56
  Q 84.35 55.28 83.53 55.21
  L 82.00 55.09
  Q 81.75 55.07 81.83 55.31
  Q 81.89 55.49 81.79 55.64
  Q 81.43 56.17 80.97 55.72
  L 80.76 55.51
  A 0.39 0.39 0.0 0 0 80.15 55.58
  Q 79.75 56.22 78.96 56.13
  Q 78.50 56.08 78.22 56.45
  C 77.56 57.34 76.65 57.05 75.94 57.63
  Q 75.12 58.30 74.93 59.31
  Q 74.86 59.74 74.44 59.84
  Q 73.82 60.00 73.16 59.87
  Q 72.89 59.81 72.88 59.53
  Q 72.88 59.39 72.91 59.23
  Q 73.02 58.65 72.43 59.34
  Q 71.69 60.21 70.64 60.44
  Q 70.41 60.49 70.49 60.71
  L 70.71 61.31
  Q 70.85 61.72 70.51 61.98
  Q 70.17 62.23 69.71 62.10
  A 0.85 0.84 -67.3 0 0 68.72 62.51
  Q 68.24 63.39 67.37 62.90
  Q 67.18 62.80 67.12 63.00
  Q 67.03 63.32 67.25 63.49
  A 0.32 0.31 64.1 0 1 67.06 64.05
  L 60.71 64.05"
/>
<path stroke="#bb49f9" vector-effect="non-scaling-stroke" d="
  M 128.29 119.48
  L 123.93 122.37
  Q 123.52 122.64 123.03 122.53
  Q 122.17 122.35 121.50 123.04
  Q 121.13 123.42 121.13 123.95
  L 121.13 124.51
  Q 121.13 124.93 120.71 124.84
  Q 119.71 124.63 118.77 125.13
  A 0.59 0.57 -41.1 0 1 118.18 125.10
  Q 117.46 124.62 116.73 125.17
  Q 116.37 125.44 116.58 125.84
  L 116.87 126.41
  A 0.32 0.32 0.0 0 1 116.59 126.88
  L 115.86 126.88
  Q 115.52 126.88 115.27 127.11
  L 113.86 128.45
  Q 113.54 128.76 113.10 128.85
  L 111.68 129.16
  Q 111.24 129.26 110.84 129.04
  Q 110.10 128.63 109.20 129.21
  Q 108.76 129.49 108.52 129.95
  L 107.73 131.43
  Q 107.45 131.95 107.03 131.54
  L 106.75 131.25
  A 0.39 0.39 0.0 0 0 106.14 131.34
  Q 105.74 132.02 105.02 131.88
  A 1.07 1.04 -55.1 0 0 104.25 132.03
  Q 103.98 132.20 103.91 132.41
  Q 103.63 133.16 103.12 132.54
  Q 103.02 132.42 102.93 132.28
  Q 102.67 131.86 102.30 132.19
  Q 101.69 132.73 101.90 133.53
  A 0.45 0.45 0.0 0 1 101.24 134.04
  Q 100.50 133.62 99.87 134.12
  A 0.98 0.12 -14.9 0 1 99.25 134.37
  Q 99.01 134.45 98.86 134.34
  Q 98.51 134.11 98.20 134.39
  Q 97.65 134.89 96.94 135.01
  Q 96.52 135.09 96.40 135.50
  Q 96.30 135.83 96.44 136.21
  Q 96.53 136.44 96.76 136.37
  Q 97.03 136.28 96.77 136.79
  A 0.55 0.54 25.1 0 1 96.06 137.04
  Q 94.87 136.53 93.92 137.59
  Q 93.60 137.95 93.13 137.87
  Q 92.00 137.69 91.95 138.95
  A 1.22 1.22 0.0 0 1 90.34 140.06
  Q 88.97 139.60 87.88 140.62
  A 1.04 1.02 -61.4 0 1 87.02 140.88
  Q 86.35 140.77 85.98 141.27
  Q 85.83 141.48 85.60 141.63
  L 84.07 142.60
  Q 83.87 142.72 83.64 142.74
  Q 83.05 142.79 82.92 142.60
  Q 82.71 142.30 82.42 142.52
  Q 81.94 142.86 81.89 143.39
  Q 81.83 144.11 81.20 143.76
  Q 80.89 143.59 80.62 143.15
  A 0.35 0.35 0.0 0 0 80.00 143.21
  Q 79.81 143.70 79.87 144.27
  Q 79.92 144.71 79.50 144.88
  Q 79.06 145.05 78.90 145.46
  A 0.48 0.47 17.6 0 1 78.33 145.75
  L 77.76 145.61
  A 0.48 0.48 0.0 0 0 77.20 145.89
  Q 76.49 147.62 74.71 147.30
  Q 74.22 147.21 73.85 147.55
  Q 73.29 148.10 72.52 149.12
  Q 72.25 149.49 71.85 149.35
  Q 71.47 149.21 71.13 149.44
  Q 70.05 150.17 68.68 150.02
  Q 68.15 149.96 68.12 150.50
  Q 68.09 151.23 68.39 151.99"
/>
<path stroke="#a54ff6" vector-effect="non-scaling-stroke" d="
  M 92.97 173.78
  L 92.12 176.95
  Q 91.92 177.71 91.70 176.92
  Q 91.52 176.21 90.65 176.26
  Q 90.25 176.29 90.06 176.64
  Q 89.86 177.02 89.36 177.18
  Q 89.01 177.29 88.89 177.62
  Q 88.73 178.07 88.16 178.31
  A 0.45 0.45 0.0 0 0 87.97 178.98
  Q 88.35 179.51 87.85 179.89
  Q 87.40 180.24 87.05 179.78
  Q 86.60 179.19 86.94 178.43
  Q 86.99 178.31 86.90 178.21
  Q 86.80 178.10 86.65 178.09
  Q 86.29 178.05 86.15 178.38
  Q 85.71 179.42 84.58 179.12
  Q 84.20 179.02 84.11 179.39
  L 84.00 179.81
  Q 83.87 180.34 83.33 180.24
  Q 81.65 179.91 80.79 181.24
  A 0.40 0.40 0.0 0 1 80.26 181.37
  L 79.73 181.08
  A 0.43 0.42 -78.1 0 0 79.11 181.49
  Q 79.12 181.62 79.11 181.75
  Q 79.05 182.64 78.98 182.74
  L 77.37 184.90
  A 0.60 0.60 0.0 0 1 76.49 184.98
  Q 76.01 184.54 75.24 185.01
  Q 75.01 185.14 74.96 185.40
  Q 74.78 186.20 74.65 187.07
  Q 74.57 187.57 74.13 187.33
  L 73.87 187.19
  A 0.91 0.89 -47.6 0 0 72.95 187.24
  Q 71.63 188.13 70.32 188.98
  Q 70.27 189.01 70.23 188.97
  L 70.01 188.75
  Q 69.99 188.73 69.96 188.75
  C 68.89 189.51 67.88 190.88 66.80 191.37
  Q 66.04 191.71 65.14 191.94"
/>
</g>
<path fill="#db40fe" d="
  M 109.34 41.50
  Q 109.44 43.12 107.71 42.44
  Q 107.39 42.32 107.14 42.55
  L 105.81 43.77
  Q 105.47 44.08 105.02 44.00
  Q 102.51 43.57 101.35 45.63
  Q 101.10 46.09 100.58 46.07
  Q 99.05 46.03 98.00 47.08
  Q 97.93 47.15 97.98 47.23
  Q 98.06 47.34 98.10 47.45
  Q 98.13 47.53 98.09 47.61
  Q 98.00 47.75 97.89 47.87
  Q 97.73 48.03 97.51 48.00
  Q 97.06 47.95 96.93 47.62
  A 0.42 0.42 0.0 0 0 96.18 47.53
  Q 95.94 47.91 95.53 48.10
  Q 95.04 48.32 95.13 48.85
  Q 95.30 49.90 94.13 50.13
  Q 93.27 50.30 92.60 50.33
  Q 92.22 50.35 92.03 50.68
  Q 91.80 51.09 91.32 51.14
  Q 91.02 51.17 90.73 51.29
  Q 89.42 51.83 88.65 52.79
  Q 88.33 53.19 87.82 53.12
  Q 87.31 53.04 87.02 53.48
  Q 86.73 53.91 86.25 54.11
  Q 85.66 54.35 85.25 54.02
  A 0.82 0.32 33.4 0 1 84.88 53.50
  Q 84.88 53.37 84.88 53.25
  A 0.29 0.29 0.0 0 0 84.39 53.02
  Q 83.52 53.80 83.94 54.56
  Q 84.35 55.28 83.53 55.21
  L 82.00 55.09
  Q 81.75 55.07 81.83 55.31
  Q 81.89 55.49 81.79 55.64
  Q 81.43 56.17 80.97 55.72
  L 80.76 55.51
  A 0.39 0.39 0.0 0 0 80.15 55.58
  Q 79.75 56.22 78.96 56.13
  Q 78.50 56.08 78.22 56.45
  C 77.56 57.34 76.65 57.05 75.94 57.63
  Q 75.12 58.30 74.93 59.31
  Q 74.86 59.74 74.44 59.84
  Q 73.82 60.00 73.16 59.87
  Q 72.89 59.81 72.88 59.53
  Q 72.88 59.39 72.91 59.23
  Q 73.02 58.65 72.43 59.34
  Q 71.69 60.21 70.64 60.44
  Q 70.41 60.49 70.49 60.71
  L 70.71 61.31
  Q 70.85 61.72 70.51 61.98
  Q 70.17 62.23 69.71 62.10
  A 0.85 0.84 -67.3 0 0 68.72 62.51
  Q 68.24 63.39 67.37 62.90
  Q 67.18 62.80 67.12 63.00
  Q 67.03 63.32 67.25 63.49
  A 0.32 0.31 64.1 0 1 67.06 64.05
  L 60.71 64.05
  L 49.26 52.17
  Q 48.86 51.74 49.27 51.32
  L 83.13 16.37
  A 0.54 0.54 0.0 0 1 83.91 16.37
  Q 95.90 28.87 108.06 41.20
  Q 108.35 41.50 108.64 41.54
  Q 108.97 41.60 109.34 41.50
  Z"
/>
<path fill="#c446fa" d="
  M 128.29 119.48
  L 123.93 122.37
  Q 123.52 122.64 123.03 122.53
  Q 122.17 122.35 121.50 123.04
  Q 121.13 123.42 121.13 123.95
  L 121.13 124.51
  Q 121.13 124.93 120.71 124.84
  Q 119.71 124.63 118.77 125.13
  A 0.59 0.57 -41.1 0 1 118.18 125.10
  Q 117.46 124.62 116.73 125.17
  Q 116.37 125.44 116.58 125.84
  L 116.87 126.41
  A 0.32 0.32 0.0 0 1 116.59 126.88
  L 115.86 126.88
  Q 115.52 126.88 115.27 127.11
  L 113.86 128.45
  Q 113.54 128.76 113.10 128.85
  L 111.68 129.16
  Q 111.24 129.26 110.84 129.04
  Q 110.10 128.63 109.20 129.21
  Q 108.76 129.49 108.52 129.95
  L 107.73 131.43
  Q 107.45 131.95 107.03 131.54
  L 106.75 131.25
  A 0.39 0.39 0.0 0 0 106.14 131.34
  Q 105.74 132.02 105.02 131.88
  A 1.07 1.04 -55.1 0 0 104.25 132.03
  Q 103.98 132.20 103.91 132.41
  Q 103.63 133.16 103.12 132.54
  Q 103.02 132.42 102.93 132.28
  Q 102.67 131.86 102.30 132.19
  Q 101.69 132.73 101.90 133.53
  A 0.45 0.45 0.0 0 1 101.24 134.04
  Q 100.50 133.62 99.87 134.12
  A 0.98 0.12 -14.9 0 1 99.25 134.37
  Q 99.01 134.45 98.86 134.34
  Q 98.51 134.11 98.20 134.39
  Q 97.65 134.89 96.94 135.01
  Q 96.52 135.09 96.40 135.50
  Q 96.30 135.83 96.44 136.21
  Q 96.53 136.44 96.76 136.37
  Q 97.03 136.28 96.77 136.79
  A 0.55 0.54 25.1 0 1 96.06 137.04
  Q 94.87 136.53 93.92 137.59
  Q 93.60 137.95 93.13 137.87
  Q 92.00 137.69 91.95 138.95
  A 1.22 1.22 0.0 0 1 90.34 140.06
  Q 88.97 139.60 87.88 140.62
  A 1.04 1.02 -61.4 0 1 87.02 140.88
  Q 86.35 140.77 85.98 141.27
  Q 85.83 141.48 85.60 141.63
  L 84.07 142.60
  Q 83.87 142.72 83.64 142.74
  Q 83.05 142.79 82.92 142.60
  Q 82.71 142.30 82.42 142.52
  Q 81.94 142.86 81.89 143.39
  Q 81.83 144.11 81.20 143.76
  Q 80.89 143.59 80.62 143.15
  A 0.35 0.35 0.0 0 0 80.00 143.21
  Q 79.81 143.70 79.87 144.27
  Q 79.92 144.71 79.50 144.88
  Q 79.06 145.05 78.90 145.46
  A 0.48 0.47 17.6 0 1 78.33 145.75
  L 77.76 145.61
  A 0.48 0.48 0.0 0 0 77.20 145.89
  Q 76.49 147.62 74.71 147.30
  Q 74.22 147.21 73.85 147.55
  Q 73.29 148.10 72.52 149.12
  Q 72.25 149.49 71.85 149.35
  Q 71.47 149.21 71.13 149.44
  Q 70.05 150.17 68.68 150.02
  Q 68.15 149.96 68.12 150.50
  Q 68.09 151.23 68.39 151.99
  L 49.20 132.35
  Q 48.81 131.94 49.20 131.54
  L 73.09 106.97
  Q 73.44 106.61 73.44 106.10
  L 73.42 77.53
  A 1.38 1.35 23.3 0 0 73.03 76.58
  L 60.71 64.05
  L 67.06 64.05
  A 0.32 0.31 64.1 0 0 67.25 63.49
  Q 67.03 63.32 67.12 63.00
  Q 67.18 62.80 67.37 62.90
  Q 68.24 63.39 68.72 62.51
  A 0.85 0.84 -67.3 0 1 69.71 62.10
  Q 70.17 62.23 70.51 61.98
  Q 70.85 61.72 70.71 61.31
  L 70.49 60.71
  Q 70.41 60.49 70.64 60.44
  Q 71.69 60.21 72.43 59.34
  Q 73.02 58.65 72.91 59.23
  Q 72.88 59.39 72.88 59.53
  Q 72.89 59.81 73.16 59.87
  Q 73.82 60.00 74.44 59.84
  Q 74.86 59.74 74.93 59.31
  Q 75.12 58.30 75.94 57.63
  C 76.65 57.05 77.56 57.34 78.22 56.45
  Q 78.50 56.08 78.96 56.13
  Q 79.75 56.22 80.15 55.58
  A 0.39 0.39 0.0 0 1 80.76 55.51
  L 80.97 55.72
  Q 81.43 56.17 81.79 55.64
  Q 81.89 55.49 81.83 55.31
  Q 81.75 55.07 82.00 55.09
  L 83.53 55.21
  Q 84.35 55.28 83.94 54.56
  Q 83.52 53.80 84.39 53.02
  A 0.29 0.29 0.0 0 1 84.88 53.25
  Q 84.88 53.37 84.88 53.50
  A 0.82 0.32 33.4 0 0 85.25 54.02
  Q 85.66 54.35 86.25 54.11
  Q 86.73 53.91 87.02 53.48
  Q 87.31 53.04 87.82 53.12
  Q 88.33 53.19 88.65 52.79
  Q 89.42 51.83 90.73 51.29
  Q 91.02 51.17 91.32 51.14
  Q 91.80 51.09 92.03 50.68
  Q 92.22 50.35 92.60 50.33
  Q 93.27 50.30 94.13 50.13
  Q 95.30 49.90 95.13 48.85
  Q 95.04 48.32 95.53 48.10
  Q 95.94 47.91 96.18 47.53
  A 0.42 0.42 0.0 0 1 96.93 47.62
  Q 97.06 47.95 97.51 48.00
  Q 97.73 48.03 97.89 47.87
  Q 98.00 47.75 98.09 47.61
  Q 98.13 47.53 98.10 47.45
  Q 98.06 47.34 97.98 47.23
  Q 97.93 47.15 98.00 47.08
  Q 99.05 46.03 100.58 46.07
  Q 101.10 46.09 101.35 45.63
  Q 102.51 43.57 105.02 44.00
  Q 105.47 44.08 105.81 43.77
  L 107.14 42.55
  Q 107.39 42.32 107.71 42.44
  Q 109.44 43.12 109.34 41.50
  L 145.66 41.49
  A 1.33 1.32 21.6 0 0 146.62 41.08
  L 170.51 16.44
  A 0.60 0.60 0.0 0 1 171.37 16.44
  L 205.31 51.41
  Q 205.62 51.73 205.31 52.05
  L 171.35 87.07
  Q 170.92 87.51 170.50 87.06
  L 151.58 67.44
  A 1.46 1.45 67.6 0 0 150.54 67.00
  L 103.91 67.00
  Q 103.38 67.00 103.00 67.38
  L 93.34 77.26
  A 1.21 1.20 67.2 0 0 93.00 78.10
  L 93.00 105.47
  A 1.21 1.20 -67.2 0 0 93.34 106.31
  L 105.72 119.13
  A 0.99 0.98 -21.8 0 0 106.43 119.43
  L 128.29 119.48
  Z"
/>
<path fill="#b14cf7" d="
  M 92.97 173.78
  L 92.12 176.95
  Q 91.92 177.71 91.70 176.92
  Q 91.52 176.21 90.65 176.26
  Q 90.25 176.29 90.06 176.64
  Q 89.86 177.02 89.36 177.18
  Q 89.01 177.29 88.89 177.62
  Q 88.73 178.07 88.16 178.31
  A 0.45 0.45 0.0 0 0 87.97 178.98
  Q 88.35 179.51 87.85 179.89
  Q 87.40 180.24 87.05 179.78
  Q 86.60 179.19 86.94 178.43
  Q 86.99 178.31 86.90 178.21
  Q 86.80 178.10 86.65 178.09
  Q 86.29 178.05 86.15 178.38
  Q 85.71 179.42 84.58 179.12
  Q 84.20 179.02 84.11 179.39
  L 84.00 179.81
  Q 83.87 180.34 83.33 180.24
  Q 81.65 179.91 80.79 181.24
  A 0.40 0.40 0.0 0 1 80.26 181.37
  L 79.73 181.08
  A 0.43 0.42 -78.1 0 0 79.11 181.49
  Q 79.12 181.62 79.11 181.75
  Q 79.05 182.64 78.98 182.74
  L 77.37 184.90
  A 0.60 0.60 0.0 0 1 76.49 184.98
  Q 76.01 184.54 75.24 185.01
  Q 75.01 185.14 74.96 185.40
  Q 74.78 186.20 74.65 187.07
  Q 74.57 187.57 74.13 187.33
  L 73.87 187.19
  A 0.91 0.89 -47.6 0 0 72.95 187.24
  Q 71.63 188.13 70.32 188.98
  Q 70.27 189.01 70.23 188.97
  L 70.01 188.75
  Q 69.99 188.73 69.96 188.75
  C 68.89 189.51 67.88 190.88 66.80 191.37
  Q 66.04 191.71 65.14 191.94
  L 73.07 183.96
  Q 73.42 183.61 73.42 183.10
  Q 73.44 171.10 73.43 159.26
  Q 73.43 157.34 72.66 156.60
  Q 70.34 154.40 68.39 151.99
  Q 68.09 151.23 68.12 150.50
  Q 68.15 149.96 68.68 150.02
  Q 70.05 150.17 71.13 149.44
  Q 71.47 149.21 71.85 149.35
  Q 72.25 149.49 72.52 149.12
  Q 73.29 148.10 73.85 147.55
  Q 74.22 147.21 74.71 147.30
  Q 76.49 147.62 77.20 145.89
  A 0.48 0.48 0.0 0 1 77.76 145.61
  L 78.33 145.75
  A 0.48 0.47 17.6 0 0 78.90 145.46
  Q 79.06 145.05 79.50 144.88
  Q 79.92 144.71 79.87 144.27
  Q 79.81 143.70 80.00 143.21
  A 0.35 0.35 0.0 0 1 80.62 143.15
  Q 80.89 143.59 81.20 143.76
  Q 81.83 144.11 81.89 143.39
  Q 81.94 142.86 82.42 142.52
  Q 82.71 142.30 82.92 142.60
  Q 83.05 142.79 83.64 142.74
  Q 83.87 142.72 84.07 142.60
  L 85.60 141.63
  Q 85.83 141.48 85.98 141.27
  Q 86.35 140.77 87.02 140.88
  A 1.04 1.02 -61.4 0 0 87.88 140.62
  Q 88.97 139.60 90.34 140.06
  A 1.22 1.22 0.0 0 0 91.95 138.95
  Q 92.00 137.69 93.13 137.87
  Q 93.60 137.95 93.92 137.59
  Q 94.87 136.53 96.06 137.04
  A 0.55 0.54 25.1 0 0 96.77 136.79
  Q 97.03 136.28 96.76 136.37
  Q 96.53 136.44 96.44 136.21
  Q 96.30 135.83 96.40 135.50
  Q 96.52 135.09 96.94 135.01
  Q 97.65 134.89 98.20 134.39
  Q 98.51 134.11 98.86 134.34
  Q 99.01 134.45 99.25 134.37
  A 0.98 0.12 -14.9 0 0 99.87 134.12
  Q 100.50 133.62 101.24 134.04
  A 0.45 0.45 0.0 0 0 101.90 133.53
  Q 101.69 132.73 102.30 132.19
  Q 102.67 131.86 102.93 132.28
  Q 103.02 132.42 103.12 132.54
  Q 103.63 133.16 103.91 132.41
  Q 103.98 132.20 104.25 132.03
  A 1.07 1.04 -55.1 0 1 105.02 131.88
  Q 105.74 132.02 106.14 131.34
  A 0.39 0.39 0.0 0 1 106.75 131.25
  L 107.03 131.54
  Q 107.45 131.95 107.73 131.43
  L 108.52 129.95
  Q 108.76 129.49 109.20 129.21
  Q 110.10 128.63 110.84 129.04
  Q 111.24 129.26 111.68 129.16
  L 113.10 128.85
  Q 113.54 128.76 113.86 128.45
  L 115.27 127.11
  Q 115.52 126.88 115.86 126.88
  L 116.59 126.88
  A 0.32 0.32 0.0 0 0 116.87 126.41
  L 116.58 125.84
  Q 116.37 125.44 116.73 125.17
  Q 117.46 124.62 118.18 125.10
  A 0.59 0.57 -41.1 0 0 118.77 125.13
  Q 119.71 124.63 120.71 124.84
  Q 121.13 124.93 121.13 124.51
  L 121.13 123.95
  Q 121.13 123.42 121.50 123.04
  Q 122.17 122.35 123.03 122.53
  Q 123.52 122.64 123.93 122.37
  L 128.29 119.48
  L 165.92 119.43
  Q 166.49 119.42 166.49 119.99
  L 166.50 142.77
  Q 166.50 143.30 165.98 143.30
  L 107.77 143.31
  A 1.62 1.62 0.0 0 0 106.59 143.82
  L 93.38 157.64
  Q 93.02 158.01 93.02 158.52
  L 92.97 173.78
  Z"
/>
<path fill="#9852f4" d="
  M 92.97 173.78
  L 93.01 182.39
  A 1.30 1.30 0.0 0 0 93.39 183.31
  L 105.33 195.45
  Q 105.62 195.75 106.04 195.75
  L 149.54 195.75
  Q 150.38 195.75 150.96 195.15
  L 170.58 174.88
  Q 170.95 174.51 171.31 174.88
  L 205.20 209.82
  Q 205.61 210.25 205.19 210.68
  L 171.34 245.62
  A 0.52 0.52 0.0 0 1 170.60 245.62
  L 145.72 220.05
  Q 145.43 219.75 145.01 219.75
  L 108.12 219.75
  Q 107.58 219.75 107.20 220.14
  L 83.94 244.08
  Q 83.50 244.53 83.06 244.08
  L 49.26 209.23
  Q 48.84 208.80 49.26 208.38
  L 65.14 191.94
  Q 66.04 191.71 66.80 191.37
  C 67.88 190.88 68.89 189.51 69.96 188.75
  Q 69.99 188.73 70.01 188.75
  L 70.23 188.97
  Q 70.27 189.01 70.32 188.98
  Q 71.63 188.13 72.95 187.24
  A 0.91 0.89 -47.6 0 1 73.87 187.19
  L 74.13 187.33
  Q 74.57 187.57 74.65 187.07
  Q 74.78 186.20 74.96 185.40
  Q 75.01 185.14 75.24 185.01
  Q 76.01 184.54 76.49 184.98
  A 0.60 0.60 0.0 0 0 77.37 184.90
  L 78.98 182.74
  Q 79.05 182.64 79.11 181.75
  Q 79.12 181.62 79.11 181.49
  A 0.43 0.42 -78.1 0 1 79.73 181.08
  L 80.26 181.37
  A 0.40 0.40 0.0 0 0 80.79 181.24
  Q 81.65 179.91 83.33 180.24
  Q 83.87 180.34 84.00 179.81
  L 84.11 179.39
  Q 84.20 179.02 84.58 179.12
  Q 85.71 179.42 86.15 178.38
  Q 86.29 178.05 86.65 178.09
  Q 86.80 178.10 86.90 178.21
  Q 86.99 178.31 86.94 178.43
  Q 86.60 179.19 87.05 179.78
  Q 87.40 180.24 87.85 179.89
  Q 88.35 179.51 87.97 178.98
  A 0.45 0.45 0.0 0 1 88.16 178.31
  Q 88.73 178.07 88.89 177.62
  Q 89.01 177.29 89.36 177.18
  Q 89.86 177.02 90.06 176.64
  Q 90.25 176.29 90.65 176.26
  Q 91.52 176.21 91.70 176.92
  Q 91.92 177.71 92.12 176.95
  L 92.97 173.78
  Z"
/>
</svg>
