<?xml version="1.0" encoding="utf-8"?>
<!-- Generator: Adobe Illustrator 26.5.0, SVG Export Plug-In . SVG Version: 6.00 Build 0)  -->
<svg version="1.1" id="Layer_1" xmlns="http://www.w3.org/2000/svg" xmlns:xlink="http://www.w3.org/1999/xlink" x="0px" y="0px"
	 viewBox="0 0 1000 191.6" style="enable-background:new 0 0 1000 191.6;" xml:space="preserve">
<style type="text/css">
	.st0{fill:url(#SVGID_1_);}
</style>
<g>
	<g>
		<g>
			<g>
				<path d="M249.8,164.4c-11.2-9-16.6-21.7-17-38.3h27.8c0,10.5,3.3,17.9,9.6,22.6c6.1,4.3,15.2,6.7,27.3,6.7
					c9.6,0,17.3-1.8,22.6-5.6c5.2-3.4,7.9-9,7.9-15.7c0-5.8-2.3-10.3-6.7-13.2c-4.3-2.9-12.3-5.6-24-7.9l-12.6-2.3
					c-32-5.8-48-20.8-48-44.4c0-12.6,5.1-22.8,14.6-30.3c9.6-7.6,23.5-11.2,40.5-11.2c19.7,0,34.5,4.2,44.8,12.3S352.1,57,352.7,72
					h-27.5c-0.5-8.5-3.3-14.6-8.5-18.4c-5.1-3.8-13.2-6.1-24.2-6.1c-8.5,0-15.2,1.8-19.9,4.7s-6.7,7.6-6.7,13.5c0,6,2,10.5,6.5,13.5
					c4.3,3.3,11.7,5.8,22.6,7.9l12.8,2.3c17.5,3.4,30.2,8.5,37.7,15.5c7.9,6.7,11.7,16.4,11.7,28.2c0,14.3-5.2,25.5-15.7,33.4
					c-10.5,7.9-25.5,11.7-44.4,11.7C276.5,178,261,173.6,249.8,164.4L249.8,164.4z M432.9,81.4h-22.8v61.9c0,3.8,1.1,6.1,2.9,7.9
					c2,1.4,5.6,2.3,10.3,2.3h9.6v21.3c-6.1,0.5-11.2,0.9-15,0.9c-12.6,0-21.7-2.3-27.5-7s-8.8-11.9-8.8-22.2V81.8h-17.9V60.5h17.9
					V34.7h28.2v25.8h22.8L432.9,81.4L432.9,81.4z M518.7,59v25.8h-7.4c-10.8,0-19,2.7-24.9,8.1c-5.8,5.6-8.8,13.5-8.8,24v58.2h-28.4
					V60.4h27.5v20.4c6.5-15,17.9-22.2,34.5-22.2C514,58.6,516.3,58.6,518.7,59L518.7,59z M603,174.7c-1.4-2.3-2.3-7-3.3-14.1
					c-7.9,11.2-20.2,16.6-37.2,16.6c-12.8,0-22.8-2.9-30.3-9c-7.6-6.1-11.4-14.6-11.4-25.1c0-20.8,15-32.7,44.4-35.8l17.5-1.4
					c5.8-0.5,9.9-2,12.6-4.2c2.7-2,3.8-5.1,3.8-9c0-5.1-1.8-8.5-5.1-10.8s-8.8-3.4-16.4-3.4c-8.1,0-14.1,1.4-17.9,4.2
					c-3.4,2.9-5.6,7.4-6.1,14.1h-27.8c1.8-26,19-39.2,52-39.2c33.1,0,48.2,11.4,48.2,34.3v61.2c0,10.3,1.8,17.3,4.7,21.7L603,174.7
					L603,174.7z M590.9,150.2c5.6-4.7,8.5-11.7,8.5-20.8v-10.5c-2.7,2.3-7,3.8-13.2,4.7l-15.2,1.8c-7.6,0.9-12.8,2.7-16.1,5.2
					s-5.1,6.5-5.1,11.2s1.8,8.8,5.1,11.4c3.4,2.9,8.1,4.2,14.6,4.2C578.1,157.2,585.3,154.9,590.9,150.2L590.9,150.2z M720.8,60
					h29.6l-43.3,114.7h-32.5L631.6,60h30.3l11.2,31.1c5.2,16.1,11.2,35.8,18.1,58.5c5.6-18.4,11.7-37.7,18.1-58.5L720.8,60L720.8,60
					z M761.6,174.7V60H790v114.7H761.6z M873,81.4h-22.8v61.9c0,3.8,1.1,6.1,2.9,7.9c2,1.4,5.6,2.3,10.3,2.3h9.6v21.3
					c-6.1,0.5-11.2,0.9-15,0.9c-12.6,0-21.7-2.3-27.5-7s-8.8-11.9-8.8-22.2V81.8h-17.9V60.5h17.9V34.7h28.2v25.8h22.8L873,81.4
					L873,81.4z M941.1,177.4c-17.5,0-32-5.6-42.8-16.4c-10.8-10.8-16.4-25.1-16.4-43.5c0-18.1,5.6-32.7,16.4-43.5
					c10.8-10.8,25.1-16.4,42.8-16.4c17.5,0,32,5.6,42.8,16.4s16.1,25.5,16.1,43.9s-5.2,32.5-16.1,43.5
					C973.5,171.8,959,177.4,941.1,177.4L941.1,177.4z M963.3,144.6c5.2-6.5,7.9-15.5,7.9-27.3c0-11.7-2.7-20.8-7.9-27.3
					s-12.6-9.6-22.2-9.6s-17,3.3-22.2,9.6c-5.2,6.5-7.9,15.5-7.9,27.3c0,11.7,2.7,20.8,7.9,27.3s12.6,9.6,22.2,9.6
					C950.9,154.3,958.1,151.1,963.3,144.6L963.3,144.6z M792.5,30.4c0-9.4-7.6-17-17-17s-17,7.6-17,17s7.6,17,17,17
					S792.5,39.8,792.5,30.4z"/>
			</g>
		</g>
	</g>
	
		<linearGradient id="SVGID_1_" gradientUnits="userSpaceOnUse" x1="17.0234" y1="616.2436" x2="147.1582" y2="771.3345" gradientTransform="matrix(1 0 0 1 0 -598)">
		<stop  offset="0" style="stop-color:#FF4B64"/>
		<stop  offset="0.5" style="stop-color:#FF3981"/>
		<stop  offset="1" style="stop-color:#BD1BBA"/>
	</linearGradient>
	<path class="st0" d="M164.1,0v41H54.7L6.8,123.1H0v-64c0-5.5,1.5-10.8,4.2-15.5l12.8-22C24.8,8.2,39.2,0,54.7,0
		C54.7,0,164.1,0,164.1,0z M109.5,191.6c15.5,0,29.8-8.2,37.7-21.6l12.8-22c2.8-4.7,4.2-10.1,4.2-15.5v-64h-6.8l-47.9,82.1H0.1v41
		H109.5z"/>
</g>
</svg>
