<?xml version="1.0" encoding="UTF-8" standalone="no"?>
<!DOCTYPE svg PUBLIC "-//W3C//DTD SVG 1.1//EN" "http://www.w3.org/Graphics/SVG/1.1/DTD/svg11.dtd">
<svg width="100%" height="100%" viewBox="0 0 102 29" version="1.1" xmlns="http://www.w3.org/2000/svg" xmlns:xlink="http://www.w3.org/1999/xlink" xml:space="preserve" xmlns:serif="http://www.serif.com/" style="fill-rule:evenodd;clip-rule:evenodd;stroke-linejoin:round;stroke-miterlimit:2;">
    <g transform="matrix(1,0,0,1,-9.16233,-15.5953)">
        <g id="D3JS">
            <g id="g4600" transform="matrix(0.118845,0,0,0.118845,9.16233,15.5953)">
                <path id="path34" d="M255.52,175.619C255.635,174.504 255.717,173.379 255.781,172.248C255.859,170.909 175.219,94.398 175.219,94.398L173.291,94.398C173.291,94.398 255.027,180.613 255.52,175.618L255.52,175.619Z" style="fill:url(#_Linear1);fill-rule:nonzero;"/>
                <path id="path36" d="M83.472,149.077C83.365,149.312 83.259,149.547 83.149,149.781C83.035,150.027 82.917,150.272 82.8,150.515C80.23,155.875 118.787,193.568 121.888,188.989C122.029,188.787 122.171,188.573 122.312,188.371C122.469,188.131 122.624,187.901 122.779,187.661C125.259,183.896 84.573,146.629 83.472,149.077Z" style="fill:url(#_Linear2);fill-rule:nonzero;"/>
                <path id="path38" d="M137.957,202.083C137.848,202.323 137.072,203.635 136.363,204.328C136.243,204.568 174.003,242.016 174.003,242.016L177.403,242.016C177.405,242.016 141.957,203.666 137.957,202.083Z" style="fill:url(#_Linear3);fill-rule:nonzero;"/>
                <path id="path40" d="M255.835,171.568C254.069,210.715 221.683,242.016 182.115,242.016L176.765,242.016L137.251,203.088C140.501,198.504 143.523,193.755 146.213,188.803L182.115,188.803C193.469,188.803 202.709,179.568 202.709,168.208C202.709,156.853 193.469,147.613 182.115,147.613L160.869,147.613C162.488,139.056 163.373,130.232 163.373,121.205C163.373,112.04 162.472,103.091 160.795,94.397L173.992,94.397L255.602,174.811C255.699,173.733 255.776,172.656 255.835,171.568ZM21.467,0L0,0L0,53.213L21.467,53.213C58.96,53.213 89.467,83.712 89.467,121.205C89.467,131.405 87.192,141.088 83.149,149.781L122.312,188.371C135.171,169.131 142.688,146.032 142.688,121.205C142.688,54.373 88.307,0 21.467,0Z" style="fill:url(#_Linear4);fill-rule:nonzero;"/>
                <path id="path42" d="M182.115,0L95.187,0C116.419,12.963 134,31.344 145.979,53.213L182.115,53.213C193.469,53.213 202.709,62.448 202.709,73.808C202.709,85.165 193.469,94.4 182.115,94.4L173.995,94.4L255.605,174.813C255.797,172.632 255.917,170.437 255.917,168.208C255.917,150.269 249.48,133.813 238.792,121.005C249.48,108.203 255.917,91.744 255.917,73.808C255.917,33.112 222.813,0 182.115,0Z" style="fill:url(#_Linear5);fill-rule:nonzero;"/>
                <path id="path44" d="M176.765,242.016L95.808,242.016C112.104,231.952 126.192,218.666 137.251,203.088L176.765,242.016ZM122.312,188.371L83.152,149.781C72.333,173.032 48.757,189.203 21.467,189.203L0,189.203L0,242.411L21.467,242.411C63.477,242.411 100.557,220.923 122.312,188.371Z" style="fill:url(#_Linear6);fill-rule:nonzero;"/>
            </g>
            <g id="g952" transform="matrix(1.1561,0,0,1.1561,48.8269,-2.98734)">
                <g id="g917" transform="matrix(1,0,0,1,-47.6855,5.09656)">
                    <path id="path4553" d="M53.244,18.3C53.244,18.898 53.113,19.44 52.851,19.926C52.592,20.412 52.246,20.79 51.813,21.058C51.512,21.243 51.176,21.377 50.805,21.46C50.437,21.542 49.951,21.583 49.347,21.583L47.686,21.583L47.686,15.004L49.329,15.004C49.971,15.004 50.481,15.051 50.858,15.145C51.238,15.237 51.559,15.363 51.821,15.525C52.269,15.805 52.618,16.178 52.869,16.643C53.119,17.109 53.244,17.661 53.244,18.3ZM52.329,18.287C52.329,17.772 52.24,17.337 52.06,16.984C51.88,16.63 51.612,16.352 51.256,16.149C50.997,16.001 50.721,15.9 50.429,15.844C50.138,15.785 49.789,15.755 49.382,15.755L48.56,15.755L48.56,20.832L49.382,20.832C49.804,20.832 50.17,20.801 50.483,20.739C50.798,20.678 51.086,20.563 51.349,20.395C51.676,20.186 51.92,19.91 52.082,19.569C52.247,19.227 52.329,18.8 52.329,18.287L52.329,18.287Z" style="fill:rgb(79,79,79);fill-rule:nonzero;"/>
                    <path id="path4555" d="M58.436,21.583L57.61,21.583L57.61,21.058C57.536,21.108 57.436,21.178 57.309,21.27C57.186,21.358 57.065,21.429 56.947,21.482C56.809,21.55 56.649,21.606 56.47,21.65C56.29,21.697 56.079,21.72 55.838,21.72C55.393,21.72 55.016,21.573 54.707,21.279C54.397,20.984 54.243,20.608 54.243,20.152C54.243,19.778 54.322,19.476 54.481,19.246C54.643,19.013 54.873,18.831 55.171,18.698C55.471,18.565 55.832,18.476 56.253,18.429C56.674,18.381 57.127,18.346 57.61,18.322L57.61,18.194C57.61,18.006 57.576,17.85 57.508,17.726C57.443,17.602 57.349,17.505 57.225,17.434C57.108,17.367 56.966,17.321 56.801,17.297C56.636,17.274 56.464,17.262 56.284,17.262C56.066,17.262 55.823,17.291 55.555,17.35C55.287,17.406 55.01,17.489 54.724,17.598L54.68,17.598L54.68,16.754C54.842,16.71 55.076,16.661 55.383,16.608C55.689,16.555 55.991,16.528 56.289,16.528C56.636,16.528 56.938,16.558 57.194,16.617C57.454,16.673 57.678,16.77 57.866,16.908C58.052,17.044 58.193,17.219 58.29,17.434C58.387,17.649 58.436,17.916 58.436,18.234L58.436,21.583ZM57.61,20.368L57.61,18.994C57.356,19.009 57.057,19.031 56.713,19.06C56.371,19.09 56.1,19.133 55.9,19.189C55.661,19.256 55.468,19.362 55.321,19.507C55.174,19.648 55.1,19.844 55.1,20.094C55.1,20.377 55.185,20.591 55.356,20.735C55.527,20.876 55.788,20.947 56.138,20.947C56.43,20.947 56.697,20.891 56.938,20.779C57.18,20.664 57.404,20.527 57.61,20.368Z" style="fill:rgb(79,79,79);fill-rule:nonzero;"/>
                    <path id="path4557" d="M62.607,21.539C62.451,21.58 62.28,21.614 62.095,21.641C61.912,21.667 61.749,21.681 61.604,21.681C61.1,21.681 60.718,21.545 60.455,21.274C60.193,21.003 60.062,20.569 60.062,19.971L60.062,17.346L59.501,17.346L59.501,16.648L60.062,16.648L60.062,15.229L60.893,15.229L60.893,16.648L62.607,16.648L62.607,17.346L60.893,17.346L60.893,19.595C60.893,19.854 60.899,20.058 60.91,20.205C60.922,20.349 60.964,20.485 61.034,20.611C61.099,20.729 61.187,20.816 61.299,20.872C61.414,20.925 61.588,20.952 61.821,20.952C61.956,20.952 62.098,20.932 62.245,20.894C62.392,20.853 62.498,20.819 62.563,20.792L62.607,20.792L62.607,21.539Z" style="fill:rgb(79,79,79);fill-rule:nonzero;"/>
                    <path id="path4559" d="M67.45,21.583L66.624,21.583L66.624,21.058C66.55,21.108 66.45,21.178 66.323,21.27C66.2,21.358 66.079,21.429 65.961,21.482C65.823,21.55 65.663,21.606 65.484,21.65C65.304,21.697 65.093,21.72 64.852,21.72C64.407,21.72 64.03,21.573 63.721,21.279C63.411,20.984 63.257,20.608 63.257,20.152C63.257,19.778 63.336,19.476 63.495,19.246C63.657,19.013 63.887,18.831 64.185,18.698C64.485,18.565 64.846,18.476 65.267,18.429C65.689,18.381 66.141,18.346 66.624,18.322L66.624,18.194C66.624,18.006 66.59,17.85 66.522,17.726C66.457,17.602 66.363,17.505 66.239,17.434C66.122,17.367 65.98,17.321 65.815,17.297C65.65,17.274 65.478,17.262 65.298,17.262C65.08,17.262 64.837,17.291 64.569,17.35C64.301,17.406 64.024,17.489 63.738,17.598L63.694,17.598L63.694,16.754C63.856,16.71 64.09,16.661 64.397,16.608C64.703,16.555 65.005,16.528 65.303,16.528C65.65,16.528 65.952,16.558 66.208,16.617C66.468,16.673 66.692,16.77 66.88,16.908C67.066,17.044 67.207,17.219 67.304,17.434C67.401,17.649 67.45,17.916 67.45,18.234L67.45,21.583ZM66.624,20.368L66.624,18.994C66.37,19.009 66.071,19.031 65.727,19.06C65.385,19.09 65.114,19.133 64.914,19.189C64.675,19.256 64.482,19.362 64.335,19.507C64.188,19.648 64.114,19.844 64.114,20.094C64.114,20.377 64.199,20.591 64.37,20.735C64.541,20.876 64.802,20.947 65.152,20.947C65.444,20.947 65.711,20.891 65.952,20.779C66.194,20.664 66.418,20.527 66.624,20.368Z" style="fill:rgb(79,79,79);fill-rule:nonzero;"/>
                    <rect id="path4561" x="68.917" y="18.305" width="2.757" height="0.8" style="fill:rgb(79,79,79);fill-rule:nonzero;"/>
                    <path id="path4563" d="M78.802,18.3C78.802,18.898 78.67,19.44 78.408,19.926C78.149,20.412 77.803,20.79 77.37,21.058C77.069,21.243 76.734,21.377 76.362,21.46C75.994,21.542 75.508,21.583 74.904,21.583L73.243,21.583L73.243,15.004L74.887,15.004C75.529,15.004 76.038,15.051 76.415,15.145C76.795,15.237 77.117,15.363 77.379,15.525C77.827,15.805 78.176,16.178 78.426,16.643C78.676,17.109 78.802,17.661 78.802,18.3ZM77.887,18.287C77.887,17.772 77.797,17.337 77.617,16.984C77.438,16.63 77.17,16.352 76.813,16.149C76.554,16.001 76.279,15.9 75.987,15.844C75.695,15.785 75.346,15.755 74.94,15.755L74.118,15.755L74.118,20.832L74.94,20.832C75.361,20.832 75.728,20.801 76.04,20.739C76.355,20.678 76.644,20.563 76.906,20.395C77.233,20.186 77.477,19.91 77.639,19.569C77.804,19.227 77.887,18.8 77.887,18.287L77.887,18.287Z" style="fill:rgb(79,79,79);fill-rule:nonzero;"/>
                    <path id="path4565" d="M83.238,17.554L83.194,17.554C83.07,17.524 82.949,17.504 82.831,17.492C82.716,17.477 82.579,17.47 82.42,17.47C82.164,17.47 81.917,17.527 81.678,17.642C81.439,17.754 81.21,17.9 80.989,18.079L80.989,21.583L80.158,21.583L80.158,16.648L80.989,16.648L80.989,17.377C81.319,17.112 81.609,16.925 81.859,16.816C82.113,16.704 82.37,16.648 82.632,16.648C82.777,16.648 82.881,16.652 82.946,16.661C83.011,16.667 83.108,16.68 83.238,16.701L83.238,17.554Z" style="fill:rgb(79,79,79);fill-rule:nonzero;"/>
                    <path id="path4567" d="M84.921,15.822L83.985,15.822L83.985,14.96L84.921,14.96L84.921,15.822ZM84.868,21.583L84.038,21.583L84.038,16.648L84.868,16.648L84.868,21.583Z" style="fill:rgb(79,79,79);fill-rule:nonzero;"/>
                    <path id="path4569" d="M90.789,16.648L88.792,21.583L87.957,21.583L85.973,16.648L86.874,16.648L88.403,20.576L89.919,16.648L90.789,16.648Z" style="fill:rgb(79,79,79);fill-rule:nonzero;"/>
                    <path id="path4571" d="M95.937,19.202L92.3,19.202C92.3,19.505 92.346,19.77 92.437,19.997C92.529,20.221 92.654,20.405 92.813,20.549C92.966,20.691 93.147,20.797 93.357,20.868C93.569,20.938 93.801,20.974 94.055,20.974C94.39,20.974 94.728,20.907 95.067,20.775C95.408,20.639 95.651,20.507 95.796,20.377L95.84,20.377L95.84,21.283C95.56,21.401 95.274,21.499 94.983,21.579C94.691,21.659 94.385,21.698 94.064,21.698C93.245,21.698 92.605,21.477 92.146,21.036C91.686,20.591 91.457,19.96 91.457,19.144C91.457,18.337 91.676,17.696 92.115,17.222C92.557,16.748 93.137,16.511 93.856,16.511C94.522,16.511 95.034,16.705 95.394,17.094C95.756,17.483 95.937,18.035 95.937,18.751L95.937,19.202ZM95.128,18.565C95.125,18.13 95.015,17.792 94.797,17.554C94.582,17.315 94.254,17.196 93.812,17.196C93.367,17.196 93.012,17.327 92.747,17.589C92.485,17.851 92.336,18.177 92.3,18.565L95.128,18.565Z" style="fill:rgb(79,79,79);fill-rule:nonzero;"/>
                    <path id="path4573" d="M101.323,21.583L100.493,21.583L100.493,18.773C100.493,18.546 100.479,18.334 100.453,18.137C100.426,17.937 100.378,17.78 100.307,17.669C100.233,17.545 100.127,17.453 99.989,17.395C99.85,17.333 99.671,17.302 99.45,17.302C99.223,17.302 98.986,17.358 98.738,17.47C98.491,17.582 98.254,17.724 98.027,17.898L98.027,21.583L97.196,21.583L97.196,16.648L98.027,16.648L98.027,17.196C98.286,16.981 98.554,16.813 98.831,16.692C99.108,16.571 99.392,16.511 99.684,16.511C100.217,16.511 100.624,16.671 100.904,16.992C101.183,17.314 101.323,17.776 101.323,18.38L101.323,21.583Z" style="fill:rgb(79,79,79);fill-rule:nonzero;"/>
                </g>
                <g id="g928" transform="matrix(1,0,0,1,-106.171,15.2897)">
                    <path id="path4575" d="M111.729,18.3C111.729,18.898 111.598,19.44 111.336,19.926C111.077,20.412 110.731,20.79 110.298,21.058C109.997,21.243 109.661,21.377 109.29,21.46C108.922,21.542 108.436,21.583 107.832,21.583L106.171,21.583L106.171,15.004L107.814,15.004C108.456,15.004 108.966,15.051 109.343,15.145C109.723,15.237 110.044,15.363 110.306,15.525C110.754,15.805 111.103,16.178 111.354,16.643C111.604,17.109 111.729,17.661 111.729,18.3ZM110.815,18.287C110.815,17.772 110.725,17.337 110.545,16.984C110.365,16.63 110.097,16.352 109.741,16.149C109.482,16.001 109.206,15.9 108.915,15.844C108.623,15.785 108.274,15.755 107.867,15.755L107.045,15.755L107.045,20.832L107.867,20.832C108.289,20.832 108.655,20.801 108.968,20.739C109.283,20.678 109.571,20.563 109.834,20.395C110.161,20.186 110.405,19.91 110.567,19.569C110.732,19.227 110.815,18.8 110.815,18.287L110.815,18.287Z" style="fill:rgb(79,79,79);fill-rule:nonzero;"/>
                    <path id="path4577" d="M117.292,19.118C117.292,19.922 117.086,20.557 116.674,21.022C116.261,21.488 115.709,21.72 115.017,21.72C114.319,21.72 113.763,21.488 113.351,21.022C112.941,20.557 112.737,19.922 112.737,19.118C112.737,18.314 112.941,17.679 113.351,17.213C113.763,16.745 114.319,16.511 115.017,16.511C115.709,16.511 116.261,16.745 116.674,17.213C117.086,17.679 117.292,18.314 117.292,19.118ZM116.435,19.118C116.435,18.479 116.31,18.004 116.059,17.695C115.809,17.383 115.461,17.227 115.017,17.227C114.566,17.227 114.215,17.383 113.965,17.695C113.718,18.004 113.594,18.479 113.594,19.118C113.594,19.736 113.719,20.206 113.969,20.527C114.22,20.846 114.569,21.005 115.017,21.005C115.459,21.005 115.805,20.847 116.055,20.532C116.308,20.214 116.435,19.742 116.435,19.118Z" style="fill:rgb(79,79,79);fill-rule:nonzero;"/>
                    <path id="path4579" d="M122.232,21.274C121.955,21.407 121.692,21.51 121.441,21.583C121.194,21.657 120.93,21.694 120.65,21.694C120.294,21.694 119.967,21.642 119.67,21.539C119.372,21.433 119.117,21.274 118.905,21.062C118.69,20.85 118.524,20.582 118.406,20.258C118.288,19.934 118.229,19.555 118.229,19.122C118.229,18.315 118.45,17.682 118.892,17.222C119.337,16.763 119.923,16.533 120.65,16.533C120.933,16.533 121.21,16.573 121.481,16.652C121.755,16.732 122.005,16.829 122.232,16.944L122.232,17.867L122.188,17.867C121.935,17.67 121.673,17.518 121.402,17.412C121.134,17.306 120.871,17.253 120.615,17.253C120.144,17.253 119.771,17.412 119.497,17.73C119.226,18.046 119.091,18.51 119.091,19.122C119.091,19.717 119.223,20.175 119.488,20.496C119.756,20.815 120.132,20.974 120.615,20.974C120.783,20.974 120.954,20.952 121.128,20.907C121.301,20.863 121.458,20.806 121.596,20.735C121.717,20.673 121.83,20.608 121.936,20.541C122.042,20.47 122.126,20.41 122.188,20.359L122.232,20.359L122.232,21.274Z" style="fill:rgb(79,79,79);fill-rule:nonzero;"/>
                    <path id="path4581" d="M127.393,21.583L126.563,21.583L126.563,21.036C126.283,21.256 126.015,21.426 125.758,21.544C125.502,21.661 125.219,21.72 124.91,21.72C124.392,21.72 123.988,21.563 123.699,21.248C123.411,20.929 123.266,20.464 123.266,19.851L123.266,16.648L124.097,16.648L124.097,19.458C124.097,19.708 124.109,19.923 124.132,20.103C124.156,20.28 124.206,20.432 124.283,20.558C124.362,20.688 124.465,20.782 124.592,20.841C124.718,20.9 124.903,20.929 125.144,20.929C125.359,20.929 125.593,20.873 125.847,20.762C126.103,20.65 126.342,20.507 126.563,20.333L126.563,16.648L127.393,16.648L127.393,21.583Z" style="fill:rgb(79,79,79);fill-rule:nonzero;"/>
                    <path id="path4583" d="M136.231,21.583L135.4,21.583L135.4,18.773C135.4,18.561 135.39,18.356 135.369,18.159C135.351,17.962 135.312,17.804 135.25,17.686C135.182,17.56 135.085,17.464 134.958,17.399C134.831,17.334 134.649,17.302 134.41,17.302C134.177,17.302 133.945,17.361 133.712,17.479C133.479,17.593 133.247,17.741 133.014,17.92C133.023,17.988 133.03,18.068 133.036,18.159C133.042,18.247 133.045,18.336 133.045,18.424L133.045,21.583L132.214,21.583L132.214,18.773C132.214,18.555 132.204,18.349 132.183,18.155C132.166,17.957 132.126,17.8 132.064,17.682C131.996,17.555 131.899,17.461 131.772,17.399C131.646,17.334 131.463,17.302 131.224,17.302C130.998,17.302 130.769,17.358 130.54,17.47C130.313,17.582 130.086,17.724 129.859,17.898L129.859,21.583L129.028,21.583L129.028,16.648L129.859,16.648L129.859,17.196C130.118,16.981 130.376,16.813 130.632,16.692C130.892,16.571 131.167,16.511 131.459,16.511C131.794,16.511 132.079,16.582 132.311,16.723C132.547,16.864 132.722,17.06 132.837,17.311C133.173,17.028 133.479,16.825 133.756,16.701C134.033,16.574 134.329,16.511 134.644,16.511C135.187,16.511 135.586,16.676 135.842,17.006C136.101,17.333 136.231,17.791 136.231,18.38L136.231,21.583Z" style="fill:rgb(79,79,79);fill-rule:nonzero;"/>
                    <path id="path4585" d="M141.962,19.202L138.325,19.202C138.325,19.505 138.371,19.77 138.462,19.997C138.553,20.221 138.678,20.405 138.838,20.549C138.991,20.691 139.172,20.797 139.381,20.868C139.593,20.938 139.826,20.974 140.079,20.974C140.415,20.974 140.752,20.907 141.091,20.775C141.433,20.639 141.676,20.507 141.82,20.377L141.864,20.377L141.864,21.283C141.584,21.401 141.299,21.499 141.007,21.579C140.715,21.659 140.409,21.698 140.088,21.698C139.269,21.698 138.63,21.477 138.17,21.036C137.711,20.591 137.481,19.96 137.481,19.144C137.481,18.337 137.7,17.696 138.139,17.222C138.581,16.748 139.162,16.511 139.88,16.511C140.546,16.511 141.059,16.705 141.418,17.094C141.78,17.483 141.962,18.035 141.962,18.751L141.962,19.202ZM141.153,18.565C141.15,18.13 141.04,17.792 140.822,17.554C140.606,17.315 140.278,17.196 139.836,17.196C139.391,17.196 139.036,17.327 138.771,17.589C138.509,17.851 138.36,18.177 138.325,18.565L141.153,18.565Z" style="fill:rgb(79,79,79);fill-rule:nonzero;"/>
                    <path id="path4587" d="M147.348,21.583L146.517,21.583L146.517,18.773C146.517,18.546 146.504,18.334 146.477,18.137C146.451,17.937 146.402,17.78 146.332,17.669C146.258,17.545 146.152,17.453 146.013,17.395C145.875,17.333 145.695,17.302 145.474,17.302C145.247,17.302 145.01,17.358 144.763,17.47C144.515,17.582 144.278,17.724 144.052,17.898L144.052,21.583L143.221,21.583L143.221,16.648L144.052,16.648L144.052,17.196C144.311,16.981 144.579,16.813 144.856,16.692C145.133,16.571 145.417,16.511 145.708,16.511C146.242,16.511 146.648,16.671 146.928,16.992C147.208,17.314 147.348,17.776 147.348,18.38L147.348,21.583Z" style="fill:rgb(79,79,79);fill-rule:nonzero;"/>
                    <path id="path4589" d="M151.51,21.539C151.354,21.58 151.183,21.614 150.998,21.641C150.815,21.667 150.652,21.681 150.507,21.681C150.003,21.681 149.621,21.545 149.358,21.274C149.096,21.003 148.965,20.569 148.965,19.971L148.965,17.346L148.404,17.346L148.404,16.648L148.965,16.648L148.965,15.229L149.796,15.229L149.796,16.648L151.51,16.648L151.51,17.346L149.796,17.346L149.796,19.595C149.796,19.854 149.802,20.058 149.813,20.205C149.825,20.349 149.867,20.485 149.937,20.611C150.002,20.729 150.09,20.816 150.202,20.872C150.317,20.925 150.491,20.952 150.724,20.952C150.859,20.952 151.001,20.932 151.148,20.894C151.295,20.853 151.401,20.819 151.466,20.792L151.51,20.792L151.51,21.539Z" style="fill:rgb(79,79,79);fill-rule:nonzero;"/>
                    <path id="path4591" d="M156.044,20.161C156.044,20.611 155.857,20.981 155.483,21.27C155.111,21.558 154.603,21.703 153.958,21.703C153.593,21.703 153.257,21.66 152.951,21.575C152.647,21.486 152.392,21.39 152.186,21.287L152.186,20.355L152.23,20.355C152.493,20.552 152.784,20.71 153.105,20.828C153.426,20.943 153.734,21 154.029,21C154.394,21 154.68,20.941 154.886,20.823C155.092,20.706 155.195,20.52 155.195,20.267C155.195,20.072 155.139,19.925 155.027,19.825C154.916,19.725 154.7,19.639 154.382,19.569C154.265,19.542 154.11,19.511 153.918,19.476C153.73,19.44 153.558,19.402 153.401,19.361C152.968,19.246 152.661,19.078 152.478,18.857C152.298,18.633 152.208,18.359 152.208,18.035C152.208,17.832 152.25,17.641 152.332,17.461C152.418,17.281 152.546,17.121 152.717,16.979C152.881,16.841 153.091,16.732 153.344,16.652C153.6,16.57 153.886,16.528 154.201,16.528C154.496,16.528 154.793,16.565 155.094,16.639C155.397,16.71 155.649,16.797 155.849,16.9L155.849,17.788L155.805,17.788C155.593,17.632 155.335,17.501 155.032,17.395C154.728,17.286 154.431,17.231 154.139,17.231C153.836,17.231 153.58,17.29 153.37,17.408C153.161,17.523 153.057,17.695 153.057,17.925C153.057,18.128 153.12,18.281 153.247,18.384C153.37,18.487 153.571,18.571 153.848,18.636C154.001,18.672 154.172,18.707 154.36,18.742C154.552,18.778 154.711,18.81 154.837,18.839C155.223,18.928 155.521,19.08 155.73,19.295C155.939,19.513 156.044,19.801 156.044,20.161L156.044,20.161Z" style="fill:rgb(79,79,79);fill-rule:nonzero;"/>
                </g>
            </g>
        </g>
    </g>
    <defs>
        <linearGradient id="_Linear1" x1="0" y1="0" x2="1" y2="0" gradientUnits="userSpaceOnUse" gradientTransform="matrix(153.765,161.931,-161.931,153.765,105.124,18.8156)"><stop offset="0" style="stop-color:rgb(249,160,60);stop-opacity:1"/><stop offset="1" style="stop-color:rgb(247,151,78);stop-opacity:1"/></linearGradient>
        <linearGradient id="_Linear2" x1="0" y1="0" x2="1" y2="0" gradientUnits="userSpaceOnUse" gradientTransform="matrix(143.369,140.529,-140.529,143.369,-21.4383,48.3473)"><stop offset="0" style="stop-color:rgb(249,160,60);stop-opacity:1"/><stop offset="1" style="stop-color:rgb(247,151,78);stop-opacity:1"/></linearGradient>
        <linearGradient id="_Linear3" x1="0" y1="0" x2="1" y2="0" gradientUnits="userSpaceOnUse" gradientTransform="matrix(130.176,145.22,-145.22,130.176,44.776,97.4713)"><stop offset="0" style="stop-color:rgb(249,160,60);stop-opacity:1"/><stop offset="1" style="stop-color:rgb(247,151,78);stop-opacity:1"/></linearGradient>
        <linearGradient id="_Linear4" x1="0" y1="0" x2="1" y2="0" gradientUnits="userSpaceOnUse" gradientTransform="matrix(182.045,227.323,-227.323,182.045,29.0091,-4.40953)"><stop offset="0" style="stop-color:rgb(242,109,88);stop-opacity:1"/><stop offset="1" style="stop-color:rgb(249,160,60);stop-opacity:1"/></linearGradient>
        <linearGradient id="_Linear5" x1="0" y1="0" x2="1" y2="0" gradientUnits="userSpaceOnUse" gradientTransform="matrix(167.612,119.785,-119.785,167.612,120.653,6.74429)"><stop offset="0" style="stop-color:rgb(184,78,81);stop-opacity:1"/><stop offset="1" style="stop-color:rgb(246,142,72);stop-opacity:1"/></linearGradient>
        <linearGradient id="_Linear6" x1="0" y1="0" x2="1" y2="0" gradientUnits="userSpaceOnUse" gradientTransform="matrix(8.65619,114.792,-114.792,8.65619,83.0513,171.518)"><stop offset="0" style="stop-color:rgb(249,160,60);stop-opacity:1"/><stop offset="1" style="stop-color:rgb(247,151,78);stop-opacity:1"/></linearGradient>
    </defs>
</svg>
