<svg width="189" height="26" viewBox="0 0 189 26" fill="none" xmlns="http://www.w3.org/2000/svg">
<path fill-rule="evenodd" clip-rule="evenodd" d="M54.0705 3.90001C49.0161 3.90001 44.904 8.04288 44.904 13.1349C44.904 18.227 48.9701 22.3252 53.9867 22.3712H54.0705C59.1262 22.3712 63.2384 18.2284 63.2384 13.1349C63.2384 8.04148 59.1262 3.90001 54.0705 3.90001ZM54.0705 18.6555C51.1769 18.6555 48.9708 16.1793 48.9708 13.1363C48.9708 10.0934 51.1783 7.61714 54.0705 7.61714C56.9627 7.61714 59.1701 10.0934 59.1701 13.1363C59.1701 16.1793 56.9641 18.6555 54.0705 18.6555Z" fill="black"/>
<path fill-rule="evenodd" clip-rule="evenodd" d="M150.548 8.55097C146.748 8.55097 143.657 11.6539 143.657 15.4674C143.657 19.2808 146.748 22.3838 150.548 22.3838C154.347 22.3838 157.438 19.2808 157.438 15.4674C157.438 11.6539 154.347 8.55097 150.548 8.55097ZM150.548 19.4252C148.474 19.4252 147.082 17.73 147.082 15.466C147.082 13.2019 148.475 11.5067 150.548 11.5067C152.621 11.5067 154.012 13.2019 154.012 15.466C154.012 17.73 152.621 19.4252 150.548 19.4252Z" fill="black"/>
<path fill-rule="evenodd" clip-rule="evenodd" d="M73.0929 8.62989C76.7068 8.62989 79.4687 11.6132 79.4687 15.4967C79.4687 19.4059 76.7068 22.3892 72.809 22.3892C71.0681 22.3892 69.3273 21.6929 68.2143 20.4068V25.8354H64.3939V9.04139H68.0078V12.0033C69.062 9.6483 70.8635 8.62989 73.0929 8.62989ZM68.2143 15.4967C68.1885 17.8113 69.8405 19.5602 72.0088 19.5602C74.0738 19.5602 75.5968 17.8371 75.5968 15.4967C75.5968 13.1563 74.1771 11.4589 72.0088 11.4589C69.8405 11.4589 68.1885 13.182 68.2143 15.4967Z" fill="black"/>
<path d="M104.15 8.50527C107.532 8.50527 109.597 10.8971 109.597 14.7805V22.0331H105.802V15.0377C105.802 12.6716 104.667 11.36 102.653 11.36C100.821 11.36 99.0911 12.9803 99.0911 15.0377V22.0331H95.2708V8.99392H98.7297V12.0276C100.117 9.56958 102.089 8.50527 104.15 8.50527Z" fill="black"/>
<path d="M142.357 14.7677C142.357 10.9357 140.266 8.54387 136.858 8.49243C135.141 8.47077 133.295 9.34319 131.799 11.3863V4.27463H128.005V22.0203H131.799V15.0249C131.799 12.9674 133.554 11.3472 135.387 11.3472C137.426 11.3472 138.562 12.6588 138.562 15.0249V22.0203H142.357V14.7677Z" fill="black"/>
<path d="M167.617 8.50527C170.999 8.50527 173.064 10.8971 173.064 14.7805V22.0331H169.269V15.0377C169.269 12.6716 168.134 11.36 166.12 11.36C164.288 11.36 162.558 12.9803 162.558 15.0377V22.0331H158.738V8.99392H162.197V12.0276C163.584 9.56958 165.556 8.50527 167.617 8.50527Z" fill="black"/>
<path fill-rule="evenodd" clip-rule="evenodd" d="M111.475 4.28746H121C124.33 4.28746 126.704 6.78214 126.704 10.2798C126.704 13.7775 124.33 16.2465 121 16.2465H115.476V22.0331H111.475V4.28746ZM119.941 13.2117C121.516 13.2117 122.523 12.0801 122.523 10.2798C122.523 8.50526 121.516 7.37366 119.941 7.37366H115.476V13.2117H119.941Z" fill="black"/>
<path fill-rule="evenodd" clip-rule="evenodd" d="M80.3355 15.4674C80.3355 11.6542 83.4269 8.55135 87.226 8.55097C91.0252 8.55133 94.1152 11.6542 94.1152 15.4674C94.1152 15.8652 94.0817 16.2644 94.0133 16.6552H91.5635V16.6571H83.9165L83.9759 16.8381C84.3633 18.474 85.6383 19.574 87.2267 19.574C88.3804 19.574 89.3589 19.1217 89.9193 18.3317H93.4969C92.376 20.7995 89.9375 22.3838 87.2267 22.3838C83.4273 22.3838 80.3355 19.2808 80.3355 15.4674ZM83.9527 14.1686L83.9703 14.1134C84.3506 12.4663 85.4826 11.3608 87.2267 11.3608C88.9709 11.3608 90.1014 12.4677 90.4817 14.1134L90.4994 14.1686H83.9527Z" fill="black"/>
<path d="M87.226 8.55097H87.2267H87.2253H87.226Z" fill="black"/>
<path fill-rule="evenodd" clip-rule="evenodd" d="M181.11 8.55097C177.311 8.55133 174.22 11.6542 174.22 15.4674C174.22 19.2808 177.311 22.3838 181.111 22.3838C183.822 22.3838 186.26 20.7995 187.381 18.3317H183.803C183.243 19.1217 182.264 19.574 181.111 19.574C179.378 19.574 178.247 18.474 177.86 16.8381L177.801 16.6571H185.448V16.6552H187.897C187.966 16.2644 187.999 15.8652 187.999 15.4674C187.999 11.6542 184.909 8.55135 181.11 8.55097ZM177.854 14.1134L177.837 14.1686H184.384L184.366 14.1134C183.986 12.4677 182.855 11.3608 181.111 11.3608C179.367 11.3608 178.235 12.4663 177.854 14.1134Z" fill="black"/>
<path d="M181.11 8.55097H181.111H181.109H181.11Z" fill="black"/>
<path d="M22.753 0C28.6634 0.00110624 33.8299 3.98807 35.3281 9.70538C36.8263 15.4227 34.2789 21.431 29.128 24.3293C23.9771 27.2277 17.5194 26.2863 13.4102 22.0382C17.0934 20.5485 19.5042 16.9729 19.5042 12.9998C19.5042 9.02678 17.0934 5.45114 13.4102 3.96143C15.8299 1.45413 19.1558 0.0276395 22.6369 0.000389656L22.753 0ZM1.99917 7.08449C4.66473 3.59137 9.33731 2.31254 13.4102 3.96143C8.53487 9.00087 8.53487 16.9988 13.4102 22.0382C9.33731 23.6871 4.66473 22.4083 1.99917 18.9152C-0.66639 15.422 -0.66639 10.5776 1.99917 7.08449Z" fill="black"/>
</svg>
