<svg width="1100" height="140" viewBox="0 0 1100 140" fill="none" xmlns="http://www.w3.org/2000/svg">
<path fill-rule="evenodd" clip-rule="evenodd" d="M658.168 40.572C662.391 35.8995 671.556 28.4454 687.131 28.4454C709.834 28.4454 726.992 50.771 727.031 80.3652C727.031 118.75 709.305 139.296 682.078 139.296C665.02 139.296 658.631 127.821 658.226 127.092C658.215 127.072 658.206 127.057 658.206 127.057H655.377C651.681 133.399 644.742 137.664 636.785 137.664L610.915 137.627C609.783 137.627 608.84 136.699 608.84 135.587V131.322C608.84 130.692 609.105 130.099 609.595 129.728L613.97 126.241C618.758 122.421 621.549 116.673 621.549 110.628L621.587 26.999C621.587 20.9169 618.796 15.1681 613.97 11.3488L610.5 8.60387C609.444 7.75075 608.84 6.48988 608.84 5.15463V4.4135C608.84 1.96525 610.839 0 613.328 0H640.708C650.324 0.03675 658.168 7.714 658.168 17.2077V40.572ZM671.368 121.828C677.929 121.828 682.757 116.673 685.699 106.474C688.451 96.943 688.752 85.7062 688.716 81.2927C688.716 57.4831 682.53 44.9111 670.764 44.9111C664.503 44.9111 658.13 51.772 658.13 58.5217L658.432 107.364C658.432 116.747 665.107 121.828 671.368 121.828Z" fill="#F8F3F3"/>
<path fill-rule="evenodd" clip-rule="evenodd" d="M82.1668 1.75C43.4027 1.75 11.875 32.741 11.875 70.8746C11.875 108.973 43.4027 140 82.1668 140C120.931 140 152.459 109.009 152.459 70.8746C152.459 32.741 120.931 1.75 82.1668 1.75ZM108.297 118.459L107.944 118.906C104.267 123.333 99.7688 124.784 96.6393 125.192C95.818 125.304 94.9966 125.342 94.1364 125.342C85.609 125.342 77.0034 119.649 69.2584 108.823C62.9607 100.006 57.4845 88.249 53.8467 75.7111C47.3925 53.3514 48.1357 32.964 55.7242 23.7376C59.4012 19.31 63.8995 17.8591 67.0288 17.45C75.9081 16.2589 84.9831 21.3562 93.1975 32.145C100.003 41.0747 105.871 53.3891 109.783 66.8938C116.158 88.9193 115.533 109.084 108.297 118.459Z" fill="#F8F3F3"/>
<path d="M383.177 117.193C380.725 117.971 377.858 118.38 374.729 118.38C363.415 118.38 356.665 110.666 356.665 97.7598C356.665 91.9629 356.735 70.447 356.78 56.9137L356.781 56.7161C356.801 50.6091 356.816 46.1705 356.816 45.6168V43.3916C356.816 43.3549 356.852 43.354 356.852 43.354H377.105C379.782 43.354 381.932 41.2409 381.932 38.6071V35.8264C381.932 33.1926 379.782 31.0786 377.105 31.0786H356.702C356.665 31.0786 356.665 31.0419 356.665 31.0419V9.86601C356.665 6.78773 354.138 4.30273 351.007 4.30273H348.745C346.558 4.30273 344.484 5.30373 343.201 7.04673C338.977 12.7588 327.4 25.8129 307.148 30.2631C305.262 30.8931 303.98 32.6738 303.98 34.639V38.2738C303.98 40.8699 306.13 42.9839 308.77 42.9839H319.857C319.895 42.9839 319.895 43.0206 319.895 43.0206V104.658C319.895 112.928 322.347 139.853 354.025 139.853C371.297 139.853 382.648 127.317 386.759 121.94C387.475 120.976 387.588 119.678 386.985 118.602C386.231 117.341 384.648 116.748 383.177 117.193Z" fill="#F8F3F3"/>
<path fill-rule="evenodd" clip-rule="evenodd" d="M392.037 84.2968C392.037 53.6639 416.474 28.7422 446.494 28.7422C475.342 28.7422 496.273 52.1064 496.236 84.2601C496.236 85.0021 496.236 85.7808 496.198 86.5219C496.159 87.7831 495.066 88.785 493.746 88.785H430.541L431.521 91.7521C437.14 108.811 448.794 117.082 467.197 117.082C478.586 117.082 485.562 115.042 489.258 113.41C490.202 113.002 491.258 113.261 491.936 114.003L491.974 114.041C492.69 114.893 492.729 116.081 492.05 116.933C487.976 122.274 472.515 139.853 446.494 139.853C416.474 139.853 392.037 114.931 392.037 84.2968ZM436.311 40.9064C428.391 42.2041 425.186 56.5567 428.241 76.7316H461.352C456.147 57.7432 445.889 39.3489 436.311 40.9064Z" fill="#F8F3F3"/>
<path d="M936.102 76.1363L936.059 76.1215C923.739 71.3433 912.075 66.8175 912.075 56.629C912.075 49.0637 917.509 43.9826 925.62 43.9826C937.196 43.9826 942.061 53.8474 943.61 58.0754C943.907 58.9285 944.809 59.5217 945.789 59.5594C946.699 59.5594 952.202 59.5593 956.989 59.5961C961.101 59.5961 964.417 56.2956 964.382 52.2898L964.269 38.2347C964.234 34.2666 960.952 31.0396 956.919 31.0396H954.425C951.257 31.0396 948.282 32.5236 946.427 35.0821L943.496 39.1247C943.496 39.1247 935.42 28.8145 914.647 28.8145C891.486 28.8145 871.914 44.1681 871.914 62.3777C871.914 87.2883 893.175 94.3191 910.325 99.9873L910.421 100.021C921.394 103.618 930.826 106.733 930.826 114.15C930.826 117.822 928.63 122.197 918.226 122.197C905.329 122.197 894.54 111.368 891.6 106.436C891.189 105.732 890.392 105.286 889.561 105.286L880.022 105.324C876.326 105.324 873.347 108.29 873.347 111.925V131.247C873.347 134.881 876.326 137.811 880.022 137.849H882.737C885.302 137.849 887.715 136.772 889.377 134.881L894.575 128.947C894.575 128.947 905.031 139.962 926.521 139.962C952.509 139.962 971.321 127.983 971.321 111.48C971.321 89.8215 952.622 82.5526 936.102 76.1363Z" fill="#F8F3F3"/>
<path d="M233.465 31.0039H285.622C288.374 31.0039 290.637 33.1923 290.599 35.8995C290.599 37.3827 289.92 38.7923 288.751 39.7198L286.527 41.4995C281.058 45.8387 277.852 52.4029 277.852 59.3382V109.22C277.852 116.154 281.058 122.718 286.565 127.095L288.751 128.838C289.92 129.765 290.599 131.174 290.599 132.657C290.599 135.402 288.337 137.59 285.584 137.59H261.373C253.303 137.59 246.401 132.954 243.158 126.279L240.707 126.316C240.707 126.316 228.412 139.889 209.217 139.889C186.439 139.889 172.033 124.61 172.033 100.059V57.484C171.882 51.5874 169.128 46.0609 164.452 42.3527L161.171 39.7565C160.002 38.829 159.323 37.4203 159.323 35.9363C159.323 33.1923 161.586 31.0039 164.34 31.0039H193.302C201.787 31.0039 208.689 37.7913 208.689 46.1353V100.727L208.685 100.769L208.675 100.817L208.67 100.837C208.66 100.874 208.65 100.912 208.65 100.949C208.727 113.743 215.288 122.014 225.357 122.014C234.861 122.014 240.706 113.632 241.197 112.891V59.3749C241.197 52.4397 237.991 45.8387 232.485 41.4995L230.298 39.7565C229.129 38.829 228.45 37.4203 228.45 35.9363C228.45 33.1923 230.713 31.0039 233.465 31.0039Z" fill="#F8F3F3"/>
<path d="M584.255 28.4453C571.434 28.4453 562.119 37.0492 556.839 47.7294L554.312 47.7671L554.274 47.7294C552.728 38.2724 544.431 31.0406 534.362 31.0406H510.151C507.398 31.0406 505.135 33.2289 505.135 35.9738C505.135 37.4569 505.814 38.8666 506.983 39.7932L510.264 42.3893C515.092 46.2096 517.882 51.9574 517.882 58.0396V110.665C517.882 116.71 515.092 122.458 510.302 126.278L506.983 128.911C505.814 129.839 505.135 131.247 505.135 132.731C505.135 135.439 507.36 137.664 510.151 137.664H562.308C565.061 137.664 567.323 135.475 567.323 132.731C567.323 131.247 566.644 129.839 565.475 128.911L562.193 126.315C557.367 122.496 554.576 116.747 554.576 110.665V61.7111C554.576 58.7816 557.065 54.7391 560.535 54.7391C563.026 54.7391 564.87 57.0672 567.108 59.8926C570.561 64.2523 574.951 69.7961 584.105 69.7961C595.946 69.7961 604.771 60.6724 604.771 49.0279C604.734 35.1207 595.494 28.4453 584.255 28.4453Z" fill="#F8F3F3"/>
<path fill-rule="evenodd" clip-rule="evenodd" d="M1036.49 28.7422C1006.47 28.7422 982.031 53.6639 982.031 84.2968C982.031 114.931 1006.47 139.853 1036.49 139.853C1062.5 139.853 1077.98 122.274 1082.04 116.933C1082.73 116.081 1082.69 114.893 1081.96 114.041L1081.93 114.003C1081.26 113.261 1080.2 113.002 1079.25 113.41C1075.56 115.042 1068.59 117.082 1057.19 117.082C1038.78 117.082 1027.14 108.811 1021.52 91.7521L1020.54 88.785H1083.74C1085.06 88.785 1086.16 87.7831 1086.19 86.5219C1086.23 85.7808 1086.23 85.0021 1086.23 84.2601C1086.26 52.1064 1065.3 28.7422 1036.49 28.7422ZM1018.2 76.7316C1015.15 56.5567 1018.35 42.2041 1026.27 40.9064C1035.85 39.3489 1046.1 57.7432 1051.3 76.7316H1018.2Z" fill="#F8F3F3"/>
<path fill-rule="evenodd" clip-rule="evenodd" d="M857.622 39.7564L855.435 41.4994C849.929 45.8386 846.762 52.4028 846.762 59.3748V110.628C846.762 116.71 849.552 122.421 854.342 126.242L857.66 128.874C858.83 129.801 859.509 131.211 859.509 132.694C859.509 135.439 857.246 137.626 854.492 137.626L824.586 137.775C821.155 137.775 818.062 135.772 816.704 132.657L812.857 123.831L809.991 123.868C809.991 123.868 809.975 123.893 809.952 123.93C809.275 125.019 800.038 139.889 781.934 139.889C759.193 139.889 742.071 117.563 742.071 87.9315C742.071 51.8096 760.212 28.4453 788.27 28.4453C803.543 28.4453 812.744 41.0173 812.82 41.1284L814.404 43.3536L818.439 35.3429C819.759 32.6724 822.172 31.0038 825.378 31.0038H854.455C857.246 31.0038 859.47 33.2289 859.47 35.9362C859.47 37.4202 858.791 38.8289 857.622 39.7564ZM780.312 84.1111C780.312 107.142 786.384 119.306 797.848 119.306C803.731 119.306 809.69 113.187 810.104 106.882V98.6117L809.879 58.8927C809.879 49.8067 803.392 44.9111 797.283 44.9111C790.871 44.9111 786.157 49.9178 783.291 59.7826C780.614 68.9797 780.312 79.8463 780.312 84.1111Z" fill="#F8F3F3"/>
</svg>
