<svg width="744" height="181" viewBox="0 0 744 181" fill="none" xmlns="http://www.w3.org/2000/svg">
<g clip-path="url(#clip0_2262_1250)">
<path d="M12.8641 103.874C12.7381 103.178 12.6721 102.542 12.5461 101.84C12.3199 100.274 11.4844 98.8611 10.2213 97.9082C8.95827 96.9553 7.36995 96.5398 5.80208 96.7523C4.23614 96.9784 2.82291 97.814 1.87 99.077C0.917092 100.34 0.501645 101.928 0.714085 103.496L1.09208 105.848C2.67568 115.125 5.70448 124.096 10.0681 132.434C11.1481 134.474 13.1881 135.614 15.3481 135.614C16.3021 135.614 17.2561 135.422 18.1441 134.912C18.8425 134.55 19.4618 134.053 19.9658 133.449C20.4699 132.845 20.8486 132.147 21.0798 131.395C21.3111 130.643 21.3902 129.853 21.3127 129.07C21.2351 128.288 21.0024 127.528 20.6281 126.836C16.8409 119.641 14.2203 111.891 12.8641 103.874ZM29.5801 38.3663C31.1101 38.3663 32.7001 37.7303 33.8461 36.5843C40.0272 30.2467 47.2347 24.9988 55.1641 21.0623C55.8722 20.7188 56.5052 20.2384 57.0266 19.6489C57.548 19.0593 57.9474 18.3723 58.2018 17.6276C58.4562 16.8828 58.5605 16.095 58.5087 15.3097C58.4569 14.5244 58.2501 13.7572 57.9001 13.0523C57.556 12.344 57.075 11.7108 56.4849 11.1894C55.8949 10.6679 55.2074 10.2685 54.4621 10.0141C53.7169 9.75977 52.9286 9.65551 52.1429 9.70736C51.3571 9.75922 50.5894 9.96617 49.8841 10.3163C40.7272 14.8435 32.4018 20.8867 25.2601 28.1903C24.4419 29.0384 23.8912 30.1085 23.6768 31.2673C23.4623 32.4262 23.5935 33.6225 24.054 34.7072C24.5146 35.792 25.2841 36.7174 26.2667 37.368C27.2493 38.0186 28.4016 38.3658 29.5801 38.3663ZM76.3081 14.2583L76.6261 14.1983C85.2814 12.7234 94.1256 12.7437 102.774 14.2583C103.092 14.3183 103.476 14.3183 103.794 14.3183C105.309 14.3436 106.777 13.793 107.902 12.7777C109.027 11.7624 109.725 10.3581 109.854 8.84832C109.984 7.33856 109.535 5.83592 108.6 4.6439C107.664 3.45188 106.311 2.6593 104.814 2.42627C94.7695 0.722038 84.5113 0.701761 74.4601 2.36627L74.2681 2.42627C72.7457 2.72002 71.397 3.59397 70.507 4.86355C69.617 6.13313 69.2552 7.69893 69.4981 9.23027C69.6124 10.0088 69.8796 10.757 70.2843 11.4318C70.6891 12.1065 71.2234 12.6946 71.8564 13.1619C72.4894 13.6293 73.2086 13.9668 73.9727 14.155C74.7367 14.3431 75.5304 14.3782 76.3081 14.2583ZM18.2641 46.5023C17.5704 46.1343 16.811 45.9067 16.0293 45.8325C15.2476 45.7582 14.4589 45.8387 13.7083 46.0694C12.9577 46.3001 12.26 46.6764 11.6549 47.1769C11.0499 47.6774 10.5494 48.2922 10.1821 48.9863C5.3689 58.0078 2.16112 67.7977 0.702085 77.9183C0.577349 78.7694 0.637092 79.6374 0.877263 80.4635C1.11744 81.2895 1.53242 82.0542 2.09408 82.7058C2.65573 83.3573 3.35093 83.8805 4.13253 84.2398C4.91413 84.5991 5.76385 84.7862 6.62408 84.7883C9.54608 84.7883 12.0961 82.6283 12.5401 79.7003C13.8338 70.9409 16.6094 62.4658 20.7481 54.6383C21.1254 53.9418 21.3606 53.1774 21.4398 52.3892C21.519 51.6011 21.4408 50.8051 21.2097 50.0475C20.9786 49.2899 20.5991 48.5858 20.0934 47.9762C19.5878 47.3665 18.9659 46.8695 18.2641 46.5023ZM166.218 77.7983C166.338 78.4343 166.41 79.1303 166.536 79.7663C166.98 82.7603 169.524 84.9203 172.452 84.9203C172.704 84.9203 173.022 84.9203 173.34 84.8603C174.907 84.6355 176.322 83.8006 177.276 82.5374C178.23 81.2742 178.646 79.685 178.434 78.1163L178.05 75.8243C176.465 66.5213 173.418 57.528 169.02 49.1783C168.658 48.4804 168.16 47.8617 167.556 47.3582C166.952 46.8548 166.253 46.4767 165.502 46.246C164.75 46.0154 163.96 45.9367 163.177 46.0147C162.395 46.0927 161.636 46.3258 160.944 46.7003C160.246 47.0622 159.626 47.5595 159.122 48.1634C158.618 48.7673 158.24 49.4655 158.008 50.2173C157.777 50.9691 157.698 51.7595 157.776 52.5422C157.853 53.325 158.086 54.0845 158.46 54.7763C162.217 62.0072 164.836 69.7746 166.224 77.8043M145.212 145.028C139.031 151.366 131.824 156.614 123.894 160.55C122.678 161.138 121.698 162.121 121.115 163.339C120.531 164.557 120.378 165.937 120.682 167.253C120.985 168.569 121.726 169.742 122.784 170.582C123.842 171.421 125.154 171.876 126.504 171.872C127.414 171.882 128.312 171.661 129.114 171.23C138.281 166.695 146.609 160.63 153.738 153.296C154.839 152.156 155.444 150.625 155.42 149.04C155.396 147.455 154.746 145.944 153.612 144.836C152.466 143.762 150.944 143.181 149.373 143.216C147.802 143.252 146.308 143.903 145.212 145.028ZM129.246 10.4423C128.541 10.0922 127.773 9.88522 126.987 9.83336C126.202 9.78151 125.413 9.88577 124.668 10.1401C123.923 10.3945 123.235 10.7939 122.645 11.3154C122.055 11.8368 121.574 12.47 121.23 13.1783C120.88 13.8832 120.673 14.6504 120.621 15.4357C120.57 16.221 120.674 17.0088 120.928 17.7536C121.183 18.4983 121.582 19.1853 122.104 19.7749C122.625 20.3644 123.258 20.8448 123.966 21.1883C131.911 25.1289 139.137 30.3759 145.344 36.7103C146.49 37.9163 148.08 38.4923 149.604 38.4923C150.783 38.493 151.936 38.1467 152.92 37.4965C153.903 36.8463 154.674 35.921 155.135 34.836C155.596 33.751 155.728 32.5542 155.514 31.3948C155.299 30.2354 154.749 29.1648 153.93 28.3163C146.749 21.0309 138.407 14.9888 129.246 10.4363M102.576 167.48C93.8346 168.961 84.9047 168.941 76.1701 167.42C74.6106 167.147 73.0065 167.502 71.7073 168.407C70.4081 169.311 69.5191 170.693 69.2341 172.25C68.9582 173.81 69.3124 175.416 70.2191 176.715C71.1257 178.014 72.5106 178.901 74.0701 179.18C79.0921 180.074 84.2461 180.518 89.4001 180.518C94.4281 180.518 99.5221 180.074 104.484 179.246L104.736 179.186C107.982 178.61 110.082 175.556 109.572 172.25C109.002 169.07 105.822 166.91 102.576 167.48ZM55.0441 160.478C47.1112 156.553 39.9043 151.306 33.7321 144.962C32.6238 143.829 31.112 143.18 29.5268 143.157C27.9417 143.135 26.412 143.741 25.2721 144.842C24.1387 145.949 23.4887 147.458 23.464 149.042C23.4393 150.626 24.0418 152.155 25.1401 153.296C32.2689 160.632 40.5962 166.699 49.7641 171.236C50.5913 171.661 51.51 171.878 52.4401 171.866C53.551 171.877 54.6422 171.573 55.5873 170.988C56.5324 170.404 57.2927 169.565 57.7801 168.566C58.1356 167.857 58.3469 167.084 58.4017 166.292C58.4564 165.5 58.3536 164.706 58.0992 163.954C57.8447 163.202 57.4437 162.509 56.9192 161.913C56.3948 161.318 55.7575 160.826 55.0441 160.478ZM173.28 96.9383C171.711 96.7059 170.113 97.1044 168.837 98.0466C167.561 98.9889 166.71 100.398 166.47 101.966C165.211 110.734 162.434 119.215 158.262 127.028C157.895 127.722 157.667 128.481 157.593 129.262C157.519 130.043 157.599 130.831 157.829 131.582C158.06 132.332 158.436 133.029 158.936 133.634C159.436 134.239 160.05 134.74 160.743 135.107C161.436 135.475 162.195 135.702 162.977 135.776C163.758 135.851 164.546 135.77 165.296 135.54C166.047 135.31 166.744 134.934 167.349 134.434C167.954 133.934 168.455 133.32 168.822 132.626C173.571 123.575 176.775 113.795 178.302 103.688C178.42 102.915 178.383 102.126 178.194 101.367C178.005 100.608 177.667 99.8946 177.2 99.2673C176.733 98.64 176.146 98.1116 175.473 97.7128C174.8 97.3141 174.055 97.0468 173.28 96.9383ZM53.1481 51.1463C61.5074 43.4275 72.1204 38.591 83.4301 37.3463C87.4494 36.8933 91.5068 36.8933 95.5261 37.3463C96.3075 37.4371 97.0991 37.3724 97.8554 37.1557C98.6116 36.939 99.3174 36.5747 99.9322 36.0839C100.547 35.593 101.058 34.9852 101.437 34.2957C101.816 33.6061 102.054 32.8484 102.138 32.0663C102.231 31.2845 102.168 30.4919 101.953 29.7347C101.737 28.9775 101.373 28.2707 100.882 27.6554C100.39 27.0402 99.7816 26.5288 99.0909 26.1509C98.4001 25.773 97.6411 25.5362 96.8581 25.4543C91.9548 24.8814 87.0014 24.8814 82.0981 25.4543C68.266 27.0022 55.2907 32.9307 45.0661 42.3743C43.8961 43.4469 43.1988 44.9393 43.1268 46.525C43.0548 48.1106 43.6141 49.6601 44.6821 50.8343C45.8941 52.1003 47.4841 52.7363 49.0741 52.7363C50.5883 52.7625 52.0519 52.1912 53.1481 51.1463ZM89.4601 156.602C91.9441 156.602 94.4221 156.476 96.9061 156.158H97.0321C97.8126 156.074 98.5686 155.836 99.2557 155.456C99.9428 155.076 100.547 154.563 101.033 153.947C101.519 153.33 101.878 152.623 102.087 151.866C102.296 151.11 102.352 150.319 102.252 149.54C102.163 148.762 101.921 148.009 101.539 147.325C101.158 146.64 100.645 146.038 100.029 145.553C99.4142 145.068 98.7092 144.709 97.9549 144.498C97.2005 144.286 96.4118 144.226 95.6341 144.32H95.5741C93.5451 144.558 91.5029 144.666 89.4601 144.644C76.0156 144.651 63.0635 139.586 53.1901 130.46C52.0138 129.397 50.4653 128.84 48.8811 128.912C47.2969 128.984 45.8052 129.679 44.7301 130.844C43.6621 132.018 43.1028 133.568 43.1748 135.154C43.2468 136.739 43.9441 138.232 45.1141 139.304C57.1953 150.441 73.0289 156.617 89.4601 156.602ZM115.992 44.0183C122.687 47.7967 128.496 52.9641 133.029 59.1734C137.562 65.3827 140.713 72.4901 142.272 80.0183C142.423 80.7909 142.727 81.5256 143.166 82.1794C143.605 82.8331 144.169 83.3929 144.827 83.8259C145.484 84.2588 146.222 84.5564 146.996 84.701C147.77 84.8456 148.565 84.8345 149.334 84.6683C150.106 84.5162 150.84 84.2118 151.493 83.7729C152.146 83.3339 152.705 82.7692 153.138 82.1117C153.57 81.4542 153.867 80.7171 154.011 79.9436C154.156 79.17 154.144 78.3754 153.978 77.6063C152.072 68.4102 148.225 59.7268 142.695 52.1363C137.164 44.5457 130.078 38.2229 121.908 33.5903C121.228 33.198 120.477 32.9444 119.699 32.844C118.921 32.7436 118.13 32.7985 117.373 33.0055C116.616 33.2125 115.907 33.5675 115.288 34.0499C114.669 34.5323 114.152 35.1327 113.766 35.8163C113.371 36.5006 113.115 37.2561 113.013 38.0395C112.911 38.8229 112.965 39.6188 113.171 40.3814C113.377 41.144 113.732 41.8584 114.215 42.4836C114.698 43.1087 115.3 43.6323 115.986 44.0243M37.5421 60.6263C36.0992 59.9629 34.4522 59.8986 32.962 60.4474C31.4718 60.9962 30.26 62.1135 29.5921 63.5543C24.6258 74.3671 22.7326 86.3386 24.1201 98.1563C24.8651 105.022 26.7128 111.722 29.5921 117.998C29.9197 118.714 30.3857 119.359 30.9633 119.894C31.541 120.429 32.2188 120.845 32.9577 121.117C33.6967 121.389 34.4821 121.512 35.2689 121.48C36.0557 121.447 36.8283 121.259 37.5421 120.926C38.9852 120.258 40.108 119.05 40.6681 117.561C41.2282 116.073 41.1808 114.424 40.5361 112.97C38.1915 107.834 36.6669 102.361 36.0181 96.7523C35.7826 94.7271 35.6764 92.689 35.7001 90.6503C35.7001 82.9523 37.3501 75.4463 40.5361 68.4503C40.8534 67.74 41.0278 66.9741 41.049 66.1965C41.0703 65.4188 40.9382 64.6445 40.6601 63.9179C40.3821 63.1914 39.9636 62.5267 39.4286 61.9619C38.8936 61.3971 38.2525 60.9432 37.5421 60.6263ZM153.984 103.874C154.292 102.324 153.977 100.715 153.108 99.3946C152.239 98.0743 150.886 97.1489 149.34 96.8183C147.789 96.5089 146.178 96.8227 144.857 97.6918C143.535 98.5609 142.609 99.9154 142.278 101.462C140.735 109.004 137.597 116.128 133.075 122.358C128.552 128.588 122.751 133.778 116.058 137.582C114.907 138.231 114.005 139.245 113.493 140.463C112.982 141.682 112.891 143.036 113.234 144.312C113.577 145.588 114.335 146.714 115.388 147.512C116.442 148.309 117.731 148.734 119.052 148.718C120.072 148.718 121.092 148.46 121.98 147.956C130.169 143.34 137.267 137.013 142.79 129.406C148.313 121.799 152.131 113.09 153.984 103.874Z" fill="#D9D9D9"/>
<path fill-rule="evenodd" clip-rule="evenodd" d="M119.82 61.9617C127.474 69.9725 131.638 80.6918 131.4 91.7687C131.161 102.846 126.539 113.376 118.548 121.05C110.782 128.503 100.428 132.654 89.664 132.63H88.644C65.544 132.12 47.22 112.914 47.724 89.8257C47.8474 84.3322 49.0584 78.9177 51.287 73.8951C53.5156 68.8724 56.7176 64.3413 60.708 60.5637C64.6712 56.7585 69.3491 53.7764 74.4716 51.7898C79.5941 49.8032 85.0595 48.8515 90.552 48.9897C96.0461 49.1115 101.462 50.3212 106.485 52.5488C111.509 54.7764 116.041 57.9777 119.82 61.9677M59.628 90.1497C59.4525 98.0776 62.4292 105.751 67.9051 111.487C73.3809 117.223 80.9085 120.552 88.836 120.744C96.7616 120.916 104.432 117.94 110.168 112.468C115.904 106.995 119.236 99.4726 119.436 91.5477C119.54 87.6255 118.862 83.7218 117.443 80.064C116.023 76.4061 113.89 73.0672 111.168 70.2417C108.463 67.3904 105.221 65.1019 101.628 63.5079C98.0356 61.914 94.1633 61.0459 90.234 60.9537C86.3102 60.8517 82.4052 61.53 78.7457 62.9493C75.0861 64.3686 71.7449 66.5007 68.916 69.2217C66.0654 71.9261 63.7773 75.1672 62.1834 78.7588C60.5894 82.3503 59.721 86.2215 59.628 90.1497Z" fill="#D9D9D9"/>
<path d="M202.5 48.5195H270.066V62.8535H244.806V132.532H227.802V62.8595H202.5V48.5195Z" fill="#D9D9D9"/>
<path d="M280.866 81.8975H281.226C284.862 75.0335 288.984 71.5595 296.028 71.5595C297.3 71.4815 298.572 71.6435 299.79 72.0275V86.0075H299.43C288.984 84.9455 281.46 90.4655 281.46 103.168V132.538H265.476V72.2615H280.866V81.8975ZM342.792 125.836H342.552C339.486 130.42 335.148 133.948 324.81 133.948C312.45 133.948 303.774 127.48 303.774 115.498C303.774 102.22 314.574 97.9895 327.978 96.1055C337.962 94.7375 342.546 93.8855 342.546 89.2415C342.546 84.8915 339.144 82.0775 332.442 82.0775C324.918 82.0775 321.282 84.8195 320.814 90.5375H306.6C307.068 79.9595 314.952 70.6775 332.568 70.6775C350.664 70.6775 357.948 78.7775 357.948 92.8775V123.622C357.948 128.194 358.65 130.9 360.066 131.962V132.55H344.676C343.728 131.35 343.14 128.548 342.792 125.836ZM342.906 111.262V102.22C340.086 103.864 335.736 104.8 331.746 105.748C323.406 107.626 319.29 109.51 319.29 115.15C319.29 120.79 323.052 122.788 328.692 122.788C337.854 122.788 342.906 117.142 342.906 111.262ZM384.594 80.4875H384.936C389.052 74.0195 394.548 70.6115 402.786 70.6115C415.236 70.6115 423.582 80.0195 423.582 93.1715V132.532H407.622V95.4635C407.622 89.0135 403.854 84.4835 397.152 84.4835C390.114 84.4835 384.936 90.1235 384.936 98.3435V132.538H368.952V72.2615H384.6L384.594 80.4875ZM431.604 113.02H446.418C447.474 119.956 452.4 123.016 459.57 123.016C466.74 123.016 470.55 120.274 470.55 116.086C470.55 110.332 462.918 109.744 454.698 108.094C443.892 105.982 433.32 103.042 433.32 89.8895C433.32 76.7315 444.12 70.6655 457.866 70.6655C473.742 70.6655 482.586 78.5435 483.726 90.6455H469.32C468.618 84.1775 464.514 81.8255 457.686 81.8255C451.47 81.8255 447.348 84.1775 447.348 88.5275C447.348 93.7055 455.34 94.1675 463.92 95.9315C474.03 98.0435 485.19 100.87 485.19 114.958C485.19 127.066 474.852 134.344 459.804 134.344C442.296 134.29 432.546 125.83 431.604 113.02ZM491.16 102.454C491.16 84.4775 502.908 70.6115 521.238 70.6115C536.862 70.6115 546.498 79.6595 548.616 92.7035H532.98C532.571 90.0936 531.236 87.7184 529.218 86.0135C527.2 84.3086 524.635 83.3883 521.994 83.4215C512.382 83.4215 507.426 90.8255 507.426 102.454C507.426 113.854 512.01 121.498 521.766 121.498C528.228 121.498 532.746 118.078 533.856 111.268H549.246C548.19 124.078 538.266 134.296 522.12 134.296C503.022 134.296 491.16 120.436 491.16 102.454ZM555.162 102.34C555.162 84.4955 567.258 70.6115 584.892 70.6115C604.278 70.6115 614.616 85.4135 614.616 106.93H570.9C572.082 116.212 577.26 121.966 586.29 121.966C592.524 121.966 596.16 119.134 597.93 114.562H613.668C611.442 125.242 601.926 134.29 586.416 134.29C566.436 134.29 555.162 120.316 555.162 102.346M571.146 95.8835H597.936C597.456 88.2455 592.44 82.9595 585.12 82.9595C576.66 82.9595 572.544 88.0115 571.146 95.8835ZM638.07 80.4875H638.412C642.528 74.0195 648.024 70.6115 656.262 70.6115C668.712 70.6115 677.064 80.0195 677.064 93.1715V132.532H661.08V95.4635C661.08 89.0135 657.318 84.4835 650.616 84.4835C643.572 84.4835 638.4 90.1235 638.4 98.3435V132.538H622.428V72.2615H638.07V80.4875ZM684.75 102.454C684.75 83.6555 695.448 70.6115 710.478 70.6115C713.854 70.4644 717.21 71.2142 720.203 72.7844C723.196 74.3547 725.72 76.6895 727.518 79.5515H727.878V48.5195H743.856V132.532H728.466V124.672H728.22C724.704 130.42 718.704 134.278 710.244 134.278C695.088 134.29 684.75 121.96 684.75 102.454ZM728.22 102.814C728.22 91.2935 724.47 83.5895 714.24 83.5895C705.426 83.5895 700.968 91.3295 700.968 102.49C700.968 114.136 705.552 120.946 713.778 120.946C723.288 120.88 728.22 113.854 728.22 102.814Z" fill="#D9D9D9"/>
</g>
<defs>
<clipPath id="clip0_2262_1250">
<rect width="744" height="180" fill="white" transform="translate(0 0.519531)"/>
</clipPath>
</defs>
</svg>
