<svg width="873" height="179" viewBox="0 0 873 179" fill="none" xmlns="http://www.w3.org/2000/svg">
<path fill-rule="evenodd" clip-rule="evenodd" d="M0.290485 111.675C0.201911 111.728 0.128589 111.803 0.0776758 111.893C0.0267629 111.983 0 112.084 0 112.188C0 112.291 0.0267629 112.392 0.0776758 112.482C0.128589 112.572 0.201911 112.647 0.290485 112.7L37.5266 134.195C37.707 134.3 37.8563 134.451 37.9596 134.633C38.0628 134.814 38.1163 135.02 38.1145 135.229V178.21C38.1145 178.665 38.6045 178.95 39.0054 178.727L76.2237 157.223C76.4044 157.12 76.5547 156.97 76.6595 156.791C76.7642 156.611 76.8198 156.407 76.8205 156.198V112.878C76.8198 112.67 76.7642 112.466 76.6595 112.286C76.5547 112.106 76.4044 111.957 76.2237 111.854L38.1145 89.8504L0.290485 111.675ZM0.290485 22.2819C0.201911 22.3349 0.128589 22.41 0.0776758 22.4997C0.0267629 22.5895 0 22.691 0 22.7942C0 22.8974 0.0267629 22.9988 0.0776758 23.0886C0.128589 23.1784 0.201911 23.2534 0.290485 23.3064L37.5266 44.8018C37.707 44.907 37.8563 45.0579 37.9596 45.2394C38.0628 45.4208 38.1163 45.6264 38.1145 45.8351V89.8415L76.8205 67.4909V23.4845C76.8214 23.2749 76.7666 23.0688 76.6617 22.8872C76.5568 22.7057 76.4057 22.5552 76.2237 22.4512L38.7025 0.79545C38.5224 0.691463 38.3181 0.636719 38.1101 0.636719C37.9021 0.636719 37.6978 0.691463 37.5177 0.79545L0.290485 22.2819Z" fill="#BC97FC"/>
<path fill-rule="evenodd" clip-rule="evenodd" d="M76.8253 67.4889L114.943 89.501C115.122 89.6054 115.271 89.7549 115.374 89.9347C115.477 90.1145 115.531 90.3181 115.531 90.5254V133.516C115.531 133.962 116.03 134.256 116.422 134.024L153.649 112.529C153.828 112.424 153.977 112.275 154.08 112.095C154.183 111.915 154.237 111.711 154.237 111.504V68.1748C154.237 67.9676 154.183 67.7639 154.08 67.5841C153.977 67.4043 153.828 67.2548 153.649 67.1504L116.128 45.4857C115.948 45.3817 115.744 45.327 115.536 45.327C115.328 45.327 115.123 45.3817 114.943 45.4857L76.8253 67.4889ZM300.135 118.221C293.632 125.089 285.08 128.554 274.747 128.554H250.935V53.708H274.738C285.089 53.708 293.623 57.1821 300.135 64.0503C306.647 70.9987 309.907 80.0405 309.907 91.1757C309.907 102.24 306.647 111.353 300.135 118.23V118.221ZM317.355 47.0447C305.997 35.1879 291.672 29.1838 274.738 29.1838H225.387V153.079H274.738C291.672 153.079 306.006 147.074 317.355 135.218C328.721 123.352 334.512 108.529 334.512 91.1668C334.512 73.7335 328.721 58.9192 317.355 47.0447ZM389.627 132.029C383.124 132.029 377.547 129.864 373.28 125.454C368.933 121.045 366.688 115.397 366.688 108.6C366.688 101.874 368.933 96.2355 373.28 91.8171C377.547 87.4075 383.115 85.2339 389.627 85.2339C396.138 85.2339 401.715 87.4075 406.053 91.826C410.472 96.2355 412.708 101.874 412.708 108.6C412.708 115.397 410.472 121.045 406.053 125.454C401.715 129.864 396.138 132.037 389.627 132.037V132.029ZM423.059 75.3281C413.946 66.2863 402.722 61.7431 389.627 61.7431C376.532 61.7431 365.316 66.2952 356.274 75.337C347.224 84.3788 342.672 95.5941 342.672 108.609C342.672 121.704 347.224 132.91 356.274 141.952C365.316 150.994 376.532 155.546 389.627 155.546C402.722 155.546 413.946 150.994 423.059 141.952C432.101 132.91 436.733 121.695 436.733 108.609C436.733 95.5941 432.101 84.3699 423.059 75.3281ZM530.367 64.1929L496.498 153.079H469.8L436.011 64.1929H462.424L483.118 123.931L503.954 64.1929H530.367ZM556.637 99.7008C558.009 94.7122 560.467 90.7303 564.093 87.9153C567.923 84.9489 572.841 83.4256 578.702 83.4256C583.628 83.4256 588.109 84.8776 592.02 87.7015C595.637 90.374 598.167 94.3559 599.476 99.7008H556.637ZM610.977 75.2568C602.514 66.2863 591.655 61.7342 578.702 61.7342C565.028 61.7342 553.67 66.215 544.914 75.1143C536.157 84.0848 531.747 95.2913 531.747 108.6C531.747 122.051 536.228 133.338 545.065 142.237C553.955 151.056 565.821 155.537 580.439 155.537C597.454 155.537 610.469 149.177 619.154 136.518L619.662 135.868L600.198 124.661L599.841 125.16C595.565 130.808 589.125 133.623 580.805 133.623C567.995 133.623 560.182 128.706 557.073 118.657H622.7L622.842 117.998C623.421 114.747 623.715 111.566 623.715 108.6C623.715 95.4338 619.439 84.2273 610.977 75.2568ZM666.777 87.3363V122.996C666.777 125.811 667.419 127.842 668.799 129.071C670.171 130.372 672.274 131.093 675.017 131.307C678.611 131.427 682.207 131.379 685.796 131.164H686.527V153.007L685.876 153.079C681.681 153.586 677.699 153.8 674.153 153.8C664.532 153.8 657.29 152.072 652.596 148.598C646.004 143.823 642.752 135.218 642.752 122.996V87.3363H627.483V64.1929H642.752V39.3836H666.768V64.1929H686.527V87.3363H666.777ZM739.566 132.616C732.769 132.616 727.121 130.3 722.783 125.891C718.364 121.472 716.129 115.62 716.129 108.6C716.129 101.652 718.364 95.799 722.783 91.3895C727.121 86.8998 732.84 84.6638 739.566 84.6638C746.301 84.6638 752.011 86.8998 756.5 91.3895C760.919 95.8703 763.155 101.652 763.155 108.6C763.155 115.62 760.919 121.472 756.5 125.882C752.011 130.3 746.363 132.616 739.566 132.616ZM763.155 64.1929V73.2347C756.358 65.5647 747.022 61.7342 735.37 61.7342C723.576 61.7342 713.233 66.2863 704.842 75.3281C696.379 84.3699 692.103 95.5852 692.103 108.6C692.103 121.695 696.379 132.902 704.842 141.943C713.233 150.985 723.505 155.537 735.37 155.537C747.022 155.537 756.358 151.707 763.164 144.046V153.079H787.18V64.1929H763.155ZM807.74 50.8128C806.35 49.4902 805.247 47.8959 804.499 46.129C803.751 44.3621 803.375 42.4603 803.393 40.5417C803.393 36.631 804.845 33.1657 807.731 30.2706C809.032 28.8659 810.613 27.7481 812.37 26.9889C814.128 26.2296 816.025 25.8454 817.94 25.861C821.993 25.861 825.458 27.3042 828.362 30.2706C831.249 33.1657 832.701 36.631 832.701 40.5417C832.701 44.4435 831.249 47.9177 828.354 50.8128C826.991 52.1864 825.366 53.272 823.576 54.005C821.785 54.738 819.866 55.1036 817.931 55.0798C814.029 55.0798 810.626 53.6367 807.74 50.8128ZM805.994 153.079H830.091V64.1929H805.994V153.079ZM848.86 153.079H872.894V23.9102H848.86V153.079Z" fill="#BC97FC"/>
</svg>
