<svg width="360" height="102" viewBox="0 0 360 102" fill="none" xmlns="http://www.w3.org/2000/svg">
<path d="M107.636 77.9223H100.891V25.829H131.526V32.2291H107.637V49.3319H129.184V55.5843H107.637V77.9223H107.636ZM144.21 33.3263C142.601 34.9294 140.076 35.1816 138.179 33.9275C136.282 32.6743 135.541 30.2646 136.411 28.1741C137.28 26.0827 139.516 24.8925 141.752 25.3316C143.987 25.7706 145.6 27.7166 145.601 29.9786C145.623 31.238 145.117 32.4505 144.203 33.3263H144.21ZM144.21 77.9223H137.464V42.2729H144.21V77.9223ZM159.011 77.9223H152.266V42.2729H158.714V48.0932H159.006C159.785 46.0419 161.28 44.3373 163.22 43.2901C165.073 42.1099 167.215 41.4556 169.416 41.3979C171.144 41.3487 172.863 41.6462 174.472 42.2729L171.907 48.5253C170.749 48.1432 169.534 47.9694 168.317 48.0133C165.843 48.0263 163.489 49.0697 161.829 50.8896C159.947 52.8072 159.006 55.3175 159.006 58.4207L159.011 77.9223ZM192.956 79.0587C187.532 79.0587 183.122 77.2642 179.729 73.6766C176.335 70.0891 174.636 65.562 174.632 60.0976C174.533 55.1784 176.298 50.4006 179.58 46.7123C182.722 43.041 187.372 40.9804 192.223 41.1073C197.548 41.1073 201.813 42.8295 205.016 46.2741C208.218 49.7186 209.818 54.3265 209.813 60.0968L209.739 61.3363H181.365C181.561 64.9246 182.77 67.7663 184.996 69.8623C187.077 71.8898 189.884 73.0146 192.8 72.9885C197.637 72.9885 200.91 70.951 202.621 66.8783L208.633 69.3502C207.415 72.1689 205.405 74.5801 202.844 76.2962C200.153 78.1376 196.857 79.0587 192.954 79.0587H192.956ZM202.634 55.755C202.488 53.7167 201.547 51.7761 199.81 49.9347C198.074 48.0932 195.491 47.1913 192.063 47.229C189.685 47.1875 187.376 48.0171 185.576 49.5595C183.689 51.2002 182.369 53.3869 181.802 55.8119L202.634 55.755ZM234.184 79.0587C231.633 79.1087 229.108 78.5228 226.844 77.3534C224.855 76.3577 223.172 74.8507 221.971 72.9885H221.679V77.9223H215.226V25.829H221.971V42.2729L221.679 47.2182H221.971C223.172 45.356 224.855 43.8483 226.844 42.8526C229.105 41.6701 231.629 41.0704 234.185 41.108C238.827 41.108 242.835 42.9264 246.21 46.5639C249.584 50.2022 251.27 54.7132 251.266 60.0976C251.263 65.482 249.58 69.993 246.21 73.6305C242.839 77.2688 238.831 79.078 234.185 79.0587H234.184ZM233.085 72.9485C236.158 72.9731 239.094 71.6876 241.147 69.4186C243.396 67.0659 244.52 63.9489 244.52 60.0692C244.52 56.1887 243.396 53.0724 241.147 50.7189C239.07 48.4777 236.144 47.199 233.076 47.1921C230.007 47.186 227.075 48.4523 224.989 50.6843C222.767 53.0109 221.656 56.1395 221.656 60.0684C221.656 63.9981 222.778 67.1358 225.023 69.4809C227.089 71.7414 230.033 73.0139 233.108 72.977L233.085 72.9485ZM268.438 79.0587C264.621 79.0587 261.434 77.9677 258.876 75.7849C256.319 73.6028 255.035 70.7172 255.028 67.1282C255.028 63.2484 256.543 60.2052 259.575 58.0001C262.606 55.795 266.343 54.6917 270.787 54.6917C274.745 54.6917 277.991 55.4198 280.521 56.8745V55.8573C280.617 53.4607 279.621 51.1495 277.807 49.5656C275.96 47.9863 273.584 47.1529 271.147 47.229C269.283 47.2059 267.447 47.6826 265.833 48.6107C264.322 49.441 263.163 50.785 262.57 52.3958L256.414 49.7755C257.246 47.635 258.884 45.649 261.335 43.8191C263.785 41.9884 267.004 41.0788 271.012 41.0903C275.593 41.0903 279.41 42.4166 282.464 45.0692C285.518 47.7219 287.034 51.4809 287.01 56.3463V77.9223H280.54V72.977H280.248C277.557 77.032 273.623 79.051 268.447 79.051L268.438 79.0587ZM269.538 72.9485C272.373 72.9385 275.094 71.8406 277.131 69.8853C279.303 68.0677 280.559 65.3944 280.567 62.5757C278.658 61.0218 275.795 60.2452 271.977 60.2452C268.702 60.2452 266.234 60.948 264.573 62.3535C263.024 63.536 262.106 65.3582 262.083 67.2988C262.051 68.9873 262.922 70.5665 264.374 71.4477C265.9 72.4657 267.701 72.9993 269.539 72.977V72.9485H269.538ZM306.844 79.0587C302.836 79.0587 299.526 78.0884 296.915 76.1485C294.375 74.2863 292.395 71.7706 291.189 68.8735L297.202 66.4008C299.11 70.8649 302.355 73.0961 306.936 73.0961C308.756 73.1707 310.555 72.6886 312.09 71.7152C313.355 70.9356 314.119 69.5563 314.105 68.0777C314.105 65.7511 312.468 64.1749 309.185 63.3484L301.93 61.6038C299.542 60.9764 297.318 59.8485 295.407 58.2954C293.374 56.7215 292.227 54.2719 292.326 51.7138C292.326 48.5615 293.731 46.0034 296.541 44.0405C299.48 42.0376 302.981 41.0073 306.544 41.0957C309.52 41.0488 312.454 41.7923 315.042 43.2501C317.485 44.6271 319.375 46.8 320.39 49.4003L314.533 51.7761C313.216 48.6237 310.479 47.0468 306.321 47.0468C304.553 46.9883 302.803 47.4174 301.265 48.2862C300.005 48.9344 299.215 50.2253 299.215 51.6339C299.215 53.6729 300.803 55.0553 303.979 55.7835L311.085 57.4604C314.456 58.2177 316.949 59.544 318.564 61.4385C320.128 63.2085 320.987 65.4843 320.98 67.8386C321.011 70.9779 319.544 73.9457 317.023 75.8418C314.385 77.9861 310.99 79.0587 306.837 79.0587H306.844ZM343.125 79.0587C337.701 79.0587 333.291 77.2642 329.898 73.6766C326.504 70.0891 324.805 65.552 324.801 60.0692C324.701 55.1491 326.467 50.3722 329.749 46.6831C332.904 43.021 337.557 40.9719 342.409 41.1073C347.753 41.1073 352.018 42.8295 355.202 46.2741C358.386 49.7186 359.985 54.3265 360 60.0976L359.926 61.3363H331.529C331.723 64.9246 332.934 67.7671 335.159 69.8623C337.247 71.8905 340.061 73.0108 342.981 72.977C347.818 72.977 351.091 70.9395 352.802 66.8667L358.815 69.3394C357.596 72.1581 355.587 74.5693 353.025 76.2846C350.334 78.1338 347.033 79.0587 343.124 79.0587H343.125ZM352.803 55.755C352.657 53.7167 351.716 51.7761 349.979 49.9347C348.243 48.0932 345.664 47.1913 342.244 47.229C339.866 47.1883 337.557 48.0179 335.756 49.5595C333.869 51.2002 332.55 53.3869 331.982 55.8119L352.803 55.755Z" fill="black" fill-opacity="0.54"/>
<path d="M0.0400391 81.9212L12.4442 2.55223C12.5957 1.57884 13.3523 0.811506 14.3241 0.646199C15.2952 0.480891 16.2632 0.956053 16.7268 1.82488L29.5547 25.7498L34.6677 16.0152C35.0637 15.2624 35.8441 14.7911 36.6952 14.7911C37.5456 14.7911 38.326 15.2624 38.7219 16.0152L73.3388 81.9212H0.0400391Z" fill="#FFA000"/>
<path d="M42.8915 51.0034L29.5485 25.7383L0.0400391 81.9212L42.8915 51.0034Z" fill="#F57C00"/>
<path d="M73.3396 81.9212L63.8394 23.1326C63.6956 22.2883 63.0928 21.5948 62.2771 21.3334C61.4613 21.072 60.5686 21.2896 59.962 21.8955L0.0400391 81.9204L33.1968 100.514C35.2789 101.677 37.8147 101.677 39.8968 100.514L73.3396 81.9212Z" fill="#FFCA28"/>
<path d="M63.8394 23.1326C63.6956 22.2884 63.0928 21.5949 62.277 21.3335C61.4612 21.072 60.5678 21.2896 59.9619 21.8955L48.0691 33.8184L38.7173 16.0144C38.3213 15.2617 37.5401 14.7904 36.6898 14.7904C35.8394 14.7904 35.0582 15.2617 34.6622 16.0144L29.5493 25.7499L16.7214 1.8249C16.2562 0.955308 15.2875 0.481683 14.3148 0.647759C13.3422 0.813835 12.588 1.58348 12.438 2.55763L0.0399813 81.9213H0L0.0399813 81.9666L0.366751 82.1273L59.945 22.4799C60.5509 21.8717 61.4459 21.6525 62.2639 21.9132C63.082 22.1738 63.6856 22.8704 63.8278 23.717L73.2473 81.9782L73.3395 81.9213L63.8394 23.1326ZM0.149161 81.8121L12.4442 3.11891C12.5933 2.14475 13.3499 1.37511 14.3218 1.20903C15.2928 1.04296 16.2624 1.51658 16.7283 2.38618L29.5546 26.3111L34.6676 16.5765C35.0636 15.8237 35.844 15.3524 36.6951 15.3524C37.5455 15.3524 38.3259 15.8237 38.7219 16.5765L47.8845 34.0022L0.149161 81.8121Z" fill="white" fill-opacity="0.2"/>
<path d="M39.8968 99.9535C37.8147 101.116 35.2789 101.116 33.1968 99.9535L0.12077 81.4114L0.0400391 81.9212L33.1968 100.509C35.2789 101.672 37.8147 101.672 39.8968 100.509L73.3396 81.9212L73.2535 81.3945L39.8968 99.9535Z" fill="#A52714" fill-opacity="0.2"/>
</svg>
