<svg xmlns="http://www.w3.org/2000/svg" viewBox="0 0 893.58 145.21"><title>quickbase logo</title><path fill="#1c2c17" d="M205.53 144.83v-36.41c-3.48 4.9-10.76 8.07-20.58 8.07-22.48 0-38.94-17.26-38.94-41.32 0-23.43 15.51-41 38-41 13.93 0 20.42 6.33 22.17 9.66v-7.76h23v108.76zM188.12 95c9.34 0 17.73-6.49 17.73-19.63s-8.39-19.47-17.73-19.47-17.73 6.33-17.73 19.47c0 12.94 8.39 19.63 17.73 19.63zm111.29 11.83c-4.11 6.81-13.14 9.66-21.05 9.66-19.16 0-29.92-13.93-29.92-30.71V36.07h24.06v44.64c0 7.6 4.12 13.62 12.67 13.62 8.07 0 13.14-5.54 13.14-13.46v-44.8h24.06v64.59a122.85 122.85 0 0 0 .79 14.09h-23.11a56.76 56.76 0 0 1-.64-7.92zm43.23 7.92V36.07h24.06v78.68zM405 75.49C405 88 413.4 95 423.38 95c9.34 0 14.56-5.86 16.3-11.71l21.21 6.49c-3.48 13.77-16.46 27.38-37.51 27.38-23.43 0-42.27-17.25-42.27-41.63 0-24.54 18.36-41.8 41.47-41.8 21.69 0 34.36 13.3 37.84 27.39l-21.53 6.49c-1.74-6-6.49-11.71-15.83-11.71-9.97-.04-18.06 6.92-18.06 19.59zm118.11-6.33 31.35 45.59H525l-18.52-27.7-7.76 8.39v19.31h-24.05V.13h24.06v62.38l23.91-26.44h31.19zm41.8 45.59V.13h23.59v43.38c3.33-4.91 12-9.34 22.8-9.34 22.79 0 36.57 17.41 36.57 41 0 24.06-15.52 41.32-37.52 41.32-10.45 0-18.52-4.59-22.17-10.61v8.87zm41.16-58.89c-9.34 0-17.89 6.17-17.89 19.47 0 13 8.55 19.63 17.89 19.63s17.73-6.49 17.73-19.63c0-13.33-8.39-19.47-17.73-19.47zM681 69.31l18.52-2.85c4.27-.63 5.7-2.69 5.7-5.38 0-4.59-4-8.55-11.56-8.55-8.39 0-13 5.7-13.45 11.56l-20.9-4.27c1-11.24 11.4-26.13 34.51-26.13 25.49 0 34.83 14.25 34.83 30.4v38.47a76.61 76.61 0 0 0 1 12.19h-21.78a38.3 38.3 0 0 1-.79-8.87C703 112.53 695.36 117 684.91 117c-17.25 0-27.22-11.4-27.22-23.91 0-13.96 10.31-21.88 23.31-23.78zm24.22 14.57V80.4l-14.92 2.37c-5.07.79-8.87 3.17-8.87 8.71 0 4.11 2.69 8.07 9.34 8.07 7.13 0 14.41-3.48 14.41-15.67zm56.64 4.91c.31 5.38 4.11 10.6 12.34 10.6 6.18 0 9.19-3.32 9.19-6.8 0-2.85-1.9-5.23-7.76-6.5l-9-2C749.85 80.45 743.2 71 743.2 59.87c0-14.41 12.66-26.13 30.23-26.13 22.8 0 30.72 14.25 31.51 23.43L785 60.76c-.63-5.22-4-9.65-11.24-9.65-4.59 0-8.55 2.69-8.55 6.81 0 3.32 2.69 5.22 6.18 5.85l10.44 2.06C798.11 69.16 806 79 806 90.53c0 13.45-10.3 26.59-31.35 26.59-24.7 0-32.61-16-33.25-24.69zm130.29 3.32c-3.8 13.61-16.31 25-36.25 25-21.69 0-41-15.51-41-41.95 0-25.33 18.84-41.48 39.27-41.48 24.37 0 39.41 15 39.41 40.37a50 50 0 0 1-.47 7.44h-54.79c.48 8.87 8.55 15.2 17.89 15.2 8.71 0 13.62-4.11 15.83-10.29zM870.3 66c-.31-6-4.43-13.3-15.83-13.3-10.13 0-15.2 7.44-15.67 13.3zM342.72.13h23.96v23.96h-23.96z" class="color--mallard"></path><path fill="#2c9382" d="M108.9 0v72.61H72.6V36.3H36.31V0h72.59z" class="color--lochinvar"></path><path fill="#1c2c17" d="M72.6 72.61v36.29H0V36.3h36.31v36.31H72.6z" class="color--mallard"></path><path fill="#f25e30" d="M72.6 108.9h36.31v36.31H72.6z" class="color--flamingo"></path></svg>