<?xml version="1.0" encoding="UTF-8" standalone="no"?>
<!DOCTYPE svg PUBLIC "-//W3C//DTD SVG 1.1//EN" "http://www.w3.org/Graphics/SVG/1.1/DTD/svg11.dtd">
<svg width="100%" height="100%" viewBox="0 0 115 14" version="1.1" xmlns="http://www.w3.org/2000/svg" xmlns:xlink="http://www.w3.org/1999/xlink" xml:space="preserve" xmlns:serif="http://www.serif.com/" style="fill-rule:evenodd;clip-rule:evenodd;stroke-linejoin:round;stroke-miterlimit:2;">
    <g>
        <path d="M6.222,7.292L12.444,13.417L0,13.417L6.222,7.292Z" style="fill:rgb(255,38,56);fill-rule:nonzero;"/>
        <path d="M0,1.167L6.222,7.292L12.444,1.167L0,1.167Z" style="fill:rgb(255,198,0);fill-rule:nonzero;"/>
        <path d="M6.223,7.292L12.445,13.417L18.667,7.292L12.445,1.167L6.223,7.292Z" style="fill:rgb(0,121,242);fill-rule:nonzero;"/>
        <path d="M112.602,4.07C112.602,4.159 112.479,4.198 112.421,4.13C111.966,3.601 111.214,3.2 110.185,3.2C107.958,3.2 106.692,4.998 106.692,7.175C106.692,9.338 107.958,11.135 110.185,11.135C111.228,11.135 112.043,10.77 112.549,10.14C112.606,10.07 112.733,10.108 112.733,10.198L112.733,10.871C112.733,10.921 112.773,10.961 112.822,10.961L114.244,10.961C114.294,10.961 114.334,10.921 114.334,10.871L114.334,0.09C114.334,0.041 114.293,0 114.244,0L112.691,0C112.642,0.001 112.602,0.041 112.602,0.09L112.602,4.07ZM112.674,7.175C112.674,8.535 111.874,9.601 110.549,9.601C109.239,9.601 108.424,8.534 108.424,7.175C108.424,5.787 109.239,4.735 110.549,4.735C111.874,4.735 112.674,5.787 112.674,7.175ZM106.26,3.4C106.26,3.354 106.224,3.315 106.178,3.311C106.123,3.307 106.067,3.304 106.012,3.303C104.942,3.303 104.319,3.732 103.976,4.152C103.918,4.222 103.785,4.184 103.785,4.092L103.785,3.465C103.785,3.416 103.745,3.376 103.696,3.375L102.273,3.375C102.224,3.376 102.184,3.416 102.184,3.465L102.184,10.871C102.184,10.921 102.224,10.961 102.273,10.961L103.827,10.961C103.876,10.96 103.916,10.92 103.916,10.871L103.916,7.015C103.916,5.553 104.644,4.91 105.867,4.91C105.971,4.91 106.081,4.92 106.157,4.927C106.16,4.927 106.164,4.928 106.167,4.928C106.217,4.928 106.259,4.887 106.26,4.837L106.26,3.4ZM98.925,7.41C98.929,7.409 98.934,7.409 98.938,7.409C98.987,7.409 99.028,7.45 99.028,7.499L99.028,7.877C99.028,8.9 98.344,9.777 96.946,9.777C96.116,9.777 95.606,9.499 95.606,8.783C95.606,8.257 95.956,7.863 97.019,7.701L98.925,7.411L98.925,7.41ZM96.597,11.136C97.674,11.136 98.484,10.822 99.009,10.206C99.066,10.138 99.191,10.176 99.195,10.266C99.216,10.701 99.278,10.96 99.29,10.96L100.799,10.96C100.863,10.96 100.908,10.894 100.888,10.833C100.783,10.501 100.716,9.963 100.716,9.528L100.716,6.035C100.716,4.296 99.668,3.2 97.456,3.2C95.227,3.2 94.314,4.368 94.134,5.659C94.134,5.662 94.133,5.666 94.133,5.669C94.133,5.718 94.173,5.758 94.222,5.758L95.735,5.758C95.779,5.758 95.815,5.726 95.825,5.683C95.966,5.026 96.5,4.633 97.412,4.633C98.445,4.633 99.028,5.1 99.028,6.021L99.028,6.06C99.028,6.104 98.995,6.143 98.951,6.149L96.844,6.445C94.85,6.722 93.948,7.555 93.948,8.841C93.948,10.141 94.719,11.136 96.597,11.136ZM89.363,11.136C91.779,11.136 93.293,9.309 93.293,7.176C93.293,5.042 91.779,3.2 89.363,3.2C86.961,3.2 85.448,5.042 85.448,7.175C85.448,9.309 86.961,11.135 89.363,11.135L89.363,11.136ZM87.18,7.176C87.18,5.699 88.111,4.735 89.363,4.735C90.63,4.735 91.561,5.699 91.561,7.175C91.561,8.637 90.63,9.601 89.363,9.601C88.111,9.601 87.18,8.637 87.18,7.175L87.18,7.176ZM79.069,4.13C79.011,4.198 78.889,4.159 78.889,4.07L78.889,0.09C78.889,0.041 78.848,0 78.799,0L77.246,0C77.197,0 77.156,0.041 77.156,0.09L77.156,10.87C77.156,10.92 77.196,10.96 77.246,10.96L78.668,10.96C78.718,10.96 78.758,10.92 78.758,10.87L78.758,10.19C78.758,10.1 78.882,10.062 78.938,10.132C79.455,10.767 80.271,11.136 81.305,11.136C83.546,11.136 84.813,9.338 84.813,7.176C84.813,4.998 83.546,3.2 81.305,3.2C80.288,3.2 79.527,3.601 79.069,4.13ZM78.83,7.175C78.83,5.787 79.63,4.735 80.955,4.735C82.265,4.735 83.081,5.787 83.081,7.175C83.081,8.535 82.265,9.601 80.955,9.601C79.631,9.601 78.83,8.534 78.83,7.175ZM75.685,9.531C75.683,9.479 75.641,9.438 75.589,9.438C75.582,9.438 75.576,9.439 75.569,9.44C75.469,9.46 75.315,9.485 75.147,9.485C74.55,9.485 74.303,9.192 74.303,8.593L74.303,4.853C74.304,4.804 74.344,4.764 74.393,4.764L75.625,4.764C75.675,4.764 75.715,4.724 75.715,4.674L75.715,3.467C75.715,3.418 75.674,3.377 75.625,3.377L74.392,3.377C74.343,3.377 74.302,3.336 74.302,3.287L74.302,1.494C74.302,1.445 74.262,1.405 74.213,1.404L72.66,1.404C72.611,1.404 72.57,1.445 72.57,1.494L72.57,3.288C72.57,3.337 72.529,3.378 72.48,3.378L71.51,3.378C71.461,3.378 71.421,3.418 71.42,3.467L71.42,4.676C71.42,4.726 71.46,4.766 71.51,4.766L72.48,4.766C72.53,4.766 72.57,4.806 72.57,4.855L72.57,8.77C72.57,10.202 73.24,11.006 74.783,11.006C75.211,11.006 75.497,10.958 75.619,10.933C75.658,10.924 75.686,10.889 75.685,10.849L75.685,9.531ZM63.467,7.175C63.467,9.367 65.01,11.135 67.237,11.135C69.423,11.135 70.557,9.649 70.801,8.315C70.802,8.31 70.802,8.305 70.802,8.3C70.802,8.252 70.763,8.213 70.715,8.213C70.715,8.213 70.714,8.213 70.714,8.213L69.112,8.213C69.071,8.213 69.035,8.241 69.024,8.281C68.8,9.062 68.128,9.601 67.222,9.601C65.985,9.601 65.199,8.593 65.199,7.175C65.199,5.743 65.985,4.735 67.222,4.735C68.128,4.735 68.8,5.274 69.024,6.055C69.035,6.095 69.071,6.123 69.112,6.123L70.714,6.123C70.714,6.123 70.715,6.123 70.715,6.123C70.763,6.123 70.802,6.084 70.802,6.036C70.802,6.031 70.802,6.026 70.801,6.021C70.557,4.687 69.423,3.201 67.237,3.201C65.01,3.201 63.467,4.969 63.467,7.175ZM60.55,7.745C60.55,8.987 59.881,9.645 58.804,9.645C57.756,9.645 57.334,8.958 57.334,7.921L57.334,3.465C57.334,3.416 57.293,3.375 57.244,3.375L55.691,3.375C55.642,3.375 55.601,3.416 55.601,3.465L55.601,8.155C55.601,9.923 56.548,11.135 58.381,11.135C59.399,11.135 60.094,10.752 60.483,10.277C60.542,10.205 60.682,10.246 60.682,10.339L60.682,10.871C60.682,10.921 60.722,10.961 60.772,10.961L62.193,10.961C62.243,10.961 62.283,10.921 62.283,10.871L62.283,3.465C62.283,3.416 62.242,3.375 62.193,3.375L60.64,3.375C60.591,3.375 60.55,3.416 60.55,3.465L60.55,7.745ZM52.54,4.07C52.54,4.159 52.417,4.198 52.359,4.13C51.904,3.601 51.152,3.2 50.123,3.2C47.896,3.2 46.629,4.998 46.629,7.175C46.629,9.338 47.896,11.135 50.123,11.135C51.165,11.135 51.98,10.77 52.487,10.14C52.544,10.07 52.67,10.108 52.67,10.198L52.67,10.871C52.67,10.921 52.71,10.961 52.76,10.961L54.182,10.961C54.232,10.961 54.272,10.921 54.272,10.871L54.272,0.09C54.272,0.041 54.231,0 54.182,0L52.629,0C52.58,0 52.539,0.041 52.539,0.09L52.539,4.07L52.54,4.07ZM52.612,7.175C52.612,8.535 51.812,9.601 50.487,9.601C49.177,9.601 48.361,8.534 48.361,7.175C48.361,5.787 49.177,4.735 50.487,4.735C51.811,4.735 52.612,5.787 52.612,7.175ZM42,11.136C44.417,11.136 45.93,9.309 45.93,7.176C45.93,5.041 44.418,3.2 42,3.2C39.599,3.2 38.085,5.042 38.085,7.175C38.085,9.309 39.599,11.135 42,11.135L42,11.136ZM39.817,7.176C39.817,5.699 40.748,4.735 42,4.735C43.267,4.735 44.198,5.699 44.198,7.175C44.198,8.637 43.267,9.601 42,9.601C40.748,9.601 39.817,8.637 39.817,7.175L39.817,7.176ZM37.886,3.4C37.886,3.354 37.85,3.315 37.804,3.311C37.749,3.307 37.694,3.304 37.639,3.303C36.569,3.303 35.945,3.732 35.602,4.152C35.544,4.222 35.412,4.184 35.412,4.092L35.412,3.465C35.412,3.416 35.371,3.375 35.322,3.375L33.9,3.375C33.851,3.375 33.81,3.416 33.81,3.465L33.81,10.871C33.81,10.921 33.85,10.961 33.9,10.961L35.453,10.961C35.503,10.961 35.543,10.921 35.543,10.871L35.543,7.015C35.543,5.553 36.27,4.91 37.493,4.91C37.598,4.91 37.707,4.92 37.783,4.927C37.786,4.927 37.79,4.928 37.793,4.928C37.843,4.928 37.885,4.887 37.886,4.837L37.886,3.4ZM26.816,10.272C26.816,10.182 26.94,10.143 26.999,10.212C27.456,10.747 28.217,11.136 29.233,11.136C31.474,11.136 32.741,9.338 32.741,7.176C32.741,4.998 31.474,3.2 29.233,3.2C28.198,3.2 27.382,3.581 26.865,4.21C26.809,4.279 26.685,4.24 26.685,4.15L26.685,3.465C26.685,3.416 26.644,3.375 26.595,3.375L25.174,3.375C25.125,3.375 25.084,3.416 25.084,3.465L25.084,13.91C25.084,13.96 25.124,14 25.174,14L26.727,14C26.777,14 26.817,13.96 26.817,13.91L26.817,10.272L26.816,10.272ZM26.758,7.175C26.758,5.772 27.558,4.705 28.883,4.705C30.193,4.705 31.009,5.772 31.009,7.175C31.009,8.535 30.193,9.601 28.883,9.601C27.559,9.601 26.758,8.534 26.758,7.175Z" style="fill:rgb(205,219,255);fill-rule:nonzero;"/>
    </g>
</svg>
