<?xml version="1.0" encoding="UTF-8" standalone="no"?>
<!DOCTYPE svg PUBLIC "-//W3C//DTD SVG 1.1//EN" "http://www.w3.org/Graphics/SVG/1.1/DTD/svg11.dtd">
<svg width="100%" height="100%" viewBox="0 0 400 91" version="1.1" xmlns="http://www.w3.org/2000/svg" xmlns:xlink="http://www.w3.org/1999/xlink" xml:space="preserve" xmlns:serif="http://www.serif.com/" style="fill-rule:evenodd;clip-rule:evenodd;stroke-linejoin:round;stroke-miterlimit:2;">
    <g id="trademark__Perplexity">
        <path id="wordmark__Perplexity" d="M196.978,27.893L200.033,27.893L200.033,34.187L196.079,34.187C192.979,34.187 190.669,34.933 189.14,36.425C187.615,37.918 186.85,40.366 186.85,43.771L186.85,64.401L180.606,64.401L180.606,28.033L186.85,28.033L186.85,33.837C186.85,34.162 187.014,34.327 187.337,34.327C187.52,34.327 187.659,34.282 187.754,34.187C187.848,34.092 187.938,33.907 188.032,33.626C189.234,29.806 192.219,27.893 196.983,27.893L196.978,27.893ZM237.763,35.689C239.402,38.604 240.227,42.114 240.227,46.215C240.227,50.316 239.407,53.826 237.763,56.74C236.119,59.654 233.993,61.832 231.38,63.279C228.767,64.727 225.956,65.448 222.951,65.448C217.03,65.448 212.868,63.069 210.464,58.312C210.28,57.942 210.046,57.751 209.768,57.751C209.49,57.751 209.351,57.892 209.351,58.172L209.351,77.685L203.107,77.685L203.107,28.033L209.351,28.033L209.351,34.257C209.351,34.538 209.49,34.678 209.768,34.678C210.046,34.678 210.275,34.493 210.464,34.117C212.868,29.36 217.03,26.982 222.951,26.982C225.956,26.982 228.767,27.703 231.38,29.15C233.993,30.597 236.119,32.775 237.763,35.689ZM233.983,46.215C233.983,41.923 232.841,38.579 230.551,36.18C228.261,33.782 225.246,32.58 221.496,32.58C217.745,32.58 214.73,33.782 212.44,36.18C210.151,38.584 209.311,41.928 209.311,46.215C209.311,50.501 210.151,53.851 212.44,56.249C214.73,58.653 217.75,59.849 221.496,59.849C225.241,59.849 228.261,58.648 230.551,56.249C232.841,53.851 233.983,50.501 233.983,46.215ZM134.595,35.745C136.235,38.659 137.059,42.169 137.059,46.27C137.059,50.371 136.24,53.881 134.595,56.795C132.951,59.709 130.825,61.887 128.213,63.335C125.6,64.782 122.788,65.503 119.783,65.503C113.863,65.503 109.7,63.124 107.296,58.367C107.112,57.997 106.879,57.807 106.601,57.807C106.322,57.807 106.183,57.947 106.183,58.227L106.183,77.74L99.945,77.74L99.945,28.088L106.188,28.088L106.188,34.312C106.188,34.593 106.327,34.733 106.606,34.733C106.884,34.733 107.112,34.548 107.301,34.172C109.705,29.415 113.867,27.037 119.788,27.037C122.793,27.037 125.605,27.758 128.218,29.205C130.83,30.652 132.956,32.83 134.6,35.745L134.595,35.745ZM130.815,46.27C130.815,41.978 129.673,38.634 127.383,36.235C125.093,33.837 122.078,32.635 118.328,32.635C114.578,32.635 111.563,33.837 109.273,36.235C106.983,38.639 106.144,41.984 106.144,46.27C106.144,50.556 106.983,53.906 109.273,56.304C111.563,58.708 114.578,59.905 118.328,59.905C122.078,59.905 125.093,58.703 127.383,56.304C129.673,53.906 130.815,50.556 130.815,46.27ZM169.112,52.854L175.703,52.854C174.824,56.259 173.031,59.209 170.329,61.702C167.622,64.196 163.748,65.442 158.706,65.442C154.911,65.442 151.573,64.661 148.682,63.099C145.791,61.537 143.561,59.314 141.986,56.42C140.412,53.53 139.627,50.125 139.627,46.21C139.627,42.294 140.392,38.889 141.917,36C143.442,33.111 145.583,30.882 148.335,29.32C151.086,27.758 154.31,26.977 158.011,26.977C161.711,26.977 164.776,27.748 167.344,29.285C169.912,30.822 171.829,32.865 173.101,35.404C174.372,37.948 175.008,40.732 175.008,43.761L175.008,47.957L146.219,47.957C146.447,51.593 147.664,54.487 149.859,56.63C152.055,58.773 155.005,59.849 158.706,59.849C161.711,59.849 164.016,59.234 165.61,57.997C167.205,56.76 168.372,55.048 169.112,52.854ZM146.288,42.715L168.074,42.715C168.074,39.545 167.264,37.061 165.645,35.264C164.026,33.471 161.483,32.57 158.015,32.57C154.777,32.57 152.129,33.446 150.073,35.194C148.017,36.941 146.755,39.45 146.293,42.71L146.288,42.715ZM245.169,64.396L251.413,64.396L251.413,14.043L245.169,14.043L245.169,64.401L245.169,64.396ZM331.801,24.063L339.093,24.063L339.093,16.191L331.801,16.191L331.801,24.063ZM357.526,58.978C356.393,59.093 355.708,59.153 355.479,59.153C355.156,59.153 354.898,59.058 354.714,58.873C354.531,58.688 354.436,58.432 354.436,58.102C354.436,57.872 354.496,57.181 354.61,56.039C354.724,54.897 354.784,53.135 354.784,50.761L354.784,33.361L363.69,33.361L361.937,28.033L354.789,28.033L354.789,18.239L348.545,18.239L348.545,28.028L341.755,28.028L341.755,33.356L348.545,33.356L348.545,52.504C348.545,56.515 349.519,59.499 351.461,61.457C353.403,63.415 356.363,64.396 360.342,64.396L365.2,64.396L365.2,58.803L362.771,58.803C360.412,58.803 358.663,58.863 357.531,58.978L357.526,58.978ZM394.059,28.028L383.723,58.542C383.583,58.918 383.365,59.409 382.655,59.409C381.944,59.409 381.726,58.918 381.587,58.542L371.25,28.028L364.882,28.028L376.853,64.396L381.085,64.396C381.363,64.396 381.572,64.421 381.711,64.466C381.85,64.511 381.964,64.626 382.059,64.817C382.242,65.097 382.217,65.518 381.989,66.074L380.047,71.386C379.769,72.087 379.237,72.438 378.452,72.438C378.174,72.438 377.529,72.378 376.51,72.262C375.492,72.147 374.176,72.087 372.556,72.087L367.49,72.087L367.49,77.68L374.151,77.68C378.035,77.68 380.375,77.014 382.386,75.687C384.398,74.361 385.958,72.017 387.07,68.657L400,29.42L400,28.023L394.059,28.023L394.059,28.028ZM311.406,41.598L301.626,28.028L294.756,28.028L294.756,29.425L306.478,45.163L292.188,62.999L292.188,64.396L299.197,64.396L310.576,49.78L321.191,64.396L327.922,64.396L327.922,62.999L315.504,46.215L328.965,29.5L328.965,28.033L321.956,28.033L311.411,41.603L311.406,41.598ZM332.467,64.396L338.71,64.396L338.71,28.033L332.467,28.033L332.467,64.401L332.467,64.396ZM292.471,52.854C291.592,56.259 289.799,59.209 287.097,61.702C284.39,64.196 280.515,65.442 275.474,65.442C271.679,65.442 268.341,64.661 265.45,63.099C262.559,61.537 260.329,59.314 258.754,56.42C257.18,53.53 256.395,50.125 256.395,46.21C256.395,42.294 257.16,38.889 258.685,36C260.21,33.111 262.35,30.882 265.102,29.32C267.854,27.758 271.078,26.977 274.778,26.977C278.479,26.977 281.543,27.748 284.111,29.285C286.679,30.822 288.597,32.865 289.868,35.404C291.14,37.948 291.776,40.732 291.776,43.761L291.776,47.957L262.986,47.957C263.215,51.593 264.432,54.487 266.627,56.63C268.823,58.773 271.773,59.849 275.474,59.849C278.479,59.849 280.783,59.234 282.378,57.997C283.972,56.76 285.14,55.048 285.88,52.854L292.471,52.854ZM263.056,42.715L284.842,42.715C284.842,39.545 284.032,37.061 282.413,35.264C280.793,33.471 278.25,32.57 274.783,32.57C271.545,32.57 268.897,33.446 266.841,35.194C264.784,36.941 263.523,39.45 263.061,42.71L263.056,42.715Z" style="fill:rgb(25,26,26);fill-rule:nonzero;"/>
        <g id="appIcon__Perplexity">
            <path d="M38.694,29.983L12.863,5.89L12.863,29.983L38.694,29.983Z" style="fill:none;fill-rule:nonzero;stroke:rgb(88,181,202);stroke-width:2px;"/>
            <path d="M39.501,29.983L65.331,5.89L65.331,29.983L39.501,29.983Z" style="fill:none;fill-rule:nonzero;stroke:rgb(88,181,202);stroke-width:2px;"/>
            <path d="M38.723,2L38.723,90.253" style="fill:none;fill-rule:nonzero;stroke:rgb(88,181,202);stroke-width:2px;"/>
            <path d="M64.525,53.758L38.694,30.007L38.694,62.94L64.525,85.972L64.525,53.758Z" style="fill:none;fill-rule:nonzero;stroke:rgb(88,181,202);stroke-width:2px;"/>
            <path d="M12.892,53.758L38.723,30.007L38.723,62.94L12.892,85.972L12.892,53.758Z" style="fill:none;fill-rule:nonzero;stroke:rgb(88,181,202);stroke-width:2px;"/>
            <path d="M2.287,29.983L2.287,64.424L12.886,64.424L12.886,53.735L38.723,29.983L2.287,29.983Z" style="fill:none;fill-rule:nonzero;stroke:rgb(88,181,202);stroke-width:2px;"/>
            <path d="M38.694,30.3L64.525,54.051L64.525,64.74L75.287,64.74L75.287,30.3L38.694,30.3Z" style="fill:none;fill-rule:nonzero;stroke:rgb(88,181,202);stroke-width:2px;"/>
        </g>
    </g>
</svg>
