<svg width="630" height="145" viewBox="0 0 630 145" fill="none" xmlns="http://www.w3.org/2000/svg">
<path d="M253.293 47.4432H267.07V52.5883C270.455 49.0002 276.778 46.123 283.724 46.123C298.578 46.123 308.164 57.6319 308.164 73.5554C308.164 89.966 296.899 102.666 279.649 102.666C274.856 102.666 270.171 101.827 267.07 100.033V125.312H253.293V47.4432ZM267.07 64.9165V86.7231C270.787 89.1197 273.901 89.8371 278.451 89.8371C288.037 89.8371 293.548 82.8845 293.548 73.9006C293.548 65.2754 288.518 59.047 279.412 59.047C274.74 59.0604 270.428 61.22 267.07 64.9165Z" fill="white"/>
<path d="M219.188 46.4238C201.931 46.4238 190.673 59.1243 190.673 75.5349C190.673 91.4717 200.259 102.974 215.113 102.974C222.059 102.974 228.409 100.097 231.767 96.4952V101.654H245.592V56.4232C235.355 48.6713 224.009 46.4238 219.188 46.4238ZM231.767 84.167C228.382 87.8699 224.097 90.0296 219.425 90.0296C210.326 90.0296 205.29 83.8012 205.29 75.1828C205.29 66.1922 210.8 59.2395 220.38 59.2395C224.936 59.2395 228.051 59.9638 231.767 62.3603V84.167Z" fill="white"/>
<path d="M314.043 47.4451H327.82V52.5902C331.205 49.0021 337.521 46.125 344.468 46.125C359.328 46.125 368.909 57.6338 368.909 73.557C368.909 89.968 357.649 102.668 340.399 102.668C335.606 102.668 330.921 101.829 327.82 100.035V125.314H314.043V47.4451ZM327.82 64.9184V86.7251C331.53 89.1216 334.644 89.8391 339.201 89.8391C348.78 89.8391 354.291 82.8864 354.291 73.9026C354.291 65.2774 349.261 59.049 340.155 59.049C335.484 59.0623 331.171 61.222 327.82 64.9184Z" fill="white"/>
<path d="M408.844 31.9887C406.353 30.2207 403.394 29.2205 400.341 29.1114C394.113 29.1114 390.862 32.3475 390.862 39.7742V47.4448H400.564V60.3824H390.877V101.355H377.1V38.6978C377.1 23.7225 384.289 16.1738 396.266 16.1738C401.778 16.1738 406.814 17.5279 410.403 19.7688H422.622V80.8686C422.622 86.9616 424.18 89.6087 427.294 89.6087C429.573 89.6087 431.355 88.6543 433.047 87.4559L435.916 97.9967C432.802 100.515 428.133 102.546 421.7 102.546C413.434 102.546 408.877 97.5161 408.877 86.4947L408.844 31.9887Z" fill="white"/>
<path d="M465.271 46.123C483.116 46.123 494.618 58.2212 494.618 74.3946C494.618 90.5683 483.109 102.666 465.271 102.666C447.433 102.666 435.917 90.5683 435.917 74.3946C435.917 58.2212 447.419 46.123 465.271 46.123ZM465.271 89.8508C473.774 89.8508 480.002 83.7578 480.002 74.3946C480.002 65.2891 473.659 59.0604 465.271 59.0604C457.146 59.0604 450.655 65.0522 450.655 74.3946C450.655 83.3787 456.883 89.8508 465.271 89.8508Z" fill="white"/>
<path d="M562.788 101.592H550.447L538.938 71.6416C538.099 69.6105 537.739 67.3292 537.138 65.2912C536.698 67.5402 536.054 69.7448 535.219 71.8785L523.846 101.592H512.114L494.622 47.4316H509.36L517.982 76.7799C518.662 79.1394 519.181 81.5413 519.541 83.9698C520.088 81.5384 520.765 79.1383 521.571 76.7799L531.633 47.4316H543.819L554.313 76.6716C555.112 79.1181 555.793 81.6039 556.344 84.1189C556.822 81.6072 557.427 78.9669 558.021 76.3332L565.93 47.4658H579.826L562.788 101.592Z" fill="white"/>
<path d="M608.796 101.355C600.886 120.636 595.857 125.314 587.952 125.314C583.034 125.314 579.441 123.392 576.327 121.117L580.759 110.698C582.195 111.537 584.233 112.614 586.393 112.614C589.867 112.614 592.38 109.859 594.658 104.226L595.857 101.355L570.938 47.4453H587.484L600.062 76.9153C601.138 79.5487 601.855 82.0604 602.697 84.701C603.136 82.0212 603.777 79.3777 604.612 76.7932L614.318 47.4453H630L608.796 101.355Z" fill="white"/>
<path d="M141.801 87.2285C137.728 109.252 119.955 128.499 99.3869 139.306C96.8137 140.655 95.7844 141.427 92.8828 141.613H134.632C135.572 141.643 136.508 141.484 137.385 141.145C138.262 140.806 139.063 140.295 139.739 139.641C140.415 138.988 140.953 138.205 141.321 137.339C141.689 136.474 141.879 135.544 141.881 134.603V87.2285H141.801Z" fill="#F7931E"/>
<path d="M96.2925 140.352C95.4476 140.413 94.5994 140.413 93.7549 140.352H96.2925Z" fill="#FFCE00"/>
<path d="M54.7132 44.7323C54.0832 45.2471 53.4532 45.7263 52.8055 46.1788C42.2374 53.6146 9.97394 77.7321 2.67122 67.3504C-4.48953 57.1639 3.05277 28.2635 21.6246 14.359C21.9795 14.0751 22.3345 13.8266 22.6983 13.5693C42.8674 -0.601375 57.9521 1.35963 65.2457 11.7503C72.0961 21.4932 64.4296 36.7641 54.7132 44.7323Z" fill="#8427E0"/>
<path d="M133.57 67.0502C123.587 74.0601 107.837 65.8787 100.038 55.852C99.7179 55.4438 99.4162 55.0265 99.1502 54.6187C91.723 44.0415 67.6055 11.7781 77.9872 4.48427C88.3689 -2.8096 118.174 5.15862 131.768 24.5113C132.07 24.9373 132.363 25.3987 132.656 25.7802C145.832 45.3638 143.756 59.9071 133.57 67.0502Z" fill="#00B5FF"/>
<path d="M120.216 130.698C119.861 130.973 119.515 131.231 119.169 131.47C98.9997 145.668 83.9153 143.671 76.6214 133.298C69.7799 123.537 77.4288 108.293 87.1452 100.316C87.7662 99.7925 88.4139 99.3044 89.0619 98.8518C99.6297 91.425 131.893 67.3162 139.187 77.6892C146.348 87.8758 138.806 116.794 120.216 130.698Z" fill="#FFBD00"/>
<path d="M63.904 140.556C53.5223 147.841 23.7168 139.881 10.1229 120.529C9.83901 120.138 9.58168 119.748 9.31546 119.357C-3.95011 99.765 -1.85601 85.1418 8.31279 77.9901C18.2864 70.9801 34.0454 79.1525 41.836 89.1882C42.1557 89.5965 42.4574 90.0044 42.7234 90.4216C50.1858 100.998 74.2947 133.262 63.904 140.556Z" fill="#E3006D"/>
<path d="M54.7117 44.7323C40.2923 51.068 9.71503 64.2537 5.11866 53.6855C1.26763 44.8123 8.40179 26.6397 21.6319 14.359C21.9868 14.0751 22.3417 13.8266 22.7056 13.5693C42.8656 -0.601375 57.9503 1.35963 65.2442 11.7503C72.0943 21.4932 64.4278 36.7641 54.7117 44.7323Z" fill="#9327FF"/>
<path d="M133.575 67.0486C123.592 74.0585 107.842 65.8775 100.043 55.8504C93.5562 41.0587 81.2046 11.7857 91.542 7.30468C100.859 3.26733 120.371 11.2977 132.625 25.7789C145.838 45.3622 143.761 59.9058 133.575 67.0486Z" fill="#00C8FF"/>
<path d="M120.216 130.698C119.861 130.973 119.515 131.231 119.169 131.471C98.9997 145.668 83.9153 143.671 76.6214 133.298C69.7799 123.538 77.4288 108.293 87.1452 100.316C101.555 93.9719 132.151 80.7949 136.747 91.3544C140.598 100.236 133.464 118.409 120.216 130.698Z" fill="#FFCE00"/>
<path d="M50.3345 137.743C41.053 141.771 21.5937 133.776 9.33083 119.357C-3.95248 99.765 -1.85838 85.1418 8.31041 77.9901C18.284 70.9801 34.043 79.1525 41.8338 89.1882C48.329 103.989 60.6719 133.253 50.3345 137.743Z" fill="#FB006D"/>
</svg>
