<svg width="604" height="160" viewBox="0 0 604 160" fill="none" xmlns="http://www.w3.org/2000/svg">
<g clip-path="url(#clip0_1270_46811)">
<path d="M40.8299 135.452C33.6763 128.929 31.588 115.223 34.5683 105.294C39.7362 111.554 46.8966 113.537 54.3135 114.657C65.7633 116.384 77.0082 115.738 87.6447 110.518C88.8614 109.92 89.9859 109.125 91.3154 108.321C92.3135 111.209 92.5733 114.125 92.2247 117.093C91.377 124.32 87.7711 129.903 82.0358 134.136C79.7426 135.829 77.3158 137.342 74.9473 138.938C67.6705 143.844 65.7019 149.596 68.4361 157.964C68.5011 158.168 68.5593 158.372 68.7062 158.869C64.991 157.211 62.2772 154.796 60.2094 151.621C58.0252 148.27 56.9863 144.563 56.9316 140.551C56.9042 138.599 56.9042 136.63 56.6411 134.706C55.9985 130.014 53.7906 127.913 49.631 127.792C45.362 127.668 41.9852 130.301 41.0897 134.446C41.0213 134.764 40.9223 135.079 40.823 135.448L40.8299 135.452Z" fill="#D9EAF1"/>
<path d="M0 103.64C0 103.64 21.183 93.3462 42.4254 93.3462L58.4413 43.903C59.0409 41.512 60.7917 39.8869 62.7682 39.8869C64.7448 39.8869 66.4954 41.512 67.0952 43.903L83.1111 93.3462C108.269 93.3462 125.536 103.64 125.536 103.64C125.536 103.64 89.5552 5.8638 89.4848 5.66763C88.4521 2.77684 86.7087 0.915039 84.3583 0.915039H41.1816C38.8312 0.915039 37.1583 2.77684 36.0552 5.66763C35.9775 5.8601 0 103.64 0 103.64Z" fill="#D9EAF1"/>
<path d="M223.338 89.4019C223.338 98.066 212.534 103.241 197.576 103.241C187.84 103.241 184.397 100.834 184.397 95.7796C184.397 90.4849 188.671 87.9578 198.407 87.9578C207.193 87.9578 214.672 88.0782 223.338 89.1612V89.4019ZM223.457 78.692C218.115 77.4886 210.043 76.7667 200.425 76.7667C172.406 76.7667 159.228 83.3851 159.228 98.7882C159.228 114.793 168.25 120.93 189.146 120.93C206.836 120.93 218.828 116.477 223.219 105.527H223.932C223.813 108.174 223.694 110.822 223.694 112.867C223.694 118.523 224.644 119.005 229.275 119.005H251.121C249.933 115.635 249.221 106.129 249.221 97.9457C249.221 89.1612 249.577 82.5428 249.577 73.638C249.577 55.4671 238.654 43.915 204.461 43.915C189.74 43.915 173.356 46.4419 160.89 50.1724C162.077 55.1062 163.739 65.094 164.57 71.5921C175.374 66.5381 190.69 64.3721 202.561 64.3721C218.947 64.3721 223.457 68.1024 223.457 75.6836V78.692Z" fill="#D9EAF1"/>
<path d="M283.398 94.4559C280.429 94.8169 276.394 94.817 272.238 94.817C267.844 94.817 263.809 94.6966 261.078 94.3355C261.078 95.2984 260.959 96.3814 260.959 97.344C260.959 112.386 270.813 121.171 305.481 121.171C338.13 121.171 348.697 112.506 348.697 97.2237C348.697 82.7835 341.693 75.6836 310.704 74.1192C286.604 73.0362 284.467 70.3887 284.467 67.3804C284.467 63.8906 287.554 62.0857 303.7 62.0857C320.441 62.0857 324.951 64.3721 324.951 69.1853V70.2683C327.326 70.1482 331.601 70.0278 335.993 70.0278C340.149 70.0278 344.659 70.1482 347.272 70.3887C347.272 69.3057 347.391 68.343 347.391 67.5007C347.391 49.8113 332.668 44.0352 304.175 44.0352C272.119 44.0352 261.315 51.8572 261.315 67.1397C261.315 80.858 269.982 89.4019 300.731 90.7256C323.408 91.4476 325.901 93.9747 325.901 97.4644C325.901 101.195 322.22 102.879 306.312 102.879C288.029 102.879 283.398 100.352 283.398 95.178V94.4559Z" fill="#D9EAF1"/>
<path d="M387.884 31.0391C379.217 39.1016 363.664 47.1641 354.997 49.3301C355.116 53.7825 355.116 61.9654 355.116 66.4178L363.07 66.5381C362.951 75.0819 362.832 85.4307 362.832 92.2899C362.832 108.295 371.261 120.328 397.5 120.328C408.542 120.328 415.902 119.125 425.044 117.199C424.094 111.303 423.027 102.278 422.671 95.4186C417.208 97.2237 410.323 98.1864 402.723 98.1864C392.157 98.1864 387.884 95.2984 387.884 86.9952C387.884 79.775 387.884 73.0362 388.003 66.7788C401.538 66.899 415.071 67.1397 423.027 67.3804C422.908 61.1231 423.146 52.0977 423.502 46.0811C411.985 46.3216 399.044 46.4419 388.359 46.4419C388.478 41.1472 388.596 36.093 388.715 31.0391H387.884Z" fill="#D9EAF1"/>
<path d="M458.793 62.8075C458.912 56.5499 459.03 51.2552 459.149 46.0809H435.285C435.641 56.4298 435.641 67.0192 435.641 82.5426C435.641 98.0658 435.523 108.776 435.285 119.004H462.591C462.116 111.784 461.997 99.6303 461.997 89.2814C461.997 72.9156 468.647 68.2225 483.724 68.2225C490.73 68.2225 495.715 69.065 500.109 70.6293C500.228 64.4923 501.415 52.5789 502.128 47.2842C497.615 45.9605 492.628 45.1182 486.574 45.1182C473.632 44.9979 464.135 50.2926 459.741 62.9278L458.793 62.8075Z" fill="#D9EAF1"/>
<path d="M577.669 82.0609C577.669 95.1776 568.171 101.315 553.211 101.315C538.37 101.315 528.872 95.5384 528.872 82.0609C528.872 68.5833 538.489 63.5291 553.211 63.5291C568.053 63.5291 577.669 68.9444 577.669 82.0609ZM602.481 81.4593C602.481 55.3464 582.061 43.6738 553.211 43.6738C524.243 43.6738 504.533 55.3464 504.533 81.4593C504.533 107.452 522.937 121.411 553.093 121.411C583.486 121.411 602.481 107.452 602.481 81.4593Z" fill="#D9EAF1"/>
</g>
<defs>
<clipPath id="clip0_1270_46811">
<rect width="603.797" height="159" fill="white" transform="translate(0 0.915039)"/>
</clipPath>
</defs>
</svg>
