<svg class="text-primary dark:text-white-200" xmlns="http://www.w3.org/2000/svg" width="100" height="29" fill="none"><path fill="currentColor" d="M81.7737 2.94897h-4.1111v4.11115h4.1111V2.94897Z"></path><path fill="currentColor" fill-rule="evenodd" d="M65.7691 13.5049h-3.6103v6.6806c0 .5569.1383.9643.4167 1.2203.2785.2579.6858.4074 1.2203.4504.5344.0205 1.1997.0112 1.992-.0318v3.758c-2.8049.3214-4.8063.0635-6.006-.77-1.1773-.8558-1.7659-2.3975-1.7659-4.625v-6.6806h-2.7937V9.52271h2.7937V6.27864l4.1429-1.25203v4.49797h6.404V6.28051l4.143-1.25203v4.49797h3.629v3.98405h-3.629v6.6806c0 .5569.1382.9643.4167 1.2203.2784.2579.6858.4074 1.2202.4504.5345.0205 1.1998.0112 1.9902-.0318v3.758c-2.8049.3214-4.8063.0635-6.006-.7699-1.1773-.8559-1.7659-2.3976-1.7659-4.6251v-6.6806h-2.7937l.0018-.0075Z" clip-rule="evenodd"></path><path fill="currentColor" d="M81.7928 9.5188h-4.1429v16.0615h4.1429V9.5188Z"></path><path fill="currentColor" fill-rule="evenodd" d="M91.5535 9.10181c-4.6643 0-8.4466 3.78229-8.4466 8.44839 0 4.6662 3.7823 8.4484 8.4466 8.4484S100 22.2164 100 17.5502c0-4.6661-3.7804-8.44839-8.4465-8.44839Zm-.015 12.91459c-2.4741 0-4.4811-2.007-4.4811-4.4811 0-2.4742 2.007-4.4812 4.4811-4.4812 2.4742 0 4.4793 2.0051 4.4793 4.4812 0 2.476-2.0051 4.4811-4.4793 4.4811ZM49.7911 9.48676v.89134c-1.295-.80725-2.8236-1.27629-4.4625-1.27629-4.6643 0-8.4465 3.78229-8.4465 8.44839 0 4.6662 3.7822 8.4484 8.4465 8.4484 1.6389 0 3.1675-.4671 4.4625-1.2763v.8914h4.1111V9.48676h-4.1111ZM45.3137 22.0164c-2.4742 0-4.4812-2.007-4.4812-4.4811 0-2.4742 2.007-4.4812 4.4812-4.4812 2.4741 0 4.4381 1.9659 4.4774 4.4064v.1476c-.0393 2.4406-2.0276 4.4064-4.4774 4.4064v.0019Z" clip-rule="evenodd"></path><path fill="currentColor" d="m29.7538 19.2064-2.5116-4.0195s-.0093-.0169-.0149-.0243l-.1981-.3158c-.3737-.5999-1.0203-.9587-1.7267-.9606l-4.0457-.013-.2822.4522-4.8343 7.7364-.2673.428 2.0257 3.2366c.3738.6017 1.0203.9605 1.7323.9605h5.6697c.6989 0 1.3604-.3682 1.7304-.9587l.1999-.3195s.0075-.0094.0094-.0131l2.5152-4.0252c.413-.6578.413-1.508 0-2.164h-.0018Zm-.7662 1.6838-2.5153 4.0251c-.0112.0187-.0243.0337-.0355.0486-.0878.0991-.2018.1121-.2522.1121-.058 0-.2-.0168-.2916-.1625l-2.5152-4.0252c-.0281-.0449-.0524-.0916-.0748-.142-.0224-.0486-.0392-.0972-.0542-.1477-.056-.2018-.056-.4186 0-.6204.0281-.099.071-.1981.1271-.2878l2.5115-4.0214s.0038-.0056.0056-.0094c.0598-.0896.1346-.1308.2-.1438.0262-.0075.0486-.0094.0673-.0131h.028c.0579 0 .2018.0187.2915.1644l2.5115 4.0196c.2299.3663.2299.8372 0 1.2035h-.0037ZM22.3217 9.48042c.4111-.65965.4111-1.50804 0-2.16396l-2.5116-4.01958-.2093-.33823C19.2252 2.35879 18.5787 2 17.8685 2h-5.6696c-.7082 0-1.3548.35879-1.7323.96051L.313942 19.2089C.110254 19.534 0 19.9097 0 20.2909c0 .3812.108385.7568.312074 1.0801l2.722706 4.3597c.3756.6017 1.02218.9586 1.73041.9586h5.66961c.712 0 1.3586-.3588 1.7323-.9605l.2075-.3289v-.0037s.0037-.0056.0037-.0075l2.0238-3.2366 5.9985-9.5995 1.9173-3.07031.0038-.00187Zm-.5924-1.08198c0 .20743-.0579.41672-.1757.60172L11.6084 24.9178c-.0897.1439-.2336.1607-.2915.1607-.058 0-.2-.0168-.2915-.1607l-2.51345-4.0271c-.22799-.3644-.22799-.8334 0-1.2015L18.4572 3.77527c.0897-.14576.2336-.16258.2915-.16258.0579 0 .2018.01682.2934.16445l2.5115 4.01958c.1178.185.1757.3943.1757.60172Z"></path></svg>