<svg width="100%" height="100%" viewBox="0 0 74 24" fill="none" xmlns="http://www.w3.org/2000/svg">
  <path fill-rule="evenodd" clip-rule="evenodd" d="M21.7019 7.11378C21.5849 7.11378 21.4901 7.01897 21.4901 6.90202V0.247803H18.5788L13.1047 16.5043H12.4412L6.96706 0.247803H0V23.4713H4.31294V7.38075H4.97647L10.4506 23.4713H15.0953L20.5609 7.40586C20.5666 7.33321 20.6274 7.27593 20.7016 7.27594L21.0953 7.27595C21.1607 7.27595 21.2157 7.32041 21.2317 7.38075H21.2329V7.38575C21.2352 7.39584 21.2364 7.40634 21.2364 7.41712V14.2486C21.2364 14.2594 21.2352 14.2699 21.2329 14.2799V23.4713H25.5459V7.11378H21.7019Z" fill="#020C13"></path>
  <path d="M50.9045 23.4713L58.8669 11.5278L51.4022 0.247803H56.5445L61.521 7.87839H62.1845L67.161 0.247803H72.3034L64.8387 11.5278L72.801 23.4713H67.6587L62.1845 15.1772H61.521L56.0469 23.4713H50.9045Z" fill="#020C13"></path>
  <path d="M26.9187 23.4713L35.2128 0.247803H41.5163L49.8104 23.4713H44.9999L43.2415 18.4949H33.4876L31.7293 23.4713H26.9187ZM34.881 14.5137H41.8481L38.6963 5.22427H38.0328L34.881 14.5137Z" fill="#020C13"></path>
</svg>