<?xml version="1.0" encoding="UTF-8" standalone="no"?>
<!DOCTYPE svg PUBLIC "-//W3C//DTD SVG 1.1//EN" "http://www.w3.org/Graphics/SVG/1.1/DTD/svg11.dtd">
<svg width="100%" height="100%" viewBox="0 0 48 60" version="1.1" xmlns="http://www.w3.org/2000/svg" xmlns:xlink="http://www.w3.org/1999/xlink" xml:space="preserve" xmlns:serif="http://www.serif.com/" style="fill-rule:evenodd;clip-rule:evenodd;stroke-linejoin:round;stroke-miterlimit:2;">
    <g transform="matrix(1,0,0,1,-6.86914,0)">
        <g id="appIcon__Mojo">
            <path d="M50.494,25.426C50.994,27.346 48.862,29.394 48.862,29.394C48.862,29.394 44.976,31.885 45.734,21.195C46.492,10.506 29.076,0 29.076,0C29.076,0 29.175,1.019 29.071,8.066C28.941,16.933 23.678,13.893 23.678,13.893C18.411,19.357 18.89,31.696 18.89,31.696C12.369,37.279 12.14,25.67 12.14,25.67C12.14,25.67 -0.275,37.81 13.002,50.816C13.002,50.816 14.949,52.701 11.838,52.101C9.618,51.674 9.117,50.814 9.117,50.814C9.117,50.814 9.541,56.198 25.197,59.567C25.501,59.627 30.367,60.555 35.863,59.493C47.923,56.87 50.029,51.997 50.029,51.997C50.029,51.997 49.773,52.436 47.772,52.633C45.622,52.844 47.468,50.836 47.468,50.836C61.638,42.221 49.993,23.506 50.494,25.426Z" style="fill:rgb(255,76,31);fill-rule:nonzero;"/>
            <path d="M45.336,43.157C48.158,38.877 45.998,35.687 45.998,35.687C41.576,37.887 40.254,36.348 39.862,35.101C39.707,34.607 39.681,34.083 39.771,33.574C42.641,17.328 31.542,8.546 31.82,10.716C31.904,11.371 31.787,12.232 31.582,13.116C31.097,15.209 30.17,17.181 28.907,18.942C27.167,21.367 24.023,26.57 22.312,34.397C19.862,45.602 12.817,37.489 12.817,37.489C12.817,37.489 8.689,51.146 25.51,59.624C26.501,59.791 29.636,60.228 33.415,59.85C44.468,54.815 48.436,44.981 48.436,44.981C48.436,44.981 42.513,47.437 45.336,43.157Z" style="fill:rgb(255,156,69);fill-rule:nonzero;"/>
            <path d="M41.481,40.245C41.483,40.241 41.484,40.239 41.484,40.239L41.481,40.245Z" style="fill:rgb(255,221,86);fill-rule:nonzero;"/>
            <path d="M41.481,40.245C41.424,40.388 40.239,43.172 35.842,43.88C31.33,44.606 33.313,29.384 33.313,29.384C22.219,34.471 24.279,46.424 24.279,46.424C24.279,46.424 22.507,48.079 20.237,46.422C19.466,45.859 21.154,56.026 28.404,59.94C29.749,60.022 31.429,60.039 33.267,59.863C38.258,56.505 40.916,45.978 40.916,45.978L38.627,47.346L41.481,40.245Z" style="fill:rgb(255,221,86);fill-rule:nonzero;"/>
            <path d="M9.629,24.186C9.629,24.186 8.982,18.676 12.152,16.243C12.647,15.863 12.981,15.555 13.225,14.99C13.424,14.531 13.733,13.802 13.583,13.256C13.208,11.889 17.809,19.453 9.629,24.186Z" style="fill:rgb(255,76,31);fill-rule:nonzero;"/>
            <path d="M33.301,59.861C35.317,57.811 38.008,49.617 38.008,49.617C38.008,49.617 37.425,51.296 35.25,51.074C32.258,50.768 30.618,43.053 30.618,43.053C30.618,43.053 28.128,49.611 27.605,50.583C26.504,52.629 24.472,50.581 24.472,50.581C23.932,53.915 28.22,58.695 29.451,59.988C30.591,60.019 31.9,59.996 33.301,59.861Z" style="fill:rgb(252,251,204);fill-rule:nonzero;"/>
        </g>
    </g>
</svg>
