<svg fill="none" viewBox="0 0 124 30" class="h-30 transition-colors l:h-40"><path class="fill-current" d="M2.144 17.226c-.021-.116-.032-.222-.053-.339a1 1 0 0 0-1.124-.848 1 1 0 0 0-.848 1.124l.063.392a15 15 0 0 0 1.496 4.431c.18.34.52.53.88.53.159 0 .318-.032.466-.117a.987.987 0 0 0 .414-1.346 12.8 12.8 0 0 1-1.294-3.827M4.93 6.308c.255 0 .52-.106.711-.297a13.1 13.1 0 0 1 3.553-2.587.993.993 0 0 0 .456-1.335.994.994 0 0 0-1.336-.456A15.1 15.1 0 0 0 4.21 4.612a1.001 1.001 0 0 0 .72 1.696M12.718 2.29l.053-.01a12.8 12.8 0 0 1 4.358.01c.053.01.117.01.17.01a.997.997 0 0 0 .17-1.982 15.3 15.3 0 0 0-5.059-.01l-.032.01a.996.996 0 0 0-.795 1.134.994.994 0 0 0 1.135.838M3.044 7.664a.996.996 0 0 0-1.347.414A14.7 14.7 0 0 0 .117 12.9a1 1 0 0 0 .987 1.145c.487 0 .912-.36.986-.848a13 13 0 0 1 1.368-4.177.996.996 0 0 0-.414-1.357M27.703 12.88c.02.106.032.222.053.328.074.499.498.859.986.859.042 0 .095 0 .148-.01a1 1 0 0 0 .849-1.124l-.064-.382A14.9 14.9 0 0 0 28.17 8.11a.987.987 0 0 0-1.346-.413.987.987 0 0 0-.414 1.346 13.2 13.2 0 0 1 1.294 3.838M24.202 24.085a13.1 13.1 0 0 1-3.553 2.587.993.993 0 0 0 .435 1.887.9.9 0 0 0 .435-.107 15 15 0 0 0 4.104-2.989 1 1 0 0 0-.021-1.41 1 1 0 0 0-1.4.032M21.541 1.654a.994.994 0 0 0-1.336.456.993.993 0 0 0 .456 1.335 13.2 13.2 0 0 1 3.563 2.587c.191.201.456.297.71.297a1.001 1.001 0 0 0 .721-1.696 15.4 15.4 0 0 0-4.114-2.98M17.096 27.827a13 13 0 0 1-4.401-.01 1 1 0 0 0-1.156.805.997.997 0 0 0 .806 1.155c.837.149 1.696.223 2.555.223.838 0 1.687-.074 2.514-.212l.042-.01c.541-.096.891-.605.806-1.156-.095-.53-.625-.89-1.166-.795M9.174 26.66a13 13 0 0 1-3.552-2.586 1 1 0 0 0-1.41-.02 1 1 0 0 0-.022 1.409 15 15 0 0 0 4.104 2.99.95.95 0 0 0 .446.105.98.98 0 0 0 .89-.55 1 1 0 0 0-.456-1.347M28.88 16.07a1 1 0 0 0-1.135.838 12.7 12.7 0 0 1-1.368 4.177.996.996 0 1 0 1.76.933 15.3 15.3 0 0 0 1.58-4.823.985.985 0 0 0-.837-1.124M8.858 8.438a8.87 8.87 0 0 1 5.047-2.3 9 9 0 0 1 2.016 0 .993.993 0 0 0 1.102-.88.99.99 0 0 0-.88-1.102 10.6 10.6 0 0 0-2.46 0 10.88 10.88 0 0 0-6.172 2.82 1 1 0 0 0-.064 1.41c.202.211.467.317.732.317a.96.96 0 0 0 .679-.265M14.91 26.014c.414 0 .827-.021 1.241-.074h.021a.983.983 0 0 0 .87-1.103.99.99 0 0 0-1.103-.87h-.01a8 8 0 0 1-1.019.054 8.9 8.9 0 0 1-6.045-2.364 1.003 1.003 0 0 0-1.41.064 1 1 0 0 0 .064 1.41 10.89 10.89 0 0 0 7.391 2.883M19.332 7.25a8.98 8.98 0 0 1 4.38 6 .987.987 0 0 0 1.177.775.987.987 0 0 0 .774-1.177 11 11 0 0 0-5.345-7.336.99.99 0 0 0-1.357.371 1 1 0 0 0 .37 1.368M6.257 10.018a1 1 0 0 0-1.325.488 10.8 10.8 0 0 0-.912 5.767 10.7 10.7 0 0 0 .912 3.307.995.995 0 0 0 1.325.488 1.01 1.01 0 0 0 .499-1.326 9 9 0 0 1-.753-2.703 8 8 0 0 1-.053-1.017c0-1.283.275-2.534.806-3.7a.987.987 0 0 0-.499-1.304M25.664 17.226a1.003 1.003 0 0 0-.774-1.176 1.003 1.003 0 0 0-1.177.774 9 9 0 0 1-4.37 6.02.992.992 0 0 0 .499 1.856c.17 0 .34-.043.488-.127a10.9 10.9 0 0 0 5.334-7.347"></path><path class="fill-current" fill-rule="evenodd" d="M19.97 10.24a6.974 6.974 0 0 1-.212 9.848 6.93 6.93 0 0 1-4.814 1.93h-.17c-3.85-.085-6.904-3.286-6.82-7.134a6.93 6.93 0 0 1 2.164-4.877 6.93 6.93 0 0 1 4.974-1.929 6.93 6.93 0 0 1 4.878 2.163M9.938 14.938a4.99 4.99 0 0 0 4.868 5.099 4.993 4.993 0 0 0 5.1-4.866 4.93 4.93 0 0 0-1.378-3.551 4.97 4.97 0 0 0-3.489-1.548 4.94 4.94 0 0 0-3.553 1.378 4.97 4.97 0 0 0-1.548 3.488" clip-rule="evenodd"></path><path class="fill-current" d="M33.75 8h11.261v2.389h-4.21v11.613h-2.834V10.39H33.75z"></path><path class="fill-current" d="M46.811 13.563h.06c.606-1.144 1.293-1.723 2.467-1.723.212-.013.424.014.627.078v2.33h-.06c-1.741-.177-2.995.743-2.995 2.86v4.895h-2.664V11.957h2.565zM57.132 20.886h-.04c-.511.764-1.234 1.352-2.957 1.352-2.06 0-3.506-1.078-3.506-3.075 0-2.213 1.8-2.918 4.034-3.232 1.664-.228 2.428-.37 2.428-1.144 0-.725-.567-1.194-1.684-1.194-1.254 0-1.86.457-1.938 1.41H51.1c.078-1.763 1.392-3.31 4.328-3.31 3.016 0 4.23 1.35 4.23 3.7v5.124c0 .762.117 1.213.353 1.39v.098h-2.565c-.158-.2-.256-.668-.314-1.12m.019-2.428V16.95c-.47.274-1.195.43-1.86.588-1.39.313-2.076.627-2.076 1.567s.627 1.273 1.567 1.273c1.527 0 2.369-.94 2.369-1.92M64.099 13.328h.057c.686-1.078 1.602-1.646 2.975-1.646 2.075 0 3.466 1.568 3.466 3.76v6.56h-2.66v-6.178c0-1.075-.628-1.83-1.745-1.83-1.173 0-2.036.94-2.036 2.31v5.699h-2.664V11.957H64.1zM71.934 18.75h2.469c.176 1.156.997 1.666 2.192 1.666s1.83-.457 1.83-1.155c0-.959-1.272-1.057-2.642-1.332-1.801-.352-3.563-.842-3.563-3.034 0-2.193 1.8-3.204 4.091-3.204 2.646 0 4.12 1.313 4.31 3.33H78.22c-.117-1.078-.801-1.47-1.939-1.47-1.036 0-1.723.392-1.723 1.117 0 .863 1.332.94 2.762 1.234 1.685.352 3.545.823 3.545 3.171 0 2.018-1.723 3.231-4.231 3.231-2.918-.009-4.543-1.418-4.7-3.553M81.86 16.989c0-2.996 1.958-5.307 5.013-5.307 2.604 0 4.21 1.508 4.563 3.682H88.83a1.83 1.83 0 0 0-1.831-1.547c-1.602 0-2.428 1.234-2.428 3.172 0 1.9.764 3.174 2.39 3.174 1.077 0 1.83-.57 2.015-1.705h2.565c-.176 2.135-1.83 3.838-4.521 3.838-3.183 0-5.16-2.31-5.16-5.307M92.527 16.97c0-2.974 2.016-5.288 4.955-5.288 3.231 0 4.954 2.467 4.954 6.053H95.15c.197 1.547 1.06 2.506 2.565 2.506 1.039 0 1.645-.472 1.94-1.234h2.623c-.371 1.78-1.957 3.288-4.542 3.288-3.33 0-5.209-2.329-5.209-5.324m2.664-1.077h4.465c-.08-1.273-.916-2.154-2.136-2.154-1.41 0-2.096.842-2.329 2.154M106.345 13.328h.057c.686-1.078 1.602-1.646 2.975-1.646 2.075 0 3.467 1.568 3.467 3.76v6.56h-2.664v-6.178c0-1.075-.627-1.83-1.744-1.83-1.174 0-2.036.94-2.036 2.31v5.699h-2.662V11.957h2.607zM114.125 16.989c0-3.133 1.783-5.307 4.288-5.307a3.19 3.19 0 0 1 2.84 1.49h.06V8h2.663v14.002h-2.565v-1.31h-.041c-.586.958-1.586 1.601-2.996 1.601-2.526.002-4.249-2.053-4.249-5.304m7.245.06c0-1.92-.625-3.204-2.33-3.204-1.469 0-2.212 1.29-2.212 3.15 0 1.941.764 3.076 2.135 3.076 1.585-.011 2.407-1.183 2.407-3.023"></path></svg>