<?xml version="1.0" encoding="UTF-8" standalone="no"?>
<!DOCTYPE svg PUBLIC "-//W3C//DTD SVG 1.1//EN" "http://www.w3.org/Graphics/SVG/1.1/DTD/svg11.dtd">
<svg width="100%" height="100%" viewBox="0 0 467 105" version="1.1" xmlns="http://www.w3.org/2000/svg" xmlns:xlink="http://www.w3.org/1999/xlink" xml:space="preserve" xmlns:serif="http://www.serif.com/" style="fill-rule:evenodd;clip-rule:evenodd;stroke-linejoin:round;stroke-miterlimit:2;">
    <g id="trademark__Almanac" transform="matrix(1,0,0,1,-50.8459,-165.83)">
        <rect x="50.846" y="165.83" width="466.344" height="104.34" style="fill:none;"/>
        <clipPath id="_clip1">
            <rect x="50.846" y="165.83" width="466.344" height="104.34"/>
        </clipPath>
        <g clip-path="url(#_clip1)">
            <g transform="matrix(1,0,0,1,0.845922,0.83)">
                <path d="M111.65,219.44C114.41,218.54 117.54,219.36 119.9,221.05L125.41,225.01C128.1,226.94 131.16,228.29 134.4,228.96C137.64,229.64 140.99,229.62 144.22,228.93L155.16,226.58C155.6,223.82 155.82,221.03 155.81,218.23L142.52,221.09C140.38,221.55 138.17,221.56 136.02,221.11C133.88,220.66 131.85,219.77 130.07,218.5L127.85,216.9C126.96,216.26 125.96,215.79 124.9,215.51L154.32,205.95C154.01,204.66 153.64,203.37 153.23,202.09C152.81,200.81 152.35,199.55 151.84,198.32L134.26,204.03C135.03,203.07 135.65,201.99 136.08,200.83L137.51,197.04C137.93,195.92 138.57,194.89 139.39,194.01C140.21,193.13 141.19,192.43 142.29,191.93L147.32,189.66C145.82,187.35 144.14,185.17 142.3,183.13L138.98,184.63C134.84,186.5 131.61,189.95 130.01,194.2L126.73,202.87C126.25,204.15 125.49,205.31 124.5,206.26C123.51,207.21 122.32,207.92 121.02,208.34L109.26,212.16L106.94,212.92L106.94,210.73C106.94,207.81 108.68,205.1 111.02,203.39L116.49,199.38C119.16,197.42 121.38,194.92 123.03,192.05C124.67,189.18 125.7,185.99 126.04,182.7L127.18,171.56C124.7,170.3 122.12,169.23 119.47,168.38L118.08,181.91C117.86,184.09 117.18,186.2 116.09,188.1C115,190 113.53,191.65 111.77,192.95L109.56,194.57C108.68,195.22 107.92,196.02 107.32,196.94L107.32,165.98C106,165.88 104.66,165.83 103.31,165.83C101.96,165.83 100.62,165.88 99.3,165.98L99.3,184.46C98.62,183.43 97.78,182.52 96.82,181.75L93.65,179.22C91.77,177.71 90.56,175.52 90.29,173.12L89.68,167.65C87.02,168.36 84.43,169.28 81.92,170.4L82.32,174.02C82.82,178.54 85.1,182.67 88.65,185.51L95.89,191.3C96.95,192.15 97.81,193.23 98.4,194.45C98.99,195.68 99.3,197.02 99.31,198.38L99.31,213.18L97.26,212.52C94.5,211.62 92.45,209.12 91.54,206.37L89.41,199.92C88.37,196.78 86.68,193.89 84.46,191.44C82.24,188.99 79.52,187.03 76.5,185.7L66.26,181.17C64.28,183.14 62.46,185.27 60.83,187.54L73.26,193.04C75.26,193.93 77.06,195.22 78.53,196.84C80,198.46 81.12,200.37 81.8,202.45L82.66,205.05C83,206.09 83.54,207.06 84.23,207.91L54.81,198.35C54.31,199.58 53.85,200.83 53.43,202.12C53.01,203.4 52.65,204.69 52.34,205.98L69.92,211.69C68.73,212.02 67.6,212.54 66.57,213.21L63.18,215.43C61.16,216.76 58.7,217.23 56.33,216.74L50.92,215.62C50.77,218.37 50.85,221.12 51.14,223.85L54.71,224.58C59.16,225.5 63.79,224.61 67.59,222.11L75.33,217C76.47,216.25 77.77,215.76 79.12,215.58C80.47,215.4 81.85,215.52 83.15,215.94L94.89,219.76L97.21,220.52L95.94,222.26C94.23,224.6 91.22,225.79 88.32,225.8L81.53,225.84C78.22,225.86 74.95,226.57 71.93,227.93C68.91,229.29 66.21,231.26 64,233.73L56.52,242.07C57.78,244.56 59.25,246.95 60.9,249.21L69.97,239.1C71.43,237.47 73.22,236.16 75.21,235.26C77.21,234.36 79.37,233.89 81.56,233.88L84.3,233.88C85.4,233.87 86.48,233.67 87.51,233.28L69.33,258.31C70.34,259.17 71.4,259.99 72.49,260.79C73.58,261.58 74.69,262.33 75.82,263.03L86.68,248.08C86.63,249.31 86.77,250.54 87.09,251.73L88.16,255.63C88.48,256.78 88.56,257.99 88.41,259.18C88.26,260.37 87.88,261.52 87.29,262.56L84.56,267.36C87.13,268.35 89.77,269.13 92.46,269.7L94.26,266.53C96.51,262.58 97.1,257.9 95.89,253.52L93.44,244.59C93.08,243.27 93.02,241.89 93.26,240.54C93.51,239.2 94.05,237.92 94.85,236.82L102.12,226.81L103.55,224.84L104.81,226.58C106.52,228.92 106.71,232.16 105.82,234.92L103.76,241.39C102.75,244.54 102.42,247.87 102.78,251.16C103.14,254.45 104.18,257.63 105.85,260.49L111.48,270.17C114.24,269.74 116.96,269.08 119.62,268.22L112.81,256.46C111.71,254.57 111.02,252.47 110.78,250.3C110.54,248.13 110.76,245.93 111.42,243.84L112.25,241.24C112.58,240.2 112.72,239.1 112.66,238L130.84,263.03C131.97,262.33 133.08,261.59 134.17,260.8C135.26,260.01 136.31,259.18 137.33,258.32L126.46,243.37C127.62,243.8 128.83,244.04 130.07,244.1L134.11,244.29C136.53,244.4 138.8,245.47 140.43,247.25L144.16,251.32C145.89,249.18 147.45,246.91 148.82,244.53L146.35,241.84C144.83,240.18 143.01,238.83 140.97,237.87C138.93,236.91 136.73,236.37 134.48,236.26L125.24,235.82C123.87,235.76 122.54,235.39 121.33,234.75C120.12,234.1 119.08,233.19 118.27,232.09L111,222.09L109.57,220.12L111.65,219.44Z" style="fill-rule:nonzero;"/>
            </g>
            <g transform="matrix(1,0,0,1,0.845922,0.83)">
                <path d="M193.17,250.11L197.59,238.31L225.15,238.31L229.57,250.11L241.01,250.11L217.09,188.95L205.91,188.95L182.08,250.11L193.17,250.11ZM211.46,201.87L221.67,228.83L201.05,228.83L211.26,201.87L211.46,201.87Z" style="fill-rule:nonzero;"/>
            </g>
            <g transform="matrix(1,0,0,1,0.845922,0.83)">
                <rect x="244.01" y="185.51" width="10.31" height="64.6"/>
            </g>
            <g transform="matrix(1,0,0,1,0.845922,0.83)">
                <path d="M300.49,224.44C300.49,217.21 304.48,213.16 310.63,213.16C316.87,213.16 319.12,217.54 319.12,223.32L319.12,250.11L329.43,250.11L329.43,222.03C329.43,211.86 323.88,204.37 313.05,204.37C306.12,204.37 301.27,207.13 297.8,211.43C295.29,207.12 290.78,204.37 284.28,204.37C277.09,204.37 272.75,207.82 270.85,211.35L270.85,205.41L261.32,205.41L261.32,250.11L271.63,250.11L271.63,224.1C271.63,217.3 275.53,213.16 281.68,213.16C287.83,213.16 290.17,217.47 290.17,223.32L290.17,250.11L300.48,250.11L300.48,224.44L300.49,224.44Z" style="fill-rule:nonzero;"/>
            </g>
            <g transform="matrix(1,0,0,1,0.845922,0.83)">
                <path d="M364.86,229.09L364.86,231.93C364.86,237.96 360.79,243.13 352.46,243.13C347.52,243.13 344.49,241.49 344.49,237.27C344.49,234.17 346.57,231.84 352.9,230.9L364.86,229.09ZM350.39,251.14C357.58,251.14 362.79,248.81 365.81,244.25C365.81,247.87 366.33,250.11 366.42,250.11L376.21,250.11C375.43,248.29 374.91,244.6 374.91,241.67L374.91,221.08C374.91,210.83 368.67,204.37 355.5,204.37C341.89,204.37 336.52,211.6 335.65,219.44L345.7,219.44C346.39,215.3 349.6,212.81 355.23,212.81C361.38,212.81 364.85,215.57 364.85,220.99L364.85,221.68L351.85,223.5C339.98,225.14 334.61,230.06 334.61,237.63C334.62,245.29 339.21,251.14 350.39,251.14" style="fill-rule:nonzero;"/>
            </g>
            <g transform="matrix(1,0,0,1,0.845922,0.83)">
                <path d="M392.35,205.41L382.81,205.41L382.81,250.12L393.12,250.12L393.12,224.19C393.12,217.21 397.2,213.17 403.7,213.17C409.85,213.17 412.62,217.22 412.62,223.33L412.62,250.12L422.93,250.12L422.93,222.04C422.93,211.61 417.13,204.38 406.2,204.38C398.84,204.38 394.24,207.83 392.35,211.36L392.35,205.41Z" style="fill-rule:nonzero;"/>
            </g>
            <g transform="matrix(1,0,0,1,0.845922,0.83)">
                <path d="M458.43,229.09L458.43,231.93C458.43,237.96 454.36,243.13 446.03,243.13C441.09,243.13 438.06,241.49 438.06,237.27C438.06,234.17 440.14,231.84 446.46,230.9L458.43,229.09ZM443.95,251.14C451.14,251.14 456.35,248.81 459.37,244.25C459.37,247.87 459.89,250.11 459.98,250.11L469.77,250.11C468.99,248.29 468.47,244.6 468.47,241.67L468.47,221.08C468.47,210.83 462.23,204.37 449.06,204.37C435.46,204.37 430.1,211.6 429.22,219.44L439.27,219.44C439.96,215.3 443.17,212.81 448.8,212.81C454.95,212.81 458.42,215.57 458.42,220.99L458.42,221.68L445.42,223.5C433.55,225.14 428.18,230.06 428.18,237.63C428.18,245.29 432.77,251.14 443.95,251.14" style="fill-rule:nonzero;"/>
            </g>
            <g transform="matrix(1,0,0,1,0.845922,0.83)">
                <path d="M473.43,227.8C473.43,240.72 482.62,251.14 495.87,251.14C509.22,251.14 515.98,241.92 517.19,233.91L506.62,233.91C505.41,238.73 501.33,242.09 495.79,242.09C488.42,242.09 483.76,236.15 483.76,227.79C483.76,219.35 488.44,213.41 495.79,213.41C501.33,213.41 505.41,216.77 506.62,221.59L517.19,221.59C515.98,213.57 509.22,204.36 495.87,204.36C482.61,204.37 473.43,214.79 473.43,227.8" style="fill-rule:nonzero;"/>
            </g>
        </g>
    </g>
</svg>
