<svg preserveAspectRatio="xMidYMid" width="175" height="160" viewBox="0 0 175 160" fill="none" xmlns="http://www.w3.org/2000/svg">
<rect x="2" y="2" width="116" height="106" rx="14" fill="#C0F0F4"/>
<rect x="2" y="2" width="116" height="106" rx="14" stroke="#009BB1" stroke-width="4"/>
<path d="M31.103 28.0625L34.8923 36.4597H27.2764L31.103 28.0625ZM38.0506 43.4062L39.9457 47.5307H51.9457L38.6826 19.8883H24.0063L10.8914 47.5307H22.223L24.1181 43.4062H38.0506Z" fill="#F82B60"/>
<path d="M65.773 39.6001H75.396C86.4297 39.6001 89.2529 35.4757 89.2529 29.7918V29.2722C89.2529 23.7368 86.5786 19.8722 75.396 19.8722H54.4414V47.5146H65.773V39.6001ZM65.773 32.0226V27.4526H74.2811C76.9561 27.4526 77.4766 28.641 77.4766 29.6435V29.7177C77.4766 30.8714 76.9561 32.0226 74.2811 32.0226H65.773Z" fill="#F82B60"/>
<path d="M105.109 19.8945H93.7771V47.5369H105.109V19.8945Z" fill="#F82B60"/>
<path d="M39.367 78.7991C43.9478 70.2768 38.163 59.6675 28.9423 59.6675H28.9222C19.4194 59.6675 13.6799 70.8614 18.8186 79.3743L29.5377 97.1277L39.367 78.7991Z" fill="#FCB400"/>
<path d="M26.5798 70.9809C26.5798 69.4396 27.8481 68.1714 29.3894 68.1714C30.9307 68.1714 32.1989 69.4396 32.1989 70.9809C32.1989 72.5221 30.9307 73.7904 29.3894 73.7904C27.8481 73.7904 26.5798 72.5221 26.5798 70.9809Z" fill="#F82B60"/>
<path d="M35.1672 66.4465C33.8503 64.8949 32.0226 63.9572 30.0203 63.8063C28.0181 63.6554 26.0812 64.3092 24.5664 65.6474C23.0516 66.9855 22.1403 68.8478 22.0003 70.8912C21.9146 72.1418 22.132 73.4058 22.629 74.5463C22.7639 74.8557 23.1185 74.9959 23.421 74.8595C23.7235 74.7231 23.8595 74.3616 23.7247 74.0523C23.3073 73.0946 23.1248 72.0327 23.1968 70.9814C23.4397 67.4365 26.4632 64.7656 29.9366 65.0275C33.4101 65.2893 36.0383 68.3863 35.7954 71.9311C35.6291 74.358 34.2987 75.8436 33.0122 77.2804C31.8668 78.5591 30.6826 79.8815 30.5541 81.7573C30.4413 83.4034 29.1888 84.5099 27.5758 84.3883C26.2058 84.285 25.1692 83.0635 25.265 81.6654C25.2903 81.2951 25.391 80.9442 25.5643 80.6225C25.7236 80.3266 25.6173 79.9541 25.3269 79.7903C25.0364 79.6265 24.6719 79.7335 24.5126 80.0293C24.2554 80.507 24.1059 81.0271 24.0684 81.5752C23.9265 83.6467 25.4623 85.4565 27.4921 85.6095C29.7612 85.7805 31.592 84.1632 31.7506 81.8475C31.8501 80.3961 32.7995 79.336 33.8988 78.1085C35.2572 76.5917 36.7966 74.8727 36.992 72.0213C37.132 69.9779 36.484 67.9981 35.1672 66.4465ZM25.3114 73.0655C25.6339 72.9901 25.8345 72.6617 25.7593 72.3321C25.6727 71.9523 25.6424 71.5606 25.6693 71.1677C25.8169 69.0143 27.6536 67.3916 29.7637 67.5507C31.8738 67.7098 33.4705 69.5912 33.323 71.7447C33.2484 72.8336 32.751 73.812 31.9221 74.4996C31.6655 74.7124 31.6273 75.098 31.837 75.3607C31.9458 75.4974 32.1005 75.5739 32.2596 75.5859C32.4065 75.597 32.5578 75.5532 32.6808 75.4511C33.753 74.5616 34.423 73.2436 34.5195 71.8349C34.7132 69.0081 32.6173 66.5384 29.8474 66.3296C27.0775 66.1208 24.6664 68.2507 24.4728 71.0775C24.4375 71.5923 24.4773 72.1064 24.5911 72.6053C24.6663 72.9349 24.9887 73.141 25.3114 73.0655Z" fill="#F82B60"/>
<path d="M48.078 62.4004C47.6964 62.0187 47.0778 62.0187 46.6961 62.4004C46.3145 62.782 46.3145 63.4008 46.6961 63.7824C48.1264 65.213 48.9145 67.1149 48.9145 69.138C48.9145 71.161 48.1264 73.0629 46.6961 74.4935C46.3145 74.8751 46.3145 75.4939 46.6961 75.8755C46.8867 76.0664 47.1369 76.1617 47.3871 76.1617C47.6372 76.1617 47.8874 76.0664 48.078 75.8755C49.8776 74.0759 50.8691 71.6831 50.8691 69.138C50.8691 66.5928 49.8776 64.2 48.078 62.4004Z" fill="#F82B60"/>
<path d="M45.4863 64.9917C45.1047 64.61 44.4861 64.61 44.1045 64.9917C43.7228 65.3733 43.7228 65.9921 44.1045 66.3737C45.6285 67.8979 45.6285 70.3778 44.1045 71.902C43.7223 72.2836 43.7223 72.9024 44.1045 73.284C44.295 73.4748 44.5452 73.5703 44.7954 73.5703C45.0451 73.5703 45.2953 73.4748 45.4863 73.284C47.7726 70.9979 47.7726 67.2779 45.4863 64.9917Z" fill="#F82B60"/>
<path d="M61.5253 65.8514C61.8015 65.6248 62.0106 65.4526 62.1599 65.3257C62.4884 65.0537 63.0335 64.5914 63.0335 63.6305C63.0335 62.6334 62.3615 61.8175 61.5402 61.8175C61.1669 61.8175 60.8309 61.9807 60.5695 62.2526C60.1738 62.6062 57.7397 64.5642 54.4395 67.2021C53.9989 67.5556 53.7227 68.1358 53.7077 68.7704C53.6853 69.4049 53.9243 70.0123 54.3424 70.4111L60.6293 76.3396C60.8981 76.5934 61.2266 76.7204 61.5477 76.7204C61.9957 76.7204 62.4362 76.4756 62.7274 76.0223C63.2351 75.2337 63.1156 74.0915 62.466 73.4751L57.68 68.9607C58.2698 68.4893 58.9493 67.9454 59.5989 67.4197C60.4127 66.767 61.0623 66.2322 61.5253 65.8514ZM60.5098 62.3251C60.465 62.3795 60.4202 62.4339 60.3829 62.4883C60.4202 62.4249 60.465 62.3705 60.5098 62.3251Z" fill="#F82B60"/>
<path d="M101.143 67.3198C97.8354 64.6819 95.4088 62.7148 95.013 62.3703C94.7517 62.0983 94.4157 61.9352 94.0424 61.9352C93.2211 61.9352 92.5491 62.751 92.5491 63.7482C92.5491 64.7091 93.0941 65.1714 93.4227 65.4433C93.572 65.5702 93.7811 65.7425 94.0573 65.9691C94.5202 66.3498 95.1773 66.8756 95.9986 67.5373C96.6482 68.0631 97.3202 68.607 97.9175 69.0784L93.1315 73.5928C92.4819 74.2092 92.3624 75.3423 92.8701 76.14C93.1613 76.6023 93.6019 76.838 94.0499 76.838C94.3709 76.838 94.692 76.7111 94.9682 76.4573L101.255 70.5288C101.673 70.1299 101.912 69.5226 101.89 68.888C101.852 68.2535 101.576 67.6643 101.143 67.3198ZM95.0653 62.4247C95.1101 62.47 95.1474 62.5335 95.1922 62.5879C95.1549 62.5335 95.1101 62.4791 95.0653 62.4247Z" fill="#F82B60"/>
<path d="M69.6493 59.4895C68.8503 59.2529 68.0365 59.7751 67.8199 60.6399L64.0717 75.937C63.8552 76.81 64.333 77.6993 65.1245 77.9359C65.2514 77.9767 65.3858 77.993 65.5128 77.993C66.1698 77.993 66.7746 77.5116 66.9538 76.7855L70.702 61.4883C70.9186 60.6154 70.4482 59.718 69.6493 59.4895Z" fill="#F82B60"/>
<path fill-rule="evenodd" clip-rule="evenodd" d="M77.9907 66.6393C77.9865 67.5294 77.5799 68.3999 76.8233 69.099C77.5799 69.798 77.9865 70.6686 77.9907 71.5586V71.5618V74.0236C77.9911 74.2638 78.1631 74.4633 78.3902 74.6222C78.7147 74.8492 79.1642 74.9821 79.6541 74.9825C80.7289 74.9825 81.512 75.7357 81.512 76.4875C81.512 77.2393 80.7286 77.9926 79.6538 77.9926C77.9141 77.9913 76.3658 77.3723 75.3999 76.4537C74.6842 75.7729 74.2763 74.9273 74.2749 74.0257V74.0247V71.5629C74.2745 71.3227 74.1025 71.1231 73.8754 70.9643C73.5509 70.7373 73.1015 70.6045 72.6115 70.6041C71.5367 70.6041 70.7537 69.8508 70.7537 69.099C70.7537 68.3472 71.5367 67.594 72.6109 67.594C73.1015 67.5935 73.5509 67.4607 73.8754 67.2337C74.1025 67.0748 74.2745 66.8753 74.2749 66.6351V64.1733V64.1722C74.2763 63.2707 74.6842 62.4251 75.3999 61.7444C76.3658 60.8257 77.9141 60.2067 79.6538 60.2054C80.7286 60.2054 81.512 60.9587 81.512 61.7105C81.512 62.4623 80.7289 63.2156 79.6546 63.2156C79.1641 63.216 78.7147 63.3488 78.3902 63.5758C78.1631 63.7346 77.9911 63.9342 77.9907 64.1744V66.6361V66.6393Z" fill="#FCB400"/>
<path fill-rule="evenodd" clip-rule="evenodd" d="M93.2628 67.7993C94.3157 67.7993 95.0865 68.5323 95.0865 69.2687C95.0865 70.0051 94.3154 70.7381 93.263 70.7381C92.7606 70.7385 92.3004 70.8752 91.968 71.1077C91.7273 71.2761 91.5486 71.4899 91.5482 71.7444V74.2181V74.2191C91.5468 75.1137 91.1412 75.9523 90.4311 76.6277C89.4673 77.5443 87.9221 78.161 86.1862 78.1623C85.1334 78.1623 84.3621 77.4293 84.3621 76.6929C84.3621 75.9565 85.1331 75.2235 86.1855 75.2235C86.6879 75.2231 87.1482 75.0863 87.4806 74.8538C87.7212 74.6854 87.9 74.4717 87.9004 74.2172V71.7434V71.7405C87.9046 70.8437 88.3212 69.9676 89.0941 69.2687C88.3212 68.5697 87.9046 67.6937 87.9004 66.7969V66.7939V64.3202C87.9 64.0657 87.7212 63.8519 87.4806 63.6835C87.1482 63.451 86.6879 63.3143 86.186 63.3139C85.1331 63.3139 84.3621 62.5809 84.3621 61.8445C84.3621 61.1081 85.1334 60.3751 86.1862 60.3751C87.9221 60.3764 89.4673 60.993 90.4311 61.9096C91.1412 62.5851 91.5468 63.4236 91.5482 64.3183V64.3192V66.793C91.5486 67.0475 91.7273 67.2612 91.968 67.4296C92.3004 67.6621 92.7603 67.7989 93.2628 67.7993Z" fill="#FCB400"/>
</svg>
