<svg preserveAspectRatio="xMidYMid" width="116" height="160" viewBox="0 0 116 160" fill="none" xmlns="http://www.w3.org/2000/svg">
<path d="M63.8394 23.1326C63.6956 22.2884 63.0928 21.5949 62.277 21.3335C61.4612 21.072 60.5678 21.2896 59.9619 21.8955L48.0691 33.8184L38.7173 16.0144C38.3213 15.2617 37.5401 14.7904 36.6898 14.7904C35.8394 14.7904 35.0582 15.2617 34.6622 16.0144L29.5493 25.7499L16.7214 1.8249C16.2562 0.955308 15.2875 0.481683 14.3148 0.647759C13.3422 0.813835 12.588 1.58348 12.438 2.55763L0.0399813 81.9213H0L0.0399813 81.9666L0.366751 82.1273L59.945 22.4799C60.5509 21.8717 61.4459 21.6525 62.2639 21.9132C63.082 22.1738 63.6856 22.8704 63.8278 23.717L73.2473 81.9782L73.3395 81.9213L63.8394 23.1326ZM0.149161 81.8121L12.4442 3.11891C12.5933 2.14475 13.3499 1.37511 14.3218 1.20903C15.2928 1.04296 16.2624 1.51658 16.7283 2.38618L29.5546 26.3111L34.6676 16.5765C35.0636 15.8237 35.844 15.3524 36.6951 15.3524C37.5455 15.3524 38.3259 15.8237 38.7219 16.5765L47.8845 34.0022L0.149161 81.8121Z" fill="white" fill-opacity="0.2"/>
<path d="M39.8968 99.9535C37.8147 101.116 35.2789 101.116 33.1968 99.9535L0.12077 81.4114L0.0400391 81.9212L33.1968 100.509C35.2789 101.672 37.8147 101.672 39.8968 100.509L73.3396 81.9212L73.2535 81.3945L39.8968 99.9535Z" fill="#A52714" fill-opacity="0.2"/>
</svg>
