<?xml version="1.0" encoding="UTF-8" standalone="no"?>
<!DOCTYPE svg PUBLIC "-//W3C//DTD SVG 1.1//EN" "http://www.w3.org/Graphics/SVG/1.1/DTD/svg11.dtd">
<svg preserveAspectRatio="xMidYMid" width="158" height="160" viewBox="0 0 158 160" version="1.1" xmlns="http://www.w3.org/2000/svg" xmlns:xlink="http://www.w3.org/1999/xlink" xml:space="preserve" xmlns:serif="http://www.serif.com/" style="fill-rule:evenodd;clip-rule:evenodd;stroke-linejoin:round;stroke-miterlimit:2;">
    <g transform="matrix(1,0,0,1,0,-2.00981)">
        <g id="wordmark__Softr">
        </g>
        <g id="appIcon__Softr">
            <path d="M94.5,2.01L10.5,2.01C4.701,2.01 0,6.711 0,12.51L0,38.76C0,44.559 4.701,49.26 10.5,49.26L94.5,49.26C100.299,49.26 105,44.559 105,38.76L105,12.51C105,6.711 100.299,2.01 94.5,2.01Z" style="fill:rgb(249,166,25);fill-rule:nonzero;"/>
            <path d="M94.5,59.76L68.25,59.76C62.451,59.76 57.75,64.461 57.75,70.26L57.75,96.51C57.75,102.309 62.451,107.01 68.25,107.01L94.5,107.01C100.299,107.01 105,102.309 105,96.51L105,70.26C105,64.461 100.299,59.76 94.5,59.76Z" style="fill:rgb(59,133,219);fill-rule:nonzero;"/>
            <path d="M23.62,107.01C36.665,107.01 47.24,96.435 47.24,83.39C47.24,70.345 36.665,59.77 23.62,59.77C10.575,59.77 0,70.345 0,83.39C0,96.435 10.575,107.01 23.62,107.01Z" style="fill:rgb(235,54,105);fill-rule:nonzero;"/>
        </g>
    </g>
</svg>
