<?xml version="1.0" encoding="UTF-8"?>
<svg xmlns="http://www.w3.org/2000/svg" version="1.1" viewBox="0 0 20 15">
  <!-- Generator: Adobe Illustrator 28.7.1, SVG Export Plug-In . SVG Version: 1.2.0 Build 142)  -->
  <g>
    <g id="Layer_1">
      <path d="M9.9,1.1C4.6,1.1.2,5.4.2,10.7v4.3h1.8c0-2.3,1.8-4,3.9-4s3.9,1.7,3.9,3.9h0c0,.1,1.8.1,1.8.1h0c0-3.3-2.6-5.8-5.7-5.8s-2.4.4-3.3,1c1-1.9,3-3.2,5.3-3.2s5.9,2.6,5.9,5.9v2.1h1.8v-2.1c0-4.2-3.5-7.7-7.7-7.7s-3.7.7-5,1.8c1.3-2.5,4-4.2,7-4.2,4.4,0,7.9,3.5,7.9,7.8v4.3h1.8v-4.3c0-5.3-4.4-9.6-9.7-9.6Z"/>
    </g>
  </g>
</svg>